<?xml version="1.0" encoding="UTF-8" standalone="no"?>
<!-- Generator: Adobe Illustrator 13.0.0, SVG Export Plug-In . SVG Version: 6.00 Build 14948)  -->

<svg
   version="1.2"
   id="Layer_3"
   x="0px"
   y="0px"
   width="598.189px"
   height="350.26px"
   viewBox="0 0 598.189 350.26"
   xml:space="preserve"
   sodipodi:docname="daphne.svg"
   inkscape:version="1.3 (0e150ed6c4, 2023-07-21)"
   xmlns:inkscape="http://www.inkscape.org/namespaces/inkscape"
   xmlns:sodipodi="http://sodipodi.sourceforge.net/DTD/sodipodi-0.dtd"
   xmlns="http://www.w3.org/2000/svg"
   xmlns:svg="http://www.w3.org/2000/svg"><defs
   id="defs24" /><sodipodi:namedview
   id="namedview24"
   pagecolor="#ffffff"
   bordercolor="#000000"
   borderopacity="0.25"
   inkscape:showpageshadow="2"
   inkscape:pageopacity="0.0"
   inkscape:pagecheckerboard="0"
   inkscape:deskcolor="#d1d1d1"
   inkscape:zoom="2.2150189"
   inkscape:cx="299.09451"
   inkscape:cy="174.94207"
   inkscape:window-width="1920"
   inkscape:window-height="1129"
   inkscape:window-x="-8"
   inkscape:window-y="-8"
   inkscape:window-maximized="1"
   inkscape:current-layer="Layer_3" />&#10;<path
   fill="#F4F4F4"
   d="M291.761,195.13c13.334-1.834,35.001-6.167,46.334-11.834c-3.5,3.334-4.5,3.5-4.5,3.5  c17.833,0.167,21.332,0.001,30.666-1.666c-1.999,5.166-24.5,7.333-35.333,7.833S298.429,198.63,291.761,195.13z"
   id="path1" />&#10;<path
   fill="#F4F4F4"
   d="M278.262,195.63c-17-12.666-17.833-17.5-25-24.667c-7.167-7.167-11.667-10.167-15.333-11.5  c3.667,2.833,4.167,6.333,4.167,6.333c-6.333-3.833-17.833-5.166-22.333-1.833c1.167,2.5,3.333,3.333,9.667,4.333s15.5,5,25,13.5  C263.929,190.296,273.929,195.13,278.262,195.63z"
   id="path2" />&#10;<path
   fill="#F4F4F4"
   d="M309.134,203.992c-1.549-0.718-2.684-1.394-3.525-2.155l0,0c-0.829-0.743-1.433-1.717-1.428-2.82l0,0  c0.021-1.348,0.779-2.297,1.588-3.076l0,0c0.838-0.787,1.873-1.494,3.006-2.232l0,0c2.01-1.27,5.551-2.146,9.717-2.889l0,0  c4.138-0.713,8.757-1.168,12.477-1.17l0,0c2.714,0.031,4.834,0.16,6.416,0.949l0,0c1.389,0.545,2.271,1.605,3.366,2.627l0,0  c1.086,1.079,2.241,2.139,3.146,2.545l0,0l4.727,2.203l-5.171,0.645l0,0c-0.021,0.004-0.065,0.012-0.136,0.026l0,0  c-0.139,0.03-0.379,0.089-0.73,0.193l0,0c-0.697,0.206-1.834,0.596-3.503,1.31l0,0c-5.839,3.24-14.372,5.313-21.486,5.327l0,0  C314.385,205.471,311.462,205.058,309.134,203.992L309.134,203.992z M337.692,197.489l0.076-0.043l0.068-0.029  c0.795-0.341,1.486-0.616,2.082-0.84l0,0c-0.447-0.405-0.868-0.819-1.271-1.209l0,0c-1.063-1.098-2.151-1.986-2.317-1.969l0,0  l0.431-1.435l0.741-1.306l-0.741,1.306l-0.431,1.435l-0.165-0.049l-0.145-0.082c-0.411-0.296-2.514-0.653-5.053-0.618l0,0  c-3.478-0.002-7.992,0.437-11.967,1.125l0,0c-3.947,0.659-7.494,1.689-8.588,2.444l0,0c-1.091,0.709-2.015,1.359-2.579,1.899l0,0  c-0.593,0.55-0.665,0.883-0.655,0.897l0,0c0.002,0-0.028,0.154,0.45,0.604l0,0c0.466,0.429,1.373,1.01,2.761,1.648l0,0  c1.693,0.788,4.268,1.213,7.206,1.207l0,0C324.146,202.489,332.489,200.435,337.692,197.489L337.692,197.489z"
   id="path3" />&#10;<path
   fill="#F4F4F4"
   d="M247.171,199.733c-4.792-1.379-7.459-5.002-8.695-9.072l0,0c-1.154-3.704-1.347-7.878-1.376-11.813l0,0  c-0.926-0.087-1.9-0.161-2.924-0.222l0,0l0.17-2.993c11.838,0.659,17.677,3.347,21.673,5.702l0,0  c7.017,4.104,11.485,9.103,12.068,15.154l0,0l0.154,1.641h-1.647c-3.485-0.078-7.646,2.416-13.604,2.463l0,0  c-0.007,0-0.015,0-0.022,0l0,0C251.19,200.593,249.261,200.349,247.171,199.733L247.171,199.733z M241.338,189.765  c1.139,3.51,2.971,5.973,6.68,7.09l0,0c1.824,0.538,3.457,0.739,4.971,0.739l0,0c4.406,0.043,7.897-1.813,11.862-2.333l0,0  c-0.979-4.053-4.427-7.868-10.348-11.337l0,0c-3.033-1.763-6.938-3.698-14.402-4.73l0,0  C240.14,182.921,240.372,186.698,241.338,189.765L241.338,189.765z"
   id="path4" />&#10;<path
   fill="#F4F4F4"
   d="M238.907,182.255c5,0.5,9.625,5.875,4.5,13.313C241.22,193.38,238.72,190.317,238.907,182.255z"
   id="path5" />&#10;<path
   fill="#F4F4F4"
   d="M310.157,194.88c3.125,2.688,3.125,6.125,1.313,8.063c-2.875-0.75-5.75-2.438-5.688-3.875  S307.72,195.817,310.157,194.88z"
   id="path6" />&#10;<path
   fill="#F4F4F4"
   d="M282.595,197.284c0.09-3.197,1.419-14.382,3.921-20.655l0,0v0.002l2.781,1.124  c-2.248,5.478-3.669,16.915-3.702,19.594l0,0L282.595,197.284L282.595,197.284z"
   id="path7" />&#10;<path
   fill="#F4F4F4"
   d="M298.851,204.655l1.822-2.383c11.012,8.443,29.609,15.287,41.777,18.233l0,0l-0.71,2.916  C329.237,220.366,310.506,213.545,298.851,204.655L298.851,204.655z M298.851,204.654L298.851,204.654L298.851,204.654v0.002  V204.654L298.851,204.654z"
   id="path8" />&#10;<path
   fill="#F4F4F4"
   d="M242.828,210.126l0.199-2.992c0.52,0.033,1.033,0.051,1.542,0.051l0,0  c6.197,0.013,12.138-2.646,22.147-8.041l0,0l1.423,2.641c-10.028,5.391-16.428,8.389-23.57,8.401l0,0  C243.991,210.186,243.409,210.165,242.828,210.126L242.828,210.126z"
   id="path9" />&#10;<path
   fill="#F4F4F4"
   d="M253.732,236.23c-4.889-3.363-7.063-7.574-8.205-10.563l0,0l-0.274-0.715l0.415-0.64  c1.765-2.746,4.081-5.2,9.3-8.452l0,0c5.234-3.276,13.47-7.495,27.489-14.09l0,0v0.002l1.277,2.714  c-13.981,6.572-22.159,10.773-27.174,13.916l0,0c-4.58,2.883-6.454,4.768-7.942,6.903l0,0c1.088,2.589,2.928,5.761,6.819,8.455l0,0  c4.26,2.938,11.085,5.331,22.315,5.333l0,0c1.061,0,2.16-0.021,3.299-0.065l0,0c-0.536-0.44-1.142-1.034-1.184-2.121l0,0  c0.006-1.047,0.732-1.772,1.388-2.138l0,0c0.689-0.4,1.514-0.662,2.611-0.891l0,0c2.182-0.446,5.456-0.706,10.341-0.71l0,0  c1.477,0.002,3.096,0.027,4.871,0.081l0,0c0.029-0.443,0.043-0.891,0.043-1.339l0,0c0.01-5.887-2.416-11.954-3.4-14.183l0,0  l2.749-1.2c1.035,2.388,3.64,8.714,3.649,15.383l0,0c0,1.025-0.062,2.058-0.203,3.091l0,0l-0.188,1.341l-1.354-0.05  c-2.306-0.084-4.354-0.123-6.166-0.123l0,0c-3.651,0-6.347,0.154-8.233,0.401l0,0c-1.083,0.132-1.907,0.317-2.459,0.486l0,0  c0.221,0.116,0.481,0.237,0.768,0.352l0,0c1.221,0.499,2.93,0.917,4.456,1.06l0,0l0.019,2.983  c-4.036,0.441-7.689,0.642-11.005,0.644l0,0C266.111,242.099,258.617,239.602,253.732,236.23L253.732,236.23z"
   id="path10" />&#10;<path
   fill="#F4F4F4"
   d="M261.851,275.342c0.001-0.001,0-0.001,0.002-0.001l0,0v0.001H261.851L261.851,275.342z M260.669,272.584  c17.102-7.315,20.932-8.342,24.188-8.369l0,0c0.71,0,1.323,0.05,1.971,0.083l0,0c4.286,0.257,13.13,3.771,19.108,7.756l0,0  l-1.684,2.484c-5.355-3.681-14.514-7.166-17.567-7.244l0,0c-0.712-0.035-1.269-0.079-1.828-0.079l0,0  c-2.292-0.026-5.933,0.796-23.004,8.126l0,0L260.669,272.584L260.669,272.584z"
   id="path11" />&#10;<path
   fill="#F4F4F4"
   d="M277.566,285.498c-5.292-0.002-10.295,1.084-13.296,1.454l0,0c-0.958,0.113-1.749,0.182-2.451,0.182l0,0  c-0.861-0.002-1.622-0.095-2.337-0.439l0,0c-0.722-0.34-1.257-0.952-1.576-1.541l0,0c-0.639-1.188-0.89-2.421-1.69-4.267l0,0  l2.758-1.182c0.653,1.528,1.008,2.711,1.298,3.431l0,0c0.311,0.759,0.423,0.809,0.522,0.862l0,0c0.093,0.05,0.396,0.14,1.025,0.137  l0,0c0.501,0,1.199-0.054,2.094-0.161l0,0c2.734-0.326,7.987-1.475,13.653-1.477l0,0c5.21,0.002,10.916,0.96,15.472,4.633l0,0  l-1.887,2.333C287.401,286.421,282.432,285.494,277.566,285.498L277.566,285.498z M256.215,280.886L256.215,280.886L256.215,280.886  v0.002V280.886L256.215,280.886z"
   id="path12" />&#10;<path
   fill="#F4F4F4"
   d="M314.856,164.462c-28.418-1.332-59.731-5.374-96.3-24.842l0,0l-0.885-0.472l0.096-0.997  c1.665-17.309,3.327-39.263,3.33-39.302l0,0l0.178-2.314l2.038,1.111c18.355,9.988,30.549,16.807,67.762,20.489l0,0  c3.793,0.374,7.738,0.547,11.781,0.547l0,0c17.576,0.002,36.928-3.305,53.365-7.805l0,0c16.418-4.473,30.012-10.231,35.783-14.766  l0,0l0.407-0.317h0.517c0.996,0.002,1.718,0.633,2.098,1.185l0,0c0.408,0.574,0.658,1.205,0.877,1.905l0,0  c0.424,1.393,0.676,3.076,0.85,4.757l0,0c0.343,3.346,0.341,6.624,0.341,6.653l0,0h-2.999c-0.002-0.004,0-1.375-0.094-3.231l0,0  c-0.092-1.853-0.283-4.183-0.641-5.977l0,0c-0.141-0.755-0.341-1.423-0.518-1.865l0,0c-6.828,4.843-19.978,10.196-35.831,14.549l0,0  c-16.653,4.555-36.209,7.907-54.155,7.911l0,0c-4.128-0.002-8.17-0.178-12.076-0.562l0,0c-36.051-3.514-49.574-10.299-66.868-19.73  l0,0c-0.461,5.951-1.751,22.278-3.062,36.049l0,0c35.714,18.795,66.133,22.7,94.147,24.025l0,0c0.897,0.041,1.813,0.062,2.746,0.062  l0,0c13.853,0.008,31.215-4.608,46.229-10.291l0,0c14.49-5.459,26.92-12.003,31.816-15.994l0,0c0.306-7.334,0.306-7.334,0.306-7.341  l0,0h0.002l2.996,0.125c0,0.008,0,0-0.332,7.999l0,0l-0.027,0.647l-0.49,0.425c-5.161,4.443-17.954,11.161-33.21,16.945l0,0  c-15.237,5.752-32.798,10.475-47.29,10.483l0,0C316.765,164.525,315.804,164.505,314.856,164.462L314.856,164.462z"
   id="path13" />&#10;<path
   fill="#F4F4F4"
   d="M225.629,99.91L225.629,99.91L225.629,99.91h0.002H225.629L225.629,99.91z M222.894,98.682  c16.187-36.055,49.411-68.573,88.354-88.389l0,0l0.707-0.36l0.695,0.381c51.863,28.412,72.954,56.475,81.719,86.563l0,0  l-2.881,0.841c-8.525-29.117-28.63-56.271-79.585-84.391l0,0c-38.085,19.55-70.556,51.521-86.273,86.583l0,0L222.894,98.682  L222.894,98.682z"
   id="path14" />&#10;<path
   fill="#F4F4F4"
   d="M278.844,117.852c0.755-40.76,12.077-77.793,31.843-107.063l0,0l0.883-1.31l1.264,0.953  c41.424,31.211,60.146,49.444,72.449,91.272l0,0v0.002l-2.877,0.847c-12.07-40.749-29.609-58.08-70.113-88.769l0,0  c-18.863,28.527-29.715,64.493-30.447,104.122l0,0L278.844,117.852L278.844,117.852z"
   id="path15" />&#10;<path
   fill="#F4F4F4"
   d="M232.843,130.755c0.002-5.454,4.421-9.875,9.875-9.875l0,0c5.454,0,9.875,4.421,9.875,9.875l0,0  c0,5.454-4.421,9.874-9.875,9.875l0,0C237.265,140.628,232.845,136.209,232.843,130.755L232.843,130.755z M235.845,130.755  c0.006,3.796,3.077,6.868,6.874,6.874l0,0c3.798-0.006,6.869-3.077,6.875-6.874l0,0c-0.006-3.798-3.077-6.869-6.875-6.875l0,0  C238.922,123.886,235.851,126.957,235.845,130.755L235.845,130.755z"
   id="path16" />&#10;<path
   fill="#F4F4F4"
   d="M330.345,141.629c0.002-5.661,4.588-10.248,10.25-10.25l0,0c5.661,0.002,10.248,4.589,10.25,10.25l0,0  c-0.002,5.662-4.589,10.249-10.25,10.25l0,0C334.933,151.878,330.347,147.291,330.345,141.629L330.345,141.629z M333.345,141.629  c0.006,4.003,3.246,7.242,7.25,7.25l0,0c4.003-0.008,7.242-3.247,7.25-7.25l0,0c-0.008-4.003-3.247-7.244-7.25-7.25l0,0  C336.591,134.386,333.351,137.626,333.345,141.629L333.345,141.629z"
   id="path17" />&#10;<path
   fill="#F4F4F4"
   d="M394.961,128.442c-1.983-0.815-2.95-2.652-3.528-4.454l0,0c-0.573-1.836-0.761-3.821-0.763-5.452l0,0  c0-0.177,0.002-0.36,0.009-0.531l0,0c0.152-3.394,1.41-7.15,4.083-9.042l0,0l0.4-0.266l0.479,0.016  c1.535,0.057,3.639,0.478,5.584,1.525l0,0c1.914,1.015,3.787,2.875,3.949,5.635l0,0c0.045,0.781,0.104,1.688,0.104,2.654l0,0  c-0.007,2.064-0.246,4.466-1.704,6.516l0,0c-1.465,2.066-4.129,3.417-8.022,3.502l0,0l-0.308,0.008L394.961,128.442L394.961,128.442  z M393.676,118.101c-0.005,0.128-0.007,0.275-0.007,0.436l0,0c-0.002,1.389,0.18,3.146,0.625,4.553l0,0  c0.383,1.251,0.962,2.101,1.517,2.441l0,0c3.098-0.17,4.496-1.109,5.328-2.238l0,0c0.87-1.188,1.149-2.942,1.142-4.765l0,0  c0-0.844-0.053-1.686-0.1-2.475l0,0c-0.09-1.41-0.967-2.384-2.386-3.179l0,0c-1.185-0.655-2.682-1.021-3.745-1.129l0,0  C394.845,112.845,393.688,115.73,393.676,118.101L393.676,118.101z"
   id="path18" />&#10;<path
   fill="#F4F4F4"
   d="M228.667,266.009c-5.085-15.682-10.512-32.773-12.878-44.755l0,0c-1.722-8.724-2.451-18.419-2.451-28.548  l0,0c0-17.766,2.252-36.871,5.448-54.345l0,0l2.95,0.538c-3.172,17.339-5.398,36.292-5.398,53.807l0,0  c0,9.984,0.723,19.499,2.395,27.967l0,0c2.301,11.684,7.708,28.757,12.788,44.409l0,0c5.085,15.69,9.829,29.856,10.888,36.308l0,0  l-2.962,0.479C238.506,295.985,233.75,281.651,228.667,266.009L228.667,266.009z"
   id="path19" />&#10;<path
   fill="#F4F4F4"
   d="M297.16,342.309c-12.254-0.006-24.619-3.197-33.172-6.976l0,0c-8.605-3.83-13.958-5.61-17.635-9.323l0,0  c-3.674-3.793-4.916-9.077-5.588-18.946l0,0c-1.298-19.377-12.991-75.202-19.263-94.3l0,0c-2.525-7.706-3.515-12.94-3.517-17.235  l0,0c0.013-6.645,2.367-10.67,4.515-17.359l0,0c3.59-11.044,2.98-17.339,10.426-31.889l0,0l2.669,1.367  c-7.222,14.118-6.498,19.82-10.242,31.444l0,0c-2.292,7.036-4.379,10.624-4.367,16.438l0,0c-0.002,3.814,0.889,8.751,3.367,16.301  l0,0c6.393,19.567,18.034,75.076,19.403,95.032l0,0c0.662,9.798,1.918,14.179,4.744,17.053l0,0c2.824,2.953,7.971,4.84,16.7,8.677  l0,0c8.151,3.61,20.233,6.723,31.959,6.717l0,0c12.648-0.007,24.69-3.574,31.532-13.529l0,0  c13.721-19.831,14.777-44.147,28.544-73.454l0,0c5.292-11.227,9.747-18.597,12.812-24.585l0,0c3.07-6.007,4.726-10.502,4.732-16.367  l0,0c0-3.514-0.61-7.559-1.969-12.693l0,0c-5.97-22.642-11.332-36.127-11.384-44.716l0,0h3.001  c-0.054,7.412,5.252,21.26,11.281,43.948l0,0c1.4,5.293,2.07,9.596,2.07,13.461l0,0c0.007,6.48-1.92,11.614-5.061,17.734l0,0  c-3.148,6.141-7.537,13.394-12.77,24.495l0,0c-13.564,28.693-14.506,53.041-28.787,73.88l0,0  c-7.66,11.099-20.846,14.827-33.97,14.827l0,0C297.183,342.309,297.171,342.309,297.16,342.309L297.16,342.309z"
   id="path20" />&#10;<path
   fill="#F4F4F4"
   d="M396.761,166.962c0.004-6.197-0.999-16.934-0.999-29.999l0,0h2.999c0,12.934,0.997,23.53,1.002,29.999l0,0  H396.761L396.761,166.962z"
   id="path21" />&#10;<path
   fill="#F4F4F4"
   d="M388.063,226.394c10.833-14.387,13.784-27.566,13.792-38.039l0,0c0-5.99-0.975-11.091-2.039-14.996l0,0  c-1.057-3.882-2.876-7.351-4.77-9.778l0,0c-1.854-2.468-3.951-3.703-4.646-3.604l0,0c-0.241,0.012-0.303,0.039-0.461,0.177l0,0  c-0.152,0.142-0.387,0.494-0.557,1.173l0,0c-1.479,5.935-5.584,15.54-5.607,46.542l0,0c0,4.725,0.1,9.938,0.319,15.703l0,0v0.002  l-2.999,0.113c-0.221-5.802-0.319-11.053-0.319-15.818l0,0c-0.022-31.146,4.282-41.639,5.696-47.269l0,0  c0.262-1.042,0.691-1.933,1.381-2.604l0,0c0.684-0.675,1.641-1.031,2.547-1.019l0,0c2.594,0.099,4.814,2.026,7.014,4.762l0,0  c2.157,2.775,4.125,6.55,5.295,10.83l0,0c1.117,4.099,2.148,9.472,2.148,15.787l0,0c0.006,11.041-3.176,24.967-14.397,39.847l0,0  L388.063,226.394L388.063,226.394z"
   id="path22" />&#10;<path
   fill="#F4F4F4"
   d="M369.637,259.198c4.64-7.743,16.632-17.718,22.185-36.657l0,0h0.002l2.877,0.843  c-5.779,19.728-18.456,30.419-22.482,37.342l0,0L369.637,259.198L369.637,259.198z"
   id="path23" />&#10;<path
   fill="#F4F4F4"
   d="M334.286,317.489c13.533-11.544,32.381-32.068,42.912-58.745l0,0l0.002,0.002l2.789,1.101  c-10.803,27.325-29.951,48.137-43.754,59.926l0,0L334.286,317.489L334.286,317.489z"
   id="path24" />&#10;<path
   style="fill:#000000;stroke-width:0.451463"
   d="m 287.35646,341.49162 c -8.39641,-1.07992 -16.20391,-3.30558 -25.43486,-7.25064 -8.91739,-3.81105 -12.27787,-5.589 -14.58735,-7.7178 -3.98818,-3.67618 -5.24523,-7.26241 -6.25779,-17.85291 -0.34497,-3.60809 -0.79665,-6.67998 -1.00373,-6.82644 -0.20708,-0.14645 -1.06257,-2.80575 -1.90108,-5.90956 -0.83851,-3.10381 -4.04246,-13.4649 -7.11989,-23.02464 -15.86949,-49.29707 -17.45881,-56.72947 -17.37715,-81.26341 0.0498,-14.97092 1.49244,-31.14347 4.18071,-46.86813 0.60454,-3.53622 0.73953,-5.30862 0.41937,-5.50649 -0.32535,-0.20108 -0.26017,-2.52632 0.20968,-7.47974 0.37499,-3.95338 1.09097,-12.26692 1.59108,-18.47454 1.38679,-17.213842 1.28936,-16.551925 2.35242,-15.982995 0.49397,0.264364 0.94997,0.41341 1.01333,0.331216 0.0634,-0.08219 1.53311,-2.892083 3.26609,-6.244199 11.15924,-21.585374 27.92815,-41.316079 50.03978,-58.878028 6.19072,-4.916917 20.12241,-14.234936 26.41061,-17.664379 2.6072,-1.421908 5.58219,-3.147985 6.61107,-3.835728 l 1.8707,-1.2504409 7.3843,4.2919519 c 23.79595,13.830836 42.26507,28.61733 54.53187,43.658541 7.53509,9.23933 15.12685,22.738185 18.81361,33.452351 0.93986,2.731354 2.08957,5.492129 2.5549,6.135063 0.76532,1.057399 1.15327,2.968407 1.93055,9.509647 0.21598,1.81764 0.41413,2.14128 1.47004,2.40107 0.67122,0.16514 2.10436,0.81485 3.18476,1.44381 2.81835,1.6407 3.87921,4.19029 3.55073,8.53356 -0.3404,4.50087 -1.89073,7.11922 -4.8874,8.25432 -1.13245,0.42896 -1.18821,0.6184 -1.43716,4.8833 -0.14245,2.44037 -0.0532,10.53179 0.19839,17.98094 l 0.45739,13.5439 1.73465,4.74037 c 2.61267,7.13975 3.35399,11.60249 3.33721,20.09012 -0.0122,6.17409 -0.18647,7.96104 -1.19969,12.30118 -1.4093,6.0368 -4.10753,12.96674 -6.98775,17.94687 -1.14884,1.98644 -2.0626,3.98617 -2.03057,4.44385 0.0892,1.27449 -2.02279,6.81354 -4.41652,11.5831 -2.7201,5.41986 -6.44242,11.04557 -11.50057,17.38134 -2.18057,2.73135 -4.39357,5.62385 -4.91777,6.42776 -1.05972,1.62517 -1.51164,1.76354 -2.76547,0.84672 -0.81834,-0.59838 -0.76803,-0.7434 1.13567,-3.27311 1.09557,-1.45584 3.5409,-4.59513 5.43407,-6.97619 4.58151,-5.76224 8.14904,-11.24151 10.60575,-16.28908 2.20178,-4.52381 2.40745,-5.52963 1.26183,-6.17075 -0.66206,-0.37051 -0.4157,-0.95043 1.97535,-4.64993 10.30195,-15.9395 13.26953,-31.57463 9.1083,-47.98847 -1.66291,-6.55927 -6.71002,-14.25122 -9.35102,-14.25122 -1.18911,0 -1.47344,0.60191 -2.98553,6.32049 -2.96227,11.20293 -4.02395,22.15034 -4.05889,41.85259 l -0.0266,14.99053 -1.06906,0.26834 c -0.58799,0.14759 -1.1974,0.14 -1.35425,-0.0169 -0.5024,-0.5024 -0.24412,-29.55737 0.31893,-35.87583 0.72414,-8.12634 2.02224,-15.74082 3.89116,-22.82491 1.68114,-6.37231 2.38501,-7.42314 4.97219,-7.42314 1.45767,0 4.42095,1.66519 5.52613,3.10536 0.45082,0.58747 0.5117,-1.3637 0.30818,-9.87731 -0.13949,-5.83517 -0.32995,-10.85847 -0.42324,-11.1629 -0.10846,-0.35394 -1.51919,0.28577 -3.91251,1.77416 -4.4034,2.73843 -15.10006,7.9336 -22.58727,10.9702 l -5.30048,2.14972 0.2497,1.85898 c 0.48658,3.62246 1.70019,8.35172 5.92215,23.07777 6.39838,22.31735 7.0525,25.20855 7.09887,31.3767 0.056,7.45168 -0.7595,10.18662 -6.12506,20.54159 -13.7174,26.47311 -17.02996,34.18146 -22.69927,52.82122 -3.82355,12.57122 -6.78836,21.6459 -8.46298,25.90347 -0.72044,1.83167 -1.23386,3.40635 -1.14091,3.49929 0.23259,0.2326 9.88895,-9.71653 13.24961,-13.65133 9.33069,-10.92474 18.14184,-24.74154 23.19111,-36.36604 l 1.89466,-4.36192 1.2761,0.44486 1.27611,0.44485 -1.57447,3.69134 c -5.32324,12.48029 -15.11723,27.73108 -25.27486,39.35694 -4.24018,4.85308 -14.36857,14.89668 -16.02411,15.88997 -0.64667,0.38799 -2.17036,2.45413 -3.38597,4.59144 -2.81357,4.94682 -8.65409,10.99099 -12.8196,13.26658 -4.09492,2.23702 -8.8437,3.84204 -13.69596,4.62902 -4.44889,0.72156 -14.77818,0.81727 -19.71234,0.18266 z m 19.88671,-2.92515 c 10.52973,-1.99745 17.53257,-6.47358 22.72875,-14.52791 4.83127,-7.48869 8.48557,-16.29025 13.1681,-31.716 8.40326,-27.68294 12.18524,-37.01416 23.42147,-57.78732 7.1963,-13.30425 8.78228,-18.17452 8.23396,-25.28501 -0.39786,-5.1592 -1.35435,-9.24976 -5.59107,-23.91066 -5.62939,-19.48018 -6.41632,-22.42993 -7.04944,-26.42445 -0.31485,-1.98644 -0.71839,-3.56887 -0.89675,-3.51651 -0.17836,0.0524 -3.01365,0.94234 -6.30063,1.97774 -21.57692,6.79673 -33.22166,8.00357 -56.08878,5.81298 -21.62278,-2.0714 -43.31925,-7.22099 -59.91738,-14.22119 l -3.52269,-1.48568 -1.6004,3.45901 c -1.56945,3.39212 -4.39914,10.96089 -4.15654,11.11777 0.0677,0.0438 1.68828,0.40903 3.60127,0.81163 1.91299,0.40261 4.70642,1.22814 6.20762,1.8345 3.15648,1.27496 3.34177,0.99533 1.38502,-2.09015 -0.73945,-1.16599 -1.17763,-2.11998 -0.97373,-2.11998 0.86765,0 7.29611,4.93832 10.81845,8.31071 2.09854,2.00919 5.79383,5.9894 8.21175,8.8449 5.07114,5.98888 9.977,10.82211 15.11614,14.89236 4.331,3.4302 3.36199,3.44224 -3.52603,0.0438 -3.03122,-1.49555 -4.33202,-1.95319 -4.12177,-1.45012 0.73468,1.75797 1.55305,4.79995 1.55305,5.77291 0,0.87841 -0.23376,1.05691 -1.3841,1.05691 -0.76126,0 -3.43858,0.53054 -5.9496,1.17898 -6.30562,1.62836 -11.66274,1.4441 -15.53417,-0.5343 -4.77715,-2.44124 -7.05797,-7.15525 -7.6692,-15.8507 l -0.29572,-4.20691 H 235.823 c -1.12986,0 -1.28776,-0.16606 -1.28776,-1.35439 0,-1.10436 0.18752,-1.3539 1.0158,-1.35173 2.18123,0.006 9.74178,1.34754 12.52811,2.22344 1.61398,0.50738 3.01451,0.92512 3.1123,0.92832 0.46632,0.0153 -4.15932,-3.22018 -7.17547,-5.01895 -5.82353,-3.47304 -13.6583,-6.38279 -15.39345,-5.71694 -0.39841,0.15288 -1.00977,1.69689 -1.50695,3.80578 -0.46011,1.9517 -2.02306,7.10414 -3.47322,11.44986 -2.38763,7.15505 -2.63734,8.26659 -2.64384,11.76871 -0.009,4.98365 0.4719,7.47255 3.21172,16.61353 7.06388,23.56759 16.88708,70.47533 18.87411,90.12762 1.52312,15.06414 1.76998,16.36781 3.75878,19.85035 1.5511,2.71608 4.81561,4.8796 12.57295,8.33255 9.23914,4.11254 15.16167,6.14101 21.81928,7.47314 6.99231,1.3991 7.32351,1.43165 15.4391,1.51743 4.60327,0.0487 8.05405,-0.15901 10.56871,-0.63603 z m -69.80288,-56.5147 c -3.83117,-21.90396 -10.81177,-52.68497 -15.51876,-68.43018 -3.2106,-10.73966 -3.79651,-13.97208 -3.52613,-19.45347 0.19294,-3.91146 0.50812,-5.34917 2.2354,-10.19678 1.78186,-5.00078 3.86013,-11.95065 4.61321,-15.42683 0.22929,-1.05841 0.0944,-1.24237 -1.10362,-1.50551 -1.39419,-0.30621 -4.05197,-2.24426 -4.05197,-2.95469 0,-0.46194 4.21838,-1.78321 5.69319,-1.78321 0.8485,0 1.13587,-0.42515 1.75462,-2.59592 0.40697,-1.42775 1.76272,-4.99607 3.01279,-7.9296 1.25008,-2.93354 2.20126,-5.37311 2.11375,-5.42128 -2.3657,-1.30225 -11.2459,-5.39539 -11.38891,-5.24949 -0.28462,0.2904 -2.36132,14.03137 -3.16932,20.97056 -2.332,20.02761 -2.49744,39.03298 -0.46176,53.04695 1.45381,10.00826 5.44563,24.38457 14.82186,53.38012 2.62866,8.12901 4.77938,14.88403 4.77938,15.01116 0,0.12714 0.11079,0.23116 0.24619,0.23116 0.13541,0 0.11294,-0.76185 -0.0499,-1.69299 z m 22.60264,-85.54579 c 2.23474,-0.52837 4.24486,-1.1156 4.46694,-1.30497 0.58571,-0.49945 -0.51645,-2.87922 -2.4895,-5.37531 -1.84955,-2.33986 -7.85871,-6.55779 -11.45817,-8.04268 -2.45151,-1.01133 -6.23451,-2.0871 -8.91641,-2.53558 l -1.69298,-0.28311 0.001,1.71345 c 0.001,1.51375 0.19675,1.81867 1.679,2.61637 3.41079,1.83556 4.65637,5.73006 3.05695,9.558 -0.54977,1.31578 -0.57143,1.75976 -0.11286,2.31274 1.27442,1.53682 6.43535,2.83539 9.82251,2.4715 0.86907,-0.0934 3.40855,-0.60204 5.6433,-1.13041 z m 69.7511,-35.85224 c 10.32379,-1.42296 25.81015,-5.83977 38.78366,-11.06136 7.8438,-3.15699 19.40914,-8.89898 23.74402,-11.7885 l 3.61171,-2.40747 0.11748,-3.36467 0.11747,-3.36467 -1.47186,-0.67719 c -4.20726,-1.93573 -5.15324,-11.57119 -1.6546,-16.85319 l 1.35097,-2.03958 -0.44083,-4.30898 c -0.24247,-2.36994 -0.6069,-4.59852 -0.80986,-4.952404 -0.29763,-0.518948 -1.01693,-0.262616 -3.718,1.324954 -13.17124,7.74145 -41.44246,15.95516 -65.04773,18.89849 -16.69366,2.08152 -28.0237,1.91218 -46.50073,-0.695 -19.1734,-2.70544 -32.03878,-6.68817 -47.33686,-14.65402 -3.57854,-1.86338 -6.56358,-3.33012 -6.63343,-3.25942 -0.0699,0.0707 -0.75293,7.6454 -1.51796,16.83268 -0.76502,9.18729 -1.48874,17.26347 -1.60827,17.94708 -0.20584,1.17727 0.0146,1.3591 4.17344,3.44175 22.44142,11.23826 45.94843,17.99116 71.65881,20.58554 16.59661,1.67473 23.32253,1.75499 33.18257,0.39596 z m 69.03792,-35.63665 c 2.48587,-0.99465 3.30381,-2.45954 3.5545,-6.36595 0.20827,-3.2452 0.1958,-3.28992 -1.34767,-4.83338 -0.97361,-0.97362 -2.21028,-1.68028 -3.29741,-1.88422 -2.18887,-0.41064 -3.08384,0.53941 -3.88639,4.12556 -0.92888,4.15067 0.55023,9.67346 2.59073,9.67346 0.32895,0 1.40276,-0.32196 2.38624,-0.71547 z m -76.78963,-7.40833 c 12.76331,-1.46948 26.98548,-4.3701 38.67695,-7.88819 10.64649,-3.20365 21.44451,-7.37211 21.44451,-8.27842 0,-1.10744 -4.77377,-14.23038 -7.03757,-19.346065 C 368.4273,66.958056 361.62519,57.254532 348.5695,44.211728 339.80423,35.455103 334.18629,30.58783 320.89973,20.239169 l -8.43968,-6.573513 -0.8626,1.065258 c -1.71588,2.119027 -6.84493,11.147932 -10.09712,17.774452 -11.43072,23.29065 -18.32954,50.828424 -19.41213,77.486624 -0.33539,8.25878 -1.14268,7.31077 6.84839,8.0421 2.97965,0.2727 6.23019,0.57329 7.22341,0.66798 3.81219,0.36344 18.68703,-0.2649 25.88232,-1.09331 z m -42.65476,-7.80851 c 0.95538,-22.15749 6.2006,-46.465653 14.3894,-66.685494 2.65586,-6.557855 8.25601,-17.958963 11.53131,-23.476097 1.25298,-2.110592 2.21999,-3.897991 2.14891,-3.971999 -0.21217,-0.220929 -8.66329,4.757046 -14.23169,8.382919 -24.30984,15.829379 -45.96497,37.713695 -59.42324,60.052132 -3.32592,5.520459 -8.16007,14.847119 -7.83611,15.118413 0.11937,0.09996 2.3502,1.312606 4.9574,2.694756 10.34036,5.48174 19.64505,9.06463 30.02231,11.56047 6.09016,1.46475 14.93604,3.1281 16.97264,3.19148 l 1.17142,0.0365 z M 388.75223,98.411494 c 2.91971,-1.867713 2.90022,-1.38685 0.33812,-8.344543 -8.27664,-22.476295 -24.41396,-41.816652 -50.15045,-60.104624 -6.27858,-4.461466 -8.59078,-5.860146 -5.76221,-3.485626 17.05976,14.321261 26.94073,24.749458 34.80081,36.728177 5.90193,8.994488 10.49052,18.5912 14.45049,30.22214 1.10387,3.242216 2.10697,6.16996 2.22911,6.506102 0.2747,0.75601 0.89261,0.52636 4.09413,-1.521626 z"
   id="path25" /><path
   style="fill:#000000;stroke-width:0.451463"
   d="m 240.55788,140.20824 c -2.31705,-0.56786 -4.33997,-1.97563 -5.777,-4.02027 -1.102,-1.56795 -1.3763,-2.46721 -1.50821,-4.94444 -0.19894,-3.73597 1.03485,-6.40487 3.89081,-8.4165 2.18706,-1.54049 6.14046,-2.06312 8.84771,-1.16964 7.89273,2.60483 8.49425,13.96435 0.9393,17.73861 -1.7782,0.88835 -4.6126,1.24848 -6.39261,0.81224 z m 5.92763,-3.6322 c 0.87423,-0.54031 1.94722,-1.80808 2.50437,-2.95899 1.34353,-2.77536 0.92055,-5.15088 -1.3507,-7.58579 -1.54241,-1.65354 -1.92282,-1.82698 -4.34971,-1.98318 -2.10273,-0.13533 -2.96749,0.0222 -4.13085,0.75253 -3.98671,2.50275 -4.416,7.9309 -0.88784,11.22601 2.21413,2.06786 5.41179,2.28173 8.21473,0.54942 z"
   id="path26" /><path
   style="fill:#000000;stroke-width:0.451463"
   d="m 338.82329,151.47073 c -4.80801,-0.89703 -8.12634,-4.88734 -8.12634,-9.77199 0,-7.75147 7.5478,-12.36881 14.47595,-8.85563 3.33788,1.6926 5.03998,4.17874 5.2974,7.73756 0.23288,3.21953 -0.4475,5.47278 -2.28419,7.56465 -2.36559,2.69426 -5.9404,3.96393 -9.36282,3.32541 z m 5.91134,-3.83226 c 3.09733,-2.01983 4.11239,-6.75281 2.0914,-9.75176 -2.35051,-3.48791 -6.3527,-4.57308 -9.74712,-2.64286 -2.42556,1.37928 -3.37543,2.93055 -3.58721,5.85843 -0.27676,3.82618 1.21763,6.18163 4.73738,7.46703 2.13222,0.77868 4.37648,0.45756 6.50555,-0.93084 z"
   id="path27" /><path
   style="fill:#000000;stroke-width:0.451463"
   d="m 283.04394,193.79067 c 0.43095,-4.42485 1.4444,-9.82057 2.57837,-13.72757 0.92452,-3.18534 0.95486,-3.22511 2.14392,-2.81059 l 1.20614,0.42046 -1.23768,4.92536 c -0.68073,2.70894 -1.4872,7.07188 -1.79216,9.6954 l -0.55448,4.77005 h -1.33144 -1.33145 z"
   id="path28" /><path
   style="fill:#000000;stroke-width:0.451463"
   d="m 267.19482,241.09073 c -9.92676,-1.8013 -16.65115,-6.09771 -20.24364,-12.93424 l -1.65887,-3.15683 1.55095,-1.99071 c 3.52972,-4.53054 8.80134,-7.89853 24.48625,-15.64403 9.86631,-4.87216 10.88558,-5.28162 11.39945,-4.57933 0.31039,0.42419 0.56433,0.99807 0.56433,1.27529 0,0.27722 -3.39656,2.11761 -7.54792,4.08975 -14.46753,6.87294 -23.86072,12.57821 -26.42641,16.05098 -0.86408,1.16957 -0.86313,1.19376 0.12274,3.12622 2.36247,4.63083 7.95137,8.5328 14.93086,10.4242 4.21191,1.14141 17.25744,1.78623 16.32482,0.80692 -0.80778,-0.84822 -0.6961,-2.41012 0.2324,-3.2504 1.23772,-1.12012 4.26948,-1.63606 11.56473,-1.96805 l 6.71816,-0.30574 -0.24031,-3.65152 c -0.15243,-2.31598 -0.73247,-5.10099 -1.5859,-7.61449 -1.2744,-3.75334 -1.3022,-3.98616 -0.52563,-4.40176 1.33451,-0.71421 1.62264,-0.5358 2.38992,1.4799 1.6088,4.22644 2.55254,9.09376 2.55254,13.16466 v 4.10382 l -7.33628,0.008 c -4.03495,0.004 -8.14635,0.17481 -9.13643,0.37916 -1.64252,0.33902 -1.72782,0.42445 -0.97415,0.97554 0.4543,0.33219 1.61989,0.73811 2.59021,0.90205 1.55608,0.2629 1.76421,0.44593 1.76421,1.5514 0,1.1488 -0.17471,1.27729 -2.09459,1.54044 -3.53246,0.48418 -16.00198,0.23967 -19.42144,-0.38083 z"
   id="path29" /><path
   style="fill:#000000;stroke-width:0.451463"
   d="m 243.11305,208.92251 c 0,-1.33134 0.0417,-1.35466 2.95892,-1.65353 4.19702,-0.43 9.14693,-2.10554 15.24019,-5.15878 l 5.27027,-2.64086 0.71663,1.09371 c 0.39414,0.60154 0.6496,1.15443 0.56768,1.22865 -0.0819,0.0742 -2.44754,1.28379 -5.25694,2.68794 -6.34876,3.17314 -11.96141,5.06842 -16.22364,5.47841 l -3.27311,0.31484 z"
   id="path30" /><path
   style="fill:#000000;stroke-width:0.451463"
   d="m 339.72622,222.71265 c -12.35998,-3.15589 -28.05435,-9.75986 -36.91908,-15.53505 l -3.73651,-2.43426 0.75046,-1.14535 c 0.69573,-1.06181 0.82008,-1.09554 1.70493,-0.46247 8.55881,6.12341 23.86838,12.90484 37.34161,16.54062 3.21334,0.86712 3.41697,0.99553 3.21921,2.03004 -0.27039,1.41446 -0.45481,1.49308 -2.36062,1.00647 z"
   id="path31" /><path
   style="fill:#000000;stroke-width:0.451463"
   d="m 311.96122,204.79033 c -4.44317,-1.20791 -7.44915,-3.48167 -7.44915,-5.63464 0,-0.79175 0.30486,-1.87478 0.67747,-2.40675 l 0.67746,-0.96721 -4.21728,0.2516 c -4.37313,0.26091 -8.8253,-0.14205 -8.1401,-0.73674 0.21619,-0.18762 3.71965,-0.90488 7.78548,-1.5939 9.36892,-1.58771 21.75344,-4.61727 28.6665,-7.01254 5.166,-1.78994 6.83049,-2.07717 4.84249,-0.83564 -0.52079,0.32524 -0.94689,0.77722 -0.94689,1.00441 0,0.88613 24.06465,-0.21187 28.78079,-1.31318 1.78571,-0.417 1.08961,0.6303 -1.18507,1.78297 -2.93685,1.48821 -8.0603,2.79105 -14.44784,3.67393 -8.29305,1.14626 -7.70461,0.8467 -5.69862,2.90102 0.94266,0.96537 2.85195,2.21922 4.24288,2.78635 l 2.52895,1.03112 -3.09039,0.56427 c -1.69972,0.31035 -5.18245,1.46302 -7.7394,2.56148 -6.87899,2.95521 -11.13647,3.93019 -18.06387,4.13669 -3.22796,0.0962 -6.4785,0.009 -7.22341,-0.19324 z m 16.68386,-3.66387 c 2.84179,-0.76837 10.04959,-3.62576 11.05028,-4.38066 0.46575,-0.35135 -2.9808,-3.32366 -4.39524,-3.79047 -2.40659,-0.79425 -16.62526,0.5555 -22.04939,2.0931 l -2.3222,0.65828 0.87491,1.69433 c 0.58255,1.12817 0.78859,2.17063 0.61659,3.11976 -0.16922,0.93386 -0.0593,1.51539 0.31864,1.68629 1.37347,0.621 12.37798,-0.12661 15.90641,-1.08063 z"
   id="path32" /><path
   style="fill:#000000;stroke-width:0.451463"
   d="m 261.43285,273.88726 -0.62373,-1.19044 5.71166,-2.4033 c 11.43793,-4.81274 14.28523,-5.66882 18.8041,-5.65366 3.42076,0.0115 4.70558,0.24457 8.12634,1.47436 4.74509,1.70588 11.97017,5.38532 11.94942,6.08535 -0.008,0.26638 -0.29448,0.85387 -0.63686,1.30552 -0.59426,0.78393 -0.70954,0.76624 -2.54108,-0.38996 -4.52932,-2.85924 -13.48293,-6.07452 -16.91573,-6.07452 -2.52502,0 -8.86562,2.02131 -16.96232,5.40739 l -6.28807,2.62969 z"
   id="path33" /><path
   style="fill:#000000;stroke-width:0.451463"
   d="m 289.61378,288.31696 c -3.68205,-2.65853 -12.15259,-3.50657 -21.34531,-2.13703 -8.52687,1.27033 -9.65329,0.97019 -10.94412,-2.91613 -0.83618,-2.51751 -0.85058,-2.44155 0.5438,-2.86973 0.8436,-0.25905 1.11617,-0.007 1.89333,1.74977 1.07496,2.43012 1.18843,2.4471 8.84542,1.3242 3.35719,-0.49233 6.72241,-0.66001 10.39022,-0.51771 5.71793,0.22185 8.35522,0.86609 11.88873,2.90421 1.82482,1.05255 1.90882,1.18523 1.31575,2.07844 -0.85156,1.28252 -1.2595,1.34305 -2.58782,0.38398 z"
   id="path34" /><path
   style="fill:#cb8e73;stroke-width:0.451463;fill-opacity:1"
   d="m 291.8711,118.08921 c -9.02019,-0.96565 -9.06731,-0.97571 -9.46518,-2.02221 -0.38842,-1.02161 -0.3205,-2.88661 0.48653,-13.35907 1.59019,-20.635402 7.01427,-42.956016 14.91494,-61.376459 3.93921,-9.184279 13.64819,-27.110373 14.68328,-27.110373 0.31944,0 15.12312,11.624642 20.28425,15.928274 11.44669,9.544893 22.53104,20.84782 29.28701,29.864554 6.60628,8.816949 12.10578,19.457391 16.89439,32.687324 3.42491,9.46232 3.46129,8.66511 -0.47641,10.44088 -5.37206,2.42261 -21.21006,7.45037 -29.72442,9.43599 -9.29846,2.16847 -18.62374,3.81902 -27.08781,4.79445 -7.08027,0.81596 -24.87177,1.24386 -29.79658,0.71664 z"
   id="path35" /><path
   style="fill:#caad8e;fill-opacity:1;stroke-width:0.451463"
   d="m 284.87342,338.10282 c -9.16595,-1.62283 -17.8806,-4.56019 -27.99074,-9.43453 -10.94673,-5.27768 -11.4444,-6.25819 -13.52375,-26.64437 -2.04341,-20.03375 -12.31681,-69.46493 -18.53011,-89.15892 -2.70275,-8.56677 -3.37939,-11.97599 -3.38285,-17.04439 -0.003,-4.4383 0.106,-4.95947 2.64469,-12.64098 1.45632,-4.4065 2.90528,-9.1292 3.2199,-10.49487 0.91765,-3.98317 1.12555,-4.21744 3.45874,-3.89764 2.92569,0.40101 9.67836,3.3552 14.5178,6.35131 4.0833,2.52799 5.04976,3.45663 2.64647,2.5429 -1.37061,-0.52111 -7.52218,-1.64945 -11.25387,-2.06423 l -2.59592,-0.28853 v 1.83834 c 0,1.72966 0.0778,1.83833 1.31587,1.83833 1.31518,0 1.31603,0.002 1.60825,3.49885 0.90258,10.80112 3.91523,15.62258 10.95853,17.53808 3.42364,0.93109 8.64514,0.65107 13.42112,-0.71974 1.73276,-0.49734 4.01829,-0.90426 5.07896,-0.90426 1.80641,0 1.92756,-0.0786 1.91375,-1.24152 -0.008,-0.68284 -0.3832,-2.30811 -0.83355,-3.61171 -0.45035,-1.3036 -0.74394,-2.37018 -0.65244,-2.37018 0.0915,0 1.73635,0.78446 3.6552,1.74324 6.18927,3.09256 9.49214,3.70419 5.84007,1.08147 -3.96061,-2.8443 -10.85118,-9.33598 -15.13967,-14.26325 -9.30419,-10.69009 -15.70249,-16.65781 -20.42595,-19.05137 -2.80986,-1.42386 -3.11529,-1.40047 -1.68431,0.12899 1.36534,1.45931 2.82035,4.17604 2.23657,4.17604 -0.22312,0 -1.29492,-0.39017 -2.38178,-0.86704 -1.08686,-0.47687 -3.46797,-1.17302 -5.29135,-1.54701 -1.82339,-0.37399 -3.40404,-0.76877 -3.51257,-0.8773 -0.28,-0.28 2.30635,-7.20443 4.02582,-10.77831 l 1.4476,-3.0088 3.83744,1.57457 c 18.91616,7.76161 39.43494,12.3735 63.9983,14.3845 19.16367,1.56894 30.49642,0.275 49.78372,-5.68414 3.9621,-1.22416 7.36901,-2.22574 7.57092,-2.22574 0.20192,0 0.72711,1.87922 1.1671,4.17604 0.43999,2.29682 2.13023,8.7471 3.75611,14.33396 8.08704,27.78893 8.9804,31.7901 8.59275,38.48527 -0.37114,6.40992 -0.73883,7.27958 -13.31448,31.49156 -6.9517,13.38415 -10.12287,21.54047 -16.79412,43.19476 -6.32397,20.52703 -9.46306,28.3269 -14.51448,36.0649 -5.17569,7.92836 -11.84672,12.34531 -21.71721,14.37917 -4.45315,0.91758 -17.96577,0.91557 -23.15653,-0.003 z m 7.56125,-51.57243 c -1.80352,-1.37175 -5.37423,-2.89524 -8.17928,-3.4898 -4.00954,-0.84987 -8.52514,-0.82103 -15.88506,0.10145 -3.36569,0.42186 -6.46416,0.63472 -6.88549,0.47304 -0.42133,-0.16168 -1.11526,-1.06207 -1.54206,-2.00086 -0.4268,-0.9388 -0.8263,-1.78504 -0.88778,-1.88054 -0.19689,-0.30583 -2.84951,0.94548 -2.84951,1.3442 0,0.2111 0.48086,1.47114 1.06859,2.80008 1.58762,3.5899 2.52789,3.86127 9.71777,2.80464 10.18928,-1.49743 17.88132,-0.87485 22.3311,1.80745 l 1.87095,1.1278 1.01504,-1.24356 c 0.95595,-1.17117 0.96909,-1.2785 0.22573,-1.8439 z m -14.29358,-17.48186 c 3.1239,-1.06762 5.37166,-1.55646 7.15683,-1.55646 3.35196,0 9.51268,2.03931 15.00254,4.96612 l 4.14046,2.2074 0.71277,-1.08783 c 0.39203,-0.5983 0.71277,-1.28075 0.71277,-1.51655 0,-0.67046 -9.29653,-5.23824 -13.43346,-6.60043 -6.89838,-2.27146 -10.10639,-1.84427 -22.00641,2.93044 -10.6,4.25309 -10.14853,3.95717 -9.20307,6.03223 l 0.5034,1.10484 5.92996,-2.46165 c 3.26147,-1.35392 7.97937,-3.16207 10.48421,-4.01811 z m 7.52239,-27.13263 3.04737,-0.28781 v -1.74057 c 0,-1.39281 -0.16693,-1.74057 -0.83556,-1.74057 -0.45955,0 -1.52613,-0.24969 -2.37018,-0.55488 l -1.53462,-0.55488 2.25732,-0.30849 c 1.24152,-0.16968 5.23217,-0.3263 8.8681,-0.34805 7.57013,-0.0453 7.15885,0.2066 7.15885,-4.38441 0,-4.33678 -2.19109,-13.64282 -3.57344,-15.17721 -0.16594,-0.18417 -0.95754,-0.0873 -1.75912,0.21525 -1.03608,0.39108 -1.37323,0.74892 -1.1662,1.23779 1.33997,3.16417 2.50978,7.49428 2.85271,10.55947 0.22594,2.01953 0.34766,3.73501 0.27049,3.81219 -0.0772,0.0772 -3.46877,0.30955 -7.53688,0.5164 -9.42028,0.47899 -12.17729,1.51286 -11.47682,4.30376 l 0.28475,1.13453 -4.86183,-0.0158 c -8.38219,-0.0272 -14.35968,-1.56651 -19.55525,-5.03598 -2.67773,-1.78812 -5.89952,-5.47987 -6.49234,-7.43939 -0.77372,-2.55745 6.16854,-7.35034 22.54015,-15.56159 6.45592,-3.238 11.71773,-6.07238 11.6929,-6.29862 -0.34492,-3.14277 -0.10752,-3.19591 -11.97589,2.68063 -16.52354,8.18151 -21.15202,11.17878 -25.24718,16.34933 l -1.39177,1.75726 1.64977,3.13951 c 3.77117,7.17654 11.05443,11.71096 21.43473,13.34484 4.18176,0.65822 12.88971,0.85344 17.71994,0.39725 z m 56.73979,-20.76145 c 0.0249,-0.7571 -0.31277,-1.03018 -1.56407,-1.26492 -2.69431,-0.50546 -12.45999,-3.74909 -17.87369,-5.93669 -6.37335,-2.57537 -14.63797,-6.7615 -19.10027,-9.67452 l -3.38323,-2.2086 -0.91467,1.28455 -0.91468,1.28455 1.46245,1.10229 c 2.13667,1.61047 7.77421,4.96126 11.52493,6.85009 6.83586,3.44248 20.54501,8.56969 27.63472,10.33534 2.6991,0.6722 3.0548,0.47072 3.12851,-1.77209 z m -94.04021,-11.20979 c 3.35295,-0.37142 8.19483,-2.12888 14.49004,-5.25945 l 5.51896,-2.74454 -0.67732,-1.30979 c -0.37252,-0.72038 -0.85139,-1.30978 -1.06415,-1.30978 -0.21276,0 -2.8994,1.20675 -5.9703,2.68167 -7.05764,3.38971 -10.60313,4.56364 -14.72559,4.87574 l -3.27311,0.24779 v 1.43972 c 0,1.83106 0.29221,2.10054 1.9993,1.84374 0.76267,-0.11473 2.42865,-0.32402 3.70217,-0.4651 z m 76.29286,-5.00139 c 5.11515,-0.89089 8.2448,-1.79403 11.86757,-3.4247 3.86038,-1.73761 8.36489,-3.1004 10.24797,-3.1004 2.1877,0 1.89664,-0.66937 -0.83762,-1.92633 -2.30958,-1.06173 -5.30469,-3.25542 -5.30469,-3.88527 0,-0.17258 2.54921,-0.67967 5.66491,-1.12688 9.61116,-1.37951 17.81118,-4.07529 17.81118,-5.85548 0,-0.4527 -0.74754,-0.44899 -3.72457,0.0185 -2.04851,0.32169 -8.70196,0.69907 -14.78543,0.83862 l -11.06085,0.25374 1.80585,-1.65112 c 2.08567,-1.90695 1.84368,-1.88039 -4.21063,0.46216 -7.64353,2.95744 -23.60777,6.86695 -35.20353,8.62105 -2.80662,0.42456 -4.93037,0.94449 -4.71946,1.1554 0.79715,0.79715 5.8248,1.37633 9.32037,1.07369 3.33889,-0.28908 3.53917,-0.25674 3.20926,0.51819 -1.20714,2.83546 -0.27024,4.82401 3.09161,6.56188 4.22578,2.18447 9.87888,2.67727 16.82806,1.46694 z m -38.75823,-9.23388 c 0.28604,-3.72453 1.62253,-11.29819 2.57256,-14.57821 l 1.02731,-3.54686 -1.1484,-0.43662 c -0.63162,-0.24014 -1.39979,-0.34016 -1.70705,-0.22225 -1.05438,0.4046 -3.23756,9.95819 -4.01554,17.572 l -0.31441,3.07696 1.73209,-0.14245 c 1.62398,-0.13356 1.73967,-0.24107 1.85344,-1.72257 z"
   id="path36" /><path
   style="fill:#caad8e;fill-opacity:1;stroke-width:0.451463"
   d="m 271.13175,115.32974 c -7.44498,-1.33553 -17.37656,-3.95223 -23.37979,-6.15993 -5.23319,-1.92452 -18.77682,-8.31454 -20.62311,-9.730198 -0.82695,-0.634076 -0.73872,-0.893121 2.28527,-6.70909 11.58848,-22.287895 29.70048,-43.049686 52.84754,-60.57915 7.06806,-5.352698 23.81649,-16.131878 24.24597,-15.604547 0.0705,0.08653 -1.54196,3.147593 -3.58319,6.802369 -13.97976,25.030436 -22.30942,55.246849 -23.96115,86.920746 l -0.31194,5.98189 -1.4036,-0.0384 c -0.77198,-0.0211 -3.52418,-0.41878 -6.116,-0.88372 z"
   id="path37" /><path
   style="fill:#caad8e;fill-opacity:1;stroke-width:0.451463"
   d="m 287.41907,117.4247 c -2.48148,-0.35525 -4.4028,-0.86204 -4.6538,-1.22755 -0.50937,-0.74173 -0.15563,-8.77781 0.78947,-17.934928 1.81344,-17.570414 6.2851,-36.026085 12.70546,-52.438685 3.44502,-8.806629 15.13293,-31.157413 16.28854,-31.14856 0.4571,0.0035 16.1226,12.354512 22.20127,17.503957 2.84995,2.414282 8.44668,7.640139 12.43718,11.613017 12.23343,12.179409 18.42321,20.466327 24.61654,32.95683 3.44909,6.955994 8.69532,20.008326 9.26704,23.055884 0.34889,1.859735 -0.20885,2.251215 -6.6591,4.674035 -15.3203,5.75457 -36.04866,10.73056 -52.74399,12.66157 -6.98037,0.80736 -29.30095,0.99273 -34.24861,0.28443 z"
   id="path38" /><path
   style="fill:#caad8e;fill-opacity:1;stroke-width:0.451463"
   d="M 383.27426,94.920183 C 379.89402,84.65805 375.16097,74.245949 370.0892,65.914755 c -5.80833,-9.5411 -15.63698,-21.095607 -25.31999,-29.766036 -3.02271,-2.706615 -5.39663,-5.02032 -5.27539,-5.141567 0.12125,-0.121246 2.10236,1.215431 4.40246,2.970395 19.27178,14.704221 32.3316,29.637408 40.56421,46.382941 2.9108,5.920708 6.2811,14.392631 6.2811,15.788822 0,0.553237 -4.69163,3.849837 -5.47898,3.849837 -0.17347,0 -1.06823,-2.285534 -1.98835,-5.078964 z"
   id="path39" /><path
   style="fill:#cb8e73;fill-opacity:1;stroke-width:0.451463"
   d="m 286.00207,338.09591 c -8.35564,-1.43244 -18.8697,-4.87286 -27.38443,-8.96074 -12.35768,-5.93286 -12.62716,-6.39299 -14.85286,-25.36196 -2.92825,-24.95653 -11.44975,-66.40412 -18.69045,-90.90821 -2.89699,-9.80405 -3.22046,-11.5337 -3.21575,-17.19549 0.004,-4.58118 0.11628,-5.13577 2.70084,-13.31817 1.48327,-4.69586 2.97291,-9.55372 3.3103,-10.79524 l 0.61343,-2.25732 2.23599,0.038 c 1.5648,0.0266 3.49091,0.58783 6.41667,1.86973 4.15058,1.81853 10.68103,5.50274 10.34664,5.83713 -0.096,0.096 -1.16912,-0.0354 -2.3848,-0.29199 -1.21568,-0.25655 -4.19113,-0.73728 -6.6121,-1.06829 l -4.40177,-0.60183 v 1.91291 c 0,1.6608 0.14785,1.95002 1.12178,2.19446 1.23474,0.3099 1.24661,0.34697 2.01119,6.27841 0.96781,7.50805 3.52703,11.80077 8.27684,13.88316 3.18366,1.39577 9.21016,1.68341 13.87214,0.6621 1.86229,-0.40797 4.65572,-0.96364 6.20762,-1.23483 2.77632,-0.48514 2.82165,-0.51646 2.82165,-1.94968 0,-0.80114 -0.29573,-2.2948 -0.65717,-3.31923 -0.36144,-1.02444 -0.5918,-1.86262 -0.51191,-1.86262 0.0799,0 2.07518,0.91421 4.43398,2.03159 6.20985,2.94163 8.05593,2.71953 4.07138,-0.48982 -4.89988,-3.94662 -10.04159,-8.89691 -15.35995,-14.78815 -6.7714,-7.50078 -11.62959,-12.34123 -15.04149,-14.98654 -2.7295,-2.11624 -6.54828,-4.15461 -6.97813,-3.72476 -0.14659,0.14658 0.46635,1.22663 1.36209,2.4001 0.89573,1.17348 1.53312,2.22908 1.41642,2.34578 -0.1167,0.1167 -1.30202,-0.19558 -2.63404,-0.69395 -1.33202,-0.49838 -3.68237,-1.15413 -5.22298,-1.45722 -1.54062,-0.3031 -2.80113,-0.71396 -2.80113,-0.91302 0,-0.83519 4.48286,-12.02478 5.19226,-12.96031 0.0507,-0.0668 3.00197,1.01291 6.55839,2.39946 20.74388,8.08744 46.03095,12.98904 70.25282,13.61767 15.06181,0.3909 22.73259,-0.69103 39.2271,-5.53281 4.84867,-1.42328 8.91379,-2.48976 9.0336,-2.36996 0.1198,0.11981 0.91533,3.04308 1.76784,6.49616 0.85252,3.45309 3.36834,12.67783 5.59072,20.49944 5.20157,18.30683 5.94264,21.7724 5.94264,27.79039 0,6.58315 -0.80105,8.74827 -9.67855,26.15949 -10.8242,21.22921 -12.55985,25.48862 -19.92477,48.89683 -5.38952,17.12969 -8.14202,24.62207 -11.37847,30.9724 -5.63183,11.05037 -11.50201,16.41928 -21.54589,19.70603 -2.88084,0.94272 -4.09827,1.04345 -13.76964,1.13927 -5.83516,0.0578 -11.11728,0.0181 -11.73805,-0.0884 z m 6.47072,-49.64657 c 1.08646,-1.49172 0.52,-2.19417 -3.08474,-3.82528 -5.32039,-2.40742 -9.37447,-2.65634 -24.45423,-1.50147 l -3.68692,0.28235 -0.94976,-1.86167 c -1.00718,-1.97424 -1.94534,-2.31456 -3.41601,-1.23918 -0.77424,0.56614 -0.79881,0.79783 -0.27129,2.55851 0.31902,1.0648 1.15556,2.51152 1.85897,3.21493 1.54011,1.54011 2.09625,1.56549 11.45928,0.52281 8.41323,-0.9369 13.77003,-0.45313 18.10557,1.63511 3.34006,1.60876 3.42039,1.61263 4.43913,0.21389 z m -24.40916,-15.2666 c 9.84464,-4.01333 14.01759,-5.29564 17.23335,-5.29564 3.53855,0 8.14814,1.48671 14.54588,4.69141 4.5434,2.27584 4.66963,2.31002 5.33405,1.44393 1.39394,-1.81704 0.73666,-2.55696 -4.66104,-5.24699 -10.50169,-5.23369 -15.25645,-5.87451 -23.30159,-3.14045 -6.98179,2.37269 -15.67765,6.08112 -16.1995,6.90843 -0.44875,0.71143 0.19041,3.07499 0.83155,3.07499 0.13345,0 2.93124,-1.09606 6.2173,-2.43568 z m 19.63143,-31.25717 c 0.83371,-0.22343 1.01579,-0.5885 1.01579,-2.03671 0,-1.60207 -0.12553,-1.78959 -1.36378,-2.03724 -3.04808,-0.60961 -1.36874,-0.93335 6.18873,-1.19304 4.37381,-0.15029 8.15154,-0.47241 8.39494,-0.71581 0.64021,-0.6402 0.10683,-9.6765 -0.76261,-12.91984 -0.39937,-1.48983 -1.05394,-3.59268 -1.45459,-4.67299 -0.68806,-1.85529 -0.806,-1.9487 -2.12689,-1.68452 -0.76914,0.15382 -1.57362,0.45487 -1.78774,0.66899 -0.2181,0.2181 0.12275,2.01024 0.77506,4.07517 1.31425,4.16035 2.3141,9.57865 1.94504,10.5404 -0.18582,0.48424 -1.69312,0.71648 -6.19139,0.95395 -10.22512,0.53981 -12.64603,1.33296 -12.64603,4.14318 v 1.58813 l -5.3047,-0.28994 c -7.10696,-0.38845 -10.91385,-1.2088 -15.24124,-3.28434 -3.64226,-1.74692 -7.17758,-4.74363 -8.86975,-7.51842 -1.11114,-1.82204 -1.06069,-2.19655 0.54172,-4.0216 2.06025,-2.34649 7.42021,-5.59557 20.68538,-12.53898 6.58691,-3.44779 12.0626,-6.35511 12.1682,-6.46072 0.1056,-0.10559 0.0621,-0.70935 -0.0966,-1.34168 -0.20286,-0.80825 -0.59197,-1.14968 -1.31025,-1.14968 -2.28598,0 -23.1041,10.58418 -29.57839,15.03801 -3.29855,2.26916 -7.73863,6.79003 -7.75071,7.89174 -0.01,0.87791 1.71524,4.11251 3.49845,6.56055 3.69213,5.06867 11.13934,8.9288 19.74553,10.23476 2.7439,0.41637 18.1078,0.55064 19.52579,0.17063 z M 342.435,221.68594 c 0,-1.45724 -0.12951,-1.59727 -1.91872,-2.0745 -11.7114,-3.12372 -28.06892,-10.09363 -36.52225,-15.56207 -1.717,-1.11072 -3.29528,-2.01949 -3.50728,-2.01949 -0.44216,0 -1.8437,2.01404 -1.8437,2.64943 0,0.53567 6.28347,4.57965 11.08256,7.13262 8.61022,4.58038 26.97906,11.33591 31.0164,11.40694 1.63602,0.0288 1.69299,-0.0228 1.69299,-1.53293 z m -88.9091,-12.87332 c 3.27036,-1.09268 14.14816,-5.91131 14.78731,-6.55046 0.46581,-0.46581 -0.9838,-2.94106 -1.72241,-2.94106 -0.43544,0 -3.10265,1.08487 -5.92711,2.41083 -7.57577,3.55648 -12.56809,5.04034 -17.66351,5.2501 -0.18623,0.008 -0.33859,0.8546 -0.33859,1.88207 v 1.86812 l 3.49884,-0.31384 c 1.92436,-0.17262 5.23882,-0.89521 7.36547,-1.60576 z m 73.22663,-4.09816 c 2.50222,-0.50992 7.1052,-1.91327 10.22885,-3.11854 3.12364,-1.20528 6.94909,-2.43977 8.501,-2.74332 1.5519,-0.30355 2.82165,-0.70548 2.82165,-0.89318 0,-0.1877 -1.3879,-1.1658 -3.08421,-2.17356 -1.69631,-1.00777 -3.33129,-2.13002 -3.63329,-2.4939 -0.62482,-0.75286 -0.7376,-0.7189 6.26603,-1.88654 9.29148,-1.54907 16.47576,-4.02422 16.13756,-5.55976 -0.0903,-0.41011 -0.35698,-0.71125 -0.59256,-0.66919 -1.48936,0.2659 -15.9711,1.0636 -21.52937,1.18591 l -6.66156,0.14659 1.21109,-1.26411 c 0.6661,-0.69525 1.09147,-1.38372 0.94526,-1.52993 -0.14621,-0.14621 -2.46772,0.54364 -5.15892,1.53298 -8.1879,3.01007 -20.25074,6.04324 -33.55008,8.43608 -3.5944,0.64672 -6.62485,1.26542 -6.73432,1.37489 -0.81067,0.81067 2.99501,1.52994 8.16226,1.54267 l 4.37339,0.0108 -0.26043,1.60481 c -0.15724,0.96898 -0.0184,2.05702 0.35043,2.74618 0.74339,1.38906 3.91129,3.3072 6.70682,4.06096 3.2672,0.88093 10.35222,0.73932 15.5004,-0.30981 z m -41.13114,-7.59661 c 0.16308,-0.15389 0.62642,-2.56 1.02964,-5.34691 0.40322,-2.78691 1.25364,-7.13119 1.88981,-9.65395 1.2558,-4.97993 1.17146,-5.348 -1.22866,-5.36215 -1.01591,-0.006 -1.27352,0.3045 -1.92419,2.31917 -0.99736,3.08815 -2.42855,10.27521 -2.77327,13.9266 -0.15237,1.61398 -0.36746,3.37896 -0.47797,3.92217 -0.18496,0.90916 -0.0662,0.96728 1.4936,0.73127 0.93199,-0.14102 1.82796,-0.38231 1.99104,-0.5362 z"
   id="path40" /><path
   style="fill:#705b40;fill-opacity:1;stroke-width:0.451463"
   d="m 234.68374,274.43754 c -0.76515,-2.45433 -3.05234,-9.64296 -5.08264,-15.97473 -6.70173,-20.90028 -10.27246,-34.16563 -11.50865,-42.75491 -2.17781,-15.13182 -2.10771,-30.93822 0.23184,-52.27814 0.90404,-8.24605 2.85693,-21.33342 3.24062,-21.71711 0.19642,-0.19642 10.71302,4.70125 10.71302,4.98915 0,0.0932 -0.73386,1.86359 -1.63079,3.93411 -0.89693,2.07052 -2.18491,5.38914 -2.86218,7.37473 l -1.23139,3.61015 -2.21678,0.50708 c -2.44312,0.55887 -4.69984,1.50617 -4.69984,1.97285 0,0.60228 2.08637,2.23819 3.73074,2.92526 0.92775,0.38764 1.68682,0.85852 1.68682,1.04641 0,0.78258 -2.01252,7.59297 -4.36473,14.77029 -3.87861,11.83481 -3.79896,14.99749 0.7626,30.28012 4.03059,13.50375 8.8225,33.7255 12.89734,54.42648 1.12491,5.71475 1.97327,10.6065 1.88525,10.87056 -0.088,0.26406 -0.78607,-1.52798 -1.55123,-3.9823 z"
   id="path41" /><path
   style="fill:#705b40;fill-opacity:1;stroke-width:0.451463"
   d="m 310.3811,161.11751 c -30.29956,-2.18507 -51.52411,-6.88027 -73.46403,-16.25138 -5.2243,-2.23143 -14.45532,-6.73736 -15.38801,-7.51134 -0.3829,-0.31773 -0.50399,-1.05917 -0.34396,-2.106 0.13584,-0.88859 0.75909,-7.91353 1.38501,-15.61098 0.62591,-7.69746 1.24887,-14.84956 1.38434,-15.89356 l 0.2463,-1.8982 7.9889,3.9987 c 4.39389,2.19928 9.85478,4.72479 12.13532,5.61225 20.40292,7.93967 51.28897,11.9043 74.4082,9.55126 24.81204,-2.52533 49.97107,-9.17695 67.18546,-17.76271 3.67915,-1.83499 6.80996,-3.21574 6.95737,-3.06833 0.14741,0.14741 0.47731,2.19845 0.73311,4.55787 0.44595,4.11327 0.42331,4.34637 -0.54999,5.66282 -1.61156,2.17976 -2.38263,4.92032 -2.3809,8.46234 0.002,4.94409 1.26338,8.10822 3.74212,9.39003 1.22971,0.63591 1.28734,0.80738 1.28734,3.82984 v 3.16414 l -3.49884,2.26563 c -4.48671,2.90532 -17.22941,9.18193 -24.49189,12.06387 -11.80599,4.68491 -25.53989,8.69437 -35.89134,10.47808 -5.29858,0.91303 -16.11064,1.45032 -21.44451,1.06567 z m 34.61894,-10.14269 c 2.50147,-1.21094 4.84993,-3.96574 5.5684,-6.53188 2.02253,-7.22375 -4.35841,-14.31507 -11.75638,-13.06519 -6.14541,1.03826 -10.24999,8.40622 -7.8665,14.12084 2.24593,5.38478 8.8931,7.97481 14.05448,5.47623 z m -98.37365,-11.04511 c 8.46251,-3.53499 7.72973,-16.25913 -1.07838,-18.72525 -7.58058,-2.12243 -14.50305,4.80004 -12.38062,12.38063 1.55666,5.55985 8.03117,8.61196 13.459,6.34462 z"
   id="path42" /><path
   style="fill:#caad8e;fill-opacity:1;stroke-width:0.451463"
   d="m 302.02903,160.25638 c -30.48089,-3.13944 -50.55345,-8.5266 -74.169,-19.90581 -3.29891,-1.58959 -6.11211,-3.18749 -6.25157,-3.55091 -0.21428,-0.5584 2.47425,-34.08661 2.76152,-34.43842 0.0543,-0.0665 4.24294,1.90376 9.30805,4.37841 15.29618,7.47323 27.25903,10.93141 47.12403,13.62247 9.96734,1.35024 30.06805,1.68681 39.51123,0.66157 24.17218,-2.62436 46.81295,-8.65498 65.4622,-17.43659 3.60042,-1.69537 6.70614,-2.92457 6.90161,-2.73154 0.19546,0.19304 0.47726,2.07798 0.62622,4.18877 0.25152,3.564 0.18794,3.97991 -0.89103,5.82966 -1.70581,2.92441 -2.34118,7.26109 -1.66192,11.34353 0.49593,2.98058 0.73168,3.46735 2.51177,5.18625 1.79804,1.73623 1.98918,2.13815 2.25617,4.74408 l 0.2917,2.84713 -4.67867,2.7717 c -16.74483,9.91986 -41.19985,18.98196 -59.53146,22.06012 -6.10869,1.02574 -21.59806,1.25076 -29.57085,0.42958 z m 44.4378,-9.89734 c 5.48032,-3.79787 6.13036,-11.80811 1.32799,-16.36439 -3.00239,-2.84855 -7.7643,-3.68077 -11.45845,-2.00256 -2.0523,0.93234 -4.5495,3.56632 -5.47016,5.76978 -0.9241,2.21169 -0.78663,6.30435 0.2862,8.52052 1.92594,3.97847 5.02737,5.69857 9.96681,5.52775 2.95,-0.10202 3.69107,-0.30311 5.34761,-1.4511 z m -98.84328,-10.79975 c 1.18361,-0.58925 2.58983,-1.80953 3.37864,-2.93186 1.14137,-1.62397 1.37724,-2.43835 1.51894,-5.24444 0.14876,-2.94592 0.0276,-3.57934 -1.07001,-5.59609 -0.69713,-1.28087 -2.03205,-2.82461 -3.05632,-3.53443 -1.62742,-1.1278 -2.20573,-1.26027 -5.50185,-1.26027 -3.26511,0 -3.89694,0.14139 -5.56517,1.24537 -2.93143,1.93993 -4.31738,4.3934 -4.52139,8.00399 -0.18757,3.31955 0.42073,5.06658 2.57046,7.38222 3.18455,3.43034 7.78399,4.15726 12.2467,1.93551 z"
   id="path43" /><path
   style="fill:#caad8e;fill-opacity:1;stroke-width:0.451463"
   d="m 337.33686,147.81369 c -2.6215,-1.3835 -3.5609,-3.22391 -3.37084,-6.60392 0.125,-2.22291 0.38846,-3.0539 1.26603,-3.9932 1.60143,-1.71407 3.2711,-2.45474 5.53365,-2.45474 6.99518,0 9.25604,9.66956 3.03058,12.96166 -2.3788,1.25794 -4.1986,1.28336 -6.45942,0.0902 z"
   id="path44" /><path
   style="fill:#caad8e;fill-opacity:1;stroke-width:0.451463"
   d="m 239.63874,136.58755 c -4.02504,-2.45422 -4.58419,-7.5291 -1.18298,-10.73685 1.39619,-1.31678 1.84078,-1.47253 4.20333,-1.47253 2.19151,0 2.88161,0.20162 4.04724,1.18244 2.84965,2.39781 3.51236,5.64528 1.70067,8.33365 -2.26889,3.36681 -5.8564,4.46876 -8.76826,2.69329 z"
   id="path45" /><path
   style="fill:#caad8e;fill-opacity:1;stroke-width:0.451463"
   d="m 395.37034,124.71677 c -1.6509,-2.08001 -1.8658,-8.22286 -0.38767,-11.08126 1.09099,-2.10973 3.37655,-1.92244 6.02971,0.49412 0.852,0.77602 1.01579,1.39289 1.01579,3.82565 0,1.67125 -0.29343,3.51883 -0.6924,4.35958 -1.05765,2.22883 -4.88097,3.76825 -5.96543,2.40191 z"
   id="path46" /><path
   style="fill:none;fill-rule:evenodd;stroke:#000000;stroke-width:2.2;stroke-linecap:butt;stroke-linejoin:miter;stroke-dasharray:none;stroke-opacity:1"
   d="m 377.87488,260.49439 2.25732,-11.28658"
   id="path47"
   inkscape:connector-type="polyline"
   inkscape:connector-curvature="0" /><path
   style="fill:#caad8e;fill-opacity:1;stroke-width:0.99322;stroke-dasharray:none"
   d="m 339.74787,312.13552 c -0.0119,-0.15244 0.69161,-2.18403 1.56337,-4.51463 0.87176,-2.33061 3.49507,-10.4389 5.82959,-18.01841 6.9378,-22.52514 9.98903,-30.20228 18.65633,-46.94089 9.0714,-17.51901 9.91616,-19.29755 10.95962,-23.07408 0.80431,-2.91098 1.0391,-4.8855 1.01412,-8.52836 -0.0411,-5.98691 -0.83359,-9.6046 -6.2803,-28.66793 -4.89266,-17.12417 -6.31383,-22.56536 -6.72124,-25.73341 l -0.29028,-2.25732 2.86046,-1.08888 c 6.28079,-2.39087 17.11384,-7.45815 22.39833,-10.47708 3.07169,-1.7548 5.64749,-3.12087 5.724,-3.03571 0.0765,0.0852 0.28456,4.72591 0.46233,10.31277 l 0.32323,10.15792 -1.28566,-1.18636 c -3.21168,-2.96361 -6.48751,-2.9807 -8.00538,-0.0418 -1.15118,2.22893 -3.90716,14.20291 -4.8547,21.09234 -0.76754,5.58062 -0.97228,10.00901 -1.16367,25.16928 l -0.23227,18.39713 1.74481,2.6e-4 1.74481,2.6e-4 -0.15407,-11.35355 c -0.28717,-21.16282 1.2488,-36.45025 4.89106,-48.68026 0.78591,-2.63894 1.10596,-3.17159 1.90573,-3.17159 2.62213,0 7.60578,8.13957 9.39828,15.34976 1.39429,5.60844 1.69817,15.15988 0.67671,21.26992 -1.41286,8.45121 -5.05391,17.31796 -10.52354,25.62711 -2.16237,3.28494 -2.39195,3.837 -1.74604,4.19847 1.22742,0.6869 0.87531,2.02843 -1.97756,7.53451 -2.5836,4.98639 -5.65122,9.46054 -13.68829,19.96447 l -3.54284,4.63026 1.05979,0.81515 c 0.58289,0.44834 1.26295,0.81399 1.51125,0.81256 0.24831,-10e-4 1.5654,-1.53092 2.92687,-3.39888 1.36147,-1.86796 2.5392,-3.2049 2.61717,-2.97099 0.38397,1.15194 -1.55096,7.1017 -3.92053,12.05528 -6.83337,14.28519 -16.56641,28.12108 -28.41044,40.38653 -2.99717,3.10381 -5.45914,5.51857 -5.47105,5.36613 z"
   id="path48" /><path
   style="fill:#705b40;fill-opacity:1;stroke-width:0.99322;stroke-dasharray:none"
   d="m 340.62915,310.49181 c 0,-0.29081 0.38252,-1.50127 0.85005,-2.68991 0.46752,-1.18864 2.92478,-8.76382 5.46057,-16.83373 7.94949,-25.29847 9.08803,-28.12517 20.54805,-51.01536 8.65875,-17.29497 9.93333,-20.45536 10.41608,-25.82732 0.57561,-6.40538 -0.30706,-10.83802 -6.63391,-33.31439 -4.02824,-14.31049 -6.12487,-22.49375 -6.3409,-24.74888 l -0.14356,-1.4985 4.73882,-1.87375 c 2.60635,-1.03056 9.44579,-4.23383 15.19875,-7.11837 l 10.45992,-5.24463 0.25152,4.10224 c 0.13835,2.25624 0.32841,6.57873 0.42237,9.60554 l 0.17084,5.5033 -1.46806,-1.11974 c -2.1556,-1.64417 -4.07098,-2.08133 -5.85435,-1.33619 -1.8704,0.7815 -2.75707,3.02934 -4.7076,11.93443 -2.64873,12.09268 -2.76556,13.588 -3.41688,43.73558 l -0.23653,10.94799 h 1.98909 1.98908 l 0.23158,-18.1714 c 0.23799,-18.67539 0.55559,-22.80864 2.55883,-33.30103 1.35168,-7.07965 2.73003,-11.02366 3.91148,-11.1922 2.79425,-0.39863 8.3333,10.19587 9.63105,18.42122 0.60462,3.83224 0.60011,14.45273 -0.008,17.86275 -1.31444,7.37575 -4.52998,15.43307 -9.39492,23.54121 -2.92454,4.87418 -3.21681,5.5658 -2.70103,6.39168 0.47097,0.75414 0.46877,1.24381 -0.0118,2.63724 -1.25333,3.63389 -6.23427,11.57763 -12.68453,20.22964 l -6.72519,9.02077 0.98628,0.78002 c 1.59028,1.2577 2.31046,0.95635 4.56135,-1.90868 1.17048,-1.48983 2.24163,-2.70878 2.38035,-2.70878 0.47969,0 -0.319,2.83984 -1.95245,6.94217 -3.23962,8.13612 -11.34261,21.75566 -18.16352,30.5293 -5.85077,7.52575 -16.31322,18.88902 -16.31322,17.71778 z"
   id="path49" /><path
   style="fill:#ffffff;stroke-width:0.99322"
   d="m 248.91373,196.91665 c -2.24064,-0.63338 -4.44629,-1.88194 -4.44629,-2.51692 0,-0.21226 0.30474,-1.11526 0.6772,-2.00668 1.43806,-3.44177 0.40776,-6.77264 -2.79271,-9.02854 -1.50742,-1.06253 -1.94766,-1.65933 -1.94766,-2.64032 0,-1.5214 0.16695,-1.53424 4.74053,-0.36451 5.94228,1.51978 11.6863,4.68874 15.60901,8.61145 1.60081,1.6008 3.57802,4.78484 3.57802,5.76192 0,0.57177 -7.24004,2.33661 -10.5784,2.5786 -1.54056,0.11167 -3.65891,-0.0612 -4.8397,-0.395 z"
   id="path50" /><path
   style="fill:#ffffff;stroke-width:0.99322"
   d="m 312.63842,199.87302 c 0,-1.18628 -0.30017,-2.58542 -0.66705,-3.10921 -0.63889,-0.91214 -0.5846,-0.9731 1.28602,-1.44413 3.44649,-0.86783 11.19856,-1.89975 16.37577,-2.17985 4.60414,-0.24911 5.16203,-0.19119 6.57592,0.68264 0.84973,0.52516 1.90611,1.3539 2.34751,1.84165 0.77961,0.86146 0.75296,0.91204 -0.93263,1.76981 -5.86512,2.98468 -13.13249,4.59595 -20.72931,4.59595 h -4.25623 z"
   id="path51" /></svg>
