<?xml version="1.0" encoding="UTF-8" standalone="no"?>
<!-- Generator: Adobe Illustrator 16.0.3, SVG Export Plug-In . SVG Version: 6.00 Build 0)  -->

<svg
   version="1.1"
   id="Layer_1"
   x="0px"
   y="0px"
   width="869"
   height="116.145"
   viewBox="-1 -1 868.99998 116.145"
   enable-background="new -1 -1 568.929 116.145"
   xml:space="preserve"
   sodipodi:docname="genesis-msu.svg"
   inkscape:version="1.3 (0e150ed6c4, 2023-07-21)"
   xmlns:inkscape="http://www.inkscape.org/namespaces/inkscape"
   xmlns:sodipodi="http://sodipodi.sourceforge.net/DTD/sodipodi-0.dtd"
   xmlns="http://www.w3.org/2000/svg"
   xmlns:svg="http://www.w3.org/2000/svg"><defs
   id="defs89" /><sodipodi:namedview
   id="namedview89"
   pagecolor="#ffffff"
   bordercolor="#000000"
   borderopacity="0.25"
   inkscape:showpageshadow="2"
   inkscape:pageopacity="0.0"
   inkscape:pagecheckerboard="0"
   inkscape:deskcolor="#d1d1d1"
   inkscape:zoom="2.5433753"
   inkscape:cx="628.10235"
   inkscape:cy="57.993801"
   inkscape:window-width="1920"
   inkscape:window-height="1129"
   inkscape:window-x="-8"
   inkscape:window-y="-8"
   inkscape:window-maximized="1"
   inkscape:current-layer="Layer_1" />&#10;<g
   id="g89">&#10;	<polygon
   points="533.056,31.853 532.827,31.721 348.343,31.721 329.321,-1 238.374,-1 219.347,31.721 34.106,31.721 -1,51.605 -1,95.259 33.88,115.018 34.108,115.145 532.825,115.145 567.675,95.404 567.929,95.259 567.929,51.607 "
   id="polygon1" />&#10;	<polygon
   fill="#ced1dd"
   points="532.56,32.72 347.767,32.72 328.744,0 238.948,0 219.923,32.72 34.37,32.72 0,52.188 0,94.677 34.37,114.145 532.56,114.145 566.929,94.677 566.929,52.19 "
   id="polygon2" />&#10;	&#10;		<linearGradient
   id="path14_1_"
   gradientUnits="userSpaceOnUse"
   x1="308.14401"
   y1="1410.9641"
   x2="308.14401"
   y2="1515.9807"
   gradientTransform="translate(-24.4248,-1406.4004)">&#10;		<stop
   offset="0"
   style="stop-color:#D9DDE9"
   id="stop2" />&#10;		<stop
   offset="0.39"
   style="stop-color:#777489"
   id="stop3" />&#10;		<stop
   offset="0.98"
   style="stop-color:#D9DDE9"
   id="stop4" />&#10;	</linearGradient>&#10;	<path
   id="path14"
   fill="url(#path14_1_)"
   d="M 344.724,37.286 325.701,4.564 h -0.252 -83.458 -0.25 L 222.716,37.287 H 36.777 L 4.565,55.36 V 91.508 L 36.777,109.58 H 530.662 L 562.873,91.508 V 55.36 L 530.662,37.288 Z"
   style="fill:url(#path14_1_)" />&#10;	<path
   id="path16"
   fill="#202066"
   d="m 309.46,13.469 -7.131,21.726 h 3.521 l 7.146,-20.979 c 0.26,-0.959 1.043,-1.659 1.963,-1.659 0.931,0 1.713,0.7 1.974,1.659 l 6.041,17.746 h -9.479 v 3.232 H 327.6 l -7.132,-21.726 c -0.684,-2.396 -2.893,-4.146 -5.51,-4.146 -2.607,-10e-4 -4.812,1.749 -5.498,4.147 z m 4.178,13.492 1.248,-3.706 1.301,3.706 z m -0.517,-10.638 -6.387,18.872 h 4.117 l 2.643,-7.822 v 3.697 h 8.295 l -4.926,-14.747 c -0.25,-0.821 -0.996,-3.182 -1.873,-3.182 -0.881,0 -1.627,2.36 -1.869,3.182 z m -22.549,-2.885 h 12.344 v -3.53 h -12.639 c -3.408,0 -6.172,2.771 -6.172,6.18 v 12.936 c 0,3.409 2.764,6.172 6.172,6.172 h 12.639 v -16.47 h -9.992 v 3.234 h 6.461 v 9.702 h -8.813 c -1.627,0 -2.936,-1.315 -2.936,-2.938 v -12.35 c -0.002,-1.619 1.309,-2.936 2.936,-2.936 z m 2.351,9.406 v 3.531 h 2.055 v 0.882 h -2.055 c -0.486,0 -0.883,-0.396 -0.883,-0.882 v -7.648 c 0,-0.486 0.396,-0.883 0.883,-0.883 h 9.992 V 14.32 h -11.461 c -1.627,0 -2.945,1.316 -2.945,2.938 v 10.585 c 0,1.622 1.318,2.938 2.945,2.938 h 7.055 v -7.938 z m -22.631,-9.406 h 12.344 v -3.53 h -12.641 c -3.408,0 -6.17,2.771 -6.17,6.18 V 28.88 c 0,3.408 2.762,6.179 6.17,6.179 h 12.641 v -3.531 h -12.344 c -1.621,0 -2.938,-1.314 -2.938,-2.938 V 16.376 c 0,-1.621 1.317,-2.938 2.938,-2.938 z m 9.695,8.523 v -3.234 h -8.227 c 0,-0.486 0.395,-0.883 0.883,-0.883 h 9.992 V 14.32 h -11.461 c -1.621,0 -2.936,1.316 -2.936,2.938 v 4.703 z m 0,1.179 v 3.234 h -8.227 c 0,0.485 0.395,0.882 0.883,0.882 h 9.992 v 3.522 h -11.461 c -1.621,0 -2.936,-1.314 -2.936,-2.938 v -4.703 z m -30.203,4.407 h -7.412 v 3.233 h 11.314 0.145 c 2.123,-0.076 3.82,-1.827 3.82,-3.966 0,-2.189 -1.773,-3.972 -3.965,-3.972 h -4.459 c -1.803,-0.686 -3.334,-2.474 -3.334,-4.559 0,-2.679 2.467,-4.848 5.145,-4.848 h 11.027 V 9.907 h -11.469 c -4.541,0 -8.225,3.69 -8.225,8.233 0,4.55 3.979,8.234 8.521,8.234 v -0.038 l 0.023,0.038 h 2.625 c 0.32,0 0.586,0.259 0.586,0.586 0,0.326 -0.268,0.586 -0.586,0.586 h -3.756 z m 4.862,-9.993 h 7.42 V 14.32 h -11.316 -0.152 c -2.123,0.076 -3.818,1.827 -3.818,3.966 0,2.198 1.779,3.973 3.973,3.973 h 4.459 c 1.803,0.692 3.326,2.473 3.326,4.558 0,2.68 -2.465,4.849 -5.146,4.849 h -11.018 v 3.53 h 11.459 c 4.545,0 8.234,-3.683 8.234,-8.232 0,-4.543 -3.979,-8.234 -8.523,-8.234 v 0.046 l -0.029,-0.045 h -2.619 c -0.328,0 -0.586,-0.259 -0.586,-0.586 0,-0.319 0.258,-0.586 0.586,-0.586 z" />&#10;	<g
   id="g16">&#10;		&#10;			<linearGradient
   id="polygon37_2_"
   gradientUnits="userSpaceOnUse"
   x1="220.79491"
   y1="1450.0256"
   x2="270.3067"
   y2="1499.5374"
   gradientTransform="translate(-24.4248,-1406.4004)">&#10;			<stop
   offset="0"
   style="stop-color:#D9DDE9"
   id="stop5" />&#10;			<stop
   offset="0.39"
   style="stop-color:#777489"
   id="stop6" />&#10;			<stop
   offset="0.98"
   style="stop-color:#D9DDE9"
   id="stop7" />&#10;		</linearGradient>&#10;		<polygon
   id="polygon37"
   fill="url(#polygon37_2_)"
   points="210.161,47.433 243.101,66.173 243.101,47.433 260.669,47.433 260.669,99.606 243.101,99.606 243.101,80.333 209.429,61.171 209.429,99.606 191.86,99.606 191.86,47.433 "
   style="fill:url(#polygon37_2_)" />&#10;		&#10;			<linearGradient
   id="polygon37_3_"
   gradientUnits="userSpaceOnUse"
   x1="221.6904"
   y1="1450.804"
   x2="269.7215"
   y2="1498.8352"
   gradientTransform="translate(-24.4248,-1406.4004)">&#10;			<stop
   offset="0"
   style="stop-color:#000000"
   id="stop8" />&#10;			<stop
   offset="0.11"
   style="stop-color:#181C4E"
   id="stop9" />&#10;			<stop
   offset="0.22"
   style="stop-color:#181818"
   id="stop10" />&#10;			<stop
   offset="0.34"
   style="stop-color:#181C4E"
   id="stop11" />&#10;			<stop
   offset="0.47"
   style="stop-color:#000000"
   id="stop12" />&#10;			<stop
   offset="0.59"
   style="stop-color:#181C4E"
   id="stop13" />&#10;			<stop
   offset="0.72"
   style="stop-color:#000000"
   id="stop14" />&#10;			<stop
   offset="0.84"
   style="stop-color:#181C4E"
   id="stop15" />&#10;			<stop
   offset="0.98"
   style="stop-color:#000000"
   id="stop16" />&#10;		</linearGradient>&#10;		<polygon
   id="polygon37_1_"
   fill="url(#polygon37_3_)"
   points="210.614,48.156 242.626,66.29 242.626,48.156 259.698,48.156 259.698,98.649 242.626,98.649 242.626,79.995 209.903,61.45 209.903,98.649 192.83,98.649 192.83,48.156 "
   style="fill:url(#polygon37_3_)" />&#10;	</g>&#10;	<g
   id="g28">&#10;		&#10;			<linearGradient
   id="rect58_2_"
   gradientUnits="userSpaceOnUse"
   x1="449.50931"
   y1="1461.4338"
   x2="499.7514"
   y2="1514.8802"
   gradientTransform="translate(-24.4248,-1406.4004)">&#10;			<stop
   offset="0"
   style="stop-color:#D9DDE9"
   id="stop17" />&#10;			<stop
   offset="0.39"
   style="stop-color:#777489"
   id="stop18" />&#10;			<stop
   offset="0.98"
   style="stop-color:#D9DDE9"
   id="stop19" />&#10;		</linearGradient>&#10;		<rect
   id="rect58"
   x="433.25101"
   y="47.179001"
   fill="url(#rect58_2_)"
   width="18.261999"
   height="52.508999"
   style="fill:url(#rect58_2_)" />&#10;		&#10;			<linearGradient
   id="rect58_3_"
   gradientUnits="userSpaceOnUse"
   x1="450.21039"
   y1="1462.1799"
   x2="498.41599"
   y2="1513.46"
   gradientTransform="translate(-24.4248,-1406.4004)">&#10;			<stop
   offset="0"
   style="stop-color:#000000"
   id="stop20" />&#10;			<stop
   offset="0.11"
   style="stop-color:#181C4E"
   id="stop21" />&#10;			<stop
   offset="0.22"
   style="stop-color:#181818"
   id="stop22" />&#10;			<stop
   offset="0.34"
   style="stop-color:#181C4E"
   id="stop23" />&#10;			<stop
   offset="0.47"
   style="stop-color:#000000"
   id="stop24" />&#10;			<stop
   offset="0.59"
   style="stop-color:#181C4E"
   id="stop25" />&#10;			<stop
   offset="0.72"
   style="stop-color:#000000"
   id="stop26" />&#10;			<stop
   offset="0.84"
   style="stop-color:#181C4E"
   id="stop27" />&#10;			<stop
   offset="0.98"
   style="stop-color:#000000"
   id="stop28" />&#10;		</linearGradient>&#10;		<rect
   id="rect58_1_"
   x="433.716"
   y="48.155998"
   fill="url(#rect58_3_)"
   width="17.332001"
   height="50.558998"
   style="fill:url(#rect58_3_)" />&#10;	</g>&#10;	<g
   id="g40">&#10;		&#10;			<linearGradient
   id="polygon79_2_"
   gradientUnits="userSpaceOnUse"
   x1="300.49951"
   y1="1450.3645"
   x2="350.30829"
   y2="1500.1731"
   gradientTransform="translate(-24.4248,-1406.4004)">&#10;			<stop
   offset="0"
   style="stop-color:#D9DDE9"
   id="stop29" />&#10;			<stop
   offset="0.39"
   style="stop-color:#777489"
   id="stop30" />&#10;			<stop
   offset="0.98"
   style="stop-color:#D9DDE9"
   id="stop31" />&#10;		</linearGradient>&#10;		<polygon
   id="polygon79"
   fill="url(#polygon79_2_)"
   points="309.669,78.684 290.917,78.684 290.917,89.186 339.673,89.186 322.421,99.688 272.915,99.688 272.915,59.182 290.917,47.179 338.173,47.179 320.921,57.68 290.917,57.68 290.917,68.182 326.921,68.182 "
   style="fill:url(#polygon79_2_)" />&#10;		&#10;			<linearGradient
   id="polygon79_3_"
   gradientUnits="userSpaceOnUse"
   x1="301.6196"
   y1="1451.4602"
   x2="349.57809"
   y2="1499.4187"
   gradientTransform="translate(-24.4248,-1406.4004)">&#10;			<stop
   offset="0"
   style="stop-color:#000000"
   id="stop32" />&#10;			<stop
   offset="0.11"
   style="stop-color:#181C4E"
   id="stop33" />&#10;			<stop
   offset="0.22"
   style="stop-color:#181818"
   id="stop34" />&#10;			<stop
   offset="0.34"
   style="stop-color:#181C4E"
   id="stop35" />&#10;			<stop
   offset="0.47"
   style="stop-color:#000000"
   id="stop36" />&#10;			<stop
   offset="0.59"
   style="stop-color:#181C4E"
   id="stop37" />&#10;			<stop
   offset="0.72"
   style="stop-color:#000000"
   id="stop38" />&#10;			<stop
   offset="0.84"
   style="stop-color:#181C4E"
   id="stop39" />&#10;			<stop
   offset="0.98"
   style="stop-color:#000000"
   id="stop40" />&#10;		</linearGradient>&#10;		<polygon
   id="polygon79_1_"
   fill="url(#polygon79_3_)"
   points="309.544,78.49 291.488,78.49 291.488,88.6 338.433,88.6 321.824,98.714 274.153,98.714 274.153,59.712 291.488,48.156 336.99,48.156 320.378,58.266 291.488,58.266 291.488,68.378 326.156,68.378 "
   style="fill:url(#polygon79_3_)" />&#10;	</g>&#10;	<g
   id="g52">&#10;		&#10;			<linearGradient
   id="polygon100_2_"
   gradientUnits="userSpaceOnUse"
   x1="141.2285"
   y1="1450.637"
   x2="190.76109"
   y2="1500.1694"
   gradientTransform="translate(-24.4248,-1406.4004)">&#10;			<stop
   offset="0"
   style="stop-color:#D9DDE9"
   id="stop41" />&#10;			<stop
   offset="0.39"
   style="stop-color:#777489"
   id="stop42" />&#10;			<stop
   offset="0.98"
   style="stop-color:#D9DDE9"
   id="stop43" />&#10;		</linearGradient>&#10;		<polygon
   id="polygon100"
   fill="url(#polygon100_2_)"
   points="150.21,78.762 131.563,78.762 131.563,89.204 180.047,89.204 162.89,99.647 113.66,99.647 113.66,59.368 131.563,47.433 178.555,47.433 161.399,57.878 131.563,57.878 131.563,68.317 167.366,68.317 "
   style="fill:url(#polygon100_2_)" />&#10;		&#10;			<linearGradient
   id="polygon100_3_"
   gradientUnits="userSpaceOnUse"
   x1="142.0806"
   y1="1451.468"
   x2="190.20641"
   y2="1499.5938"
   gradientTransform="translate(-24.4248,-1406.4004)">&#10;			<stop
   offset="0"
   style="stop-color:#000000"
   id="stop44" />&#10;			<stop
   offset="0.11"
   style="stop-color:#181C4E"
   id="stop45" />&#10;			<stop
   offset="0.22"
   style="stop-color:#181818"
   id="stop46" />&#10;			<stop
   offset="0.34"
   style="stop-color:#181C4E"
   id="stop47" />&#10;			<stop
   offset="0.47"
   style="stop-color:#000000"
   id="stop48" />&#10;			<stop
   offset="0.59"
   style="stop-color:#181C4E"
   id="stop49" />&#10;			<stop
   offset="0.72"
   style="stop-color:#000000"
   id="stop50" />&#10;			<stop
   offset="0.84"
   style="stop-color:#181C4E"
   id="stop51" />&#10;			<stop
   offset="0.98"
   style="stop-color:#000000"
   id="stop52" />&#10;		</linearGradient>&#10;		<polygon
   id="polygon100_1_"
   fill="url(#polygon100_3_)"
   points="150.113,78.615 131.996,78.615 131.996,88.76 179.104,88.76 162.436,98.905 114.601,98.905 114.601,59.768 131.996,48.174 177.654,48.174 160.984,58.319 131.996,58.319 131.996,68.468 166.783,68.468 "
   style="fill:url(#polygon100_3_)" />&#10;	</g>&#10;	<g
   id="g64">&#10;		&#10;			<linearGradient
   id="polygon121_2_"
   gradientUnits="userSpaceOnUse"
   x1="64.992203"
   y1="1454.7668"
   x2="113.8675"
   y2="1503.6422"
   gradientTransform="translate(-24.4248,-1406.4004)">&#10;			<stop
   offset="0"
   style="stop-color:#D9DDE9"
   id="stop53" />&#10;			<stop
   offset="0.39"
   style="stop-color:#777489"
   id="stop54" />&#10;			<stop
   offset="0.98"
   style="stop-color:#D9DDE9"
   id="stop55" />&#10;		</linearGradient>&#10;		<polygon
   id="polygon121"
   fill="url(#polygon121_2_)"
   points="101.942,47.433 84.779,57.882 47.47,57.882 47.47,89.219 81.048,89.219 81.048,76.534 60.155,76.534 77.317,66.089 98.958,66.089 98.958,87.727 81.048,99.667 29.562,99.667 29.562,59.372 47.47,47.433 "
   style="fill:url(#polygon121_2_)" />&#10;		&#10;			<linearGradient
   id="polygon121_3_"
   gradientUnits="userSpaceOnUse"
   x1="65.686996"
   y1="1455.4641"
   x2="113.1985"
   y2="1502.9756"
   gradientTransform="translate(-24.4248,-1406.4004)">&#10;			<stop
   offset="0"
   style="stop-color:#000000"
   id="stop56" />&#10;			<stop
   offset="0.11"
   style="stop-color:#181C4E"
   id="stop57" />&#10;			<stop
   offset="0.22"
   style="stop-color:#181818"
   id="stop58" />&#10;			<stop
   offset="0.34"
   style="stop-color:#181C4E"
   id="stop59" />&#10;			<stop
   offset="0.47"
   style="stop-color:#000000"
   id="stop60" />&#10;			<stop
   offset="0.59"
   style="stop-color:#181C4E"
   id="stop61" />&#10;			<stop
   offset="0.72"
   style="stop-color:#000000"
   id="stop62" />&#10;			<stop
   offset="0.84"
   style="stop-color:#181C4E"
   id="stop63" />&#10;			<stop
   offset="0.98"
   style="stop-color:#000000"
   id="stop64" />&#10;		</linearGradient>&#10;		<polygon
   id="polygon121_1_"
   fill="url(#polygon121_3_)"
   points="100.922,48.156 84.238,58.311 47.971,58.311 47.971,88.776 80.611,88.776 80.611,76.444 60.302,76.444 76.985,66.29 98.021,66.29 98.021,87.325 80.611,98.93 30.563,98.93 30.563,59.76 47.971,48.156 "
   style="fill:url(#polygon121_3_)" />&#10;	</g>&#10;	<g
   id="g76">&#10;		<polygon
   fill="#c2c4d2"
   points="350.558,99.688 368.06,89.034 402.304,89.034 402.304,78.382 350.558,78.382 350.558,57.835 368.06,47.179 422.851,47.179 405.349,57.835 369.582,57.835 369.582,67.725 422.089,67.725 422.089,89.034 404.587,99.688 "
   id="polygon64" />&#10;		&#10;			<linearGradient
   id="polygon142_2_"
   gradientUnits="userSpaceOnUse"
   x1="350.52289"
   y1="-651.39972"
   x2="422.81589"
   y2="-651.39972"
   gradientTransform="matrix(1,0,0,-1,0.0352,-577.9663)">&#10;			<stop
   offset="0"
   style="stop-color:#D9DDE9"
   id="stop65" />&#10;			<stop
   offset="0.39"
   style="stop-color:#777489"
   id="stop66" />&#10;			<stop
   offset="0.98"
   style="stop-color:#D9DDE9"
   id="stop67" />&#10;		</linearGradient>&#10;		<polygon
   id="polygon142"
   fill="url(#polygon142_2_)"
   points="350.558,78.382 350.558,57.835 368.06,47.179 422.851,47.179 405.349,57.835 369.582,57.835 369.582,67.725 422.089,67.725 422.089,89.034 404.587,99.688 350.558,99.688 368.06,89.034 402.304,89.034 402.304,78.382 "
   style="fill:url(#polygon142_2_)" />&#10;		&#10;			<linearGradient
   id="polygon142_3_"
   gradientUnits="userSpaceOnUse"
   x1="381.4263"
   y1="1450.1321"
   x2="430.44299"
   y2="1499.1486"
   gradientTransform="translate(-24.4248,-1406.4004)">&#10;			<stop
   offset="0"
   style="stop-color:#000000"
   id="stop68" />&#10;			<stop
   offset="0.11"
   style="stop-color:#181C4E"
   id="stop69" />&#10;			<stop
   offset="0.22"
   style="stop-color:#181818"
   id="stop70" />&#10;			<stop
   offset="0.34"
   style="stop-color:#181C4E"
   id="stop71" />&#10;			<stop
   offset="0.47"
   style="stop-color:#000000"
   id="stop72" />&#10;			<stop
   offset="0.59"
   style="stop-color:#181C4E"
   id="stop73" />&#10;			<stop
   offset="0.72"
   style="stop-color:#000000"
   id="stop74" />&#10;			<stop
   offset="0.84"
   style="stop-color:#181C4E"
   id="stop75" />&#10;			<stop
   offset="0.98"
   style="stop-color:#000000"
   id="stop76" />&#10;		</linearGradient>&#10;		<polygon
   id="polygon142_1_"
   fill="url(#polygon142_3_)"
   points="351.902,78.198 351.902,58.413 368.753,48.156 421.507,48.156 404.656,58.413 370.218,58.413 370.218,67.938 420.775,67.938 420.775,88.454 403.923,98.714 351.902,98.714 368.753,88.454 401.724,88.454 401.724,78.198 "
   style="fill:url(#polygon142_3_)" />&#10;	</g>&#10;	<g
   id="g88">&#10;		<polygon
   fill="#c2c4d2"
   points="461.914,99.688 479.417,89.034 513.662,89.034 513.662,78.382 461.914,78.382 461.914,57.835 479.417,47.179 534.207,47.179 516.705,57.835 480.939,57.835 480.939,67.725 533.447,67.725 533.447,89.034 515.945,99.688 "
   id="polygon76" />&#10;		&#10;			<linearGradient
   id="polygon163_2_"
   gradientUnits="userSpaceOnUse"
   x1="491.6362"
   y1="1448.9846"
   x2="542.54639"
   y2="1499.8948"
   gradientTransform="translate(-24.4248,-1406.4004)">&#10;			<stop
   offset="0"
   style="stop-color:#D9DDE9"
   id="stop77" />&#10;			<stop
   offset="0.39"
   style="stop-color:#777489"
   id="stop78" />&#10;			<stop
   offset="0.98"
   style="stop-color:#D9DDE9"
   id="stop79" />&#10;		</linearGradient>&#10;		<polygon
   id="polygon163"
   fill="url(#polygon163_2_)"
   points="461.914,78.382 461.914,57.835 479.417,47.179 534.207,47.179 516.705,57.835 480.939,57.835 480.939,67.725 533.447,67.725 533.447,89.034 515.945,99.688 461.914,99.688 479.417,89.034 513.662,89.034 513.662,78.382 "
   style="fill:url(#polygon163_2_)" />&#10;		&#10;			<linearGradient
   id="polygon163_3_"
   gradientUnits="userSpaceOnUse"
   x1="492.78171"
   y1="1450.1321"
   x2="541.79901"
   y2="1499.1493"
   gradientTransform="translate(-24.4248,-1406.4004)">&#10;			<stop
   offset="0"
   style="stop-color:#000000"
   id="stop80" />&#10;			<stop
   offset="0.11"
   style="stop-color:#181C4E"
   id="stop81" />&#10;			<stop
   offset="0.22"
   style="stop-color:#181818"
   id="stop82" />&#10;			<stop
   offset="0.34"
   style="stop-color:#181C4E"
   id="stop83" />&#10;			<stop
   offset="0.47"
   style="stop-color:#000000"
   id="stop84" />&#10;			<stop
   offset="0.59"
   style="stop-color:#181C4E"
   id="stop85" />&#10;			<stop
   offset="0.72"
   style="stop-color:#000000"
   id="stop86" />&#10;			<stop
   offset="0.84"
   style="stop-color:#181C4E"
   id="stop87" />&#10;			<stop
   offset="0.98"
   style="stop-color:#000000"
   id="stop88" />&#10;		</linearGradient>&#10;		<polygon
   id="polygon163_1_"
   fill="url(#polygon163_3_)"
   points="463.257,78.198 463.257,58.413 480.111,48.156 532.865,48.156 516.011,58.413 481.576,58.413 481.576,67.938 532.132,67.938 532.132,88.454 515.279,98.714 463.257,98.714 480.111,88.454 513.082,88.454 513.082,78.198 "
   style="fill:url(#polygon163_3_)" />&#10;	</g>&#10;</g>&#10;<rect
   style="fill:#000000;stroke:none;stroke-width:0.16137;stroke-opacity:1"
   id="rect825"
   width="298.65091"
   height="115.72707"
   x="569.43188"
   y="-0.46480072" /><path
   id="MSU-1"
   fill="none"
   stroke="black"
   stroke-width="0.233321"
   d="m 603.96353,70.590952 c 0,0 53.19711,-53.197129 53.19711,-53.197129 0,0 6.53298,0 6.53298,0 0,0 0,36.398037 0,36.398037 0,0 36.39805,-36.398037 36.39805,-36.398037 0,0 6.53297,0 6.53297,0 0,0 0,53.197129 0,53.197129 0,0 -9.33283,0 -9.33283,0 0,0 0,-37.331311 0,-37.331311 0,0 -37.33132,37.331311 -37.33132,37.331311 0,0 -6.53297,0 -6.53297,0 0,0 0,-37.331311 0,-37.331311 0,0 -37.33132,37.331311 -37.33132,37.331311 z M 833.55111,17.393823 c 0,0 -5.5997,0 -5.5997,0 0,0 -14.93251,14.932536 -14.93251,14.932536 0,0 0,5.599695 0,5.599695 0,0 11.19939,0 11.19939,0 0,0 0,32.664898 0,32.664898 0,0 9.33282,0 9.33282,0 z m -76.52919,0 c 0,0 -34.53147,0 -34.53147,0 -5.83301,0 -10.26611,7.23295 -10.26611,13.065964 0,0 0,5.599695 0,5.599695 0,5.833016 4.4331,13.065966 10.26611,13.065966 0,0 19.59893,0 19.59893,0 4.66642,0 5.59971,3.266491 5.59971,5.599698 0,2.333205 -0.93329,5.599696 -5.59971,5.599696 0,0 -29.86504,0 -29.86504,0 0,0 0,10.26611 0,10.26611 0,0 34.53146,0 34.53146,0 5.83303,0 10.26612,-7.232936 10.26612,-13.065965 0,0 0,-5.599697 0,-5.599697 0,-5.833016 -4.43309,-13.065952 -10.26612,-13.065952 0,0 -19.59894,0 -19.59894,0 -4.66641,0 -5.59969,-3.266491 -5.59969,-5.599697 0,-2.333209 0.93328,-5.599697 5.59969,-5.599697 0,0 29.86506,0 29.86506,0 z m 14.93253,36.16472 c 0,5.833015 3.49981,7.699585 6.99961,7.699585 0,0 12.13268,0 12.13268,0 3.49981,0 6.99962,-1.86657 6.99962,-7.699585 0,0 0,-36.16472 0,-36.16472 0,0 10.26612,0 10.26612,0 0,0 0,40.131164 0,40.131164 0,6.999633 -3.03317,13.065965 -11.19939,13.065965 0,0 -24.26536,0 -24.26536,0 -8.16622,0 -11.1994,-6.066332 -11.1994,-13.065965 0,0 0,-40.131164 0,-40.131164 0,0 10.26612,0 10.26612,0 z m 62.06331,21.698821 c 0,0 0,6.532984 0,6.532984 0,0 -231.92081,0 -231.92081,0 0,0 0,-6.532984 0,-6.532984 z m -71.62947,24.498677 c 0,2.333199 -1.86656,4.433089 -4.19976,4.433089 0,0 -4.4331,0 -4.4331,0 -2.33321,0 -4.19978,-2.09989 -4.19978,-4.433089 0,0 0,-9.099505 0,-9.099505 0,-2.333206 1.86657,-4.433094 4.19978,-4.433094 0,0 4.4331,0 4.4331,0 2.3332,0 4.19976,2.099888 4.19976,4.433094 0,0 -0.0397,1.838564 0,2.333206 0,0 -5.13305,0 -5.13305,0 0,-2.333206 0,-3.033173 -1.04995,-3.033173 -1.04993,0 -1.04993,0.699967 -1.04993,3.033173 0,0 0,4.199777 0,4.199777 0,2.333206 0,3.033171 1.05693,3.033171 1.04295,0 1.04295,-0.699965 1.04295,-3.033171 0,0 5.13305,0 5.13305,0 0,1.005607 0,2.566522 0,2.566522 z M 609.79653,86.223442 c 0,0 2.21189,9.099506 2.21189,9.099506 0,0 2.22121,-9.099506 2.22121,-9.099506 0,0 6.99962,0 6.99962,0 0,0 0,17.732378 0,17.732378 0,0 -5.13305,0 -5.13305,0 0,0 0,-10.73276 0,-10.73276 0,0 -3.03318,10.73276 -3.03318,10.73276 0,0 -2.09988,0 -2.09988,0 0,0 -3.03318,-10.73276 -3.03318,-10.73276 0,0 0,10.73276 0,10.73276 0,0 -5.13303,0 -5.13303,0 0,0 0,-17.732378 0,-17.732378 z m 23.5654,0 c 0,0 0,3.966458 0,3.966458 0,0 -4.89973,0 -4.89973,0 0,0 0,2.799842 0,2.799842 0,0 4.19977,0 4.19977,0 0,0 0,3.96646 0,3.96646 0,0 -4.19977,0 -4.19977,0 0,0 0,3.033155 0,3.033155 0,0 4.89973,0 4.89973,0 0,0 0,3.966463 0,3.966463 0,0 -10.49943,0 -10.49943,0 0,0 0,-17.732378 0,-17.732378 z m 1.39993,17.732378 c 0,0 0,-17.732378 0,-17.732378 1.16892,0 6.76629,0 6.76629,0 6.06635,0 6.06635,4.199776 6.06635,4.199776 0,0 0,9.332823 0,9.332823 0,0 0,4.199779 -4.66642,4.199779 z m 20.06557,-17.732378 c 0,0 0,17.732378 0,17.732378 0,0 -5.59969,0 -5.59969,0 0,0 0,-17.732378 0,-17.732378 z m 4.66642,0 c 0,0 7.69958,0 7.69958,0 0,0 3.49981,17.732378 3.49981,17.732378 0,0 -5.5997,0 -5.5997,0 0,0 -0.46663,-3.2665 -0.46663,-3.2665 0,0 -2.56653,0 -2.56653,0 0,0 -0.46664,3.2665 -0.46664,3.2665 0,0 -5.5997,0 -5.5997,0 z m 23.09876,10.73276 c 0,0 0,3.033155 0,3.033155 0,0 4.89974,0 4.89974,0 0,0 0,3.966463 0,3.966463 0,0 -10.49944,0 -10.49944,0 0,0 0,-17.732378 0,-17.732378 0,0 10.49944,0 10.49944,0 0,0 0,3.966458 0,3.966458 0,0 -4.89974,0 -4.89974,0 0,0 0,2.799842 0,2.799842 0,0 4.19977,0 4.19977,0 0,0 0,3.96646 0,3.96646 z m 11.66604,-10.73276 c 0,0 3.03316,8.866188 3.03316,8.866188 0,0 0,-8.866188 0,-8.866188 0,0 5.13306,0 5.13306,0 0,0 0,17.732378 0,17.732378 0,0 -5.13306,0 -5.13306,0 0,0 -3.49981,-9.566157 -3.49981,-9.566157 0,0 0,9.566157 0,9.566157 0,0 -5.13305,0 -5.13305,0 0,0 0,-17.732378 0,-17.732378 z m 15.39916,17.732378 c 0,0 -5.5997,0 -5.5997,0 0,0 0,-17.732378 0,-17.732378 0,0 5.5997,0 5.5997,0 0,0 0,6.7663 0,6.7663 0,0 2.3332,0 2.3332,0 0,0 0,-6.7663 0,-6.7663 0,0 5.59969,0 5.59969,0 0,0 0,17.732378 0,17.732378 0,0 -5.59969,0 -5.59969,0 0,0 0,-6.999618 0,-6.999618 0,0 -2.3332,0 -2.3332,0 z m 12.59932,-17.732378 c 0,0 7.69957,0 7.69957,0 0,0 3.49982,17.732378 3.49982,17.732378 0,0 -5.59969,0 -5.59969,0 0,0 -0.46665,-3.2665 -0.46665,-3.2665 0,0 -2.56652,0 -2.56652,0 0,0 -0.46665,3.2665 -0.46665,3.2665 0,0 -5.5997,0 -5.5997,0 z m 17.26573,8.166221 c 0,0 0,9.566157 0,9.566157 0,0 -5.13306,0 -5.13306,0 0,0 0,-17.732378 0,-17.732378 0,0 5.59971,0 5.59971,0 0,0 3.03316,8.866188 3.03316,8.866188 0,0 0,-8.866188 0,-8.866188 0,0 5.13306,0 5.13306,0 0,0 0,17.732378 0,17.732378 0,0 -5.13306,0 -5.13306,0 z m 29.86506,2.566539 c 0,0 0,3.033155 0,3.033155 0,0 4.89974,0 4.89974,0 0,0 0,3.966463 0,3.966463 0,0 -10.49944,0 -10.49944,0 0,0 0,-17.732378 0,-17.732378 0,0 10.49944,0 10.49944,0 0,0 0,3.966458 0,3.966458 0,0 -4.89974,0 -4.89974,0 0,0 0,2.799842 0,2.799842 0,0 4.19976,0 4.19976,0 0,0 0,3.96646 0,3.96646 z m 12.83264,-10.73276 c 0,0 2.45687,9.099506 2.45687,9.099506 0,0 2.44287,-9.099506 2.44287,-9.099506 0,0 6.7663,0 6.7663,0 0,0 0,17.732378 0,17.732378 0,0 -5.13307,0 -5.13307,0 0,0 0,-10.73276 0,-10.73276 0,0 -3.03317,10.73276 -3.03317,10.73276 0,0 -2.09989,0 -2.09989,0 0,0 -3.03316,-10.499443 -3.03316,-10.499443 0,0 0,10.499443 0,10.499443 0,0 -5.13305,0 -5.13305,0 0,0 0,-17.732378 0,-17.732378 z m 23.79871,0 c 0,0 0,3.966458 0,3.966458 0,0 -4.89973,0 -4.89973,0 0,0 0,2.799842 0,2.799842 0,0 4.19977,0 4.19977,0 0,0 0,3.96646 0,3.96646 0,0 -4.19977,0 -4.19977,0 0,0 0,3.033155 0,3.033155 0,0 4.89973,0 4.89973,0 0,0 0,3.966463 0,3.966463 0,0 -10.49943,0 -10.49943,0 0,0 0,-17.732378 0,-17.732378 z m 6.76631,0 c 0,0 3.03317,8.866188 3.03317,8.866188 0,0 0,-8.866188 0,-8.866188 0,0 5.13306,0 5.13306,0 0,0 0,17.732378 0,17.732378 0,0 -5.13306,0 -5.13306,0 0,0 -3.49982,-9.566157 -3.49982,-9.566157 0,0 0,9.566157 0,9.566157 0,0 -5.13304,0 -5.13304,0 0,0 0,-17.732378 0,-17.732378 z m 20.99885,0 c 0,0 0,3.966458 0,3.966458 0,0 -3.03315,0 -3.03315,0 0,0 0,13.76592 0,13.76592 0,0 -5.59971,0 -5.59971,0 0,0 0,-13.76592 0,-13.76592 0,0 -3.03316,0 -3.03316,0 0,0 0,-3.966458 0,-3.966458 z m -191.32299,6.7663 c 0.009,-2.337874 -0.46663,-2.799842 -2.33321,-2.799842 0,0 0,9.799457 0,9.799457 1.86658,0 2.33321,-0.466632 2.33321,-2.799838 z m 20.06557,3.733127 c 0,0 1.63327,0 1.63327,0 0,0 -0.82363,-6.7663 -0.82363,-6.7663 z m 62.76329,0 c 0,0 1.63325,0 1.63325,0 0,0 -0.8143,-6.7663 -0.8143,-6.7663 z"
   style="fill:#ffffff;stroke:#ffffff" /><path
   style="fill:#ff0000;stroke:#ff0000;stroke-width:0.376423;stroke-opacity:1"
   d="m 602.09695,78.523856 v -3.266492 h 115.96042 115.96039 v 3.266492 3.266492 H 718.05737 602.09695 Z"
   id="path827"
   inkscape:connector-curvature="0" /><rect
   style="fill:#000000"
   id="rect89"
   width="30.667908"
   height="59.369926"
   x="812.09277"
   y="12.761241" /></svg>
