<?xml version="1.0" encoding="UTF-8" standalone="no"?>
<!-- Generator: Adobe Illustrator 16.0.3, SVG Export Plug-In . SVG Version: 6.00 Build 0)  -->

<svg
   version="1.1"
   id="Ebene_3"
   x="0px"
   y="0px"
   width="566.927px"
   height="167.468px"
   viewBox="0 0 566.927 167.468"
   enable-background="new 0 0 566.927 167.468"
   xml:space="preserve"
   sodipodi:docname="ngpc.svg"
   inkscape:version="1.2.1 (9c6d41e410, 2022-07-14)"
   xmlns:inkscape="http://www.inkscape.org/namespaces/inkscape"
   xmlns:sodipodi="http://sodipodi.sourceforge.net/DTD/sodipodi-0.dtd"
   xmlns="http://www.w3.org/2000/svg"
   xmlns:svg="http://www.w3.org/2000/svg"><defs
   id="defs1193" /><sodipodi:namedview
   id="namedview1191"
   pagecolor="#ffffff"
   bordercolor="#666666"
   borderopacity="1.0"
   inkscape:showpageshadow="2"
   inkscape:pageopacity="0.0"
   inkscape:pagecheckerboard="0"
   inkscape:deskcolor="#d1d1d1"
   showgrid="false"
   inkscape:zoom="1.9929443"
   inkscape:cx="283.50015"
   inkscape:cy="83.795618"
   inkscape:window-width="1728"
   inkscape:window-height="833"
   inkscape:window-x="-8"
   inkscape:window-y="-8"
   inkscape:window-maximized="1"
   inkscape:current-layer="Ebene_3" />
<g
   id="g1188">
	<g
   id="g1148">
		<path
   fill="#1D1D1B"
   d="M33.98,108.929l-0.068-41.587h5.384v49.797h-5.384L5.249,75.215l0.135,41.924H0V67.342h5.652    L33.98,108.929z"
   id="path1136" />
		<path
   fill="#1D1D1B"
   d="M45.31,67.342h26.419v4.912H50.827v17.294h20.767v4.912H50.827v17.767h20.902v4.912H45.31V67.342z"
   id="path1138" />
		<path
   fill="#1D1D1B"
   d="M74.242,92.375c0-15.341,11.911-25.908,25.976-25.908c14.602,0,25.975,11.171,25.975,25.773    c0,14.604-11.305,25.773-25.975,25.773c-14.738,0-25.976-11.373-25.976-25.572V92.375z M79.827,92.24    c0,11.709,8.815,20.861,20.458,20.861c11.776,0,20.39-9.486,20.39-20.861c0-11.373-8.613-20.861-20.457-20.861    c-11.709,0-20.391,9.286-20.391,20.792V92.24z"
   id="path1140" />
		<path
   fill="#1D1D1B"
   d="M172.16,80.262c-1.548-2.153-3.433-3.97-5.586-5.383c-3.23-2.221-7.133-3.5-11.574-3.5    c-10.902,0-20.39,8.344-20.39,20.792c0,12.652,9.556,20.996,20.457,20.996c5.249,0,9.892-1.815,13.324-4.508    c3.5-2.76,5.922-6.527,6.73-10.432h-27.104v-4.576h33.564c-0.067,2.895-0.74,6.527-2.221,9.624    c-4.307,9.354-14.267,14.804-24.293,14.804c-14.535,0-26.042-11.17-26.042-25.908c0-14.938,11.709-25.706,26.109-25.706    c10.094,0,19.448,5.653,23.351,13.795h-6.325V80.262L172.16,80.262z"
   id="path1142" />
		<path
   fill="#1D1D1B"
   d="M184.25,67.342h27.59v4.912h-22.071v17.294h21.937v4.912h-21.937v17.767h22.071v4.912h-27.59V67.342z"
   id="path1144" />
		<path
   fill="#1D1D1B"
   d="M214.061,92.375c0-15.341,11.911-25.908,25.975-25.908c14.603,0,25.975,11.171,25.975,25.773    c0,14.604-11.305,25.773-25.975,25.773c-14.737,0-25.975-11.373-25.975-25.572V92.375z M219.646,92.24    c0,11.709,8.815,20.861,20.457,20.861c11.777,0,20.39-9.486,20.39-20.861c0-11.373-8.613-20.861-20.457-20.861    c-11.709,0-20.39,9.286-20.39,20.792V92.24L219.646,92.24z"
   id="path1146" />
	</g>
	<g
   id="g1158">
		<path
   fill="#1D1D1B"
   d="M327.466,92.375c0-15.341,11.91-25.908,25.976-25.908c14.603,0,25.976,11.171,25.976,25.773    c0,14.604-11.305,25.773-25.976,25.773c-14.737,0-25.976-11.373-25.976-25.572V92.375z M333.05,92.24    c0,11.709,8.816,20.861,20.459,20.861c11.777,0,20.391-9.486,20.391-20.861c0-11.373-8.613-20.861-20.458-20.861    c-11.708,0-20.392,9.286-20.392,20.792V92.24L333.05,92.24z"
   id="path1150" />
		<path
   fill="#1D1D1B"
   d="M435.001,103.748c-3.229,7.672-11.91,14.268-22.879,14.268c-14.736,0-25.976-11.373-25.976-25.772    c0-14.2,10.97-25.774,25.906-25.774c12.313,0,20.054,8.21,22.946,14.535h-5.99c-1.684-2.96-7.334-9.623-16.956-9.623    c-11.642,0-20.39,9.219-20.39,20.793c0,11.777,8.813,20.929,20.39,20.929c10.433,0,15.745-7.47,16.956-9.354L435.001,103.748    L435.001,103.748z"
   id="path1152" />
		<path
   fill="#1D1D1B"
   d="M489.644,67.342h27.592v4.912h-22.072v17.294h21.936v4.912h-21.936v17.767h22.072v4.912h-27.592V67.342    L489.644,67.342z"
   id="path1154" />
		<path
   fill="#1D1D1B"
   d="M545.228,72.254h-16.047v-4.912h37.746v4.912h-16.113v44.885h-5.586V72.254z"
   id="path1156" />
	</g>
	<path
   fill="#F10000"
   d="M214.245,155.511c-2.053,6.982-8.625,11.957-16.521,11.957c-10.314,0-17.707-8.17-17.707-17.569   c0-8.99,6.982-17.479,17.662-17.479c9.721,0.047,15.243,7.211,16.566,12.142h-7.165c-1.049-2.328-4.061-6.115-9.447-6.162   c-6.572,0-10.816,5.521-10.816,11.5c0,6.162,4.427,11.594,10.862,11.594c6.024,0,8.763-4.746,9.401-5.979L214.245,155.511   L214.245,155.511z"
   id="path1160" />
	<path
   fill="#F10000"
   d="M232.454,150.216c0-10.813,8.306-17.799,17.708-17.799c10.223,0,17.753,7.94,17.753,17.524   s-7.485,17.523-17.799,17.523c-10.36,0-17.662-8.168-17.662-17.203V150.216L232.454,150.216z M239.254,149.943   c0,6.162,4.427,11.547,11,11.547c6.846,0,10.862-5.934,10.862-11.5c0-5.658-4.016-11.594-10.908-11.594   c-6.754,0-10.954,5.567-10.954,11.502V149.943z"
   id="path1162" />
	<path
   fill="#F10000"
   d="M287.996,133.059h6.799v27.793h11.09v5.979h-17.889V133.059z"
   id="path1164" />
	<path
   fill="#F10000"
   d="M322.606,150.216c0-10.813,8.306-17.799,17.707-17.799c10.224,0,17.754,7.94,17.754,17.524   s-7.485,17.523-17.799,17.523c-10.358,0-17.662-8.168-17.662-17.203V150.216z M329.406,149.943c0,6.162,4.428,11.547,10.998,11.547   c6.846,0,10.862-5.934,10.862-11.5c0-5.658-4.017-11.594-10.907-11.594c-6.754,0-10.953,5.567-10.953,11.502V149.943   L329.406,149.943z"
   id="path1166" />
	<path
   fill="#1D1D1B"
   d="M475.574,117.139h6.932l-25.871-24.968l23.783-24.83h-6.055l-26.105,26.998v-6.396V67.342h-5.518v49.797   h5.518v-16.228l5.08-5.306L475.574,117.139z"
   id="path1168" />
	<path
   fill="#F10000"
   d="M385.808,133.059c3.799,0.096,7.156,0.291,10.176,2.821c0.778,0.636,1.51,1.461,2.045,2.289   c1.559,2.388,1.704,5.063,1.704,5.99c0,0.825-0.097,3.114-1.362,5.209c-0.342,0.532-0.779,1.264-1.802,2.188   c-1.12,0.976-2.288,1.51-2.728,1.704c-0.828,0.341-1.654,0.585-3.456,0.974l9.933,13.193h-7.645l-9.543-12.998v12.998h-6.864   v-34.371L385.808,133.059L385.808,133.059z M383.13,149.369h3.408c0.391,0,0.729,0,1.121-0.049c0.729,0,3.164-0.098,4.771-2.045   c0.388-0.488,1.071-1.51,1.071-3.166c0-0.535-0.049-1.851-0.926-3.064c-1.511-2.047-3.848-2.24-6.186-2.291h-3.262v10.615H383.13z"
   id="path1170" />
	<path
   fill="none"
   d="M302.794,120.945c-10.838-21.554-21.646-43.05-32.461-64.562c0.06-0.042,0.108-0.083,0.163-0.11   c2.697-1.38,5.395-2.76,8.091-4.138c3.812-1.946,7.625-3.883,11.433-5.839c4.003-2.056,8.21-3.293,12.751-3.146   c3.091,0.1,5.925,0.999,8.411,2.895c2.194,1.674,3.747,3.848,4.937,6.306c1.129,2.332,1.934,4.759,1.979,7.377   c0.063,3.636-1.036,6.924-2.985,9.977c-1.306,2.042-2.796,3.921-4.544,5.584c-1.204,1.146-2.491,2.204-3.739,3.299   c-4.569-3.241-9.041-6.41-13.531-9.593c0.853-3.113,1.693-6.198,2.539-9.291c4.361,0,8.662,0,12.94,0c0-3.277,0-6.527,0-9.823   c-6.682,0.064-13.29,0.127-19.897,0.193c-2.407,6.801-4.803,13.565-7.2,20.342c7.735,6.398,15.444,12.774,23.159,19.157   c3.066-1.169,5.975-2.609,8.713-4.387c4.363-2.835,8-6.396,10.671-10.881c2.481-4.169,3.728-8.71,3.796-13.559   c0.042-3.005-0.414-5.943-1.298-8.823c-1.173-3.816-2.987-7.27-5.755-10.165c-5.189-5.433-11.553-8.353-19.081-8.621   c-4.45-0.158-8.66,0.847-12.632,2.842c-1.789,0.9-3.541,1.872-5.341,2.744c-4.01,1.939-8.04,3.837-12.062,5.748   c-3.547,1.686-7.095,3.366-10.642,5.047c-1.199,0.569-2.399,1.14-3.6,1.71c12.046,24.561,24.078,49.093,36.104,73.625   C296.762,123.541,299.748,122.255,302.794,120.945z"
   id="path1172" />
	<path
   fill="#F10000"
   d="M302.794,120.945c-3.047,1.311-6.032,2.596-9.086,3.908c-12.025-24.529-24.059-49.063-36.104-73.624   c1.201-0.57,2.4-1.141,3.6-1.71c3.547-1.682,7.095-3.362,10.642-5.047c4.022-1.911,8.052-3.809,12.062-5.748   c1.8-0.872,3.552-1.844,5.341-2.744c3.972-1.996,8.182-3,12.631-2.842c7.529,0.268,13.893,3.188,19.082,8.621   c2.768,2.895,4.582,6.348,5.754,10.165c0.885,2.879,1.341,5.818,1.299,8.823c-0.068,4.849-1.313,9.39-3.796,13.559   c-2.673,4.484-6.308,8.045-10.673,10.881c-2.736,1.776-5.645,3.217-8.711,4.386c-7.715-6.382-15.424-12.758-23.159-19.156   c2.397-6.777,4.793-13.541,7.2-20.342c6.607-0.065,13.218-0.129,19.897-0.193c0,3.296,0,6.546,0,9.823c-4.278,0-8.579,0-12.94,0   c-0.846,3.093-1.688,6.178-2.539,9.291c4.49,3.183,8.961,6.352,13.531,9.593c1.248-1.095,2.535-2.153,3.739-3.299   c1.748-1.663,3.238-3.542,4.543-5.584c1.95-3.053,3.05-6.341,2.986-9.977c-0.048-2.618-0.851-5.045-1.979-7.377   c-1.188-2.458-2.742-4.632-4.937-6.306c-2.486-1.896-5.32-2.794-8.411-2.895c-4.541-0.147-8.748,1.089-12.751,3.146   c-3.806,1.956-7.621,3.893-11.433,5.839c-2.697,1.378-5.395,2.758-8.091,4.138c-0.055,0.028-0.104,0.069-0.163,0.11   C281.149,77.895,291.957,99.391,302.794,120.945z"
   id="path1174" />
	<path
   fill="#F10000"
   d="M310.439,26.526c-2.162-0.445-4.264-0.879-6.423-1.324c1.257-8.395,2.514-16.788,3.774-25.202   c3.935,0.574,7.832,1.145,11.791,1.724C316.526,10.012,313.488,18.253,310.439,26.526z"
   id="path1176" />
	<path
   fill="#07B8F9"
   d="M345.539,19.679c2.088,3.381,4.147,6.72,6.241,10.112c-6.819,4.222-13.635,8.44-20.472,12.671   c-1.434-2.14-2.84-4.241-4.278-6.391C333.195,30.612,339.347,25.163,345.539,19.679z"
   id="path1178" />
	<path
   fill="#069211"
   d="M329.069,6.482c3.017,2.085,5.979,4.134,8.954,6.19c-5.377,6.412-10.738,12.805-16.136,19.239   c-1.888-1.165-3.759-2.319-5.683-3.507C320.475,21.129,324.753,13.837,329.069,6.482z"
   id="path1180" />
	<g
   id="g1186">
		<path
   d="M412.074,158.443h-1.98v-1.621h5.791v1.621h-1.967v7.535h-1.844V158.443L412.074,158.443z"
   id="path1182" />
		<path
   d="M416.851,165.979v-9.156h2.486l2.354,6.57l2.313-6.57h2.5v9.156h-1.709l0.051-7.338l-2.563,7.338h-1.213l-2.574-7.338    l0.051,7.338H416.851z"
   id="path1184" />
	</g>
</g>
<path
   style="fill:#069211;fill-opacity:1;fill-rule:evenodd;stroke-width:0.70961"
   d="M 0,92.249323 V 67.767772 h 2.7145389 2.714539 l 14.1387031,20.756098 14.138703,20.7561 0.188121,-20.7561 0.18812,-20.756098 h 2.472918 2.472917 v 24.481551 24.481547 h -2.437766 c -2.399617,0 -2.663353,-0.33036 -16.853242,-21.110898 L 5.3220763,74.509069 5.1341144,95.619972 4.9461525,116.73087 H 2.4730762 0 Z"
   id="path1540" /><path
   style="fill:#069211;fill-opacity:1;fill-rule:evenodd;stroke-width:0.70961"
   d="M 45.415051,92.249323 V 67.767772 H 58.54284 71.670628 v 2.128831 2.12883 H 61.026475 50.382323 v 8.870127 8.870128 H 60.67167 70.961018 v 2.12883 2.128831 H 60.67167 50.382323 v 9.224931 9.22493 h 10.644152 10.644153 v 2.12883 2.12883 H 58.54284 45.415051 Z"
   id="path1542" /><path
   style="fill:#069211;fill-opacity:1;fill-rule:evenodd;stroke-width:0.70961"
   d="m 92.152222,116.36924 c -8.041776,-2.5753 -14.48667,-9.59774 -16.719496,-18.217782 -2.946986,-11.377126 2.994347,-23.7605 13.83872,-28.843702 3.53608,-1.657506 4.930931,-1.894789 11.138394,-1.894789 6.43728,0 7.47674,0.192755 11.19592,2.076147 4.8391,2.450523 9.9323,7.63751 12.094,12.316715 1.26259,2.732973 1.54644,4.649893 1.54644,10.443494 0,6.403885 -0.19836,7.487565 -2.03343,11.109087 -2.52803,4.9891 -6.71691,9.13691 -11.80397,11.68826 -4.80544,2.4101 -13.908302,3.0353 -19.256578,1.32257 z m 16.772938,-4.88255 c 7.54766,-3.57865 11.86626,-10.56742 11.86626,-19.203115 0,-6.559368 -1.97967,-11.307444 -6.46309,-15.501154 -4.70509,-4.401065 -8.61373,-5.730102 -15.653453,-5.322579 -6.686228,0.38706 -10.930111,2.560914 -14.732852,7.546641 -8.390707,11.000955 -3.809574,28.634527 8.580748,33.028787 4.747677,1.68377 12.221357,1.43381 16.402387,-0.54858 z"
   id="path1544" /><path
   style="fill:#069211;fill-opacity:1;fill-rule:evenodd;stroke-width:0.70961"
   d="m 146.41561,116.16064 c -5.99325,-2.12618 -11.17026,-6.62913 -14.05658,-12.2264 -6.61417,-12.826462 -1.48402,-28.13425 11.57854,-34.549018 3.58029,-1.75821 4.7879,-1.972255 11.12718,-1.972255 6.60498,0 7.44816,0.165975 11.84861,2.33231 4.28993,2.111924 10.48918,7.712471 10.48918,9.476164 0,0.335337 -0.9888,0.609704 -2.19734,0.609704 -1.54344,0 -3.13242,-0.823084 -5.33954,-2.765876 -4.51814,-3.977027 -7.68895,-5.294395 -13.52036,-5.617268 -9.28856,-0.514289 -16.04395,3.245542 -19.87622,11.062457 -1.67768,3.422067 -1.9914,4.956308 -1.9914,9.738865 0,4.782558 0.31372,6.316798 1.9914,9.738867 3.69858,7.5442 9.98624,11.20048 19.23936,11.1877 8.0487,-0.0111 14.73025,-3.94169 18.17346,-10.69094 2.58583,-5.068641 2.96746,-4.91355 -12.09078,-4.91355 h -13.48259 v -1.774026 -1.774025 h 16.41748 16.41749 l -0.43708,3.18886 c -0.98774,7.206371 -6.76855,14.355931 -14.53335,17.974501 -5.32212,2.48023 -14.26842,2.92123 -19.75746,0.97393 z"
   id="path1546" /><path
   style="fill:#069211;fill-opacity:1;fill-rule:evenodd;stroke-width:0.70961"
   d="M 184.49865,92.249323 V 67.767772 h 13.48259 13.48259 v 2.128831 2.12883 h -10.99895 -10.99896 v 8.870127 8.870128 h 10.99896 10.99895 v 2.12883 2.128831 h -10.99895 -10.99896 v 9.224931 9.22493 h 10.99896 10.99895 v 2.12883 2.12883 h -13.48259 -13.48259 z"
   id="path1548" /><path
   style="fill:#069211;fill-opacity:1;fill-rule:evenodd;stroke-width:0.70961"
   d="m 231.94543,116.36924 c -11.46998,-3.67314 -19.12518,-16.08637 -17.12426,-27.767683 1.52228,-8.886959 6.53892,-15.682356 14.24348,-19.293801 3.53608,-1.657506 4.93093,-1.894789 11.1384,-1.894789 6.43728,0 7.47674,0.192755 11.19591,2.076147 4.8391,2.450523 9.9323,7.63751 12.09401,12.316715 1.26258,2.732973 1.54643,4.649893 1.54643,10.443494 0,8.412977 -1.24799,11.818567 -6.31674,17.237477 -4.8211,5.15414 -10.01428,7.45058 -17.4552,7.71875 -3.94286,0.14211 -7.17116,-0.14752 -9.32203,-0.83631 z m 16.78781,-4.85943 c 7.62463,-3.55056 11.85139,-10.41974 11.85139,-19.260487 0,-12.122329 -8.43052,-20.909255 -20.07777,-20.926568 -8.88547,-0.01321 -15.23412,3.747246 -18.88783,11.187703 -1.68178,3.424786 -1.99468,4.952509 -1.99468,9.738865 0,4.786356 0.3129,6.31408 1.99468,9.738867 2.27289,4.62854 6.4312,8.53422 10.69695,10.04708 4.71446,1.67199 12.2138,1.43197 16.41726,-0.52546 z"
   id="path1550" /><path
   style="fill:#069211;fill-opacity:1;fill-rule:evenodd;stroke-width:0.70961"
   d="m 345.78313,116.44508 c -7.26088,-2.35191 -12.713,-7.23744 -15.97823,-14.31774 -1.29684,-2.812055 -1.61019,-4.737326 -1.61019,-9.893196 0,-5.792329 0.22017,-6.848879 2.3131,-11.099997 2.69206,-5.468047 6.53921,-9.220987 12.14875,-11.85124 3.43171,-1.609095 4.92838,-1.86994 10.72931,-1.86994 5.80093,0 7.2976,0.260845 10.72931,1.86994 5.60976,2.630357 9.4567,6.383173 12.14875,11.851498 2.09289,4.25127 2.3131,5.308011 2.3131,11.099997 0,5.433737 -0.28267,7.004266 -1.86994,10.389428 -2.62958,5.60811 -6.38332,9.45662 -11.84958,12.14874 -3.95658,1.94861 -5.59388,2.33895 -10.39039,2.47711 -3.33573,0.0961 -6.9321,-0.23714 -8.68399,-0.8046 z m 17.27346,-5.2389 c 3.86685,-1.99594 8.39959,-7.2355 9.79027,-11.316916 1.43474,-4.210742 1.42935,-11.084961 -0.012,-15.315129 -1.56452,-4.591592 -6.49101,-9.860258 -11.05627,-11.824178 -5.26789,-2.266185 -13.8056,-1.845808 -18.51044,0.911412 -7.20873,4.224597 -10.92939,11.542541 -10.30104,20.260476 0.59724,8.286155 5.72734,15.513715 12.88651,18.155225 4.2377,1.56357 13.38356,1.10057 17.20298,-0.87089 z"
   id="path1552" /><path
   style="fill:#069211;fill-opacity:1;fill-rule:evenodd;stroke-width:0.70961"
   d="m 404.36723,116.49278 c -7.09389,-2.64683 -12.04056,-6.93616 -15.27425,-13.2445 -1.80086,-3.513152 -2.00063,-4.611406 -2.00063,-10.998957 0,-6.384417 0.20041,-7.487528 1.99822,-10.998957 4.42162,-8.636167 11.74031,-13.506177 21.11253,-14.048726 9.10855,-0.527286 16.32149,2.684513 21.6455,9.638366 l 2.56171,3.345944 -2.29309,0.229808 c -1.91471,0.191887 -2.83282,-0.299675 -5.56392,-2.978958 -4.52798,-4.442066 -8.47446,-6.087748 -14.62459,-6.09846 -8.52947,-0.01486 -15.10962,4.190624 -18.64721,11.917732 -3.56456,7.786033 -1.76755,18.272948 4.14424,24.184738 7.96788,7.96788 21.72459,7.69831 29.51238,-0.57833 2.11631,-2.24915 3.25392,-2.90252 5.0553,-2.90342 2.31784,-10e-4 2.32153,0.004 1.2963,1.98707 -1.51942,2.93822 -7.15858,7.86209 -10.94701,9.55842 -4.18719,1.8749 -14.13354,2.42171 -17.97548,0.98823 z"
   id="path1554" /><path
   style="fill:#069211;fill-opacity:1;fill-rule:evenodd;stroke-width:0.70961"
   d="M 442.79675,92.249323 V 67.767772 h 2.48364 2.48363 v 13.541727 c 0,7.447951 0.2395,13.435287 0.53221,13.305191 0.29271,-0.130095 6.26456,-6.144041 13.27077,-13.364324 11.28159,-11.626305 13.02655,-13.153192 15.25661,-13.349895 l 2.51807,-0.222107 -3.54805,3.767007 c -1.95143,2.071853 -7.22029,7.560146 -11.70857,12.196207 l -8.16052,8.429201 12.77298,12.323541 12.77299,12.32354 -2.73692,0.007 c -2.56201,0.006 -3.45929,-0.68132 -14.04061,-10.75647 l -11.30369,-10.762964 -2.81264,2.746461 -2.81263,2.746463 v 8.0165 8.0165 h -2.48363 -2.48364 z"
   id="path1556" /><path
   style="fill:#069211;fill-opacity:1;fill-rule:evenodd;stroke-width:0.70961"
   d="M 490.34063,92.249323 V 67.767772 h 13.12779 13.12779 v 2.128831 2.12883 h -10.99896 -10.99896 v 8.870127 8.870128 h 10.99896 10.99896 v 2.12883 2.128831 h -10.99896 -10.99896 v 9.224931 9.22493 h 10.99896 10.99896 v 2.12883 2.12883 h -13.12779 -13.12779 z"
   id="path1558" /><path
   style="fill:#069211;fill-opacity:1;fill-rule:evenodd;stroke-width:0.70961"
   d="M 545.69023,94.378154 V 72.025433 h -8.16052 -8.16052 v -2.12883 -2.128831 h 18.44987 18.44986 v 2.128831 2.12883 h -7.80571 -7.80571 v 22.352721 22.352716 h -2.48364 -2.48363 z"
   id="path1560" /><path
   style="fill:#069211;fill-opacity:1;fill-rule:evenodd;stroke-width:0.70961"
   d=""
   id="path1562" /><path
   style="fill:#069211;fill-opacity:1;fill-rule:evenodd;stroke-width:0.70961"
   d=""
   id="path1564" /><path
   style="fill:#069211;fill-opacity:1;fill-rule:evenodd;stroke-width:0.50177"
   d="m 411.57698,156.94555 c 0.75893,-0.11496 2.00081,-0.11496 2.75974,0 0.75893,0.11497 0.13798,0.20904 -1.37987,0.20904 -1.51785,0 -2.1388,-0.0941 -1.37987,-0.20904 z"
   id="path1566" /><path
   style="fill:#069211;fill-opacity:1;fill-rule:evenodd;stroke-width:0.50177"
   d="m 412.12201,162.32265 c 0,-2.0698 0.0886,-2.91654 0.19682,-1.88164 0.10826,1.0349 0.10826,2.72838 0,3.76328 -0.10825,1.0349 -0.19682,0.18816 -0.19682,-1.88164 z"
   id="path1568" /><path
   style="fill:#069211;fill-opacity:1;fill-rule:evenodd;stroke-width:0.50177"
   d="m 416.97101,161.56999 c 0,-4.13799 0.035,-4.26504 1.175,-4.26504 0.9482,0 1.29762,0.41163 1.81022,2.13252 0.34938,1.17289 0.91887,2.6776 1.26556,3.34381 0.60395,1.1606 0.67689,1.07137 1.74307,-2.13252 0.96354,-2.89542 1.27548,-3.34381 2.32627,-3.34381 1.18833,0 1.21351,0.0885 1.21351,4.26504 0,3.40195 -0.14804,4.26505 -0.73154,4.26505 -0.56535,0 -0.76485,-0.88347 -0.8781,-3.88872 l -0.14655,-3.88872 -1.26697,3.67547 c -0.69683,2.02151 -1.48712,3.71498 -1.7562,3.76328 -0.26907,0.0483 -1.096,-1.60567 -1.83762,-3.67547 l -1.34839,-3.76328 -0.0315,3.88872 c -0.0251,3.10814 -0.18255,3.88872 -0.78412,3.88872 -0.61,0 -0.75266,-0.80841 -0.75266,-4.26505 z"
   id="path1570" /><path
   style="fill:#069211;fill-opacity:1;fill-rule:evenodd;stroke-width:0.50177"
   d="m 412.45508,162.07176 c 0,-3.42876 -0.0892,-3.76327 -1.00354,-3.76327 -0.55195,0 -1.00354,-0.2258 -1.00354,-0.50177 0,-0.27598 1.12898,-0.50177 2.50885,-0.50177 1.37987,0 2.50885,0.22579 2.50885,0.50177 0,0.27597 -0.45159,0.50177 -1.00354,0.50177 -0.91434,0 -1.00354,0.33451 -1.00354,3.76327 0,2.17434 -0.21186,3.76328 -0.50177,3.76328 -0.28991,0 -0.50177,-1.58894 -0.50177,-3.76328 z"
   id="path1572" /></svg>
