<?xml version="1.0" encoding="UTF-8" standalone="no"?>
<!-- Generator: Adobe Illustrator 15.1.0, SVG Export Plug-In  -->

<svg
   version="1.1"
   x="0px"
   y="0px"
   width="657px"
   height="225px"
   viewBox="-9.595 -11.5 657 225"
   enable-background="new -9.595 -11.5 657 225"
   xml:space="preserve"
   id="svg10"
   sodipodi:docname="x1.svg"
   inkscape:version="1.2.2 (b0a8486541, 2022-12-01)"
   xmlns:inkscape="http://www.inkscape.org/namespaces/inkscape"
   xmlns:sodipodi="http://sodipodi.sourceforge.net/DTD/sodipodi-0.dtd"
   xmlns="http://www.w3.org/2000/svg"
   xmlns:svg="http://www.w3.org/2000/svg"><sodipodi:namedview
   id="namedview12"
   pagecolor="#ffffff"
   bordercolor="#666666"
   borderopacity="1.0"
   inkscape:showpageshadow="2"
   inkscape:pageopacity="0.0"
   inkscape:pagecheckerboard="0"
   inkscape:deskcolor="#d1d1d1"
   showgrid="false"
   inkscape:zoom="1.0488889"
   inkscape:cx="326.05932"
   inkscape:cy="112.5"
   inkscape:window-width="1920"
   inkscape:window-height="1129"
   inkscape:window-x="-8"
   inkscape:window-y="-8"
   inkscape:window-maximized="1"
   inkscape:current-layer="svg10" />
<defs
   id="defs2">
</defs>
<path
   d="M153.81,202.5H0l97.271-95.447L153.81,202.5z M31.81,189.5H131l-36.461-61.553L31.81,189.5z"
   id="path4" />
<path
   d="M447.126,0L402.2,47h54.589l-80.185,142.5h-51.439L216.165,0H60.116l117.546,202.5h143.743h11.237h36.646h12.116h142.26  L640.142,0H447.126z M185.147,189.5L82.693,13h125.952l101.522,176.5H185.147z M516.145,189.5H391.521l87.5-155.5H432.61l20.073-21  h164.984L516.145,189.5z"
   id="path6" />
<path
   d="M292.463,91.218L241.307,0h141.141L292.463,91.218z M263.502,13l31.844,56.783L351.362,13H263.502z"
   id="path8" />
<path
   style="fill:#a3171e;stroke-width:0.95339;fill-opacity:1"
   d="M 144.57258,113.40679 C 116.70756,65.401821 93.908898,25.928374 93.908898,25.688024 c 0,-0.240351 27.983802,-0.326638 62.186232,-0.19175 l 62.18624,0.245251 48.66377,84.589055 c 26.76507,46.52398 49.43053,85.88707 50.36767,87.47352 l 1.70389,2.88446 h -61.89022 -61.89021 z"
   id="path810"
   transform="translate(-9.595,-11.5)" /><path
   style="fill:#a3171e;fill-opacity:1;stroke-width:0.95339"
   d="m 53.882077,189.65724 c 6.021637,-6.06723 19.800573,-19.58388 30.619858,-30.03701 l 19.671425,-19.00568 16.47889,27.89188 c 9.06338,15.34053 17.09983,28.85718 17.85877,30.037 l 1.37989,2.14513 H 91.412277 42.933646 Z"
   id="path1745"
   transform="translate(-9.595,-11.5)" /><path
   style="fill:#a3171e;fill-opacity:1;stroke-width:0.95339"
   d="M 289.78742,53.095647 274.49009,25.741525 295.8112,25.485112 c 11.72661,-0.141028 30.66352,-0.141028 42.08202,0 l 20.76091,0.256413 -26.78469,27.354122 -26.78469,27.354122 z"
   id="path1747"
   transform="translate(-9.595,-11.5)" /><path
   style="fill:#a3171e;fill-opacity:1;stroke-width:0.95339"
   d="m 403.15245,198.54343 c 2.64522,-4.22639 84.44601,-150.083802 85.04179,-151.636358 0.55533,-1.447171 -1.35573,-1.608503 -21.8185,-1.841922 l -22.42714,-0.255828 9.22273,-9.810878 9.22274,-9.810879 81.74705,0.27698 81.74707,0.27698 -50.2852,87.460815 -50.28519,87.46081 -61.75397,0.0127 -61.75397,0.0127 z"
   id="path1749"
   transform="translate(-9.595,-11.5)" /></svg>
