<?xml version="1.0" encoding="UTF-8" standalone="no"?>
<!-- Generator: Adobe Illustrator 17.0.0, SVG Export Plug-In . SVG Version: 6.00 Build 0)  -->

<svg
   version="1.1"
   id="Layer_1"
   x="0px"
   y="0px"
   width="407px"
   height="136px"
   viewBox="0 0 407 136"
   enable-background="new 0 0 407 136"
   xml:space="preserve"
   sodipodi:docname="pcfx.svg"
   inkscape:version="1.2.1 (9c6d41e410, 2022-07-14)"
   xmlns:inkscape="http://www.inkscape.org/namespaces/inkscape"
   xmlns:sodipodi="http://sodipodi.sourceforge.net/DTD/sodipodi-0.dtd"
   xmlns="http://www.w3.org/2000/svg"
   xmlns:svg="http://www.w3.org/2000/svg"><defs
   id="defs125" /><sodipodi:namedview
   id="namedview123"
   pagecolor="#ffffff"
   bordercolor="#666666"
   borderopacity="1.0"
   inkscape:showpageshadow="2"
   inkscape:pageopacity="0.0"
   inkscape:pagecheckerboard="0"
   inkscape:deskcolor="#d1d1d1"
   showgrid="false"
   inkscape:zoom="1.7352941"
   inkscape:cx="203.42373"
   inkscape:cy="68"
   inkscape:window-width="1728"
   inkscape:window-height="833"
   inkscape:window-x="-8"
   inkscape:window-y="-8"
   inkscape:window-maximized="1"
   inkscape:current-layer="Layer_1" />
<g
   id="g6">
	<circle
   fill="#CCCCCC"
   cx="58.075"
   cy="13.716"
   r="4.039"
   id="circle2" />
	<path
   fill="#CCCCCC"
   d="M58.075,107.3L30.25,91.462l7.535-4.062c0.019,0.044,0.031,0.08,0.051,0.125   c5.45,7.98,16.47,8.57,25.22,7.76c5.19-1.655-1.06,2.033-0.73,3.49c0.94,2.7,4.047,1.088,5.482,0.668   c3.77-2.16,7.5-4.563,9.838-8.747c1.287-3.878,0.724-1.814,3.75-5.09c2.77-2.86,3-7.33,6.24-9.84c3.47-3.12,5.02-7.55,6.87-11.67   c6.24-5.78,11.96-13.38,11.74-22.31c0.34-6.76-3.84-12.78-8.83-16.93c-8.22-6.71-18.67-10.14-29.04-11.73   c-2.41-0.89-4.8,1.96-3.14,4.12c4.75,1.95,10.08,1.89,14.83,3.92c7.63,2.8,15.48,7.04,19.62,14.34c3.53,7.16-0.16,15.82-5.54,21   l-0.18,0.18c-2.04-3.3-4.2-6.63-7.38-8.95c-8.156-6.182-18.558-8.406-28.57-9.014V19.505l-50.09,27v56.99l0.07-0.038v1.038   L58.075,133l50.08-28.505v-25.7L58.075,107.3z M58.016,63.735c0.02,0,0.04,0,0.06,0c5.65,0.33,11.49,1.21,16.37,4.26   c0.644,0.494,1.383,0.802-0.533,1.385c-1.422,0.513-6.265,1.407-9.925,1.917c0,0-3.304,0.208-4.452,0.158   c-0.194-0.008-0.737-0.037-1.52-0.087V63.735z M54.468,78.408c3.073-0.293,6.175-0.152,9.058,0.538c1.72,0.49,3.84,0.49,4.94,2.11   c-5.6,0.95-11.345,1.071-16.97,0.7c-0.789-0.161-1.673-0.244-2.56-0.366L54.468,78.408z M57.556,90.245   c-5.02-0.24-10.81-0.67-14.48-4.57c10.02,2.51,20.59,2.43,30.52-0.5C69.266,89.025,63.166,90.115,57.556,90.245z M75.466,78.425   c-1.345-1.67-3.157-2.545-5.06-3.07c3-0.8,6.01-1.61,8.99-2.49C81.076,75.965,78.121,77.685,75.466,78.425z M84.996,53.225   c2.38,2.03,3.62,4.94,4.41,7.89c-1.8,1.3-3.65,2.53-5.52,3.72c-1.27,0.35-2.77,1.98-3.99,0.58   c-6.223-4.809-14.171-6.574-21.88-7.073V44.185C67.566,44.335,77.776,46.595,84.996,53.225z"
   id="path4" />
</g>
<g
   id="g10">
	<path
   d="M401.51,129c-94.34,0-188.68,0.01-283.02-0.01c0.01-4,0.01-8,0-11.99c94.34,0.01,188.68-0.01,283.02,0V129z"
   id="path8" />
</g>
<g
   id="g16">
	<g
   id="g14">
		<path
   fill="#01015B"
   d="M69.24,11.49c-1.66-2.16,0.73-5.01,3.14-4.12c10.37,1.59,20.82,5.02,29.04,11.73    c4.99,4.15,9.17,10.17,8.83,16.93c0.22,8.93-5.5,16.53-11.74,22.31c-1.85,4.12-3.4,8.55-6.87,11.67    c-3.24,2.51-3.47,6.98-6.24,9.84c-3.026,3.276-2.463,1.213-3.75,5.09c-2.338,4.185-6.068,6.587-9.838,8.747    c-1.435,0.42-4.543,2.033-5.482-0.668c-0.33-1.457,5.92-5.145,0.73-3.49c-8.75,0.81-19.77,0.22-25.22-7.76    c-1.048-2.416-0.903-3.166-0.91-4.56c-3.95-2.85-6.74-7.22-6.4-12.26c-4.38-3.04-8.54-7.37-8.73-13.02    c-0.75-5.54,3.55-10.02,7.92-12.68c8.43-5.05,18.55-6.31,28.21-6.29c10.04,0.6,20.48,2.82,28.66,9.02    c3.18,2.32,5.34,5.65,7.38,8.95l0.18-0.18c5.38-5.18,9.07-13.84,5.54-21c-4.14-7.3-11.99-11.54-19.62-14.34    C79.32,13.38,73.99,13.44,69.24,11.49z M33.48,46.04c-4.98,3.99-1.3,12.13,3.84,13.72c6.86-5.61,15.97-7.23,24.6-7.18    c7.74,0.49,15.73,2.25,21.98,7.08c1.22,1.4,2.72-0.23,3.99-0.58c1.87-1.19,3.72-2.42,5.52-3.72c-0.79-2.95-2.03-5.86-4.41-7.89    c-7.22-6.63-17.43-8.89-26.98-9.04C52.15,38.21,41.33,39.52,33.48,46.04z M67.992,65.542c3.66-0.51,8.503-1.403,9.925-1.917    c1.917-0.583,1.177-0.891,0.533-1.385c-4.88-3.05-10.72-3.93-16.37-4.26c-6.18-0.02-12.67,0.63-18.14,3.72    c-0.56,0.342-2.357,0.675,0.01,1.35c5.316,1.856,18.443,2.6,19.59,2.65C64.688,65.75,67.992,65.542,67.992,65.542z M39.75,67.53    c0.5,1.298,1.516,3.22,3.547,4.4c0.859-0.571,2.173-1.225,3.273-1.805c0.714-0.289,1.477-0.797,2.21-1.054    c-0.358-0.025-0.895-0.088-1.952-0.134C44.293,68.628,42.14,68.11,39.75,67.53z M74.41,69.6c1.902,0.525,3.715,1.4,5.06,3.07    c2.655-0.74,5.61-2.46,3.93-5.56C80.42,67.99,77.41,68.8,74.41,69.6z M49.688,74.688C51.375,75.687,53.69,75.63,55.5,76    c5.625,0.371,11.37,0.25,16.97-0.7c-1.1-1.62-3.22-1.62-4.94-2.11C61.8,71.82,55.208,72.607,49.688,74.688z M47.08,79.92    c3.67,3.9,9.46,4.33,14.48,4.57c5.61-0.13,11.71-1.22,16.04-5.07C67.67,82.35,57.1,82.43,47.08,79.92z"
   id="path12" />
	</g>
</g>
<path
   d="M138.562,70.199c5.059-0.001,10.095-0.31,14.848-2.119c12.71-4.38,21.13-17.81,20.71-31.07c-0.37-6.5-2.57-12.93-6.5-18.14  c-5.85-8.27-16.04-12.96-26.09-12.71l-22.61-0.009v19.105l-0.06,0.263l0.06-0.005V95.32h9.2V70.199 M128.03,14.39  c5.18-0.01,10.36-0.12,15.53,0.12c7.7,0.51,15.18,4.81,18.95,11.63c4.72,8.07,4.18,18.99-1.64,26.36  c-4.06,5.47-10.67,8.97-17.5,9.08c-5.08,0.07-10.057,0.033-15.25,0.033L128.03,14.39z"
   id="path18" />
<path
   d="M140.5,70.181"
   id="path20" />
<circle
   fill="#01015B"
   cx="62.08"
   cy="8.961"
   r="4.039"
   id="circle22" />
<polygon
   fill="#01015B"
   points="62.08,127.245 12,98.74 12,73.04 62.08,101.545 "
   id="polygon24" />
<polygon
   fill="#F00020"
   points="62.08,127.245 112.16,98.74 112.16,73.04 62.08,101.545 "
   id="polygon26" />
<g
   id="g32">
	<path
   d="M274.112,57.437V40.11h-13.535c0.92,3.272,1.422,6.719,1.422,10.285c0,2.408-0.234,4.759-0.663,7.043H274.112z"
   id="path28" />
	<path
   d="M258.027,67.297c-6.217,12.473-19.092,21.045-33.975,21.045c-20.958,0-37.948-16.99-37.948-37.948   s16.99-37.948,37.948-37.948c13.555,0,25.442,7.112,32.154,17.803h9.542c-7.493-15.484-23.341-26.17-41.697-26.17   c-25.579,0-46.315,20.736-46.315,46.315s20.736,46.315,46.315,46.315c19.612,0,36.362-12.195,43.115-29.412H258.027z"
   id="path30" />
</g>
<polygon
   fill="#FEC101"
   points="11.93,97.74 62.02,70.74 62.02,13.75 11.93,40.75 "
   id="polygon34" />
<g
   id="g38">
	<path
   fill="#01015B"
   d="M69.24,11.49c-1.66-2.16,0.73-5.01,3.14-4.12c10.37,1.59,20.82,5.02,29.04,11.73   c4.99,4.15,9.17,10.17,8.83,16.93c0.22,8.93-5.5,16.53-11.74,22.31c-1.85,4.12-3.4,8.55-6.87,11.67c-3.24,2.51-3.47,6.98-6.24,9.84   c-3.026,3.276-2.463,1.213-3.75,5.09c-2.338,4.185-6.068,6.587-9.838,8.747c-1.435,0.42-4.543,2.033-5.482-0.668   c-0.33-1.457,5.92-5.145,0.73-3.49c-8.75,0.81-19.77,0.22-25.22-7.76c-1.048-2.416-0.903-3.166-0.91-4.56   c-3.95-2.85-6.74-7.22-6.4-12.26c-4.38-3.04-8.54-7.37-8.73-13.02c-0.75-5.54,3.55-10.02,7.92-12.68   c8.43-5.05,18.55-6.31,28.21-6.29c10.04,0.6,20.48,2.82,28.66,9.02c3.18,2.32,5.34,5.65,7.38,8.95l0.18-0.18   c5.38-5.18,9.07-13.84,5.54-21c-4.14-7.3-11.99-11.54-19.62-14.34C79.32,13.38,73.99,13.44,69.24,11.49z M33.48,46.04   c-4.98,3.99-1.3,12.13,3.84,13.72c6.86-5.61,15.97-7.23,24.6-7.18c7.74,0.49,15.73,2.25,21.98,7.08c1.22,1.4,2.72-0.23,3.99-0.58   c1.87-1.19,3.72-2.42,5.52-3.72c-0.79-2.95-2.03-5.86-4.41-7.89c-7.22-6.63-17.43-8.89-26.98-9.04   C52.15,38.21,41.33,39.52,33.48,46.04z M67.992,65.542c3.66-0.51,8.503-1.403,9.925-1.917c1.917-0.583,1.177-0.891,0.533-1.385   c-4.88-3.05-10.72-3.93-16.37-4.26c-6.18-0.02-12.67,0.63-18.14,3.72c-0.56,0.342-2.357,0.675,0.01,1.35   c5.316,1.856,18.443,2.6,19.59,2.65C64.688,65.75,67.992,65.542,67.992,65.542z M39.75,67.53c0.5,1.298,1.516,3.22,3.547,4.4   c0.859-0.571,2.173-1.225,3.273-1.805c0.714-0.289,1.477-0.797,2.21-1.054c-0.358-0.025-0.895-0.088-1.952-0.134   C44.293,68.628,42.14,68.11,39.75,67.53z M74.41,69.6c1.902,0.525,3.715,1.4,5.06,3.07c2.655-0.74,5.61-2.46,3.93-5.56   C80.42,67.99,77.41,68.8,74.41,69.6z M49.688,74.688C51.375,75.687,53.69,75.63,55.5,76c5.625,0.371,11.37,0.25,16.97-0.7   c-1.1-1.62-3.22-1.62-4.94-2.11C61.8,71.82,55.208,72.607,49.688,74.688z M47.08,79.92c3.67,3.9,9.46,4.33,14.48,4.57   c5.61-0.13,11.71-1.22,16.04-5.07C67.67,82.35,57.1,82.43,47.08,79.92z"
   id="path36" />
</g>
<circle
   fill="#01015B"
   cx="62.08"
   cy="8.961"
   r="4.039"
   id="circle40" />
<polygon
   fill="#01015B"
   points="62.08,127.245 12,98.74 12,73.04 62.08,101.545 "
   id="polygon42" />
<polygon
   fill="#F00020"
   points="62.08,127.245 112.16,98.74 112.16,73.04 62.08,101.545 "
   id="polygon44" />
<polygon
   points="325.97,23.83 325.97,6.151 298.3,6.151 290.5,6.151 281.36,6.151 281.36,95.35 298.3,95.35 298.3,57.437   324.696,57.437 324.696,40.11 298.3,40.11 298.3,23.83 "
   id="polygon46" />
<polygon
   points="397,95.35 370.5,49.002 395,6.151 374.61,6.151 360.305,31.171 346,6.151 325.61,6.151 350.11,49.002 323.61,95.35   344,95.35 360.305,66.833 376.61,95.35 "
   id="polygon48" />
<g
   id="g116">
	
	
	
	
	
	<path
   id="path60"
   d="m 161.49609,110.88086 c -0.0232,0.007 0.14941,0.21259 0.22266,0.32226 l 0.043,-0.10351 c -0.0514,-0.0464 -0.0929,-0.10455 -0.14649,-0.14844 -0.0664,-0.0544 -0.10435,-0.0748 -0.11914,-0.0703 z" />
	
	
	
	
	
	
	
	
	
	
	
	
	
	
	
	
	
	<path
   id="path96"
   d="m 313.08594,102.64844 c 0.5572,0.0566 1.10036,0.059 1.63281,0.0195 -0.20932,-0.0129 -0.42866,-0.0195 -0.66016,-0.0195 z" />
	
	
	
	
	
	
	
	
	
</g>
<g
   id="g120">
	
</g>
<path
   style="fill:#fec101;fill-opacity:1;fill-rule:evenodd;stroke-width:0.576271"
   d="M 119.28814,50.711864 V 6.6271186 h 13.70943 c 10.28237,0 14.533,0.2145114 17.00398,0.8581198 13.73719,3.5780836 23.6889,16.4252666 23.66366,30.5486596 -0.0158,8.819662 -3.57803,16.886146 -10.2603,23.233646 -6.92749,6.580436 -14.01719,8.749405 -28.59915,8.749405 H 127.9322 V 82.40678 94.79661 h -4.32203 -4.32203 z m 29.12468,10.348481 c 9.88006,-2.556742 16.58172,-10.765577 17.3873,-21.297633 0.73671,-9.631607 -4.14401,-18.502737 -12.51198,-22.741619 -4.52003,-2.289665 -8.17601,-2.902449 -17.3165,-2.902449 h -8.03944 v 23.915254 23.915255 h 8.523 c 5.81121,0 9.6158,-0.282795 11.95762,-0.888808 z"
   id="path645" /><path
   style="fill:#fec101;fill-opacity:1;fill-rule:evenodd;stroke-width:0.576271"
   d="m 216.30927,95.674657 c -5.66193,-1.027601 -7.75624,-1.76143 -13.74995,-4.817863 -4.14238,-2.112368 -6.24224,-3.69312 -10.43119,-7.852479 -6.10043,-6.057336 -9.15084,-10.887947 -11.84022,-18.750078 -1.76055,-5.1468 -1.8731,-5.957615 -1.87997,-13.542373 -0.008,-8.79571 0.70954,-12.527768 3.65915,-19.033 4.87904,-10.760472 14.75669,-20.075764 25.68574,-24.223371 8.34794,-3.1680711 16.67769,-3.8375285 25.38589,-2.0402515 11.99179,2.4749736 22.97543,9.9621415 29.46639,20.0862365 3.14644,4.907566 3.20291,4.752759 -1.73374,4.752759 -4.30881,0 -4.34446,-0.01257 -5.54549,-1.955879 -2.32332,-3.759214 -8.93701,-9.355923 -13.97274,-11.824162 -7.04579,-3.453458 -10.93806,-4.26865 -18.8976,-3.95788 -10.61807,0.414568 -18.05576,3.60846 -25.32038,10.87308 -8.4777,8.477699 -12.29048,19.503215 -10.93481,31.620465 1.62822,14.55335 11.77532,27.004167 25.86745,31.740177 5.29685,1.780136 14.55503,2.174922 20.41753,0.870642 9.22322,-2.051969 18.30981,-8.320624 23.49671,-16.209898 l 2.43189,-3.698918 h 3.91168 c 2.57142,0 3.91168,0.227835 3.91168,0.66496 0,0.36573 -0.89482,2.245815 -1.98848,4.177966 -7.18204,12.688356 -19.31969,21.095755 -33.74034,23.370949 -4.80837,0.758632 -9.04902,0.683647 -14.1992,-0.251082 z"
   id="path647" /><path
   style="fill:#fec101;fill-opacity:1;fill-rule:evenodd;stroke-width:0.576271"
   d="m 261.91525,50.856228 c 0,-3.565841 -0.188,-7.326143 -0.41779,-8.356228 l -0.4178,-1.872881 h 6.32458 6.32457 v 8.355932 8.355932 l -5.90678,2.96e-4 -5.90678,2.97e-4 z"
   id="path649" /><path
   style="fill:#fec101;fill-opacity:1;fill-rule:evenodd;stroke-width:0.576271"
   d="M 281.79661,50.711864 V 6.6271186 h 21.89831 21.8983 v 8.3559324 8.355932 H 311.76271 297.9322 v 8.644068 8.644068 h 13.25424 13.25424 v 8.355932 8.355932 H 311.18644 297.9322 V 76.067797 94.79661 h -8.06779 -8.0678 z"
   id="path651" /><path
   style="fill:#fec101;fill-opacity:1;fill-rule:evenodd;stroke-width:0.576271"
   d="m 324.62324,94.364407 c 12.17618,-21.001794 25.76045,-45.379053 25.56269,-45.872784 -0.14564,-0.363613 -5.58124,-9.937882 -12.07909,-21.276154 l -11.81429,-20.6150381 9.86325,0.1574116 9.86324,0.1574117 6.93116,12.2279878 c 3.81214,6.725393 7.09568,12.235987 7.29677,12.245763 0.20109,0.0098 3.53741,-5.557649 7.41405,-12.372056 l 7.04843,-12.3898304 h 9.74482 9.74482 l -0.82672,1.5847458 c -0.4547,0.8716102 -5.8108,10.2720336 -11.90244,20.8898306 -6.09164,10.617797 -11.08091,19.564407 -11.08726,19.881356 -0.006,0.316949 5.61261,10.371053 12.48658,22.342454 6.87397,11.9714 12.64533,22.14979 12.82525,22.618644 0.2809,0.732044 -1.0451,0.85015 -9.38708,0.836101 l -9.7142,-0.01636 -8.01193,-14.137574 c -6.3933,-11.28139 -8.15191,-13.984909 -8.70481,-13.381939 -0.38108,0.415589 -4.12073,6.784861 -8.31032,14.153929 l -7.61745,13.398305 h -9.78802 c -5.38342,0 -9.67527,-0.194491 -9.53745,-0.432203 z"
   id="path653" /><path
   style="fill:#fec101;fill-opacity:1;fill-rule:evenodd;stroke-width:0.576271"
   d="m 118.71186,123.0339 v -5.76271 h 141.18645 141.18644 v 5.76271 5.76271 H 259.89831 118.71186 Z"
   id="path655" /></svg>
