<?xml version="1.0" encoding="UTF-8" standalone="no"?>
<!-- Generator: Adobe Illustrator 16.0.0, SVG Export Plug-In . SVG Version: 6.00 Build 0)  -->

<svg
   version="1.1"
   id="Layer_2"
   x="0px"
   y="0px"
   width="765px"
   height="228px"
   viewBox="0 0 765 228"
   enable-background="new 0 0 765 228"
   xml:space="preserve"
   sodipodi:docname="x68000.svg"
   inkscape:version="1.2.1 (9c6d41e410, 2022-07-14)"
   xmlns:inkscape="http://www.inkscape.org/namespaces/inkscape"
   xmlns:sodipodi="http://sodipodi.sourceforge.net/DTD/sodipodi-0.dtd"
   xmlns="http://www.w3.org/2000/svg"
   xmlns:svg="http://www.w3.org/2000/svg"><defs
   id="defs2099" /><sodipodi:namedview
   id="namedview2097"
   pagecolor="#ffffff"
   bordercolor="#666666"
   borderopacity="1.0"
   inkscape:showpageshadow="2"
   inkscape:pageopacity="0.0"
   inkscape:pagecheckerboard="0"
   inkscape:deskcolor="#d1d1d1"
   showgrid="false"
   inkscape:zoom="1.0350877"
   inkscape:cx="228.48305"
   inkscape:cy="114"
   inkscape:window-width="1728"
   inkscape:window-height="833"
   inkscape:window-x="-8"
   inkscape:window-y="-8"
   inkscape:window-maximized="1"
   inkscape:current-layer="Layer_2" />
<g
   id="g2082">
	<g
   id="g2068">
		<path
   d="M37.021,93.462l74.419,127.575h100.997L138.019,93.462H37.021z M52.969,101.436h77.076l63.558,108.971h-77.077    L52.969,101.436z"
   id="path2062" />
		<path
   d="M63.627,161.848L5.128,221.037h93.023L63.627,161.848z M60.499,178.512l21.706,34.552H26.391L60.499,178.512z"
   id="path2064" />
		<path
   d="M183.299,152.606l58.499-59.18h-93.023L183.299,152.606z M186.427,135.951L164.721,101.4h55.814L186.427,135.951z"
   id="path2066" />
	</g>
	<g
   id="g2080">
		<path
   d="M257.842,176.527c-0.142-0.188-0.443,1.444-0.903,4.882c-0.46,3.438-0.718,5.997-0.762,7.663    c0.479,3.562,1.692,3.589,3.659,5.387c1.64,1.01,3.039,0.726,6.981,1.169c3.942,0.452,27.411,0.46,31.38,0.018    c3.96-0.434,7.274-0.975,9.436-2.399c4.217-2.649,7.079-6.46,8.576-16.753c1.072-5.556,1.542-6.983,1.417-9.604    c-0.16-3.51-1.949-5.866-5.369-7.053c-3.419-1.188-8.407-0.611-13.953-0.611h-10.95c-11.775,0-18.906,0.052-22.432,2.488    C260.908,164.398,259.313,167.969,257.842,176.527z M342.033,135.519h-16.673c0.558-4.015,0.407-6.698,0.293-9.152    c-0.115-2.499-0.373-4.688-1.507-5.493c-2.374-2.046-12.048-1.861-22.343-1.861h-9.63c-10.241,0-16.23-0.062-19.34,2.242    c-4.022,3.128-6.449,7.91-7.291,14.344l-2.712,11.063c0,0,1.807-2.709,5.865-3.144c7.124-0.771,18.986-0.054,23.442-0.054    c10.861,0.187,19.836-0.451,25.675,0.505c5.838,0.966,12.19,2.224,15.229,5.521c2.685,2.754,4.155,6.981,4.421,12.676    c0.177,3.757-0.567,9.898-2.224,18.402c-0.93,4.103-2.011,7.806-3.25,11.091c-1.232,3.297-2.934,6.353-5.113,9.171    c-2.17,2.817-4.757,7.699-7.76,9.329c-4.74,2.418-10.817,2.259-16.311,2.905c-5.492,0.647-14.299,0-23.025,0    c-7.788,0-15.69,0.178-21.36-0.496c-5.679-0.673-10.356-2.313-14.033-4.917c-4.492-3.269-7.017-8.674-7.557-16.204    c-0.027-3.89,0.408-8.309,1.302-13.28l9.294-48.771c1.763-10.676,5.031-19.003,12.802-23.964    c4.323-2.693,9.568-4.474,15.734-5.342c6.174-0.876,16.354-1.311,25.24-1.311h13.66c9.285,0,11.872,1.24,18.383,3.712    c6.512,2.471,9.941,7.406,10.286,14.804C343.636,119.455,343.131,129.077,342.033,135.519z"
   id="path2070" />
		<path
   d="M406.094,114.37c-10.957,0-20.934,0.497-24.61,1.488c-3.588,1.002-5.839,0.913-7.46,3.482    c-1.613,2.569-2.64,5.264-3.083,8.088c-0.443,2.818-0.842,6.609-1.188,11.359c0.346,2.853,1.258,4.818,2.738,5.881    c2.834,1.79,12.765,1.95,25.665,1.95c11.553,0,20.174-0.239,24.692-2.197c1.912-0.753,3.561-2.454,4.942-5.094    c1.392-2.649,2.233-4.581,3.216-9.567c0.55-3.021,0.79-5.573,0.746-7.673c-0.063-2.668-0.887-4.44-2.474-5.325    c-1.744-0.957-4.411-1.595-7.999-1.914C417.682,114.529,412.624,114.37,406.094,114.37z M434.063,153.936    c6.866,2.817,6.866,9.444,7.044,17.072c0.027,1.073,0.283,6.875-0.07,8.887c-0.354,2.001-0.239,3.544-0.362,4.189    c-1.517,6.999-2.012,10.083-4.378,14.219c-2.365,4.147-3.756,7.115-7.884,9.33c-3.598,2.038-8.16,3.455-13.68,4.244    c-5.527,0.787-15.212,1.187-23.742,1.187h-11.021c-9.542,0-17.001-0.346-22.388-1.036c-5.378-0.692-8.549-3.172-11.713-6.068    c-2.985-2.605-5.819-8.931-6.307-15.026c0.159-2.844,0.665-4.297,1.506-9.656c1.107-4.952,1.373-8.939,2.25-11.597    c0.877-2.65,2.631-5.769,4.562-8.204c1.923-2.428,4.767-4.209,8.134-6.131c2.073-1.188,2.693-1.639,0.576-3.411    c-2.33-1.939-2.951-3.757-3.606-6.131c-0.337-0.743-0.514-7.973-0.549-8.212c1.028-16.505,5.351-24.913,13.086-31.265    c4.544-3.898,6.546-6.21,16.628-6.928c5.174-0.417,19.357-0.62,26.604-0.62c9.994,0,19.712,0.213,23.85,0.638    c3.632,0.531,6.786,1.311,9.479,2.33c2.695,1.027,2.419,2.773,4.474,5.245c1.8,2.277,2.757,5.891,2.872,10.835    c0.078,3.41-0.144,6.964-0.673,10.675c-0.523,3.704-1.49,7.273-2.898,10.721c-1.399,3.445-3.217,6.192-5.448,8.258    c-2.801,3.048-2.409,5.182-6.114,6.396c-0.796,0.267-1.221,0.08-1.204-0.044C433.098,153.732,433.417,153.67,434.063,153.936z     M394.915,161.298c-7.044,0-14.247-0.026-18.047,0.398c-3.801,0.426-6.911,1.241-9.347,2.437c-2.242,1.011-4.04,2.836-5.404,5.476    c-1.374,2.648-2.578,6.334-3.632,11.057c-0.896,5.475-0.78,6.563-0.948,8.159c0.337,2.906,0.948,4.615,3.145,5.581    c2.206,0.966,5.377,2.65,9.745,2.836c3.331,0.361,12.022,0.54,20.75,0.54c9.063,0,16.168,0.629,21.085-1.205    c2.319-1.02,4.88-1.302,6.352-3.925c1.479-2.614,2.116-5.324,3.242-10.374c0.896-3.862,1.32-6.892,1.267-9.089    c-0.061-2.499-0.761-7.063-2.118-8.365c-1.123-1.266-3.632-2.205-7.512-2.825C409.611,161.369,402.833,161.298,394.915,161.298z"
   id="path2072" />
		<path
   d="M490.462,213.063c-9.938,0-20.481-0.63-26.321-1.887c-5.838-1.258-10.081-3.465-12.748-6.627    c-3.294-3.704-2.685-8.993-3.146-16.23c0.195-5.794,0.922-11.597,1.852-17.055l6.018-31.609    c1.257-6.777,3.038-12.909,5.349-18.401c2.305-5.484,5.555-10.056,9.737-13.706c2.393-2.312,5.537-4.137,9.427-5.493    c3.881-1.347,8.311-2.232,13.271-2.649c4.952-0.416,11.047-0.629,18.268-0.629c5.458,0,10.365,0.186,14.715,0.558    c4.36,0.372,8.177,1.046,11.465,2.029c3.287,0.983,6.078,2.455,8.362,4.403c4.147,3.766,6.317,9.693,6.504,17.78    c0.08,3.261-0.417,8.859-1.479,16.798l-6.139,31.752c-3.322,18.048-7.293,29.892-17.215,35.545    c-4.031,2.232-8.877,3.692-14.556,4.385C508.146,212.718,498.588,213.063,490.462,213.063z M509.288,115.142    c-7.574,0-12.995,0.141-16.256,0.425c-3.26,0.274-6.068,0.877-8.426,1.808c-1.808,0.734-3.429,1.798-4.873,3.171    c-1.436,1.383-2.87,3.695-4.297,6.929c-1.425,3.241-2.676,4.952-3.738,10.428l-6.804,36.102    c-0.779,5.342-1.267,7.024-1.453,10.365c0.205,2.995,0.699,5.183,1.506,6.573c0.806,1.391,2.003,2.498,3.571,3.322    c2.001,1.037,4.553,1.701,7.663,1.994c3.109,0.292,8.24,0.442,15.388,0.442c8.691,0,15.149-0.266,19.402-0.779    c4.253-0.522,7.477-1.72,9.675-3.579c4.058-3.649,6.396-9.107,8.788-20.475l6.289-33.284c0.914-6.361,1.329-8.522,1.26-11.801    c-0.106-4.545-0.266-6.921-2.24-8.318c-1.898-1.437-4.557-2.348-7.967-2.739C523.357,115.336,517.537,115.142,509.288,115.142z"
   id="path2074" />
		<path
   d="M594.117,213.063c-9.939,0-20.482-0.63-26.322-1.887c-5.837-1.258-10.08-3.465-12.747-6.627    c-3.295-3.704-2.685-8.993-3.146-16.23c0.196-5.794,0.922-11.597,1.853-17.055l6.017-31.609c1.257-6.777,3.038-12.909,5.35-18.401    c2.304-5.484,5.555-10.056,9.737-13.706c2.392-2.312,5.537-4.137,9.426-5.493c3.881-1.347,8.311-2.232,13.271-2.649    c4.953-0.416,11.047-0.629,18.268-0.629c5.458,0,10.366,0.186,14.716,0.558c4.359,0.372,8.176,1.046,11.465,2.029    c3.286,0.983,6.077,2.455,8.361,4.403c4.148,3.766,6.318,9.693,6.505,17.78c0.08,3.261-0.418,8.859-1.48,16.798l-6.139,31.752    c-3.322,18.048-7.292,29.892-17.214,35.545c-4.032,2.232-8.877,3.692-14.557,4.385    C611.801,212.718,602.242,213.063,594.117,213.063z M612.943,115.142c-7.575,0-12.996,0.141-16.257,0.425    c-3.26,0.274-6.068,0.877-8.426,1.808c-1.808,0.734-3.429,1.798-4.872,3.171c-1.436,1.383-2.87,3.695-4.298,6.929    c-1.424,3.241-2.675,4.952-3.737,10.428l-6.805,36.102c-0.779,5.342-1.267,7.024-1.453,10.365    c0.205,2.995,0.699,5.183,1.507,6.573c0.806,1.391,2.002,2.498,3.571,3.322c2,1.037,4.553,1.701,7.662,1.994    c3.109,0.292,8.24,0.442,15.389,0.442c8.691,0,15.148-0.266,19.402-0.779c4.252-0.522,7.476-1.72,9.675-3.579    c4.057-3.649,6.395-9.107,8.787-20.475l6.29-33.284c0.913-6.361,1.329-8.522,1.259-11.801c-0.106-4.545-0.266-6.921-2.24-8.318    c-1.898-1.437-4.556-2.348-7.967-2.739C627.013,115.336,621.191,115.142,612.943,115.142z"
   id="path2076" />
		<path
   d="M697.771,213.063c-9.939,0-20.482-0.63-26.321-1.887c-5.838-1.258-10.081-3.465-12.748-6.627    c-3.295-3.704-2.685-8.993-3.146-16.23c0.195-5.794,0.922-11.597,1.852-17.055l6.017-31.609c1.258-6.777,3.038-12.909,5.35-18.401    c2.305-5.484,5.555-10.056,9.737-13.706c2.393-2.312,5.537-4.137,9.427-5.493c3.881-1.347,8.311-2.232,13.271-2.649    c4.952-0.416,11.046-0.629,18.268-0.629c5.458,0,10.365,0.186,14.715,0.558c4.36,0.372,8.177,1.046,11.465,2.029    c3.286,0.983,6.077,2.455,8.362,4.403c4.147,3.766,6.317,9.693,6.504,17.78c0.08,3.261-0.417,8.859-1.479,16.798l-6.139,31.752    c-3.322,18.048-7.293,29.892-17.215,35.545c-4.031,2.232-8.877,3.692-14.557,4.385    C715.455,212.718,705.896,213.063,697.771,213.063z M716.598,115.142c-7.574,0-12.996,0.141-16.257,0.425    c-3.26,0.274-6.067,0.877-8.425,1.808c-1.809,0.734-3.43,1.798-4.873,3.171c-1.436,1.383-2.87,3.695-4.298,6.929    c-1.424,3.241-2.675,4.952-3.737,10.428l-6.805,36.102c-0.779,5.342-1.266,7.024-1.452,10.365    c0.205,2.995,0.699,5.183,1.506,6.573c0.806,1.391,2.003,2.498,3.571,3.322c2.001,1.037,4.553,1.701,7.663,1.994    c3.108,0.292,8.24,0.442,15.388,0.442c8.691,0,15.149-0.266,19.402-0.779c4.253-0.522,7.477-1.72,9.675-3.579    c4.058-3.649,6.396-9.107,8.787-20.475l6.29-33.284c0.914-6.361,1.329-8.522,1.26-11.801c-0.107-4.545-0.266-6.921-2.241-8.318    c-1.897-1.437-4.556-2.348-7.966-2.739C730.667,115.336,724.846,115.142,716.598,115.142z"
   id="path2078" />
	</g>
</g>
<g
   id="g2094">
	<polygon
   points="258.178,14.303 258.178,72.51 278.112,72.51 278.112,49.387 316.385,49.387 316.385,72.51 336.318,72.51    336.318,14.303 316.385,14.303 316.385,36.629 278.112,36.629 278.112,14.303  "
   id="polygon2084" />
	<path
   d="M381.368,26.867l12.605,20.925h-25.221L381.368,26.867z M401.188,59.752l7.689,12.757H432l-35.083-58.207h-7.974h-15.15   L338.71,72.51h15.149l7.69-12.757H401.188z"
   id="path2086" />
	<path
   d="M518.113,14.303V72.51h19.136V51.433c6.316,1.285,13.511,1.94,21.13,1.94c25.319,0,36.863-9.107,37.076-20.333   c0.247-13.466-14.946-21.129-40.266-21.129c-6.574,0-8.878,0.274-17.94,0.797S518.113,14.303,518.113,14.303z M537.249,23.508   c0,0,4.669-0.549,8.878-0.824c4.198-0.266,5.315-0.213,8.361-0.213c11.749,0,18.756,3.739,18.641,10.649   c-0.097,5.758-5.457,10.436-17.205,10.436c-3.534,0-8.859-0.496-12.448-1c-3.588-0.497-6.227-1.639-6.227-1.639V23.508z"
   id="path2088" />
	<path
   d="M434.392,14.303V72.51h19.136V23.508c0,0,4.67-0.549,8.878-0.824c4.199-0.266,5.315-0.213,8.362-0.213   c11.749,0,19.552,3.739,19.438,10.649c-0.099,5.758-6.255,8.841-18.003,8.841c-3.534,0-7.886-0.487-11.473-0.983   c-0.194-0.027-4.013,6.167-4.013,6.167l28.704,25.364h28.704l-25.348-21.812c15.868-2.658,23.744-9.869,23.753-17.657   c0.019-15.113-15.017-21.431-41.063-21.129c-6.573,0.08-8.878,0.274-17.94,0.797S434.392,14.303,434.392,14.303z"
   id="path2090" />
	<path
   d="M245.421,31.845c0,0,6.68-12.262,6.379-12.758c-0.301-0.495-13.484-7.477-39.867-7.176   c-40.886,0.461-40.664,17.542-40.664,17.542s-4.085,15.875,27.695,19.136c19.499,1.994,33.39,5.253,33.311,9.993   c-0.08,4.75-8.266,4.465-11.934,4.165c-31.902-2.587-43.304-11.526-43.304-11.526l-6.92,14.334c0,0,15.397,9.639,47.398,9.346   c32.036-0.292,36.421-7.894,37.005-18.126c0.726-12.74-17.072-17.754-17.072-17.754s-9.763-2.144-19.917-3.596   c-11.667-1.675-23.823-3.543-22.308-8.151c0-0.159,3.447-6.759,27.907-2.17C235.021,27.327,245.421,31.845,245.421,31.845z"
   id="path2092" />
</g>
<path
   style="fill:#ff0000;fill-rule:evenodd;stroke-width:0.966102;fill-opacity:1"
   d="M 110.73928,218.58051 C 107.82572,213.96794 38.644068,95.012132 38.644068,94.614902 c 0,-0.230993 22.300268,-0.419987 49.556151,-0.419987 h 49.556151 l 36.18537,61.975425 c 19.90196,34.08648 36.53304,62.56233 36.95796,63.27966 0.64452,1.08803 -7.4793,1.30424 -49.00739,1.30424 h -49.77997 z m 83.44716,-7.90801 c 0,-0.2314 -14.28586,-24.90322 -31.74637,-54.82627 l -31.74637,-54.40555 -39.363975,-0.25245 -39.363978,-0.25245 1.857714,3.15075 c 1.021743,1.73292 15.483382,26.51834 32.136977,55.07872 l 30.279262,51.92797 h 38.97337 c 21.43535,0 38.97337,-0.18933 38.97337,-0.42072 z"
   id="path2170" /><path
   style="fill:#ff0000;fill-opacity:1;fill-rule:evenodd;stroke-width:0.966102"
   d="m 28.985069,197.80932 c 12.40242,-12.6197 25.230986,-25.69661 28.507923,-29.0598 l 5.958068,-6.11489 16.579554,28.44201 c 9.118756,15.6431 16.579555,28.72001 16.579555,29.0598 0,0.33979 -20.289365,0.6178 -45.087478,0.6178 H 6.4352129 Z m 53.133575,15.08963 c 0,-1.02106 -12.300433,-21.23538 -18.654796,-30.65696 l -2.843227,-4.21564 -17.267938,17.24794 c -9.497366,9.48638 -17.267937,17.57854 -17.267937,17.98259 0,0.40406 12.607627,0.73465 28.016949,0.73465 20.195958,0 28.016949,-0.305 28.016949,-1.09258 z"
   id="path3194" /><path
   style="fill:#ff0000;fill-opacity:1;fill-rule:evenodd;stroke-width:0.966102"
   d="M 166.48495,122.68012 149.89363,94.194915 h 44.94807 44.94807 l -27.77121,28.500005 c -15.27416,15.675 -28.0347,28.49334 -28.35675,28.4852 -0.32205,-0.008 -8.05163,-12.83314 -17.17686,-28.5 z m 37.82085,-4.09114 17.13936,-17.63135 h -28.68444 c -15.77645,0 -28.53953,0.36902 -28.36241,0.82004 0.96574,2.45923 21.67128,34.80986 22.1722,34.64217 0.32776,-0.10973 8.30864,-8.13361 17.73529,-17.83086 z"
   id="path3196" /><path
   style="fill:#ff0000;fill-opacity:1;fill-rule:evenodd;stroke-width:0.966102"
   d="m 203.91282,73.813093 c -10.09089,-0.912442 -21.91298,-3.626827 -28.51458,-6.547027 l -4.31045,-1.906717 3.04552,-6.691116 3.04552,-6.691115 2.94872,1.678347 c 7.31863,4.165599 25.01825,8.409073 38.88802,9.323379 7.36265,0.485351 9.31129,0.308876 11.35169,-1.028049 3.07365,-2.013935 3.16226,-4.931295 0.20855,-6.86664 -3.22164,-2.1109 -15.74422,-5.03772 -28.66056,-6.698642 -14.80006,-1.903154 -20.68516,-3.915129 -25.80714,-8.822849 -3.76208,-3.604705 -4.14201,-4.397894 -4.14201,-8.64741 0,-4.252223 0.37894,-5.04176 4.15748,-8.662231 8.08388,-7.745725 27.88799,-11.493351 48.89171,-9.252013 10.08336,1.07601 26.17115,5.0606 26.17115,6.482014 0,0.307988 -1.35071,3.016914 -3.00157,6.019835 l -3.00157,5.459856 -8.07522,-2.700961 c -21.83544,-7.303425 -46.083,-6.50788 -41.86498,1.373559 1.21486,2.269984 7.73063,4.016842 26.47724,7.098461 16.33535,2.685251 21.21084,4.282353 26.36097,8.635282 4.59132,3.880617 6.31197,7.74172 5.73422,12.867506 -1.20295,10.672497 -9.63809,14.810377 -32.57824,15.981344 -4.51653,0.230544 -12.31254,0.04838 -17.32447,-0.404813 z"
   id="path3198" /><path
   style="fill:#ff0000;fill-opacity:1;fill-rule:evenodd;stroke-width:0.966102"
   d="m 258.91525,43.474576 v -28.5 h 9.17797 9.17797 v 11.11017 11.110169 h 19.80508 19.80509 V 26.084746 14.974576 h 9.66101 9.66102 v 28.5 28.5 h -9.66102 -9.66101 v -11.59322 -11.59322 h -19.80509 -19.80508 v 11.59322 11.59322 h -9.17797 -9.17797 z"
   id="path3200" /><path
   style="fill:#ff0000;fill-opacity:1;fill-rule:evenodd;stroke-width:0.966102"
   d="m 340.3478,71.25 c 0.21673,-0.398517 7.87471,-13.223517 17.01775,-28.5 l 16.6237,-27.775424 11.29775,2.49e-4 11.29775,2.49e-4 15.88216,26.326023 c 8.73519,14.479312 16.50193,27.3042 17.25942,28.49975 l 1.37725,2.173729 -10.97976,-0.01688 -10.97975,-0.01688 -3.72859,-6.262783 -3.72858,-6.262783 -20.42396,0.01851 -20.42396,0.01851 -3.66132,6.261155 -3.66133,6.261155 h -6.78128 c -3.72971,0 -6.60397,-0.326059 -6.38725,-0.724576 z m 53.66067,-24.220365 c -0.97241,-2.392741 -12.00874,-20.429897 -12.5093,-20.444504 -0.32673,-0.0095 -2.90765,3.786691 -5.73539,8.436055 -2.82774,4.649365 -5.76232,9.431568 -6.5213,10.627119 l -1.37996,2.173729 h 13.234 c 7.27869,0 13.08907,-0.35658 12.91195,-0.792399 z"
   id="path3202" /><path
   style="fill:#ff0000;fill-opacity:1;fill-rule:evenodd;stroke-width:0.966102"
   d="M 434.74576,43.551338 V 15.1281 l 2.65678,-0.526017 c 5.80809,-1.149946 36.823,-2.664994 42.73726,-2.087673 20.94613,2.04466 30.31481,7.55713 31.5011,18.535047 0.39765,3.679774 0.0773,5.380256 -1.4799,7.856112 -2.62676,4.17633 -9.69048,8.555013 -16.12344,9.994646 -2.85456,0.638821 -5.1901,1.499679 -5.1901,1.913016 0,0.413337 5.2505,5.235046 11.66777,10.714908 l 11.66778,9.963386 -13.16221,0.269084 -13.16222,0.269082 L 471.89539,59.74288 C 464.21564,52.985134 457.9322,47.200398 457.9322,46.887913 c 0,-0.312486 0.65126,-1.497951 1.44724,-2.634368 1.31639,-1.879417 2.48942,-2.095367 12.9753,-2.388693 9.89935,-0.276919 11.9129,-0.609409 14.25192,-2.353368 3.62327,-2.701494 4.8066,-6.18337 3.32063,-9.770802 -2.4632,-5.946713 -11.55588,-8.475569 -26.92305,-7.487842 l -9.90255,0.636486 v 24.542625 24.542625 h -9.17796 -9.17797 z"
   id="path3204" /><path
   style="fill:#ff0000;fill-opacity:1;fill-rule:evenodd;stroke-width:0.966102"
   d="M 518.79661,43.492982 V 15.011389 l 2.17373,-0.458158 c 5.22534,-1.101345 35.40421,-2.542607 41.20268,-1.967729 8.37757,0.830578 17.76765,2.960802 21.63217,4.907452 14.12504,7.115123 14.74198,21.943036 1.24214,29.854469 -6.88353,4.034017 -16.4889,5.566681 -31.47106,5.021624 -7.1733,-0.260969 -13.80318,-0.785201 -14.73305,-1.164961 -1.55013,-0.633073 -1.69068,0.201535 -1.69068,10.040009 v 10.730481 h -9.17796 -9.17797 z m 46.67836,-0.935055 c 4.94885,-1.764982 7.26716,-4.031105 7.97299,-7.793536 1.74608,-9.30738 -8.37518,-13.973943 -27.24032,-12.559568 l -9.0551,0.678889 v 9.527079 9.527079 l 3.13983,0.507802 c 1.72691,0.279292 4.2267,0.674533 5.55509,0.878313 5.63772,0.864852 16.21177,0.452148 19.62751,-0.766058 z"
   id="path3206" /><path
   style="fill:#ff0000;fill-opacity:1;fill-rule:evenodd;stroke-width:0.966102"
   d="m 259.8481,212.03234 c -16.55952,-1.93886 -22.98723,-9.36636 -21.9328,-25.34428 0.70312,-10.65445 10.98587,-63.77177 13.45924,-69.52606 2.56437,-5.96598 8.75451,-11.57089 15.61314,-14.13703 12.2474,-4.582337 51.54467,-5.349531 62.88997,-1.22779 11.86053,4.30893 14.56815,10.37098 12.46244,27.90197 l -0.60923,5.07204 -7.83577,-0.005 -7.83577,-0.005 -0.0451,-6.28498 c -0.0716,-9.97602 0.85372,-9.64507 -26.96818,-9.64507 -22.44554,0 -23.69325,0.0965 -26.29219,2.03319 -3.92024,2.92133 -5.97251,6.9366 -8.10159,15.85071 -2.48693,10.41238 -2.46867,11.4556 0.15887,9.07515 1.83654,-1.66382 3.98239,-1.87045 22.36446,-2.15347 31.43388,-0.48397 43.16336,1.85663 47.56247,9.49103 3.72546,6.46535 1.56881,26.98013 -4.20961,40.04321 -2.32082,5.2466 -9.1043,14.5382 -11.98357,16.41438 -1.18061,0.7693 -5.83049,1.85817 -10.33307,2.41972 -9.17127,1.1438 -38.68749,1.16084 -48.36369,0.0279 z m 46.87644,-17.8677 c 6.61058,-3.27882 9.59757,-9.96438 10.85255,-24.29048 0.48187,-5.5008 0.3259,-6.15222 -2.03933,-8.51744 l -2.5611,-2.56111 -22.44172,0.31752 c -24.57033,0.34764 -26.37272,0.71351 -29.63019,6.01462 -2.14619,3.49265 -4.8878,15.9811 -4.8878,22.26471 0,8.19076 3.05392,9.10815 29.4661,8.85154 15.16702,-0.14736 17.88216,-0.41315 21.24149,-2.07936 z"
   id="path3208" /><path
   style="fill:#ff0000;fill-opacity:1;fill-rule:evenodd;stroke-width:0.966102"
   d="m 364.36916,212.03394 c -8.86689,-0.62537 -10.44667,-1.02224 -13.99418,-3.51552 -4.76755,-3.35076 -7.9844,-7.86355 -9.45945,-13.27027 -0.8829,-3.23625 -0.71366,-5.9751 0.92601,-14.98538 2.38149,-13.08676 5.20903,-18.45518 12.00252,-22.78819 2.49925,-1.59407 4.55209,-3.2703 4.56188,-3.72495 0.01,-0.45465 -1.01509,-2.05415 -2.27751,-3.55444 -2.96079,-3.5187 -3.80076,-9.39901 -2.57609,-18.0341 1.52539,-10.75535 4.43187,-17.36453 10.15167,-23.08433 7.03184,-7.03184 9.75536,-8.17265 22.1619,-9.282988 12.93983,-1.158069 46.74564,-0.345065 52.61692,1.265398 14.26337,3.91237 13.77339,33.24398 -0.81966,49.06757 -3.89195,4.22014 -3.90305,4.25393 -1.86512,5.68135 3.45993,2.42343 4.74545,7.13461 4.73004,17.33461 -0.0313,20.74911 -6.15737,32.75871 -18.62899,36.5207 -9.31441,2.80965 -35.81919,3.90178 -57.52994,2.37054 z m 50.57152,-15.91903 c 3.25988,-1.62679 4.15032,-2.7597 5.69213,-7.24203 1.00525,-2.92246 2.03147,-9.01009 2.28048,-13.52808 0.56299,-10.21455 -0.58915,-12.08124 -8.346,-13.52218 -6.98462,-1.29748 -35.48949,-1.23196 -41.68065,0.0958 -9.77408,2.09617 -14.80813,10.20105 -14.89878,23.98722 -0.0471,7.15932 -0.0392,7.18155 3.24223,9.11273 4.36956,2.57161 12.56564,3.36236 32.9394,3.17801 14.76915,-0.13364 17.39538,-0.39682 20.77119,-2.08147 z m 7.8973,-51.3414 c 4.8148,-2.37193 8.0896,-8.77245 8.75971,-17.12063 0.71047,-8.85094 0.007,-10.84603 -4.33878,-12.29905 -4.77638,-1.59712 -38.29248,-1.58263 -45.87085,0.0198 -8.49083,1.7954 -11.15703,6.43461 -11.62348,20.22494 -0.18444,5.45294 0.11324,7.16525 1.48502,8.54194 2.41458,2.42325 9.8667,3.094 30.36487,2.73311 14.75106,-0.25971 18.17547,-0.59857 21.22351,-2.10014 z"
   id="path3210" /><path
   style="fill:#ff0000;fill-opacity:1;fill-rule:evenodd;stroke-width:0.966102"
   d="m 476.5987,211.99055 c -11.40249,-0.7411 -16.17638,-1.85306 -21.3467,-4.97217 -4.91082,-2.96257 -6.0593,-6.18312 -6.09799,-17.09997 -0.038,-10.71729 -0.19622,-9.55037 5.00312,-36.89683 5.05342,-26.57901 7.87237,-34.5133 15.10731,-42.52152 7.70779,-8.53161 16.75276,-10.894191 41.80336,-10.919221 24.64834,-0.02463 32.68635,2.154811 37.96359,10.293521 5.06835,7.81658 4.7407,17.49162 -1.71218,50.55645 -6.7998,34.84246 -9.96335,41.88781 -21.37577,47.60471 -7.36711,3.69045 -27.98713,5.34317 -49.34474,3.95503 z m 38.79294,-16.54556 c 5.5273,-1.39209 9.7438,-6.31421 12.09351,-14.11737 3.16641,-10.51529 9.66739,-47.05867 9.66739,-54.34241 0,-7.78295 -1.44861,-9.97352 -7.4334,-11.24065 -4.80847,-1.01807 -35.19034,-1.00583 -41.18843,0.0166 -6.4011,1.09111 -11.35334,5.70792 -14.46545,13.48565 -1.91205,4.77856 -6.85373,28.45621 -10.95042,52.468 -0.2802,1.6423 -0.0233,4.79131 0.57081,6.99779 1.41242,5.24532 4.93203,7.10608 15.01774,7.93962 9.67554,0.79964 31.58199,0.0788 36.68825,-1.20723 z"
   id="path3212" /><path
   style="fill:#ff0000;fill-opacity:1;fill-rule:evenodd;stroke-width:0.966102"
   d="m 580.62712,212.03347 c -16.02458,-1.08777 -22.84625,-3.83293 -26.39183,-10.62052 -1.50388,-2.879 -1.68904,-5.02791 -1.28866,-14.95532 0.43784,-10.8562 4.59452,-35.70414 8.96959,-53.61865 3.72123,-15.23724 11.65426,-25.94754 22.14936,-29.90358 8.42972,-3.177512 27.85264,-4.611351 43.42982,-3.206075 30.11576,2.716855 33.39511,11.471895 23.25788,62.092705 -5.99578,29.94024 -8.17786,35.78767 -15.988,42.84365 -4.18239,3.77854 -11.10303,6.25101 -19.3585,6.91604 -11.56147,0.93134 -25.12014,1.10745 -34.77966,0.45175 z m 37.79337,-16.49584 c 9.99847,-2.50105 12.31784,-7.73002 18.59744,-41.92746 5.65067,-30.77244 5.58745,-33.47165 -0.85977,-36.71186 -3.46145,-1.73965 -5.7702,-1.93221 -23.16663,-1.93221 -20.63536,0 -24.26578,0.60297 -29.34059,4.87315 -4.89696,4.12052 -7.75518,12.59988 -12.30145,36.49411 -6.87235,36.1197 -6.12048,38.9462 10.72678,40.32505 9.38024,0.76773 31.52447,0.0848 36.34422,-1.12078 z"
   id="path3214" /><path
   style="fill:#ff0000;fill-opacity:1;fill-rule:evenodd;stroke-width:0.966102"
   d="m 684,211.99855 c -11.23316,-0.72386 -16.34082,-1.87205 -20.96022,-4.71178 -5.78808,-3.55817 -6.58678,-5.88987 -6.45943,-18.85727 0.0919,-9.35482 0.90302,-15.70052 4.14205,-32.40408 5.96587,-30.7657 8.77198,-38.40826 17.12086,-46.62935 6.54336,-6.44322 12.28595,-8.38476 28.62384,-9.677576 18.30047,-1.448119 34.55586,0.03784 42.18708,3.856466 9.55615,4.78185 12.54395,12.69767 10.77628,28.55036 -1.44023,12.91609 -9.18613,51.33797 -11.73253,58.19671 -4.5375,12.22178 -10.38608,17.53675 -22.17711,20.15374 -7.56724,1.67951 -27.65558,2.41626 -41.52082,1.52278 z m 38.16102,-16.53733 c 4.8943,-1.21489 8.87309,-4.89695 11.29511,-10.45275 2.40545,-5.51777 10.35158,-45.30966 11.10057,-55.5884 0.52602,-7.21889 0.40319,-7.95555 -1.74235,-10.44989 -1.9708,-2.2912 -3.43736,-2.82955 -10.03164,-3.68249 -4.24786,-0.54943 -14.31242,-0.77629 -22.36568,-0.50411 -20.49362,0.69262 -23.84125,2.35884 -29.16668,14.51715 -2.18501,4.98851 -10.77577,48.69286 -10.77577,54.82027 0,8.7344 3.45943,11.65474 14.89194,12.57129 9.74526,0.78128 31.63854,0.0488 36.7945,-1.23107 z"
   id="path3216" /></svg>
