<?xml version="1.0" encoding="UTF-8"?>
<svg enable-background="new 0 0 418.4 421.1" version="1.1" viewBox="0 0 397.25 400" xml:space="preserve" xmlns="http://www.w3.org/2000/svg" xmlns:cc="http://creativecommons.org/ns#" xmlns:dc="http://purl.org/dc/elements/1.1/" xmlns:rdf="http://www.w3.org/1999/02/22-rdf-syntax-ns#"><metadata><rdf:RDF><cc:Work rdf:about=""><dc:format>image/svg+xml</dc:format><dc:type rdf:resource="http://purl.org/dc/dcmitype/StillImage"/><dc:title/></cc:Work></rdf:RDF></metadata><g transform="matrix(.94944 0 0 .94944 0 .094944)"><path d="m46.2 409c-20.3 0-36.9-16.5-36.9-36.9v-326c0-20.3 16.5-36.9 36.9-36.9h326c20.3 0 36.9 16.5 36.9 36.9v326c0 20.3-16.5 36.9-36.9 36.9z" fill="#585b59"/><path d="m385.6 416.4c-4.3 1.2-8.7 1.9-13.4 1.9-4.6 0-9.1-0.7-13.3-1.9l-0.5 1.6c-0.2 0.6 0.2 1.3 0.8 1.4 4.2 1.1 8.5 1.8 13.1 1.8 4.5 0 8.9-0.6 13.1-1.8 0.6-0.2 1-0.8 0.8-1.4z" fill="#988072"/><path d="m32.9 416.4c4.3 1.2 8.7 1.9 13.4 1.9 4.6 0 9.1-0.7 13.3-1.9l0.5 1.6c0.2 0.6-0.2 1.3-0.8 1.4-4.2 1.1-8.5 1.8-13.1 1.8-4.5 0-8.9-0.6-13.1-1.8-0.6-0.2-1-0.8-0.8-1.4z" fill="#988072"/><polygon points="350.3 331.2 342.7 336.2 336.3 342.7 331.2 350.2 327.8 358.6 326 367.6 326 376.7 327.8 385.6 331.2 394 336.3 401.6 342.7 408 350.3 413.1 358.7 416.6 367.7 418.4 376.8 418.4 385.7 416.6 394.1 413.1 401.7 408 408.1 401.6 413.2 394 416.7 385.6 418.4 376.7 418.4 367.6 416.7 358.6 413.2 350.2 408.1 342.7 401.7 336.2 394.1 331.2 385.7 327.7 376.8 325.9 367.7 325.9 358.7 327.7" fill="#585b59"/><polygon points="24.3 331.2 16.8 336.2 10.3 342.7 5.3 350.2 1.8 358.6 0 367.6 0 376.7 1.8 385.6 5.3 394 10.3 401.6 16.8 408 24.3 413.1 32.7 416.6 41.7 418.4 50.8 418.4 59.7 416.6 68.1 413.1 75.7 408 82.1 401.6 87.2 394 90.7 385.6 92.5 376.7 92.5 367.6 90.7 358.6 87.2 350.2 82.1 342.7 75.7 336.2 68.1 331.2 59.7 327.7 50.8 325.9 41.7 325.9 32.7 327.7" fill="#585b59"/><polygon points="350.3 5.2 342.7 10.2 336.3 16.7 331.2 24.2 327.8 32.7 326 41.6 326 50.7 327.8 59.6 331.2 68 336.3 75.6 342.7 82.1 350.3 87.1 358.7 90.6 367.7 92.4 376.8 92.4 385.7 90.6 394.1 87.1 401.7 82.1 408.1 75.6 413.2 68 416.7 59.6 418.4 50.7 418.4 41.6 416.7 32.7 413.2 24.2 408.1 16.7 401.7 10.2 394.1 5.2 385.7 1.7 376.8 -0.1 367.7 -0.1 358.7 1.7" fill="#585b59"/><polygon points="24.3 5.2 16.8 10.2 10.3 16.7 5.3 24.2 1.8 32.7 0 41.6 0 50.7 1.8 59.6 5.3 68 10.3 75.6 16.8 82.1 24.3 87.1 32.7 90.6 41.7 92.4 50.8 92.4 59.7 90.6 68.1 87.1 75.7 82.1 82.1 75.6 87.2 68 90.7 59.6 92.5 50.7 92.5 41.6 90.7 32.7 87.2 24.2 82.1 16.7 75.7 10.2 68.1 5.2 59.7 1.7 50.8 -0.1 41.7 -0.1 32.7 1.7" fill="#585b59"/><path d="m372.2 386.3h-326c-7.8 0-14.2-6.4-14.2-14.2v-326c0-7.8 6.4-14.2 14.2-14.2h326c7.8 0 14.2 6.4 14.2 14.2v326c0 7.8-6.4 14.2-14.2 14.2z" fill="#505254"/><g fill="#a0a3a4"><path d="m166.7 232.4h-10.8l10.7 6.4h4.3l-7.3-4.2h3.8c1.9 0 3.5-1.9 3.5-4.3s-1.5-4.3-3.5-4.3h-16v12.8h2.4v-10.6h12.8c1 0 1.8 0.9 1.8 2.1 0.1 1.1-0.7 2.1-1.7 2.1z"/><rect x="186.2" y="231.1" width="12.6" height="2.4"/><polygon points="184.4 236.6 202.1 236.6 202.1 238.8 182.2 238.8 182.2 226 202.1 226 202.1 228.4 184.4 228.4"/><rect x="174.9" y="230.1" width="4.1" height="4.1"/><rect x="206.2" y="230.1" width="4.1" height="4.1"/><rect x="238.3" y="230.1" width="4.1" height="4.1"/><polygon points="267 238.8 247.1 238.8 247.1 226 249.5 226 249.5 236.6 267 236.6"/><path d="m231.3 235.5 3.6 3.3h3.8l-14.1-12.7c-0.2-0.2-0.5-0.2-0.7 0l-13.2 12.7h3.2l10.4-9.7 4.2 4.2h-6.3l-2.2 2.2z"/></g><rect x="151.5" y="240.8" width="115.5" height="1.2" fill="#a0a3a4"/><g fill="#a0a3a4"><path d="m153.5 245.8c0 0.2 0.1 0.3 0.2 0.4s0.3 0.1 0.5 0.1c0.4 0 0.6-0.2 0.6-0.4 0-0.4-0.9-0.4-1.2-0.4v-0.5c0.3 0 1.2 0 1.2-0.3 0-0.2-0.3-0.3-0.6-0.3s-0.6 0.1-0.6 0.4h-1.3c0-0.8 0.9-1.1 1.9-1.1 1.1 0 1.8 0.4 1.8 0.9 0 0.3-0.2 0.5-0.6 0.7 0.4 0.1 0.7 0.4 0.7 0.7 0 0.8-0.8 1.2-2.1 1.2-1.1 0-1.9-0.4-1.9-1.2h1.4z"/><path d="m157.1 247v-3.2h2c1.4 0 2.3 0.5 2.3 1.5 0 1.2-0.9 1.6-2.4 1.6h-1.9zm1.5-0.7h0.3c0.7 0 1.1-0.3 1.1-0.9 0-0.7-0.3-0.8-1.1-0.8h-0.3z"/><path d="m166.4 245.4c0 1.1-1 1.7-2.4 1.7s-2.3-0.6-2.3-1.7c0-1 1-1.6 2.3-1.6 1.6-0.1 2.4 0.8 2.4 1.6zm-3.3 0c0 0.4 0.2 0.9 0.9 0.9 0.6 0 0.9-0.4 0.9-0.9 0-0.4-0.2-0.9-0.9-0.9s-0.9 0.5-0.9 0.9z"/><path d="m171 247v-3.2h1.4v3.2z"/><path d="m176 245.6-0.1-0.7v-1h1.3v3.2h-1.2l-1.5-1.7 0.1 0.7v1h-1.3v-3.2h1.3z"/><path d="m177.7 243.8h3.9v0.8h-1.2v2.3h-1.4v-2.3h-1.2v-0.8z"/><path d="m182 247v-3.2h3.7v0.7h-2.2v0.5h1.9v0.7h-1.9v0.5h2.3v0.7h-3.8z"/><path d="m187.9 245.9v1.1h-1.5v-3.2h2.1c1.5 0 2 0.3 2 0.9 0 0.4-0.2 0.7-0.8 0.8 0.5 0.1 0.8 0.2 0.8 0.8 0 0.4 0 0.6 0.2 0.6v0.1h-1.5c0-0.1-0.1-0.3-0.1-0.6 0-0.4-0.1-0.5-0.8-0.5zm0-0.7h0.6c0.5 0 0.7-0.1 0.7-0.3s-0.2-0.3-0.6-0.3h-0.7z"/><path d="m191.1 247 1.5-3.2h1.4l1.5 3.2h-1.4l-0.2-0.4h-1.4l-0.2 0.4zm2.2-2.2-0.4 1.1h0.9z"/><path d="m198.7 245c0-0.3-0.3-0.5-0.8-0.5s-0.8 0.3-0.8 0.9c0 0.4 0.1 0.9 0.8 0.9 0.4 0 0.7-0.2 0.7-0.5h1.3c-0.1 0.8-0.9 1.3-2 1.3-1.4 0-2.2-0.6-2.2-1.7 0-1 0.9-1.7 2.1-1.7 1.3 0 2 0.5 2.1 1.3z"/><path d="m200.3 243.8h3.9v0.8h-1.2v2.3h-1.4v-2.3h-1.2v-0.8z"/><path d="m204.6 247v-3.2h1.4v3.2z"/><path d="m206.4 243.8h1.4l0.7 2.1 0.8-2.1h1.4l-1.5 3.2h-1.4z"/><path d="m211.3 247v-3.2h3.6v0.7h-2.2v0.5h1.8v0.7h-1.8v0.5h2.2v0.7h-3.6z"/><path d="m219.5 247v-3.2h1.9l0.9 2 0.9-2h1.9v3.2h-1.4v-1.5l0.1-0.6-0.9 2h-1.1l-0.9-2 0.1 0.5v1.6z"/><path d="m226.1 243.8h1.4v1.9c0 0.3 0.1 0.6 0.7 0.6 0.5 0 0.7-0.2 0.7-0.6v-1.9h1.4v1.8c0 1-0.6 1.5-2.1 1.5-1.3 0-2.1-0.4-2.1-1.5z"/><path d="m231.1 247v-3.2h1.4v2.4h1.9v0.7h-3.3z"/><path d="m234.1 243.8h4v0.8h-1.3v2.3h-1.4v-2.3h-1.3z"/><path d="m238.4 247v-3.2h1.4v3.2z"/><path d="m240.8 247v-3.2h2.1c1.2 0 1.8 0.4 1.8 1.1s-0.6 1.1-1.8 1.1h-0.7v1zm2-1.7c0.3 0 0.6-0.1 0.6-0.4s-0.5-0.3-0.8-0.3h-0.4v0.7z"/><path d="m245.2 246.9v-3.2h1.4v2.4h1.9v0.7h-3.3z"/><path d="m248.8 246.9 1.5-3.2h1.4l1.5 3.2h-1.4l-0.2-0.4h-1.4l-0.2 0.4zm2.2-2.2-0.4 1.1h0.9z"/><path d="m255.9 247h-1.4v-1.2l-1.6-2h1.6l0.7 1.1 0.7-1.1h1.6l-1.6 2z"/><path d="m257.7 247v-3.2h3.5v0.7h-2.1v0.5h1.8v0.7h-1.8v0.5h2.2v0.7h-3.6z"/><path d="m263.5 245.9v1.1h-1.5v-3.2h2.1c1.5 0 2 0.3 2 0.9 0 0.4-0.2 0.7-0.7 0.8 0.5 0.1 0.8 0.2 0.8 0.8 0 0.4 0 0.6 0.2 0.6v0.1h-1.5c0-0.1-0.1-0.3-0.1-0.6 0-0.4-0.1-0.5-0.8-0.5zm0-0.7h0.6c0.5 0 0.7-0.1 0.7-0.3s-0.2-0.3-0.6-0.3h-0.7z"/></g><g clip-rule="evenodd" fill="#3f4040" fill-rule="evenodd"><path d="m150.9 190c0-5.5-0.7-9.9-11.6-9.9-9.1 0-12.2 3.3-12.1 8.7h8.2c0.2-2 2.1-2.9 3.4-2.9 1 0 3 0.2 3 1.9 0 5-15.8 0.4-15.8 11.1 0 4.8 5 6.7 7.6 6.7 3.4-0.1 6.1-0.7 8.7-3.1l1 2.5h8.1c-0.4-0.9-0.5-15-0.5-15zm-13.3 10.3c-1.8 0-2.6-1.2-2.6-2.4 0-2 4.1-1.9 7.1-3.3 0.2 3.2-1.3 5.7-4.5 5.7z"/><path d="m312.6 195.3c-0.3 1.8-1.2 4-3.6 4-2.9 0-4.5-2.8-4.5-6.3 0-2.7 1-6.4 4.5-6.4 1 0 1.8 0.3 2.4 0.9s0.9 1.4 1 2.4h8.8c-0.7-6.8-6-9.5-12.2-9.5-7.6 0-13.3 4.5-13.3 12.4 0 7.8 5.8 12.6 13.3 12.6 6.4 0 11.5-3.2 12.3-10.2h-8.7z"/><polygon points="286 181.3 286 205 294.8 205 294.8 181.3"/><polygon points="286 171.6 286 177.6 294.8 177.6 294.8 171.6"/><path d="m244.4 180.2c-7.8 0-13.2 4.7-13.2 12.7 0 7.9 5.8 12.6 13.2 12.6s13.2-4.6 13.2-13c0.1-7.2-5.1-12.3-13.2-12.3zm0 19.1c-2.3 0-4.1-2.5-4.1-6.9 0-2.6 1.1-5.8 4.2-5.8 2.4-0.1 4.1 2.6 4.1 6 0 4.4-1.7 6.7-4.2 6.7z"/><path d="m215.2 187c0-1.1 1.3-1.7 2.9-1.7 0.7 0 1.7 0.2 2.2 0.6 0.2 0.2 0.8 0.9 0.9 1.7h8.3c-0.2-6.2-6.3-7.4-11.7-7.4-4.8 0-11 1.9-11 7.8 0 9.7 14.8 6.1 14.8 9.8 0 1.6-1.2 2.2-3.4 2.2-0.9 0-1.8-0.6-2.4-1-0.6-0.5-0.9-1.1-1-2.1h-8.2c0.2 6.5 6.1 8.9 11.3 8.9 9.8 0 12.6-4.3 12.7-9.1 0-9.3-15.4-6.4-15.4-9.7z"/><path d="m205.2 190c0-5.5-0.7-9.9-11.6-9.9-9.1 0-12.2 3.3-12.1 8.7h8.2c0.2-2 2.1-2.9 3.4-2.9 1 0 3 0.2 3 1.9 0 5-15.8 0.4-15.8 11.1 0 4.8 5 6.7 7.6 6.7 3.4-0.1 6.1-0.7 8.7-3.1l1 2.5h8.1c-0.5-0.9-0.5-15-0.5-15zm-13.4 10.3c-1.8 0-2.6-1.2-2.6-2.4 0-2 4.1-1.9 7.1-3.3 0.2 3.2-1.3 5.7-4.5 5.7z"/><path d="m112.8 170.8h-15.7v34.2h10.1v-10.6h5.9c9.1 0 13.6-4.9 13.6-11.7 0-6.6-4.8-11.9-13.9-11.9zm-0.5 16h-5.1v-7.7h3.7c2.2 0 5.5 0.6 5.5 3.5 0.1 2.8-1.7 4.2-4.1 4.2z"/><path d="m275.5 180.2c-3.5 0-4.9 0.6-8.2 3.5v-2.6h-8.4v23.9h8.4v-12.5c0-3 1.5-4.8 4.3-4.8 2.6 0 3.2 1.4 3.2 3.7v13.6h9.2v-14.6c0-6.4-2.5-10.2-8.5-10.2z"/><path d="m170.2 180.2c-3.5 0-4.9 0.6-8.2 3.5v-2.6h-8.4v23.9h8.8v-12.5c0-3 1.2-5.1 4-5.1 2.6 0 3.1 1.7 3.1 4v13.6h9.2v-14.6c0.1-6.4-2.4-10.2-8.5-10.2z"/></g></g></svg>
