<?xml version="1.0" encoding="UTF-8"?>
<svg version="1.1" viewBox="0 0 400 282.36" xmlns="http://www.w3.org/2000/svg" xmlns:cc="http://creativecommons.org/ns#" xmlns:dc="http://purl.org/dc/elements/1.1/" xmlns:rdf="http://www.w3.org/1999/02/22-rdf-syntax-ns#">
<metadata>
<rdf:RDF>
<cc:Work rdf:about="">
<dc:format>image/svg+xml</dc:format>
<dc:type rdf:resource="http://purl.org/dc/dcmitype/StillImage"/>
<dc:title/>
</cc:Work>
</rdf:RDF>
</metadata>
<path d="m9.2653 136.73h-7.4871c-1.591 0-1.7782-0.18717-1.7782-2.7141v-131.49c0-1.9654 0.28077-2.5269 2.5269-2.5269h389.71c4.5858 0 4.773 0.37436 4.773 4.773v27.141c0 0.56152 0 0.65512-0.65512 0.65512h-2.8077c-0.65512 0-0.74869 0.1872-0.74869 0.65512v91.249h6.2704c0.84232 0 0.93591 0.28076 0.93591 0.56152v10.576c0 0.93591-0.0936 1.1231-1.4038 1.1231h-389.33z" fill="#cfd0cf" fill-rule="evenodd"/>
<path d="m5.4282 136.73v-70.847c0-2.059 0-3.4628 3.4628-3.4628h384" fill="none" stroke="#9b9a9a" stroke-miterlimit="10" stroke-width="1.8718"/>
<path d="m11.886 282.36c-5.3346 0-6.4577-4.2115-6.4577-8.0487v-208.33c0-2.059 0-3.4628 3.4628-3.4628h384.65c3.4628 0 3.4628 1.3102 3.4628 3.4628v208.33c0 3.8372-1.0295 8.0487-6.4577 8.0487h-378.66z" fill="#cfd0cf" fill-rule="evenodd"/>
<path d="m202.53 97.988h141.88c0.37436 0 0.56155 0.28079 0.56155 0.56155v21.9c0 0.37436-0.28078 0.56155-0.56155 0.56155h-141.88c-0.37435 0-0.56152-0.28079-0.56152-0.56155v-21.9c0-0.28076 0.1872-0.56155 0.56152-0.56155zm155.64 0h28.358c0.37436 0 0.56155 0.28079 0.56155 0.56155v21.9c0 0.37436-0.28078 0.56155-0.56155 0.56155h-28.358c-0.37436 0-0.56153-0.28079-0.56153-0.56155v-21.9c-0.0936-0.28076 0.1872-0.56155 0.56153-0.56155zm-306.88 0h141.51c0.37435 0 0.56153 0.28079 0.56153 0.56155v21.9c0 0.37436-0.28077 0.56155-0.56153 0.56155h-141.51c-0.37436 0-0.56154-0.28079-0.56154-0.56155v-21.9c0-0.28076 0.18718-0.56155 0.56154-0.56155zm-34.722 0h21.432c0.37436 0 0.56154 0.28079 0.56154 0.56155v21.9c0 0.37436-0.28077 0.56155-0.56154 0.56155h-21.432c-0.37436 0-0.56154-0.28079-0.56154-0.56155v-21.9c-0.09359-0.28076 0.18718-0.56155 0.56154-0.56155zm371.08 126.63v22.742c0 0.37436-0.28077 0.56155-0.56153 0.56155h-353.11c-0.37436 0-0.56154-0.28079-0.56154-0.56155v-19.747s0.74872-2.6205-1.9654-2.6205h-15.255c-0.37436 0-0.56153-0.28077-0.56153-0.56153v-90.126c0-0.37436 0.28077-0.56153 0.56153-0.56153h370.33c0.37436 0 0.56155 0.28076 0.56155 0.56153v21.9s-0.65512 1.4038-2.4333 1.4038h-17.782c-1.4038 0-1.7782 0.65512-1.7782 1.4038v64.202c0 0.37436 0.0936 0.56155 0.56155 0.56155h20.683c1.1231-0.0936 1.3103 0.37436 1.3103 0.84229z" fill="#0c0c0d" fill-rule="evenodd"/>
<path d="m7.2064 8.0487h382.69c0.1872 0 0.28078 0.0936 0.28078 0.28076v3.0884c0 0.1872-0.0936 0.28078-0.28078 0.28078h-382.69c-0.18718 0-0.28077-0.0936-0.28077-0.28078v-3.0884c0-0.0936 0.093591-0.28076 0.28077-0.28076zm0 7.0192h382.69c0.1872 0 0.28078 0.0936 0.28078 0.28077v3.0884c0 0.1872-0.0936 0.28076-0.28078 0.28076h-382.69c-0.18718 0-0.28077-0.0936-0.28077-0.28076v-3.0884c0-0.1872 0.093591-0.28077 0.28077-0.28077zm0 7.0192h382.69c0.1872 0 0.28078 0.0936 0.28078 0.28076v3.0884c0 0.1872-0.0936 0.28076-0.28078 0.28076h-382.69c-0.18718 0-0.28077-0.0936-0.28077-0.28076v-3.0884c0-0.1872 0.093591-0.28076 0.28077-0.28076zm0 7.0192h382.69c0.1872 0 0.28078 0.0936 0.28078 0.28077v3.0884c0 0.1872-0.0936 0.28079-0.28078 0.28079h-382.69c-0.18718 0-0.28077-0.0936-0.28077-0.28079v-3.0884c0-0.18721 0.093591-0.28077 0.28077-0.28077zm0 7.0192h382.69c0.1872 0 0.28078 0.0936 0.28078 0.28077v3.0884c0 0.18721-0.0936 0.28076-0.28078 0.28076h-382.69c-0.18718 0-0.28077-0.0936-0.28077-0.28076v-3.0884c0-0.1872 0.093591-0.28077 0.28077-0.28077zm0 7.0192h382.69c0.1872 0 0.28078 0.0936 0.28078 0.28079v3.0884c0 0.1872-0.0936 0.28076-0.28078 0.28076h-382.69c-0.18718 0-0.28077-0.0936-0.28077-0.28076v-3.0884c0-0.1872 0.093591-0.28079 0.28077-0.28079zm0 7.0192h382.69c0.1872 0 0.28078 0.0936 0.28078 0.28075v3.0884c0 0.18721-0.0936 0.28079-0.28078 0.28079h-382.69c-0.18718 0-0.28077-0.0936-0.28077-0.28079v-3.0884c0-0.1872 0.093591-0.28075 0.28077-0.28075z" fill="#777878" fill-rule="evenodd"/>
<g transform="scale(.93589)" fill-rule="evenodd">
<path d="m243.8 192.2h19.4c0.8 0 1.4 0.6 1.4 1.4v19.8c0 0.8-0.6 1.4-1.4 1.4h-19.4c-0.8 0-1.4-0.6-1.4-1.4v-19.8c-0.1-0.7 0.6-1.4 1.4-1.4z" fill="#9b9a9a"/>
<path d="m246.7 194.4h13.5c0.8 0 1.4 0.6 1.4 1.4v13.5c0 0.8-0.6 1.4-1.4 1.4h-13.5c-0.8 0-1.4-0.6-1.4-1.4v-13.5c0-0.7 0.7-1.4 1.4-1.4z" fill="#cfd0cf"/>
<path d="m267.7 192.2h19.4c0.8 0 1.4 0.6 1.4 1.4v19.8c0 0.8-0.6 1.4-1.4 1.4h-19.4c-0.8 0-1.4-0.6-1.4-1.4v-19.8c0-0.7 0.6-1.4 1.4-1.4z" fill="#9b9a9a"/>
<path d="m270.7 194.4h13.5c0.8 0 1.4 0.6 1.4 1.4v13.5c0 0.8-0.6 1.4-1.4 1.4h-13.5c-0.8 0-1.4-0.6-1.4-1.4v-13.5c-0.1-0.7 0.6-1.4 1.4-1.4z" fill="#cfd0cf"/>
<path d="m291.6 192.2h19.4c0.8 0 1.4 0.6 1.4 1.4v19.8c0 0.8-0.6 1.4-1.4 1.4h-19.4c-0.8 0-1.4-0.6-1.4-1.4v-19.8c0-0.7 0.6-1.4 1.4-1.4z" fill="#9b9a9a"/>
<path d="m294.6 194.4h13.5c0.8 0 1.4 0.6 1.4 1.4v13.5c0 0.8-0.6 1.4-1.4 1.4h-13.5c-0.8 0-1.4-0.6-1.4-1.4v-13.5c-0.1-0.7 0.6-1.4 1.4-1.4z" fill="#cfd0cf"/>
<path d="m315.5 192.2h19.4c0.8 0 1.4 0.6 1.4 1.4v19.8c0 0.8-0.6 1.4-1.4 1.4h-19.4c-0.8 0-1.4-0.6-1.4-1.4v-19.8c0-0.7 0.6-1.4 1.4-1.4z" fill="#9b9a9a"/>
<path d="m318.5 194.4h13.5c0.8 0 1.4 0.6 1.4 1.4v13.5c0 0.8-0.6 1.4-1.4 1.4h-13.5c-0.8 0-1.4-0.6-1.4-1.4v-13.5c-0.1-0.7 0.6-1.4 1.4-1.4z" fill="#cfd0cf"/>
<path d="m339.4 192.2h19.4c0.8 0 1.4 0.6 1.4 1.4v19.8c0 0.8-0.6 1.4-1.4 1.4h-19.4c-0.8 0-1.4-0.6-1.4-1.4v-19.8c0-0.7 0.6-1.4 1.4-1.4z" fill="#9b9a9a"/>
<path d="m342.4 194.4h13.5c0.8 0 1.4 0.6 1.4 1.4v13.5c0 0.8-0.6 1.4-1.4 1.4h-13.5c-0.8 0-1.4-0.6-1.4-1.4v-13.5c0-0.7 0.6-1.4 1.4-1.4z" fill="#cfd0cf"/>
<path d="m219.9 192.2h19.4c0.8 0 1.4 0.6 1.4 1.4v19.8c0 0.8-0.6 1.4-1.4 1.4h-19.4c-0.8 0-1.4-0.6-1.4-1.4v-19.8c-0.1-0.7 0.6-1.4 1.4-1.4z" fill="#9b9a9a"/>
<path d="m222.8 194.4h13.5c0.8 0 1.4 0.6 1.4 1.4v13.5c0 0.8-0.6 1.4-1.4 1.4h-13.5c-0.8 0-1.4-0.6-1.4-1.4v-13.5c0-0.7 0.6-1.4 1.4-1.4z" fill="#cfd0cf"/>
<path d="m196 192.2h19.4c0.8 0 1.4 0.6 1.4 1.4v19.8c0 0.8-0.6 1.4-1.4 1.4h-19.4c-0.8 0-1.4-0.6-1.4-1.4v-19.8c-0.1-0.7 0.6-1.4 1.4-1.4z" fill="#9b9a9a"/>
<path d="m198.9 194.4h13.5c0.8 0 1.4 0.6 1.4 1.4v13.5c0 0.8-0.6 1.4-1.4 1.4h-13.5c-0.8 0-1.4-0.6-1.4-1.4v-13.5c0-0.7 0.6-1.4 1.4-1.4z" fill="#cfd0cf"/>
<path d="m172.1 192.2h19.4c0.8 0 1.4 0.6 1.4 1.4v19.8c0 0.8-0.6 1.4-1.4 1.4h-19.4c-0.8 0-1.4-0.6-1.4-1.4v-19.8c-0.1-0.7 0.6-1.4 1.4-1.4z" fill="#9b9a9a"/>
<path d="m175 194.4h13.5c0.8 0 1.4 0.6 1.4 1.4v13.5c0 0.8-0.6 1.4-1.4 1.4h-13.5c-0.8 0-1.4-0.6-1.4-1.4v-13.5c0-0.7 0.6-1.4 1.4-1.4z" fill="#cfd0cf"/>
<path d="m148.1 192.2h19.4c0.8 0 1.4 0.6 1.4 1.4v19.8c0 0.8-0.6 1.4-1.4 1.4h-19.4c-0.8 0-1.4-0.6-1.4-1.4v-19.8c0-0.7 0.7-1.4 1.4-1.4z" fill="#9b9a9a"/>
<path d="m151.1 194.4h13.5c0.8 0 1.4 0.6 1.4 1.4v13.5c0 0.8-0.6 1.4-1.4 1.4h-13.5c-0.8 0-1.4-0.6-1.4-1.4v-13.5c0-0.7 0.6-1.4 1.4-1.4z" fill="#cfd0cf"/>
<path d="m124.2 192.2h19.4c0.8 0 1.4 0.6 1.4 1.4v19.8c0 0.8-0.6 1.4-1.4 1.4h-19.4c-0.8 0-1.4-0.6-1.4-1.4v-19.8c0-0.7 0.6-1.4 1.4-1.4z" fill="#9b9a9a"/>
<path d="m127.2 194.4h13.5c0.8 0 1.4 0.6 1.4 1.4v13.5c0 0.8-0.6 1.4-1.4 1.4h-13.5c-0.8 0-1.4-0.6-1.4-1.4v-13.5c0-0.7 0.6-1.4 1.4-1.4z" fill="#cfd0cf"/>
<path d="m100.3 192.2h19.4c0.8 0 1.4 0.6 1.4 1.4v19.8c0 0.8-0.6 1.4-1.4 1.4h-19.4c-0.8 0-1.4-0.6-1.4-1.4v-19.8c0-0.7 0.6-1.4 1.4-1.4z" fill="#9b9a9a"/>
<path d="m103.3 194.4h13.5c0.8 0 1.4 0.6 1.4 1.4v13.5c0 0.8-0.6 1.4-1.4 1.4h-13.5c-0.8 0-1.4-0.6-1.4-1.4v-13.5c0-0.7 0.6-1.4 1.4-1.4z" fill="#cfd0cf"/>
<path d="m76.4 192.2h19.4c0.8 0 1.4 0.6 1.4 1.4v19.8c0 0.8-0.6 1.4-1.4 1.4h-19.4c-0.8 0-1.4-0.6-1.4-1.4v-19.8c0-0.7 0.6-1.4 1.4-1.4z" fill="#9b9a9a"/>
<path d="m79.4 194.4h13.5c0.8 0 1.4 0.6 1.4 1.4v13.5c0 0.8-0.6 1.4-1.4 1.4h-13.5c-0.8 0-1.4-0.6-1.4-1.4v-13.5c-0.1-0.7 0.6-1.4 1.4-1.4z" fill="#cfd0cf"/>
<path d="m231.8 216.3h19.4c0.8 0 1.4 0.6 1.4 1.4v19.8c0 0.8-0.6 1.4-1.4 1.4h-19.4c-0.8 0-1.4-0.6-1.4-1.4v-19.8c0-0.8 0.7-1.4 1.4-1.4z" fill="#9b9a9a"/>
<path d="m234.8 218.5h13.5c0.8 0 1.4 0.6 1.4 1.4v13.5c0 0.8-0.6 1.4-1.4 1.4h-13.5c-0.8 0-1.4-0.6-1.4-1.4v-13.5c0-0.8 0.6-1.4 1.4-1.4z" fill="#cfd0cf"/>
<path d="m255.8 216.3h19.4c0.8 0 1.4 0.6 1.4 1.4v19.8c0 0.8-0.6 1.4-1.4 1.4h-19.4c-0.8 0-1.4-0.6-1.4-1.4v-19.8c-0.1-0.8 0.6-1.4 1.4-1.4z" fill="#9b9a9a"/>
<path d="m258.7 218.5h13.5c0.8 0 1.4 0.6 1.4 1.4v13.5c0 0.8-0.6 1.4-1.4 1.4h-13.5c-0.8 0-1.4-0.6-1.4-1.4v-13.5c0-0.8 0.6-1.4 1.4-1.4z" fill="#cfd0cf"/>
<path d="m279.7 216.3h19.4c0.8 0 1.4 0.6 1.4 1.4v19.8c0 0.8-0.6 1.4-1.4 1.4h-19.4c-0.8 0-1.4-0.6-1.4-1.4v-19.8c-0.1-0.8 0.6-1.4 1.4-1.4z" fill="#9b9a9a"/>
<path d="m282.6 218.5h13.5c0.8 0 1.4 0.6 1.4 1.4v13.5c0 0.8-0.6 1.4-1.4 1.4h-13.5c-0.8 0-1.4-0.6-1.4-1.4v-13.5c0-0.8 0.6-1.4 1.4-1.4z" fill="#cfd0cf"/>
<path d="m303.6 216.3h19.4c0.8 0 1.4 0.6 1.4 1.4v19.8c0 0.8-0.6 1.4-1.4 1.4h-19.4c-0.8 0-1.4-0.6-1.4-1.4v-19.8c-0.1-0.8 0.6-1.4 1.4-1.4z" fill="#9b9a9a"/>
<path d="m306.5 218.5h13.5c0.8 0 1.4 0.6 1.4 1.4v13.5c0 0.8-0.6 1.4-1.4 1.4h-13.5c-0.8 0-1.4-0.6-1.4-1.4v-13.5c0-0.8 0.6-1.4 1.4-1.4z" fill="#cfd0cf"/>
<path d="m320.3 240.3h19.4c0.8 0 1.4 0.6 1.4 1.4v19.8c0 0.8-0.6 1.4-1.4 1.4h-19.4c-0.8 0-1.4-0.6-1.4-1.4v-19.8c-0.1-0.7 0.6-1.4 1.4-1.4z" fill="#9b9a9a"/>
<path d="m323.2 242.5h13.5c0.8 0 1.4 0.6 1.4 1.4v13.5c0 0.8-0.6 1.4-1.4 1.4h-13.5c-0.8 0-1.4-0.6-1.4-1.4v-13.4c0-0.8 0.6-1.5 1.4-1.5z" fill="#cfd0cf"/>
<path d="m344.2 240.3h19.4c0.8 0 1.4 0.6 1.4 1.4v19.8c0 0.8-0.6 1.4-1.4 1.4h-19.4c-0.8 0-1.4-0.6-1.4-1.4v-19.8c-0.1-0.7 0.6-1.4 1.4-1.4z" fill="#9b9a9a"/>
<path d="m347.1 242.5h13.5c0.8 0 1.4 0.6 1.4 1.4v13.5c0 0.8-0.6 1.4-1.4 1.4h-13.5c-0.8 0-1.4-0.6-1.4-1.4v-13.4c0-0.8 0.7-1.5 1.4-1.5z" fill="#cfd0cf"/>
<path d="m368.1 240.3h19.4c0.8 0 1.4 0.6 1.4 1.4v19.8c0 0.8-0.6 1.4-1.4 1.4h-19.4c-0.8 0-1.4-0.6-1.4-1.4v-19.8c0-0.7 0.6-1.4 1.4-1.4z" fill="#9b9a9a"/>
<path d="m371.1 242.5h13.5c0.8 0 1.4 0.6 1.4 1.4v13.5c0 0.8-0.6 1.4-1.4 1.4h-13.5c-0.8 0-1.4-0.6-1.4-1.4v-13.4c-0.1-0.8 0.6-1.5 1.4-1.5z" fill="#cfd0cf"/>
<path d="m392 240.3h19.4c0.8 0 1.4 0.6 1.4 1.4v19.8c0 0.8-0.6 1.4-1.4 1.4h-19.4c-0.8 0-1.4-0.6-1.4-1.4v-19.8c0-0.7 0.6-1.4 1.4-1.4z" fill="#9b9a9a"/>
<path d="m395 242.5h13.5c0.8 0 1.4 0.6 1.4 1.4v13.5c0 0.8-0.6 1.4-1.4 1.4h-13.5c-0.8 0-1.4-0.6-1.4-1.4v-13.4c-0.1-0.8 0.6-1.5 1.4-1.5z" fill="#cfd0cf"/>
<path d="m368 216.3h19.4c0.8 0 1.4 0.6 1.4 1.4v19.8c0 0.8-0.6 1.4-1.4 1.4h-19.4c-0.8 0-1.4-0.6-1.4-1.4v-19.8c-0.1-0.8 0.6-1.4 1.4-1.4z" fill="#9b9a9a"/>
<path d="m370.9 218.5h13.5c0.8 0 1.4 0.6 1.4 1.4v13.5c0 0.8-0.6 1.4-1.4 1.4h-13.5c-0.8 0-1.4-0.6-1.4-1.4v-13.5c0-0.8 0.7-1.4 1.4-1.4z" fill="#cfd0cf"/>
<path d="m207.9 216.3h19.4c0.8 0 1.4 0.6 1.4 1.4v19.8c0 0.8-0.6 1.4-1.4 1.4h-19.4c-0.8 0-1.4-0.6-1.4-1.4v-19.8c0-0.8 0.6-1.4 1.4-1.4z" fill="#9b9a9a"/>
<path d="m210.9 218.5h13.5c0.8 0 1.4 0.6 1.4 1.4v13.5c0 0.8-0.6 1.4-1.4 1.4h-13.5c-0.8 0-1.4-0.6-1.4-1.4v-13.5c0-0.8 0.6-1.4 1.4-1.4z" fill="#cfd0cf"/>
<path d="m184 216.3h19.4c0.8 0 1.4 0.6 1.4 1.4v19.8c0 0.8-0.6 1.4-1.4 1.4h-19.4c-0.8 0-1.4-0.6-1.4-1.4v-19.8c0-0.8 0.6-1.4 1.4-1.4z" fill="#9b9a9a"/>
<path d="m187 218.5h13.5c0.8 0 1.4 0.6 1.4 1.4v13.5c0 0.8-0.6 1.4-1.4 1.4h-13.5c-0.8 0-1.4-0.6-1.4-1.4v-13.5c0-0.8 0.6-1.4 1.4-1.4z" fill="#cfd0cf"/>
<path d="m160.1 216.3h19.4c0.8 0 1.4 0.6 1.4 1.4v19.8c0 0.8-0.6 1.4-1.4 1.4h-19.4c-0.8 0-1.4-0.6-1.4-1.4v-19.8c0-0.8 0.6-1.4 1.4-1.4z" fill="#9b9a9a"/>
<path d="m163.1 218.5h13.5c0.8 0 1.4 0.6 1.4 1.4v13.5c0 0.8-0.6 1.4-1.4 1.4h-13.5c-0.8 0-1.4-0.6-1.4-1.4v-13.5c-0.1-0.8 0.6-1.4 1.4-1.4z" fill="#cfd0cf"/>
<path d="m136.2 216.3h19.4c0.8 0 1.4 0.6 1.4 1.4v19.8c0 0.8-0.6 1.4-1.4 1.4h-19.4c-0.8 0-1.4-0.6-1.4-1.4v-19.8c0-0.8 0.6-1.4 1.4-1.4z" fill="#9b9a9a"/>
<path d="m139.2 218.5h13.5c0.8 0 1.4 0.6 1.4 1.4v13.5c0 0.8-0.6 1.4-1.4 1.4h-13.5c-0.8 0-1.4-0.6-1.4-1.4v-13.5c-0.1-0.8 0.6-1.4 1.4-1.4z" fill="#cfd0cf"/>
<path d="m112.3 216.3h19.4c0.8 0 1.4 0.6 1.4 1.4v19.8c0 0.8-0.6 1.4-1.4 1.4h-19.4c-0.8 0-1.4-0.6-1.4-1.4v-19.8c0-0.8 0.6-1.4 1.4-1.4z" fill="#9b9a9a"/>
<path d="m115.3 218.5h13.5c0.8 0 1.4 0.6 1.4 1.4v13.5c0 0.8-0.6 1.4-1.4 1.4h-13.5c-0.8 0-1.4-0.6-1.4-1.4v-13.5c-0.1-0.8 0.6-1.4 1.4-1.4z" fill="#cfd0cf"/>
<path d="m88.4 216.3h19.4c0.8 0 1.4 0.6 1.4 1.4v19.8c0 0.8-0.6 1.4-1.4 1.4h-19.4c-0.8 0-1.4-0.6-1.4-1.4v-19.8c0-0.8 0.6-1.4 1.4-1.4z" fill="#9b9a9a"/>
<path d="m91.4 218.5h13.5c0.8 0 1.4 0.6 1.4 1.4v13.5c0 0.8-0.6 1.4-1.4 1.4h-13.5c-0.8 0-1.4-0.6-1.4-1.4v-13.5c-0.1-0.8 0.6-1.4 1.4-1.4z" fill="#cfd0cf"/>
<path d="m64.5 216.3h19.4c0.8 0 1.4 0.6 1.4 1.4v19.8c0 0.8-0.6 1.4-1.4 1.4h-19.4c-0.8 0-1.4-0.6-1.4-1.4v-19.8c-0.1-0.8 0.6-1.4 1.4-1.4z" fill="#9b9a9a"/>
<path d="m67.4 218.5h13.6c0.8 0 1.4 0.6 1.4 1.4v13.5c0 0.8-0.6 1.4-1.4 1.4h-13.6c-0.8 0-1.4-0.6-1.4-1.4v-13.5c0-0.8 0.6-1.4 1.4-1.4z" fill="#cfd0cf"/>
<path d="m100.3 240.3h185.5c0.8 0 1.4 0.6 1.4 1.4v19.8c0 0.8-0.6 1.4-1.4 1.4h-185.5c-0.8 0-1.4-0.6-1.4-1.4v-19.8c0-0.7 0.6-1.4 1.4-1.4z" fill="#9b9a9a"/>
<path d="m103.3 242.5h179.6c0.8 0 1.4 0.6 1.4 1.4v13.5c0 0.8-0.6 1.4-1.4 1.4h-179.6c-0.8 0-1.4-0.6-1.4-1.4v-13.4c0-0.8 0.6-1.5 1.4-1.5z" fill="#cfd0cf"/>
<path d="m237 168.2h19.4c0.8 0 1.4 0.6 1.4 1.4v19.8c0 0.8-0.6 1.4-1.4 1.4h-19.4c-0.8 0-1.4-0.6-1.4-1.4v-19.8c0-0.8 0.6-1.4 1.4-1.4z" fill="#9b9a9a"/>
<path d="m240 170.4h13.5c0.8 0 1.4 0.6 1.4 1.4v13.5c0 0.8-0.6 1.4-1.4 1.4h-13.5c-0.8 0-1.4-0.6-1.4-1.4v-13.5c0-0.8 0.6-1.4 1.4-1.4z" fill="#cfd0cf"/>
<path d="m260.9 168.2h19.4c0.8 0 1.4 0.6 1.4 1.4v19.8c0 0.8-0.6 1.4-1.4 1.4h-19.4c-0.8 0-1.4-0.6-1.4-1.4v-19.8c0-0.8 0.6-1.4 1.4-1.4z" fill="#9b9a9a"/>
<path d="m263.9 170.4h13.5c0.8 0 1.4 0.6 1.4 1.4v13.5c0 0.8-0.6 1.4-1.4 1.4h-13.5c-0.8 0-1.4-0.6-1.4-1.4v-13.5c0-0.8 0.6-1.4 1.4-1.4z" fill="#cfd0cf"/>
<path d="m284.9 168.2h19.4c0.8 0 1.4 0.6 1.4 1.4v19.8c0 0.8-0.6 1.4-1.4 1.4h-19.4c-0.8 0-1.4-0.6-1.4-1.4v-19.8c-0.1-0.8 0.6-1.4 1.4-1.4z" fill="#9b9a9a"/>
<path d="m287.8 170.4h13.5c0.8 0 1.4 0.6 1.4 1.4v13.5c0 0.8-0.6 1.4-1.4 1.4h-13.5c-0.8 0-1.4-0.6-1.4-1.4v-13.5c0-0.8 0.6-1.4 1.4-1.4z" fill="#cfd0cf"/>
<path d="m308.8 168.2h19.4c0.8 0 1.4 0.6 1.4 1.4v19.8c0 0.8-0.6 1.4-1.4 1.4h-19.4c-0.8 0-1.4-0.6-1.4-1.4v-19.8c-0.1-0.8 0.6-1.4 1.4-1.4z" fill="#9b9a9a"/>
<path d="m311.7 170.4h13.5c0.8 0 1.4 0.6 1.4 1.4v13.5c0 0.8-0.6 1.4-1.4 1.4h-13.5c-0.8 0-1.4-0.6-1.4-1.4v-13.5c0-0.8 0.6-1.4 1.4-1.4z" fill="#cfd0cf"/>
<path d="m332.7 168.2h19.4c0.8 0 1.4 0.6 1.4 1.4v19.8c0 0.8-0.6 1.4-1.4 1.4h-19.4c-0.8 0-1.4-0.6-1.4-1.4v-19.8c-0.1-0.8 0.6-1.4 1.4-1.4z" fill="#9b9a9a"/>
<path d="m335.6 170.4h13.5c0.8 0 1.4 0.6 1.4 1.4v13.5c0 0.8-0.6 1.4-1.4 1.4h-13.5c-0.8 0-1.4-0.6-1.4-1.4v-13.5c0-0.8 0.6-1.4 1.4-1.4z" fill="#cfd0cf"/>
<path d="m213.1 168.2h19.4c0.8 0 1.4 0.6 1.4 1.4v19.8c0 0.8-0.6 1.4-1.4 1.4h-19.4c-0.8 0-1.4-0.6-1.4-1.4v-19.8c0-0.8 0.6-1.4 1.4-1.4z" fill="#9b9a9a"/>
<path d="m216.1 170.4h13.5c0.8 0 1.4 0.6 1.4 1.4v13.5c0 0.8-0.6 1.4-1.4 1.4h-13.5c-0.8 0-1.4-0.6-1.4-1.4v-13.5c0-0.8 0.6-1.4 1.4-1.4z" fill="#cfd0cf"/>
<path d="m189.6 168.2h19.4c0.8 0 1.4 0.6 1.4 1.4v19.8c0 0.8-0.6 1.4-1.4 1.4h-19.4c-0.8 0-1.4-0.6-1.4-1.4v-19.8c-0.1-0.8 0.6-1.4 1.4-1.4z" fill="#9b9a9a"/>
<path d="m192.5 170.4h13.5c0.8 0 1.4 0.6 1.4 1.4v13.5c0 0.8-0.6 1.4-1.4 1.4h-13.5c-0.8 0-1.4-0.6-1.4-1.4v-13.5c0-0.8 0.6-1.4 1.4-1.4z" fill="#cfd0cf"/>
<path d="m165.3 168.2h19.4c0.8 0 1.4 0.6 1.4 1.4v19.8c0 0.8-0.6 1.4-1.4 1.4h-19.4c-0.8 0-1.4-0.6-1.4-1.4v-19.8c0-0.8 0.6-1.4 1.4-1.4z" fill="#9b9a9a"/>
<path d="m168.3 170.4h13.5c0.8 0 1.4 0.6 1.4 1.4v13.5c0 0.8-0.6 1.4-1.4 1.4h-13.5c-0.8 0-1.4-0.6-1.4-1.4v-13.5c-0.1-0.8 0.6-1.4 1.4-1.4z" fill="#cfd0cf"/>
<path d="m141.4 168.2h19.4c0.8 0 1.4 0.6 1.4 1.4v19.8c0 0.8-0.6 1.4-1.4 1.4h-19.4c-0.8 0-1.4-0.6-1.4-1.4v-19.8c0-0.8 0.6-1.4 1.4-1.4z" fill="#9b9a9a"/>
<path d="m144.4 170.4h13.5c0.8 0 1.4 0.6 1.4 1.4v13.5c0 0.8-0.6 1.4-1.4 1.4h-13.5c-0.8 0-1.4-0.6-1.4-1.4v-13.5c-0.1-0.8 0.6-1.4 1.4-1.4z" fill="#cfd0cf"/>
<path d="m117.5 168.2h19.4c0.8 0 1.4 0.6 1.4 1.4v19.8c0 0.8-0.6 1.4-1.4 1.4h-19.4c-0.8 0-1.4-0.6-1.4-1.4v-19.8c0-0.8 0.6-1.4 1.4-1.4z" fill="#9b9a9a"/>
<path d="m120.5 170.4h13.5c0.8 0 1.4 0.6 1.4 1.4v13.5c0 0.8-0.6 1.4-1.4 1.4h-13.5c-0.8 0-1.4-0.6-1.4-1.4v-13.5c-0.1-0.8 0.6-1.4 1.4-1.4z" fill="#cfd0cf"/>
<path d="m93.6 168.2h19.4c0.8 0 1.4 0.6 1.4 1.4v19.8c0 0.8-0.6 1.4-1.4 1.4h-19.4c-0.8 0-1.4-0.6-1.4-1.4v-19.8c-0.1-0.8 0.6-1.4 1.4-1.4z" fill="#9b9a9a"/>
<path d="m96.5 170.4h13.5c0.8 0 1.4 0.6 1.4 1.4v13.5c0 0.8-0.6 1.4-1.4 1.4h-13.5c-0.8 0-1.4-0.6-1.4-1.4v-13.5c0-0.8 0.6-1.4 1.4-1.4z" fill="#cfd0cf"/>
<path d="m69.7 168.2h19.4c0.8 0 1.4 0.6 1.4 1.4v19.8c0 0.8-0.6 1.4-1.4 1.4h-19.4c-0.8 0-1.4-0.6-1.4-1.4v-19.8c-0.1-0.8 0.6-1.4 1.4-1.4z" fill="#9b9a9a"/>
<path d="m72.6 170.4h13.5c0.8 0 1.4 0.6 1.4 1.4v13.5c0 0.8-0.6 1.4-1.4 1.4h-13.5c-0.8 0-1.4-0.6-1.4-1.4v-13.5c0-0.8 0.6-1.4 1.4-1.4z" fill="#cfd0cf"/>
<path d="m224.6 144.2h19.4c0.8 0 1.4 0.6 1.4 1.4v19.8c0 0.8-0.6 1.4-1.4 1.4h-19.4c-0.8 0-1.4-0.6-1.4-1.4v-19.8c0-0.8 0.6-1.4 1.4-1.4z" fill="#9b9a9a"/>
<path d="m227.6 146.4h13.5c0.8 0 1.4 0.6 1.4 1.4v13.5c0 0.8-0.6 1.4-1.4 1.4h-13.5c-0.8 0-1.4-0.6-1.4-1.4v-13.5c0-0.8 0.6-1.4 1.4-1.4z" fill="#cfd0cf"/>
<path d="m248.6 144.2h19.4c0.8 0 1.4 0.6 1.4 1.4v19.8c0 0.8-0.6 1.4-1.4 1.4h-19.4c-0.8 0-1.4-0.6-1.4-1.4v-19.8c-0.1-0.8 0.6-1.4 1.4-1.4z" fill="#9b9a9a"/>
<path d="m251.5 146.4h13.5c0.8 0 1.4 0.6 1.4 1.4v13.5c0 0.8-0.6 1.4-1.4 1.4h-13.5c-0.8 0-1.4-0.6-1.4-1.4v-13.5c0-0.8 0.6-1.4 1.4-1.4z" fill="#cfd0cf"/>
<path d="m272.5 144.2h19.4c0.8 0 1.4 0.6 1.4 1.4v19.8c0 0.8-0.6 1.4-1.4 1.4h-19.4c-0.8 0-1.4-0.6-1.4-1.4v-19.8c-0.1-0.8 0.6-1.4 1.4-1.4z" fill="#9b9a9a"/>
<path d="m275.4 146.4h13.6c0.8 0 1.4 0.6 1.4 1.4v13.5c0 0.8-0.6 1.4-1.4 1.4h-13.5c-0.8 0-1.4-0.6-1.4-1.4v-13.5c-0.1-0.8 0.5-1.4 1.3-1.4z" fill="#cfd0cf"/>
<path d="m296.4 144.2h19.4c0.8 0 1.4 0.6 1.4 1.4v19.8c0 0.8-0.6 1.4-1.4 1.4h-19.4c-0.8 0-1.4-0.6-1.4-1.4v-19.8c-0.1-0.8 0.6-1.4 1.4-1.4z" fill="#9b9a9a"/>
<path d="m299.3 146.4h13.5c0.8 0 1.4 0.6 1.4 1.4v13.5c0 0.8-0.6 1.4-1.4 1.4h-13.5c-0.8 0-1.4-0.6-1.4-1.4v-13.5c0-0.8 0.6-1.4 1.4-1.4z" fill="#cfd0cf"/>
<path d="m320.3 144.2h19.4c0.8 0 1.4 0.6 1.4 1.4v19.8c0 0.8-0.6 1.4-1.4 1.4h-19.4c-0.8 0-1.4-0.6-1.4-1.4v-19.8c-0.1-0.8 0.6-1.4 1.4-1.4z" fill="#9b9a9a"/>
<path d="m323.2 146.4h13.5c0.8 0 1.4 0.6 1.4 1.4v13.5c0 0.8-0.6 1.4-1.4 1.4h-13.5c-0.8 0-1.4-0.6-1.4-1.4v-13.5c0-0.8 0.6-1.4 1.4-1.4z" fill="#cfd0cf"/>
<path d="m344.2 144.2h19.4c0.8 0 1.4 0.6 1.4 1.4v19.8c0 0.8-0.6 1.4-1.4 1.4h-19.4c-0.8 0-1.4-0.6-1.4-1.4v-19.8c-0.1-0.8 0.6-1.4 1.4-1.4z" fill="#9b9a9a"/>
<path d="m347.1 146.4h13.5c0.8 0 1.4 0.6 1.4 1.4v13.5c0 0.8-0.6 1.4-1.4 1.4h-13.5c-0.8 0-1.4-0.6-1.4-1.4v-13.5c0-0.8 0.7-1.4 1.4-1.4z" fill="#cfd0cf"/>
<path d="m200.7 144.2h19.4c0.8 0 1.4 0.6 1.4 1.4v19.8c0 0.8-0.6 1.4-1.4 1.4h-19.4c-0.8 0-1.4-0.6-1.4-1.4v-19.8c0-0.8 0.6-1.4 1.4-1.4z" fill="#9b9a9a"/>
<path d="m203.7 146.4h13.5c0.8 0 1.4 0.6 1.4 1.4v13.5c0 0.8-0.6 1.4-1.4 1.4h-13.5c-0.8 0-1.4-0.6-1.4-1.4v-13.5c0-0.8 0.6-1.4 1.4-1.4z" fill="#cfd0cf"/>
<path d="m176.8 144.2h19.4c0.8 0 1.4 0.6 1.4 1.4v19.8c0 0.8-0.6 1.4-1.4 1.4h-19.4c-0.8 0-1.4-0.6-1.4-1.4v-19.8c0-0.8 0.6-1.4 1.4-1.4z" fill="#9b9a9a"/>
<path d="m179.8 146.4h13.5c0.8 0 1.4 0.6 1.4 1.4v13.5c0 0.8-0.6 1.4-1.4 1.4h-13.5c-0.8 0-1.4-0.6-1.4-1.4v-13.5c-0.1-0.8 0.6-1.4 1.4-1.4z" fill="#cfd0cf"/>
<path d="m152.9 144.2h19.4c0.8 0 1.4 0.6 1.4 1.4v19.8c0 0.8-0.6 1.4-1.4 1.4h-19.4c-0.8 0-1.4-0.6-1.4-1.4v-19.8c0-0.8 0.6-1.4 1.4-1.4z" fill="#9b9a9a"/>
<path d="m155.9 146.4h13.5c0.8 0 1.4 0.6 1.4 1.4v13.5c0 0.8-0.6 1.4-1.4 1.4h-13.5c-0.8 0-1.4-0.6-1.4-1.4v-13.5c-0.1-0.8 0.6-1.4 1.4-1.4z" fill="#cfd0cf"/>
<path d="m129 144.2h19.4c0.8 0 1.4 0.6 1.4 1.4v19.8c0 0.8-0.6 1.4-1.4 1.4h-19.4c-0.8 0-1.4-0.6-1.4-1.4v-19.8c0-0.8 0.6-1.4 1.4-1.4z" fill="#9b9a9a"/>
<path d="m132 146.4h13.5c0.8 0 1.4 0.6 1.4 1.4v13.5c0 0.8-0.6 1.4-1.4 1.4h-13.5c-0.8 0-1.4-0.6-1.4-1.4v-13.5c-0.1-0.8 0.6-1.4 1.4-1.4z" fill="#cfd0cf"/>
<path d="m105.1 144.2h19.4c0.8 0 1.4 0.6 1.4 1.4v19.8c0 0.8-0.6 1.4-1.4 1.4h-19.4c-0.8 0-1.4-0.6-1.4-1.4v-19.8c0-0.8 0.6-1.4 1.4-1.4z" fill="#9b9a9a"/>
<path d="m108.1 146.4h13.5c0.8 0 1.4 0.6 1.4 1.4v13.5c0 0.8-0.6 1.4-1.4 1.4h-13.5c-0.8 0-1.4-0.6-1.4-1.4v-13.5c-0.1-0.8 0.6-1.4 1.4-1.4z" fill="#cfd0cf"/>
<path d="m81.2 144.2h19.4c0.8 0 1.4 0.6 1.4 1.4v19.8c0 0.8-0.6 1.4-1.4 1.4h-19.4c-0.8 0-1.4-0.6-1.4-1.4v-19.8c-0.1-0.8 0.6-1.4 1.4-1.4z" fill="#9b9a9a"/>
<path d="m84.1 146.4h13.5c0.8 0 1.4 0.6 1.4 1.4v13.5c0 0.8-0.6 1.4-1.4 1.4h-13.5c-0.8 0-1.4-0.6-1.4-1.4v-13.5c0-0.8 0.7-1.4 1.4-1.4z" fill="#cfd0cf"/>
<path d="m57.3 144.2h19.4c0.8 0 1.4 0.6 1.4 1.4v19.8c0 0.8-0.6 1.4-1.4 1.4h-19.4c-0.8 0-1.4-0.6-1.4-1.4v-19.8c-0.1-0.8 0.6-1.4 1.4-1.4z" fill="#9b9a9a"/>
<path d="m60.2 146.4h13.5c0.8 0 1.4 0.6 1.4 1.4v13.5c0 0.8-0.6 1.4-1.4 1.4h-13.5c-0.8 0-1.4-0.6-1.4-1.4v-13.5c0-0.8 0.6-1.4 1.4-1.4z" fill="#cfd0cf"/>
<path d="m19.5 216.3h40.1c0.8 0 1.4 0.6 1.4 1.4v19.8c0 0.8-0.6 1.4-1.4 1.4h-40.1c-0.8 0-1.4-0.6-1.4-1.4v-19.8c-0.1-0.8 0.6-1.4 1.4-1.4z" fill="#60605d"/>
<path d="m22.4 218.5h34.2c0.8 0 1.4 0.6 1.4 1.4v13.5c0 0.8-0.6 1.4-1.4 1.4h-34.2c-0.8 0-1.4-0.6-1.4-1.4v-13.5c0-0.8 0.6-1.4 1.4-1.4z" fill="#868580"/>
<path d="m327.4 216.3h36.1c0.8 0 1.4 0.6 1.4 1.4v19.8c0 0.8-0.6 1.4-1.4 1.4h-36.1c-0.8 0-1.4-0.6-1.4-1.4v-19.8c-0.1-0.8 0.6-1.4 1.4-1.4z" fill="#60605d"/>
<path d="m330.3 218.5h30.2c0.8 0 1.4 0.6 1.4 1.4v13.5c0 0.8-0.6 1.4-1.4 1.4h-30.2c-0.8 0-1.4-0.6-1.4-1.4v-13.5c0-0.8 0.6-1.4 1.4-1.4z" fill="#868580"/>
<path d="m38.8 240.3h26.8c0.8 0 1.4 0.6 1.4 1.4v19.8c0 0.8-0.6 1.4-1.4 1.4h-26.8c-0.8 0-1.4-0.6-1.4-1.4v-19.8c-0.1-0.7 0.6-1.4 1.4-1.4z" fill="#60605d"/>
<path d="m41.7 242.5h20.9c0.8 0 1.4 0.6 1.4 1.4v13.5c0 0.8-0.6 1.4-1.4 1.4h-20.9c-0.8 0-1.4-0.6-1.4-1.4v-13.4c0-0.8 0.6-1.5 1.4-1.5z" fill="#868580"/>
<path d="m69.7 240.3h26.8c0.8 0 1.4 0.6 1.4 1.4v19.8c0 0.8-0.6 1.4-1.4 1.4h-26.8c-0.8 0-1.4-0.6-1.4-1.4v-19.8c-0.1-0.7 0.6-1.4 1.4-1.4z" fill="#60605d"/>
<path d="m72.6 242.5h20.9c0.8 0 1.4 0.6 1.4 1.4v13.5c0 0.8-0.6 1.4-1.4 1.4h-20.9c-0.8 0-1.4-0.6-1.4-1.4v-13.4c0-0.8 0.6-1.5 1.4-1.5z" fill="#868580"/>
<path d="m290.1 240.3h25.8c0.8 0 1.4 0.6 1.4 1.4v19.8c0 0.8-0.6 1.4-1.4 1.4h-25.8c-0.8 0-1.4-0.6-1.4-1.4v-19.8c-0.1-0.7 0.6-1.4 1.4-1.4z" fill="#60605d"/>
<path d="m293 242.5h19.9c0.8 0 1.4 0.6 1.4 1.4v13.5c0 0.8-0.6 1.4-1.4 1.4h-19.9c-0.8 0-1.4-0.6-1.4-1.4v-13.4c0-0.8 0.6-1.5 1.4-1.5z" fill="#868580"/>
<path d="m19.5 192.2h28.5c0.8 0 1.4 0.6 1.4 1.4v19.8c0 0.8-0.6 1.4-1.4 1.4h-28.5c-0.8 0-1.4-0.6-1.4-1.4v-19.8c-0.1-0.7 0.6-1.4 1.4-1.4z" fill="#60605d"/>
<path d="m22.4 194.4h22.6c0.8 0 1.4 0.6 1.4 1.4v13.5c0 0.8-0.6 1.4-1.4 1.4h-22.6c-0.8 0-1.4-0.6-1.4-1.4v-13.5c0-0.7 0.6-1.4 1.4-1.4z" fill="#868580"/>
<path d="m52.7 192.2h19.2c0.8 0 1.4 0.6 1.4 1.4v19.8c0 0.8-0.6 1.4-1.4 1.4h-19.2c-0.8 0-1.4-0.6-1.4-1.4v-19.8c0-0.7 0.6-1.4 1.4-1.4z" fill="#60605d"/>
<path d="m55.7 194.4h13.3c0.8 0 1.4 0.6 1.4 1.4v13.5c0 0.8-0.6 1.4-1.4 1.4h-13.3c-0.8 0-1.4-0.6-1.4-1.4v-13.5c0-0.7 0.6-1.4 1.4-1.4z" fill="#868580"/>
<path d="m368.1 144.2h19.2c0.8 0 1.4 0.6 1.4 1.4v19.8c0 0.8-0.6 1.4-1.4 1.4h-19.2c-0.8 0-1.4-0.6-1.4-1.4v-19.8c0-0.8 0.6-1.4 1.4-1.4z" fill="#60605d"/>
<path d="m371.1 146.4h13.3c0.8 0 1.4 0.6 1.4 1.4v13.5c0 0.8-0.6 1.4-1.4 1.4h-13.3c-0.8 0-1.4-0.6-1.4-1.4v-13.5c-0.1-0.8 0.6-1.4 1.4-1.4z" fill="#868580"/>
<path d="m391.8 144.2h19.2c0.8 0 1.4 0.6 1.4 1.4v19.8c0 0.8-0.6 1.4-1.4 1.4h-19.2c-0.8 0-1.4-0.6-1.4-1.4v-19.8c0-0.8 0.6-1.4 1.4-1.4z" fill="#60605d"/>
<path d="m394.8 146.4h13.3c0.8 0 1.4 0.6 1.4 1.4v13.5c0 0.8-0.6 1.4-1.4 1.4h-13.3c-0.8 0-1.4-0.6-1.4-1.4v-13.5c-0.1-0.8 0.6-1.4 1.4-1.4z" fill="#868580"/>
<path d="m19.5 168.2h45.8c0.8 0 1.4 0.6 1.4 1.4v19.8c0 0.8-0.6 1.4-1.4 1.4h-45.8c-0.8 0-1.4-0.6-1.4-1.4v-19.8c-0.1-0.8 0.6-1.4 1.4-1.4z" fill="#60605d"/>
<path d="m22.4 170.4h39.9c0.8 0 1.4 0.6 1.4 1.4v13.5c0 0.8-0.6 1.4-1.4 1.4h-39.9c-0.8 0-1.4-0.6-1.4-1.4v-13.5c0-0.8 0.6-1.4 1.4-1.4z" fill="#868580"/>
<path d="m19.5 144.2h33.4c0.8 0 1.4 0.6 1.4 1.4v19.8c0 0.8-0.6 1.4-1.4 1.4h-33.4c-0.8 0-1.4-0.6-1.4-1.4v-19.8c-0.1-0.8 0.6-1.4 1.4-1.4z" fill="#60605d"/>
<path d="m22.4 146.4h27.5c0.8 0 1.4 0.6 1.4 1.4v13.5c0 0.8-0.6 1.4-1.4 1.4h-27.5c-0.8 0-1.4-0.6-1.4-1.4v-13.5c0-0.8 0.6-1.4 1.4-1.4z" fill="#868580"/>
<path d="m356.8 168.2h30.5c0.8 0 1.4 0.6 1.4 1.4v43.7c0 0.8-0.6 1.4-1.4 1.4h-23.5c-0.8 0-1.4-0.6-1.4-1.4v-18.7c0-2.4-1.5-3.2-3.7-3.2-3 0-3.3-1.8-3.3-3v-18.8c0-0.8 0.7-1.4 1.4-1.4z" fill="#60605d"/>
<path d="m359.7 170.3h24.8c0.8 0 1.4 0.6 1.4 1.4v37.7c0 0.8-0.6 1.4-1.4 1.4h-17.8c-0.8 0-1.4-0.6-1.4-1.4v-16.6c0-2-1.9-3-3.6-3-3.1 0-3.4-2.1-3.4-3.1v-15c0-0.8 0.6-1.4 1.4-1.4z" fill="#868580"/>
<path d="m19.4 105.7h19.4c0.8 0 1.4 0.6 1.4 1.4v19.8c0 0.8-0.6 1.4-1.4 1.4h-19.4c-0.8 0-1.4-0.6-1.4-1.4v-19.8c-0.1-0.8 0.6-1.4 1.4-1.4z" fill="#60605d"/>
<path d="m22.3 107.9h13.5c0.8 0 1.4 0.6 1.4 1.4v13.5c0 0.8-0.6 1.4-1.4 1.4h-13.5c-0.8 0-1.4-0.6-1.4-1.4v-13.5c0-0.8 0.6-1.4 1.4-1.4z" fill="#868580"/>
<path d="m56.7 105.7h26.2c0.8 0 1.4 0.6 1.4 1.4v19.8c0 0.8-0.6 1.4-1.4 1.4h-26.2c-0.8 0-1.4-0.6-1.4-1.4v-19.8c0-0.8 0.6-1.4 1.4-1.4z" fill="#60605d"/>
<path d="m59.7 107.9h20.3c0.8 0 1.4 0.6 1.4 1.4v13.5c0 0.8-0.6 1.4-1.4 1.4h-20.3c-0.8 0-1.4-0.6-1.4-1.4v-13.5c-0.1-0.8 0.6-1.4 1.4-1.4z" fill="#868580"/>
<path d="m87.1 105.7h26.2c0.8 0 1.4 0.6 1.4 1.4v19.8c0 0.8-0.6 1.4-1.4 1.4h-26.2c-0.8 0-1.4-0.6-1.4-1.4v-19.8c-0.1-0.8 0.6-1.4 1.4-1.4z" fill="#60605d"/>
<path d="m90 107.9h20.3c0.8 0 1.4 0.6 1.4 1.4v13.5c0 0.8-0.6 1.4-1.4 1.4h-20.3c-0.8 0-1.4-0.6-1.4-1.4v-13.5c0-0.8 0.6-1.4 1.4-1.4z" fill="#868580"/>
<path d="m117.4 105.7h26.2c0.8 0 1.4 0.6 1.4 1.4v19.8c0 0.8-0.6 1.4-1.4 1.4h-26.2c-0.8 0-1.4-0.6-1.4-1.4v-19.8c0-0.8 0.7-1.4 1.4-1.4z" fill="#60605d"/>
<path d="m120.4 107.9h20.3c0.8 0 1.4 0.6 1.4 1.4v13.5c0 0.8-0.6 1.4-1.4 1.4h-20.3c-0.8 0-1.4-0.6-1.4-1.4v-13.5c0-0.8 0.6-1.4 1.4-1.4z" fill="#868580"/>
<path d="m147.8 105.7h26.2c0.8 0 1.4 0.6 1.4 1.4v19.8c0 0.8-0.6 1.4-1.4 1.4h-26.2c-0.8 0-1.4-0.6-1.4-1.4v-19.8c0-0.8 0.6-1.4 1.4-1.4z" fill="#60605d"/>
<path d="m150.8 107.9h20.3c0.8 0 1.4 0.6 1.4 1.4v13.5c0 0.8-0.6 1.4-1.4 1.4h-20.3c-0.8 0-1.4-0.6-1.4-1.4v-13.5c-0.1-0.8 0.6-1.4 1.4-1.4z" fill="#868580"/>
<path d="m178.2 105.7h26.2c0.8 0 1.4 0.6 1.4 1.4v19.8c0 0.8-0.6 1.4-1.4 1.4h-26.2c-0.8 0-1.4-0.6-1.4-1.4v-19.8c0-0.8 0.6-1.4 1.4-1.4z" fill="#60605d"/>
<path d="m181.2 107.9h20.3c0.8 0 1.4 0.6 1.4 1.4v13.5c0 0.8-0.6 1.4-1.4 1.4h-20.3c-0.8 0-1.4-0.6-1.4-1.4v-13.5c-0.1-0.8 0.6-1.4 1.4-1.4z" fill="#868580"/>
<path d="m218.5 105.7h26.2c0.8 0 1.4 0.6 1.4 1.4v19.8c0 0.8-0.6 1.4-1.4 1.4h-26.2c-0.8 0-1.4-0.6-1.4-1.4v-19.8c0-0.8 0.6-1.4 1.4-1.4z" fill="#60605d"/>
<path d="m221.5 107.9h20.3c0.8 0 1.4 0.6 1.4 1.4v13.5c0 0.8-0.6 1.4-1.4 1.4h-20.3c-0.8 0-1.4-0.6-1.4-1.4v-13.5c-0.1-0.8 0.6-1.4 1.4-1.4z" fill="#868580"/>
<path d="m248.9 105.7h26.1c0.8 0 1.4 0.6 1.4 1.4v19.8c0 0.8-0.6 1.4-1.4 1.4h-26.2c-0.8 0-1.4-0.6-1.4-1.4v-19.8c0-0.8 0.7-1.4 1.5-1.4z" fill="#60605d"/>
<path d="m251.8 107.9h20.3c0.8 0 1.4 0.6 1.4 1.4v13.5c0 0.8-0.6 1.4-1.4 1.4h-20.3c-0.8 0-1.4-0.6-1.4-1.4v-13.5c0-0.8 0.6-1.4 1.4-1.4z" fill="#868580"/>
<path d="m279.2 105.7h26.2c0.8 0 1.4 0.6 1.4 1.4v19.8c0 0.8-0.6 1.4-1.4 1.4h-26.2c-0.8 0-1.4-0.6-1.4-1.4v-19.8c0-0.8 0.7-1.4 1.4-1.4z" fill="#60605d"/>
<path d="m282.2 107.9h20.3c0.8 0 1.4 0.6 1.4 1.4v13.5c0 0.8-0.6 1.4-1.4 1.4h-20.3c-0.8 0-1.4-0.6-1.4-1.4v-13.5c0-0.8 0.6-1.4 1.4-1.4z" fill="#868580"/>
<path d="m309.6 105.7h26.2c0.8 0 1.4 0.6 1.4 1.4v19.8c0 0.8-0.6 1.4-1.4 1.4h-26.2c-0.8 0-1.4-0.6-1.4-1.4v-19.8c0-0.8 0.6-1.4 1.4-1.4z" fill="#60605d"/>
<path d="m312.6 107.9h20.3c0.8 0 1.4 0.6 1.4 1.4v13.5c0 0.8-0.6 1.4-1.4 1.4h-20.3c-0.8 0-1.4-0.6-1.4-1.4v-13.5c-0.1-0.8 0.6-1.4 1.4-1.4z" fill="#868580"/>
<path d="m340 105.7h26.2c0.8 0 1.4 0.6 1.4 1.4v19.8c0 0.8-0.6 1.4-1.4 1.4h-26.2c-0.8 0-1.4-0.6-1.4-1.4v-19.8c0-0.8 0.6-1.4 1.4-1.4z" fill="#60605d"/>
<path d="m343 107.9h20.3c0.8 0 1.4 0.6 1.4 1.4v13.5c0 0.8-0.6 1.4-1.4 1.4h-20.3c-0.8 0-1.4-0.6-1.4-1.4v-13.5c-0.1-0.8 0.6-1.4 1.4-1.4z" fill="#868580"/>
<path d="m384.8 105.7h26.2c0.8 0 1.4 0.6 1.4 1.4v19.8c0 0.8-0.6 1.4-1.4 1.4h-26.2c-0.8 0-1.4-0.6-1.4-1.4v-19.8c0-0.8 0.6-1.4 1.4-1.4z" fill="#60605d"/>
<path d="m387.8 107.9h20.3c0.8 0 1.4 0.6 1.4 1.4v13.5c0 0.8-0.6 1.4-1.4 1.4h-20.3c-0.8 0-1.4-0.6-1.4-1.4v-13.5c0-0.8 0.6-1.4 1.4-1.4z" fill="#868580"/>
<path d="m399.1 177.2h8.7s0.1 0.1 0.1 0.2v2.8c0 0.1 0 0.2-0.1 0.2h-8.7s-0.1-0.1-0.1-0.2v-2.8c0-0.1 0.1-0.2 0.1-0.2z" fill="#bad532"/>
<path d="m399.1 201h8.7s0.1 0.1 0.1 0.2v2.8c0 0.1 0 0.2-0.1 0.2h-8.7s-0.1-0.1-0.1-0.2v-2.8c0-0.1 0.1-0.2 0.1-0.2zm0 23.9h8.7s0.1 0.1 0.1 0.2v2.8c0 0.1 0 0.2-0.1 0.2h-8.7s-0.1-0.1-0.1-0.2v-2.8c0-0.1 0.1-0.2 0.1-0.2z" fill="#525056"/>
<path d="m406.4 179.6h-5.9c-0.3 0-0.6-0.3-0.6-0.6v-0.4c0-0.3 0.3-0.6 0.6-0.6h5.9c0.3 0 0.6 0.3 0.6 0.6v0.4c0.1 0.4-0.2 0.6-0.6 0.6z" fill="#e7e514"/>
<path d="m18.5 92.1v-14.2c0-0.5 0.4-1 1-1h60.7c0.1 0 0.3 0 0.4 0.1-0.2-0.2-0.4-0.4-0.7-0.4h-60.8c-0.5 0-1 0.4-1 1v14.2c0 0.4 0.2 0.7 0.6 0.9-0.1-0.2-0.2-0.4-0.2-0.6z" fill="#eaeaea"/>
<path d="m80.3 76.8c0.1 0.1 0.1 0.3 0.1 0.5v14.2c0 0.5-0.4 1-1 1h-60.7c-0.2 0-0.3-0.1-0.5-0.1 0.2 0.3 0.5 0.5 0.8 0.5h60.7c0.5 0 1-0.4 1-1v-14.3c0.1-0.3-0.1-0.6-0.4-0.8z" fill="#777878"/>
</g>
<path d="m43.893 83.388 1.2167-1.8718 0.28076 1.8718h-1.4974zm2.9949 1.9654 0.09359-0.1872h-0.18718c-0.09359 0-0.18718-0.0936-0.18718-0.0936l-0.18718-0.1872c0-0.0936-0.0936-0.0936-0.0936-0.1872l-0.65512-4.2115h-0.28077c-0.37436 0.56153-0.74871 1.2166-1.2167 2.059-0.46795 0.74872-0.93589 1.4974-1.3102 2.1525-0.09359 0.0936-0.18718 0.28079-0.28077 0.28079-0.09357 0.0936-0.18718 0.0936-0.18718 0.1872-0.09359 0-0.18718 0.0936-0.28077 0.0936h-0.18718l-0.09357 0.1872h1.8718l0.09359-0.1872c-0.18718 0-0.37436 0-0.46795-0.0936-0.0936 0-0.18718-0.0936-0.18718-0.1872 0 0 0-0.0936 0.09359-0.1872 0-0.0936 0.0936-0.1872 0.0936-0.28076 0-0.0936 0.09359-0.1872 0.18718-0.37436 0.09359-0.1872 0.18718-0.28079 0.28077-0.37436h1.6846c0.09357 0.37436 0.09357 0.65512 0.09357 0.84229v0.37436c0 0.0936 0 0.0936-0.09357 0.0936 0 0-0.09359 0.0936-0.18718 0.0936h-0.46795l-0.09359 0.1872h2.1526zm5.3346-2.7141c-0.18718-0.28076-0.46794-0.37435-0.8423-0.37435-0.18718 0-0.46795 0-0.65512 0.0936-0.18718 0.0936-0.46795 0.1872-0.65512 0.37436 0.18718-0.46793 0.46794-0.93589 0.8423-1.3102 0.37436-0.37435 0.8423-0.56152 1.3102-0.74871h0.28077v-0.28077c-0.46794 0.0936-0.93589 0.1872-1.3102 0.37436-0.37436 0.1872-0.74871 0.46796-1.0295 0.74872-0.28077 0.28076-0.56154 0.65512-0.74871 1.123-0.18718 0.37438-0.28077 0.84231-0.28077 1.3103 0 0.46793 0.09359 0.84231 0.37436 1.1231 0.28077 0.28077 0.56154 0.37436 1.0295 0.37436 0.28077 0 0.56154-0.0936 0.74871-0.18722 0.28077-0.0936 0.46795-0.28074 0.65512-0.46793 0.18718-0.1872 0.28077-0.37436 0.46795-0.65512 0.09359-0.28077 0.18718-0.46796 0.18718-0.74872s-0.09359-0.56153-0.37436-0.74872zm-0.74871 2.1526c-0.28077 0.28076-0.46794 0.46793-0.8423 0.46793-0.28076 0-0.46794-0.0936-0.56153-0.28076-0.09359-0.1872-0.18718-0.46793-0.18718-0.84229 0-0.1872 0-0.46796 0.09359-0.65515 0-0.1872 0.09359-0.28076 0.09359-0.37433 0.18718-0.0936 0.28077-0.28079 0.46795-0.28079 0.18718-0.0936 0.37436-0.0936 0.56153-0.0936 0.28077 0 0.46795 0.0936 0.56154 0.28076 0.18718 0.1872 0.18718 0.37436 0.18718 0.74872 0 0.28076-0.09359 0.65512-0.37436 1.0295zm5.1474-2.8077c-0.28077-0.28076-0.65512-0.37436-1.1231-0.37436-0.28077 0-0.65512 0.0936-0.93589 0.1872-0.28076 0.0936-0.56153 0.28077-0.74871 0.56153s-0.37436 0.46795-0.46794 0.84231c-0.09359 0.28076-0.18718 0.65512-0.18718 0.93589 0 0.37436 0.09357 0.74871 0.37436 1.0295 0.28077 0.28076 0.65512 0.37436 1.1231 0.37436 0.37436 0 0.65513-0.0936 0.93589-0.1872s0.56153-0.28077 0.74871-0.56153c0.18718-0.1872 0.37436-0.46795 0.46795-0.84231 0.09357-0.28077 0.18718-0.65512 0.18718-0.93589 0-0.46795-0.09359-0.74871-0.37436-1.0295zm-0.46794 1.591-0.28077 0.84231c-0.18718 0.28076-0.37435 0.56153-0.56153 0.65512-0.18718 0.1872-0.37436 0.1872-0.65512 0.1872s-0.46794-0.0936-0.56154-0.28076c-0.09359-0.1872-0.18718-0.37436-0.18718-0.74872 0-0.1872 0-0.46793 0.0936-0.74872 0.09359-0.28076 0.18718-0.56152 0.28077-0.74869 0.09359-0.28079 0.28076-0.46795 0.46794-0.65512 0.18718-0.1872 0.46794-0.1872 0.65512-0.1872 0.28076 0 0.46794 0.0936 0.56153 0.28074 0.09359 0.18722 0.18718 0.37438 0.18718 0.74874 0.09359 0.0936 0.09359 0.37436 0 0.65512zm4.773-1.591c-0.28077-0.28076-0.65512-0.37436-1.1231-0.37436-0.28077 0-0.65512 0.0936-0.93589 0.1872s-0.56154 0.28077-0.74871 0.56153c-0.18718 0.28076-0.37436 0.46795-0.46795 0.84231-0.09357 0.37436-0.18718 0.65512-0.18718 0.93589 0 0.37436 0.09357 0.74871 0.37436 1.0295 0.28077 0.28076 0.65512 0.37436 1.1231 0.37436 0.37436 0 0.65512-0.0936 0.93589-0.1872s0.56153-0.28077 0.74871-0.56153c0.18718-0.1872 0.37436-0.46795 0.46794-0.84231 0.09357-0.28077 0.18718-0.65512 0.18718-0.93589 0.09359-0.46795-0.0936-0.74871-0.37436-1.0295zm-0.37436 1.591-0.28077 0.84231c-0.18718 0.28076-0.37436 0.56153-0.56154 0.65512-0.18718 0.1872-0.37436 0.1872-0.65512 0.1872s-0.46794-0.0936-0.56153-0.28076c-0.09359-0.1872-0.18718-0.37436-0.18718-0.74872 0-0.1872 0-0.46793 0.09359-0.74872 0.09357-0.28076 0.18718-0.56152 0.28077-0.74869 0.09359-0.28079 0.28076-0.46795 0.46794-0.65512 0.18718-0.1872 0.46794-0.1872 0.65512-0.1872 0.28077 0 0.46794 0.0936 0.56154 0.28074 0.09359 0.18722 0.18718 0.37438 0.18718 0.74874 0.09359 0.0936 0 0.37436 0 0.65512zm-36.219-10.295c-3.182 0-5.7089 2.5269-5.7089 5.7089s2.5269 5.7089 5.7089 5.7089c0.65512 0 1.2167-0.0936 1.7782-0.28076v-2.9013c-0.46795 0.28076-1.0295 0.46795-1.591 0.46795-1.7782 0-3.182-1.4038-3.182-2.9948 0-1.6846 1.4038-2.9949 3.182-2.9949 0.56153 0 1.1231 0.1872 1.591 0.46795v-2.9013c-0.56154-0.1872-1.2167-0.28076-1.7782-0.28076zm1.7782 3.5564h4.3051l-1.9654 2.059h-2.3397" fill="#192753"/>
<path d="m26.111 81.235h4.3051l-1.9654-1.9654h-2.3397" fill="#ed2224"/>
<path d="m40.992 77.585c0.46794 0 0.93589-0.1872 1.2167-0.37436 0.28077-0.28079 0.46794-0.65512 0.46794-1.1231 0-0.46795-0.18718-0.84231-0.46794-1.1231-0.28077-0.28076-0.74872-0.37436-1.2167-0.37436-0.46794 0-0.93589 0.1872-1.2167 0.37436-0.28077 0.28076-0.46794 0.65512-0.46794 1.1231 0 0.46796 0.18718 0.84229 0.46794 1.1231 0.28077 0.28076 0.74872 0.37436 1.2167 0.37436zm0-0.74872c-0.28076 0-0.37436-0.0936-0.56154-0.28076-0.09357-0.1872-0.18718-0.37436-0.18718-0.56153 0-0.1872 0.09359-0.46795 0.18718-0.56155 0.09357-0.1872 0.28077-0.28076 0.56154-0.28076s0.37436 0.0936 0.56154 0.28076c0.09357 0.1872 0.18718 0.37436 0.18718 0.56155 0 0.1872-0.09357 0.46793-0.18718 0.56153-0.09359 0.0936-0.28077 0.28076-0.56154 0.28076zm2.1526 0.65512h1.0295v-1.3102c0-0.28079 0.09357-0.56155 0.18718-0.74872 0.09359-0.1872 0.28077-0.1872 0.46794-0.1872 0.18718 0 0.28077 0.0936 0.28077 0.1872 0.09359 0.0936 0.09359 0.28077 0.09359 0.46793v1.591h1.0295v-1.3102c0-0.28079 0.09357-0.56155 0.18718-0.74872 0.09359-0.1872 0.28077-0.1872 0.46794-0.1872 0.18718 0 0.28077 0.0936 0.28077 0.1872 0.09359 0.0936 0.09359 0.28077 0.09359 0.46793v1.591h1.0295v-1.7782c0-0.37436-0.09357-0.74872-0.18718-0.93589-0.18718-0.1872-0.46795-0.37436-0.8423-0.37436-0.18718 0-0.37436 0-0.56154 0.0936s-0.37436 0.28076-0.46794 0.46793c-0.09359-0.1872-0.18718-0.37436-0.37436-0.46793-0.18718-0.0936-0.37436-0.1872-0.56154-0.1872-0.28077 0-0.46794 0.0936-0.65512 0.1872s-0.37436 0.28076-0.46794 0.46793v-0.56153h-0.93589v3.0884zm5.7089 0h1.0295v-1.3102c0-0.28079 0.09359-0.56155 0.18718-0.74872 0.09359-0.1872 0.28077-0.1872 0.46795-0.1872s0.28077 0.0936 0.28077 0.1872c0.09357 0.0936 0.09357 0.28077 0.09357 0.46793v1.591h1.0295v-1.3102c0-0.28079 0.09357-0.56155 0.18718-0.74872 0.09359-0.1872 0.28077-0.1872 0.46794-0.1872 0.18718 0 0.28077 0.0936 0.28077 0.1872 0.0936 0.0936 0.0936 0.28077 0.0936 0.46793v1.591h1.0295v-1.7782c0-0.37436-0.0936-0.74872-0.18718-0.93589-0.18718-0.1872-0.46794-0.37436-0.8423-0.37436-0.18718 0-0.37436 0-0.56154 0.0936s-0.37436 0.28076-0.46795 0.46793c-0.09359-0.1872-0.18718-0.37436-0.37436-0.46793-0.18718-0.0936-0.37436-0.1872-0.56153-0.1872-0.28077 0-0.46795 0.0936-0.65512 0.1872-0.18718 0.0936-0.37436 0.28076-0.46795 0.46793v-0.56153h-0.93589v3.0884zm7.3 0.0936c0.46794 0 0.93589-0.1872 1.2167-0.37436 0.28077-0.28079 0.46795-0.65512 0.46795-1.1231 0-0.46795-0.18718-0.84231-0.46795-1.1231-0.28077-0.28076-0.74871-0.37436-1.2167-0.37436-0.46795 0-0.93589 0.1872-1.2167 0.37436-0.28077 0.28076-0.46795 0.65512-0.46795 1.1231 0 0.46796 0.18718 0.84229 0.46795 1.1231 0.28076 0.28076 0.65512 0.37436 1.2167 0.37436zm0-0.74872c-0.28077 0-0.37436-0.0936-0.56154-0.28076-0.18718-0.1872-0.18718-0.37436-0.18718-0.56153 0-0.1872 0.09359-0.46795 0.18718-0.56155 0.09359-0.1872 0.28076-0.28076 0.56154-0.28076 0.28077 0 0.37436 0.0936 0.56153 0.28076 0.09359 0.1872 0.18718 0.37436 0.18718 0.56155 0 0.1872-0.09359 0.46793-0.18718 0.56153-0.18718 0.1872-0.37436 0.28076-0.56153 0.28076zm5.4282-3.65h-1.0295v1.6846c-0.0936-0.1872-0.28077-0.28076-0.46794-0.37433-0.18718-0.0936-0.37436-0.0936-0.56154-0.0936-0.37436 0-0.74871 0.1872-0.93589 0.46793-0.18718 0.28079-0.37436 0.65515-0.37436 1.0295 0 0.46796 0.09357 0.84232 0.37436 1.1231 0.18718 0.28076 0.56154 0.46795 1.0295 0.46795 0.28077 0 0.46794-0.0936 0.65512-0.1872s0.28077-0.28076 0.37436-0.46795v0.56155h0.93589v-4.2115zm-2.3397 2.8077c0-0.1872 0.09359-0.37436 0.18718-0.56153 0.0936-0.1872 0.28077-0.1872 0.46794-0.1872 0.18718 0 0.37436 0.0936 0.46795 0.1872 0.09359 0.1872 0.18718 0.37436 0.18718 0.56153 0 0.1872-0.0936 0.37436-0.18718 0.56155-0.09359 0.1872-0.28077 0.1872-0.46795 0.1872s-0.37436-0.0936-0.46794-0.1872c-0.09359-0.0936-0.18718-0.28079-0.18718-0.56155zm4.3987 1.591c0.46795 0 0.93589-0.1872 1.2167-0.37436 0.28077-0.28079 0.46794-0.65512 0.46794-1.1231 0-0.46795-0.18718-0.84231-0.46794-1.1231-0.28076-0.28076-0.74871-0.37436-1.2167-0.37436-0.46794 0-0.93589 0.1872-1.2167 0.37436-0.28076 0.28076-0.46794 0.65512-0.46794 1.1231 0 0.46796 0.18718 0.84229 0.46794 1.1231 0.37436 0.28076 0.74872 0.37436 1.2167 0.37436zm0-0.74872c-0.28077 0-0.37435-0.0936-0.56153-0.28076-0.09357-0.1872-0.18718-0.37436-0.18718-0.56153 0-0.1872 0.0936-0.46795 0.18718-0.56155 0.09359-0.1872 0.28077-0.28076 0.56153-0.28076 0.28077 0 0.37436 0.0936 0.56154 0.28076 0.0936 0.1872 0.18718 0.37436 0.18718 0.56155 0 0.1872-0.09357 0.46793-0.18718 0.56153-0.09359 0.1872-0.28076 0.28076-0.56154 0.28076zm4.3987-2.3397h-0.37436c-0.18718 0-0.37436 0.0936-0.56154 0.1872s-0.28077 0.28076-0.37436 0.46795v-0.56155h-0.93589v2.9949h1.0295v-1.3103c0-0.28076 0.0936-0.56152 0.18718-0.65512 0.09359-0.1872 0.28077-0.28076 0.56154-0.28076h0.37436l0.0936-0.84231zm3.2756 1.8718v-0.1872c0-0.46793-0.09359-0.84229-0.37436-1.2167-0.18718-0.28076-0.65512-0.46795-1.2167-0.46795-0.46794 0-0.8423 0.1872-1.1231 0.37435-0.28077 0.28077-0.46795 0.65513-0.46795 1.1231 0 0.46793 0.18718 0.84231 0.46795 1.1231s0.74871 0.37437 1.2167 0.37437h0.56153s0.37436-0.0936 0.56154-0.18721v-0.74869c-0.18718 0.0936-0.28077 0.1872-0.46794 0.1872-0.18718 0-0.28077 0.0936-0.46795 0.0936-0.28077 0-0.46794 0-0.65512-0.0936s-0.28077-0.28077-0.28077-0.46796h2.2461zm-2.059-0.65512c0-0.1872 0.0936-0.28077 0.18718-0.46796 0.09359-0.0936 0.18718-0.1872 0.37436-0.1872s0.37436 0.0936 0.46794 0.1872c0.0936 0.0936 0.0936 0.28079 0.0936 0.46796h-1.1231zm-32.195 1.8718c-0.46794-0.0936-0.74871-0.28079-1.1231-0.65515-0.28077-0.28076-0.37436-0.56152-0.46794-1.1231-0.18718-1.0295 0.28076-1.9654 1.1231-2.3397 0.37436-0.1872 0.93589-0.28079 1.4974-0.28079 0.37436 0 0.65512 0.0936 0.93589 0.0936l-0.09357 0.93588s-0.09359 0-0.28077-0.0936-0.37436-0.0936-0.56153-0.0936c-0.37436 0-0.74871 0.0936-1.0295 0.28079-0.56153 0.46793-0.56153 1.591 0 2.1525 0.37436 0.28079 1.0295 0.37436 1.591 0.28079l0.28077-0.0936 0.09357 0.93589c-0.18718 0-0.56153 0.0936-1.0295 0.0936-0.46794 0-0.65512-0.0936-0.93589-0.0936zm-3.9307 1.3102h40.618v0.37436h-40.618z" fill="#192753"/>
<g transform="scale(.93589)" fill="#777878">
<path d="m318.4 88 5.6-7 0.1-1-6.5 8m10.4-13.5v18.6c0 0.7 0.2 1.2 0.5 1.6 0.2 0.2 0.4 0.3 0.7 0.4-0.1 0-0.1-0.1-0.1-0.1-0.3-0.3-0.5-0.8-0.5-1.6v-18.9h-0.6zm-12.8 21v0.3h-5.8l-0.1 0.3h6.4v-0.5c-0.2-0.1-0.3-0.1-0.5-0.1zm8.8-6.5h-7.1l-1.3 1.6-1.4 1.8c-0.3 0.4-0.5 0.7-0.6 1.1-0.1 0.2-0.1 0.5-0.1 0.7 0 0.3 0.2 0.5 0.4 0.7 0.1 0.1 0.3 0.2 0.4 0.2-0.2-0.2-0.3-0.4-0.4-0.6 0-0.2 0-0.5 0.1-0.7 0.1-0.3 0.3-0.7 0.6-1.1l1.4-1.8 1.3-1.6h6.6l0.1-0.3zm5.9 6.5-0.1 0.4h-8.7l-0.1 0.3h9.2l0.1-0.5c0-0.2-0.2-0.2-0.4-0.2zm9.9-16.8-0.2-1.5-3.7 14.8c-0.1 0.6-0.2 1.1-0.2 1.5 0 0.5 0.2 0.9 0.6 1.3 0.1 0.1 0.3 0.2 0.5 0.3-0.4-0.3-0.6-0.7-0.6-1.3 0-0.4 0-0.9 0.2-1.5l3.4-13.6zm6 11.1 0.4-0.6-2.3-14.3h-0.4m19.1 0-0.1 0.3c-1 0-1.8 0.2-2.3 0.7-0.5 0.4-0.9 1.3-1.3 2.6l-3.4 13.5c-0.2 0.9-0.3 1.5-0.3 1.9s0.2 0.7 0.5 0.9c0.1 0.1 0.2 0.1 0.4 0.2-0.2-0.2-0.4-0.5-0.4-0.8 0-0.4 0.1-1.1 0.3-1.9l3.4-13.6c0.3-1.3 0.7-2.2 1.3-2.6 0.5-0.4 1.3-0.7 2.3-0.7l0.2-0.5h-0.6zm-5.1 20.9h-10.1l-0.1 0.3h10.7l0.1-0.5h-0.6v0.2zm-2.7-18.4-12.1 18.4h-0.2l0.1 0.3h0.6l11.2-17m-16.4 16.7h-6.5l-0.1 0.3h7.1l0.1-0.5h-0.6v0.2zm27.1-20.5v0.2m5.3 20.3h-10l-0.1 0.3h10.6l0.1-0.5h-0.6v0.2zm4.6-20.9-0.1 0.3c-0.9 0-1.7 0.2-2.1 0.6-0.5 0.4-0.9 1.3-1.2 2.6l-3.4 13.6c-0.2 1-0.4 1.6-0.3 1.9 0 0.4 0.2 0.7 0.5 0.9 0.1 0.1 0.2 0.1 0.4 0.2-0.2-0.2-0.4-0.5-0.4-0.8s0.1-1 0.3-1.9l3.4-13.5c0.3-1.3 0.7-2.2 1.2-2.6s1.2-0.6 2.1-0.6l0.2-0.5h-0.6zm19.9 0.2-1 5.8h-0.1v0.3h0.5l1-5.8s0-0.6-0.2-0.8-0.3-0.2-0.3-0.2h-0.1c0.2 0.3 0.2 0.7 0.2 0.7zm-14.4 18.5c0.5 0.5 1.1 0.9 1.6 1.2-0.4-0.2-0.8-0.6-1.1-0.9-1-1.1-1.6-2.7-1.7-4.8-0.1-2.4 0.5-4.7 1.5-6.9s2.8-3.8 4.3-4.9 3.4-1.6 4.9-1.6c0.6 0 1 0.1 1.3 0.2-0.5-0.3-1-0.5-1.8-0.5-1.5 0-3.4 0.6-4.9 1.6-1.5 1.1-3.3 2.7-4.3 4.9s-1.6 4.5-1.5 6.9c0.1 2.1 0.7 3.7 1.7 4.8z"/>
<path d="m394.7 86c-0.5 0-1 0.1-1.3 0.3s-0.5 0.4-0.7 0.8c-0.1 0.2-0.2 0.7-0.4 1.6l-1.6 6.3c-2.2 0.9-4.6 1.4-7.1 1.4-1.9 0-3.5-0.3-4.9-1 0.1 0.1 0.3 0.2 0.4 0.3 1.4 0.7 3 1 5 1 2.5 0 4.9-0.5 7.1-1.4l1.6-6.3c0.2-0.8 0.3-1.4 0.4-1.6 0.2-0.3 0.4-0.6 0.7-0.8s0.7-0.3 1.3-0.3l0.1-0.6h-0.6v0.3zm3.4 9.5v0.3h-5.8l-0.1 0.3h6.4v-0.5c-0.2-0.1-0.3-0.1-0.5-0.1zm12.9-21v18.6c0 0.7 0.2 1.2 0.5 1.6 0.2 0.2 0.4 0.3 0.7 0.4-0.1 0-0.1-0.1-0.1-0.1-0.3-0.3-0.5-0.8-0.5-1.6v-18.9h-0.6zm-9.6 13.5 6.1-7.6v-0.9l-6.9 8.5m6.3 1h-7.1l-1.3 1.6-1.4 1.8c-0.3 0.4-0.5 0.7-0.6 1.1-0.1 0.2-0.1 0.5-0.1 0.7 0 0.3 0.2 0.5 0.4 0.7 0.1 0.1 0.3 0.2 0.4 0.2-0.2-0.2-0.3-0.4-0.4-0.6 0-0.2 0-0.5 0.1-0.7 0.1-0.3 0.3-0.7 0.6-1.1l1.4-1.8 1.3-1.6h6.6l0.1-0.3zm6 6.5-0.1 0.4h-8.7l-0.1 0.3h9.2l0.1-0.5c-0.1-0.2-0.3-0.2-0.4-0.2z"/>
</g>
<g transform="scale(.93589)" fill="#e8e8e8">
<path d="m310 95.8c0.6-0.1 1.1-0.3 1.5-0.6 0.6-0.4 1.4-1.3 2.4-2.6l14.4-17.9h0.2v-0.3h-0.7l-14.4 17.9c-1 1.3-1.9 2.2-2.4 2.6-0.4 0.3-0.9 0.5-1.5 0.6l-0.1 0.5h0.6v-0.2zm14.6-15.5-0.6 0.7-0.1 7h-5.3l-0.3 0.3h6.1m-2.6 7.5c0.9-0.1 1.4-0.2 1.6-0.2 0.3-0.1 0.5-0.5 0.8-0.9 0.2-0.5 0.3-1.3 0.3-2.4v-3h-0.5v2.8c0 1.2-0.1 2-0.3 2.4-0.2 0.5-0.5 0.8-0.8 0.9-0.1 0.1-0.7 0.1-1.6 0.2l-0.2 0.5h0.6l0.1-0.3zm15-20.6h7.2v-0.3h-7.6l-0.2 0.5h0.6v-0.2zm11.2 20.6c1.1 0 2-0.2 2.5-0.7 0.5-0.4 1-1.3 1.3-2.6l3.7-14.8-0.9 1.4-3.3 13.1c-0.3 1.3-0.8 2.2-1.3 2.6s-1.4 0.7-2.5 0.7l-0.2 0.5h0.6l0.1-0.2z"/>
<path d="m346.4 90.1 9.8-14.9h6.9l0.1-0.3h-7.5l-9.5 14.3m-5.9-11.6-0.3 1.1 2.6 17.4h0.4m-10.9-0.3c0.8 0 1.5-0.2 1.9-0.5 0.8-0.6 1.3-1.5 1.6-2.7l4-15.7c-0.5-0.5-0.9-0.8-1.2-0.9 0.2 0.2 0.5 0.4 0.7 0.7l-4 15.7c-0.3 1.2-0.9 2.1-1.6 2.7-0.4 0.3-1.1 0.5-1.9 0.5l-0.1 0.5h0.6v-0.3zm33.6-20.6h9.8l0.1-0.3h-10.4l-0.2 0.5c0.2 0 0.4 0 0.6 0.1l0.1-0.3zm-4.7 20.6c1.1 0 1.8-0.2 2.3-0.6s0.9-1.3 1.2-2.7l3.4-13.5c0.2-0.8 0.3-1.5 0.3-1.9s-0.2-0.7-0.5-0.9c-0.1-0.1-0.2-0.1-0.4-0.2 0.2 0.2 0.3 0.5 0.3 0.8 0 0.4-0.1 1.1-0.3 1.9l-3.3 13.6c-0.3 1.4-0.8 2.3-1.2 2.7-0.5 0.4-1.2 0.6-2.3 0.6l-0.2 0.5h0.6l0.1-0.3zm25-9.6h0.6l0.1-0.3h8.6l0.1-0.3h-9.2l-0.2 0.6zm-3.4 8.8c0.8 0.5 1.6 0.7 2.5 0.7 0.6 0 1.2-0.2 2-0.5l1.4-5.6c0.2-0.9 0.3-1.5 0.3-1.8 0-0.4-0.2-0.7-0.5-1-0.1-0.1-0.3-0.2-0.4-0.2 0.3 0.3 0.4 0.5 0.5 0.9 0 0.3-0.1 0.9-0.3 1.8l-1.4 5.6c-0.8 0.3-1.5 0.5-2 0.5-0.8 0.1-1.5-0.1-2.1-0.4z"/>
<path d="m376.3 92.6c-0.9-1.5-1.5-3.1-1.5-5-0.2-4 1.5-7.3 5-9.9 2.7-2 5.8-2.9 9.3-3.1 0.3 0 1.2-0.1 2.4-0.1 1 0 2.2 0 3.8 0.2 0 0 0-0.1-0.1-0.1-0.2-0.2-0.3-0.2-0.3-0.2-1.7-0.2-2.9-0.2-3.9-0.2-1.2 0-2.1 0.1-2.4 0.1-3.5 0.2-6.6 1.1-9.3 3.1-3.5 2.6-5.1 5.9-5 9.9 0.1 1.9 0.6 3.5 1.5 5s2.1 2.5 3.5 3.2c-1.2-0.6-2.2-1.6-3-2.9z"/>
<path d="m393.9 81.2h0.5c-0.1-1.8-0.2-3.1-1-3.9-0.5-0.5-0.9-0.9-1.4-1.1 0.3 0.2 0.6 0.5 0.9 0.8 0.7 0.9 0.8 2.3 1 4.2zm10.8 14.6c0.9-0.1 1.4-0.2 1.6-0.2 0.3-0.1 0.5-0.5 0.8-0.9 0.2-0.5 0.3-1.3 0.3-2.4v-3h-0.5v2.7c0 1.2-0.1 2-0.3 2.4-0.2 0.5-0.5 0.8-0.8 0.9-0.1 0.1-0.7 0.1-1.6 0.2l-0.2 0.5h0.6l0.1-0.2zm-11.8 0c0.6-0.1 1.1-0.3 1.5-0.6 0.6-0.4 1.4-1.3 2.4-2.6l14.4-17.9h0.2v-0.3h-0.7l-14.4 17.9c-1 1.3-1.9 2.2-2.4 2.6-0.4 0.3-0.9 0.5-1.5 0.6l-0.1 0.5h0.6v-0.2zm14.6-15.4-0.5 0.6-0.1 7h-5.4l-0.3 0.3h6.2"/>
</g>
</svg>
