<?xml version="1.0" encoding="UTF-8"?>
<svg viewBox="0 0 758.58 887.74" xmlns="http://www.w3.org/2000/svg">
<path d="m735.3 455.6-695.67-0.076c-6.771 0-11.563-5.423-11.563-12.175l11.868-431.08c0-6.752 5.54-12.276 12.311-12.276h668.91c6.771 0 12.312 5.524 12.312 12.276l13.98 431.08c0 6.752-5.382 12.251-12.153 12.251z" fill="#c0c3b6"/>
<path d="M726.451 445.355l-678.079-.075c-6.6 0-11.27-5.301-11.27-11.901L48.67 12c0-6.6 5.4-12 12-12h652c6.6 0 12 5.4 12 12l13.627 421.379c0 6.6-5.245 11.976-11.846 11.976zM657.773 562.732c8.803 11.458 15.943 24.101 24.717 35.534 10.182 13.269 15.21 28.563 19.9 44.183 7.35 24.48 14.888 48.904 22.397 73.336 11.022 35.855 22.308 71.632 32.951 107.598 2.088 7.056-.384 14.764-.465 22.179-.009.813-.584 1.665-.456 2.425 1.547 9.165-3.26 15.87-8.475 22.489-2.771 3.518-5.222 7.286-7.965 10.826-2.026 2.615-4.106 5.317-7.903 5.428 1.654-4.791 6.043-7.854 7.907-12.534.611-1.533 1.728-2.853 2.343-4.407 1.577-3.985.645-5.604-3.538-6.147-1.656-.216-3.328-.146-4.993-.146-236.929-.004-473.858-.004-710.787.002-9.953 0-10.299.777-5.841 9.753 1.875 3.775 5.489 6.862 5.047 11.653-5.116-1.935-6.452-7.297-9.781-10.858-1.801-1.927-2.857-4.593-4.77-6.364-8.157-7.559-5.734-17.852-7.387-27.105-2.736-15.321 3.437-29.033 7.722-43.039 13.075-42.743 26.354-85.424 39.536-128.134 4.801-15.557 9.734-31.075 14.252-46.714 2.19-7.581 6.727-13.677 11.029-19.978 8.426-12.338 16.928-24.623 25.399-36.93 1.544 2.077.049 3.805-.776 5.485-6.998 14.245-14.478 28.242-21.966 42.232-1.41 2.634-2.745 5.28-3.386 8.234-3.39 12.211-7.505 24.199-10.709 36.448-2.652 10.139 1.116 14.904 11.563 15.099 1.666.031 3.332.013 4.998.013h601.752c1.832 0 3.665.029 5.497-.021 9.862-.266 13.803-5.534 11.174-15.163-1.359-4.979-2.942-9.899-4.443-14.841-2.179-7.172-4.296-14.363-6.473-21.525-.877-4.107-2.896-7.757-4.9-11.373-7.878-14.215-14.977-28.84-22.778-43.094-.769-1.406-1.848-2.896-.392-4.544z" fill="#cfd1ca"/>
<path d="M22.614 884.903c-2.983-5.149-6.049-10.253-8.926-15.46-2.796-5.061-1.345-7.568 4.271-7.71 1-.025 2-.004 3-.004h715.38c1.499 0 3.008-.09 4.497.035 4.069.342 6.391 3.485 4.425 6.879-3.699 6.387-6.054 13.819-12.785 18.086-2.906.828-5.865 1.008-8.885 1.008-229.55-.027-459.1-.029-688.649.005-4.379.001-8.544-.479-12.328-2.839z" fill="#434342"/>
<path d="M71.687 619.892c4.674-10.781 10.56-20.95 15.918-31.384 3.848-7.492 8.19-14.737 11.008-22.728 3.669-9.62 11.021-14.376 20.865-15.998 2.757-.454 5.437-1.368 8.152-2.071 2.551 3.155 1.957 7.062 1.949 10.559-.033 16.313 1.271 32.574 1.586 48.869.117 6.064.959 6.908 6.942 7.131.999.037 1.999.023 2.998.023 76.779.001 153.558-.004 230.337.015 3.686.001 7.329-.087 10.777-1.585 1.681 1.09 2.773-2.106 4.518-.643 3.118 2.564 6.859 2.199 10.505 2.2 66.457.009 132.914.007 199.371.005 11.326 0 22.652.068 33.978-.03 6.537-.058 7.295-.967 7.667-7.571.985-17.441.977-34.916 1.834-52.36.112-2.288-.288-4.726 1.628-6.577 7.13 3.09 13.117 7.403 16.052 14.986 3.924 7.827 7.853 15.652 11.769 23.483 5.632 11.262 12.31 21.991 17.121 33.67-1.389 1.512-3.27 1.485-5.091 1.591-1.83.107-3.664.058-5.497.058-197.932.001-395.863.006-593.794-.043-3.562-.001-7.378.987-10.593-1.6z" fill="#c0c3b6"/>
<path d="M385.633 611.836c-.886-.085-.584 2.093-1.979 1.039-2.275-2.536-1.582-5.672-1.585-8.588-.051-41.783-.029-83.565-.037-125.349-.002-10.114-.284-10.417-10.293-10.418-78.238-.011-156.477.013-234.715-.067-3.82-.004-7.561 1.231-11.39.473l-.063-2.919c.435-10.142.435-10.142 10.919-10.142 167.1 0 334.2.008 501.3-.051 3.742-.001 6.79.062 5.915 5.084.138.304.376.605.385.914.269 9.067.197 7.751-6.769 6.857-1.982-.254-3.99-.154-5.987-.154-77.571-.002-155.143-.004-232.714.001-11.307.001-11.312.015-11.313 11.4-.003 41.116.016 82.232-.034 123.349-.005 2.918.678 6.058-1.64 8.571z" fill="#a6a799"/>
<path d="m379.66 615.89h-244.92a4.038 4.038 0 0 1-4.026-4.025l-5.074-142.94c0-2.215 6.885-2.062 9.1-2.062h244.92a4.037 4.037 0 0 1 4.025 4.025v140.98a4.037 4.037 0 0 1-4.025 4.025z" fill="#cfd1ca"/>
<path d="M385.7 418.743l-314.988-.001c-9.917 0-12.241-2.139-12.012-11.909.979-41.782 2.044-83.562 3.125-125.341.615-23.8 1.351-47.598 1.974-71.397 1.03-39.275 1.836-78.557 3.126-117.824.372-11.315.499-22.633.875-33.946.263-7.899 4.43-12.224 12.392-12.708 1.661-.101 3.332-.064 4.998-.064 199.992-.002 399.984-.003 599.977.01 2.496 0 5.023-.042 7.48.315 5.451.793 9.081 4.554 9.294 10.079.786 20.459 1.403 40.925 2.053 61.389 1.02 32.112 2.004 64.225 3.021 96.336.644 20.299 1.335 40.597 1.979 60.896 1.016 31.945 1.977 63.893 3.031 95.836.4 12.138 1.033 24.268 1.493 36.404.338 8.917-2.663 11.919-11.831 11.919-105.329.008-210.658.006-315.987.006z" fill="#5a5b59"/>
<path d="M71.687 619.892l614.975-.007c4.222 13.805 8.605 27.562 12.591 41.434 1.799 6.261-3.305 12.852-9.881 13.535-1.154.12-2.331.039-3.497.039-204.457.001-408.914.002-613.371-.001-8.147 0-12.232-2.893-13.543-9.628-.601-3.09.813-5.872 1.646-8.691 3.617-12.249 7.374-24.457 11.08-36.681zM379.165 826.879H24.672c-2.818 0-5.815.458-8.038-1.791-2.041-2.065-2.297-4.549-1.425-7.391 9.494-30.953 18.913-61.931 28.349-92.901 2.274-7.465 4.753-14.876 6.724-22.42 1.139-4.36 3.391-5.626 7.804-5.618 75.165.127 150.331.091 225.496.091 138.664 0 277.328.038 415.992-.141 5.541-.008 7.538 2.173 8.937 6.909 6.44 21.813 13.116 43.558 19.68 65.334 4.887 16.212 9.83 32.408 14.55 48.669 1.981 6.827-.04 9.253-7.082 9.254-59.999.009-119.998.005-179.996.005H379.165z" fill="#b5b6a9"/>
<path d="m374.62 611.04h-236.56a4.064 4.064 0 0 1-4.052-4.053l-3.296-130.65c0-2.229 1.542-4.605 3.771-4.605h240.14a4.064 4.064 0 0 1 4.052 4.053v131.2a4.064 4.064 0 0 1-4.052 4.053z" fill="#1a1a1a"/>
<path d="m316.91 405.85c-72.831 0-145.66 1e-3 -218.49-1e-3 -9.296 0-12.716-3.366-12.717-12.529-3e-3 -107.33-3e-3 -214.66 0-321.99 0-8.912 3.49-12.449 12.313-12.449 146.16-5e-3 292.32-6e-3 438.48 1e-3 8.775 0 12.166 3.338 12.167 11.997 9e-3 107.66 9e-3 215.33 0 322.99 0 8.487-3.59 11.978-12.264 11.978-73.163 5e-3 -146.33 2e-3 -219.49 2e-3z" fill="#333"/>
<path d="m686.95 403.89h-130.46a3.806 3.806 0 0 1-3.795-3.795v-116.41a3.806 3.806 0 0 1 3.795-3.795h130.46a3.806 3.806 0 0 1 3.795 3.795v116.41a3.806 3.806 0 0 1-3.795 3.795z" fill="#2d2d2c"/>
<path d="m467.41 660.05-173.41 0.096c-1.115 0-2.494-3.036-2.494-4.151l1.374-17.445c0-1.114 2.165-2.762 3.279-2.762l168.38-0.188c1.114 0 3.844 1.261 3.844 2.375l1.484 18.781c0 1.114-1.345 3.294-2.46 3.294z" fill="#4d4d4d"/>
<path d="m704.01 810.58-648.67 0.296c-6.6 0-5.333-9.041-2.421-14.951l22-72.471c2.255-7.075 3.588-9.589 11.755-9.589h591.25c6.6 0 7.563 1.514 9.404 8.03l19.348 76.368c1.617 6.616 3.936 12.317-2.664 12.317z" fill="#cfd1ca"/>
<path d="m614.92 401.97h-55.492a4.857 4.857 0 0 1-4.843-4.843v-110.49a4.857 4.857 0 0 1 4.843-4.843h55.492a4.858 4.858 0 0 1 4.844 4.843v110.49c-1e-3 2.663-2.18 4.843-4.844 4.843z" fill="#464746"/>
<path d="m594.7 344.86c0 6.081-4.931 11.011-11.012 11.011s-11.011-4.93-11.011-11.011c0-6.082 4.93-11.011 11.011-11.011s11.012 4.929 11.012 11.011z" fill="#1a1a1a"/>
<path d="M138.407 521.801h81.737c.888 0 1.614-.727 1.614-1.614v-1.042c0-.888-.727-1.614-1.614-1.614h-81.737c-.888 0-1.614.727-1.614 1.614v1.042c0 .888.726 1.614 1.614 1.614z" fill="#2d2d2d"/>
<path d="m218.79 535.98h-72.203a2.98 2.98 0 0 1-2.972-2.972v-6.251a2.98 2.98 0 0 1 2.972-2.972h72.203a2.98 2.98 0 0 1 2.972 2.972v6.251a2.98 2.98 0 0 1-2.972 2.972z"/>
<path d="M138.407 541.801h81.682c.888 0 1.614-.727 1.614-1.614v-1.042c0-.888-.727-1.614-1.614-1.614h-81.682c-.888 0-1.614.727-1.614 1.614v1.042c0 .888.726 1.614 1.614 1.614z" fill="#2d2d2d"/>
<path d="M141.063 540.187v-20.833c0-.889-.726-1.614-1.614-1.614h-1.042c-.888 0-1.614.726-1.614 1.614v20.833c0 .888.727 1.614 1.614 1.614h1.042c.888 0 1.614-.726 1.614-1.614zM373.605 537.751h-81.737c-.888 0-1.614.727-1.614 1.614v1.042c0 .888.727 1.614 1.614 1.614h81.737c.888 0 1.614-.727 1.614-1.614v-1.042a1.62 1.62 0 0 0-1.614-1.614zM373.605 517.751h-81.682c-.888 0-1.614.727-1.614 1.614v1.042c0 .888.727 1.614 1.614 1.614h81.682c.888 0 1.614-.727 1.614-1.614v-1.042a1.62 1.62 0 0 0-1.614-1.614z" fill="#2d2d2d"/>
<path d="M370.949 519.366V540.2c0 .888.726 1.614 1.614 1.614h1.042c.888 0 1.614-.727 1.614-1.614v-20.834c0-.888-.727-1.614-1.614-1.614h-1.042a1.618 1.618 0 0 0-1.614 1.614z" fill="#2d2d2d"/>
<path d="m365.43 535.87h-72.203a2.98 2.98 0 0 1-2.972-2.972v-6.252a2.98 2.98 0 0 1 2.972-2.972h72.203a2.982 2.982 0 0 1 2.972 2.972v6.252a2.98 2.98 0 0 1-2.972 2.972zm-140.26 6.042h59.531a3.479 3.479 0 0 1 3.468 3.468v34.119a3.479 3.479 0 0 1-3.468 3.468h-59.531a3.479 3.479 0 0 1-3.468-3.468v-34.119a3.478 3.478 0 0 1 3.468-3.468z"/>
<path d="m220.09 539.89h71.338v2.006h-71.338z" fill="#2d2d2d"/>
<path d="m186.72 572.62c0 2.907-2.255 5.265-5.038 5.265s-5.038-2.357-5.038-5.265 2.255-5.266 5.038-5.266 5.038 2.358 5.038 5.266zm322.72-180.78h-384.62c-6.729 0-12.234-5.505-12.234-12.233v-293.86c0-6.729 5.505-12.233 12.234-12.233h384.62c6.729 0 12.233 5.505 12.233 12.233v293.86c1e-3 6.728-5.504 12.233-12.233 12.233z"/>
<path d="m89.915 455.86h27.757v14.322h-27.757z" fill="#404040"/>
<path d="m122.84 465.94-5.17 4.233v-14.282h5.17z" fill="#343434"/>
<path d="m652.87 455.75h27.757v14.322h-27.757z" fill="#404040"/>
<path d="m647.7 465.84 5.171 4.234v-14.283h-5.171z" fill="#343434"/>
<path d="m576.72 277.4h-19.188c-3.267 0-5.938-2.672-5.938-5.938v-19.189c0-3.266 2.672-5.938 5.938-5.938h19.188c3.266 0 5.938 2.672 5.938 5.938v19.188c0 3.267-2.673 5.939-5.938 5.939z" fill="#2e2e2d"/>
<path d="m575.2 275.84h-16.082c-3.267 0-5.938-2.672-5.938-5.938v-16.082c0-3.266 2.672-5.938 5.938-5.938h16.082c3.266 0 5.938 2.672 5.938 5.938v16.082c0 3.266-2.672 5.938-5.938 5.938z" fill="#464846"/>
<path d="m683.82 277.84h-93.942c-2.99 0-5.438-2.447-5.438-5.437v-20.129c0-2.991 2.447-5.438 5.438-5.438h93.942c2.991 0 5.438 2.447 5.438 5.438v20.129c0 2.99-2.447 5.437-5.438 5.437z" fill="#2e2e2d"/>
<path d="m682.6 276.29h-91.513c-2.99 0-5.438-2.447-5.438-5.437v-17.028c0-2.991 2.447-5.438 5.438-5.438h91.513c2.991 0 5.438 2.447 5.438 5.438v17.028c0 2.99-2.446 5.437-5.438 5.437z" fill="#464846"/>
<path d="m683.93 401.97h-55.492c-2.664 0-4.844-2.18-4.844-4.843v-110.49a4.858 4.858 0 0 1 4.844-4.843h55.492a4.857 4.857 0 0 1 4.843 4.843v110.49c-1e-3 2.663-2.179 4.843-4.843 4.843z" fill="#464746"/>
<path d="m660.39 366.98h-9.516a2.331 2.331 0 0 1-2.324-2.324v-41.595a2.331 2.331 0 0 1 2.324-2.324h9.516a2.331 2.331 0 0 1 2.324 2.324v41.595a2.33 2.33 0 0 1-2.324 2.324z" fill="#1a1a1a"/>
<path d="m660.29 299.87c0 2.216-1.84 4.013-4.109 4.013-2.271 0-4.11-1.797-4.11-4.013s1.84-4.013 4.11-4.013c2.269 0 4.109 1.797 4.109 4.013z" fill="#1b1b1b"/>
<path d="m388.89 615.9h244.92a4.037 4.037 0 0 0 4.025-4.025l5.074-142.94c0-2.214-6.886-2.061-9.1-2.061h-244.92a4.038 4.038 0 0 0-4.026 4.025v140.98a4.038 4.038 0 0 0 4.026 4.025z" fill="#cfd1ca"/>
<path d="m393.93 611.05h236.56a4.065 4.065 0 0 0 4.053-4.053l3.296-130.65c0-2.229-1.542-4.605-3.771-4.605h-240.14a4.065 4.065 0 0 0-4.053 4.053v131.2a4.066 4.066 0 0 0 4.053 4.053z" fill="#1a1a1a"/>
<path d="M630.141 521.812h-81.736a1.619 1.619 0 0 1-1.614-1.614v-1.042c0-.888.727-1.614 1.614-1.614h81.736c.888 0 1.614.727 1.614 1.614v1.042a1.618 1.618 0 0 1-1.614 1.614z" fill="#2d2d2d"/>
<path d="m549.76 536h72.203a2.98 2.98 0 0 0 2.971-2.972v-6.251a2.98 2.98 0 0 0-2.971-2.972h-72.203a2.98 2.98 0 0 0-2.972 2.972v6.251a2.982 2.982 0 0 0 2.972 2.972z"/>
<path d="M630.141 541.812H548.46a1.619 1.619 0 0 1-1.614-1.614v-1.042c0-.888.727-1.614 1.614-1.614h81.682c.888 0 1.614.727 1.614 1.614v1.042a1.62 1.62 0 0 1-1.615 1.614z" fill="#2d2d2d"/>
<path d="M627.486 540.198v-20.834c0-.888.727-1.614 1.614-1.614h1.041c.888 0 1.614.727 1.614 1.614v20.834c0 .888-.727 1.614-1.614 1.614H629.1a1.62 1.62 0 0 1-1.614-1.614zM394.944 537.762h81.737c.888 0 1.613.727 1.613 1.614v1.042c0 .888-.726 1.614-1.613 1.614h-81.737a1.619 1.619 0 0 1-1.614-1.614v-1.042c0-.887.726-1.614 1.614-1.614zM394.944 517.762h81.682c.888 0 1.614.727 1.614 1.614v1.042c0 .888-.727 1.614-1.614 1.614h-81.682a1.619 1.619 0 0 1-1.614-1.614v-1.042c0-.887.726-1.614 1.614-1.614z" fill="#2d2d2d"/>
<path d="M397.6 519.376v20.833c0 .888-.727 1.614-1.614 1.614h-1.042a1.619 1.619 0 0 1-1.614-1.614v-20.833c0-.888.727-1.614 1.614-1.614h1.042c.888 0 1.614.727 1.614 1.614z" fill="#2d2d2d"/>
<path d="m403.12 535.88h72.203a2.98 2.98 0 0 0 2.971-2.972v-6.252a2.98 2.98 0 0 0-2.971-2.972h-72.203a2.98 2.98 0 0 0-2.972 2.972v6.252a2.98 2.98 0 0 0 2.972 2.972zm140.26 6.042h-59.53a3.48 3.48 0 0 0-3.469 3.468v34.119a3.48 3.48 0 0 0 3.469 3.468h59.53a3.479 3.479 0 0 0 3.468-3.468v-34.119a3.48 3.48 0 0 0-3.468-3.468z"/>
<path d="m477.12 539.9h71.338v2.006h-71.338z" fill="#2d2d2d"/>
<path d="m445.95 572.63c0 2.908-2.255 5.266-5.037 5.266s-5.038-2.357-5.038-5.266c0-2.907 2.256-5.265 5.038-5.265s5.037 2.358 5.037 5.265z"/>
<path d="M558.488 258.136l.021-.032c1.143-1.766 2.944-2.8 4.639-2.8 1.725 0 2.81.95 4.235.95 1.384 0 2.227-.951 4.222-.951 1.507 0 3.104.824 4.242 2.25a5.14 5.14 0 0 0-.852.585l-16.507-.002z" fill="#61bb46"/>
<path d="M570.091 253.711c.725-.934 1.275-2.252 1.075-3.6-1.184.082-2.568.838-3.377 1.823-.733.895-1.339 2.222-1.104 3.512 1.292.041 2.629-.734 3.406-1.735z" fill="#61bb46"/>
<path d="M558.429 258.11c-.492.774-.833 1.883-.923 2.856h15.957c.173-1.064.747-2.081 1.656-2.854l-16.69-.002z" fill="#fdb827"/>
<path d="m557.65 263.8a10.794 10.794 0 0 1-0.083-2.831h15.834a5.045 5.045 0 0 0 0.366 2.832l-16.117-1e-3z" fill="#f5821f"/>
<path d="M558.426 266.626a13.396 13.396 0 0 1-.774-2.83h16.117a4.826 4.826 0 0 0 2.723 2.583l-.111.248-17.955-.001z" fill="#e03a3e"/>
<path d="M576.38 266.627c-.446.986-.705 1.497-1.323 2.441-.083.127-.169.256-.258.387l-14.878.001-.141-.213a14.326 14.326 0 0 1-1.354-2.618l17.954.002z" fill="#963d97"/>
<path d="M574.799 269.456c-.91 1.339-2.132 2.812-3.615 2.826-1.446.013-1.817-.945-3.78-.935s-2.372.951-3.819.938c-1.546-.014-2.747-1.461-3.663-2.828l14.877-.001z" fill="#009ddc"/>
<path d="M317.847 570.677l.042-.065c2.29-3.541 5.903-5.614 9.301-5.614 3.459 0 5.634 1.904 8.494 1.904 2.775 0 4.465-1.906 8.464-1.906 3.022 0 6.226 1.652 8.508 4.51-.631.347-1.2.74-1.709 1.174l-33.1-.003z" fill="#61bb46"/>
<path d="M341.114 561.804c1.452-1.872 2.556-4.516 2.156-7.219-2.374.163-5.15 1.681-6.771 3.656-1.472 1.795-2.686 4.456-2.213 7.042 2.59.082 5.271-1.473 6.828-3.479z" fill="#61bb46"/>
<path d="M317.729 570.624c-.986 1.552-1.668 3.776-1.85 5.727l31.999-.001c.346-2.134 1.497-4.173 3.32-5.724l-33.469-.002h.002-.002z" fill="#fdb827"/>
<path d="M316.17 582.027c-.311-1.992-.361-3.913-.166-5.676l31.75-.001c-.311 1.911-.05 3.9.735 5.678l-32.319-.001z" fill="#f5821f"/>
<path d="M317.721 587.703a26.866 26.866 0 0 1-1.552-5.676l32.319.001a9.664 9.664 0 0 0 5.459 5.179l-.224.498-36.002-.002z" fill="#e03a3e"/>
<path d="M353.724 587.704c-.895 1.977-1.414 3.002-2.653 4.896a52.38 52.38 0 0 1-.518.776l-29.832.003-.284-.428a29.033 29.033 0 0 1-2.716-5.25l36.003.003z" fill="#963d97"/>
<path d="M350.553 593.376c-1.825 2.685-4.275 5.639-7.248 5.667-2.901.026-3.645-1.896-7.581-1.874-3.936.021-4.757 1.907-7.658 1.88-3.102-.028-5.51-2.93-7.346-5.67l29.833-.003z" fill="#009ddc"/>
<path d="M574.531 570.75l.042-.064c2.29-3.541 5.902-5.614 9.3-5.614 3.46 0 5.635 1.904 8.494 1.904 2.774 0 4.465-1.907 8.465-1.907 3.021 0 6.226 1.653 8.508 4.51-.631.348-1.2.741-1.709 1.175l-33.1-.004z" fill="#61bb46"/>
<path d="M597.798 561.878c1.452-1.872 2.557-4.516 2.156-7.219-2.374.163-5.15 1.681-6.771 3.656-1.472 1.795-2.687 4.456-2.214 7.042 2.591.081 5.272-1.473 6.829-3.479z" fill="#61bb46"/>
<path d="m574.41 570.7c-0.986 1.552-1.669 3.775-1.85 5.727l31.998-1e-3c0.346-2.134 1.497-4.173 3.32-5.724l-33.468-2e-3h2e-3 -2e-3z" fill="#fdb827"/>
<path d="M572.853 582.101c-.311-1.992-.361-3.913-.166-5.676l31.75-.001c-.311 1.911-.051 3.9.735 5.678l-32.319-.001z" fill="#f5821f"/>
<path d="M574.405 587.776a26.841 26.841 0 0 1-1.552-5.675l32.319.001a9.664 9.664 0 0 0 5.459 5.179l-.224.498-36.002-.003z" fill="#e03a3e"/>
<path d="M610.408 587.779c-.896 1.976-1.414 3.002-2.653 4.896-.166.254-.339.514-.518.776l-29.832.003-.284-.428a28.97 28.97 0 0 1-2.716-5.25l36.003.003z" fill="#963d97"/>
<path d="M607.237 593.451c-1.825 2.685-4.275 5.639-7.248 5.667-2.901.026-3.646-1.896-7.581-1.874-3.936.021-4.757 1.907-7.658 1.88-3.101-.028-5.51-2.93-7.345-5.67l29.832-.003z" fill="#009ddc"/>
<path d="M306.891 645.642l.04-.028c2.175-1.524 5.606-2.417 8.832-2.417 3.285 0 5.351.82 8.066.82 2.635 0 4.24-.821 8.038-.821 2.87 0 5.913.711 8.08 1.941-.599.149-1.14.319-1.623.506l-31.433-.001z" fill="#61bb46"/>
<path d="M328.986 641.822c1.379-.807 2.427-1.944 2.047-3.108-2.254.07-4.891.724-6.431 1.574-1.397.772-2.551 1.919-2.102 3.032 2.462.035 5.007-.635 6.486-1.498z" fill="#61bb46"/>
<path d="M306.779 645.62c-.937.668-1.584 1.626-1.757 2.466h30.387c.329-.919 1.421-1.797 3.153-2.465l-31.783-.001h.002-.002z" fill="#fdb827"/>
<path d="M305.298 650.53c-.295-.858-.343-1.686-.157-2.444h30.15c-.295.823-.047 1.68.699 2.444h-30.692z" fill="#f5821f"/>
<path d="M306.771 652.973c-.712-.82-1.199-1.646-1.474-2.443h30.691c.95.976 2.708 1.805 5.184 2.23l-.213.215-34.188-.002z" fill="#e03a3e"/>
<path d="M340.96 652.974c-.85.852-1.343 1.293-2.519 2.108-.158.109-.322.222-.492.335l-28.329.001-.27-.185c-1.059-.734-1.917-1.496-2.579-2.261l34.189.002z" fill="#963d97"/>
<path d="M337.949 655.417c-1.733 1.155-4.06 2.428-6.882 2.439-2.755.012-3.461-.816-7.199-.807-3.737.01-4.518.821-7.272.81-2.945-.013-5.232-1.262-6.976-2.441l28.329-.001z" fill="#009ddc"/>
<path d="M409.618 642.593v10.521h4.989v-10.521h-4.989zm32.228 0v1.466h2.922c.155 0 .305.032.415.09.109.058.171.136.171.217v6.979c0 .08-.062.158-.171.217a.904.904 0 0 1-.415.089h-2.922v1.469h7.83v-10.526h-7.83zm10.119 0v10.526h7.83v-1.468h-2.922c-.155 0-.305-.032-.414-.09s-.171-.136-.17-.217v-6.979c-.002-.081.061-.159.17-.217s.259-.09.414-.09h2.922v-1.466h-7.83zm-99.231 2.515c-2.336 0-4.24.391-5.829 1.196-1.6.811-2.36 1.711-2.36 2.758 0 1.032.797 1.945 2.49 2.796 1.688.848 3.573 1.257 5.757 1.257h3.2v-1.9h-1.353c-1.231 0-2.331-.204-3.19-.604-.859-.398-1.324-.93-1.324-1.521 0-.597.456-1.128 1.305-1.511.844-.381 1.927-.571 3.152-.571h3.401a.91.91 0 0 1 .414.09c.11.058.172.136.171.217v5.801h4.99v-8.008h-10.824zm13.908 0v10.521h4.994v-8.313c0-.081.061-.16.171-.218s.259-.089.414-.089h3.167c1.318 0 2.496.232 3.42.684.855.418 1.329.94 1.329 1.508 0 .588-.512 1.112-1.434 1.477-.912.359-2.042.538-3.315.538h-1.175v1.9h3.344c2.3 0 4.201-.378 5.8-1.149 1.598-.77 2.36-1.671 2.36-2.777 0-1.146-.764-2.087-2.355-2.889-1.593-.803-3.452-1.191-5.685-1.191h-11.035zm21.488 0v10.521h4.989v-8.313c0-.081.061-.16.171-.218s.258-.089.415-.089h3.17c1.318 0 2.495.232 3.42.684.854.418 1.329.94 1.33 1.508-.001.589-.519 1.112-1.439 1.477-.911.359-2.037.538-3.312.538h-1.177v1.9h3.344c2.301 0 4.196-.378 5.796-1.149 1.599-.77 2.36-1.671 2.36-2.777 0-1.146-.764-2.087-2.355-2.889-1.593-.803-3.448-1.191-5.681-1.191H388.13zm38.581 0c-2.62 0-4.854.405-6.788 1.229-1.939.826-2.836 1.718-2.836 2.738 0 1.229.922 2.184 2.874 2.956 1.829.722 4.046 1.084 6.722 1.084h9.824v-1.9h-9.326c-1.217 0-2.311-.209-3.176-.611-.871-.404-1.344-.948-1.344-1.557 0-.579.456-1.096 1.291-1.473.842-.38 1.951-.565 3.229-.565h3.167c.225-.001.431.066.527.173.098.106.069.232-.071.324l-3.589 2.369h5.483l3.81-2.66v-2.106h-9.797z" fill="#fff"/>
<path d="M545.503 810.626h-319.68l.597-20.504h-57.625l-3.375 20.504h-41.25l5.375-21.526 4.951-.346.549-18.597 2.375-.525.93-18.42h-6.993l.813-17.373 23.166-.12.653-19.853h484.118l1.125 14.614 2.313 1.972v20.453l-2.208-.062.714 18.07-3.007.412 1.653 22.087-95.923.501z" fill="#1d1c15"/>
<path d="m232.65 797.18-5.141 13.46v-19.405l5.141-4.172z" fill="#9e9c97"/>
<path d="m183.84 572.62c0 1.251-0.97 2.265-2.167 2.265s-2.167-1.014-2.167-2.265 0.97-2.266 2.167-2.266 2.167 1.015 2.167 2.266zm259.24 0.01c0 1.251-0.97 2.266-2.167 2.266s-2.167-1.015-2.167-2.266c0-1.25 0.97-2.265 2.167-2.265s2.167 1.015 2.167 2.265z" fill="#9e2639"/>
<path d="m188.14 717.94h-25.977v-8.48c0-1.375 1.125-2.5 2.5-2.5h20.977c1.375 0 2.5 1.125 2.5 2.5v8.48z" fill="#4e4945"/>
<path d="m162.16 718.1-5.141 14.264v-18.529l5.141-5.049z" fill="#9e9c97"/>
<path d="m193.28 732.36h-36.259l5.141-14.43h25.977z" fill="#cdcac9"/>
<path d="m188.14 717.94 5.141 14.264v-18.529l-5.141-5.049z" fill="#9e9c97"/>
<path d="m226.97 717.94h-25.977v-8.48c0-1.375 1.125-2.5 2.5-2.5h20.977c1.375 0 2.5 1.125 2.5 2.5v8.48z" fill="#4e4945"/>
<path d="m200.99 718.1-5.141 14.264v-18.529l5.141-5.049z" fill="#9e9c97"/>
<path d="m232.11 732.36h-36.259l5.141-14.43h25.977z" fill="#cdcac9"/>
<path d="m226.97 717.94 5.141 14.264v-18.529l-5.141-5.049z" fill="#9e9c97"/>
<path d="m265.93 717.94h-25.977v-8.48c0-1.375 1.125-2.5 2.5-2.5h20.977c1.375 0 2.5 1.125 2.5 2.5v8.48z" fill="#4e4945"/>
<path d="m239.96 718.1-5.141 14.264v-18.529l5.141-5.049z" fill="#9e9c97"/>
<path d="m271.07 732.36h-36.259l5.141-14.43h25.977z" fill="#cdcac9"/>
<path d="m265.93 717.94 5.141 14.264v-18.529l-5.141-5.049z" fill="#9e9c97"/>
<path d="m305.03 717.94h-25.977v-8.48c0-1.375 1.125-2.5 2.5-2.5h20.977c1.375 0 2.5 1.125 2.5 2.5v8.48z" fill="#4e4945"/>
<path d="m279.06 718.1-5.141 14.264v-18.529l5.141-5.049z" fill="#9e9c97"/>
<path d="m310.17 732.36h-36.259l5.141-14.43h25.977z" fill="#cdcac9"/>
<path d="m305.03 717.94 5.141 14.264v-18.529l-5.141-5.049z" fill="#9e9c97"/>
<path d="m344 717.94h-25.976v-8.48c0-1.375 1.125-2.5 2.5-2.5h20.976c1.375 0 2.5 1.125 2.5 2.5v8.48z" fill="#4e4945"/>
<path d="m318.02 718.1-5.141 14.264v-18.529l5.141-5.049z" fill="#9e9c97"/>
<path d="m349.14 732.36h-36.258l5.141-14.43h25.976z" fill="#cdcac9"/>
<path d="m344 717.94 5.141 14.264v-18.529l-5.141-5.049z" fill="#9e9c97"/>
<path d="m382.69 717.94h-25.977v-8.48c0-1.375 1.125-2.5 2.5-2.5h20.977c1.375 0 2.5 1.125 2.5 2.5v8.48z" fill="#4e4945"/>
<path d="m356.72 718.1-5.141 14.264v-18.529l5.141-5.049z" fill="#9e9c97"/>
<path d="m387.83 732.36h-36.259l5.141-14.43h25.977z" fill="#cdcac9"/>
<path d="m382.69 717.94 5.141 14.264v-18.529l-5.141-5.049z" fill="#9e9c97"/>
<path d="m421.93 717.94h-25.976v-8.48c0-1.375 1.125-2.5 2.5-2.5h20.977c1.375 0 2.5 1.125 2.5 2.5v8.48z" fill="#4e4945"/>
<path d="m395.95 718.1-5.141 14.264v-18.529l5.141-5.049z" fill="#9e9c97"/>
<path d="m427.07 732.36h-36.259l5.141-14.43h25.976z" fill="#cdcac9"/>
<path d="m421.93 717.94 5.142 14.264v-18.529l-5.142-5.049z" fill="#9e9c97"/>
<path d="m460.62 717.94h-25.977v-8.48c0-1.375 1.125-2.5 2.5-2.5h20.977c1.375 0 2.5 1.125 2.5 2.5v8.48z" fill="#4e4945"/>
<path d="m434.64 718.1-5.14 14.264v-18.529l5.14-5.049z" fill="#9e9c97"/>
<path d="m465.76 732.36h-36.258l5.14-14.43h25.977z" fill="#cdcac9"/>
<path d="m460.62 717.94 5.141 14.264v-18.529l-5.141-5.049z" fill="#9e9c97"/>
<path d="m499.59 717.94h-25.977v-8.48c0-1.375 1.125-2.5 2.5-2.5h20.977c1.375 0 2.5 1.125 2.5 2.5v8.48z" fill="#4e4945"/>
<path d="m473.61 718.1-5.142 14.264v-18.529l5.142-5.049z" fill="#9e9c97"/>
<path d="m504.73 732.36h-36.259l5.142-14.43h25.977z" fill="#cdcac9"/>
<path d="m499.59 717.94 5.14 14.264v-18.529l-5.14-5.049z" fill="#9e9c97"/>
<path d="m538.55 717.94h-25.977v-8.48c0-1.375 1.125-2.5 2.5-2.5h20.977c1.375 0 2.5 1.125 2.5 2.5v8.48z" fill="#4e4945"/>
<path d="m512.57 718.1-5.142 14.264v-18.529l5.142-5.049z" fill="#9e9c97"/>
<path d="m543.69 732.36h-36.259l5.142-14.43h25.977z" fill="#cdcac9"/>
<path d="m538.55 717.94 5.14 14.264v-18.529l-5.14-5.049z" fill="#9e9c97"/>
<path d="m577.79 717.94h-25.977v-8.48c0-1.375 1.125-2.5 2.5-2.5h20.977c1.375 0 2.5 1.125 2.5 2.5v8.48z" fill="#4e4945"/>
<path d="m551.81 718.1-5.141 14.264v-18.529l5.141-5.049z" fill="#9e9c97"/>
<path d="m582.93 732.36h-36.259l5.141-14.43h25.977z" fill="#cdcac9"/>
<path d="m577.79 717.94 5.141 14.264v-18.529l-5.141-5.049z" fill="#9e9c97"/>
<path d="m631.81 717.94h-38.694v-8.48c0-1.375 1.125-2.5 2.5-2.5h33.694c1.375 0 2.5 1.125 2.5 2.5v8.48z" fill="#4e4945"/>
<path d="m593.12 718.1-7.442 14.264v-18.384l7.442-5.194zm38.694-0.162 7.442 14.264v-18.384l-7.442-5.194z" fill="#9e9c97"/>
<path d="m639.26 732.36h-53.578l7.442-14.43h38.694z" fill="#cdcac9"/>
<path d="m164.33 736.13h-25.977v-8.479c0-1.375 1.125-2.5 2.5-2.5h20.977c1.375 0 2.5 1.125 2.5 2.5v8.479z" fill="#4e4945"/>
<path d="m138.35 736.3-5.141 14.265v-18.529l5.141-5.049z" fill="#9e9c97"/>
<path d="m169.47 750.56h-36.259l5.141-14.431h25.977z" fill="#cdcac9"/>
<path d="m164.33 736.13 5.141 14.265v-18.529l-5.141-5.048z" fill="#9e9c97"/>
<path d="m203.16 736.13h-25.976v-8.479c0-1.375 1.125-2.5 2.5-2.5h20.977c1.375 0 2.5 1.125 2.5 2.5v8.479z" fill="#4e4945"/>
<path d="m177.18 736.3-5.141 14.265v-18.529l5.141-5.049z" fill="#9e9c97"/>
<path d="m208.3 750.56h-36.259l5.141-14.431h25.976z" fill="#cdcac9"/>
<path d="m203.16 736.13 5.142 14.265v-18.529l-5.142-5.048z" fill="#9e9c97"/>
<path d="m242.12 736.13h-25.976v-8.479c0-1.375 1.125-2.5 2.5-2.5h20.976c1.375 0 2.5 1.125 2.5 2.5v8.479z" fill="#4e4945"/>
<path d="m216.14 736.3-5.141 14.265v-18.529l5.141-5.049z" fill="#9e9c97"/>
<path d="m247.26 750.56h-36.258l5.141-14.431h25.976z" fill="#cdcac9"/>
<path d="m242.12 736.13 5.141 14.265v-18.529l-5.141-5.048z" fill="#9e9c97"/>
<path d="m281.22 736.13h-25.977v-8.479c0-1.375 1.125-2.5 2.5-2.5h20.977c1.375 0 2.5 1.125 2.5 2.5v8.479z" fill="#4e4945"/>
<path d="m255.24 736.3-5.141 14.265v-18.529l5.141-5.049z" fill="#9e9c97"/>
<path d="m286.36 750.56h-36.259l5.141-14.431h25.977z" fill="#cdcac9"/>
<path d="m281.22 736.13 5.141 14.265v-18.529l-5.141-5.048z" fill="#9e9c97"/>
<path d="m320.19 736.13h-25.977v-8.479c0-1.375 1.125-2.5 2.5-2.5h20.977c1.375 0 2.5 1.125 2.5 2.5v8.479z" fill="#4e4945"/>
<path d="m294.21 736.3-5.141 14.265v-18.529l5.141-5.049z" fill="#9e9c97"/>
<path d="m325.33 750.56h-36.259l5.141-14.431h25.977z" fill="#cdcac9"/>
<path d="m320.19 736.13 5.141 14.265v-18.529l-5.141-5.048z" fill="#9e9c97"/>
<path d="m358.88 736.13h-25.976v-8.479c0-1.375 1.125-2.5 2.5-2.5h20.976c1.375 0 2.5 1.125 2.5 2.5v8.479z" fill="#4e4945"/>
<path d="m332.9 736.3-5.142 14.265v-18.529l5.142-5.049z" fill="#9e9c97"/>
<path d="m364.02 750.56h-36.259l5.142-14.431h25.976z" fill="#cdcac9"/>
<path d="m358.88 736.13 5.141 14.265v-18.529l-5.141-5.048z" fill="#9e9c97"/>
<path d="m398.12 736.13h-25.977v-8.479c0-1.375 1.125-2.5 2.5-2.5h20.977c1.375 0 2.5 1.125 2.5 2.5v8.479z" fill="#4e4945"/>
<path d="m372.14 736.3-5.141 14.265v-18.529l5.141-5.049z" fill="#9e9c97"/>
<path d="m403.26 750.56h-36.26l5.141-14.431h25.977z" fill="#cdcac9"/>
<path d="m398.12 736.13 5.142 14.265v-18.529l-5.142-5.048z" fill="#9e9c97"/>
<path d="m436.81 736.13h-25.977v-8.479c0-1.375 1.125-2.5 2.5-2.5h20.977c1.375 0 2.5 1.125 2.5 2.5v8.479z" fill="#4e4945"/>
<path d="m410.83 736.3-5.142 14.265v-18.529l5.142-5.049z" fill="#9e9c97"/>
<path d="m441.95 750.56h-36.259l5.142-14.431h25.976z" fill="#cdcac9"/>
<path d="m436.81 736.13 5.141 14.265v-18.529l-5.141-5.048z" fill="#9e9c97"/>
<path d="m475.77 736.13h-25.977v-8.479c0-1.375 1.125-2.5 2.5-2.5h20.977c1.375 0 2.5 1.125 2.5 2.5v8.479z" fill="#4e4945"/>
<path d="m449.8 736.3-5.142 14.265v-18.529l5.142-5.049z" fill="#9e9c97"/>
<path d="m480.92 750.56h-36.259l5.142-14.431h25.976z" fill="#cdcac9"/>
<path d="m475.77 736.13 5.141 14.265v-18.529l-5.141-5.048z" fill="#9e9c97"/>
<path d="m514.74 736.13h-25.977v-8.479c0-1.375 1.125-2.5 2.5-2.5h20.977c1.375 0 2.5 1.125 2.5 2.5v8.479z" fill="#4e4945"/>
<path d="m488.76 736.3-5.141 14.265v-18.529l5.141-5.049z" fill="#9e9c97"/>
<path d="m519.88 750.56h-36.259l5.141-14.431h25.977z" fill="#cdcac9"/>
<path d="m514.74 736.13 5.141 14.265v-18.529l-5.141-5.048z" fill="#9e9c97"/>
<path d="m553.97 736.13h-25.976v-8.479c0-1.375 1.125-2.5 2.5-2.5h20.976c1.375 0 2.5 1.125 2.5 2.5v8.479z" fill="#4e4945"/>
<path d="m528 736.3-5.142 14.265v-18.529l5.142-5.049z" fill="#9e9c97"/>
<path d="m559.12 750.56h-36.259l5.142-14.431h25.975z" fill="#cdcac9"/>
<path d="m553.97 736.13 5.142 14.265v-18.529l-5.142-5.048z" fill="#9e9c97"/>
<path d="m636.04 735.32h-31.268v-8.479c0-1.375 1.125-2.5 2.5-2.5h26.268c1.375 0 2.5 1.125 2.5 2.5v8.479z" fill="#4e4945"/>
<path d="m604.77 735.49-6.012 14.263v-18.383l6.012-5.194zm31.268-0.162 6.014 14.263v-18.384l-6.014-5.193z" fill="#9e9c97"/>
<path d="m642.05 749.75h-43.294l6.012-14.429h31.268z" fill="#cdcac9"/>
<path d="m591.86 736.08h-25.976v-8.479c0-1.375 1.125-2.5 2.5-2.5h20.977c1.375 0 2.5 1.125 2.5 2.5v8.479z" fill="#4e4945"/>
<path d="m565.88 736.24-5.141 14.264v-18.528l5.141-5.049z" fill="#9e9c97"/>
<path d="m597 750.5h-36.259l5.141-14.43h25.976z" fill="#cdcac9"/>
<path d="m591.86 736.08 5.142 14.265v-18.528l-5.142-5.049z" fill="#9e9c97"/>
<path d="m170.08 754.32h-25.977v-8.48c0-1.375 1.125-2.5 2.5-2.5h20.977c1.375 0 2.5 1.125 2.5 2.5v8.48z" fill="#4e4945"/>
<path d="m144.1 754.49-5.141 14.263v-18.528l5.141-5.049z" fill="#9e9c97"/>
<path d="m175.22 768.75h-36.259l5.141-14.429h25.977z" fill="#cdcac9"/>
<path d="m170.08 754.33 5.141 14.264v-18.528l-5.141-5.049z" fill="#9e9c97"/>
<path d="m208.91 754.32h-25.976v-8.48c0-1.375 1.125-2.5 2.5-2.5h20.977c1.375 0 2.5 1.125 2.5 2.5v8.48z" fill="#4e4945"/>
<path d="m182.93 754.49-5.141 14.263v-18.528l5.141-5.049z" fill="#9e9c97"/>
<path d="m214.05 768.75h-36.259l5.141-14.429h25.976z" fill="#cdcac9"/>
<path d="m208.91 754.33 5.142 14.264v-18.528l-5.142-5.049z" fill="#9e9c97"/>
<path d="m247.87 754.32h-25.976v-8.48c0-1.375 1.125-2.5 2.5-2.5h20.976c1.375 0 2.5 1.125 2.5 2.5v8.48z" fill="#4e4945"/>
<path d="m221.9 754.49-5.142 14.263v-18.528l5.142-5.049z" fill="#9e9c97"/>
<path d="m253.01 768.75h-36.259l5.142-14.429h25.976z" fill="#cdcac9"/>
<path d="m247.87 754.33 5.141 14.264v-18.528l-5.141-5.049z" fill="#9e9c97"/>
<path d="m286.97 754.32h-25.977v-8.48c0-1.375 1.125-2.5 2.5-2.5h20.977c1.375 0 2.5 1.125 2.5 2.5v8.48z" fill="#4e4945"/>
<path d="m260.99 754.49-5.141 14.263v-18.528l5.141-5.049z" fill="#9e9c97"/>
<path d="m292.11 768.75h-36.259l5.141-14.429h25.977z" fill="#cdcac9"/>
<path d="m286.97 754.33 5.141 14.264v-18.528l-5.141-5.049z" fill="#9e9c97"/>
<path d="m325.94 754.32h-25.977v-8.48c0-1.375 1.125-2.5 2.5-2.5h20.977c1.375 0 2.5 1.125 2.5 2.5v8.48z" fill="#4e4945"/>
<path d="m299.96 754.49-5.141 14.263v-18.528l5.141-5.049z" fill="#9e9c97"/>
<path d="m331.08 768.75h-36.259l5.141-14.429h25.977z" fill="#cdcac9"/>
<path d="m325.94 754.33 5.141 14.264v-18.528l-5.141-5.049z" fill="#9e9c97"/>
<path d="m364.63 754.32h-25.976v-8.48c0-1.375 1.125-2.5 2.5-2.5h20.976c1.375 0 2.5 1.125 2.5 2.5v8.48z" fill="#4e4945"/>
<path d="m338.65 754.49-5.142 14.263v-18.528l5.142-5.049z" fill="#9e9c97"/>
<path d="m369.77 768.75h-36.259l5.142-14.429h25.976z" fill="#cdcac9"/>
<path d="m364.63 754.33 5.141 14.264v-18.528l-5.141-5.049z" fill="#9e9c97"/>
<path d="m403.86 754.32h-25.977v-8.48c0-1.375 1.125-2.5 2.5-2.5h20.977c1.375 0 2.5 1.125 2.5 2.5v8.48z" fill="#4e4945"/>
<path d="m377.89 754.49-5.141 14.263v-18.528l5.141-5.049z" fill="#9e9c97"/>
<path d="m409.01 768.75h-36.26l5.141-14.429h25.977z" fill="#cdcac9"/>
<path d="m403.86 754.33 5.142 14.264v-18.528l-5.142-5.049z" fill="#9e9c97"/>
<path d="m442.56 754.32h-25.977v-8.48c0-1.375 1.125-2.5 2.5-2.5h20.977c1.375 0 2.5 1.125 2.5 2.5v8.48z" fill="#4e4945"/>
<path d="m416.58 754.49-5.142 14.263v-18.528l5.142-5.049z" fill="#9e9c97"/>
<path d="m447.7 768.75h-36.259l5.142-14.429h25.976z" fill="#cdcac9"/>
<path d="m442.56 754.33 5.141 14.264v-18.528l-5.141-5.049z" fill="#9e9c97"/>
<path d="m481.52 754.32h-25.977v-8.48c0-1.375 1.125-2.5 2.5-2.5h20.977c1.375 0 2.5 1.125 2.5 2.5v8.48z" fill="#4e4945"/>
<path d="m455.55 754.49-5.142 14.263v-18.528l5.142-5.049z" fill="#9e9c97"/>
<path d="m486.66 768.75h-36.259l5.142-14.429h25.976z" fill="#cdcac9"/>
<path d="m481.52 754.33 5.141 14.264v-18.528l-5.141-5.049z" fill="#9e9c97"/>
<path d="m520.49 754.32h-25.977v-8.48c0-1.375 1.125-2.5 2.5-2.5h20.977c1.375 0 2.5 1.125 2.5 2.5v8.48z" fill="#4e4945"/>
<path d="m494.51 754.49-5.141 14.263v-18.528l5.141-5.049z" fill="#9e9c97"/>
<path d="m525.63 768.75h-36.259l5.141-14.429h25.977z" fill="#cdcac9"/>
<path d="m520.49 754.33 5.141 14.264v-18.528l-5.141-5.049z" fill="#9e9c97"/>
<path d="m559.72 754.32h-25.976v-8.48c0-1.375 1.125-2.5 2.5-2.5h20.976c1.375 0 2.5 1.125 2.5 2.5v8.48z" fill="#4e4945"/>
<path d="m533.75 754.49-5.142 14.263v-18.528l5.142-5.049z" fill="#9e9c97"/>
<path d="m564.86 768.75h-36.259l5.142-14.429h25.975z" fill="#cdcac9"/>
<path d="m559.72 754.33 5.142 14.264v-18.528l-5.142-5.049z" fill="#9e9c97"/>
<path d="m597.61 754.27h-25.976v-8.479c0-1.375 1.125-2.5 2.5-2.5h20.977c1.375 0 2.5 1.125 2.5 2.5v8.479z" fill="#4e4945"/>
<path d="m571.63 754.44-5.141 14.264v-18.529l5.141-5.049z" fill="#9e9c97"/>
<path d="m602.75 768.7h-36.259l5.141-14.43h25.976z" fill="#cdcac9"/>
<path d="m597.61 754.27 5.142 14.263v-18.528l-5.142-5.049z" fill="#9e9c97"/>
<path d="m635.56 754.27h-25.976v-8.479c0-1.375 1.125-2.5 2.5-2.5h20.977c1.375 0 2.5 1.125 2.5 2.5v8.479z" fill="#4e4945"/>
<path d="m609.58 754.44-5.142 14.264v-18.529l5.142-5.049z" fill="#9e9c97"/>
<path d="m640.7 768.7h-36.259l5.142-14.43h25.976z" fill="#cdcac9"/>
<path d="m635.56 754.27 5.141 14.263v-18.528l-5.141-5.049z" fill="#9e9c97"/>
<path d="m181.94 775.23h-38.694v-8.48c0-1.375 1.125-2.5 2.5-2.5h33.694c1.375 0 2.5 1.125 2.5 2.5v8.48z" fill="#4e4945"/>
<path d="m143.24 775.4-7.441 14.263v-18.383l7.441-5.194zm38.695-0.162 7.441 14.263v-18.383l-7.441-5.194z" fill="#9e9c97"/>
<path d="m189.38 789.66h-53.577l7.441-14.429h38.695z" fill="#cdcac9"/>
<path d="m630.31 774.89h-40.551v-8.479c0-1.375 1.125-2.5 2.5-2.5h35.551c1.375 0 2.5 1.125 2.5 2.5v8.479z" fill="#4e4945"/>
<path d="m589.76 775.06-7.799 14.264v-18.384l7.799-5.194zm40.55-0.162 7.798 14.264v-18.384l-7.798-5.194z" fill="#9e9c97"/>
<path d="m638.1 789.32h-56.147l7.799-14.431h40.55z" fill="#cdcac9"/>
<path d="m222.91 775.65h-25.977v-8.479c0-1.375 1.125-2.5 2.5-2.5h20.977c1.375 0 2.5 1.125 2.5 2.5v8.479z" fill="#4e4945"/>
<path d="m196.93 775.81-5.141 14.264v-18.529l5.141-5.049z" fill="#9e9c97"/>
<path d="m228.05 790.08h-36.259l5.141-14.43h25.976z" fill="#cdcac9"/>
<path d="m222.91 775.65 5.142 14.263v-18.528l-5.142-5.049z" fill="#9e9c97"/>
<path d="m261.74 775.65h-25.976v-8.479c0-1.375 1.125-2.5 2.5-2.5h20.976c1.375 0 2.5 1.125 2.5 2.5v8.479z" fill="#4e4945"/>
<path d="m235.76 775.81-5.141 14.264v-18.529l5.141-5.049z" fill="#9e9c97"/>
<path d="m266.88 790.08h-36.259l5.141-14.43h25.976z" fill="#cdcac9"/>
<path d="m261.74 775.65 5.142 14.263v-18.528l-5.142-5.049z" fill="#9e9c97"/>
<path d="m300.7 775.65h-25.977v-8.479c0-1.375 1.125-2.5 2.5-2.5h20.977c1.375 0 2.5 1.125 2.5 2.5v8.479z" fill="#4e4945"/>
<path d="m274.73 775.81-5.141 14.264v-18.529l5.141-5.049z" fill="#9e9c97"/>
<path d="m305.84 790.08h-36.258l5.141-14.43h25.976z" fill="#cdcac9"/>
<path d="m300.7 775.65 5.141 14.263v-18.528l-5.141-5.049z" fill="#9e9c97"/>
<path d="m339.8 775.65h-25.977v-8.479c0-1.375 1.125-2.5 2.5-2.5h20.977c1.375 0 2.5 1.125 2.5 2.5v8.479z" fill="#4e4945"/>
<path d="m313.83 775.81-5.141 14.264v-18.529l5.141-5.049z" fill="#9e9c97"/>
<path d="m344.94 790.08h-36.259l5.141-14.43h25.976z" fill="#cdcac9"/>
<path d="m339.8 775.65 5.142 14.263v-18.528l-5.142-5.049z" fill="#9e9c97"/>
<path d="m378.77 775.65h-25.976v-8.479c0-1.375 1.125-2.5 2.5-2.5h20.976c1.375 0 2.5 1.125 2.5 2.5v8.479z" fill="#4e4945"/>
<path d="m352.79 775.81-5.141 14.264v-18.529l5.141-5.049z" fill="#9e9c97"/>
<path d="m383.91 790.08h-36.258l5.141-14.43h25.976z" fill="#cdcac9"/>
<path d="m378.77 775.65 5.141 14.263v-18.528l-5.141-5.049z" fill="#9e9c97"/>
<path d="m417.46 775.65h-25.976v-8.479c0-1.375 1.125-2.5 2.5-2.5h20.976c1.375 0 2.5 1.125 2.5 2.5v8.479z" fill="#4e4945"/>
<path d="m391.49 775.81-5.142 14.264v-18.529l5.142-5.049z" fill="#9e9c97"/>
<path d="m422.6 790.08h-36.259l5.142-14.43h25.976z" fill="#cdcac9"/>
<path d="m417.46 775.65 5.141 14.263v-18.528l-5.141-5.049z" fill="#9e9c97"/>
<path d="m456.7 775.65h-25.976v-8.479c0-1.375 1.125-2.5 2.5-2.5h20.976c1.375 0 2.5 1.125 2.5 2.5v8.479z" fill="#4e4945"/>
<path d="m430.72 775.81-5.141 14.264v-18.529l5.141-5.049z" fill="#9e9c97"/>
<path d="m461.84 790.08h-36.259l5.141-14.43h25.976z" fill="#cdcac9"/>
<path d="m456.7 775.65 5.142 14.263v-18.528l-5.142-5.049z" fill="#9e9c97"/>
<path d="m495.39 775.65h-25.977v-8.479c0-1.375 1.125-2.5 2.5-2.5h20.977c1.375 0 2.5 1.125 2.5 2.5v8.479z" fill="#4e4945"/>
<path d="m469.42 775.81-5.141 14.264v-18.529l5.141-5.049z" fill="#9e9c97"/>
<path d="m500.53 790.08h-36.259l5.141-14.43h25.976z" fill="#cdcac9"/>
<path d="m495.39 775.65 5.142 14.263v-18.528l-5.142-5.049z" fill="#9e9c97"/>
<path d="m534.36 775.65h-25.976v-8.479c0-1.375 1.125-2.5 2.5-2.5h20.977c1.375 0 2.5 1.125 2.5 2.5v8.479z" fill="#4e4945"/>
<path d="m508.38 775.81-5.141 14.264v-18.529l5.141-5.049z" fill="#9e9c97"/>
<path d="m539.5 790.08h-36.259l5.141-14.43h25.976z" fill="#cdcac9"/>
<path d="m534.36 775.65 5.142 14.263v-18.528l-5.142-5.049z" fill="#9e9c97"/>
<path d="m573.32 775.65h-25.977v-8.479c0-1.375 1.125-2.5 2.5-2.5h20.977c1.375 0 2.5 1.125 2.5 2.5v8.479z" fill="#4e4945"/>
<path d="m547.34 775.81-5.141 14.264v-18.529l5.141-5.049z" fill="#9e9c97"/>
<path d="m578.46 790.08h-36.259l5.141-14.43h25.977z" fill="#cdcac9"/>
<path d="m573.32 775.65 5.141 14.263v-18.528l-5.141-5.049zm-34.77 21.505 5.14 13.461v-19.407l-5.14-4.171z" fill="#9e9c97"/>
<path d="m543.69 810.62-316.18 0.018 5.141-13.46h305.9z" fill="#cdcac9"/>
<path d="m164.33 809.79h-38.694l4.464-19.214h37.342z" fill="#f3f5f9"/>
<g fill="#5d5d5d">
<path d="M134.756 801.561l.908-2.807h1.81c.314 0 .549.023.706.069a.84.84 0 0 1 .389.239.55.55 0 0 1 .154.38.687.687 0 0 1-.109.354c-.073.12-.166.219-.277.297s-.224.137-.338.176c-.115.04-.237.069-.367.089a5.635 5.635 0 0 1-.843.063h-1.085l-.367 1.14h-.581zm1.05-1.457h.955c.371 0 .643-.026.816-.077a.953.953 0 0 0 .417-.237.477.477 0 0 0 .157-.337.314.314 0 0 0-.083-.225.48.48 0 0 0-.234-.128c-.1-.028-.293-.042-.58-.042h-1.112l-.336 1.046zM139.09 800.385c0-.5.223-.905.67-1.215s.988-.464 1.625-.464c.54 0 .98.113 1.321.342.34.228.51.533.51.916 0 .273-.086.526-.257.76-.128.175-.29.326-.485.453s-.404.225-.627.294a3.15 3.15 0 0 1-.941.138c-.347 0-.663-.054-.948-.161-.285-.106-.501-.257-.648-.448a.997.997 0 0 1-.22-.615zm.57.02c0 .164.053.315.158.453.105.139.263.246.472.324s.429.116.66.116a1.945 1.945 0 0 0 1.176-.388c.159-.121.284-.271.376-.449.092-.179.137-.354.137-.526a.774.774 0 0 0-.362-.668c-.241-.166-.54-.249-.895-.249-.454 0-.854.126-1.201.376a1.186 1.186 0 0 0-.521 1.011zM144.272 801.561l-.266-2.807h.588l.101 1.388a18.833 18.833 0 0 1 .036.713l-.003.189c.241-.319.414-.544.521-.675l1.319-1.615h.598l.145 1.641c.016.188.026.413.032.678.036-.065.099-.162.189-.291.144-.208.25-.356.319-.446l1.237-1.581h.591l-2.207 2.807h-.621l-.145-1.7a9.492 9.492 0 0 1-.033-.536c-.12.178-.221.315-.302.413l-1.502 1.823h-.597zM149.239 801.561l.908-2.807h3.13l-.104.319h-2.55l-.284.873h2.485l-.104.32h-2.485l-.313.977h2.73l-.104.317h-3.309zM153.291 801.561l.908-2.807h1.819c.359 0 .631.02.816.058.186.039.331.112.437.22s.158.242.158.406c0 .229-.116.418-.346.568-.231.15-.604.248-1.118.293.158.075.277.149.358.222.182.165.327.335.438.512l.331.528h-.648l-.311-.522a2.265 2.265 0 0 0-.384-.49.723.723 0 0 0-.302-.188 1.97 1.97 0 0 0-.5-.045h-.674l-.402 1.246h-.58zm1.08-1.551h.801c.371 0 .612-.003.725-.01.219-.014.398-.046.538-.096s.249-.117.326-.201a.396.396 0 0 0 .115-.271c0-.082-.029-.153-.086-.214s-.132-.102-.225-.123a2.325 2.325 0 0 0-.473-.033h-1.414l-.307.948z"/>
</g>
<path d="m538.55 797.18h-305.9v-9.392c0-1.375 1.125-2.5 2.5-2.5h300.9c1.375 0 2.5 1.125 2.5 2.5v9.392z" fill="#4e4945"/>
<path d="M152.855 587.542H156v2.297h-3.145zM177.793 599.656h4.095v-12.114h-4.095v2.341h.804v7.433h-.804zM186.715 599.656h-4.096v-12.114h4.096v2.341h-.805v7.433h.805zM152.855 590.446H156v9.21h-3.145zM152.05 599.656h-5.595c-2.807 0-5.083-2.11-5.083-4.713 0-2.604 2.276-4.713 5.083-4.713h1.548v2.622h-1.548.035c-1.052 0-1.904.79-1.904 1.766s.853 1.766 1.904 1.766h2.244v-8.841h3.315v12.113zM159.859 593.7c-.228 0-.412-.151-.412-.337 0-.187.185-.338.412-.338h5.095v-2.99h-5.505c-1.474 0-2.669 1.348-2.669 3.009 0 1.662 1.195 3.01 2.669 3.01v.003h2.426c.228 0 .412.151.412.338s-.185.337-.412.337h-5.095v2.99h5.505c1.474 0 2.669-1.347 2.669-3.009s-1.195-3.01-2.669-3.01v-.003h-2.426zM171.381 590.251h3.008c.757 1.497.072 3.235-1.542 4.03 1.614 1.06 2.299 3.377 1.542 5.374h-3.159c.001-1.918.365-3.9-2.432-3.9v3.9h-3.583v-12.113h3.583v5.417c2.116 0 2.606-1.381 2.583-2.708zM407.923 587.51h3.146v2.297h-3.146zM432.861 599.623h4.096V587.51h-4.096v2.34h.805v7.433h-.805zM441.784 599.623h-4.096V587.51h4.096v2.34h-.805v7.433h.805zM407.923 590.413h3.146v9.21h-3.146zM407.119 599.623h-5.595c-2.808 0-5.083-2.11-5.083-4.714 0-2.603 2.275-4.713 5.083-4.713h1.548v2.622h-1.548.035c-1.052 0-1.905.791-1.905 1.767 0 .975.854 1.766 1.905 1.766h2.244v-8.841h3.315v12.113zM414.927 593.666c-.228 0-.412-.15-.412-.337s.185-.337.412-.337h5.095v-2.991h-5.505c-1.475 0-2.67 1.348-2.67 3.01s1.195 3.01 2.67 3.01v.003h2.426c.228 0 .412.15.412.337s-.185.338-.412.338h-5.096v2.99h5.506c1.474 0 2.669-1.348 2.669-3.01s-1.195-3.009-2.669-3.009v-.004h-2.426zM426.449 590.218h3.009c.757 1.498.071 3.235-1.543 4.031 1.614 1.06 2.3 3.377 1.543 5.373h-3.009l-.15.001c.001-1.918.365-3.9-2.433-3.901v3.901h-3.583V587.51h3.583v5.417c2.116 0 2.606-1.382 2.583-2.709z" fill="#fff"/>
<ellipse cx="655.63" cy="331.25" rx="1.449" ry="1.416" fill="#fff"/>
<path d="m662.71 343.36h-14.164v1h14.164v-1z" fill="#141414"/>
<path d="m628.86 255.95h2.841v2.075h-2.841zm0 2.623h2.841v8.318h-2.841zm14.163-0.549c3.004 0 4.99 1.43 4.99 4.433 0 3.004-1.986 4.434-4.99 4.434s-4.99-1.43-4.99-4.434c0-3.003 1.986-4.433 4.99-4.433zm13.838 8.867h4.532l6.592-10.941h-4.532zm6.227 0h4.532l6.592-10.941h-4.533zm6.226 0h4.531l6.593-10.941h-4.532zm-55.485-8.867c3.003 0 4.99 1.43 4.99 4.433 0 3.004-1.987 4.434-4.99 4.434-3.004 0-4.99-1.43-4.99-4.434 0-3.003 1.986-4.433 4.99-4.433zm14.398 2.626c0-1.3-1.125-2.354-2.513-2.354h-6.263v8.372h3.188v-6.139h2.4v6.139h3.188v-6.139 0.121zm-34.978 5.746h3.502v-6.139h2.637v6.139h3.502v-6.139 0.12c0-1.3-1.235-2.354-2.761-2.354h-6.88v8.373z" fill="#fff"/>
<path d="m606.08 258.02c1.524 0 2.761 1.054 2.761 2.354v6.019h-3.601v-6.139h-2.349v-2.233h3.189zm45.184 0.522c-1.524 0-2.761 1.054-2.761 2.354v6.018h3.601v-6.139h2.349v-2.233h-3.189zm-18.956-2.596h2.966v2.596h2.761v1.712h-2.761v4.161h2.349v2.498h-2.333c-1.646 0-2.981-1.479-2.981-3.304v-7.663z" fill="#fff"/>
<path d="m616.26 262.48a2.236 2.236 0 0 1-2.246 2.225 2.236 2.236 0 0 1-2.245-2.225 2.236 2.236 0 0 1 2.245-2.225c1.24 1e-3 2.246 0.997 2.246 2.225zm29.194 0c0 1.229-1.005 2.225-2.245 2.225s-2.246-0.996-2.246-2.225 1.006-2.225 2.246-2.225 2.245 0.997 2.245 2.225z" fill="#464846"/>
</svg>
