<?xml version="1.0" encoding="UTF-8"?>
<svg viewBox="0 0 541.9 386.9" xmlns="http://www.w3.org/2000/svg">
<path d="M541.9 3.5v138.1H0V3.5C0 1.6 1.6 0 3.5 0h69.1v23.4h4.9V0H85v23.4h5V0h7.5v23.4h3.9V0h7.5v23.4h4.9V0h7.5v23.4h5V0h7.5v23.4h3.6V0h7.5v23.4h4.9V0h7.5v23.4h5V0h7.5v23.4h3.1V0h7.5v23.4h4.9V0h7.5v23.4h5V0h7.5v23.4h3.6V0h7.5v23.4h4.9V0h7.5v23.4h5V0h7.5v23.4h3.1V0h7.5v23.4h4.9V0h7.5v23.4h5V0h7.5v23.4h3.6V0h7.5v23.4h4.9V0h7.5v23.4h5V0h7.5v23.4h4.2V0h7.5v23.4h4.9V0h7.5v23.4h5V0h7.5v23.4h3.6V0h7.5v23.4h4.9V0h7.5v23.4h5V0h7.5v23.4h4.7V0h7.5v23.4h4.9V0h7.5v23.4h5V0h7.5v23.4h3.6V0h7.5v23.4h4.9V0h7.5v23.4h5V0h7.5v23.4h4.8V0h75.2c1.8 0 3.4 1.6 3.4 3.5z" fill="#2B2A2B"/>
<g fill="#1D1D1D">
<path d="m72.6 3.9h4.9v19.5h-4.9zm12.4 0h5v19.5h-5zm12.5 0h3.9v19.5h-3.9zm11.4 0h4.9v19.5h-4.9zm12.4 0h5v19.5h-5zm12.5 0h3.6v19.5h-3.6zm11.1 0h4.9v19.5h-4.9zm12.4 0h5v19.5h-5zm12.5 0h3.1v19.5h-3.1zm10.6 0h4.9v19.5h-4.9zm12.4 0h5v19.5h-5zm12.5 0h3.6v19.5h-3.6zm11 0h4.9v19.5h-4.9zm12.5 0h5v19.5h-5zm12.4 0h3.1v19.5h-3.1zm10.6 0h4.9v19.5h-4.9zm12.4 0h5v19.5h-5zm12.5 0h3.6v19.5h-3.6zm11.1 0h4.9v19.5h-4.9zm12.4 0h5v19.5h-5zm12.5 0h4.2v19.5h-4.2zm11.7 0h4.9v19.5h-4.9zm12.4 0h5v19.5h-5zm12.5 0h3.6v19.5h-3.6zm11.1 0h4.9v19.5h-4.9zm12.4 0h5v19.5h-5zm12.5 0h4.7v19.5h-4.7zm12.2 0h4.9v19.5h-4.9zm12.4 0h5v19.5h-5zm12.5 0h3.6v19.5h-3.6zm11.1 0h4.9v19.5h-4.9zm12.4 0h5v19.5h-5zm12.5 0h4.8v19.5h-4.8z"/>
</g>
<path d="M0 141.6v96.9h541.9v-96.9H0z" fill="#919090"/>
<path d="M409.5 340.9h27.1v14.4h-27.1zM104.1 340.9h26.4v14.4h-26.4zM0 340.9h68.4v14.4H0z" fill="#1D1D1D"/>
<path d="M0 238.2h541.9v102.7H0zM541.9 355.3v28.1c0 1.9-1.6 3.5-3.5 3.5H3.5c-1.9 0-3.5-1.6-3.5-3.5v-28.1h541.9z" fill="#2B2A2B"/>
<path d="m469.8 340.9h72v14.4h-72z" fill="#1D1D1D"/>
<path d="m68.4 340.9h35.7v14.4h-35.7zm62.2 0h35.2v14.4h-35.2z" fill="#161616"/>
<path d="M165.7 340.9h208.5v14.4H165.7z" fill="#1D1D1D"/>
<path d="m374.2 340.9h35.3v14.4h-35.3zm62.4 0h33.2v14.4h-33.2z" fill="#161616"/>
<path d="m120.4 348.1c0 1.9-1.5 3.4-3.4 3.4s-3.4-1.5-3.4-3.4 1.5-3.4 3.4-3.4 3.4 1.5 3.4 3.4z" fill="#EC1C24"/>
<linearGradient id="a" x2="542.22" y1="207.17" y2="207.17" gradientUnits="userSpaceOnUse">
<stop stop-color="#fcdc05" offset=".016"/>
<stop stop-color="#f9bf0d" offset=".025"/>
<stop stop-color="#f59917" offset=".039"/>
<stop stop-color="#f27e1e" offset=".053"/>
<stop stop-color="#f16e22" offset=".064"/>
<stop stop-color="#f06824" offset=".073"/>
<stop stop-color="#ef5f25" offset=".078"/>
<stop stop-color="#ed4926" offset=".093"/>
<stop stop-color="#eb3827" offset=".111"/>
<stop stop-color="#ea2d28" offset=".134"/>
<stop stop-color="#e92629" offset=".165"/>
<stop stop-color="#e92429" offset=".252"/>
<stop stop-color="#e5242b" offset=".255"/>
<stop stop-color="#b42b45" offset=".295"/>
<stop stop-color="#89305c" offset=".336"/>
<stop stop-color="#66346e" offset=".377"/>
<stop stop-color="#4b387d" offset=".419"/>
<stop stop-color="#383a87" offset=".461"/>
<stop stop-color="#2d3c8d" offset=".504"/>
<stop stop-color="#293c8f" offset=".55"/>
<stop stop-color="#294092" offset=".588"/>
<stop stop-color="#294b9a" offset=".623"/>
<stop stop-color="#285ea8" offset=".657"/>
<stop stop-color="#2878bc" offset=".69"/>
<stop stop-color="#279ad5" offset=".723"/>
<stop stop-color="#27a7df" offset=".734"/>
<stop stop-color="#25a7d9" offset=".736"/>
<stop stop-color="#1ba5b3" offset=".748"/>
<stop stop-color="#13a493" offset=".761"/>
<stop stop-color="#0ca379" offset=".775"/>
<stop stop-color="#07a264" offset=".79"/>
<stop stop-color="#03a156" offset=".807"/>
<stop stop-color="#01a14e" offset=".828"/>
<stop stop-color="#00a14b" offset=".863"/>
<stop stop-color="#89be6a" offset="1"/>
</linearGradient>
<path d="M0 205.5h542.2v3.4H0z" fill="url(#a)"/>
<path d="M347.6 68.6H192.5c-3.2 0-5.9 2.7-5.9 5.9V123c0 3.2 2.7 5.9 5.9 5.9h155.1c3.2 0 5.9-2.7 5.9-5.9V74.5c0-3.2-2.6-5.9-5.9-5.9zm-.6 48.8c0 2.7-2.2 5-5 5H200.4c-2.7 0-4.9-2.2-4.9-5V81.9c0-2.7 2.2-5 4.9-5H342c2.7 0 5 2.2 5 5v35.5z" fill="#1D1D1D"/>
<path d="M342 76.9H200.4c-2.7 0-4.9 2.2-4.9 5v35.5c0 2.7 2.2 5 4.9 5H342c2.7 0 5-2.2 5-5V81.9c0-2.8-2.3-5-5-5zm-4 39.2H203.9v-12.6h4.5v2.3H221v-2.3h100.4v2.3h10.9v-2.3h5.8v12.6zm0-14.7h-5.8v-2.6h-10.9v2.6H221v-2.6h-12.5v2.6H204v-14h134v14z" fill="#161616"/>
<path d="M338 103.5v12.6H203.9v-12.6h4.5v2.3H221v-2.3h100.3v2.3h11v-2.3zM338 87.4v14h-5.7v-2.6h-11v2.6H221v-2.6h-12.6v2.6h-4.5v-14z" fill="#2B2A2B"/>
<g fill="#B2B1B0">
<path d="M62.5 215l-3.9 9.9H56l3.9-9h-5.1v-2h7.7v1.1zM65.4 219.2c-1.3-.6-1.9-1.4-1.9-2.6 0-.8.3-1.5 1-2.1.7-.6 1.5-.8 2.6-.8s2 .3 2.6.8c.7.5 1 1.2 1 2 0 1.2-.7 2.1-2.1 2.7.7.2 1.3.6 1.7 1.1.4.5.6 1.1.6 1.7 0 1-.4 1.7-1.1 2.3-.7.6-1.7.8-3 .8-1.1 0-2-.3-2.7-.8-.7-.6-1-1.3-1-2.2.1-1.3.9-2.3 2.3-2.9zm1.7.9c-1 .4-1.5 1-1.5 1.9 0 .4.2.7.5 1 .3.3.7.4 1.1.4.5 0 .9-.1 1.2-.4.3-.3.4-.6.4-1 0-.9-.6-1.5-1.7-1.9zm1.4-3.4c0-.4-.1-.7-.4-.9-.2-.2-.6-.3-.9-.3-.4 0-.7.1-1 .3-.3.2-.4.5-.4.9 0 .7.4 1.2 1.3 1.6 1-.4 1.4-.9 1.4-1.6zM75.6 225.1c-2.6 0-3.9-1.8-3.9-5.5 0-1.9.4-3.4 1.1-4.4.7-1 1.7-1.5 3.1-1.5 2.6 0 3.8 1.9 3.8 5.6 0 1.9-.3 3.3-1 4.3-.8 1-1.8 1.5-3.1 1.5zm.1-9.6c-1 0-1.6 1.3-1.6 4 0 2.5.5 3.7 1.5 3.7s1.5-1.3 1.5-3.8-.4-3.9-1.4-3.9zM84.1 225.1c-2.6 0-3.9-1.8-3.9-5.5 0-1.9.4-3.4 1.1-4.4.7-1 1.7-1.5 3.1-1.5 2.6 0 3.8 1.9 3.8 5.6 0 1.9-.3 3.3-1 4.3-.8 1-1.8 1.5-3.1 1.5zm.1-9.6c-1 0-1.6 1.3-1.6 4 0 2.5.5 3.7 1.5 3.7s1.5-1.3 1.5-3.8-.4-3.9-1.4-3.9zM95.7 221.1v3.8h-2.5v-11h3.9c2.8 0 4.2 1.2 4.2 3.5 0 1.1-.4 2-1.2 2.7-.8.7-1.9 1-3.2 1h-1.2zm0-5.3v3.4h1c1.3 0 2-.6 2-1.7s-.7-1.7-2-1.7h-1zM110.4 224.9h-2.5l-1.5-2.5c-.1-.2-.2-.4-.3-.5-.1-.2-.2-.3-.3-.4-.1-.1-.2-.2-.3-.2-.1-.1-.2-.1-.4-.1h-.6v3.7h-2.2v-9.8h3.5c2.4 0 3.6.9 3.6 2.7 0 .3-.1.7-.2.9-.1.3-.3.5-.4.8-.2.2-.4.4-.7.6-.3.2-.6.3-.9.4.1 0 .3.1.4.2.1.1.3.2.4.4.1.1.2.3.4.4.1.2.2.3.3.5l1.7 2.9zm-6-8.1v2.7h1c.5 0 .9-.1 1.1-.4.3-.3.4-.6.4-1 0-.9-.5-1.3-1.5-1.3h-1zM115 225.1c-1.4 0-2.5-.5-3.4-1.4-.9-.9-1.3-2.1-1.3-3.6s.4-2.8 1.3-3.8 2.1-1.4 3.6-1.4c1.4 0 2.5.5 3.4 1.4.9.9 1.3 2.1 1.3 3.6s-.4 2.8-1.3 3.7c-1 1-2.2 1.5-3.6 1.5zm.1-8.3c-.8 0-1.4.3-1.8.9-.5.6-.7 1.3-.7 2.3 0 1 .2 1.7.7 2.3.5.6 1.1.8 1.8.8.8 0 1.4-.3 1.8-.8.4-.5.7-1.3.7-2.3 0-1-.2-1.8-.6-2.4-.6-.5-1.2-.8-1.9-.8zM120.6 224.5V222c.4.4.9.7 1.5.8.5.2 1 .3 1.6.3.3 0 .6 0 .8-.1s.4-.1.6-.2c.2-.1.3-.2.3-.4.1-.1.1-.3.1-.4 0-.2-.1-.4-.2-.6-.1-.2-.3-.3-.5-.5-.2-.1-.5-.3-.8-.4-.3-.1-.6-.3-.9-.4-.9-.4-1.5-.8-1.9-1.3-.4-.5-.6-1.1-.6-1.9 0-.6.1-1.1.3-1.5.2-.4.5-.8.9-1 .4-.3.9-.5 1.4-.6.5-.1 1.1-.2 1.7-.2.6 0 1.1 0 1.5.1.4.1.9.2 1.2.3v2.3l-.6-.3c-.2-.1-.4-.2-.7-.2-.2-.1-.5-.1-.7-.1h-.6c-.3 0-.5 0-.8.1-.2.1-.4.1-.6.2-.2.1-.3.2-.4.3-.1.1-.1.3-.1.5s0 .3.1.5c.1.1.2.3.4.4.2.1.4.3.7.4.3.1.5.3.9.4l1.2.6c.4.2.7.4.9.7.3.3.4.6.6.9.1.3.2.7.2 1.2 0 .6-.1 1.1-.3 1.5-.2.4-.5.8-.9 1-.4.3-.9.4-1.4.6-.5.1-1.1.2-1.7.2-.6 0-1.2-.1-1.7-.2-.6-.2-1.1-.3-1.5-.5zM136.6 215.1l-3.2 6.3v3.5h-2.2v-3.4l-3.1-6.4h2.5l1.6 3.7c0 .1.1.3.2.8.1-.3.1-.6.2-.8l1.6-3.7h2.4zM136.8 224.5v-2.2c.4.3.8.6 1.3.7.5.2.9.2 1.4.2.3 0 .5 0 .7-.1.2-.1.4-.1.5-.2l.3-.3c.1-.1.1-.3.1-.4 0-.2-.1-.4-.2-.5-.1-.2-.3-.3-.4-.4-.2-.1-.4-.3-.7-.4-.3-.1-.5-.2-.8-.4-.8-.3-1.3-.7-1.7-1.2-.4-.5-.6-1-.6-1.7 0-.5.1-.9.3-1.3.2-.4.5-.7.8-.9.4-.2.8-.4 1.2-.5.5-.1 1-.2 1.5-.2s1 0 1.4.1c.4.1.8.2 1.1.3v2c-.2-.1-.3-.2-.5-.3-.2-.1-.4-.2-.6-.2-.2-.1-.4-.1-.6-.1h-.6c-.3 0-.5 0-.7.1-.2 0-.4.1-.5.2-.1.1-.3.2-.3.3-.1.1-.1.3-.1.4 0 .2 0 .3.1.4.1.1.2.3.4.4l.6.3c.2.1.5.2.8.3.4.2.7.3 1.1.5.3.2.6.4.8.6.2.2.4.5.5.8.1.3.2.6.2 1 0 .5-.1 1-.3 1.4-.2.4-.5.7-.8.9-.4.2-.8.4-1.2.5-.5.1-1 .2-1.5.2s-1 0-1.5-.1c-.7.1-1.1 0-1.5-.2zM151.5 216.9h-2.8v8h-2.2v-8h-2.8v-1.8h7.8v1.8zM158.2 224.9h-5.9v-9.8h5.6v1.8h-3.4v2.2h3.2v1.8h-3.2v2.2h3.7v1.8zM170.5 224.9h-2.2V219c0-.6 0-1.3.1-2.1h-.1c-.1.6-.2 1-.3 1.3l-2.3 6.7h-1.8l-2.3-6.6c-.1-.2-.2-.6-.3-1.4h-.1c.1 1 .1 1.8.1 2.5v5.4h-2V215h3.2l2 5.8c.2.5.3.9.3 1.4.1-.5.3-1 .4-1.4l2-5.8h3.1v9.9z"/>
</g>
<g clip-rule="evenodd" fill="#B2B1B0" fill-rule="evenodd">
<path d="M72.1 200.8c-.7 0-1.4-.1-2.1-.3-.7-.2-1.3-.6-1.8-1-.2-.2-.5-.4-.7-.6-.4-.5-.8-1-1.1-1.5-.3-.6-.6-1.2-.8-1.8-.2-.5-.3-1.1-.4-1.7 0-.5-.1-1-.1-1.5v-6.1-.2h1.2v4.7c0 .5.1.9.1 1.4.1.6.2 1.1.4 1.7.3.8.7 1.6 1.3 2.3.3.4.6.7 1 1.1.8.7 1.7 1.2 2.8 1.4h.1c.1.7.1 1.4.1 2.1zM64.6 186.1v14.7h-1.8v-14.7h1.8zM85.6 200.1c-.7-2.4-1.5-4.8-2.2-7.2-.4-1.2-.7-2.4-1.1-3.6-.2-.7-.5-1.4-.8-2.1-.6-1.1-1.9-1.3-2.6-1.1-.8.3-1.3.9-1.5 1.7-.7 2.1-1.3 4.2-2 6.3-.4 1.2-.7 2.3-1.1 3.5-.3 1-.6 1.9-1 2.9v.2h3c.2 0 .3-.1.4-.3.2-.8.5-1.6.7-2.4h4c.1 0 .3.1.3.2.3.8.5 1.6.7 2.4h3.3c0-.1 0-.3-.1-.5zm-7.3-4.9c.4-1.9.9-3.9 1.3-5.8h.1c.4 1.9.8 3.8 1.2 5.8h-2.6zM115.4 200.8v-14.5h3.3v14.5h-3.3zM55.3 200.8v-2l.1-.1c.6-.1 1.1-.3 1.6-.6.4-.2.8-.5 1.1-.8.6-.5 1.1-1.1 1.5-1.7.3-.5.6-1.1.8-1.7.2-.6.3-1.1.5-1.7.1-.3.1-.6.1-.8v-5.1-.1h1.2v6.8c0 .4-.1.9-.1 1.3-.1.6-.2 1.1-.4 1.6-.3.8-.7 1.6-1.3 2.3-.3.3-.5.6-.8.9-.6.6-1.3 1-2 1.3-.7.3-1.4.4-2.1.4h-.2zM107.6 189.1v11.6h-3.1v-.5-11.8c0-.9 1-2 2-2h3c1.9.1 3.7 1.3 4.3 3.1.4 1.5-.1 3.2-1.4 4-.4.3-.8.5-1.2.8 1.2 2.1 2.5 4.2 3.8 6.4h-3.5c-.1 0-.3-.1-.3-.2-1-1.9-2-3.8-3.1-5.7-.8-1.4-.1-2.1 1.1-2.7.4-.2.8-.4 1.2-.7.7-.6.5-1.2.1-1.7s-.8-.8-1.5-.7c-.5.1-.9.1-1.4.1zM104 200.1c-.7-2.4-1.5-4.8-2.2-7.2-.4-1.5-.9-2.9-1.3-4.4-.2-.6-.4-1.3-.9-1.7-1.1-1-2.9-1-3.6.6-.3.7-.5 1.4-.7 2.1-.9 2.9-1.8 5.8-2.7 8.6-.3.9-.5 1.7-.8 2.6h3.1c.1 0 .3-.1.3-.2.3-.8.5-1.6.8-2.4h4c.1 0 .3.1.3.2.2.8.5 1.6.7 2.4h3.3c-.2-.2-.3-.4-.3-.6zm-7.4-4.9c.4-1.9.9-3.9 1.3-5.8h.1c.4 1.9.8 3.8 1.2 5.8h-2.6zM87.1 200.7v-11.6h-2.8v-2.8h8.8v2.7h-2.7v11.6c-1.2.1-2.2.1-3.3.1z"/>
</g>
<g fill="#FFF">
<path d="M75.9 348.3v1.9h-.6v-4.9h1.3c.5 0 .9.1 1.2.4.3.3.4.6.4 1.1s-.2.8-.5 1.1c-.3.3-.8.4-1.3.4h-.5zm0-2.5v2h.6c.4 0 .7-.1.9-.3.2-.2.3-.4.3-.8 0-.6-.4-1-1.1-1h-.7zM81 350.3c-.7 0-1.2-.2-1.7-.7-.4-.5-.6-1.1-.6-1.8 0-.8.2-1.4.6-1.9.4-.5 1-.7 1.7-.7s1.2.2 1.6.7c.4.5.6 1.1.6 1.8 0 .8-.2 1.4-.6 1.9-.3.4-.9.7-1.6.7zm.1-4.6c-.5 0-.9.2-1.3.6-.3.4-.5.9-.5 1.5s.2 1.1.5 1.5c.3.4.7.6 1.2.6s1-.2 1.3-.5c.3-.4.5-.8.5-1.5 0-.6-.2-1.1-.5-1.5-.3-.5-.7-.7-1.2-.7zM89.9 345.3l-1.4 4.9h-.7l-1-3.6c0-.2-.1-.3-.1-.5 0 .2 0 .3-.1.5l-1 3.6H85l-1.4-4.9h.6l1 3.8c0 .2.1.3.1.5 0-.1 0-.3.1-.5l1.1-3.8h.5l1 3.8c0 .1.1.3.1.5 0-.1 0-.3.1-.5l1-3.8h.7zM93 350.2h-2.6v-4.9h2.5v.5H91v1.6h1.8v.5H91v1.7h2v.6zM97.2 350.2h-.7l-.8-1.4c-.1-.1-.1-.2-.2-.3-.1-.1-.1-.2-.2-.2-.1-.1-.2-.1-.2-.1h-.8v2.1h-.6v-4.9h1.5c.2 0 .4 0 .6.1.2.1.3.1.5.2.1.1.2.2.3.4.1.2.1.4.1.6 0 .2 0 .3-.1.5-.1.1-.1.3-.2.4l-.3.3c-.1.1-.3.1-.4.2.1 0 .2.1.2.1.1 0 .1.1.2.2l.2.2c.1.1.1.2.2.3l.7 1.3zm-3-4.4v1.8h.8c.1 0 .3 0 .4-.1.1 0 .2-.1.3-.2.1-.1.2-.2.2-.3 0-.1.1-.2.1-.4 0-.3-.1-.5-.3-.6-.2-.1-.4-.2-.7-.2h-.8z"/>
<path d="M139.7 348.3v1.9h-.6v-4.9h1.3c.5 0 .9.1 1.2.4.3.3.4.6.4 1.1s-.2.8-.5 1.1c-.3.3-.8.4-1.3.4h-.5zm0-2.5v2h.6c.4 0 .7-.1.9-.3.2-.2.3-.4.3-.8 0-.6-.4-1-1.1-1h-.7zM146.6 350.2h-.6l-.5-1.4h-2.1l-.5 1.4h-.6l1.9-4.9h.6l1.8 4.9zm-1.3-1.9l-.8-2.1c0-.1 0-.2-.1-.3 0 .1 0 .2-.1.3l-.8 2.1h1.8zM150.7 348.2c0 1.4-.6 2.1-1.9 2.1-1.2 0-1.8-.7-1.8-2v-3h.6v3c0 1 .4 1.5 1.3 1.5.8 0 1.2-.5 1.2-1.5v-3h.6v2.9zM151.5 350v-.7c.1.1.2.1.3.2.1.1.2.1.3.1.1 0 .2.1.4.1h.3c.4 0 .6-.1.8-.2.2-.1.3-.3.3-.6 0-.1 0-.2-.1-.3-.1-.1-.1-.2-.2-.3-.1-.1-.2-.2-.4-.2-.1-.1-.3-.2-.5-.2-.2-.1-.3-.2-.5-.3-.1-.1-.3-.2-.4-.3-.1-.1-.2-.2-.3-.4-.1-.1-.1-.3-.1-.5s0-.4.1-.6c.1-.2.2-.3.4-.4.2-.1.3-.2.5-.2.2-.1.4-.1.6-.1.5 0 .8.1 1.1.2v.6c-.3-.2-.7-.3-1.1-.3h-.4c-.1 0-.2.1-.3.1-.1.1-.2.1-.2.2-.1.1-.1.2-.1.3 0 .1 0 .2.1.3 0 .1.1.2.2.2s.2.1.3.2c.1.1.3.1.5.2s.3.2.5.3c.2.1.3.2.4.3.1.1.2.2.3.4.1.1.1.3.1.5s0 .4-.1.6-.2.3-.4.4c-.2.1-.3.2-.6.2-.2 0-.4.1-.7.1h-.3c-.1 0-.2 0-.3-.1-.1 0-.2-.1-.3-.1-.1.4-.2.3-.2.3zM157.8 350.2h-2.6v-4.9h2.5v.5h-1.9v1.6h1.8v.5h-1.8v1.7h2v.6z"/>
<path d="M382.3 350v-.7c.1.1.2.1.3.2.1.1.2.1.3.1.1 0 .2.1.4.1h.3c.4 0 .6-.1.8-.2.2-.1.3-.3.3-.6 0-.1 0-.2-.1-.3-.1-.1-.1-.2-.2-.3-.1-.1-.2-.2-.4-.2-.1-.1-.3-.2-.5-.2-.2-.1-.3-.2-.5-.3-.1-.1-.3-.2-.4-.3-.1-.1-.2-.2-.3-.4-.1-.1-.1-.3-.1-.5s0-.4.1-.6c.1-.2.2-.3.4-.4.2-.1.3-.2.5-.2.2-.1.4-.1.6-.1.5 0 .8.1 1.1.2v.6c-.3-.2-.7-.3-1.1-.3h-.4c-.1 0-.2.1-.3.1-.1.1-.2.1-.2.2-.1.1-.1.2-.1.3 0 .1 0 .2.1.3 0 .1.1.2.2.2.1.1.2.1.3.2.1.1.3.1.5.2s.3.2.5.3c.2.1.3.2.4.3.1.1.2.2.3.4.1.1.1.3.1.5s0 .4-.1.6-.2.3-.4.4c-.2.1-.3.2-.6.2-.2 0-.4.1-.7.1h-.3c-.1 0-.2 0-.3-.1-.1 0-.2-.1-.3-.1 0 .4-.1.3-.2.3zM388.6 350.2H386v-4.9h2.5v.5h-1.9v1.6h1.8v.5h-1.8v1.7h2v.6zM391.9 350.2h-2.5v-4.9h.6v4.4h2v.5zM395 350.2h-2.6v-4.9h2.5v.5H393v1.6h1.8v.5H393v1.7h2v.6zM399 350c-.4.2-.8.3-1.4.3-.7 0-1.3-.2-1.7-.7-.4-.4-.6-1-.6-1.8s.2-1.4.7-1.9c.5-.5 1.1-.7 1.8-.7.5 0 .8.1 1.2.2v.6c-.4-.2-.7-.3-1.2-.3-.6 0-1 .2-1.4.6-.3.4-.5.9-.5 1.5s.2 1.1.5 1.4c.3.4.8.5 1.3.5s.9-.1 1.3-.3v.6zM402.7 345.8h-1.4v4.4h-.6v-4.4h-1.4v-.5h3.4v.5z"/>
<path d="M449.2 350.2h-.7l-.8-1.4c-.1-.1-.1-.2-.2-.3-.1-.1-.1-.2-.2-.2-.1-.1-.2-.1-.2-.1h-.8v2.1h-.6v-4.9h1.5c.2 0 .4 0 .6.1.2.1.3.1.5.2.1.1.2.2.3.4.1.2.1.4.1.6 0 .2 0 .3-.1.5-.1.1-.1.3-.2.4l-.3.3c-.1.1-.3.1-.4.2.1 0 .2.1.2.1.1 0 .1.1.2.2l.2.2c.1.1.1.2.2.3l.7 1.3zm-2.9-4.4v1.8h.8c.1 0 .3 0 .4-.1.1 0 .2-.1.3-.2.1-.1.2-.2.2-.3 0-.1.1-.2.1-.4 0-.3-.1-.5-.3-.6-.2-.1-.4-.2-.7-.2h-.8zM452.3 350.2h-2.6v-4.9h2.5v.5h-1.9v1.6h1.8v.5h-1.8v1.7h2v.6zM452.7 350v-.7c.1.1.2.1.3.2.1.1.2.1.3.1.1 0 .2.1.4.1h.3c.4 0 .6-.1.8-.2.2-.1.3-.3.3-.6 0-.1 0-.2-.1-.3-.1-.1-.1-.2-.2-.3-.1-.1-.2-.2-.4-.2-.1-.1-.3-.2-.5-.2-.2-.1-.3-.2-.5-.3-.1-.1-.3-.2-.4-.3-.1-.1-.2-.2-.3-.4-.1-.1-.1-.3-.1-.5s0-.4.1-.6c.1-.2.2-.3.4-.4.2-.1.3-.2.5-.2.2-.1.4-.1.6-.1.5 0 .8.1 1.1.2v.6c-.3-.2-.7-.3-1.1-.3h-.4c-.1 0-.2.1-.3.1-.1.1-.2.1-.2.2-.1.1-.1.2-.1.3 0 .1 0 .2.1.3 0 .1.1.2.2.2s.2.1.3.2c.1.1.3.1.5.2s.3.2.5.3c.2.1.3.2.4.3.1.1.2.2.3.4.1.1.1.3.1.5s0 .4-.1.6-.2.3-.4.4c-.2.1-.3.2-.6.2-.2 0-.4.1-.7.1h-.3c-.1 0-.2 0-.3-.1s-.2-.1-.3-.1c0 .4-.1.3-.2.3zM459 350.2h-2.6v-4.9h2.5v.5H457v1.6h1.8v.5H457v1.7h2v.6zM462.6 345.8h-1.4v4.4h-.6v-4.4h-1.4v-.5h3.4v.5z"/>
</g>
</svg>
