<?xml version="1.0" encoding="UTF-8"?>
<svg viewBox="0 0 598.1 445.9" xmlns="http://www.w3.org/2000/svg">
<style>.st2{fill:#3c3c3c}.st3{fill:#1a1618}.st4{fill:#262627}.st6{fill:#0b0808}.st7{fill:#040404}.st10{fill:#661919}.st12{fill:#11100f}.st13{fill:#afafaf;stroke:#939093;stroke-width:.2864;stroke-miterlimit:10}</style>
<path d="M597.2 445.9H.8c-.5 0-.8-.4-.8-.8V.8C0 .4.4 0 .8 0h596.4c.5 0 .8.4.8.8V445c.1.5-.3.9-.8.9z" fill="#1c1c1c"/>
<path d="M0 188h598.1v117.3H0z" fill="#bbbdbd"/>
<path class="st2" d="M206.8 167.3h184.4l5.7 5.7H201.2z"/>
<path class="st3" d="M206.8 131.4h184.4l5.7-5.6H201.2z"/>
<path class="st4" d="m206.8 131.4v35.9l-5.6 5.7v-47.2zm184.4 35.9v-35.9l5.7-5.6v47.2z"/>
<path transform="rotate(90 299.04 149.38)" d="M281.1 57.2H317v184.4h-35.9z" fill="#060606"/>
<path class="st6" d="M598.1 90.7H0"/>
<path d="M0 89.7h598.1v2H0z"/>
<path class="st7" d="m10 110.8h4.2v77.3h-4.2zm9.5 0h4.2v77.3h-4.2zm9.5 0h4.2v77.3h-4.2zm9.5 0h4.2v77.3h-4.2zm9.5 0h4.2v77.3h-4.2zm9.5 0h4.2v77.3h-4.2zm9.5 0h4.2v77.3h-4.2zm9.5 0h4.2v77.3h-4.2zm9.5 0h4.2v77.3h-4.2zm9.5 0h4.2v77.3h-4.2zm9.5 0h4.2v77.3h-4.2zm9.5 0h4.2v77.3h-4.2zm9.5 0h4.2v77.3h-4.2zm9.5 0h4.2v77.3h-4.2zm9.5 0h4.2v77.3h-4.2zm9.5 0h4.2v77.3h-4.2zm9.5 0h4.2v77.3h-4.2zm9.6 0h4.2v77.3h-4.2zm9.5 0h4.2v77.3h-4.2z"/>
<path class="st7" d="m583.9 110.8h4.2v77.3h-4.2zm-9.5 0h4.2v77.3h-4.2zm-9.5 0h4.2v77.3h-4.2zm-9.5 0h4.2v77.3h-4.2zm-9.5 0h4.2v77.3h-4.2zm-9.5 0h4.2v77.3h-4.2zm-9.5 0h4.2v77.3h-4.2zm-9.5 0h4.2v77.3h-4.2zm-9.5 0h4.2v77.3h-4.2zm-9.5 0h4.2v77.3h-4.2zm-9.5 0h4.2v77.3h-4.2zm-9.5 0h4.2v77.3h-4.2zm-9.5 0h4.2v77.3h-4.2zm-9.5 0h4.2v77.3h-4.2zm-9.5 0h4.2v77.3h-4.2zm-9.5 0h4.2v77.3h-4.2zm-9.5 0h4.2v77.3h-4.2zm-9.7 0h4.2v77.3h-4.2zm-9.5 0h4.2v77.3h-4.2z"/>
<path class="st4" d="m529 321.6v25.9l-4.1 4.1v-34.1z"/>
<path class="st2" d="m551.6 347.5h22.8l4.1 4.1h-53.6l4.1-4.1z"/>
<path class="st3" d="m551.7 321.6h22.7l4.1-4.1h-53.6l4.1 4.1z"/>
<path class="st4" d="m574.4 321.6v25.9l4.1 4.1v-34.1z"/>
<path d="M529 321.6h45.4v26H529z" fill="#141414"/>
<path d="M546.3 347.5H557v1.3h-10.7z" fill="#650406"/>
<path class="st10" d="M533.8 326.9c0 .3-.1.6-.3.8-.2.2-.4.3-.7.3h-1v1.3h-.8v-3.6h1.7c.4 0 .6.1.8.3.2.2.3.5.3.9zm-.7-.1c0-.1 0-.3-.1-.4s-.2-.1-.3-.1h-.9v1.1h.9c.1 0 .2-.1.3-.2 0-.1.1-.2.1-.4zM537.9 327.6c0 .6-.2 1-.5 1.4-.3.3-.7.5-1.3.5-.6 0-1-.2-1.3-.6-.3-.3-.4-.8-.4-1.3s.1-1 .4-1.3c.3-.4.8-.6 1.4-.6.5 0 1 .2 1.3.6.3.3.4.7.4 1.3zm-.7 0c0-.4-.1-.7-.3-.9-.2-.2-.4-.3-.8-.3-.3 0-.6.1-.8.3s-.3.5-.3.9.1.7.3.9.5.3.8.3c.3 0 .5-.1.7-.3.3-.2.4-.5.4-.9zM543 325.7l-1 3.6h-.7l-.6-2.8-.6 2.8h-.7l-1-3.6h.8l.6 2.7.5-2.7h.8l.5 2.8.6-2.8h.8zM546.4 329.4h-2.7v-3.6h2.6v.6h-1.9v.8h1.7v.6h-1.7v.9h2v.7zM550.3 329.4h-.8c-.1-.2-.1-.3-.1-.4v-.5c0-.1 0-.3-.1-.3-.1-.1-.2-.2-.4-.2h-.9v1.4h-.8v-3.6h2c.2 0 .4.1.6.2.2.2.3.4.3.8s-.2.7-.5.9c.3.1.4.3.4.5v.9c0 .1 0 .2.1.3zm-.8-2.6c0-.3-.1-.4-.4-.4h-1v1h1c.1 0 .2-.1.3-.2.1-.2.1-.3.1-.4zM556.1 327.6c0 .6-.2 1-.5 1.4-.3.3-.7.5-1.3.5-.6 0-1-.2-1.3-.6-.3-.3-.4-.8-.4-1.3s.1-1 .4-1.3c.3-.4.8-.6 1.4-.6.5 0 1 .2 1.3.6.2.3.4.7.4 1.3zm-.7 0c0-.4-.1-.7-.3-.9-.2-.2-.4-.3-.8-.3-.3 0-.6.1-.8.3s-.3.5-.3.9.1.7.3.9.5.3.8.3c.3 0 .5-.1.7-.3.3-.2.4-.5.4-.9zM559.8 329.4h-.7l-1.5-2.5v2.5h-.8v-3.6h.7l1.5 2.5v-2.5h.8v3.6zM561.7 325.8l-1.1 3.6h-.3l1-3.6h.4zM565.7 327.6c0 .6-.2 1-.5 1.4-.3.3-.7.5-1.3.5-.6 0-1-.2-1.3-.6-.3-.3-.4-.8-.4-1.3s.1-1 .4-1.3c.3-.4.8-.6 1.4-.6.5 0 1 .2 1.3.6.3.3.4.7.4 1.3zm-.7 0c0-.4-.1-.7-.3-.9-.2-.2-.4-.3-.8-.3-.3 0-.6.1-.8.3-.2.2-.3.5-.3.9s.1.7.3.9c.2.2.5.3.8.3.3 0 .5-.1.7-.3.3-.2.4-.5.4-.9zM569.1 326.4h-1.8v.8h1.6v.6h-1.6v1.6h-.8v-3.6h2.6v.6zM572.4 326.4h-1.8v.8h1.6v.6h-1.6v1.6h-.8v-3.6h2.6v.6z"/>
<path class="st7" d="M0 107.9h598.1v2.9H0z"/>
<path d="m10 374.9h578.1" fill="none"/>
<path class="st6" d="M598.1 362.4H0"/>
<path d="M0 361.4h598.1v2H0z"/>
<path class="st12" d="m9.8 363.4h4.6v11.3h-4.6zm9.1 0h4.6v11.3h-4.6zm9.1 0h4.6v11.3h-4.6zm9.1 0h4.6v11.3h-4.6zm9.1 0h4.6v11.3h-4.6zm9.2 0h4.6v11.3h-4.6zm9.1 0h4.6v11.3h-4.6zm9.1 0h4.6v11.3h-4.6zm9.1 0h4.6v11.3h-4.6zm9.1 0h4.6v11.3h-4.6zm9.1 0h4.6v11.3h-4.6zm9.1 0h4.6v11.3h-4.6zm9.1 0h4.6v11.3h-4.6zm9.1 0h4.6v11.3h-4.6zm9.1 0h4.6v11.3h-4.6zm9.1 0h4.6v11.3h-4.6zm9.1 0h4.6v11.3h-4.6zm9.1 0h4.6v11.3h-4.6zm9.1 0h4.6v11.3h-4.6zm9.1 0h4.6v11.3h-4.6zm9.2 0h4.6v11.3h-4.6zm9.1 0h4.6v11.3h-4.6zm9.1 0h4.6v11.3h-4.6zm9.1 0h4.6v11.3h-4.6zm9.1 0h4.6v11.3h-4.6zm9.1 0h4.6v11.3h-4.6zm9.1 0h4.6v11.3h-4.6zm9.1 0h4.6v11.3h-4.6zm9.1 0h4.6v11.3h-4.6zm9.1 0h4.6v11.3h-4.6zm9.1 0h4.6v11.3h-4.6zm9.1 0h4.6v11.3h-4.6zm9.1 0h4.6v11.3h-4.6zm9.1 0h4.6v11.3h-4.6zm9.1 0h4.6v11.3h-4.6zm9.1 0h4.6v11.3h-4.6zm9.2 0h4.6v11.3h-4.6zm9.1 0h4.6v11.3h-4.6zm9.1 0h4.6v11.3h-4.6zm9.1 0h4.6v11.3h-4.6zm9.1 0h4.6v11.3h-4.6zm9.1 0h4.6v11.3h-4.6zm9.1 0h4.6v11.3h-4.6zm9.1 0h4.6v11.3h-4.6zm9.1 0h4.6v11.3h-4.6zm9.1 0h4.6v11.3h-4.6zm9.1 0h4.6v11.3h-4.6zm9.1 0h4.6v11.3h-4.6zm9.1 0h4.6v11.3h-4.6zm9.1 0h4.6v11.3h-4.6zm9.1 0h4.6v11.3h-4.6zm9.1 0h4.6v11.3h-4.6zm9.2 0h4.6v11.3h-4.6zm9.1 0h4.6v11.3h-4.6zm9.1 0h4.6v11.3h-4.6zm9.1 0h4.6v11.3h-4.6zm9.1 0h4.6v11.3h-4.6zm9.1 0h4.6v11.3h-4.6zm9.1 0h4.6v11.3h-4.6zm9.1 0h4.6v11.3h-4.6zm9.1 0h4.6v11.3h-4.6zm9.1 0h4.6v11.3h-4.6zm9.1 0h4.6v11.3h-4.6zm9.1 0h4.6v11.3h-4.6z"/>
<path class="st13" d="M58.2 269.8c.4-.5 1.3-.6 1.9-.2.2.2.4.4.4.7 1 3.1 2 6.3 2.9 9.4h-1.7c-.3-.9-.5-1.7-.8-2.6h-3.4c-.3.9-.5 1.7-.8 2.6H55c.9-3 1.9-6 2.8-9 .2-.3.2-.6.4-.9m1.1 1.9l-1.2 3.9h2.4l-1.2-3.9zM70.4 269.9c.3-.4.9-.6 1.4-.5.5.1.8.5 1 .9 1 3.1 2 6.3 2.9 9.4H74c-.3-.9-.5-1.7-.8-2.6h-3.4c-.3.9-.5 1.7-.8 2.6h-1.7c.9-3 1.9-6 2.8-9 .1-.3.1-.6.3-.8m-.1 5.7h2.4l-1.2-3.9-1.2 3.9zM62.2 269.4h6.3v1.6h-2.3v8.7h-1.7V271h-2.3v-1.6zM77.6 269.5c.2-.1.3-.1.5-.1h2c1.1 0 2.2.7 2.7 1.6.3.6.4 1.3.3 2-.1.7-.4 1.4-.9 1.8-.3.3-.7.4-1 .6-.2.1-.2.4-.1.5.9 1.3 1.8 2.5 2.7 3.7h-2c-.9-1.2-1.7-2.4-2.6-3.6-.3-.3-.3-.8-.2-1.2.1-.3.4-.5.7-.6.6-.2 1.2-.5 1.5-1.1.3-.4.2-.9.1-1.3-.1-.6-.7-1-1.3-1h-1.3c-.2 0-.4.2-.4.3v8.4h-1.7v-9.1c0-.3.4-.8 1-.9zM84.5 269.4h1.8v10.3h-1.8v-10.3zM35.6 269.7v1.5c0 1.4-.1 2.9-.4 4.3-.2 1.1-.5 2.3-1 3.3-.5.9-1 1.8-1.8 2.5-.7.7-1.6 1.3-2.5 1.8-.8.4-1.7.7-2.6.8v2.5c.7-.1 1.5-.3 2.2-.5 1.3-.4 2.5-1 3.5-1.8 1.1-.9 2.1-1.9 2.8-3.1.4-.7.7-1.5.9-2.3.2-1.2.3-2.4.4-3.6 0-.8.1-1.6.1-2.5v-3c-.7.1-1.1.1-1.6.1M37.6 269.7v16.6h2.6v-16.6h-2.6M40.7 269.7v2.7c0 1.6 0 3.2.2 4.8.1.7.2 1.5.4 2.2.2.7.5 1.4 1 2.1.5.8 1.2 1.6 2 2.2.5.4 1 .8 1.5 1.1.7.4 1.6.8 2.4 1 .7.2 1.4.4 2.2.5v-2.5c-.4 0-.7-.1-1.1-.2-1.3-.4-2.5-1-3.5-1.9-1-.9-1.8-2-2.4-3.2-.6-1.2-.8-2.5-1-3.8-.2-1.7-.3-3.4-.3-5.1-.4.1-.9.1-1.4.1"/>
<path class="st13" d="M110.8 279v1.2h-6.5v-1l4.4-4.4c.4-.5.9-1.1.9-1.8 0-1.1-.9-1.9-2-1.9-1 0-1.9.8-1.9 1.8h-1.3c.2-1.8 1.4-3 3.2-3 1.7 0 3.2 1.3 3.2 3 0 .7-.3 1.5-.7 2.1l-4 4.1 4.7-.1zM117.1 269.9c-2.9 0-5.2 2.4-5.2 5.3s2.4 5.2 5.2 5.2c3 0 5.3-2.3 5.3-5.3s-2.3-5.2-5.3-5.2zm4.1 5.3c0 2.3-1.8 4.1-4.1 4.1-2.2 0-3.9-1.8-3.9-4.1s1.8-4.1 3.9-4.1c2.3 0 4.1 1.7 4.1 4.1zM128.7 269.9c-2.9 0-5.2 2.4-5.2 5.3s2.4 5.2 5.2 5.2c3 0 5.3-2.3 5.3-5.3s-2.3-5.2-5.3-5.2zm4.1 5.3c0 2.3-1.8 4.1-4.1 4.1-2.2 0-3.9-1.8-3.9-4.1s1.8-4.1 3.9-4.1c2.3 0 4.1 1.7 4.1 4.1zM95.7 278.1l1-.4c.6 1.2 1.5 1.7 2.6 1.7.8 0 1.4-.3 1.9-.8s.7-1.2.7-1.9-.2-1.2-.6-1.6c-.4-.4-1-.7-1.6-.7-.9 0-1.2.1-1.9.9l-1.1-.3.9-4.8h4.6l.1 1.1h-3.9l-.4 2.3c.7-.1 1-.1 1.9-.1.9 0 1.6.3 2.3.9.6.6 1 1.4 1 2.3 0 1-.3 1.8-1 2.6-.7.7-1.6 1.1-2.8 1.1-.8 0-1.5-.2-2.2-.6s-1.2-1-1.5-1.7z"/>
<linearGradient id="a" x1="55.042" x2="134.05" y1="285.21" y2="285.21" gradientUnits="userSpaceOnUse">
<stop stop-color="#fcdc05" offset=".016"/>
<stop stop-color="#f9bf0d" offset=".025"/>
<stop stop-color="#f59917" offset=".039"/>
<stop stop-color="#f27e1e" offset=".053"/>
<stop stop-color="#f16e22" offset=".064"/>
<stop stop-color="#f06824" offset=".073"/>
<stop stop-color="#ef5f25" offset=".078"/>
<stop stop-color="#ed4926" offset=".093"/>
<stop stop-color="#eb3827" offset=".111"/>
<stop stop-color="#ea2d28" offset=".134"/>
<stop stop-color="#e92629" offset=".165"/>
<stop stop-color="#e92429" offset=".252"/>
<stop stop-color="#e5242b" offset=".255"/>
<stop stop-color="#b42b45" offset=".295"/>
<stop stop-color="#89305c" offset=".336"/>
<stop stop-color="#66346e" offset=".377"/>
<stop stop-color="#4b387d" offset=".419"/>
<stop stop-color="#383a87" offset=".461"/>
<stop stop-color="#2d3c8d" offset=".504"/>
<stop stop-color="#293c8f" offset=".55"/>
<stop stop-color="#294092" offset=".588"/>
<stop stop-color="#294b9a" offset=".623"/>
<stop stop-color="#285ea8" offset=".657"/>
<stop stop-color="#2878bc" offset=".69"/>
<stop stop-color="#279ad5" offset=".723"/>
<stop stop-color="#27a7df" offset=".734"/>
<stop stop-color="#25a7d9" offset=".736"/>
<stop stop-color="#1ba5b3" offset=".748"/>
<stop stop-color="#13a493" offset=".761"/>
<stop stop-color="#0ca379" offset=".775"/>
<stop stop-color="#07a264" offset=".79"/>
<stop stop-color="#03a156" offset=".807"/>
<stop stop-color="#01a14e" offset=".828"/>
<stop stop-color="#00a14b" offset=".863"/>
<stop stop-color="#89be6a" offset="1"/>
</linearGradient>
<path d="M133.6 287.7h-78c-.3 0-.5-.2-.5-.5v-4c0-.3.2-.5.5-.5h78c.3 0 .5.2.5.5v4c0 .3-.3.5-.5.5z" fill="url(#a)" stroke="#939093" stroke-miterlimit="10" stroke-width=".573"/>
</svg>
