<?xml version="1.0" encoding="UTF-8"?>
<svg version="1.1" viewBox="0 0 243.75 200.44" xml:space="preserve" xmlns="http://www.w3.org/2000/svg">
<style type="text/css">
	.Ombre_x0020_portée{fill:none;}
	.Arrondis_x0020_2 pt{fill:#FFFFFF;stroke:#000000;stroke-miterlimit:10;}
	.Miroir_x0020_dynamique X{fill:none;}
	.Biseau_x0020_adouci{fill:url(#a);}
	.Crépuscule{fill:#FFFFFF;}
	.Feuillage_GS{fill:#FFDD00;}
	.Pompadour_GS{fill-rule:evenodd;clip-rule:evenodd;fill:#51AEE2;}
	.st0{fill:#BDB7A7;}
	.st1{fill:#DAD6CA;}
	.st2{fill:#424549;}
	.st3{fill:#1F1E13;}
	.st4{fill:#5B5C60;}
	.st5{fill:#D0C9B9;}
	.st6{fill:#444544;}
	.st7{fill:#EE7670;}
	.st8{fill:#3F1011;}
	.st9{fill:#2C2C2B;}
</style>
<linearGradient id="a" x2=".7071" y1="-90.418" y2="-89.711" gradientUnits="userSpaceOnUse">
	<stop stop-color="#E6E6EB" offset="0"/>
	<stop stop-color="#E2E2E6" offset=".1738"/>
	<stop stop-color="#D5D4D8" offset=".352"/>
	<stop stop-color="#C0BFC2" offset=".5323"/>
	<stop stop-color="#A4A2A4" offset=".7139"/>
	<stop stop-color="#828282" offset=".8949"/>
	<stop stop-color="#6B6E6E" offset="1"/>
</linearGradient>
<g transform="matrix(.49152 0 0 .49152 -24.66 -30.981)">
	<path class="st0" d="m540.14 248.36v-169.83c0-8.56-6.94-15.5-15.5-15.5h-453.59c-8.56 0-15.5 6.94-15.5 15.5v169.79s-0.07 1.98-0.18 5.49h484.96c-0.13-3.49-0.19-5.45-0.19-5.45z"/>
	<path class="st1" d="m104.8 287.73v-19.63c0-1.33 1.07-2.4 2.4-2.41h-0.02c-1.33 0-2.41 1.08-2.41 2.41v19.63c0 0.5 0.17 0.94 0.43 1.31-0.25-0.38-0.4-0.83-0.4-1.31z"/>
	<path class="st1" d="m100.11 290.12c-0.24-0.01-0.47-0.06-0.68-0.14 0.21 0.09 0.44 0.13 0.68 0.14z"/>
	<path class="st1" d="m100.21 265.68c0.01 0 0.03 0.01 0.05 0.01-0.02 0-0.03-0.01-0.05-0.01z"/>
	<path class="st1" d="m93.24 290.14h0.01c-0.31 0-0.6-0.07-0.87-0.18 0.27 0.11 0.56 0.18 0.86 0.18z"/>
	<path class="st1" d="m91.71 289.55s0.01 0 0 0c0 0-0.01-0.02-0.02-0.03 0.01 0.01 0.01 0.02 0.02 0.03z"/>
	<path class="st1" d="m102.62 287.73c0 1.33-1.08 2.41-2.41 2.41 1.33 0 2.41-1.08 2.41-2.41l0.01-19.63c0-0.22-0.07-0.42-0.13-0.62 0-0.01-0.01-0.02-0.02-0.04 0.06 0.21 0.14 0.43 0.14 0.66z"/>
	<path class="st1" d="m114.15 290.14h0.02c-0.28 0-0.53-0.07-0.78-0.16 0.23 0.09 0.48 0.16 0.76 0.16z"/>
	<path class="st1" d="m113 289.81c0.05 0.03 0.11 0.04 0.16 0.07-0.11-0.05-0.22-0.12-0.32-0.19 0.06 0.04 0.1 0.09 0.16 0.12z"/>
	<path class="st1" d="m121.11 290.14c-0.28 0-0.55-0.07-0.8-0.16 0.25 0.09 0.52 0.16 0.8 0.16z"/>
	<path class="st1" d="m120.1 289.9c0.03 0.01 0.06 0.02 0.09 0.03-0.13-0.05-0.24-0.13-0.36-0.21 0.09 0.06 0.17 0.14 0.27 0.18z"/>
	<path class="st1" d="m540.32 253.81h-484.95c-0.99 29.63-5.2 190.02-5.2 199.22 0 10.3 0 17.59 10.98 17.59 12.74 0 148.19 0.35 218.37 0.13 32.34 0.11 239.25-0.01 255.12-0.01 11.51 0 11.44-3.55 11.44-13.85 0-9.2-4.75-173.52-5.76-203.08zm-18.23 199.08h-447.27c-3.06 0-5.48-2.6-5.25-5.65l1.49-152.81h0.41v-0.03l0.16-1.28 1.3-25.67c-0.04-2.93 2.31-5.33 5.24-5.34h1.99l53.77-0.1h2.29l382.13-0.71c1.91-0.01 3.57 1.01 4.51 2.52 0.63 0.94 1 2.08 0.95 3.31l0.65 26.43 0.06 0.89h0.15l0.02 1.33 0.09 0.52h-0.08l2.65 150.98c0.21 3.03-2.21 5.61-5.26 5.61z"/>
	<path class="st1" d="m105.91 289.73c0.03 0.02 0.07 0.03 0.1 0.05-0.04-0.03-0.09-0.05-0.13-0.07 0.01 0 0.01 0.01 0.03 0.02z"/>
	<path class="st1" d="m107.18 290.14h0.02c-0.28 0-0.53-0.07-0.78-0.16 0.23 0.09 0.48 0.16 0.76 0.16z"/>
	<path class="st1" d="m111.77 287.73v-19.63c0-1.33 1.07-2.4 2.39-2.41h-0.02c-1.33 0-2.41 1.08-2.41 2.41v19.63c0 0.74 0.35 1.37 0.88 1.81-0.5-0.45-0.84-1.08-0.84-1.81z"/>
	<path class="st1" d="m118.71 287.73v-19.63c0-1.33 1.08-2.41 2.41-2.41h-0.01c-1.33 0-2.41 1.08-2.41 2.41l0.01 19.63c-0.01 0.5 0.15 0.96 0.42 1.35-0.26-0.39-0.42-0.85-0.42-1.35z"/>
	<path class="st1" d="m86.28 290.14c-0.13 0-0.26-0.02-0.39-0.05 0.12 0.03 0.25 0.05 0.39 0.05z"/>
	<path class="st1" d="m90.86 287.73v-19.63c0-1.33 1.07-2.4 2.4-2.41h-0.01c-1.33 0-2.41 1.08-2.41 2.41v19.63c0 0.1 0.05 0.19 0.07 0.29-0.02-0.1-0.05-0.19-0.05-0.29z"/>
	<path class="st1" d="m83.88 287.73v-19.63c0-1.33 1.08-2.4 2.4-2.41h-0.01c-1.33 0-2.41 1.08-2.41 2.41v19.63c0 0.11 0.05 0.21 0.07 0.32-0.01-0.11-0.05-0.21-0.05-0.32z"/>
	<path class="st1" d="m84.61 289.46c0.03 0.03 0.08 0.05 0.12 0.08-0.09-0.08-0.17-0.18-0.26-0.27 0.06 0.06 0.09 0.14 0.14 0.19z"/>
	<path class="st2" d="m108.02 328.11h-19.69c-0.39 0-0.7 0.32-0.7 0.7v63.44c0 0.39 0.31 0.7 0.7 0.7h19.68c0.39 0 0.7-0.32 0.7-0.7v-63.44c0.01-0.39-0.31-0.7-0.69-0.7z"/>
	<path class="st2" d="m341.47 393.22h-0.38c0.09 0.2 0.16 0.41 0.19 0.65 0.04-0.24 0.1-0.45 0.19-0.65z"/>
	<path class="st2" d="m319.44 393.22h-0.38c0.09 0.2 0.16 0.42 0.19 0.65 0.04-0.23 0.1-0.45 0.19-0.65z"/>
	<path class="st2" d="m363.51 393.22h-0.38c0.09 0.2 0.16 0.41 0.19 0.65 0.03-0.24 0.09-0.45 0.19-0.65z"/>
	<path class="st2" d="m297.41 393.22h-0.38c0.09 0.2 0.16 0.41 0.19 0.65 0.04-0.24 0.1-0.45 0.19-0.65z"/>
	<path class="st2" d="m275.38 393.22h-0.38c0.09 0.2 0.16 0.41 0.19 0.65 0.03-0.24 0.1-0.45 0.19-0.65z"/>
	<polygon class="st2" points="447.41 393.2 447.41 393.19"/>
	<path class="st2" d="m231.31 393.22h-0.38c0.09 0.2 0.16 0.42 0.19 0.65 0.04-0.23 0.1-0.45 0.19-0.65z"/>
	<path class="st2" d="m253.35 393.22h-0.38c0.09 0.2 0.15 0.41 0.19 0.65 0.03-0.24 0.09-0.45 0.19-0.65z"/>
	<path class="st2" d="m209.28 393.22h-0.38c0.09 0.2 0.16 0.41 0.19 0.65 0.04-0.24 0.1-0.45 0.19-0.65z"/>
	<path class="st2" d="m385.54 393.22h-0.38c0.09 0.2 0.16 0.41 0.19 0.65 0.03-0.24 0.1-0.45 0.19-0.65z"/>
	<path class="st2" d="m524.7 296.28h-453.54l0.29-1.68c0.01-0.05 0.01-0.11 0.01-0.16h-0.41l-1.49 152.81c-0.22 3.05 2.19 5.65 5.25 5.65h447.27c3.05 0 5.46-2.58 5.26-5.63zm-413.63 95.97c0 1.69-1.37 3.06-3.06 3.06h-19.68c-1.69 0-3.06-1.37-3.06-3.06v-63.44c0-1.69 1.37-3.06 3.06-3.06h19.68c1.69 0 3.06 1.37 3.06 3.06zm30.71 50.43c-3.3 0-5.98-2.78-5.98-6.2s2.68-6.2 5.98-6.2 5.98 2.78 5.98 6.2-2.69 6.2-5.98 6.2zm23.01 0c-3.3 0-5.98-2.78-5.98-6.2s2.68-6.2 5.98-6.2 5.98 2.78 5.98 6.2-2.68 6.2-5.98 6.2zm23.02 0c-3.3 0-5.98-2.78-5.98-6.2s2.68-6.2 5.98-6.2 5.98 2.78 5.98 6.2-2.69 6.2-5.98 6.2zm325.48-74.21c0 0.86 0 2.47-1.34 2.47h-21.25c-0.42 0-0.7-0.16-0.9-0.4-0.2 0.24-0.47 0.4-0.88 0.4 0.03 0.24 0.06 0.5 0.06 0.81v19.25c0 0.91-0.16 1.48-0.4 1.86 0.49 0.49 0.5 1.44 0.5 2.15v19.25c0 0.98 0 2.47-1.32 2.47h-18.68c-0.47 0-0.77-0.19-0.96-0.48-0.2 0.29-0.49 0.48-0.96 0.48h-18.68c-0.57 0-0.88-0.28-1.06-0.67-0.3 0.51-0.72 0.67-1.11 0.67h-38.65c-0.26 0-0.53-0.06-0.77-0.26-0.19 0.16-0.44 0.26-0.77 0.26h-11.24c0.17 0.35 0.28 0.74 0.28 1.15v22.56c0 1.48-1.17 2.69-2.6 2.69h-185.9c-1.44 0-2.6-1.21-2.6-2.69v-22.56c0-0.42 0.11-0.8 0.28-1.15h-16c-0.38 0-0.64-0.14-0.84-0.34-0.26 0.25-0.57 0.34-0.86 0.34h-38.65c-0.22 0-0.46-0.06-0.67-0.19-0.17 0.11-0.38 0.19-0.66 0.19h-18.68c-1.32 0-1.32-1.48-1.32-2.47v-19.26c0-0.68 0.01-1.58 0.44-2.09-0.51-0.5-0.52-1.49-0.52-2.16v-19.25c0-0.92 0-2.47 1.33-2.47h2.41c-0.01-0.12-0.03-0.21-0.03-0.34v-19.25c0-0.71 0.11-1.24 0.29-1.65v-18.78c0-0.92 0-2.47 1.34-2.47h21.25c0.42 0 0.69 0.17 0.89 0.41 0.2-0.24 0.47-0.41 0.89-0.41h21.25c0.42 0 0.69 0.16 0.89 0.39 0.2-0.23 0.48-0.39 0.89-0.39h2.71c-0.2-0.55-0.34-1.19-0.34-2.02v-13.22c0-1.33 0.28-2.26 0.79-2.86v-0.15c0-0.86 0-2.47 1.34-2.47h21.25c0.42 0 0.69 0.16 0.89 0.39 0.2-0.23 0.47-0.39 0.89-0.39h21.25c0.42 0 0.69 0.16 0.89 0.39 0.2-0.23 0.47-0.39 0.89-0.39h21.25c0.42 0 0.69 0.17 0.89 0.41 0.2-0.24 0.47-0.41 0.89-0.41h21.25c0.42 0 0.69 0.16 0.89 0.39 0.2-0.23 0.48-0.39 0.89-0.39h21.25c0.42 0 0.69 0.16 0.89 0.39 0.2-0.23 0.47-0.39 0.89-0.39h21.25c0.42 0 0.7 0.16 0.89 0.39 0.2-0.23 0.47-0.39 0.89-0.39h21.25c0.42 0 0.69 0.17 0.89 0.41 0.2-0.24 0.47-0.41 0.89-0.41h21.25c0.36 0 0.62 0.12 0.82 0.3 0.19-0.18 0.45-0.3 0.81-0.3h21.25c0.42 0 0.69 0.16 0.89 0.39 0.2-0.23 0.48-0.39 0.89-0.39h21.25c0.42 0 0.69 0.16 0.89 0.39 0.2-0.23 0.47-0.39 0.89-0.39h21.25c1.34 0 1.34 1.6 1.34 2.47v18.25h17.19c0.42 0 0.69 0.16 0.89 0.39 0.2-0.23 0.48-0.39 0.89-0.39h21.25c0.41 0 0.69 0.16 0.89 0.39 0.2-0.23 0.47-0.39 0.88-0.39h21.25c1.34 0 1.34 1.54 1.34 2.47v17.73h12.09c1.34 0 1.34 1.6 1.34 2.47v19.26z"/>
	<path class="st2" d="m524.55 294.92 0.14 0.84-0.02-1.33h-0.15l0.03 0.36c-0.01 0.04-0.01 0.09 0 0.13z"/>
	<path class="st3" d="m71.16 296.28h453.62l-0.09-0.52-0.14-0.84c-0.01-0.04-0.01-0.09-0.01-0.13l-0.03-0.36-0.06-0.89-0.65-26.43c0.05-1.23-0.32-2.37-0.95-3.31-0.95-1.41-2.52-2.37-4.34-2.42l-2.57 0.45-0.31 31.3h-379.42v-31.13h-2.29v31.12h-53.77v-31.02h-1.99c-2.93 0.02-5.28 2.42-5.24 5.34l-1.3 25.67-0.16 1.28v0.03c0 0.05 0 0.11-0.01 0.16zm451.1-30.88c0.33 2.85 0.61 27.82 0.61 27.82l-5.3 0.05-0.06-29.97c0-0.01 4.42-0.75 4.75 2.1zm-448.12 1.57c0.21-3.65 3.93-2.93 3.93-2.93l0.21 29.18-5.15-0.12c0.01-0.01 0.8-22.48 1.01-26.13z"/>
	<path class="st4" d="m499.34 282.78c-0.07 0.02-0.14 0.04-0.21 0.04-0.19 0-0.35-0.07-0.5-0.16 0.1 0.15 0.18 0.33 0.18 0.52 0 0.16-0.05 0.31-0.12 0.44 0.13-0.07 0.28-0.12 0.44-0.12 0.15 0 0.28 0.04 0.41 0.1-0.14-0.17-0.24-0.38-0.24-0.61 0-0.07 0.02-0.14 0.04-0.21z"/>
	<path class="st4" d="m515.63 293.12 0.31-31.3 2.57-0.45c1.82 0.06 3.39 1.01 4.34 2.42-0.93-1.52-2.6-2.53-4.51-2.52l-382.13 0.73v31.13h379.42zm-24.05-2.81c-0.53 0-0.96-0.43-0.96-0.96s0.43-0.96 0.96-0.96 0.96 0.43 0.96 0.96c-0.01 0.53-0.43 0.96-0.96 0.96zm2.49 0c-0.53 0-0.96-0.43-0.96-0.96s0.43-0.96 0.96-0.96 0.96 0.43 0.96 0.96c-0.01 0.53-0.43 0.96-0.96 0.96zm14.8-17.41c0 0.53-0.43 0.96-0.96 0.96-0.1 0-0.2-0.03-0.29-0.06 0.03 0.1 0.06 0.2 0.06 0.31 0 0.53-0.43 0.96-0.96 0.96-0.23 0-0.43-0.09-0.59-0.22 0.12 0.16 0.21 0.35 0.21 0.57 0 0.53-0.43 0.96-0.96 0.96s-0.96-0.43-0.96-0.96 0.43-0.96 0.96-0.96c0.23 0 0.43 0.09 0.59 0.22-0.12-0.16-0.21-0.35-0.21-0.57 0-0.53 0.43-0.96 0.96-0.96 0.1 0 0.2 0.03 0.29 0.06-0.03-0.1-0.06-0.2-0.06-0.31 0-0.53 0.43-0.96 0.96-0.96 0.14 0 0.27 0.03 0.38 0.08-0.07-0.13-0.11-0.27-0.11-0.42 0-0.53 0.43-0.96 0.96-0.96s0.96 0.43 0.96 0.96-0.43 0.96-0.96 0.96c-0.14 0-0.27-0.03-0.38-0.08 0.06 0.12 0.11 0.26 0.11 0.42zm1.67 13.58c-0.53 0-0.96-0.43-0.96-0.96s0.43-0.96 0.96-0.96 0.96 0.43 0.96 0.96c-0.01 0.53-0.43 0.96-0.96 0.96zm0.95 1.51c0 0.53-0.43 0.96-0.96 0.96s-0.96-0.43-0.96-0.96 0.43-0.96 0.96-0.96 0.96 0.43 0.96 0.96zm-0.95-3.97c-0.53 0-0.96-0.43-0.96-0.96s0.43-0.96 0.96-0.96 0.96 0.43 0.96 0.96-0.43 0.96-0.96 0.96zm0-2.47c-0.53 0-0.96-0.43-0.96-0.96s0.43-0.96 0.96-0.96 0.96 0.43 0.96 0.96-0.43 0.96-0.96 0.96zm0-2.55c-0.53 0-0.96-0.43-0.96-0.96s0.43-0.96 0.96-0.96 0.96 0.43 0.96 0.96c-0.01 0.53-0.43 0.96-0.96 0.96zm0-2.47c-0.53 0-0.96-0.43-0.96-0.96s0.43-0.96 0.96-0.96 0.96 0.43 0.96 0.96-0.43 0.96-0.96 0.96zm0-2.67c-0.53 0-0.96-0.43-0.96-0.96s0.43-0.96 0.96-0.96 0.96 0.43 0.96 0.96c-0.01 0.53-0.43 0.96-0.96 0.96zm0-2.67c-0.53 0-0.96-0.43-0.96-0.96s0.43-0.96 0.96-0.96 0.96 0.43 0.96 0.96-0.43 0.96-0.96 0.96zm0-6.8c0.53 0 0.96 0.43 0.96 0.96s-0.43 0.96-0.96 0.96-0.96-0.43-0.96-0.96c0-0.54 0.43-0.96 0.96-0.96zm-2.71 0.01c0.53 0 0.96 0.43 0.96 0.96 0 0.22-0.09 0.42-0.21 0.58 0.16-0.13 0.36-0.21 0.58-0.21 0.53 0 0.96 0.43 0.96 0.96 0 0.17-0.06 0.33-0.14 0.47 0.16-0.13 0.36-0.21 0.58-0.21 0.53 0 0.96 0.43 0.96 0.96s-0.43 0.96-0.96 0.96-0.96-0.43-0.96-0.96c0-0.17 0.06-0.33 0.14-0.47-0.16 0.13-0.36 0.21-0.58 0.21-0.53 0-0.96-0.43-0.96-0.96 0-0.22 0.09-0.42 0.21-0.58-0.16 0.13-0.36 0.21-0.58 0.21-0.53 0-0.96-0.43-0.96-0.96s0.43-0.96 0.96-0.96zm-2.52 0c0.53 0 0.96 0.43 0.96 0.96s-0.43 0.96-0.96 0.96-0.96-0.43-0.96-0.96 0.43-0.96 0.96-0.96zm-0.72 4.03c-0.14-0.17-0.24-0.38-0.24-0.61 0-0.53 0.43-0.96 0.96-0.96s0.96 0.43 0.96 0.96c0 0.16-0.05 0.31-0.12 0.44 0.13-0.07 0.28-0.12 0.44-0.12 0.53 0 0.96 0.43 0.96 0.96s-0.43 0.96-0.96 0.96c-0.24 0-0.44-0.09-0.61-0.24 0.14 0.17 0.24 0.38 0.24 0.61 0 0.53-0.43 0.96-0.96 0.96s-0.96-0.43-0.96-0.96c0-0.16 0.05-0.31 0.12-0.44-0.13 0.07-0.28 0.12-0.44 0.12-0.53 0-0.96-0.43-0.96-0.96s0.43-0.96 0.96-0.96c0.23 0.01 0.44 0.1 0.61 0.24zm-3.27 4.38c0 0.53-0.43 0.96-0.96 0.96s-0.96-0.43-0.96-0.96c0-0.16 0.05-0.31 0.12-0.44-0.13 0.07-0.28 0.12-0.44 0.12-0.53 0-0.96-0.43-0.96-0.96s0.43-0.96 0.96-0.96 0.96 0.43 0.96 0.96c0 0.16-0.05 0.31-0.12 0.44 0.13-0.07 0.28-0.12 0.44-0.12 0.21 0 0.39 0.08 0.54 0.19-0.11-0.16-0.19-0.34-0.19-0.54 0-0.53 0.43-0.96 0.96-0.96s0.96 0.43 0.96 0.96-0.43 0.96-0.96 0.96c-0.21 0-0.39-0.08-0.54-0.19 0.11 0.15 0.19 0.33 0.19 0.54zm1.62 1.63c0.53 0 0.96 0.43 0.96 0.96s-0.43 0.96-0.96 0.96-0.96-0.43-0.96-0.96c0.01-0.53 0.44-0.96 0.96-0.96zm-5.13-10.04c0.53 0 0.96 0.43 0.96 0.96 0 0.18-0.07 0.35-0.16 0.49 0.14-0.08 0.3-0.15 0.48-0.15 0.17 0 0.32 0.05 0.45 0.13-0.08-0.14-0.14-0.3-0.14-0.48 0-0.53 0.43-0.96 0.96-0.96s0.96 0.43 0.96 0.96c0 0.18-0.06 0.34-0.15 0.48 0.15-0.1 0.32-0.17 0.51-0.17 0.15 0 0.28 0.04 0.4 0.1-0.06-0.12-0.1-0.26-0.1-0.41 0-0.53 0.43-0.96 0.96-0.96s0.96 0.43 0.96 0.96-0.43 0.96-0.96 0.96c-0.15 0-0.28-0.04-0.4-0.1 0.06 0.12 0.1 0.26 0.1 0.41 0 0.53-0.43 0.96-0.96 0.96-0.21 0-0.39-0.08-0.54-0.19 0.11 0.16 0.19 0.34 0.19 0.54 0 0.53-0.43 0.96-0.96 0.96s-0.96-0.43-0.96-0.96c0-0.16 0.05-0.31 0.12-0.44-0.13 0.07-0.28 0.12-0.44 0.12-0.53 0-0.96-0.43-0.96-0.96 0-0.18 0.07-0.35 0.16-0.49-0.14 0.08-0.3 0.15-0.48 0.15-0.53 0-0.96-0.43-0.96-0.96 0.01-0.52 0.44-0.95 0.96-0.95zm-2.55 0c0.53 0 0.96 0.43 0.96 0.96s-0.43 0.96-0.96 0.96-0.96-0.43-0.96-0.96 0.43-0.96 0.96-0.96zm-0.69 4.03c-0.14-0.17-0.24-0.38-0.24-0.61 0-0.53 0.43-0.96 0.96-0.96s0.96 0.43 0.96 0.96c0 0.16-0.05 0.31-0.12 0.44 0.13-0.07 0.28-0.12 0.44-0.12 0.53 0 0.96 0.43 0.96 0.96s-0.43 0.96-0.96 0.96c-0.24 0-0.44-0.09-0.61-0.24 0.14 0.17 0.24 0.38 0.24 0.61 0 0.53-0.43 0.96-0.96 0.96s-0.96-0.43-0.96-0.96c0-0.16 0.05-0.31 0.12-0.44-0.13 0.07-0.28 0.12-0.44 0.12-0.53 0-0.96-0.43-0.96-0.96s0.43-0.96 0.96-0.96c0.23 0.01 0.44 0.1 0.61 0.24zm-3.98-1.85c0-0.12 0.03-0.23 0.07-0.34-0.11 0.05-0.24 0.07-0.36 0.07-0.53 0-0.96-0.43-0.96-0.96s0.43-0.96 0.96-0.96 0.96 0.43 0.96 0.96c0 0.12-0.03 0.23-0.07 0.34 0.11-0.05 0.24-0.07 0.36-0.07 0.14 0 0.27 0.03 0.39 0.09-0.04-0.11-0.07-0.23-0.07-0.35 0-0.53 0.43-0.96 0.96-0.96s0.96 0.43 0.96 0.96-0.43 0.96-0.96 0.96c-0.14 0-0.27-0.03-0.39-0.09 0.04 0.11 0.07 0.23 0.07 0.35 0 0.53-0.43 0.96-0.96 0.96-0.2 0-0.38-0.08-0.54-0.19 0.15 0.17 0.24 0.38 0.24 0.62 0 0.53-0.43 0.96-0.96 0.96s-0.96-0.43-0.96-0.96 0.43-0.96 0.96-0.96c0.2 0 0.38 0.08 0.54 0.19-0.15-0.17-0.24-0.38-0.24-0.62zm-0.07 10.23c0-0.16 0.05-0.31 0.12-0.44-0.13 0.07-0.28 0.12-0.44 0.12-0.53 0-0.96-0.43-0.96-0.96s0.43-0.96 0.96-0.96c0.19 0 0.35 0.07 0.5 0.16-0.1-0.15-0.18-0.33-0.18-0.52 0-0.16 0.05-0.31 0.12-0.44-0.13 0.07-0.28 0.12-0.44 0.12-0.53 0-0.96-0.43-0.96-0.96s0.43-0.96 0.96-0.96c0.14 0 0.26 0.03 0.38 0.08-0.03-0.1-0.06-0.2-0.06-0.31 0-0.16 0.05-0.31 0.12-0.44-0.13 0.07-0.28 0.12-0.44 0.12-0.53 0-0.96-0.43-0.96-0.96s0.43-0.96 0.96-0.96 0.96 0.43 0.96 0.96c0 0.16-0.05 0.31-0.12 0.44 0.13-0.07 0.28-0.12 0.44-0.12 0.53 0 0.96 0.43 0.96 0.96 0 0.16-0.05 0.31-0.12 0.44 0.13-0.07 0.28-0.12 0.44-0.12 0.53 0 0.96 0.43 0.96 0.96 0 0.16-0.05 0.31-0.12 0.44 0.13-0.07 0.28-0.12 0.44-0.12 0.53 0 0.96 0.43 0.96 0.96 0 0.16-0.05 0.31-0.12 0.44 0.13-0.07 0.28-0.12 0.44-0.12 0.53 0 0.96 0.43 0.96 0.96 0 0.16-0.05 0.31-0.12 0.44 0.13-0.07 0.28-0.12 0.44-0.12 0.24 0 0.44 0.09 0.61 0.24-0.14-0.17-0.24-0.38-0.24-0.61 0-0.53 0.43-0.96 0.96-0.96s0.96 0.43 0.96 0.96c0 0.16-0.05 0.31-0.12 0.44 0.13-0.07 0.28-0.12 0.44-0.12 0.21 0 0.39 0.08 0.54 0.19-0.11-0.16-0.19-0.34-0.19-0.54 0-0.53 0.43-0.96 0.96-0.96s0.96 0.43 0.96 0.96-0.43 0.96-0.96 0.96c-0.21 0-0.39-0.08-0.54-0.19 0.11 0.16 0.19 0.34 0.19 0.54 0 0.16-0.05 0.31-0.12 0.44 0.13-0.07 0.28-0.12 0.44-0.12 0.53 0 0.96 0.43 0.96 0.96s-0.43 0.96-0.96 0.96c-0.24 0-0.44-0.09-0.61-0.24 0.14 0.17 0.24 0.38 0.24 0.61 0 0.08-0.03 0.14-0.04 0.21 0.07-0.02 0.14-0.04 0.21-0.04 0.53 0 0.96 0.43 0.96 0.96 0 0.15-0.04 0.28-0.1 0.4 0.12-0.06 0.26-0.1 0.4-0.1 0.53 0 0.96 0.43 0.96 0.96 0 0.13-0.03 0.26-0.07 0.37 0.11-0.05 0.24-0.07 0.37-0.07 0.53 0 0.96 0.43 0.96 0.96 0 0.21-0.08 0.39-0.19 0.54 0.16-0.11 0.34-0.19 0.54-0.19 0.53 0 0.96 0.43 0.96 0.96 0 0.11-0.03 0.21-0.06 0.31 0.1-0.03 0.2-0.06 0.31-0.06 0.53 0 0.96 0.43 0.96 0.96 0 0.16-0.05 0.31-0.12 0.44 0.13-0.07 0.28-0.12 0.44-0.12 0.53 0 0.96 0.43 0.96 0.96 0 0.11-0.03 0.22-0.06 0.32 0.14-0.07 0.28-0.13 0.45-0.13 0.53 0 0.96 0.43 0.96 0.96 0 0.2-0.08 0.38-0.18 0.53 0.13-0.07 0.28-0.12 0.44-0.12 0.53 0 0.96 0.43 0.96 0.96 0 0.2-0.08 0.37-0.18 0.53 0.17-0.14 0.38-0.24 0.61-0.24 0.53 0 0.96 0.43 0.96 0.96s-0.43 0.96-0.96 0.96-0.96-0.43-0.96-0.96c0-0.2 0.08-0.37 0.18-0.53-0.17 0.14-0.38 0.24-0.61 0.24-0.53 0-0.96-0.43-0.96-0.96 0-0.2 0.08-0.38 0.18-0.53-0.13 0.07-0.28 0.12-0.44 0.12-0.53 0-0.96-0.43-0.96-0.96 0-0.11 0.03-0.22 0.06-0.32-0.14 0.07-0.28 0.13-0.45 0.13-0.53 0-0.96-0.43-0.96-0.96 0-0.16 0.05-0.31 0.12-0.44-0.13 0.07-0.28 0.12-0.44 0.12-0.11 0-0.22-0.03-0.32-0.07 0.05 0.11 0.07 0.24 0.07 0.37 0 0.53-0.43 0.96-0.96 0.96-0.15 0-0.28-0.04-0.4-0.1 0.06 0.12 0.1 0.26 0.1 0.4 0 0.2-0.07 0.37-0.17 0.52 0.16-0.12 0.35-0.21 0.57-0.21 0.53 0 0.96 0.43 0.96 0.96s-0.43 0.96-0.96 0.96-0.96-0.43-0.96-0.96c0-0.2 0.07-0.37 0.17-0.52-0.16 0.12-0.35 0.21-0.57 0.21-0.13 0-0.25-0.03-0.36-0.07 0.05 0.12 0.08 0.25 0.08 0.38 0 0.53-0.43 0.96-0.96 0.96s-0.96-0.43-0.96-0.96 0.43-0.96 0.96-0.96c0.13 0 0.25 0.03 0.36 0.07-0.05-0.12-0.08-0.25-0.08-0.39 0-0.53 0.43-0.96 0.96-0.96 0.15 0 0.28 0.04 0.4 0.1-0.06-0.12-0.1-0.26-0.1-0.4 0-0.21 0.08-0.39 0.19-0.54-0.16 0.11-0.34 0.19-0.54 0.19-0.53 0-0.96-0.43-0.96-0.96 0-0.13 0.03-0.26 0.07-0.37-0.11 0.05-0.24 0.07-0.37 0.07-0.18 0-0.34-0.06-0.49-0.15 0.11 0.15 0.18 0.33 0.18 0.53 0 0.53-0.43 0.96-0.96 0.96-0.13 0-0.26-0.03-0.38-0.08 0.12 0.16 0.21 0.35 0.21 0.57 0 0.53-0.43 0.96-0.96 0.96-0.12 0-0.23-0.03-0.33-0.07 0.04 0.1 0.07 0.21 0.07 0.33 0 0.07-0.03 0.14-0.04 0.21 0.1-0.04 0.2-0.06 0.31-0.06 0.53 0 0.96 0.43 0.96 0.96s-0.43 0.96-0.96 0.96-0.96-0.43-0.96-0.96c0-0.07 0.03-0.14 0.04-0.21-0.1 0.04-0.2 0.06-0.31 0.06-0.17 0-0.31-0.05-0.45-0.13 0.03 0.09 0.05 0.17 0.05 0.27 0 0.53-0.43 0.96-0.96 0.96s-0.96-0.43-0.96-0.96 0.43-0.96 0.96-0.96c0.17 0 0.31 0.05 0.45 0.13-0.03-0.09-0.05-0.17-0.05-0.27 0-0.53 0.43-0.96 0.96-0.96 0.12 0 0.22 0.03 0.33 0.07-0.04-0.1-0.07-0.21-0.07-0.33 0-0.16 0.05-0.31 0.12-0.44-0.13 0.07-0.28 0.12-0.44 0.12-0.53 0-0.96-0.43-0.96-0.96 0-0.16 0.05-0.31 0.12-0.44-0.13 0.07-0.28 0.12-0.44 0.12-0.53 0-0.96-0.43-0.96-0.96 0-0.16 0.05-0.31 0.12-0.44-0.13 0.07-0.28 0.12-0.44 0.12-0.53 0-0.96-0.43-0.96-0.96 0-0.16 0.05-0.31 0.12-0.44-0.13 0.07-0.28 0.12-0.44 0.12-0.53 0-0.96-0.43-0.96-0.96 0-0.16 0.05-0.31 0.12-0.44-0.13 0.07-0.28 0.12-0.44 0.12-0.53 0-0.96-0.43-0.96-0.96 0-0.16 0.05-0.31 0.12-0.44-0.13 0.07-0.28 0.12-0.44 0.12-0.53 0-0.96-0.43-0.96-0.96 0-0.16 0.05-0.31 0.12-0.44-0.13 0.07-0.28 0.12-0.44 0.12-0.53 0-0.96-0.43-0.96-0.96s0.43-0.96 0.96-0.96c0.17 0 0.33 0.06 0.47 0.14-0.08-0.13-0.14-0.29-0.14-0.47zm-82.87-10.7h74.65v4.58h-74.65zm0 19.45h74.65v4.58h-74.65z"/>
	<path class="st4" d="m497.85 279.63c0.14 0 0.26 0.03 0.38 0.08-0.03-0.1-0.06-0.2-0.06-0.31 0-0.16 0.05-0.31 0.12-0.44-0.13 0.07-0.28 0.12-0.44 0.12-0.14 0-0.26-0.03-0.38-0.08 0.03 0.1 0.06 0.2 0.06 0.31 0 0.16-0.05 0.31-0.12 0.44 0.14-0.07 0.28-0.12 0.44-0.12z"/>
	<path class="st4" d="m498.29 281.43c-0.13 0.07-0.28 0.12-0.44 0.12-0.19 0-0.35-0.07-0.5-0.16 0.1 0.15 0.18 0.33 0.18 0.52 0 0.16-0.05 0.31-0.12 0.44 0.13-0.07 0.28-0.12 0.44-0.12 0.19 0 0.35 0.07 0.5 0.16-0.1-0.15-0.18-0.32-0.18-0.52 0-0.17 0.05-0.31 0.12-0.44z"/>
	<path class="st4" d="m504.81 269.59c0.13-0.07 0.28-0.12 0.44-0.12 0.24 0 0.44 0.09 0.61 0.24-0.14-0.17-0.24-0.38-0.24-0.61 0-0.16 0.05-0.31 0.12-0.44-0.13 0.07-0.28 0.12-0.44 0.12-0.24 0-0.44-0.09-0.61-0.24 0.14 0.17 0.24 0.38 0.24 0.61 0 0.16-0.05 0.31-0.12 0.44z"/>
	<path class="st4" d="m499.93 267.1c0.13-0.07 0.28-0.12 0.44-0.12 0.21 0 0.39 0.08 0.54 0.19-0.11-0.16-0.19-0.34-0.19-0.54 0-0.18 0.06-0.34 0.15-0.48-0.15 0.1-0.32 0.17-0.51 0.17-0.17 0-0.32-0.05-0.45-0.13 0.08 0.14 0.14 0.3 0.14 0.47 0 0.16-0.05 0.31-0.12 0.44z"/>
	<path class="st4" d="m496.14 281.07c0.13-0.07 0.28-0.12 0.44-0.12 0.19 0 0.35 0.07 0.5 0.16-0.1-0.15-0.18-0.33-0.18-0.52 0-0.16 0.05-0.31 0.12-0.44-0.13 0.07-0.28 0.12-0.44 0.12-0.19 0-0.35-0.07-0.5-0.16 0.1 0.15 0.18 0.33 0.18 0.52 0 0.17-0.05 0.31-0.12 0.44z"/>
	<path class="st4" d="m494.79 269.59c0.13-0.07 0.28-0.12 0.44-0.12 0.24 0 0.44 0.09 0.61 0.24-0.14-0.17-0.24-0.38-0.24-0.61 0-0.16 0.05-0.31 0.12-0.44-0.13 0.07-0.28 0.12-0.44 0.12-0.24 0-0.44-0.09-0.61-0.24 0.14 0.17 0.24 0.38 0.24 0.61 0 0.16-0.05 0.31-0.12 0.44z"/>
	<path class="st4" d="m491.91 277.65c-0.13 0.07-0.28 0.12-0.44 0.12-0.17 0-0.33-0.06-0.47-0.14 0.09 0.14 0.15 0.3 0.15 0.48 0 0.16-0.05 0.31-0.12 0.44 0.13-0.07 0.28-0.12 0.44-0.12 0.17 0 0.33 0.06 0.47 0.14-0.09-0.14-0.15-0.3-0.15-0.48 0-0.17 0.05-0.31 0.12-0.44z"/>
	<path class="st4" d="m499.13 280.91c0.1 0 0.2 0.03 0.29 0.06-0.07-0.13-0.12-0.28-0.12-0.44 0-0.08 0.03-0.14 0.04-0.21-0.07 0.02-0.14 0.04-0.21 0.04-0.14 0-0.26-0.03-0.38-0.08 0.03 0.1 0.06 0.2 0.06 0.31 0 0.16-0.05 0.31-0.12 0.44 0.13-0.07 0.28-0.12 0.44-0.12z"/>
	<path class="st4" d="m500.04 282.08c0.07-0.02 0.14-0.04 0.21-0.04 0.13 0 0.26 0.03 0.37 0.08-0.04-0.1-0.06-0.21-0.06-0.32 0-0.15 0.04-0.28 0.1-0.4-0.12 0.06-0.26 0.1-0.4 0.1-0.1 0-0.2-0.03-0.29-0.06 0.07 0.13 0.12 0.28 0.12 0.44-0.01 0.06-0.03 0.13-0.05 0.2z"/>
	<path class="st4" d="m498.69 278.57c0.13-0.07 0.28-0.12 0.44-0.12 0.24 0 0.44 0.09 0.61 0.24-0.14-0.17-0.24-0.38-0.24-0.61 0-0.16 0.05-0.31 0.12-0.44-0.13 0.07-0.28 0.12-0.44 0.12-0.24 0-0.44-0.09-0.61-0.24 0.14 0.17 0.24 0.38 0.24 0.61 0 0.16-0.05 0.3-0.12 0.44z"/>
	<path class="st4" d="m497.41 277.29c0.13-0.07 0.28-0.12 0.44-0.12 0.24 0 0.44 0.09 0.61 0.24-0.14-0.17-0.24-0.38-0.24-0.61 0-0.16 0.05-0.31 0.12-0.44-0.13 0.07-0.28 0.12-0.44 0.12-0.24 0-0.44-0.09-0.61-0.24 0.14 0.17 0.24 0.38 0.24 0.61 0 0.16-0.05 0.31-0.12 0.44z"/>
	<path class="st4" d="m501.88 283.37c-0.04-0.1-0.07-0.21-0.07-0.33 0-0.13 0.03-0.26 0.07-0.37-0.11 0.05-0.24 0.07-0.37 0.07s-0.26-0.03-0.37-0.08c0.04 0.1 0.06 0.21 0.06 0.32 0 0.15-0.04 0.28-0.1 0.4 0.12-0.06 0.26-0.1 0.4-0.1 0.15 0.02 0.27 0.05 0.38 0.09z"/>
	<path class="st4" d="m503.18 284.66c-0.03-0.1-0.06-0.19-0.06-0.3 0-0.21 0.08-0.39 0.19-0.54-0.16 0.11-0.34 0.19-0.54 0.19-0.13 0-0.25-0.03-0.36-0.07 0.04 0.1 0.07 0.21 0.07 0.33 0 0.13-0.03 0.26-0.07 0.37 0.11-0.05 0.24-0.07 0.37-0.07 0.14-0.02 0.28 0.02 0.4 0.09z"/>
	<path class="st4" d="m493.13 274.61c-0.03-0.1-0.06-0.2-0.06-0.31 0-0.16 0.05-0.31 0.12-0.44-0.13 0.07-0.28 0.12-0.44 0.12-0.14 0-0.26-0.03-0.38-0.08 0.03 0.1 0.06 0.2 0.06 0.31 0 0.16-0.05 0.31-0.12 0.44 0.13-0.07 0.28-0.12 0.44-0.12 0.14 0 0.27 0.03 0.38 0.08z"/>
	<path class="st4" d="m491.48 273.26c0.14 0 0.26 0.03 0.38 0.08-0.03-0.1-0.06-0.2-0.06-0.31 0-0.16 0.05-0.31 0.12-0.44-0.13 0.07-0.28 0.12-0.44 0.12-0.14 0-0.26-0.03-0.38-0.08 0.03 0.1 0.06 0.2 0.06 0.31 0 0.16-0.05 0.31-0.12 0.44 0.13-0.07 0.27-0.12 0.44-0.12z"/>
	<path class="st4" d="m504.4 285.93c-0.05-0.11-0.07-0.24-0.07-0.37 0-0.11 0.03-0.21 0.06-0.31-0.1 0.03-0.2 0.06-0.31 0.06-0.15 0-0.29-0.04-0.41-0.1 0.03 0.1 0.06 0.19 0.06 0.3 0 0.21-0.08 0.39-0.19 0.54 0.16-0.11 0.34-0.19 0.54-0.19 0.12 0 0.22 0.03 0.32 0.07z"/>
	<path class="st4" d="m494.86 279.8c0.13-0.07 0.28-0.12 0.44-0.12 0.19 0 0.35 0.07 0.5 0.16-0.1-0.15-0.18-0.33-0.18-0.52 0-0.16 0.05-0.31 0.12-0.44-0.13 0.07-0.28 0.12-0.44 0.12-0.19 0-0.35-0.07-0.5-0.16 0.1 0.15 0.18 0.33 0.18 0.52 0 0.16-0.05 0.31-0.12 0.44z"/>
	<path class="st4" d="m494.41 275.89c-0.03-0.1-0.06-0.2-0.06-0.31 0-0.16 0.05-0.31 0.12-0.44-0.13 0.07-0.28 0.12-0.44 0.12-0.14 0-0.26-0.03-0.38-0.08 0.03 0.1 0.06 0.2 0.06 0.31 0 0.16-0.05 0.31-0.12 0.44 0.13-0.07 0.28-0.12 0.44-0.12 0.13 0 0.26 0.03 0.38 0.08z"/>
	<path class="st4" d="m496.96 278.44c-0.03-0.1-0.06-0.2-0.06-0.31 0-0.16 0.05-0.31 0.12-0.44-0.13 0.07-0.28 0.12-0.44 0.12-0.14 0-0.26-0.03-0.38-0.08 0.03 0.1 0.06 0.2 0.06 0.31 0 0.16-0.05 0.31-0.12 0.44 0.13-0.07 0.28-0.12 0.44-0.12 0.13 0 0.26 0.03 0.38 0.08z"/>
	<path class="st4" d="m491.04 275.97c0.13-0.07 0.28-0.12 0.44-0.12 0.19 0 0.35 0.07 0.5 0.16-0.1-0.15-0.18-0.33-0.18-0.52 0-0.16 0.05-0.31 0.12-0.44-0.13 0.07-0.28 0.12-0.44 0.12-0.19 0-0.35-0.07-0.5-0.16 0.1 0.15 0.18 0.33 0.18 0.52 0 0.16-0.05 0.31-0.12 0.44z"/>
	<path class="st4" d="m494.46 280.2c-0.13 0.07-0.28 0.12-0.44 0.12-0.17 0-0.33-0.06-0.47-0.14 0.09 0.14 0.15 0.3 0.15 0.48 0 0.16-0.05 0.31-0.12 0.44 0.13-0.07 0.28-0.12 0.44-0.12 0.17 0 0.33 0.06 0.47 0.14-0.09-0.14-0.15-0.3-0.15-0.48 0-0.17 0.05-0.31 0.12-0.44z"/>
	<path class="st4" d="m493.19 278.92c-0.13 0.07-0.28 0.12-0.44 0.12-0.17 0-0.33-0.06-0.47-0.14 0.09 0.14 0.15 0.3 0.15 0.48 0 0.16-0.05 0.31-0.12 0.44 0.13-0.07 0.28-0.12 0.44-0.12 0.17 0 0.33 0.06 0.47 0.14-0.09-0.14-0.15-0.3-0.15-0.48 0-0.16 0.05-0.31 0.12-0.44z"/>
	<path class="st4" d="m492.31 277.25c0.13-0.07 0.28-0.12 0.44-0.12 0.19 0 0.35 0.07 0.5 0.16-0.1-0.15-0.18-0.33-0.18-0.52 0-0.16 0.05-0.31 0.12-0.44-0.13 0.07-0.28 0.12-0.44 0.12-0.19 0-0.35-0.07-0.5-0.16 0.1 0.15 0.18 0.33 0.18 0.52 0 0.16-0.05 0.31-0.12 0.44z"/>
	<path class="st4" d="m493.59 278.52c0.13-0.07 0.28-0.12 0.44-0.12 0.19 0 0.35 0.07 0.5 0.16-0.1-0.15-0.18-0.33-0.18-0.52 0-0.16 0.05-0.31 0.12-0.44-0.13 0.07-0.28 0.12-0.44 0.12-0.19 0-0.35-0.07-0.5-0.16 0.1 0.15 0.18 0.33 0.18 0.52 0 0.17-0.05 0.31-0.12 0.44z"/>
	<path class="st4" d="m500.04 284.68c0.07-0.02 0.14-0.04 0.21-0.04 0.18 0 0.34 0.06 0.49 0.15-0.11-0.15-0.18-0.33-0.18-0.53 0-0.15 0.04-0.28 0.1-0.4-0.12 0.06-0.26 0.1-0.4 0.1-0.15 0-0.28-0.04-0.41-0.1 0.14 0.17 0.24 0.38 0.24 0.61-0.01 0.07-0.03 0.13-0.05 0.21z"/>
	<path class="st4" d="m499.34 285.37c-0.07 0.02-0.14 0.04-0.21 0.04-0.17 0-0.33-0.06-0.47-0.14 0.09 0.14 0.15 0.3 0.15 0.48 0 0.16-0.05 0.31-0.12 0.44 0.13-0.07 0.28-0.12 0.44-0.12 0.13 0 0.26 0.03 0.38 0.08-0.12-0.16-0.21-0.35-0.21-0.57 0-0.07 0.02-0.13 0.04-0.21z"/>
	<path class="st4" d="m498.29 284.02c-0.13 0.07-0.28 0.12-0.44 0.12-0.17 0-0.33-0.06-0.47-0.14 0.09 0.14 0.15 0.3 0.15 0.48 0 0.16-0.05 0.31-0.12 0.44 0.13-0.07 0.28-0.12 0.44-0.12 0.17 0 0.33 0.06 0.47 0.14-0.09-0.14-0.15-0.3-0.15-0.48 0-0.16 0.05-0.3 0.12-0.44z"/>
	<path class="st4" d="m497.02 282.75c-0.13 0.07-0.28 0.12-0.44 0.12-0.17 0-0.33-0.06-0.47-0.14 0.09 0.14 0.15 0.3 0.15 0.48 0 0.16-0.05 0.31-0.12 0.44 0.13-0.07 0.28-0.12 0.44-0.12 0.17 0 0.33 0.06 0.47 0.14-0.09-0.14-0.15-0.3-0.15-0.48 0-0.17 0.05-0.31 0.12-0.44z"/>
	<path class="st4" d="m495.74 281.47c-0.13 0.07-0.28 0.12-0.44 0.12-0.17 0-0.33-0.06-0.47-0.14 0.09 0.14 0.15 0.3 0.15 0.48 0 0.16-0.05 0.31-0.12 0.44 0.13-0.07 0.28-0.12 0.44-0.12 0.17 0 0.33 0.06 0.47 0.14-0.09-0.14-0.15-0.3-0.15-0.48 0-0.16 0.05-0.31 0.12-0.44z"/>
	<path class="st4" d="m495.68 277.16c-0.03-0.1-0.06-0.2-0.06-0.31 0-0.16 0.05-0.31 0.12-0.44-0.13 0.07-0.28 0.12-0.44 0.12-0.14 0-0.26-0.03-0.38-0.08 0.03 0.1 0.06 0.2 0.06 0.31 0 0.16-0.05 0.31-0.12 0.44 0.13-0.07 0.28-0.12 0.44-0.12 0.14 0 0.27 0.03 0.38 0.08z"/>
	<path class="st4" d="m133.92 293.12v-31.12l-53.77 0.1v31.02zm-8.25-25.02c0-1.33 1.08-2.41 2.41-2.41 1 0 1.85 0.6 2.22 1.47 0.12 0.29 0.19 0.61 0.19 0.95v19.63c0 1.33-1.08 2.41-2.41 2.41-0.31 0-0.61-0.07-0.88-0.18-0.89-0.35-1.53-1.21-1.53-2.23zm-6.97 0c0-1.33 1.08-2.41 2.41-2.41h0.01c1 0 1.85 0.6 2.22 1.47 0.12 0.29 0.19 0.61 0.19 0.95v19.63c0 1.33-1.08 2.41-2.41 2.41-0.29 0-0.55-0.07-0.8-0.16-0.02-0.01-0.05-0.01-0.07-0.01-0.02-0.01-0.03-0.02-0.05-0.03-0.03-0.01-0.06-0.02-0.09-0.03-0.1-0.05-0.18-0.12-0.27-0.17-0.08-0.05-0.17-0.1-0.24-0.16-0.13-0.11-0.24-0.23-0.34-0.36-0.04-0.05-0.08-0.08-0.12-0.13-0.27-0.38-0.43-0.84-0.43-1.35v-19.65zm-6.97 0c0-1.33 1.08-2.41 2.41-2.41h0.04c1 0 1.85 0.6 2.22 1.47 0.12 0.29 0.19 0.61 0.19 0.95v19.63c0 1.33-1.08 2.41-2.41 2.41h-0.04c-0.27 0-0.52-0.07-0.76-0.16-0.03-0.01-0.06-0.01-0.08-0.02-0.05-0.02-0.09-0.06-0.14-0.08-0.05-0.03-0.11-0.04-0.16-0.07-0.06-0.03-0.1-0.08-0.16-0.12-0.08-0.05-0.16-0.1-0.23-0.16-0.53-0.44-0.88-1.07-0.88-1.81zm-6.96 0c0-1.33 1.08-2.41 2.41-2.41h0.04c1 0 1.85 0.6 2.22 1.47 0.12 0.29 0.19 0.61 0.19 0.95v19.63c0 1.33-1.08 2.41-2.41 2.41h-0.04c-0.27 0-0.52-0.07-0.76-0.16-0.03-0.01-0.06-0.01-0.09-0.02-0.12-0.05-0.22-0.12-0.33-0.19-0.03-0.02-0.07-0.03-0.1-0.05l-0.03-0.03c-0.11-0.07-0.21-0.16-0.31-0.25-0.09-0.08-0.17-0.17-0.25-0.26l-0.12-0.15c-0.26-0.37-0.43-0.81-0.43-1.31v-19.63zm-6.98 0c0-1.33 1.08-2.41 2.41-2.41 0.02 0 0.03 0.01 0.05 0.01 0.25 0.01 0.48 0.05 0.71 0.12 0.05 0.02 0.1 0.05 0.15 0.07 0.19 0.08 0.37 0.17 0.53 0.3 0.02 0.01 0.03 0.03 0.04 0.04 0.31 0.25 0.57 0.55 0.73 0.92 0.04 0.09 0.03 0.19 0.06 0.29 0 0.01 0.01 0.02 0.02 0.04 0.06 0.2 0.13 0.4 0.13 0.62v19.63c0 1.33-1.08 2.41-2.41 2.41-0.03 0-0.06-0.02-0.09-0.02-0.24-0.01-0.47-0.05-0.68-0.14-0.04-0.01-0.08-0.01-0.11-0.02-0.54-0.21-0.96-0.62-1.23-1.13l-0.03-0.06c-0.07-0.14-0.14-0.28-0.18-0.44-0.03-0.11-0.04-0.22-0.05-0.34-0.01-0.09-0.04-0.17-0.04-0.27v-19.62zm-6.96 0c0-1.33 1.08-2.41 2.41-2.41h0.02c1 0 1.85 0.6 2.22 1.47 0.12 0.29 0.19 0.61 0.19 0.95v19.63c0 1.33-1.08 2.41-2.41 2.41h-0.02c-0.31 0-0.59-0.07-0.85-0.18h-0.01c-0.25-0.1-0.47-0.24-0.66-0.41 0 0-0.01 0-0.01-0.01-0.01-0.01-0.01-0.02-0.02-0.03-0.21-0.18-0.37-0.4-0.51-0.64-0.05-0.09-0.1-0.19-0.14-0.29-0.07-0.18-0.11-0.38-0.14-0.58-0.01-0.1-0.07-0.18-0.07-0.29zm-6.96 0c0-1.33 1.08-2.41 2.41-2.41h0.02c0.28 0 0.55 0.06 0.8 0.15 0.01 0 0.02 0.01 0.03 0.01 0.62 0.23 1.13 0.7 1.39 1.3 0.12 0.29 0.19 0.61 0.19 0.95v19.63c0 1.33-1.08 2.41-2.41 2.41h-0.02c-0.14 0-0.27-0.02-0.39-0.05-0.06-0.01-0.12-0.03-0.18-0.04-0.03-0.01-0.05-0.02-0.08-0.02l-0.21-0.06c-0.11-0.05-0.21-0.12-0.32-0.18-0.13-0.07-0.25-0.14-0.36-0.24-0.04-0.03-0.09-0.05-0.12-0.08-0.06-0.05-0.08-0.13-0.13-0.19-0.1-0.12-0.19-0.24-0.27-0.38-0.07-0.11-0.13-0.23-0.18-0.35-0.06-0.16-0.08-0.32-0.1-0.49-0.02-0.11-0.07-0.21-0.07-0.32z"/>
	<path class="st3" d="m127.19 289.96c0.27 0.11 0.57 0.18 0.88 0.18 1.33 0 2.41-1.08 2.41-2.41v-19.63c0-0.34-0.07-0.66-0.19-0.95-0.37-0.86-1.22-1.47-2.22-1.47-1.33 0-2.41 1.08-2.41 2.41v19.63c0.01 1.03 0.64 1.89 1.53 2.24z"/>
	<path class="st3" d="m83.88 268.1v19.63c0 0.11 0.03 0.21 0.05 0.32 0.02 0.17 0.05 0.33 0.1 0.49 0.05 0.13 0.11 0.24 0.18 0.35 0.08 0.14 0.16 0.26 0.27 0.38 0.08 0.09 0.16 0.19 0.26 0.27 0.11 0.09 0.24 0.16 0.36 0.24 0.11 0.06 0.2 0.14 0.32 0.18 0.07 0.03 0.14 0.04 0.21 0.06 0.03 0.01 0.05 0.02 0.08 0.02 0.06 0.02 0.12 0.03 0.18 0.04 0.13 0.02 0.26 0.04 0.4 0.04h0.01c1.33 0 2.41-1.08 2.41-2.41v-19.61c0-0.34-0.07-0.66-0.19-0.95-0.26-0.61-0.77-1.07-1.39-1.3-0.01 0-0.02-0.01-0.03-0.01-0.25-0.09-0.52-0.15-0.8-0.15h-0.01c-1.33 0-2.41 1.08-2.41 2.41z"/>
	<path class="st3" d="m90.86 268.1v19.63c0 0.1 0.03 0.19 0.04 0.29 0.03 0.2 0.07 0.4 0.14 0.58 0.04 0.1 0.09 0.19 0.14 0.29 0.14 0.24 0.3 0.46 0.51 0.64l0.03 0.03c0.2 0.17 0.42 0.31 0.66 0.41h0.01c0.27 0.11 0.56 0.17 0.87 0.18h0.01c1.33 0 2.41-1.08 2.41-2.41v-19.64c0-0.34-0.07-0.66-0.19-0.95-0.37-0.86-1.22-1.47-2.22-1.47h-0.01c-1.33 0.01-2.4 1.09-2.4 2.42z"/>
	<path class="st3" d="m97.89 288.33c0.04 0.16 0.11 0.3 0.18 0.44l0.03 0.06c0.27 0.5 0.69 0.91 1.23 1.13 0.03 0.01 0.08 0.01 0.11 0.02 0.22 0.08 0.44 0.13 0.68 0.14 0.03 0 0.06 0.02 0.09 0.02 1.33 0 2.41-1.08 2.41-2.41v-19.63c0-0.23-0.07-0.45-0.14-0.66-0.03-0.09-0.02-0.2-0.06-0.29-0.16-0.37-0.42-0.68-0.73-0.92-0.02-0.01-0.03-0.03-0.04-0.04-0.16-0.12-0.34-0.22-0.53-0.3-0.05-0.02-0.1-0.06-0.15-0.07-0.22-0.07-0.46-0.12-0.71-0.12-0.02 0-0.03-0.01-0.05-0.01-1.33 0-2.41 1.08-2.41 2.41v19.63c0 0.09 0.03 0.18 0.04 0.27 0.01 0.11 0.02 0.22 0.05 0.33z"/>
	<path class="st3" d="m104.8 268.1v19.63c0 0.49 0.15 0.93 0.4 1.31l0.12 0.15c0.07 0.09 0.16 0.18 0.25 0.26 0.1 0.09 0.2 0.17 0.31 0.25 0.04 0.03 0.09 0.05 0.13 0.07 0.11 0.06 0.21 0.14 0.33 0.19 0.03 0.01 0.06 0.01 0.09 0.02 0.25 0.09 0.5 0.16 0.78 0.16h0.02c1.33 0 2.41-1.08 2.41-2.41v-19.63c0-0.34-0.07-0.66-0.19-0.95-0.37-0.86-1.22-1.47-2.22-1.47h-0.02c-1.34 0.02-2.41 1.09-2.41 2.42z"/>
	<path class="st3" d="m111.77 268.1v19.63c0 0.73 0.33 1.37 0.84 1.81 0.07 0.06 0.15 0.11 0.23 0.16 0.1 0.07 0.21 0.13 0.32 0.19 0.05 0.02 0.09 0.06 0.14 0.08 0.03 0.01 0.06 0.01 0.08 0.02 0.25 0.09 0.5 0.15 0.78 0.16h0.02c1.33 0 2.41-1.08 2.41-2.41v-19.64c0-0.34-0.07-0.66-0.19-0.95-0.37-0.86-1.22-1.47-2.22-1.47h-0.02c-1.32 0.02-2.39 1.09-2.39 2.42z"/>
	<path class="st3" d="m118.71 268.1v19.63c0 0.5 0.16 0.96 0.42 1.35 0.03 0.05 0.08 0.09 0.12 0.13 0.1 0.13 0.21 0.26 0.34 0.36 0.07 0.06 0.16 0.1 0.24 0.16 0.12 0.07 0.23 0.15 0.36 0.21 0.02 0.01 0.03 0.02 0.05 0.03s0.05 0.01 0.07 0.01c0.25 0.09 0.52 0.16 0.81 0.16 1.33 0 2.41-1.08 2.41-2.41v-19.63c0-0.34-0.07-0.66-0.19-0.95-0.37-0.86-1.22-1.47-2.22-1.47-1.33 0.01-2.41 1.09-2.41 2.42z"/>
	<path class="st4" d="m78.07 264.04s-3.72-0.72-3.93 2.93-1 26.12-1 26.12l5.15 0.12z"/>
	<path class="st4" d="m522.87 293.21s-0.28-24.97-0.61-27.82-4.76-2.11-4.76-2.11l0.06 29.97z"/>
	<path class="st5" d="m491.58 288.39c-0.53 0-0.96 0.43-0.96 0.96s0.43 0.96 0.96 0.96 0.96-0.43 0.96-0.96c-0.01-0.53-0.43-0.96-0.96-0.96z"/>
	<path class="st5" d="m494.07 288.39c-0.53 0-0.96 0.43-0.96 0.96s0.43 0.96 0.96 0.96 0.96-0.43 0.96-0.96c-0.01-0.53-0.43-0.96-0.96-0.96z"/>
	<circle class="st5" cx="510.54" cy="287.99" r=".96"/>
	<path class="st5" d="m510.54 284.57c-0.53 0-0.96 0.43-0.96 0.96s0.43 0.96 0.96 0.96 0.96-0.43 0.96-0.96c-0.01-0.53-0.43-0.96-0.96-0.96z"/>
	<circle class="st5" cx="510.54" cy="283.06" r=".96"/>
	<circle class="st5" cx="510.54" cy="280.6" r=".96"/>
	<path class="st5" d="m510.54 277.08c-0.53 0-0.96 0.43-0.96 0.96s0.43 0.96 0.96 0.96 0.96-0.43 0.96-0.96c-0.01-0.53-0.43-0.96-0.96-0.96z"/>
	<circle class="st5" cx="510.54" cy="275.58" r=".96"/>
	<path class="st5" d="m510.54 271.95c-0.53 0-0.96 0.43-0.96 0.96s0.43 0.96 0.96 0.96 0.96-0.43 0.96-0.96c-0.01-0.53-0.43-0.96-0.96-0.96z"/>
	<path class="st5" d="m510.54 269.27c-0.53 0-0.96 0.43-0.96 0.96s0.43 0.96 0.96 0.96 0.96-0.43 0.96-0.96-0.43-0.96-0.96-0.96z"/>
	<path class="st5" d="m510.1 271.6c0-0.53-0.43-0.96-0.96-0.96s-0.96 0.43-0.96 0.96c0 0.15 0.05 0.3 0.11 0.42-0.12-0.05-0.25-0.08-0.38-0.08-0.53 0-0.96 0.43-0.96 0.96 0 0.11 0.03 0.21 0.06 0.31-0.09-0.03-0.19-0.06-0.29-0.06-0.53 0-0.96 0.43-0.96 0.96 0 0.22 0.08 0.4 0.21 0.57-0.16-0.13-0.36-0.22-0.59-0.22-0.53 0-0.96 0.43-0.96 0.96s0.43 0.96 0.96 0.96 0.96-0.43 0.96-0.96c0-0.22-0.08-0.41-0.21-0.57 0.16 0.13 0.36 0.22 0.59 0.22 0.53 0 0.96-0.43 0.96-0.96 0-0.11-0.03-0.21-0.06-0.31 0.09 0.03 0.19 0.06 0.29 0.06 0.53 0 0.96-0.43 0.96-0.96 0-0.15-0.05-0.3-0.11-0.42 0.12 0.05 0.25 0.08 0.38 0.08 0.53-0.01 0.96-0.43 0.96-0.96z"/>
	<path class="st5" d="m502.94 276.36c0.53 0 0.96-0.43 0.96-0.96s-0.43-0.96-0.96-0.96-0.96 0.43-0.96 0.96c0.01 0.53 0.44 0.96 0.96 0.96z"/>
	<path class="st5" d="m510.54 266.3c0.53 0 0.96-0.43 0.96-0.96s-0.43-0.96-0.96-0.96-0.96 0.43-0.96 0.96 0.43 0.96 0.96 0.96z"/>
	<path class="st5" d="m507.83 266.31c0.22 0 0.42-0.09 0.58-0.21-0.13 0.16-0.21 0.36-0.21 0.58 0 0.53 0.43 0.96 0.96 0.96 0.22 0 0.41-0.09 0.58-0.21-0.08 0.14-0.14 0.3-0.14 0.47 0 0.53 0.43 0.96 0.96 0.96s0.96-0.43 0.96-0.96-0.43-0.96-0.96-0.96c-0.22 0-0.41 0.09-0.58 0.21 0.08-0.14 0.14-0.3 0.14-0.47 0-0.53-0.43-0.96-0.96-0.96-0.22 0-0.42 0.09-0.58 0.21 0.13-0.16 0.21-0.36 0.21-0.58 0-0.53-0.43-0.96-0.96-0.96s-0.96 0.43-0.96 0.96c0 0.54 0.43 0.96 0.96 0.96z"/>
	<path class="st5" d="m505.31 266.31c0.53 0 0.96-0.43 0.96-0.96s-0.43-0.96-0.96-0.96-0.96 0.43-0.96 0.96c0 0.54 0.43 0.96 0.96 0.96z"/>
	<path class="st5" d="m497.81 266.31c0.18 0 0.33-0.06 0.48-0.15-0.09 0.15-0.16 0.31-0.16 0.49 0 0.53 0.43 0.96 0.96 0.96 0.16 0 0.31-0.05 0.44-0.12-0.07 0.13-0.12 0.28-0.12 0.44 0 0.53 0.43 0.96 0.96 0.96s0.96-0.43 0.96-0.96c0-0.21-0.08-0.39-0.19-0.54 0.16 0.11 0.34 0.19 0.54 0.19 0.53 0 0.96-0.43 0.96-0.96 0-0.15-0.04-0.28-0.1-0.41 0.12 0.06 0.26 0.1 0.4 0.1 0.53 0 0.96-0.43 0.96-0.96s-0.43-0.96-0.96-0.96-0.96 0.43-0.96 0.96c0 0.15 0.04 0.28 0.1 0.41-0.12-0.06-0.26-0.1-0.4-0.1-0.19 0-0.36 0.07-0.51 0.17 0.09-0.14 0.15-0.3 0.15-0.48 0-0.53-0.43-0.96-0.96-0.96s-0.96 0.43-0.96 0.96c0 0.18 0.06 0.33 0.14 0.48-0.14-0.07-0.29-0.13-0.45-0.13-0.18 0-0.34 0.06-0.48 0.15 0.09-0.15 0.16-0.31 0.16-0.49 0-0.53-0.43-0.96-0.96-0.96s-0.96 0.43-0.96 0.96c0.01 0.53 0.44 0.95 0.96 0.95zm2.55 0c0.19 0 0.36-0.07 0.51-0.17-0.09 0.14-0.15 0.3-0.15 0.48 0 0.21 0.08 0.39 0.19 0.54-0.16-0.11-0.34-0.19-0.54-0.19-0.16 0-0.31 0.05-0.44 0.12 0.07-0.13 0.12-0.28 0.12-0.44 0-0.18-0.06-0.33-0.14-0.47 0.13 0.08 0.28 0.13 0.45 0.13z"/>
	<path class="st5" d="m495.26 266.31c0.53 0 0.96-0.43 0.96-0.96s-0.43-0.96-0.96-0.96-0.96 0.43-0.96 0.96c0 0.54 0.43 0.96 0.96 0.96z"/>
	<path class="st5" d="m489.33 267.97c0 0.53 0.43 0.96 0.96 0.96s0.96-0.43 0.96-0.96c0-0.24-0.1-0.45-0.24-0.62 0.16 0.11 0.33 0.19 0.54 0.19 0.53 0 0.96-0.43 0.96-0.96 0-0.13-0.03-0.24-0.07-0.35 0.12 0.05 0.25 0.09 0.39 0.09 0.53 0 0.96-0.43 0.96-0.96s-0.43-0.96-0.96-0.96-0.96 0.43-0.96 0.96c0 0.13 0.03 0.24 0.07 0.35-0.12-0.05-0.25-0.09-0.39-0.09-0.13 0-0.25 0.03-0.36 0.07 0.04-0.11 0.07-0.22 0.07-0.34 0-0.53-0.43-0.96-0.96-0.96s-0.96 0.43-0.96 0.96 0.43 0.96 0.96 0.96c0.13 0 0.25-0.03 0.36-0.07-0.04 0.11-0.07 0.22-0.07 0.34 0 0.24 0.1 0.45 0.24 0.62-0.16-0.11-0.33-0.19-0.54-0.19-0.53 0-0.96 0.43-0.96 0.96z"/>
	<path class="st5" d="m489.24 278.11c0 0.53 0.43 0.96 0.96 0.96 0.16 0 0.31-0.05 0.44-0.12-0.07 0.13-0.12 0.28-0.12 0.44 0 0.53 0.43 0.96 0.96 0.96 0.16 0 0.31-0.05 0.44-0.12-0.07 0.13-0.12 0.28-0.12 0.44 0 0.53 0.43 0.96 0.96 0.96 0.16 0 0.31-0.05 0.44-0.12-0.07 0.13-0.12 0.28-0.12 0.44 0 0.53 0.43 0.96 0.96 0.96 0.16 0 0.31-0.05 0.44-0.12-0.07 0.13-0.12 0.28-0.12 0.44 0 0.53 0.43 0.96 0.96 0.96 0.16 0 0.31-0.05 0.44-0.12-0.07 0.13-0.12 0.28-0.12 0.44 0 0.53 0.43 0.96 0.96 0.96 0.16 0 0.31-0.05 0.44-0.12-0.07 0.13-0.12 0.28-0.12 0.44 0 0.53 0.43 0.96 0.96 0.96 0.16 0 0.31-0.05 0.44-0.12-0.07 0.13-0.12 0.28-0.12 0.44 0 0.12 0.03 0.23 0.07 0.33-0.1-0.04-0.21-0.07-0.33-0.07-0.53 0-0.96 0.43-0.96 0.96 0 0.1 0.03 0.18 0.05 0.27-0.14-0.07-0.28-0.13-0.45-0.13-0.53 0-0.96 0.43-0.96 0.96s0.43 0.96 0.96 0.96 0.96-0.43 0.96-0.96c0-0.1-0.03-0.18-0.05-0.27 0.14 0.07 0.28 0.13 0.45 0.13 0.11 0 0.21-0.03 0.31-0.06-0.02 0.07-0.04 0.13-0.04 0.21 0 0.53 0.43 0.96 0.96 0.96s0.96-0.43 0.96-0.96-0.43-0.96-0.96-0.96c-0.11 0-0.21 0.03-0.31 0.06 0.02-0.07 0.04-0.13 0.04-0.21 0-0.12-0.03-0.23-0.07-0.33 0.1 0.04 0.21 0.07 0.33 0.07 0.53 0 0.96-0.43 0.96-0.96 0-0.22-0.09-0.41-0.21-0.57 0.12 0.05 0.24 0.08 0.38 0.08 0.53 0 0.96-0.43 0.96-0.96 0-0.2-0.08-0.38-0.18-0.53 0.15 0.09 0.31 0.15 0.49 0.15 0.13 0 0.26-0.03 0.37-0.07-0.05 0.11-0.07 0.24-0.07 0.37 0 0.53 0.43 0.96 0.96 0.96 0.21 0 0.39-0.08 0.54-0.19-0.11 0.16-0.19 0.34-0.19 0.54 0 0.15 0.04 0.28 0.1 0.4-0.12-0.06-0.26-0.1-0.4-0.1-0.53 0-0.96 0.43-0.96 0.96 0 0.14 0.03 0.27 0.08 0.39-0.11-0.04-0.23-0.07-0.36-0.07-0.53 0-0.96 0.43-0.96 0.96s0.43 0.96 0.96 0.96 0.96-0.43 0.96-0.96c0-0.14-0.03-0.27-0.08-0.38 0.11 0.04 0.23 0.07 0.36 0.07 0.22 0 0.41-0.09 0.57-0.21-0.1 0.15-0.17 0.32-0.17 0.52 0 0.53 0.43 0.96 0.96 0.96s0.96-0.43 0.96-0.96-0.43-0.96-0.96-0.96c-0.22 0-0.41 0.09-0.57 0.21 0.1-0.15 0.17-0.32 0.17-0.52 0-0.15-0.04-0.28-0.1-0.4 0.12 0.06 0.26 0.1 0.4 0.1 0.53 0 0.96-0.43 0.96-0.96 0-0.13-0.03-0.25-0.07-0.37 0.1 0.04 0.21 0.07 0.32 0.07 0.16 0 0.31-0.05 0.44-0.12-0.07 0.13-0.12 0.28-0.12 0.44 0 0.53 0.43 0.96 0.96 0.96 0.16 0 0.31-0.05 0.45-0.13-0.04 0.1-0.06 0.2-0.06 0.32 0 0.53 0.43 0.96 0.96 0.96 0.16 0 0.31-0.05 0.44-0.12-0.11 0.15-0.18 0.33-0.18 0.53 0 0.53 0.43 0.96 0.96 0.96 0.24 0 0.45-0.1 0.61-0.24-0.1 0.15-0.18 0.33-0.18 0.53 0 0.53 0.43 0.96 0.96 0.96s0.96-0.43 0.96-0.96-0.43-0.96-0.96-0.96c-0.24 0-0.45 0.1-0.61 0.24 0.1-0.15 0.18-0.33 0.18-0.53 0-0.53-0.43-0.96-0.96-0.96-0.16 0-0.31 0.05-0.44 0.12 0.11-0.15 0.18-0.33 0.18-0.53 0-0.53-0.43-0.96-0.96-0.96-0.16 0-0.31 0.05-0.45 0.13 0.04-0.1 0.06-0.2 0.06-0.32 0-0.53-0.43-0.96-0.96-0.96-0.16 0-0.31 0.05-0.44 0.12 0.07-0.13 0.12-0.28 0.12-0.44 0-0.53-0.43-0.96-0.96-0.96-0.11 0-0.21 0.03-0.31 0.06 0.03-0.1 0.06-0.2 0.06-0.31 0-0.53-0.43-0.96-0.96-0.96-0.21 0-0.39 0.08-0.54 0.19 0.11-0.16 0.19-0.34 0.19-0.54 0-0.53-0.43-0.96-0.96-0.96-0.13 0-0.26 0.03-0.37 0.07 0.05-0.11 0.07-0.24 0.07-0.37 0-0.53-0.43-0.96-0.96-0.96-0.15 0-0.28 0.04-0.4 0.1 0.06-0.12 0.1-0.26 0.1-0.4 0-0.53-0.43-0.96-0.96-0.96-0.08 0-0.14 0.03-0.21 0.04 0.02-0.07 0.04-0.14 0.04-0.21 0-0.24-0.09-0.44-0.24-0.61 0.17 0.14 0.38 0.24 0.61 0.24 0.53 0 0.96-0.43 0.96-0.96s-0.43-0.96-0.96-0.96c-0.16 0-0.31 0.05-0.44 0.12 0.07-0.13 0.12-0.28 0.12-0.44 0-0.21-0.08-0.39-0.19-0.54 0.16 0.11 0.34 0.19 0.54 0.19 0.53 0 0.96-0.43 0.96-0.96s-0.43-0.96-0.96-0.96-0.96 0.43-0.96 0.96c0 0.21 0.08 0.39 0.19 0.54-0.16-0.11-0.34-0.19-0.54-0.19-0.16 0-0.31 0.05-0.44 0.12 0.07-0.13 0.12-0.28 0.12-0.44 0-0.53-0.43-0.96-0.96-0.96s-0.96 0.43-0.96 0.96c0 0.24 0.09 0.44 0.24 0.61-0.17-0.14-0.38-0.24-0.61-0.24-0.16 0-0.31 0.05-0.44 0.12 0.07-0.13 0.12-0.28 0.12-0.44 0-0.53-0.43-0.96-0.96-0.96-0.16 0-0.31 0.05-0.44 0.12 0.07-0.13 0.12-0.28 0.12-0.44 0-0.53-0.43-0.96-0.96-0.96-0.16 0-0.31 0.05-0.44 0.12 0.07-0.13 0.12-0.28 0.12-0.44 0-0.53-0.43-0.96-0.96-0.96-0.16 0-0.31 0.05-0.44 0.12 0.07-0.13 0.12-0.28 0.12-0.44 0-0.53-0.43-0.96-0.96-0.96-0.16 0-0.31 0.05-0.44 0.12 0.07-0.13 0.12-0.28 0.12-0.44 0-0.53-0.43-0.96-0.96-0.96s-0.96 0.43-0.96 0.96 0.43 0.96 0.96 0.96c0.16 0 0.31-0.05 0.44-0.12-0.07 0.13-0.12 0.28-0.12 0.44 0 0.11 0.03 0.21 0.06 0.31-0.12-0.05-0.25-0.08-0.38-0.08-0.53 0-0.96 0.43-0.96 0.96s0.43 0.96 0.96 0.96c0.16 0 0.31-0.05 0.44-0.12-0.07 0.13-0.12 0.28-0.12 0.44 0 0.2 0.07 0.37 0.18 0.52-0.15-0.09-0.31-0.16-0.5-0.16-0.53 0-0.96 0.43-0.96 0.96s0.43 0.96 0.96 0.96c0.16 0 0.31-0.05 0.44-0.12-0.07 0.13-0.12 0.28-0.12 0.44 0 0.18 0.06 0.34 0.15 0.48-0.14-0.08-0.29-0.14-0.47-0.14-0.54-0.01-0.97 0.42-0.97 0.95zm14.49 7.4c0-0.11-0.03-0.2-0.06-0.3 0.13 0.06 0.26 0.1 0.41 0.1 0.11 0 0.21-0.03 0.31-0.06-0.03 0.1-0.06 0.2-0.06 0.31 0 0.13 0.03 0.25 0.07 0.37-0.1-0.04-0.21-0.07-0.32-0.07-0.21 0-0.39 0.08-0.54 0.19 0.11-0.15 0.19-0.33 0.19-0.54zm-1.26-1.25c0-0.12-0.03-0.22-0.07-0.33 0.11 0.05 0.23 0.07 0.36 0.07 0.21 0 0.39-0.08 0.54-0.19-0.11 0.16-0.19 0.34-0.19 0.54 0 0.11 0.03 0.2 0.06 0.3-0.13-0.06-0.26-0.1-0.41-0.1-0.13 0-0.26 0.03-0.37 0.07 0.06-0.11 0.08-0.23 0.08-0.36zm-1.26-1.27c0-0.11-0.03-0.22-0.06-0.32 0.11 0.05 0.24 0.08 0.37 0.08s0.26-0.03 0.37-0.07c-0.05 0.11-0.07 0.24-0.07 0.37 0 0.12 0.03 0.22 0.07 0.33-0.11-0.05-0.23-0.07-0.36-0.07-0.15 0-0.28 0.04-0.4 0.1 0.04-0.14 0.08-0.27 0.08-0.42zm-0.96-1.5c0.15 0 0.28-0.04 0.4-0.1-0.06 0.12-0.1 0.26-0.1 0.4 0 0.11 0.03 0.22 0.06 0.32-0.11-0.05-0.24-0.08-0.37-0.08-0.08 0-0.14 0.03-0.21 0.04 0.02-0.07 0.04-0.14 0.04-0.21 0-0.16-0.05-0.31-0.12-0.44 0.11 0.04 0.2 0.07 0.3 0.07zm0 2.46c0.15 0 0.28-0.04 0.4-0.1-0.06 0.12-0.1 0.26-0.1 0.4 0 0.2 0.08 0.38 0.18 0.53-0.15-0.09-0.31-0.15-0.49-0.15-0.08 0-0.14 0.03-0.21 0.04 0.02-0.07 0.04-0.14 0.04-0.21 0-0.24-0.09-0.44-0.24-0.61 0.14 0.06 0.28 0.1 0.42 0.1zm-2.4 0.85c-0.16 0-0.31 0.05-0.44 0.12 0.07-0.13 0.12-0.28 0.12-0.44 0-0.18-0.06-0.34-0.15-0.48 0.14 0.08 0.29 0.14 0.47 0.14 0.16 0 0.31-0.05 0.44-0.12-0.07 0.13-0.12 0.28-0.12 0.44 0 0.18 0.06 0.34 0.15 0.48-0.14-0.08-0.29-0.14-0.47-0.14zm0-2.57c-0.16 0-0.31 0.05-0.44 0.12 0.07-0.13 0.12-0.28 0.12-0.44 0-0.2-0.07-0.37-0.18-0.52 0.15 0.09 0.31 0.16 0.5 0.16 0.16 0 0.31-0.05 0.44-0.12-0.07 0.13-0.12 0.28-0.12 0.44 0 0.2 0.07 0.37 0.18 0.52-0.15-0.09-0.31-0.16-0.5-0.16zm-0.38-3.23c0.12 0.05 0.25 0.08 0.38 0.08 0.16 0 0.31-0.05 0.44-0.12-0.07 0.13-0.12 0.28-0.12 0.44 0 0.11 0.03 0.21 0.06 0.31-0.12-0.05-0.25-0.08-0.38-0.08-0.16 0-0.31 0.05-0.44 0.12 0.07-0.13 0.12-0.28 0.12-0.44 0-0.11-0.03-0.21-0.06-0.31zm1.66 7.08c-0.16 0-0.31 0.05-0.44 0.12 0.07-0.13 0.12-0.28 0.12-0.44 0-0.18-0.06-0.34-0.15-0.48 0.14 0.08 0.29 0.14 0.47 0.14 0.08 0 0.14-0.03 0.21-0.04-0.02 0.07-0.04 0.14-0.04 0.21 0 0.22 0.09 0.41 0.21 0.57-0.12-0.05-0.25-0.08-0.38-0.08zm0-2.58c-0.16 0-0.31 0.05-0.44 0.12 0.07-0.13 0.12-0.28 0.12-0.44 0-0.2-0.07-0.37-0.18-0.52 0.15 0.09 0.31 0.16 0.5 0.16 0.08 0 0.14-0.03 0.21-0.04-0.02 0.07-0.04 0.14-0.04 0.21 0 0.24 0.09 0.44 0.24 0.61-0.13-0.06-0.27-0.1-0.41-0.1zm-0.38-3.22c0.12 0.05 0.25 0.08 0.38 0.08 0.08 0 0.14-0.03 0.21-0.04-0.02 0.07-0.04 0.14-0.04 0.21 0 0.16 0.05 0.31 0.12 0.44-0.09-0.03-0.19-0.06-0.29-0.06-0.16 0-0.31 0.05-0.44 0.12 0.07-0.13 0.12-0.28 0.12-0.44 0-0.11-0.03-0.21-0.06-0.31zm0.43-2.53c0.16 0 0.31-0.05 0.44-0.12-0.07 0.13-0.12 0.28-0.12 0.44 0 0.24 0.09 0.44 0.24 0.61-0.17-0.14-0.38-0.24-0.61-0.24-0.16 0-0.31 0.05-0.44 0.12 0.07-0.13 0.12-0.28 0.12-0.44 0-0.24-0.09-0.44-0.24-0.61 0.17 0.15 0.38 0.24 0.61 0.24zm-1.27-1.27c0.16 0 0.31-0.05 0.44-0.12-0.07 0.13-0.12 0.28-0.12 0.44 0 0.24 0.09 0.44 0.24 0.61-0.17-0.14-0.38-0.24-0.61-0.24-0.16 0-0.31 0.05-0.44 0.12 0.07-0.13 0.12-0.28 0.12-0.44 0-0.24-0.09-0.44-0.24-0.61 0.16 0.14 0.37 0.24 0.61 0.24zm-1.33 7.05c-0.16 0-0.31 0.05-0.44 0.12 0.07-0.13 0.12-0.28 0.12-0.44 0-0.18-0.06-0.34-0.15-0.48 0.14 0.08 0.29 0.14 0.47 0.14 0.16 0 0.31-0.05 0.44-0.12-0.07 0.13-0.12 0.28-0.12 0.44 0 0.18 0.06 0.34 0.15 0.48-0.15-0.08-0.3-0.14-0.47-0.14zm-0.32-5.49c0-0.11-0.03-0.21-0.06-0.31 0.12 0.05 0.25 0.08 0.38 0.08 0.16 0 0.31-0.05 0.44-0.12-0.07 0.13-0.12 0.28-0.12 0.44 0 0.11 0.03 0.21 0.06 0.31-0.12-0.05-0.25-0.08-0.38-0.08-0.16 0-0.31 0.05-0.44 0.12 0.07-0.14 0.12-0.28 0.12-0.44zm0.32 2.23c0.16 0 0.31-0.05 0.44-0.12-0.07 0.13-0.12 0.28-0.12 0.44 0 0.2 0.07 0.37 0.18 0.52-0.15-0.09-0.31-0.16-0.5-0.16-0.16 0-0.31 0.05-0.44 0.12 0.07-0.13 0.12-0.28 0.12-0.44 0-0.2-0.07-0.37-0.18-0.52 0.15 0.09 0.31 0.16 0.5 0.16zm-1.28 1.98c-0.16 0-0.31 0.05-0.44 0.12 0.07-0.13 0.12-0.28 0.12-0.44 0-0.18-0.06-0.34-0.15-0.48 0.14 0.08 0.29 0.14 0.47 0.14 0.16 0 0.31-0.05 0.44-0.12-0.07 0.13-0.12 0.28-0.12 0.44 0 0.18 0.06 0.34 0.15 0.48-0.14-0.08-0.3-0.14-0.47-0.14zm-0.32-5.49c0-0.11-0.03-0.21-0.06-0.31 0.12 0.05 0.25 0.08 0.38 0.08 0.16 0 0.31-0.05 0.44-0.12-0.07 0.13-0.12 0.28-0.12 0.44 0 0.11 0.03 0.21 0.06 0.31-0.12-0.05-0.25-0.08-0.38-0.08-0.16 0-0.31 0.05-0.44 0.12 0.07-0.13 0.12-0.28 0.12-0.44zm0.32 2.24c0.16 0 0.31-0.05 0.44-0.12-0.07 0.13-0.12 0.28-0.12 0.44 0 0.2 0.07 0.37 0.18 0.52-0.15-0.09-0.31-0.16-0.5-0.16-0.16 0-0.31 0.05-0.44 0.12 0.07-0.13 0.12-0.28 0.12-0.44 0-0.2-0.07-0.37-0.18-0.52 0.15 0.09 0.32 0.16 0.5 0.16zm-1.27 1.98c-0.16 0-0.31 0.05-0.44 0.12 0.07-0.13 0.12-0.28 0.12-0.44 0-0.18-0.06-0.34-0.15-0.48 0.14 0.08 0.29 0.14 0.47 0.14 0.16 0 0.31-0.05 0.44-0.12-0.07 0.13-0.12 0.28-0.12 0.44 0 0.18 0.06 0.34 0.15 0.48-0.15-0.08-0.3-0.14-0.47-0.14zm-0.32-5.49c0-0.11-0.03-0.21-0.06-0.31 0.12 0.05 0.25 0.08 0.38 0.08 0.16 0 0.31-0.05 0.44-0.12-0.07 0.13-0.12 0.28-0.12 0.44 0 0.11 0.03 0.21 0.06 0.31-0.12-0.05-0.25-0.08-0.38-0.08-0.16 0-0.31 0.05-0.44 0.12 0.07-0.14 0.12-0.28 0.12-0.44zm0.32 2.23c0.16 0 0.31-0.05 0.44-0.12-0.07 0.13-0.12 0.28-0.12 0.44 0 0.2 0.07 0.37 0.18 0.52-0.15-0.09-0.31-0.16-0.5-0.16-0.16 0-0.31 0.05-0.44 0.12 0.07-0.13 0.12-0.28 0.12-0.44 0-0.2-0.07-0.37-0.18-0.52 0.15 0.09 0.31 0.16 0.5 0.16zm-1.28 1.98c-0.16 0-0.31 0.05-0.44 0.12 0.07-0.13 0.12-0.28 0.12-0.44 0-0.18-0.06-0.34-0.15-0.48 0.14 0.08 0.29 0.14 0.47 0.14 0.16 0 0.31-0.05 0.44-0.12-0.07 0.13-0.12 0.28-0.12 0.44 0 0.18 0.06 0.34 0.15 0.48-0.14-0.08-0.3-0.14-0.47-0.14zm-0.32-5.49c0-0.11-0.03-0.21-0.06-0.31 0.12 0.05 0.25 0.08 0.38 0.08 0.16 0 0.31-0.05 0.44-0.12-0.07 0.13-0.12 0.28-0.12 0.44 0 0.11 0.03 0.21 0.06 0.31-0.12-0.05-0.25-0.08-0.38-0.08-0.16 0-0.31 0.05-0.44 0.12 0.07-0.13 0.12-0.28 0.12-0.44zm0.32 2.23c0.16 0 0.31-0.05 0.44-0.12-0.07 0.13-0.12 0.28-0.12 0.44 0 0.2 0.07 0.37 0.18 0.52-0.15-0.09-0.31-0.16-0.5-0.16-0.16 0-0.31 0.05-0.44 0.12 0.07-0.13 0.12-0.28 0.12-0.44 0-0.2-0.07-0.37-0.18-0.52 0.15 0.1 0.32 0.16 0.5 0.16zm-1.27 1.99c-0.16 0-0.31 0.05-0.44 0.12 0.07-0.13 0.12-0.28 0.12-0.44 0-0.18-0.06-0.34-0.15-0.48 0.14 0.08 0.29 0.14 0.47 0.14 0.16 0 0.31-0.05 0.44-0.12-0.07 0.13-0.12 0.28-0.12 0.44 0 0.18 0.06 0.34 0.15 0.48-0.15-0.09-0.3-0.14-0.47-0.14zm-0.39-5.81c0.12 0.05 0.25 0.08 0.38 0.08 0.16 0 0.31-0.05 0.44-0.12-0.07 0.13-0.12 0.28-0.12 0.44 0 0.11 0.03 0.21 0.06 0.31-0.12-0.05-0.25-0.08-0.38-0.08-0.16 0-0.31 0.05-0.44 0.12 0.07-0.13 0.12-0.28 0.12-0.44 0.01-0.1-0.02-0.21-0.06-0.31zm0.39 2.55c0.16 0 0.31-0.05 0.44-0.12-0.07 0.13-0.12 0.28-0.12 0.44 0 0.2 0.07 0.37 0.18 0.52-0.15-0.09-0.31-0.16-0.5-0.16-0.16 0-0.31 0.05-0.44 0.12 0.07-0.13 0.12-0.28 0.12-0.44 0-0.2-0.07-0.37-0.18-0.52 0.15 0.09 0.31 0.16 0.5 0.16z"/>
	<path class="st5" d="m493 269.15c0 0.53 0.43 0.96 0.96 0.96 0.16 0 0.31-0.05 0.44-0.12-0.07 0.13-0.12 0.28-0.12 0.44 0 0.53 0.43 0.96 0.96 0.96s0.96-0.43 0.96-0.96c0-0.24-0.09-0.44-0.24-0.61 0.17 0.14 0.38 0.24 0.61 0.24 0.53 0 0.96-0.43 0.96-0.96s-0.43-0.96-0.96-0.96c-0.16 0-0.31 0.05-0.44 0.12 0.07-0.13 0.12-0.28 0.12-0.44 0-0.53-0.43-0.96-0.96-0.96s-0.96 0.43-0.96 0.96c0 0.24 0.09 0.44 0.24 0.61-0.17-0.14-0.38-0.24-0.61-0.24-0.53 0.01-0.96 0.44-0.96 0.96zm2.29-0.37c0.16 0 0.31-0.05 0.44-0.12-0.07 0.13-0.12 0.28-0.12 0.44 0 0.24 0.09 0.44 0.24 0.61-0.17-0.14-0.38-0.24-0.61-0.24-0.16 0-0.31 0.05-0.44 0.12 0.07-0.13 0.12-0.28 0.12-0.44 0-0.24-0.09-0.44-0.24-0.61 0.16 0.14 0.37 0.24 0.61 0.24z"/>
	<path class="st5" d="m503.02 269.15c0 0.53 0.43 0.96 0.96 0.96 0.16 0 0.31-0.05 0.44-0.12-0.07 0.13-0.12 0.28-0.12 0.44 0 0.53 0.43 0.96 0.96 0.96s0.96-0.43 0.96-0.96c0-0.24-0.09-0.44-0.24-0.61 0.17 0.14 0.38 0.24 0.61 0.24 0.53 0 0.96-0.43 0.96-0.96s-0.43-0.96-0.96-0.96c-0.16 0-0.31 0.05-0.44 0.12 0.07-0.13 0.12-0.28 0.12-0.44 0-0.53-0.43-0.96-0.96-0.96s-0.96 0.43-0.96 0.96c0 0.24 0.09 0.44 0.24 0.61-0.17-0.14-0.38-0.24-0.61-0.24-0.53 0.01-0.96 0.44-0.96 0.96zm2.29-0.37c0.16 0 0.31-0.05 0.44-0.12-0.07 0.13-0.12 0.28-0.12 0.44 0 0.24 0.09 0.44 0.24 0.61-0.17-0.14-0.38-0.24-0.61-0.24-0.16 0-0.31 0.05-0.44 0.12 0.07-0.13 0.12-0.28 0.12-0.44 0-0.24-0.09-0.44-0.24-0.61 0.17 0.14 0.37 0.24 0.61 0.24z"/>
	<path class="st5" d="m502.63 271.5c0-0.53-0.43-0.96-0.96-0.96s-0.96 0.43-0.96 0.96c0 0.21 0.08 0.39 0.19 0.54-0.16-0.11-0.34-0.19-0.54-0.19-0.16 0-0.31 0.05-0.44 0.12 0.07-0.13 0.12-0.28 0.12-0.44 0-0.53-0.43-0.96-0.96-0.96s-0.96 0.43-0.96 0.96 0.43 0.96 0.96 0.96c0.16 0 0.31-0.05 0.44-0.12-0.07 0.13-0.12 0.28-0.12 0.44 0 0.53 0.43 0.96 0.96 0.96s0.96-0.43 0.96-0.96c0-0.21-0.08-0.39-0.19-0.54 0.16 0.11 0.34 0.19 0.54 0.19 0.54 0 0.96-0.43 0.96-0.96z"/>
	<rect class="st5" x="407.65" y="266.11" width="74.65" height="4.58"/>
	<rect class="st5" x="407.65" y="285.56" width="74.65" height="4.58"/>
	<path class="st6" d="m388.97 419.89h-178.91c-0.79 0-1.42 0.68-1.42 1.51v15.49c0 0.83 0.64 1.51 1.42 1.51h178.91c0.79 0 1.42-0.68 1.42-1.51v-15.49c0.01-0.83-0.63-1.51-1.42-1.51z"/>
	<path class="st7" d="m190.37 433.77c-0.33-0.35-0.72-0.63-1.15-0.82s-0.91-0.3-1.41-0.3c-2 0-3.62 1.72-3.62 3.84s1.62 3.84 3.62 3.84c0.5 0 0.98-0.11 1.41-0.3s0.82-0.48 1.15-0.82c0.33-0.35 0.59-0.76 0.78-1.22 0.18-0.46 0.28-0.96 0.28-1.49s-0.1-1.04-0.28-1.49c-0.19-0.48-0.45-0.89-0.78-1.24z"/>
	<path class="st8" d="m187.81 430.29c-3.3 0-5.98 2.78-5.98 6.2s2.68 6.2 5.98 6.2 5.98-2.78 5.98-6.2-2.69-6.2-5.98-6.2zm3.34 7.69c-0.18 0.46-0.45 0.87-0.78 1.22s-0.72 0.63-1.15 0.82-0.91 0.3-1.41 0.3c-2 0-3.62-1.72-3.62-3.84s1.62-3.84 3.62-3.84c0.5 0 0.98 0.11 1.41 0.3s0.82 0.48 1.15 0.82c0.33 0.35 0.59 0.76 0.78 1.22 0.18 0.46 0.28 0.96 0.28 1.49 0 0.54-0.1 1.05-0.28 1.51z"/>
	<path class="st7" d="m167.35 433.77c-0.33-0.35-0.72-0.63-1.15-0.82s-0.91-0.3-1.41-0.3c-2 0-3.62 1.72-3.62 3.84s1.62 3.84 3.62 3.84c0.5 0 0.98-0.11 1.41-0.3s0.82-0.48 1.15-0.82c0.33-0.35 0.59-0.76 0.78-1.22 0.18-0.46 0.28-0.96 0.28-1.49s-0.1-1.04-0.28-1.49c-0.18-0.48-0.45-0.89-0.78-1.24z"/>
	<path class="st8" d="m164.79 430.29c-3.3 0-5.98 2.78-5.98 6.2s2.68 6.2 5.98 6.2 5.98-2.78 5.98-6.2-2.68-6.2-5.98-6.2zm3.34 7.69c-0.18 0.46-0.45 0.87-0.78 1.22s-0.72 0.63-1.15 0.82-0.91 0.3-1.41 0.3c-2 0-3.62-1.72-3.62-3.84s1.62-3.84 3.62-3.84c0.5 0 0.98 0.11 1.41 0.3s0.82 0.48 1.15 0.82c0.33 0.35 0.59 0.76 0.78 1.22 0.18 0.46 0.28 0.96 0.28 1.49 0.01 0.54-0.1 1.05-0.28 1.51z"/>
	<path class="st7" d="m143.19 432.95c-0.43-0.19-0.91-0.3-1.41-0.3s-0.98 0.11-1.41 0.3c-1.3 0.58-2.21 1.95-2.21 3.54s0.91 2.96 2.21 3.54c0.43 0.19 0.91 0.3 1.41 0.3s0.98-0.11 1.41-0.3c1.3-0.58 2.21-1.95 2.21-3.54 0-1.6-0.91-2.96-2.21-3.54z"/>
	<path class="st8" d="m141.78 430.29c-3.3 0-5.98 2.78-5.98 6.2s2.68 6.2 5.98 6.2 5.98-2.78 5.98-6.2-2.69-6.2-5.98-6.2zm1.41 9.73c-0.43 0.19-0.91 0.3-1.41 0.3s-0.98-0.11-1.41-0.3c-1.3-0.58-2.21-1.95-2.21-3.54s0.91-2.96 2.21-3.54c0.43-0.19 0.91-0.3 1.41-0.3s0.98 0.11 1.41 0.3c1.3 0.58 2.21 1.95 2.21 3.54s-0.91 2.96-2.21 3.54z"/>
	<path class="st9" d="m108.02 325.75h-19.69c-1.69 0-3.06 1.37-3.06 3.06v63.44c0 1.69 1.37 3.06 3.06 3.06h19.68c1.69 0 3.06-1.37 3.06-3.06v-63.44c0-1.69-1.37-3.06-3.05-3.06zm0.7 66.5c0 0.39-0.31 0.7-0.7 0.7h-19.69c-0.39 0-0.7-0.32-0.7-0.7v-63.44c0-0.39 0.31-0.7 0.7-0.7h19.68c0.39 0 0.7 0.32 0.7 0.7v63.44z"/>
	<path class="st6" d="m145.61 396.73h-17.3c-0.08 0-0.14 0.58-0.14 1.29v13.22c0 0.71 0.06 1.29 0.14 1.29h17.98c0.08 0 0.14-0.58 0.14-1.29v-13.22c0-0.71-0.06-1.29-0.14-1.29z"/>
	<path class="st6" d="m466.12 396.73h-17.3c-0.08 0-0.14 0.58-0.14 1.29v13.22c0 0.71 0.06 1.29 0.14 1.29h17.98c0.08 0 0.14-0.58 0.14-1.29v-13.22c0-0.71-0.06-1.29-0.14-1.29z"/>
	<path class="st6" d="m486.72 396.73h-17.3c-0.08 0-0.14 0.58-0.14 1.29v13.22c0 0.71 0.06 1.29 0.14 1.29h17.98c0.08 0 0.14-0.58 0.14-1.29v-13.22c0-0.71-0.06-1.29-0.14-1.29z"/>
	<path class="st6" d="m446.23 373.23h-19.85c-0.09 0-0.16 0.58-0.16 1.29v13.22c0 0.71 0.07 1.29 0.16 1.29h20.46c0.09 0 0.16-0.58 0.16-1.29v-13.22c0-0.71-0.07-1.29-0.16-1.29z"/>
	<path class="st6" d="m423.8 389.02c0.09 0 0.16-0.58 0.16-1.29v-13.22c0-0.71-0.07-1.29-0.16-1.29h-20.46c-0.09 0-0.16 0.58-0.16 1.29v13.22c0 0.71 0.07 1.29 0.16 1.29h19.85z"/>
	<path class="st6" d="m400.77 389.02c0.09 0 0.16-0.58 0.16-1.29v-13.22c0-0.71-0.07-1.29-0.16-1.29h-20.45c-0.09 0-0.16 0.58-0.16 1.29v13.22c0 0.71 0.07 1.29 0.16 1.29h19.84z"/>
	<path class="st6" d="m377.73 389.02c0.09 0 0.16-0.58 0.16-1.29v-13.22c0-0.71-0.07-1.29-0.16-1.29h-20.45c-0.09 0-0.16 0.58-0.16 1.29v13.22c0 0.71 0.07 1.29 0.16 1.29h19.84z"/>
	<path class="st6" d="m354.69 389.02c0.09 0 0.16-0.58 0.16-1.29v-13.22c0-0.71-0.07-1.29-0.16-1.29h-20.46c-0.09 0-0.16 0.58-0.16 1.29v13.22c0 0.71 0.07 1.29 0.16 1.29h19.85z"/>
	<path class="st6" d="m331.66 389.02c0.09 0 0.16-0.58 0.16-1.29v-13.22c0-0.71-0.07-1.29-0.16-1.29h-20.46c-0.09 0-0.16 0.58-0.16 1.29v13.22c0 0.71 0.07 1.29 0.16 1.29h19.85z"/>
	<path class="st6" d="m308.62 389.02c0.09 0 0.16-0.58 0.16-1.29v-13.22c0-0.71-0.07-1.29-0.16-1.29h-20.44c-0.09 0-0.16 0.58-0.16 1.29v13.22c0 0.71 0.07 1.29 0.16 1.29h19.84z"/>
	<path class="st6" d="m285.59 389.02c0.09 0 0.16-0.58 0.16-1.29v-13.22c0-0.71-0.07-1.29-0.16-1.29h-20.45c-0.09 0-0.16 0.58-0.16 1.29v13.22c0 0.71 0.07 1.29 0.16 1.29h19.84z"/>
	<path class="st6" d="m262.55 389.02c0.09 0 0.16-0.58 0.16-1.29v-13.22c0-0.71-0.07-1.29-0.16-1.29h-20.46c-0.09 0-0.16 0.58-0.16 1.29v13.22c0 0.71 0.07 1.29 0.16 1.29h19.85z"/>
	<path class="st6" d="m239.52 389.02c0.09 0 0.16-0.58 0.16-1.29v-13.22c0-0.71-0.07-1.29-0.16-1.29h-20.45c-0.09 0-0.16 0.58-0.16 1.29v13.22c0 0.71 0.07 1.29 0.16 1.29h19.84z"/>
	<path class="st6" d="m216.48 389.02c0.09 0 0.16-0.58 0.16-1.29v-13.22c0-0.71-0.07-1.29-0.16-1.29h-20.45c-0.09 0-0.16 0.58-0.16 1.29v13.22c0 0.71 0.07 1.29 0.16 1.29h19.84z"/>
	<path class="st6" d="m329.84 352.23v13.22c0 0.71 0.07 1.29 0.16 1.29h20.45c0.09 0 0.16-0.58 0.16-1.29v-13.22c0-0.56-0.05-1.03-0.11-1.2h-20.56c-0.06 0.18-0.1 0.64-0.1 1.2z"/>
	<path class="st6" d="m306.8 352.23v13.22c0 0.71 0.07 1.29 0.16 1.29h20.45c0.09 0 0.16-0.58 0.16-1.29v-13.22c0-0.56-0.05-1.03-0.11-1.2h-20.56c-0.05 0.18-0.1 0.64-0.1 1.2z"/>
	<path class="st6" d="m283.77 352.23v13.22c0 0.71 0.07 1.29 0.16 1.29h20.46c0.09 0 0.16-0.58 0.16-1.29v-13.22c0-0.56-0.05-1.03-0.11-1.2h-20.56c-0.07 0.18-0.11 0.64-0.11 1.2z"/>
	<path class="st6" d="m260.73 352.23v13.22c0 0.71 0.07 1.29 0.16 1.29h20.46c0.09 0 0.16-0.58 0.16-1.29v-13.22c0-0.56-0.05-1.03-0.11-1.2h-20.56c-0.06 0.18-0.11 0.64-0.11 1.2z"/>
	<path class="st6" d="m237.7 352.23v13.22c0 0.71 0.07 1.29 0.16 1.29h20.45c0.09 0 0.16-0.58 0.16-1.29v-13.22c0-0.56-0.05-1.03-0.11-1.2h-20.56c-0.06 0.18-0.1 0.64-0.1 1.2z"/>
	<path class="st6" d="m214.66 352.23v13.22c0 0.71 0.07 1.29 0.16 1.29h20.45c0.09 0 0.16-0.58 0.16-1.29v-13.22c0-0.56-0.05-1.03-0.11-1.2h-20.56c-0.05 0.18-0.1 0.64-0.1 1.2z"/>
	<path class="st6" d="m192.42 366.74h19.83c0.09 0 0.16-0.58 0.16-1.29v-13.22c0-0.56-0.05-1.03-0.11-1.2h-20.56c-0.06 0.18-0.11 0.64-0.11 1.2v13.22c0 0.71 0.07 1.29 0.16 1.29z"/>
	<path class="st6" d="m168.59 352.23v13.22c0 0.71 0.07 1.29 0.16 1.29h20.45c0.09 0 0.16-0.58 0.16-1.29v-13.22c0-0.56-0.05-1.03-0.11-1.2h-20.55c-0.06 0.18-0.11 0.64-0.11 1.2z"/>
	<path class="st9" d="m511.95 346.75h-12.09v-17.73c0-0.92 0-2.47-1.34-2.47h-21.25c-0.41 0-0.68 0.16-0.88 0.39-0.2-0.23-0.47-0.39-0.89-0.39h-21.25c-0.42 0-0.7 0.16-0.89 0.39-0.2-0.23-0.47-0.39-0.89-0.39h-17.19v-18.25c0-0.86 0-2.47-1.34-2.47h-21.25c-0.42 0-0.69 0.16-0.89 0.39-0.2-0.23-0.47-0.39-0.89-0.39h-21.25c-0.42 0-0.7 0.16-0.89 0.39-0.2-0.23-0.47-0.39-0.89-0.39h-21.25c-0.36 0-0.62 0.12-0.81 0.3-0.19-0.18-0.45-0.3-0.82-0.3h-21.25c-0.42 0-0.69 0.17-0.89 0.41-0.2-0.24-0.47-0.41-0.89-0.41h-21.27c-0.42 0-0.69 0.16-0.89 0.39-0.2-0.23-0.48-0.39-0.89-0.39h-21.25c-0.42 0-0.69 0.16-0.89 0.39-0.2-0.23-0.47-0.39-0.89-0.39h-21.25c-0.42 0-0.7 0.16-0.89 0.39-0.2-0.23-0.47-0.39-0.89-0.39h-21.26c-0.42 0-0.69 0.17-0.89 0.41-0.2-0.24-0.47-0.41-0.89-0.41h-21.25c-0.42 0-0.69 0.16-0.89 0.39-0.2-0.23-0.48-0.39-0.89-0.39h-21.25c-0.42 0-0.69 0.16-0.89 0.39-0.2-0.23-0.47-0.39-0.89-0.39h-21.25c-1.34 0-1.34 1.6-1.34 2.47v0.15c0.42-0.5 0.98-0.78 1.73-0.78h20.45c0.76 0 1.33 0.29 1.75 0.8v-0.17c0-0.14 0-0.29-0.01-0.45 0.26-0.09 0.52-0.18 0.84-0.18h20.45c0.76 0 1.33 0.29 1.75 0.8v-0.17c0-0.14 0-0.29-0.01-0.45 0.26-0.09 0.52-0.18 0.84-0.18h20.45c0.76 0 1.33 0.29 1.75 0.8v-0.17c0-0.13 0-0.29-0.01-0.45 0.26-0.09 0.52-0.18 0.84-0.18h20.45c0.76 0 1.33 0.29 1.75 0.8v-0.17c0-0.14 0-0.29-0.01-0.45 0.26-0.09 0.52-0.18 0.84-0.18h20.45c0.76 0 1.33 0.29 1.75 0.8v-0.17c0-0.14 0-0.29-0.01-0.45 0.26-0.09 0.52-0.18 0.84-0.18h20.45c0.76 0 1.33 0.29 1.75 0.8v-0.17c0-0.14 0-0.29-0.01-0.45 0.26-0.09 0.52-0.18 0.84-0.18h20.45c0.76 0 1.33 0.29 1.75 0.8v-0.17c0-0.13 0-0.29-0.01-0.45 0.26-0.09 0.52-0.18 0.84-0.18h20.45c0.27 0 0.48 0.08 0.7 0.15-0.01 0.17-0.01 0.34-0.01 0.48v0.15c0.42-0.5 0.98-0.78 1.73-0.78h20.45c0.76 0 1.33 0.29 1.75 0.8v-0.17c0-0.14 0-0.29-0.01-0.45 0.26-0.09 0.52-0.18 0.84-0.18h20.45c1.49 0 2.29 1.03 2.45 2.95 0.03-0.35 0.08-0.6 0.13-0.6h20.46c0.09 0 0.16 0.58 0.16 1.29v13.22c0 0.71-0.07 1.29-0.16 1.29h-20.43c-0.06 0-0.1-0.25-0.13-0.6-0.07 0.85-0.28 1.52-0.6 2.01h-231.29v0.02c-0.14-0.2-0.26-0.44-0.35-0.7h-2.71c-0.42 0-0.7 0.16-0.89 0.39-0.2-0.23-0.47-0.39-0.89-0.39h-21.25c-0.42 0-0.69 0.17-0.89 0.41-0.2-0.24-0.47-0.41-0.89-0.41h-21.25c-1.34 0-1.34 1.54-1.34 2.47v18.78c-0.18 0.4-0.29 0.93-0.29 1.65v19.25c0 0.13 0.02 0.22 0.03 0.34h-2.41c-1.33 0-1.33 1.54-1.33 2.47v19.25c0 0.67 0.01 1.66 0.52 2.16-0.43 0.5-0.44 1.41-0.44 2.09v19.25c0 0.98 0 2.47 1.32 2.47h18.68c0.28 0 0.49-0.08 0.66-0.19 0.22 0.14 0.45 0.19 0.67 0.19h38.65c0.29 0 0.6-0.09 0.86-0.34 0.19 0.2 0.46 0.34 0.84 0.34h16c-0.17 0.35-0.28 0.74-0.28 1.15v22.56c0 1.48 1.17 2.69 2.6 2.69h185.9c1.43 0 2.6-1.21 2.6-2.69v-22.56c0-0.42-0.11-0.8-0.28-1.15h11.24c0.33 0 0.58-0.1 0.77-0.26 0.24 0.19 0.52 0.26 0.77 0.26h38.65c0.39 0 0.82-0.15 1.11-0.67 0.18 0.39 0.5 0.67 1.06 0.67h18.68c0.47 0 0.77-0.19 0.96-0.48 0.2 0.29 0.49 0.48 0.96 0.48h18.68c1.32 0 1.32-1.48 1.32-2.47v-19.26c0-0.71-0.01-1.66-0.5-2.15 0.24-0.37 0.4-0.95 0.4-1.86v-19.25c0-0.31-0.02-0.57-0.06-0.81 0.41 0 0.68-0.16 0.88-0.4 0.2 0.24 0.48 0.4 0.9 0.4h21.25c1.34 0 1.34-1.6 1.34-2.47v-19.25c-0.01-0.85-0.01-2.46-1.35-2.46zm-34.46-14.71c0-0.71 0.07-1.29 0.16-1.29h20.45c0.09 0 0.16 0.58 0.16 1.29v13.23h-20.78v-13.23zm-34.89 20.19v13.22c0 0.71-0.07 1.29-0.16 1.29h-20.45c-0.09 0-0.16-0.58-0.16-1.29v-13.22c0-0.56 0.05-1.03 0.11-1.2h20.56c0.05 0.18 0.1 0.64 0.1 1.2zm-23.04 0v13.22c0 0.71-0.07 1.29-0.16 1.29h-20.46c-0.09 0-0.16-0.58-0.16-1.29v-13.22c0-0.56 0.05-1.03 0.11-1.2h20.56c0.07 0.18 0.11 0.64 0.11 1.2zm-38.62 36.79h-0.62c-0.09 0-0.16-0.58-0.16-1.29v-13.22c0-0.71 0.07-1.29 0.16-1.29h20.45c0.09 0 0.16 0.58 0.16 1.29v13.22c0 0.71-0.07 1.29-0.16 1.29h-0.61zm4.6 4.2c-0.09 0.2-0.16 0.41-0.19 0.65-0.04-0.23-0.1-0.45-0.19-0.65zm-27.64-4.2h-0.62c-0.09 0-0.16-0.58-0.16-1.29v-13.22c0-0.71 0.07-1.29 0.16-1.29h20.45c0.09 0 0.16 0.58 0.16 1.29v13.22c0 0.71-0.07 1.29-0.16 1.29h-0.61zm5.61 4.2c-0.09 0.2-0.15 0.41-0.19 0.65-0.04-0.23-0.1-0.45-0.19-0.65zm-28.64-4.2h-0.63c-0.09 0-0.16-0.58-0.16-1.29v-13.22c0-0.71 0.07-1.29 0.16-1.29h20.46c0.09 0 0.16 0.58 0.16 1.29v13.22c0 0.71-0.07 1.29-0.16 1.29h-0.61zm6.6 4.2c-0.09 0.2-0.16 0.41-0.19 0.65-0.04-0.23-0.1-0.45-0.19-0.65zm-29.64-4.2h-0.63c-0.09 0-0.16-0.58-0.16-1.29v-13.22c0-0.71 0.07-1.29 0.16-1.29h20.46c0.09 0 0.16 0.58 0.16 1.29v13.22c0 0.71-0.07 1.29-0.16 1.29h-0.61zm7.61 4.2c-0.09 0.2-0.16 0.42-0.19 0.65-0.04-0.23-0.1-0.45-0.19-0.65zm-30.64-4.2h-0.62c-0.09 0-0.16-0.58-0.16-1.29v-13.22c0-0.71 0.07-1.29 0.16-1.29h20.45c0.09 0 0.16 0.58 0.16 1.29v13.22c0 0.71-0.07 1.29-0.16 1.29h-0.61zm8.61 4.2c-0.09 0.2-0.15 0.41-0.19 0.65-0.04-0.23-0.1-0.45-0.19-0.65zm-31.65-4.2h-0.62c-0.09 0-0.16-0.58-0.16-1.29v-13.22c0-0.71 0.07-1.29 0.16-1.29h20.45c0.09 0 0.16 0.58 0.16 1.29v13.22c0 0.71-0.07 1.29-0.16 1.29h-0.61zm9.62 4.2c-0.09 0.2-0.16 0.41-0.19 0.65-0.04-0.23-0.1-0.45-0.19-0.65zm-32.65-4.2h-0.63c-0.09 0-0.16-0.58-0.16-1.29v-13.22c0-0.71 0.07-1.29 0.16-1.29h20.46c0.09 0 0.16 0.58 0.16 1.29v13.22c0 0.71-0.07 1.29-0.16 1.29h-0.61zm10.62 4.2c-0.09 0.2-0.16 0.41-0.19 0.65-0.04-0.23-0.1-0.45-0.19-0.65zm-33.66-4.2h-0.62c-0.09 0-0.16-0.58-0.16-1.29v-13.22c0-0.71 0.07-1.29 0.16-1.29h20.45c0.09 0 0.16 0.58 0.16 1.29v13.22c0 0.71-0.07 1.29-0.16 1.29h-0.61zm11.62 4.2c-0.09 0.2-0.16 0.42-0.19 0.65-0.04-0.23-0.1-0.45-0.19-0.65zm-34.65-4.2h-0.62c-0.09 0-0.16-0.58-0.16-1.29v-13.22c0-0.71 0.07-1.29 0.16-1.29h20.45c0.09 0 0.16 0.58 0.16 1.29v13.22c0 0.71-0.07 1.29-0.16 1.29h-0.61zm12.62 4.2c-0.09 0.2-0.16 0.41-0.19 0.65-0.04-0.23-0.1-0.45-0.19-0.65zm-19.91-40.99v13.22c0 0.71-0.07 1.29-0.16 1.29h-20.45c-0.09 0-0.16-0.58-0.16-1.29v-13.22c0-0.56 0.05-1.03 0.11-1.2h20.56c0.05 0.18 0.1 0.64 0.1 1.2zm-18.79 22.29v13.22c0 0.71-0.07 1.29-0.16 1.29h-20.46c-0.09 0-0.16-0.58-0.16-1.29v-13.22c0-0.71 0.07-1.29 0.16-1.29h20.46c0.08 0 0.16 0.58 0.16 1.29zm225.95-22.29v13.22c0 0.71-0.07 1.29-0.16 1.29h-20.46c-0.09 0-0.16-0.58-0.16-1.29v-13.22c0-0.56 0.05-1.03 0.11-1.2h20.56c0.06 0.18 0.11 0.64 0.11 1.2zm-23.04 0v13.22c0 0.71-0.07 1.29-0.16 1.29h-20.45c-0.09 0-0.16-0.58-0.16-1.29v-13.22c0-0.56 0.05-1.03 0.11-1.2h20.56c0.05 0.18 0.1 0.64 0.1 1.2zm-22.87 0v13.22c0 0.71-0.07 1.29-0.16 1.29h-20.46c-0.09 0-0.16-0.58-0.16-1.29v-13.22c0-0.56 0.05-1.03 0.11-1.2h20.56c0.06 0.18 0.11 0.64 0.11 1.2zm-23.04 0v13.22c0 0.71-0.07 1.29-0.16 1.29h-20.45c-0.09 0-0.16-0.58-0.16-1.29v-13.22c0-0.56 0.05-1.03 0.11-1.2h20.56c0.05 0.18 0.1 0.64 0.1 1.2zm-23.03 0v13.22c0 0.71-0.07 1.29-0.16 1.29h-20.46c-0.09 0-0.16-0.58-0.16-1.29v-13.22c0-0.56 0.05-1.03 0.11-1.2h20.56c0.06 0.18 0.11 0.64 0.11 1.2zm-23.04 0v13.22c0 0.71-0.07 1.29-0.16 1.29h-20.46c-0.09 0-0.16-0.58-0.16-1.29v-13.22c0-0.56 0.05-1.03 0.11-1.2h20.56c0.06 0.18 0.11 0.64 0.11 1.2zm-23.03 0v13.22c0 0.71-0.07 1.29-0.16 1.29h-20.45c-0.09 0-0.16-0.58-0.16-1.29v-13.22c0-0.56 0.05-1.03 0.11-1.2h20.56c0.05 0.18 0.1 0.64 0.1 1.2zm-23.04 0v13.22c0 0.71-0.07 1.29-0.16 1.29h-20.45c-0.09 0-0.16-0.58-0.16-1.29v-13.22c0-0.56 0.05-1.03 0.11-1.2h20.56c0.05 0.18 0.1 0.64 0.1 1.2zm-43.81 0c0-0.56 0.05-1.03 0.11-1.2h20.56c0.06 0.18 0.11 0.64 0.11 1.2v13.22c0 0.71-0.07 1.29-0.16 1.29h-20.46c-0.09 0-0.16-0.58-0.16-1.29zm18.93 45.78c0-0.71 0.07-1.29 0.15-1.29h18.77c0.08 0 0.15 0.58 0.15 1.29v13.22c0 0.71-0.07 1.29-0.15 1.29h-18.77c-0.08 0-0.15-0.58-0.15-1.29zm22.04 0c0-0.71 0.07-1.29 0.15-1.29h18.77c0.08 0 0.15 0.58 0.15 1.29v13.22c0 0.71-0.07 1.29-0.15 1.29h-18.77c-0.08 0-0.15-0.58-0.15-1.29zm22.03 0c0-0.71 0.07-1.29 0.15-1.29h18.77c0.08 0 0.15 0.58 0.15 1.29v13.22c0 0.71-0.07 1.29-0.15 1.29h-18.77c-0.08 0-0.15-0.58-0.15-1.29zm22.03 0c0-0.71 0.07-1.29 0.15-1.29h18.77c0.08 0 0.15 0.58 0.15 1.29v13.22c0 0.71-0.07 1.29-0.15 1.29h-18.77c-0.08 0-0.15-0.58-0.15-1.29zm22.03 0c0-0.71 0.07-1.29 0.15-1.29h18.77c0.08 0 0.15 0.58 0.15 1.29v13.22c0 0.71-0.07 1.29-0.15 1.29h-18.77c-0.08 0-0.15-0.58-0.15-1.29zm22.03 0c0-0.71 0.07-1.29 0.15-1.29h18.77c0.08 0 0.15 0.58 0.15 1.29v13.22c0 0.71-0.07 1.29-0.15 1.29h-18.77c-0.08 0-0.15-0.58-0.15-1.29zm22.04 0c0-0.71 0.07-1.29 0.15-1.29h18.77c0.08 0 0.15 0.58 0.15 1.29v13.22c0 0.71-0.07 1.29-0.15 1.29h-18.77c-0.08 0-0.15-0.58-0.15-1.29zm22.03 0c0-0.71 0.07-1.29 0.15-1.29h18.77c0.08 0 0.15 0.58 0.15 1.29v13.22c0 0.71-0.07 1.29-0.15 1.29h-18.77c-0.08 0-0.15-0.58-0.15-1.29zm89.69-65.97c0-0.71 0.07-1.29 0.16-1.29h20.45c0.09 0 0.16 0.58 0.16 1.29v13.23h-20.78v-13.23zm-23.04 0c0-0.71 0.07-1.29 0.16-1.29h20.45c0.09 0 0.16 0.58 0.16 1.29v13.23h-20.78v-13.23zm-23.03 0c0-0.71 0.07-1.29 0.16-1.29h20.46c0.09 0 0.16 0.58 0.16 1.29v13.23h-20.78v-0.01zm-23.04 0c0-0.71 0.07-1.29 0.16-1.29h20.46c0.09 0 0.16 0.58 0.16 1.29v13.23h-20.78v-0.01zm-23.03 0c0-0.71 0.07-1.29 0.16-1.29h20.45c0.09 0 0.16 0.58 0.16 1.29v13.23h-20.78v-13.23zm-23.04 0c0-0.71 0.07-1.29 0.16-1.29h20.45c0.09 0 0.16 0.58 0.16 1.29v13.23h-20.77v-0.01zm-23.03 0c0-0.71 0.07-1.29 0.16-1.29h20.46c0.09 0 0.16 0.58 0.16 1.29v13.23h-20.78v-0.01zm-22.88 0c0-0.71 0.07-1.29 0.16-1.29h20.45c0.09 0 0.16 0.58 0.16 1.29v13.23h-20.78v-13.23zm-23.03 0c0-0.71 0.07-1.29 0.16-1.29h20.46c0.09 0 0.16 0.58 0.16 1.29v13.23h-20.78v-0.01zm-23.04 0c0-0.71 0.07-1.29 0.16-1.29h20.45c0.09 0 0.16 0.58 0.16 1.29v13.23h-20.78v-13.23zm-23.03 0c0-0.71 0.07-1.29 0.16-1.29h20.45c0.09 0 0.16 0.58 0.16 1.29v13.23h-20.78v-13.23zm-23.04 0c0-0.71 0.07-1.29 0.16-1.29h20.46c0.09 0 0.16 0.58 0.16 1.29v13.23h-20.78v-0.01zm-23.04 0c0-0.71 0.07-1.29 0.16-1.29h20.46c0.09 0 0.16 0.58 0.16 1.29v13.23h-20.78v-0.01zm-23.03 0c0-0.71 0.07-1.29 0.16-1.29h20.45c0.09 0 0.16 0.58 0.16 1.29v13.23h-20.78v-13.23zm-23.04 0c0-0.71 0.07-1.29 0.16-1.29h20.46c0.09 0 0.16 0.58 0.16 1.29v13.23h-20.78v-0.01zm14.29 79.19c0 0.71-0.06 1.29-0.14 1.29h-17.98c-0.08 0-0.14-0.58-0.14-1.29v-13.22c0-0.71 0.06-1.29 0.14-1.29h17.98c0.08 0 0.14 0.58 0.14 1.29zm1.14-23.49c0 0.71-0.07 1.29-0.15 1.29h-19.14c-0.08 0-0.15-0.58-0.15-1.29v-13.22c0-0.71 0.07-1.29 0.15-1.29h19.14c0.08 0 0.15 0.58 0.15 1.29zm-14.93-20.77h-0.27c-0.15 0-0.27-0.58-0.27-1.29v-13.22c0-0.71 0.12-1.29 0.27-1.29h33.41c0.15 0 0.27 0.58 0.27 1.29v13.22c0 0.71-0.12 1.29-0.27 1.29h-0.24zm53.54 44.26c0 0.71-0.13 1.29-0.3 1.29h-37.19c-0.16 0-0.3-0.58-0.3-1.29v-13.22c0-0.71 0.13-1.29 0.3-1.29h37.19c0.16 0 0.3 0.58 0.3 1.29zm-12.56-22.21h-0.62c-0.09 0-0.16-0.58-0.16-1.29v-13.22c0-0.71 0.07-1.29 0.16-1.29h20.45c0.09 0 0.16 0.58 0.16 1.29v13.22c0 0.71-0.07 1.29-0.16 1.29h-0.61zm33.98 22.21c0 0.71-0.07 1.29-0.15 1.29h-18.77c-0.08 0-0.15-0.58-0.15-1.29v-13.22c0-0.71 0.07-1.29 0.15-1.29h18.77c0.08 0 0.15 0.58 0.15 1.29zm182.8 25.66c0 0.83-0.64 1.51-1.42 1.51h-178.92c-0.79 0-1.42-0.68-1.42-1.51v-15.49c0-0.83 0.64-1.51 1.42-1.51h178.91c0.79 0 1.42 0.68 1.42 1.51v15.49zm15.49-25.66c0 0.71-0.07 1.29-0.15 1.29h-18.77c-0.08 0-0.15-0.58-0.15-1.29v-13.22c0-0.71 0.07-1.29 0.15-1.29h18.77c0.08 0 0.15 0.58 0.15 1.29zm-1.92-22.21h-0.63c-0.09 0-0.16-0.58-0.16-1.29v-13.22c0-0.71 0.07-1.29 0.16-1.29h20.46c0.09 0 0.16 0.58 0.16 1.29v13.22c0 0.71-0.07 1.29-0.16 1.29h-0.61zm41.88 22.21c0 0.71-0.13 1.29-0.3 1.29h-37.19c-0.16 0-0.3-0.58-0.3-1.29v-13.22c0-0.71 0.13-1.29 0.3-1.29h37.19c0.16 0 0.3 0.58 0.3 1.29zm1.15-23.49c0 0.71-0.07 1.29-0.16 1.29h-20.46c-0.09 0-0.16-0.58-0.16-1.29v-13.22c0-0.71 0.07-1.29 0.16-1.29h20.46c0.09 0 0.16 0.58 0.16 1.29zm0.41 5.46zm-1.77-26.46h-0.62c-0.09 0-0.16-0.58-0.16-1.29v-13.22c0-0.56 0.05-1.03 0.11-1.2h20.56c0.06 0.18 0.11 0.64 0.11 1.2v13.22c0 0.71-0.07 1.29-0.16 1.29h-0.61zm21.3 44.49c0 0.71-0.06 1.29-0.14 1.29h-17.98c-0.08 0-0.14-0.58-0.14-1.29v-13.22c0-0.71 0.06-1.29 0.14-1.29h17.98c0.08 0 0.14 0.58 0.14 1.29zm-17.2-21.97h-0.17c-0.16 0-0.3-0.58-0.3-1.29v-13.22c0-0.71 0.13-1.29 0.3-1.29h37.19c0.16 0 0.3 0.58 0.3 1.29v13.22c0 0.71-0.13 1.29-0.3 1.29h-0.14zm37.8 21.97c0 0.71-0.06 1.29-0.14 1.29h-17.98c-0.08 0-0.14-0.58-0.14-1.29v-13.22c0-0.71 0.06-1.29 0.14-1.29h17.98c0.08 0 0.14 0.58 0.14 1.29zm1.13-45.78c0 0.71-0.07 1.29-0.16 1.29h-20.46c-0.09 0-0.16-0.58-0.16-1.29v-13.22c0-0.56 0.05-1.03 0.11-1.2h20.56c0.06 0.18 0.11 0.64 0.11 1.2zm23.03 0c0 0.71-0.07 1.29-0.16 1.29h-20.46c-0.09 0-0.16-0.58-0.16-1.29v-13.22c0-0.56 0.05-1.03 0.11-1.2h7.97v-0.09h12.54c0.09 0 0.16 0.58 0.16 1.29z"/>
	<path class="st6" d="m510.93 350.95h-11.93v0.09h-7.97c-0.06 0.18-0.11 0.64-0.11 1.2v13.22c0 0.71 0.07 1.29 0.16 1.29h20.46c0.09 0 0.16-0.58 0.16-1.29v-13.22c0-0.71-0.07-1.29-0.16-1.29z"/>
	<path class="st6" d="m468 351.03c-0.06 0.18-0.11 0.64-0.11 1.2v13.22c0 0.71 0.07 1.29 0.16 1.29h20.46c0.09 0 0.16-0.58 0.16-1.29v-13.22c0-0.56-0.05-1.03-0.11-1.2z"/>
	<path class="st6" d="m465.47 366.74c0.09 0 0.16-0.58 0.16-1.29v-13.22c0-0.56-0.05-1.03-0.11-1.2h-20.56c-0.06 0.18-0.11 0.64-0.11 1.2v13.22c0 0.71 0.07 1.29 0.16 1.29h19.84z"/>
	<path class="st6" d="m421.82 352.23v13.22c0 0.71 0.07 1.29 0.16 1.29h20.45c0.09 0 0.16-0.58 0.16-1.29v-13.22c0-0.56-0.05-1.03-0.11-1.2h-20.56c-0.05 0.18-0.1 0.64-0.1 1.2z"/>
	<path class="st6" d="m398.78 352.23v13.22c0 0.71 0.07 1.29 0.16 1.29h20.46c0.09 0 0.16-0.58 0.16-1.29v-13.22c0-0.56-0.05-1.03-0.11-1.2h-20.56c-0.06 0.18-0.11 0.64-0.11 1.2z"/>
	<path class="st6" d="m375.75 352.23v13.22c0 0.71 0.07 1.29 0.16 1.29h20.46c0.09 0 0.16-0.58 0.16-1.29v-13.22c0-0.56-0.05-1.03-0.11-1.2h-20.56c-0.06 0.18-0.11 0.64-0.11 1.2z"/>
	<path class="st6" d="m352.71 352.23v13.22c0 0.71 0.07 1.29 0.16 1.29h20.45c0.09 0 0.16-0.58 0.16-1.29v-13.22c0-0.56-0.05-1.03-0.11-1.2h-20.56c-0.05 0.18-0.1 0.64-0.1 1.2z"/>
	<path class="st6" d="m475.25 345.26v-13.22c0-0.71-0.07-1.29-0.16-1.29h-20.45c-0.09 0-0.16 0.58-0.16 1.29v13.23h20.77z"/>
	<path class="st6" d="m498.27 345.26v-13.22c0-0.71-0.07-1.29-0.16-1.29h-20.45c-0.09 0-0.16 0.58-0.16 1.29v13.23h20.77z"/>
	<path class="st6" d="m452.22 345.26v-13.22c0-0.71-0.07-1.29-0.16-1.29h-20.45c-0.09 0-0.16 0.58-0.16 1.29v13.23h20.77z"/>
	<path class="st7" d="m344 325.23c0.03 0.35 0.08 0.6 0.13 0.6h20.45c0.01 0 0.02-0.03 0.03-0.05-0.06-0.38-0.12-0.77-0.12-1.24v-13.22c0-0.47 0.06-0.86 0.12-1.24-0.01-0.01-0.02-0.05-0.03-0.05h-20.45c-0.06 0-0.1 0.25-0.13 0.6 0.02 0.23 0.07 0.43 0.07 0.69v13.22c-0.01 0.26-0.05 0.45-0.07 0.69z"/>
	<path class="st9" d="m341.71 324.54c0 0.4-0.02 0.76-0.06 0.99 0.04-0.24 0.06-0.59 0.06-0.99v-13.22c0-0.4-0.02-0.76-0.06-0.99 0.04 0.24 0.06 0.59 0.06 0.99z"/>
	<path class="st7" d="m320.96 325.23c0.01 0.07 0.01 0.16 0.02 0.22 0.03 0.23 0.07 0.38 0.12 0.38h20.45c0.02 0 0.04-0.04 0.06-0.1 0.01-0.05 0.03-0.11 0.04-0.19 0.04-0.24 0.06-0.59 0.06-0.99v-13.22c0-0.4-0.02-0.76-0.06-0.99-0.01-0.08-0.03-0.14-0.04-0.19-0.02-0.07-0.04-0.1-0.06-0.1h-20.45c-0.04 0-0.09 0.14-0.12 0.38-0.01 0.06-0.01 0.15-0.02 0.22 0.02 0.23 0.07 0.43 0.07 0.69v13.22c0 0.24-0.05 0.43-0.07 0.67z"/>
	<path class="st7" d="m297.93 325.23c0.02 0.21 0.04 0.4 0.07 0.5 0.02 0.07 0.04 0.1 0.06 0.1h20.45c0.09 0 0.16-0.58 0.16-1.29v-13.22c0-0.71-0.07-1.29-0.16-1.29h-20.45c-0.02 0-0.04 0.04-0.06 0.1-0.03 0.1-0.05 0.28-0.07 0.5 0.02 0.23 0.07 0.43 0.07 0.69v13.22c-0.01 0.26-0.05 0.45-0.07 0.69z"/>
	<path class="st7" d="m274.89 325.23c0.03 0.35 0.08 0.6 0.13 0.6h20.45c0.09 0 0.16-0.58 0.16-1.29v-13.22c0-0.71-0.07-1.29-0.16-1.29h-20.45c-0.06 0-0.1 0.25-0.13 0.6 0.02 0.23 0.07 0.43 0.07 0.69v13.22c0 0.26-0.05 0.45-0.07 0.69z"/>
	<path class="st7" d="m251.86 325.23c0.03 0.35 0.08 0.6 0.13 0.6h20.45c0.09 0 0.16-0.58 0.16-1.29v-13.22c0-0.71-0.07-1.29-0.16-1.29h-20.45c-0.06 0-0.1 0.25-0.13 0.6 0.02 0.23 0.07 0.43 0.07 0.69v13.22c-0.01 0.26-0.05 0.45-0.07 0.69z"/>
	<path class="st9" d="m249.41 310.03c0.04 0 0.09 0.14 0.11 0.38-0.03-0.23-0.07-0.38-0.11-0.38z"/>
	<path class="st9" d="m249.41 325.83c0.04 0 0.09-0.14 0.11-0.38-0.03 0.23-0.07 0.38-0.11 0.38z"/>
	<path class="st7" d="m228.82 325.23c0.03 0.35 0.08 0.6 0.13 0.6h20.45c0.05 0 0.09-0.14 0.12-0.38 0.03-0.23 0.05-0.56 0.05-0.91v-13.22c0-0.36-0.02-0.68-0.05-0.91s-0.07-0.38-0.12-0.38h-20.45c-0.06 0-0.1 0.25-0.13 0.6 0.02 0.23 0.07 0.43 0.07 0.69v13.22c0 0.26-0.05 0.45-0.07 0.69z"/>
	<path class="st9" d="m226.37 310.03c0.04 0 0.09 0.14 0.11 0.38-0.02-0.23-0.06-0.38-0.11-0.38z"/>
	<path class="st9" d="m226.37 325.83c0.04 0 0.09-0.14 0.11-0.38-0.02 0.23-0.06 0.38-0.11 0.38z"/>
	<path class="st7" d="m205.79 325.23c0.03 0.35 0.08 0.6 0.13 0.6h20.45c0.05 0 0.09-0.14 0.12-0.38 0.03-0.23 0.05-0.56 0.05-0.91v-13.22c0-0.36-0.02-0.68-0.05-0.91s-0.07-0.38-0.12-0.38h-20.45c-0.06 0-0.1 0.25-0.13 0.6 0.02 0.23 0.07 0.43 0.07 0.69v13.22c-0.01 0.26-0.05 0.45-0.07 0.69z"/>
	<path class="st7" d="m203.34 325.83c0.09 0 0.16-0.58 0.16-1.29v-13.22c0-0.71-0.07-1.29-0.16-1.29h-20.45c-0.09 0-0.16 0.58-0.16 1.29v13.22c0 0.71 0.07 1.29 0.16 1.29z"/>
	<path class="st8" d="m181.05 327.23h231.29c0.33-0.49 0.53-1.15 0.6-2.01-0.02-0.2-0.03-0.43-0.03-0.69v-13.22c0-0.26 0.01-0.49 0.03-0.69-0.16-1.92-0.96-2.95-2.45-2.95h-20.45c-0.32 0-0.58 0.09-0.84 0.18 0 0.16 0.01 0.31 0.01 0.45v0.17c-0.42-0.51-0.99-0.8-1.75-0.8h-20.45c-0.75 0-1.31 0.29-1.73 0.78v-0.15c0-0.14 0-0.31 0.01-0.48-0.22-0.06-0.43-0.15-0.7-0.15h-20.45c-0.32 0-0.58 0.09-0.84 0.18 0.01 0.16 0.01 0.32 0.01 0.45v0.17c-0.42-0.51-0.99-0.8-1.75-0.8h-20.45c-0.32 0-0.58 0.09-0.84 0.18 0 0.16 0.01 0.31 0.01 0.45v0.17c-0.42-0.51-0.99-0.8-1.75-0.8h-20.45c-0.32 0-0.58 0.09-0.84 0.18 0 0.16 0.01 0.31 0.01 0.45v0.17c-0.42-0.51-0.99-0.8-1.75-0.8h-20.45c-0.32 0-0.58 0.09-0.84 0.18 0 0.16 0.01 0.31 0.01 0.45v0.17c-0.42-0.51-0.99-0.8-1.75-0.8h-20.45c-0.32 0-0.58 0.09-0.84 0.18 0.01 0.16 0.01 0.32 0.01 0.45v0.17c-0.42-0.51-0.99-0.8-1.75-0.8h-20.45c-0.32 0-0.58 0.09-0.84 0.18 0 0.16 0.01 0.31 0.01 0.45v0.17c-0.42-0.51-0.99-0.8-1.75-0.8h-20.45c-0.32 0-0.58 0.09-0.84 0.18 0 0.16 0.01 0.31 0.01 0.45v0.17c-0.42-0.51-0.99-0.8-1.75-0.8h-20.45c-0.75 0-1.31 0.28-1.73 0.78-0.51 0.6-0.79 1.54-0.79 2.86v13.22c0 0.83 0.14 1.47 0.34 2.02 0.1 0.26 0.21 0.5 0.35 0.7v-0.02zm208.86-16.6c0.03-0.35 0.08-0.6 0.13-0.6h20.45c0.09 0 0.16 0.58 0.16 1.29v13.22c0 0.71-0.07 1.29-0.16 1.29h-20.45c-0.06 0-0.1-0.25-0.13-0.6 0.02-0.23 0.07-0.43 0.07-0.69v-13.22c0-0.26-0.05-0.45-0.07-0.69zm-23.07 0.69c0-0.71 0.07-1.29 0.16-1.29h20.45c0.09 0 0.16 0.58 0.16 1.29v13.22c0 0.71-0.07 1.29-0.16 1.29h-20.45c-0.09 0-0.16-0.58-0.16-1.29zm-22.84-0.69c0.03-0.35 0.08-0.6 0.13-0.6h20.45c0.01 0 0.02 0.03 0.03 0.05-0.06 0.38-0.12 0.77-0.12 1.24v13.22c0 0.47 0.06 0.86 0.12 1.24-0.01 0.01-0.02 0.05-0.03 0.05h-20.45c-0.06 0-0.1-0.25-0.13-0.6 0.02-0.23 0.07-0.43 0.07-0.69v-13.22c-0.01-0.26-0.05-0.45-0.07-0.69zm-23.04 0c0.01-0.07 0.01-0.16 0.02-0.22 0.03-0.23 0.07-0.38 0.12-0.38h20.45c0.02 0 0.04 0.04 0.06 0.1 0.01 0.05 0.03 0.11 0.04 0.19 0.04 0.24 0.06 0.59 0.06 0.99v13.22c0 0.4-0.02 0.76-0.06 0.99-0.01 0.08-0.03 0.14-0.04 0.19-0.02 0.07-0.04 0.1-0.06 0.1h-20.45c-0.04 0-0.09-0.14-0.12-0.38-0.01-0.06-0.01-0.15-0.02-0.22 0.02-0.23 0.07-0.43 0.07-0.69v-13.22c0-0.24-0.05-0.43-0.07-0.67zm-23.03 0c0.02-0.21 0.04-0.4 0.07-0.5 0.02-0.07 0.04-0.1 0.06-0.1h20.45c0.09 0 0.16 0.58 0.16 1.29v13.22c0 0.71-0.07 1.29-0.16 1.29h-20.45c-0.02 0-0.04-0.04-0.06-0.1-0.03-0.1-0.05-0.28-0.07-0.5 0.02-0.23 0.07-0.43 0.07-0.69v-13.22c-0.01-0.26-0.05-0.45-0.07-0.69zm-23.04 0c0.03-0.35 0.08-0.6 0.13-0.6h20.45c0.09 0 0.16 0.58 0.16 1.29v13.22c0 0.71-0.07 1.29-0.16 1.29h-20.45c-0.06 0-0.1-0.25-0.13-0.6 0.02-0.23 0.07-0.43 0.07-0.69v-13.22c0-0.26-0.05-0.45-0.07-0.69zm-23.03 0c0.03-0.35 0.08-0.6 0.13-0.6h20.45c0.09 0 0.16 0.58 0.16 1.29v13.22c0 0.71-0.07 1.29-0.16 1.29h-20.45c-0.06 0-0.1-0.25-0.13-0.6 0.02-0.23 0.07-0.43 0.07-0.69v-13.22c-0.01-0.26-0.05-0.45-0.07-0.69zm-23.04 0c0.03-0.35 0.08-0.6 0.13-0.6h20.45c0.04 0 0.09 0.14 0.11 0.38s0.05 0.56 0.05 0.91v13.22c0 0.36-0.02 0.68-0.05 0.91s-0.07 0.38-0.11 0.38h-20.45c-0.06 0-0.1-0.25-0.13-0.6 0.02-0.23 0.07-0.43 0.07-0.69v-13.22c0-0.26-0.05-0.45-0.07-0.69zm-23.03 0c0.03-0.35 0.08-0.6 0.13-0.6h20.45c0.04 0 0.09 0.14 0.11 0.38s0.05 0.56 0.05 0.91v13.22c0 0.36-0.02 0.68-0.05 0.91s-0.07 0.38-0.11 0.38h-20.45c-0.06 0-0.1-0.25-0.13-0.6 0.02-0.23 0.07-0.43 0.07-0.69v-13.22c-0.01-0.26-0.05-0.45-0.07-0.69zm-23.07 0.69c0-0.71 0.07-1.29 0.16-1.29h20.45c0.09 0 0.16 0.58 0.16 1.29v13.22c0 0.71-0.07 1.29-0.16 1.29h-20.45c-0.09 0-0.16-0.58-0.16-1.29z"/>
	<path class="st7" d="m389.91 325.23c0.03 0.35 0.08 0.6 0.13 0.6h20.45c0.09 0 0.16-0.58 0.16-1.29v-13.22c0-0.71-0.07-1.29-0.16-1.29h-20.45c-0.06 0-0.1 0.25-0.13 0.6 0.02 0.23 0.07 0.43 0.07 0.69v13.22c0 0.26-0.05 0.45-0.07 0.69z"/>
	<path class="st7" d="m387.46 325.83c0.09 0 0.16-0.58 0.16-1.29v-13.22c0-0.71-0.07-1.29-0.16-1.29h-20.45c-0.09 0-0.16 0.58-0.16 1.29v13.22c0 0.71 0.07 1.29 0.16 1.29z"/>
	<path class="st6" d="m193.45 389.02c0.09 0 0.16-0.58 0.16-1.29v-13.22c0-0.71-0.07-1.29-0.16-1.29h-20.45c-0.09 0-0.16 0.58-0.16 1.29v13.22c0 0.71 0.07 1.29 0.16 1.29h19.84z"/>
	<path class="st6" d="m150.59 373.23h-0.63c-0.09 0-0.16 0.58-0.16 1.29v13.22c0 0.71 0.07 1.29 0.16 1.29h20.46c0.09 0 0.16-0.58 0.16-1.29v-13.22c0-0.71-0.07-1.29-0.16-1.29h-0.61z"/>
	<path class="st6" d="m146.77 373.23h-18.5c-0.08 0-0.15 0.58-0.15 1.29v13.22c0 0.71 0.07 1.29 0.15 1.29h19.14c0.08 0 0.15-0.58 0.15-1.29v-13.22c0-0.71-0.07-1.29-0.15-1.29z"/>
	<path class="st6" d="m206.8 396.73h-18.12c-0.08 0-0.15 0.58-0.15 1.29v13.22c0 0.71 0.07 1.29 0.15 1.29h18.77c0.08 0 0.15-0.58 0.15-1.29v-13.22c0-0.71-0.07-1.29-0.15-1.29z"/>
	<path class="st6" d="m211.38 412.52h18.1c0.08 0 0.15-0.58 0.15-1.29v-13.22c0-0.71-0.07-1.29-0.15-1.29h-18.77c-0.08 0-0.15 0.58-0.15 1.29v13.22c0 0.71 0.07 1.29 0.15 1.29z"/>
	<path class="st6" d="m233.42 412.52h18.1c0.08 0 0.15-0.58 0.15-1.29v-13.22c0-0.71-0.07-1.29-0.15-1.29h-18.77c-0.08 0-0.15 0.58-0.15 1.29v13.22c0 0.71 0.07 1.29 0.15 1.29z"/>
	<path class="st6" d="m255.45 412.52h18.1c0.08 0 0.15-0.58 0.15-1.29v-13.22c0-0.71-0.07-1.29-0.15-1.29h-18.77c-0.08 0-0.15 0.58-0.15 1.29v13.22c0 0.71 0.07 1.29 0.15 1.29z"/>
	<path class="st6" d="m277.48 412.52h18.1c0.08 0 0.15-0.58 0.15-1.29v-13.22c0-0.71-0.07-1.29-0.15-1.29h-18.77c-0.08 0-0.15 0.58-0.15 1.29v13.22c0 0.71 0.07 1.29 0.15 1.29z"/>
	<path class="st6" d="m299.51 412.52h18.1c0.08 0 0.15-0.58 0.15-1.29v-13.22c0-0.71-0.07-1.29-0.15-1.29h-18.77c-0.08 0-0.15 0.58-0.15 1.29v13.22c0 0.71 0.07 1.29 0.15 1.29z"/>
	<path class="st6" d="m321.54 412.52h18.1c0.08 0 0.15-0.58 0.15-1.29v-13.22c0-0.71-0.07-1.29-0.15-1.29h-18.77c-0.08 0-0.15 0.58-0.15 1.29v13.22c0 0.71 0.07 1.29 0.15 1.29z"/>
	<path class="st6" d="m343.58 412.52h18.1c0.08 0 0.15-0.58 0.15-1.29v-13.22c0-0.71-0.07-1.29-0.15-1.29h-18.77c-0.08 0-0.15 0.58-0.15 1.29v13.22c0 0.71 0.07 1.29 0.15 1.29z"/>
	<path class="st6" d="m365.61 412.52h18.1c0.08 0 0.15-0.58 0.15-1.29v-13.22c0-0.71-0.07-1.29-0.15-1.29h-18.77c-0.08 0-0.15 0.58-0.15 1.29v13.22c0 0.71 0.07 1.29 0.15 1.29z"/>
	<path class="st6" d="m405.09 396.73h-18.12c-0.08 0-0.15 0.58-0.15 1.29v13.22c0 0.71 0.07 1.29 0.15 1.29h18.77c0.08 0 0.15-0.58 0.15-1.29v-13.22c0-0.71-0.07-1.29-0.15-1.29z"/>
	<path class="st6" d="m185.88 396.73h-37.19c-0.16 0-0.3 0.58-0.3 1.29v13.22c0 0.71 0.13 1.29 0.3 1.29h37.19c0.16 0 0.3-0.58 0.3-1.29v-13.22c0-0.72-0.13-1.29-0.3-1.29z"/>
	<path class="st6" d="m445.56 396.73h-37.19c-0.16 0-0.3 0.58-0.3 1.29v13.22c0 0.71 0.13 1.29 0.3 1.29h37.19c0.16 0 0.3-0.58 0.3-1.29v-13.22c-0.01-0.72-0.14-1.29-0.3-1.29z"/>
	<path class="st6" d="m486.76 389.26c0.16 0 0.3-0.58 0.3-1.29v-13.22c0-0.71-0.13-1.29-0.3-1.29h-37.19c-0.16 0-0.3 0.58-0.3 1.29v13.22c0 0.71 0.13 1.29 0.3 1.29h37.05z"/>
	<path class="st6" d="m165.79 366.97c0.15 0 0.27-0.58 0.27-1.29v-13.22c0-0.71-0.12-1.29-0.27-1.29h-33.41c-0.15 0-0.27 0.58-0.27 1.29v13.22c0 0.71 0.12 1.29 0.27 1.29h33.17z"/>
	<path class="st6" d="m314.17 345.26v-13.22c0-0.71-0.07-1.29-0.16-1.29h-20.46c-0.09 0-0.16 0.58-0.16 1.29v13.23h20.78z"/>
	<path class="st6" d="m291.13 345.26v-13.22c0-0.71-0.07-1.29-0.16-1.29h-20.46c-0.09 0-0.16 0.58-0.16 1.29v13.23h20.78z"/>
	<path class="st6" d="m268.1 345.26v-13.22c0-0.71-0.07-1.29-0.16-1.29h-20.45c-0.09 0-0.16 0.58-0.16 1.29v13.23h20.77z"/>
	<path class="st6" d="m245.06 345.26v-13.22c0-0.71-0.07-1.29-0.16-1.29h-20.45c-0.09 0-0.16 0.58-0.16 1.29v13.23h20.77z"/>
	<path class="st6" d="m222.03 345.26v-13.22c0-0.71-0.07-1.29-0.16-1.29h-20.46c-0.09 0-0.16 0.58-0.16 1.29v13.23h20.78z"/>
	<path class="st6" d="m198.99 345.26v-13.22c0-0.71-0.07-1.29-0.16-1.29h-20.45c-0.09 0-0.16 0.58-0.16 1.29v13.23h20.77z"/>
	<path class="st6" d="m175.96 345.26v-13.22c0-0.71-0.07-1.29-0.16-1.29h-20.45c-0.09 0-0.16 0.58-0.16 1.29v13.23h20.77z"/>
	<path class="st6" d="m152.92 345.26v-13.22c0-0.71-0.07-1.29-0.16-1.29h-20.46c-0.09 0-0.16 0.58-0.16 1.29v13.23h20.78z"/>
	<path class="st6" d="m429.18 345.26v-13.22c0-0.71-0.07-1.29-0.16-1.29h-20.46c-0.09 0-0.16 0.58-0.16 1.29v13.23h20.78z"/>
	<path class="st6" d="m406.15 345.26v-13.22c0-0.71-0.07-1.29-0.16-1.29h-20.46c-0.09 0-0.16 0.58-0.16 1.29v13.23h20.78z"/>
	<path class="st6" d="m383.11 345.26v-13.22c0-0.71-0.07-1.29-0.16-1.29h-20.45c-0.09 0-0.16 0.58-0.16 1.29v13.23h20.77z"/>
	<path class="st6" d="m360.08 345.26v-13.22c0-0.71-0.07-1.29-0.16-1.29h-20.45c-0.09 0-0.16 0.58-0.16 1.29v13.23h20.77z"/>
	<path class="st6" d="m337.04 345.26v-13.22c0-0.71-0.07-1.29-0.16-1.29h-20.46c-0.09 0-0.16 0.58-0.16 1.29v13.23h20.78z"/>
	<path class="st6" d="m412.91 324.54c0 0.26 0.01 0.49 0.03 0.69 0.03 0.35 0.08 0.6 0.13 0.6h20.46c0.09 0 0.16-0.58 0.16-1.29v-13.22c0-0.71-0.07-1.29-0.16-1.29h-20.46c-0.06 0-0.1 0.25-0.13 0.6-0.02 0.2-0.03 0.43-0.03 0.69z"/>
</g>
</svg>
