<?xml version="1.0" encoding="UTF-8"?>
<svg viewBox="0 0 400 253.3" xmlns="http://www.w3.org/2000/svg">
<path d="m199.98 253.3h197.34c0.94328 0 1.688-0.84399 1.688-1.9362l0.94328-11.27h-399.95l0.94328 11.27c0 1.0426 0.74469 1.9362 1.688 1.9362h197.34z" fill="#0f0f0f"/>
<path d="m398.86 0h-397.72c-0.6454 0-1.1419 0.49646-1.1419 1.1419v239h400v-239c0-0.6454-0.54611-1.1419-1.1419-1.1419z" fill="#181818"/>
<path d="m8.7377 174.66v-161.85c0-0.89364 0.74469-1.6383 1.6383-1.6383h184.24c0.89363 0 1.6383 0.74469 1.6383 1.6383v161.85c0 0.89363-0.7447 1.6383-1.6383 1.6383h-184.29c-0.89363 0-1.5887-0.74469-1.5887-1.6383z" fill="#282627"/>
<path d="M191.33673 172.02433H13.603078c-.347524 0-.645401-.29788-.645401-.64541V16.13504c0-.34753.297877-.59576.645401-.59576H191.33673c.34752 0 .6454.29788.6454.59576v155.24388c0 .34753-.29788.64541-.6454.64541z" fill="#2f3133"/>
<path d="m20.851 20.851v56.845h6.7519v-50.937h157.58v67.022l-164.33-0.0496v52.625h6.7519v-50.987h157.58v67.022h-129.73l-11.419 6.4044h147.95v-147.95" fill="#36393b"/>
<path d="m27.603 26.759h157.58v66.973h-164.33v-16.036h6.7519" fill="#535452"/>
<circle cx="94.973" cy="60.271" r="3.3263" fill="none" stroke="#61ff40" stroke-miterlimit="10" stroke-width=".14894"/>
<path d="m130.87 74.172h-62.951c-0.14894 0-0.24823-0.0993-0.24823-0.24823v-27.305c0-0.14894 0.09929-0.24823 0.24823-0.24823h62.951c0.14894 0 0.24823 0.0993 0.24823 0.24823v27.305c0 0.14893-0.0993 0.24823-0.24823 0.24823zm-53.866-20.603c-3.7235 0-6.7022 3.0284-6.7022 6.7022 0 3.7235 3.0284 6.7022 6.7022 6.7022s6.7022-3.0284 6.7022-6.7022c0.04965-3.6738-2.9788-6.7022-6.7022-6.7022zm12.312-7.1987h-8.6385v5.7093h8.6385v-5.7093zm0 22.142h-8.6385v5.7093h8.6385v-5.7093zm5.6597-20.107c-1.8369 0-3.3263 1.4894-3.3263 3.3263s1.4894 3.3263 3.3263 3.3263 3.3263-1.4894 3.3263-3.3263-1.4894-3.3263-3.3263-3.3263zm0 8.5392c-1.8369 0-3.3263 1.4894-3.3263 3.3263s1.4894 3.3263 3.3263 3.3263 3.3263-1.4894 3.3263-3.3263-1.4894-3.3263-3.3263-3.3263zm0 8.5392c-1.8369 0-3.3263 1.4894-3.3263 3.3263s1.4894 3.3263 3.3263 3.3263 3.3263-1.4894 3.3263-3.3263c0-1.7873-1.4894-3.3263-3.3263-3.3263zm9.6314-17.078c-1.8369 0-3.3263 1.4894-3.3263 3.3263s1.4894 3.3263 3.3263 3.3263 3.3263-1.4894 3.3263-3.3263-1.4894-3.3263-3.3263-3.3263zm0 8.5392c-1.8369 0-3.3263 1.4894-3.3263 3.3263s1.4894 3.3263 3.3263 3.3263 3.3263-1.4894 3.3263-3.3263-1.4894-3.3263-3.3263-3.3263zm0 8.5392c-1.8369 0-3.3263 1.4894-3.3263 3.3263s1.4894 3.3263 3.3263 3.3263 3.3263-1.4894 3.3263-3.3263c0-1.7873-1.4894-3.3263-3.3263-3.3263zm9.6314-17.078c-1.8369 0-3.3263 1.4894-3.3263 3.3263s1.4894 3.3263 3.3263 3.3263 3.3263-1.4894 3.3263-3.3263-1.4894-3.3263-3.3263-3.3263zm0 8.5392c-1.8369 0-3.3263 1.4894-3.3263 3.3263s1.4894 3.3263 3.3263 3.3263 3.3263-1.4894 3.3263-3.3263-1.4894-3.3263-3.3263-3.3263zm0 8.5392c-1.8369 0-3.3263 1.4894-3.3263 3.3263s1.4894 3.3263 3.3263 3.3263 3.3263-1.4894 3.3263-3.3263c0-1.7873-1.4894-3.3263-3.3263-3.3263zm9.6314-17.078c-1.8369 0-3.3263 1.4894-3.3263 3.3263s1.4894 3.3263 3.3263 3.3263 3.3263-1.4894 3.3263-3.3263-1.4894-3.3263-3.3263-3.3263zm0 8.5392c-1.8369 0-3.3263 1.4894-3.3263 3.3263s1.4894 3.3263 3.3263 3.3263 3.3263-1.4894 3.3263-3.3263-1.4894-3.3263-3.3263-3.3263zm0 8.5392c-1.8369 0-3.3263 1.4894-3.3263 3.3263s1.4894 3.3263 3.3263 3.3263 3.3263-1.4894 3.3263-3.3263c0-1.7873-1.4894-3.3263-3.3263-3.3263z" fill="#686867"/>
<path d="m130.02 74.519h-61.313c-0.74469 0-1.3901-0.6454-1.3901-1.3901v-25.667c0-0.74469 0.6454-1.3901 1.3901-1.3901h61.313c0.7447 0 1.3901 0.6454 1.3901 1.3901v25.667c0 0.7447-0.59576 1.3901-1.3901 1.3901zm-40.412-0.6454h40.412c0.39717 0 0.7447-0.34752 0.7447-0.7447v-25.667c0-0.39717-0.34753-0.74469-0.7447-0.74469h-40.412v5.7093h-9.2839v-5.7093h-11.617c-0.39717 0-0.74469 0.34752-0.74469 0.74469v25.667c0 0.39718 0.34752 0.7447 0.74469 0.7447h11.617v-5.7093h9.2839v5.7093zm-8.6385 0h7.993v-5.0639h-7.993v5.0639zm0-22.093h7.993v-5.0639h-7.993v5.0639zm42.894 20.752c-2.0355 0-3.6738-1.6383-3.6738-3.6738s1.6383-3.6738 3.6738-3.6738 3.6738 1.6383 3.6738 3.6738-1.688 3.6738-3.6738 3.6738zm0-6.7022c-1.688 0-3.0284 1.3404-3.0284 3.0284s1.3404 3.0284 3.0284 3.0284 3.0284-1.3404 3.0284-3.0284-1.3901-3.0284-3.0284-3.0284zm-9.6314 6.7022c-2.0355 0-3.6738-1.6383-3.6738-3.6738s1.6383-3.6738 3.6738-3.6738 3.6738 1.6383 3.6738 3.6738-1.688 3.6738-3.6738 3.6738zm0-6.7022c-1.688 0-3.0284 1.3404-3.0284 3.0284s1.3404 3.0284 3.0284 3.0284 3.0284-1.3404 3.0284-3.0284-1.3901-3.0284-3.0284-3.0284zm-9.6314 6.7022c-2.0355 0-3.6738-1.6383-3.6738-3.6738s1.6383-3.6738 3.6738-3.6738 3.6738 1.6383 3.6738 3.6738-1.688 3.6738-3.6738 3.6738zm0-6.7022c-1.688 0-3.0284 1.3404-3.0284 3.0284s1.3404 3.0284 3.0284 3.0284 3.0284-1.3404 3.0284-3.0284-1.3901-3.0284-3.0284-3.0284zm-9.6314 6.7022c-2.0355 0-3.6738-1.6383-3.6738-3.6738s1.6383-3.6738 3.6738-3.6738 3.6738 1.6383 3.6738 3.6738-1.6383 3.6738-3.6738 3.6738zm0-6.7022c-1.688 0-3.0284 1.3404-3.0284 3.0284s1.3404 3.0284 3.0284 3.0284 3.0284-1.3404 3.0284-3.0284-1.3901-3.0284-3.0284-3.0284zm-17.972 1.4894c-3.8724 0-7.0498-3.1774-7.0498-7.0498s3.1774-7.0498 7.0498-7.0498 7.0498 3.1774 7.0498 7.0498-3.1277 7.0498-7.0498 7.0498zm0-13.404c-3.5249 0-6.4044 2.8795-6.4044 6.4044s2.8795 6.4044 6.4044 6.4044 6.4044-2.8795 6.4044-6.4044c0-3.5745-2.8795-6.4044-6.4044-6.4044zm46.866 10.029c-2.0355 0-3.6738-1.6383-3.6738-3.6738s1.6383-3.6738 3.6738-3.6738 3.6738 1.6383 3.6738 3.6738c-0.0496 2.0355-1.688 3.6738-3.6738 3.6738zm0-6.6526c-1.688 0-3.0284 1.3404-3.0284 3.0284s1.3404 3.0284 3.0284 3.0284 3.0284-1.3404 3.0284-3.0284c-0.0496-1.688-1.3901-3.0284-3.0284-3.0284zm-9.6314 6.6526c-2.0355 0-3.6738-1.6383-3.6738-3.6738s1.6383-3.6738 3.6738-3.6738 3.6738 1.6383 3.6738 3.6738c-0.0496 2.0355-1.688 3.6738-3.6738 3.6738zm0-6.6526c-1.688 0-3.0284 1.3404-3.0284 3.0284s1.3404 3.0284 3.0284 3.0284 3.0284-1.3404 3.0284-3.0284c-0.0496-1.688-1.3901-3.0284-3.0284-3.0284zm-9.6314 6.6526c-2.0355 0-3.6738-1.6383-3.6738-3.6738s1.6383-3.6738 3.6738-3.6738 3.6738 1.6383 3.6738 3.6738-1.688 3.6738-3.6738 3.6738zm0-6.6526c-1.688 0-3.0284 1.3404-3.0284 3.0284s1.3404 3.0284 3.0284 3.0284 3.0284-1.3404 3.0284-3.0284-1.3901-3.0284-3.0284-3.0284zm-9.6314 6.6526c-2.0355 0-3.6738-1.6383-3.6738-3.6738s1.6383-3.6738 3.6738-3.6738 3.6738 1.6383 3.6738 3.6738-1.6383 3.6738-3.6738 3.6738zm0-6.6526c-1.688 0-3.0284 1.3404-3.0284 3.0284s1.3404 3.0284 3.0284 3.0284 3.0284-1.3404 3.0284-3.0284-1.3901-3.0284-3.0284-3.0284zm28.894-1.8866c-2.0355 0-3.6738-1.6383-3.6738-3.6738s1.6383-3.6738 3.6738-3.6738 3.6738 1.6383 3.6738 3.6738c-0.0496 2.0355-1.688 3.6738-3.6738 3.6738zm0-6.7022c-1.688 0-3.0284 1.3404-3.0284 3.0284s1.3404 3.0284 3.0284 3.0284 3.0284-1.3404 3.0284-3.0284c-0.0496-1.6383-1.3901-3.0284-3.0284-3.0284zm-9.6314 6.7022c-2.0355 0-3.6738-1.6383-3.6738-3.6738s1.6383-3.6738 3.6738-3.6738 3.6738 1.6383 3.6738 3.6738c-0.0496 2.0355-1.688 3.6738-3.6738 3.6738zm0-6.7022c-1.688 0-3.0284 1.3404-3.0284 3.0284s1.3404 3.0284 3.0284 3.0284 3.0284-1.3404 3.0284-3.0284c-0.0496-1.6383-1.3901-3.0284-3.0284-3.0284zm-9.6314 6.7022c-2.0355 0-3.6738-1.6383-3.6738-3.6738s1.6383-3.6738 3.6738-3.6738 3.6738 1.6383 3.6738 3.6738-1.688 3.6738-3.6738 3.6738zm0-6.7022c-1.688 0-3.0284 1.3404-3.0284 3.0284s1.3404 3.0284 3.0284 3.0284 3.0284-1.3404 3.0284-3.0284c0-1.6383-1.3901-3.0284-3.0284-3.0284zm-9.6314 6.7022c-2.0355 0-3.6738-1.6383-3.6738-3.6738s1.6383-3.6738 3.6738-3.6738 3.6738 1.6383 3.6738 3.6738-1.6383 3.6738-3.6738 3.6738zm0-6.7022c-1.688 0-3.0284 1.3404-3.0284 3.0284s1.3404 3.0284 3.0284 3.0284 3.0284-1.3404 3.0284-3.0284c0-1.6383-1.3901-3.0284-3.0284-3.0284z" fill="#373836"/>
<path d="m76.555 56.15-1.9859 1.0426-0.29788-1.1419 2.4327-1.2908h1.2908v11.121h-1.4397v-9.7307zm-9.5321 16.234-8.4399-1.0426c-0.34752 0-0.6454-0.29788-0.6454-0.6454v-0.54611c0-0.34753 0.29788-0.6454 0.6454-0.6454l8.4399 1.0426c0.34752 0 0.6454 0.29788 0.6454 0.6454v0.54611c0 0.34752-0.29788 0.6454-0.6454 0.6454z" fill="#373836"/>
<path d="m27.603 95.37h157.58v67.022h-129.73l-11.419 6.4044h-23.185v-22.44h6.7519" fill="#535452"/>
<circle cx="94.973" cy="128.88" r="3.3263" fill="none" stroke="#61ff40" stroke-miterlimit="10" stroke-width=".14894"/>
<path d="m130.87 142.78h-62.951c-0.14894 0-0.24823-0.0993-0.24823-0.24823v-27.305c0-0.14894 0.09929-0.24823 0.24823-0.24823h62.951c0.14894 0 0.24823 0.0993 0.24823 0.24823v27.305c0 0.0993-0.0993 0.24823-0.24823 0.24823zm-53.866-20.653c-3.7235 0-6.7022 3.0284-6.7022 6.7022 0 3.7235 3.0284 6.7022 6.7022 6.7022s6.7022-3.0284 6.7022-6.7022c0.04965-3.6738-2.9788-6.7022-6.7022-6.7022zm12.312-7.1491h-8.6385v5.6597h8.6385v-5.6597zm0 22.093h-8.6385v5.7093h8.6385v-5.7093zm5.6597-20.107c-1.8369 0-3.3263 1.4894-3.3263 3.3263s1.4894 3.3263 3.3263 3.3263 3.3263-1.4894 3.3263-3.3263-1.4894-3.3263-3.3263-3.3263zm0 8.5392c-1.8369 0-3.3263 1.4894-3.3263 3.3263s1.4894 3.3263 3.3263 3.3263 3.3263-1.4894 3.3263-3.3263-1.4894-3.3263-3.3263-3.3263zm0 8.5888c-1.8369 0-3.3263 1.4894-3.3263 3.3263s1.4894 3.3263 3.3263 3.3263 3.3263-1.4894 3.3263-3.3263-1.4894-3.3263-3.3263-3.3263zm9.6314-17.128c-1.8369 0-3.3263 1.4894-3.3263 3.3263s1.4894 3.3263 3.3263 3.3263 3.3263-1.4894 3.3263-3.3263-1.4894-3.3263-3.3263-3.3263zm0 8.5392c-1.8369 0-3.3263 1.4894-3.3263 3.3263s1.4894 3.3263 3.3263 3.3263 3.3263-1.4894 3.3263-3.3263-1.4894-3.3263-3.3263-3.3263zm0 8.5888c-1.8369 0-3.3263 1.4894-3.3263 3.3263s1.4894 3.3263 3.3263 3.3263 3.3263-1.4894 3.3263-3.3263-1.4894-3.3263-3.3263-3.3263zm9.6314-17.128c-1.8369 0-3.3263 1.4894-3.3263 3.3263s1.4894 3.3263 3.3263 3.3263 3.3263-1.4894 3.3263-3.3263-1.4894-3.3263-3.3263-3.3263zm0 8.5392c-1.8369 0-3.3263 1.4894-3.3263 3.3263s1.4894 3.3263 3.3263 3.3263 3.3263-1.4894 3.3263-3.3263-1.4894-3.3263-3.3263-3.3263zm0 8.5888c-1.8369 0-3.3263 1.4894-3.3263 3.3263s1.4894 3.3263 3.3263 3.3263 3.3263-1.4894 3.3263-3.3263-1.4894-3.3263-3.3263-3.3263zm9.6314-17.128c-1.8369 0-3.3263 1.4894-3.3263 3.3263s1.4894 3.3263 3.3263 3.3263 3.3263-1.4894 3.3263-3.3263-1.4894-3.3263-3.3263-3.3263zm0 8.5392c-1.8369 0-3.3263 1.4894-3.3263 3.3263s1.4894 3.3263 3.3263 3.3263 3.3263-1.4894 3.3263-3.3263-1.4894-3.3263-3.3263-3.3263zm0 8.5888c-1.8369 0-3.3263 1.4894-3.3263 3.3263s1.4894 3.3263 3.3263 3.3263 3.3263-1.4894 3.3263-3.3263-1.4894-3.3263-3.3263-3.3263z" fill="#686867"/>
<path d="m130.02 143.08h-61.313c-0.74469 0-1.3901-0.6454-1.3901-1.3901v-25.667c0-0.74469 0.6454-1.3901 1.3901-1.3901h61.313c0.7447 0 1.3901 0.6454 1.3901 1.3901v25.667c0 0.79434-0.59576 1.3901-1.3901 1.3901zm-40.412-0.6454h40.412c0.39717 0 0.7447-0.34753 0.7447-0.7447v-25.667c0-0.39717-0.34753-0.74469-0.7447-0.74469h-40.412v5.7093h-9.2839v-5.7093h-11.617c-0.39717 0-0.74469 0.34752-0.74469 0.74469v25.667c0 0.39717 0.34752 0.7447 0.74469 0.7447h11.617v-5.7093h9.2839v5.7093zm-8.6385 0h7.993v-5.0639h-7.993v5.0639zm0-22.093h7.993v-5.0639h-7.993v5.0639zm42.894 20.752c-2.0355 0-3.6738-1.6383-3.6738-3.6738s1.6383-3.6738 3.6738-3.6738 3.6738 1.6383 3.6738 3.6738c-0.0496 2.0355-1.688 3.6738-3.6738 3.6738zm0-6.7022c-1.688 0-3.0284 1.3404-3.0284 3.0284s1.3404 3.0284 3.0284 3.0284 3.0284-1.3404 3.0284-3.0284-1.3901-3.0284-3.0284-3.0284zm-9.6314 6.7022c-2.0355 0-3.6738-1.6383-3.6738-3.6738s1.6383-3.6738 3.6738-3.6738 3.6738 1.6383 3.6738 3.6738c-0.0496 2.0355-1.688 3.6738-3.6738 3.6738zm0-6.7022c-1.688 0-3.0284 1.3404-3.0284 3.0284s1.3404 3.0284 3.0284 3.0284 3.0284-1.3404 3.0284-3.0284-1.3901-3.0284-3.0284-3.0284zm-9.6314 6.7022c-2.0355 0-3.6738-1.6383-3.6738-3.6738s1.6383-3.6738 3.6738-3.6738 3.6738 1.6383 3.6738 3.6738-1.688 3.6738-3.6738 3.6738zm0-6.7022c-1.688 0-3.0284 1.3404-3.0284 3.0284s1.3404 3.0284 3.0284 3.0284 3.0284-1.3404 3.0284-3.0284-1.3901-3.0284-3.0284-3.0284zm-9.6314 6.7022c-2.0355 0-3.6738-1.6383-3.6738-3.6738s1.6383-3.6738 3.6738-3.6738 3.6738 1.6383 3.6738 3.6738-1.6383 3.6738-3.6738 3.6738zm0-6.7022c-1.688 0-3.0284 1.3404-3.0284 3.0284s1.3404 3.0284 3.0284 3.0284 3.0284-1.3404 3.0284-3.0284-1.3901-3.0284-3.0284-3.0284zm-17.972 1.4894c-3.8724 0-7.0498-3.1774-7.0498-7.0498s3.1774-7.0498 7.0498-7.0498 7.0498 3.1774 7.0498 7.0498c0 3.9221-3.1277 7.0498-7.0498 7.0498zm0-13.404c-3.5249 0-6.4044 2.8795-6.4044 6.4044s2.8795 6.4044 6.4044 6.4044 6.4044-2.8795 6.4044-6.4044-2.8795-6.4044-6.4044-6.4044zm46.866 10.029c-2.0355 0-3.6738-1.6383-3.6738-3.6738s1.6383-3.6738 3.6738-3.6738 3.6738 1.6383 3.6738 3.6738c-0.0496 2.0355-1.688 3.6738-3.6738 3.6738zm0-6.6526c-1.688 0-3.0284 1.3404-3.0284 3.0284s1.3404 3.0284 3.0284 3.0284 3.0284-1.3404 3.0284-3.0284-1.3901-3.0284-3.0284-3.0284zm-9.6314 6.6526c-2.0355 0-3.6738-1.6383-3.6738-3.6738s1.6383-3.6738 3.6738-3.6738 3.6738 1.6383 3.6738 3.6738c-0.0496 2.0355-1.688 3.6738-3.6738 3.6738zm0-6.6526c-1.688 0-3.0284 1.3404-3.0284 3.0284s1.3404 3.0284 3.0284 3.0284 3.0284-1.3404 3.0284-3.0284-1.3901-3.0284-3.0284-3.0284zm-9.6314 6.6526c-2.0355 0-3.6738-1.6383-3.6738-3.6738s1.6383-3.6738 3.6738-3.6738 3.6738 1.6383 3.6738 3.6738-1.688 3.6738-3.6738 3.6738zm0-6.6526c-1.688 0-3.0284 1.3404-3.0284 3.0284s1.3404 3.0284 3.0284 3.0284 3.0284-1.3404 3.0284-3.0284-1.3901-3.0284-3.0284-3.0284zm-9.6314 6.6526c-2.0355 0-3.6738-1.6383-3.6738-3.6738s1.6383-3.6738 3.6738-3.6738 3.6738 1.6383 3.6738 3.6738-1.6383 3.6738-3.6738 3.6738zm0-6.6526c-1.688 0-3.0284 1.3404-3.0284 3.0284s1.3404 3.0284 3.0284 3.0284 3.0284-1.3404 3.0284-3.0284-1.3901-3.0284-3.0284-3.0284zm28.894-1.8866c-2.0355 0-3.6738-1.6383-3.6738-3.6738s1.6383-3.6738 3.6738-3.6738 3.6738 1.6383 3.6738 3.6738c-0.0496 2.0355-1.688 3.6738-3.6738 3.6738zm0-6.7022c-1.688 0-3.0284 1.3404-3.0284 3.0284s1.3404 3.0284 3.0284 3.0284 3.0284-1.3404 3.0284-3.0284c-0.0496-1.6383-1.3901-3.0284-3.0284-3.0284zm-9.6314 6.7022c-2.0355 0-3.6738-1.6383-3.6738-3.6738s1.6383-3.6738 3.6738-3.6738 3.6738 1.6383 3.6738 3.6738c-0.0496 2.0355-1.688 3.6738-3.6738 3.6738zm0-6.7022c-1.688 0-3.0284 1.3404-3.0284 3.0284s1.3404 3.0284 3.0284 3.0284 3.0284-1.3404 3.0284-3.0284c-0.0496-1.6383-1.3901-3.0284-3.0284-3.0284zm-9.6314 6.7022c-2.0355 0-3.6738-1.6383-3.6738-3.6738s1.6383-3.6738 3.6738-3.6738 3.6738 1.6383 3.6738 3.6738-1.688 3.6738-3.6738 3.6738zm0-6.7022c-1.688 0-3.0284 1.3404-3.0284 3.0284s1.3404 3.0284 3.0284 3.0284 3.0284-1.3404 3.0284-3.0284c0-1.6383-1.3901-3.0284-3.0284-3.0284zm-9.6314 6.7022c-2.0355 0-3.6738-1.6383-3.6738-3.6738s1.6383-3.6738 3.6738-3.6738 3.6738 1.6383 3.6738 3.6738-1.6383 3.6738-3.6738 3.6738zm0-6.7022c-1.688 0-3.0284 1.3404-3.0284 3.0284s1.3404 3.0284 3.0284 3.0284 3.0284-1.3404 3.0284-3.0284c0-1.6383-1.3901-3.0284-3.0284-3.0284z" fill="#373836"/>
<path d="m67.022 140.95-8.4399-1.0426c-0.34752 0-0.6454-0.29788-0.6454-0.6454v-0.54611c0-0.34753 0.29788-0.6454 0.6454-0.6454l8.4399 1.0426c0.34752 0 0.6454 0.29788 0.6454 0.6454v0.54611c0 0.39717-0.29788 0.6454-0.6454 0.6454zm6.8015-7.4469v-0.84399l1.0426-1.0426c2.532-2.4327 3.7235-3.7235 3.7235-5.2129 0-0.99292-0.49646-1.9362-1.9859-1.9362-0.89363 0-1.6383 0.44681-2.1348 0.84399l-0.44682-0.94328c0.69505-0.59576 1.688-0.99293 2.8298-0.99293 2.1348 0 3.0781 1.4894 3.0781 2.9291 0 1.8369-1.3404 3.3263-3.4256 5.3618l-0.79434 0.74469v0.0496h4.5178v1.1419h-6.4044z" fill="#373836"/>
<path d="m189.25 169.1h-108.97c-2.383 0-4.2696-1.9362-4.2696-4.2696v-65.781c0-2.383 1.9362-4.2696 4.2696-4.2696h108.97c2.383 0 4.2696 1.9362 4.2696 4.2696v65.781c0 2.3334-1.8866 4.2696-4.2696 4.2696z" fill="#0b0b0b"/>
<path d="m193.02 98.548v66.774c0 1.7873-1.4894 3.2766-3.2766 3.2766h-109.97c-1.7873 0-3.2767-1.4894-3.2767-3.2766v-66.774c0-1.7873 1.4894-3.2767 3.2767-3.2767h109.97c1.8369-0.0496 3.2766 1.4397 3.2766 3.2767z" fill="#282828"/>
<path d="m56.249 167.71h18.717v1.9858h-18.717z" fill="#989d9b"/>
<path d="m55.505 98.151h22.837v67.569h-22.837z" fill="#0b0b0b"/>
<path d="m55.902 98.548h22.093v66.824h-22.093z" fill="#282828"/>
<path d="m56.249 98.895h21.348v66.079h-21.348z" fill="#0e0e0e"/>
<path d="m52.327 169.14h-34.752c-2.1348 0-3.9221-1.7376-3.9221-3.922v-66.576c0-2.1348 1.7376-3.9221 3.9221-3.9221h34.752c2.1348 0 3.9221 1.7376 3.9221 3.9221v66.576c0 2.1844-1.7376 3.922-3.9221 3.922z" fill="#0b0b0b"/>
<path d="m56.249 98.399v67.072c0 1.8866-1.539 3.4256-3.4256 3.4256h-35.497c-1.8866 0-3.4256-1.539-3.4256-3.4256v-67.072c0-1.8866 1.539-3.4256 3.4256-3.4256h35.497c1.8866 0.0496 3.4256 1.539 3.4256 3.4256z" fill="#282828"/>
<path d="m56.249 99.193v65.533c0 1.8866-1.539 3.4256-3.4256 3.4256h-34.752c-1.8866 0-3.4256-1.539-3.4256-3.4256v-65.533c0-1.8866 1.539-3.4256 3.4256-3.4256h34.752c1.8866 0 3.4256 1.539 3.4256 3.4256z" fill="#0e0e0e"/>
<path d="m51.086 131.96c0 9.5817-7.7945 17.376-17.376 17.376-9.5817 0-17.376-7.7945-17.376-17.376s7.7945-17.376 17.376-17.376c9.5817 0 17.376 7.7945 17.376 17.376z" fill="#121212"/>
<path d="m50.341 131.96c0 9.1846-7.4469 16.632-16.632 16.632s-16.632-7.4469-16.632-16.632 7.4469-16.632 16.632-16.632 16.632 7.447 16.632 16.632z" fill="#0a0a0a"/>
<path d="m56.249 165.72h18.717v1.9858h-18.717z" fill="#8e8f8e"/>
<path d="m56.249 94.179h18.717v1.9858h-18.717z" fill="#989d9b"/>
<path d="m56.249 96.165h18.717v1.9859h-18.717z" fill="#8e8f8e"/>
<path d="m193.02 98.995v65.881c0 1.7873-1.4894 3.2767-3.2766 3.2767h-109.27c-1.7873 0-3.2767-1.4894-3.2767-3.2767v-65.881c0-1.7873 1.4894-3.2766 3.2767-3.2766h109.27c1.8369 0 3.2766 1.4894 3.2766 3.2766z" fill="#0e0e0e"/>
<path d="m75.86 163.29h-17.873c-0.6454 0-1.1915-0.54611-1.1915-1.1915v-60.171c0-0.6454 0.54611-1.1915 1.1915-1.1915h17.873l3.6738-4.6668h109.27c0.74469 0 1.3404 0.59576 1.3404 1.3404v69.207c0 0.7447-0.59576 1.3404-1.3404 1.3404h-109.27l-3.6738-4.6668z" fill="#181818"/>
<path d="m119.35 149.78v6.0072c0 3.2766-2.6809 5.9576-5.9576 5.9576h-7.1491c-3.2767 0-5.9576-2.6809-5.9576-5.9576v-6.0072c0-3.2767 2.6809-5.9576 5.9576-5.9576h7.1491c3.2767 0 5.9576 2.6809 5.9576 5.9576z" fill="#282627"/>
<path d="m119.35 150.23v5.2129c0 3.2767-2.6809 5.9576-5.9576 5.9576h-5.5107c-3.2767 0-5.9576-2.6809-5.9576-5.9576v-5.2129c0-3.2766 2.6809-5.9576 5.9576-5.9576h5.5107c3.2767 0 5.9576 2.6809 5.9576 5.9576z" fill="#939393"/>
<path d="m119.35 150.18v5.2128c0 3.2767-2.6809 5.9576-5.9576 5.9576h-3.922c-3.2767 0-5.9576-2.6809-5.9576-5.9576v-5.2128c0-3.2767 2.6809-5.9576 5.9576-5.9576h3.922c3.2767 0 5.9576 2.6809 5.9576 5.9576z" fill="#b3b3b3"/>
<path d="m108.43 152.51 0.7447 1.4397-0.84399 0.19859-0.94328-1.7873v-0.94328h8.0923v1.0426h-7.0498z"/>
<path d="m119.35 128.93v6.0072c0 3.2767-2.6809 5.9576-5.9576 5.9576h-7.1491c-3.2767 0-5.9576-2.6809-5.9576-5.9576v-6.0072c0-3.2766 2.6809-5.9576 5.9576-5.9576h7.1491c3.2767 0 5.9576 2.6809 5.9576 5.9576z" fill="#282627"/>
<path d="m119.35 129.38v5.2129c0 3.2766-2.6809 5.9576-5.9576 5.9576h-5.5107c-3.2767 0-5.9576-2.6809-5.9576-5.9576v-5.2129c0-3.2766 2.6809-5.9576 5.9576-5.9576h5.5107c3.2767 0 5.9576 2.6809 5.9576 5.9576z" fill="#939393"/>
<path d="m119.35 129.38v5.2129c0 3.2766-2.6809 5.9576-5.9576 5.9576h-3.922c-3.2767 0-5.9576-2.6809-5.9576-5.9576v-5.2129c0-3.2766 2.6809-5.9576 5.9576-5.9576h3.922c3.2767 0 5.9576 2.6809 5.9576 5.9576z" fill="#b3b3b3"/>
<text transform="rotate(-90)" x="-135.39145" y="113.25799" font-family="MyriadHebrew-Regular" font-size="13.424">1 </text>
<path d="m119.35 129.03v6.0072c0 3.2767-2.6809 5.9576-5.9576 5.9576h-7.1491c-3.2767 0-5.9576-2.6809-5.9576-5.9576v-6.0072c0-3.2767 2.6809-5.9576 5.9576-5.9576h7.1491c3.2767 0 5.9576 2.6809 5.9576 5.9576z" fill="#282627"/>
<path d="m119.35 129.43v5.2128c0 3.2767-2.6809 5.9576-5.9576 5.9576h-5.5107c-3.2767 0-5.9576-2.6809-5.9576-5.9576v-5.2128c0-3.2767 2.6809-5.9576 5.9576-5.9576h5.5107c3.2767 0 5.9576 2.6809 5.9576 5.9576z" fill="#939393"/>
<path d="m119.35 129.33v5.2129c0 3.2767-2.6809 5.9576-5.9576 5.9576h-3.922c-3.2767 0-5.9576-2.6809-5.9576-5.9576v-5.2129c0-3.2766 2.6809-5.9576 5.9576-5.9576h3.922c3.2767 0 5.9576 2.6809 5.9576 5.9576z" fill="#b3b3b3"/>
<path d="m115.53 134.54h-0.69505l-0.84398-0.89363c-1.9858-2.0355-3.0284-2.9788-4.2199-3.0284-0.84398 0-1.5887 0.39717-1.5887 1.5887 0 0.74469 0.39717 1.3404 0.69505 1.7376l-0.79434 0.34752c-0.49646-0.54611-0.84399-1.3404-0.84399-2.2837 0-1.7376 1.1915-2.4823 2.3334-2.4823 1.4894 0 2.6809 1.0922 4.3192 2.7802l0.59576 0.6454v-3.6242h0.89363v5.2129z"/>
<path d="m119.35 108.23v6.0072c0 3.2766-2.6809 5.9576-5.9576 5.9576h-7.1491c-3.2767 0-5.9576-2.6809-5.9576-5.9576v-6.0072c0-3.2767 2.6809-5.9576 5.9576-5.9576h7.1491c3.2767 0 5.9576 2.6809 5.9576 5.9576z" fill="#282627"/>
<path d="m119.35 108.68v5.2129c0 3.2767-2.6809 5.9576-5.9576 5.9576h-5.5107c-3.2767 0-5.9576-2.6809-5.9576-5.9576v-5.2129c0-3.2766 2.6809-5.9576 5.9576-5.9576h5.5107c3.2767 0 5.9576 2.6809 5.9576 5.9576z" fill="#939393"/>
<path d="m119.35 108.53v5.2128c0 3.2767-2.6809 5.9576-5.9576 5.9576h-3.922c-3.2767 0-5.9576-2.6809-5.9576-5.9576v-5.2128c0-3.2767 2.6809-5.9576 5.9576-5.9576h3.922c3.2767 0 5.9576 2.6809 5.9576 5.9576z" fill="#b3b3b3"/>
<path d="m114.24 113.39c0.19858-0.29788 0.49646-1.0426 0.49646-1.7873 0-1.3901-0.89363-1.8369-1.5887-1.8369-1.1419 0-1.6383 1.0426-1.6383 2.0852v0.59575h-0.79434v-0.59575c0-0.79434-0.39717-1.7873-1.3901-1.7873-0.6454 0-1.2412 0.39717-1.2412 1.4397 0 0.6454 0.29788 1.2908 0.54611 1.6383l-0.79434 0.29788c-0.29788-0.44682-0.6454-1.2412-0.6454-2.1348 0-1.5887 0.94328-2.3334 1.9362-2.3334 0.84399 0 1.539 0.49646 1.9362 1.4894 0.19858-0.99293 0.94328-1.7873 2.0851-1.7873 1.2908 0 2.4327 1.0426 2.4327 2.9291 0 0.89364-0.29788 1.688-0.54611 2.0852l-0.79434-0.29788z"/>
<path d="m140.85 149.73v6.0072c0 3.2766-2.6809 5.9576-5.9576 5.9576h-7.1491c-3.2766 0-5.9576-2.6809-5.9576-5.9576v-6.0072c0-3.2766 2.6809-5.9576 5.9576-5.9576h7.1491c3.2766 0 5.9576 2.6809 5.9576 5.9576z" fill="#282627"/>
<path d="m140.85 150.18v5.2128c0 3.2767-2.6809 5.9576-5.9576 5.9576h-5.5107c-3.2766 0-5.9576-2.6809-5.9576-5.9576v-5.2128c0-3.2767 2.6809-5.9576 5.9576-5.9576h5.5107c3.2766 0 5.9576 2.6809 5.9576 5.9576z" fill="#939393"/>
<path d="m140.85 150.28v5.2129c0 3.2766-2.6809 5.9576-5.9576 5.9576h-3.9221c-3.2766 0-5.9576-2.6809-5.9576-5.9576v-5.2129c0-3.2766 2.6809-5.9576 5.9576-5.9576h3.9221c3.2766 0 5.9576 2.6809 5.9576 5.9576z" fill="#b3b3b3"/>
<path d="m136.92 152.12h-2.1844v3.7731h-0.7447l-5.1632-3.6242v-1.1915h5.0143v-1.1419h0.84399v1.1419h2.1844v1.0426zm-3.0284 0h-2.7305c-0.44682 0-0.84399 0-1.2908-0.0496v0.0496c0.49647 0.24823 0.84399 0.44682 1.1915 0.69505l2.7802 1.9858v-2.6809z"/>
<path d="m140.85 128.93v6.0072c0 3.2767-2.6809 5.9576-5.9576 5.9576h-7.1491c-3.2766 0-5.9576-2.6809-5.9576-5.9576v-6.0072c0-3.2766 2.6809-5.9576 5.9576-5.9576h7.1491c3.2766 0 5.9576 2.6809 5.9576 5.9576z" fill="#282627"/>
<path d="m140.85 129.38v5.2129c0 3.2766-2.6809 5.9576-5.9576 5.9576h-5.5107c-3.2766 0-5.9576-2.6809-5.9576-5.9576v-5.2129c0-3.2766 2.6809-5.9576 5.9576-5.9576h5.5107c3.2766 0 5.9576 2.6809 5.9576 5.9576z" fill="#939393"/>
<path d="m140.85 129.33v5.2129c0 3.2767-2.6809 5.9576-5.9576 5.9576h-3.9221c-3.2766 0-5.9576-2.6809-5.9576-5.9576v-5.2129c0-3.2766 2.6809-5.9576 5.9576-5.9576h3.9221c3.2766 0 5.9576 2.6809 5.9576 5.9576z" fill="#b3b3b3"/>
<path d="M129.7257 129.57676v3.07807l2.08515.29788c0-.19858-.0496-.34752-.0496-.6454 0-.6454.14894-1.24116.44682-1.73762.34752-.6454 1.09222-1.14186 2.08514-1.14186 1.58868 0 2.78019 1.24115 2.78019 3.02842 0 .89363-.24823 1.63832-.49646 2.0355l-.84399-.29788c.19859-.34753.44682-.99293.44682-1.73762 0-1.04257-.69505-1.88656-1.73762-1.88656s-1.78727.69505-1.78727 2.33337c0 .44682.0496.84399.0993 1.14187l-3.87241-.54611v-3.92206h.84398z"/>
<path d="m140.85 108.18v6.0072c0 3.2766-2.6809 5.9576-5.9576 5.9576h-7.1491c-3.2766 0-5.9576-2.6809-5.9576-5.9576v-6.0072c0-3.2766 2.6809-5.9576 5.9576-5.9576h7.1491c3.2766 0 5.9576 2.6809 5.9576 5.9576z" fill="#282627"/>
<path d="m140.85 108.63v5.2129c0 3.2766-2.6809 5.9576-5.9576 5.9576h-5.5107c-3.2766 0-5.9576-2.6809-5.9576-5.9576v-5.2129c0-3.2767 2.6809-5.9576 5.9576-5.9576h5.5107c3.2766 0 5.9576 2.6809 5.9576 5.9576z" fill="#939393"/>
<path d="m140.85 108.53v5.2128c0 3.2767-2.6809 5.9576-5.9576 5.9576h-3.9221c-3.2766 0-5.9576-2.6809-5.9576-5.9576v-5.2128c0-3.2767 2.6809-5.9576 5.9576-5.9576h3.9221c3.2766 0 5.9576 2.6809 5.9576 5.9576z" fill="#b3b3b3"/>
<path d="m129.63 109.17c0 0.24823 0 0.49646 0.0497 0.84398 0.29788 1.7376 1.539 2.6313 2.8795 2.8298v-0.0496c-0.54611-0.39717-0.94328-1.0922-0.94328-1.9858 0-1.4397 1.0426-2.4327 2.6312-2.4327 1.4894 0 2.8298 0.99292 2.8298 2.6809 0 1.7376-1.3404 2.8298-3.4256 2.8298-1.5887 0-2.8298-0.54611-3.6242-1.3901-0.6454-0.69505-1.0922-1.5887-1.1915-2.5816-0.0496-0.34752-0.0993-0.59575-0.0496-0.79434h0.84398zm4.6668 0.34752c-1.1419 0-1.8369 0.6454-1.8369 1.688 0 0.64541 0.39717 1.2908 0.99292 1.5887 0.14894 0.0496 0.29788 0.0993 0.49647 0.0993 1.3404 0 2.3334-0.6454 2.3334-1.7873-0.0496-0.99292-0.84398-1.5887-1.9858-1.5887z"/>
<path d="m162.29 149.73v6.0072c0 3.2766-2.6809 5.9576-5.9576 5.9576h-7.1491c-3.2766 0-5.9576-2.6809-5.9576-5.9576v-6.0072c0-3.2766 2.6809-5.9576 5.9576-5.9576h7.1491c3.2766 0 5.9576 2.6809 5.9576 5.9576z" fill="#282627"/>
<path d="m162.29 150.18v5.2128c0 3.2767-2.6809 5.9576-5.9576 5.9576h-5.5107c-3.2766 0-5.9576-2.6809-5.9576-5.9576v-5.2128c0-3.2767 2.6809-5.9576 5.9576-5.9576h5.5107c3.2766 0 5.9576 2.6809 5.9576 5.9576z" fill="#939393"/>
<path d="m162.29 150.18v5.2128c0 3.2767-2.6809 5.9576-5.9576 5.9576h-3.9221c-3.2766 0-5.9576-2.6809-5.9576-5.9576v-5.2128c0-3.2767 2.6809-5.9576 5.9576-5.9576h3.9221c3.2766 0 5.9576 2.6809 5.9576 5.9576z" fill="#b3b3b3"/>
<path d="m150.33 150.23h0.74469l7.3476 3.5249v1.1419l-7.1491-3.5249v3.9717h-0.89364v-5.1136z"/>
<path d="m162.29 128.93v6.0072c0 3.2767-2.6809 5.9576-5.9576 5.9576h-7.1491c-3.2766 0-5.9576-2.6809-5.9576-5.9576v-6.0072c0-3.2766 2.6809-5.9576 5.9576-5.9576h7.1491c3.2766 0 5.9576 2.6809 5.9576 5.9576z" fill="#282627"/>
<path d="m162.29 129.38v5.2129c0 3.2766-2.6809 5.9576-5.9576 5.9576h-5.5107c-3.2766 0-5.9576-2.6809-5.9576-5.9576v-5.2129c0-3.2766 2.6809-5.9576 5.9576-5.9576h5.5107c3.2766 0 5.9576 2.6809 5.9576 5.9576z" fill="#939393"/>
<path d="m162.29 129.38v5.2129c0 3.2766-2.6809 5.9576-5.9576 5.9576h-3.9221c-3.2766 0-5.9576-2.6809-5.9576-5.9576v-5.2129c0-3.2766 2.6809-5.9576 5.9576-5.9576h3.9221c3.2766 0 5.9576 2.6809 5.9576 5.9576z" fill="#b3b3b3"/>
<path d="m156.34 134.74c-0.99293 0-1.7376-0.59576-2.1844-1.5887h-0.0496c-0.39717 0.89363-1.0922 1.2908-1.7873 1.2908-1.2908 0-2.1348-1.0922-2.1348-2.532 0-1.5887 0.99292-2.3334 1.9858-2.3334 0.69505 0 1.4397 0.34753 1.8866 1.3404h0.0496c0.39717-0.99292 1.1419-1.6383 2.0852-1.6383 1.4397 0 2.3334 1.1915 2.3334 2.7802 0 1.6383-0.99292 2.6809-2.1844 2.6809zm-0.0496-4.3689c-0.99293 0-1.4397 0.69505-1.7376 1.7873 0.24823 0.94328 0.89363 1.4397 1.688 1.4397 0.79434 0.0496 1.539-0.59575 1.539-1.6383-0.0496-0.94328-0.6454-1.5887-1.4894-1.5887zm-4.0214 3.0284c0.79434 0 1.2412-0.59576 1.4894-1.539-0.24823-0.69504-0.74469-1.2412-1.4894-1.2412-0.6454 0-1.3404 0.39717-1.3404 1.3901 0.0497 0.89363 0.6454 1.3901 1.3404 1.3901z"/>
<path d="m162.29 108.18v6.0072c0 3.2766-2.6809 5.9576-5.9576 5.9576h-7.1491c-3.2766 0-5.9576-2.6809-5.9576-5.9576v-6.0072c0-3.2766 2.6809-5.9576 5.9576-5.9576h7.1491c3.2766 0 5.9576 2.6809 5.9576 5.9576z" fill="#282627"/>
<path d="m162.29 108.63v5.2129c0 3.2766-2.6809 5.9576-5.9576 5.9576h-5.5107c-3.2766 0-5.9576-2.6809-5.9576-5.9576v-5.2129c0-3.2767 2.6809-5.9576 5.9576-5.9576h5.5107c3.2766 0 5.9576 2.6809 5.9576 5.9576z" fill="#939393"/>
<path d="m162.29 108.68v5.2129c0 3.2767-2.6809 5.9576-5.9576 5.9576h-3.9221c-3.2766 0-5.9576-2.6809-5.9576-5.9576v-5.2129c0-3.2766 2.6809-5.9576 5.9576-5.9576h3.9221c3.2766 0 5.9576 2.6809 5.9576 5.9576z" fill="#b3b3b3"/>
<path d="M157.62691 113.34243c.0496-.24823 0-.49646-.0497-.89363-.0993-.6454-.34752-1.24116-.79434-1.68797-.49646-.54611-1.19151-.94328-2.13479-1.09222v.0497c.54611.44681.89363 1.09221.89363 1.9362 0 1.43974-1.09221 2.38302-2.48231 2.38302-1.53903 0-2.87948-1.09222-2.87948-2.78019 0-1.63833 1.34045-2.6809 3.42559-2.6809 1.78727 0 3.02842.59576 3.77312 1.3901.59575.6454.99292 1.48939 1.09221 2.33337.0497.39717.0993.7447.0497.99293h-.89363zm-4.6171-.39717c.99292 0 1.73761-.59575 1.73761-1.58868 0-.74469-.39717-1.2908-.84398-1.58868-.0993-.0496-.19859-.0993-.39717-.0993-1.3901 0-2.43267.54611-2.43267 1.68797-.0496.89364.74469 1.58868 1.93621 1.58868z"/>
<path d="m185.23 149.73v6.0072c0 3.2766-2.6809 5.9576-5.9576 5.9576h-7.1491c-3.2766 0-5.9576-2.6809-5.9576-5.9576v-6.0072c0-3.2766 2.6809-5.9576 5.9576-5.9576h7.1491c3.2767 0 5.9576 2.6809 5.9576 5.9576z" fill="#282627"/>
<path d="m185.23 150.18v5.2128c0 3.2767-2.6809 5.9576-5.9576 5.9576h-5.5107c-3.2767 0-5.9576-2.6809-5.9576-5.9576v-5.2128c0-3.2767 2.6809-5.9576 5.9576-5.9576h5.5107c3.2767 0 5.9576 2.6809 5.9576 5.9576z" fill="#2f3133"/>
<path d="m185.23 150.18v5.2128c0 3.2767-2.6809 5.9576-5.9576 5.9576h-3.922c-3.2767 0-5.9576-2.6809-5.9576-5.9576v-5.2128c0-3.2767 2.6809-5.9576 5.9576-5.9576h3.922c3.2767 0 5.9576 2.6809 5.9576 5.9576z" fill="#36393b"/>
<path d="m173.76 152.12 2.9788 0.39717 0.0496-0.0496-1.7873-2.3334 1.1419-0.6454 1.1419 2.6809h0.0496l1.0922-2.7802 1.1915 0.69504-1.7376 2.383v0.0496l2.9788-0.29788-0.0496 1.2908-2.9291-0.39717h-0.0496l1.7376 2.2837-1.1419 0.64541-1.0922-2.6313h-0.0496l-1.1419 2.7306-1.1915-0.69505 1.688-2.383v-0.0496l-2.9291 0.29788 0.0497-1.1915z" fill="#f4f4f4"/>
<path d="m185.23 128.93v6.0072c0 3.2767-2.6809 5.9576-5.9576 5.9576h-7.1491c-3.2766 0-5.9576-2.6809-5.9576-5.9576v-6.0072c0-3.2766 2.6809-5.9576 5.9576-5.9576h7.1491c3.2767 0 5.9576 2.6809 5.9576 5.9576z" fill="#282627"/>
<path d="m185.23 129.38v5.2129c0 3.2766-2.6809 5.9576-5.9576 5.9576h-5.5107c-3.2767 0-5.9576-2.6809-5.9576-5.9576v-5.2129c0-3.2766 2.6809-5.9576 5.9576-5.9576h5.5107c3.2767 0 5.9576 2.6809 5.9576 5.9576z" fill="#939393"/>
<path d="m185.23 129.33v5.2129c0 3.2767-2.6809 5.9576-5.9576 5.9576h-3.922c-3.2767 0-5.9576-2.6809-5.9576-5.9576v-5.2129c0-3.2766 2.6809-5.9576 5.9576-5.9576h3.922c3.2767 0 5.9576 2.6809 5.9576 5.9576z" fill="#b3b3b3"/>
<path d="m177.24 129.23c2.7305 0 4.2696 1.0426 4.2696 2.8298 0 1.5887-1.4894 2.6312-4.1703 2.6809-2.7306 0-4.2199-1.1915-4.2199-2.8298 0-1.7376 1.539-2.6809 4.1206-2.6809zm0.0993 4.3689c2.0851 0 3.2766-0.6454 3.2766-1.6383 0-1.1419-1.2908-1.6383-3.3759-1.6383-1.9859 0-3.2767 0.49646-3.2767 1.6383 0.0496 0.94327 1.1915 1.6383 3.376 1.6383z"/>
<path d="m185.23 108.43v6.0072c0 3.2767-2.6809 5.9576-5.9576 5.9576h-7.1491c-3.2766 0-5.9576-2.6809-5.9576-5.9576v-6.0072c0-3.2766 2.6809-5.9576 5.9576-5.9576h7.1491c3.2767 0 5.9576 2.6809 5.9576 5.9576z" fill="#282627"/>
<path d="m185.23 108.87v5.2129c0 3.2766-2.6809 5.9576-5.9576 5.9576h-5.5107c-3.2767 0-5.9576-2.6809-5.9576-5.9576v-5.2129c0-3.2766 2.6809-5.9576 5.9576-5.9576h5.5107c3.2767 0 5.9576 2.6809 5.9576 5.9576z" fill="#2f3133"/>
<path d="m185.23 108.87v5.2129c0 3.2766-2.6809 5.9576-5.9576 5.9576h-3.922c-3.2767 0-5.9576-2.6809-5.9576-5.9576v-5.2129c0-3.2766 2.6809-5.9576 5.9576-5.9576h3.922c3.2767 0 5.9576 2.6809 5.9576 5.9576z" fill="#36393b"/>
<path d="m181.36 113.39-2.4327-0.34752v1.0426h-0.7447v-1.1419l-1.7873-0.24823v1.0922h-0.7447v-1.1915l-2.383-0.34752v-0.7447l2.383 0.29788v-1.2908l-2.383-0.34753v-0.74469l2.383 0.29788v-0.99293h0.7447v1.1419l1.7873 0.24823v-1.0922h0.7447v1.1915l2.4327 0.34752v0.7447l-2.4327-0.34753v1.2908l2.4327 0.34752v0.79434zm-3.1774-2.4327-1.7873-0.24823v1.2908l1.7873 0.24824v-1.2908z" fill="#f4f4f4"/>
<path d="m76.505 165.37h0.69505v0.39717h-0.69505zm0-67.221h0.69505v0.39717h-0.69505z" fill="#282828"/>
<path d="m70.001 118.06v27.802c0 2.0355-1.688 3.7235-3.7235 3.7235s-3.7235-1.688-3.7235-3.7235v-27.802c0-2.0355 1.688-3.7235 3.7235-3.7235s3.7235 1.6383 3.7235 3.7235z" fill="#1c1c1c"/>
<path d="m68.611 136.48h-4.7164v-1.4894h3.3263v-2.8298h1.3901" fill="#232323"/>
<path d="m67.37 135.09v-2.8298h1.0922v4.071h-4.4185v-1.2412" fill="#0e0e0e"/>
<path d="m68.611 132.01h-4.7164v-4.6668h1.2908v3.1774h0.49646v-2.9788h1.1419v2.9788h0.54611v-3.1774h1.2412" fill="#232323"/>
<path d="m64.044 131.86v-4.4185h0.99292v3.1774h0.79434v-2.9291h0.84399v2.9291h0.79434v-3.1774h0.99293v4.4185" fill="#0e0e0e"/>
<path d="m68.512 141c0 0.74469-0.6454 1.3901-1.4894 1.3901h-1.688c-0.79434 0-1.4894-0.59575-1.4894-1.3901v-3.0284c0-0.74469 0.6454-1.3901 1.4894-1.3901h1.688c0.79434 0 1.4894 0.59575 1.4894 1.3901v3.0284zm-3.3759-0.59576c0 0.34753 0.29788 0.59576 0.6454 0.59576h0.84399c0.34752 0 0.6454-0.24823 0.6454-0.59576v-1.8369c0-0.34752-0.29788-0.59576-0.6454-0.59576h-0.84399c-0.34752 0-0.6454 0.24824-0.6454 0.59576v1.8369z" fill="#232323"/>
<path d="m64.044 137.92v3.0284c0 0.69505 0.59576 1.2412 1.3404 1.2412h1.688c0.74469 0 1.3404-0.54611 1.3404-1.2412v-3.0284c0-0.69505-0.59576-1.2412-1.3404-1.2412h-1.688c-0.74469 0-1.3404 0.59576-1.3404 1.2412zm2.5816-0.0993c0.44682 0 0.74469 0.29787 0.74469 0.69504v1.8369c0 0.39717-0.34752 0.69504-0.74469 0.69504h-0.84399c-0.44682 0-0.74469-0.29787-0.74469-0.69504v-1.8369c0-0.39717 0.34752-0.69504 0.74469-0.69504h0.84399z" fill="#0e0e0e"/>
<path d="m68.512 146.61c0 0.74469-0.6454 1.2908-1.4894 1.2908h-1.688c-0.79434 0-1.4894-0.59576-1.4894-1.2908v-2.8795c0-0.74469 0.6454-1.2908 1.4894-1.2908h0.34752v1.3404h-0.09929c-0.29788 0.0496-0.49646 0.29788-0.49646 0.54611v1.7376c0 0.29787 0.29788 0.54611 0.6454 0.54611h0.84399c0.34752 0 0.6454-0.24824 0.6454-0.54611v-1.7376c0-0.24823-0.19858-0.49647-0.49646-0.54611h-0.09929v-1.3404h0.34752c0.79434 0 1.4894 0.59575 1.4894 1.2908v2.8795z" fill="#232323"/>
<path d="m66.824 143.63c0.34752 0.0496 0.59576 0.34752 0.59576 0.6454v1.7376c0 0.39717-0.34752 0.69505-0.74469 0.69505h-0.84399c-0.44682 0-0.74469-0.29788-0.74469-0.69505v-1.7376c0-0.29788 0.24823-0.59575 0.59576-0.6454v-1.0922h-0.24823c-0.74469 0-1.3404 0.54611-1.3404 1.1915v2.8795c0 0.6454 0.59576 1.1915 1.3404 1.1915h1.688c0.7447 0 1.3404-0.54611 1.3404-1.1915v-2.8795c0-0.6454-0.59576-1.1915-1.3404-1.1915h-0.24823v1.0922z" fill="#0e0e0e"/>
<path d="m68.512 120.39c0 0.7447-0.6454 1.3901-1.4894 1.3901h-1.688c-0.79434 0-1.4894-0.59576-1.4894-1.3901v-3.0284c0-0.74469 0.6454-1.3901 1.4894-1.3901h1.688c0.79434 0 1.4894 0.59575 1.4894 1.3901v3.0284zm-3.3759-0.59575c0 0.34752 0.29788 0.59575 0.6454 0.59575h0.84399c0.34752 0 0.6454-0.24823 0.6454-0.59575v-1.8369c0-0.34753-0.29788-0.59576-0.6454-0.59576h-0.84399c-0.34752 0-0.6454 0.24823-0.6454 0.59576v1.8369z" fill="#232323"/>
<path d="m64.044 117.36v3.0284c0 0.69505 0.59576 1.2412 1.3404 1.2412h1.688c0.74469 0 1.3404-0.54611 1.3404-1.2412v-3.0284c0-0.69505-0.59576-1.2412-1.3404-1.2412h-1.688c-0.74469 0-1.3404 0.5461-1.3404 1.2412zm2.5816-0.14894c0.44682 0 0.74469 0.29788 0.74469 0.69505v1.8369c0 0.39717-0.34752 0.69505-0.74469 0.69505h-0.84399c-0.44682 0-0.74469-0.29788-0.74469-0.69505v-1.8369c0-0.39717 0.34752-0.69505 0.74469-0.69505h0.84399z" fill="#0e0e0e"/>
<path d="m68.512 126c0 0.7447-0.6454 1.2908-1.4894 1.2908h-1.688c-0.79434 0-1.4894-0.59576-1.4894-1.2908v-2.8795c0-0.74469 0.6454-1.2908 1.4894-1.2908h0.34752v1.3404h-0.09929c-0.29788 0.0496-0.49646 0.29787-0.49646 0.5461v1.7376c0 0.29788 0.29788 0.54611 0.6454 0.54611h0.84399c0.34752 0 0.6454-0.24823 0.6454-0.54611v-1.7376c0-0.24823-0.19858-0.49646-0.49646-0.5461h-0.09929v-1.3404h0.34752c0.79434 0 1.4894 0.59575 1.4894 1.2908v2.8795z" fill="#232323"/>
<path d="m66.824 123.02c0.34752 0.0496 0.59576 0.34752 0.59576 0.6454v1.7376c0 0.39717-0.34752 0.69505-0.74469 0.69505h-0.84399c-0.44682 0-0.74469-0.29788-0.74469-0.69505v-1.7376c0-0.29788 0.24823-0.59576 0.59576-0.6454v-1.0922h-0.24823c-0.74469 0-1.3404 0.54611-1.3404 1.1915v2.8795c0 0.6454 0.59576 1.1915 1.3404 1.1915h1.688c0.7447 0 1.3404-0.54611 1.3404-1.1915v-2.8795c0-0.6454-0.59576-1.1915-1.3404-1.1915h-0.24823v1.0922z" fill="#0e0e0e"/>
<path d="m50.341 131.96c0 9.1846-7.4469 16.632-16.632 16.632s-16.632-7.4469-16.632-16.632 7.4469-16.632 16.632-16.632 16.632 7.447 16.632 16.632z" fill="#101010"/>
<path d="m49.845 131.96c0 8.8867-7.2484 16.135-16.135 16.135-8.8867 0-16.135-7.2484-16.135-16.135 0-8.8867 7.2484-16.135 16.135-16.135 8.8867 0 16.135 7.2484 16.135 16.135z" fill="#282829"/>
<circle cx="33.71" cy="131.96" r="13.156" fill="#d8d9d8"/>
<path d="m8.9363 231.8v-46.866c0-0.64541 0.49646-1.1419 1.1419-1.1419h378.06c0.6454 0 1.1419 0.49646 1.1419 1.1419v46.866c0 0.64541-0.49647 1.1419-1.1419 1.1419h-378.06c-0.6454 0.0496-1.1419-0.49646-1.1419-1.1419z" fill="#0f0f0f"/>
<path d="M384.41107 228.67072h-233.5857c-.29788 0-.59576-.24823-.59576-.59576v-39.46878c0-.29788.24824-.59576.59576-.59576h233.5857c.29788 0 .59576.24824.59576.59576v39.46878c0 .34753-.24823.59576-.59576.59576z" fill="#181818"/>
<path d="M359.78652 224.00397v-28.94378c0-.0496.0496-.0993.0993-.0993h19.01453c.0496 0 .0993.0496.0993.0993v28.94378c0 .0496-.0497.0993-.0993.0993h-19.01453c-.0496 0-.0993-.0496-.0993-.0993z" fill="#282627"/>
<path d="M377.65918 222.86211h-16.53221c-.0496 0-.0993-.0496-.0993-.0993v-26.46146c0-.0496.0496-.0993.0993-.0993h16.53221c.0496 0 .0993.0496.0993.0993v26.46146c0 .0497 0 .0993-.0993.0993z" fill="#36393b"/>
<circle cx="369.42" cy="209.51" r="6.7022" fill="#0f0f0f"/>
<path d="M351.79347 228.67072H224.20256c-.14894 0-.24823-.0993-.24823-.24823v-40.16383c0-.14894.0993-.24824.24823-.24824h127.59091c.14894 0 .24823.0993.24823.24824v40.16383c0 .14894-.14894.24823-.24823.24823z" fill="#e3e0dd"/>
<path d="M349.26151 227.08204H226.73452c-.14894 0-.24823-.0993-.24823-.24823v-34.15664c0-.14893.0993-.24823.24823-.24823h122.52699c.14894 0 .24823.0993.24823.24823v34.15664c-.0496.14894-.14894.24823-.24823.24823z" fill="#303433"/>
<path d="M348.07 214.62083H227.92603c-.14894 0-.24823-.0993-.24823-.24824V193.6701c0-.14894.0993-.24823.24823-.24823H348.07c.14894 0 .24823.0993.24823.24823v20.70249c-.0496.14894-.14894.24824-.24823.24824z" fill="#e3e0dd"/>
<path d="M231.45091 221.27343c0-.39717.0993-.7447.24823-1.04258.14894-.24823.39717-.49646.64541-.59575.24823-.14894.59575-.19859.99292-.19859.54611 0 .99293.14894 1.34045.49647.34752.34752.49646.74469.49646 1.34045 0 .59575-.19858 1.04257-.54611 1.39009-.29787.29788-.74469.44682-1.2908.44682s-.99292-.14894-1.34045-.44682c-.34752-.34752-.54611-.79434-.54611-1.39009zm.79434 0c0 .39717.0993.69504.29788.89363.19859.19858.44682.29788.74469.29788.29788 0 .54611-.0993.7447-.29788.19858-.19859.29788-.49646.29788-.94328 0-.39717-.0993-.69505-.29788-.89363-.19859-.19859-.44682-.29788-.7447-.29788-.29787 0-.59575.0993-.79434.29788-.14893.19858-.24823.49646-.24823.94328zm3.57453 1.73762v-3.52489h2.63126v.59576h-1.83692v.84398h1.58869v.59576h-1.58869v1.48939h-.79434zm3.27666 0v-3.52489h2.63125v.59576h-1.83691v.84398h1.58868v.59576h-1.58868v1.48939h-.79434zm88.61859 0v-3.52489h1.63833c.39717 0 .69505.0496.89363.0993.19859.0496.34752.14894.44682.34753.0993.14894.14894.34752.14894.54611 0 .29787-.0993.49646-.24824.6454-.19858.14894-.44681.29787-.74469.29787.14894.0993.29788.19859.39717.29788.0993.0993.24823.29788.44682.59576l.44681.69505h-.94328l-.54611-.7447c-.19858-.29788-.34752-.44682-.39717-.49646-.0496-.0496-.14893-.0993-.24823-.14894-.0993-.0497-.19858-.0497-.39717-.0497h-.14894v1.48939h-.74469zm.74469-2.0355h.59576c.34752 0 .59575 0 .69505-.0497.0993 0 .19858-.0496.24823-.14894.0496-.0496.0993-.14894.0993-.29787 0-.0993-.0496-.19859-.0993-.24824-.0496-.0496-.14894-.0993-.24823-.14893-.0497 0-.29788-.0496-.6454-.0496h-.59576v.94328zm3.12772 2.0355v-3.52489h2.87948v.59576h-2.08514v.79434h1.9362v.59575h-1.9362v.94328h2.13479v.59576h-2.92913zm3.37595-1.14187l.74469-.0496c.0993.44682.34752.69505.84399.69505.24823 0 .39717-.0496.54611-.14894.14893-.0993.19858-.19858.19858-.34752 0-.0993 0-.14894-.0496-.19859-.0496-.0496-.0993-.0993-.19858-.14893-.0993-.0496-.34752-.0993-.69505-.19859-.34752-.0993-.59575-.14894-.74469-.24823-.14894-.0993-.29788-.19859-.34753-.34752-.0993-.14894-.14894-.29788-.14894-.44682 0-.19859.0496-.34752.14894-.49646.0993-.14894.29788-.24824.49647-.34753.19858-.0993.44681-.0993.74469-.0993.44682 0 .79434.0993 1.04257.29788.24823.19858.39717.44681.39717.79434l-.79434.0496c-.0496-.19858-.0993-.29787-.19858-.39717-.0993-.0993-.29788-.0993-.49647-.0993-.19858 0-.34752.0496-.49646.0993-.0993.0496-.14894.14894-.14894.24824s.0496.19858.14894.24823c.0993.0496.34753.14894.69505.19858.39717.0993.69505.19859.84399.24823.19858.0993.29787.19859.39717.34753.0993.14894.14893.34752.14893.54611 0 .29787-.14893.5461-.39717.79434-.24823.19858-.6454.29787-1.19151.29787-.84398-.0993-1.39009-.49646-1.48938-1.2908zm3.77311 1.14187v-3.52489h2.87949v.59576h-2.08515v.79434h1.93621v.59575h-1.93621v.94328h2.13479v.59576h-2.92913zm4.46817 0v-2.92913h-1.14187v-.59576h3.07807v.59576h-1.14186v2.92913h-.79434z" fill="#fb574b"/>
<path d="M231.45091 203.79794c0-.39717.0993-.7447.24823-1.04257.14894-.24823.39717-.49647.64541-.59576.24823-.14894.59575-.19858.99292-.19858.54611 0 .99293.14894 1.34045.49646.34752.34752.49646.74469.49646 1.34045 0 .59575-.19858 1.04257-.54611 1.39009-.29787.29788-.74469.44682-1.2908.44682s-.99292-.14894-1.34045-.44682c-.34752-.39717-.54611-.84398-.54611-1.39009zm.79434-.0496c0 .39717.0993.69505.29788.89364.19859.19858.44682.29787.74469.29787.29788 0 .54611-.0993.7447-.29787.19858-.19859.29788-.49647.29788-.94328 0-.39717-.0993-.69505-.29788-.89364-.19859-.19858-.44682-.29787-.7447-.29787-.29787 0-.59575.0993-.79434.29787-.14893.24823-.24823.54611-.24823.94328zm3.57453 1.78727v-3.52489h.7447l1.58868 2.33338v-2.33338h.74469v3.52489h-.79434l-1.53903-2.28373v2.28373h-.7447zm35.09992-6.95048v-3.07807h.6454v3.07807h-.6454zm1.24115 0v-3.07807h.59576l1.2908 2.0355v-2.0355h.59576v3.07807h-.59576l-1.24115-1.98585v1.98585h-.64541zm3.02843-.99293l.59575-.0496c.0496.39717.29788.59575.69505.59575.19858 0 .34752-.0496.44682-.0993.0993-.0993.14893-.19858.14893-.29788 0-.0496 0-.14894-.0496-.19858-.0496-.0497-.0993-.0993-.19859-.0993-.0993-.0497-.24823-.0993-.54611-.14894-.24823-.0496-.44681-.14894-.59575-.19859-.14894-.0993-.24823-.19858-.29788-.29788-.0993-.14893-.0993-.24823-.0993-.39717 0-.14893.0496-.29787.14894-.44681.0993-.14894.24823-.24823.39717-.29788.14894-.0496.39717-.0993.59575-.0993.34753 0 .6454.0993.84399.24823.19858.14894.29788.39717.34752.69505l-.6454.0496c-.0496-.14894-.0993-.29787-.19858-.34752-.0993-.0496-.24823-.0993-.39717-.0993-.14894 0-.29788.0496-.39717.0993-.0993.0496-.14894.14894-.14894.19858 0 .0993.0496.14894.14894.19859.0993.0496.29787.0993.59575.19858.29788.0496.54611.14894.69505.24824.14894.0993.24823.19858.34752.29787.0993.14894.0993.29788.0993.44682 0 .24823-.0993.49646-.29788.69505-.19859.19858-.54611.24823-.94328.24823-.79434-.0993-1.24116-.44682-1.2908-1.14187zm3.07807.99293v-3.07807h2.33337v.49646h-1.68797v.69505h1.58868v.49646h-1.58868v.84399h1.73762v.49646h-2.38302zm2.92913 0v-3.07807h1.34044c.34753 0 .59576.0496.7447.0993.14894.0496.24823.14894.34752.29788.0993.14894.14894.29788.14894.49646 0 .24824-.0496.44682-.19858.59576-.14894.14894-.34753.24823-.59576.29788.14894.0993.24823.14894.34752.24823.0993.0993.19859.24823.34753.49646l.39717.59576h-.7447l-.44681-.64541c-.14894-.24823-.29788-.39717-.34753-.44681-.0496-.0497-.0993-.0993-.19858-.14894-.0497 0-.14894-.0496-.29788-.0496h-.14894v1.29081h-.69504zm.6454-1.78727h.49646c.29788 0 .44682 0 .54611-.0496.0993 0 .14894-.0496.19858-.0993.0496-.0496.0496-.14894.0496-.24824s-.0496-.19858-.0496-.24823c-.0496-.0496-.0993-.0993-.19858-.0993h-.99293v.74469zm3.227 1.78727v-2.53196h-.94327v-.49646h2.48231v.49646h-.94328v2.53196h-.59576zm5.21286-1.14186l.59576.19858c-.0993.34752-.24823.59576-.49646.7447-.24824.14893-.49647.24823-.84399.24823-.39717 0-.7447-.14894-.99293-.39717-.29787-.29788-.44681-.69505-.44681-1.19151 0-.54611.14894-.94328.44681-1.24116.24823-.24823.59576-.39717 1.04257-.39717.34753 0 .64541.0993.89364.29788.14894.14894.29788.34752.34752.59575l-.6454.14894c-.0497-.14894-.0993-.29788-.24823-.39717-.0993-.0993-.24823-.14894-.44682-.14894-.24823 0-.39717.0993-.54611.24823-.14894.14894-.19858.44682-.19858.79434 0 .39717.0496.6454.19858.84399.14894.14894.34753.24823.54611.24823.14894 0 .29788-.0496.44682-.14894.19858-.0496.29788-.19858.34752-.44681zm3.9717 1.14186h-.69504l-.29788-.69505h-1.24116l-.24823.69505h-.69505l1.24116-3.07807h.69505l1.24115 3.07807zm-1.14186-1.19151l-.44682-1.14186-.44681 1.14186h.89363zm1.48939 1.19151v-3.07807h1.34045c.34752 0 .59575.0496.74469.0993.14894.0496.24823.14894.34753.29788s.14893.29788.14893.49646c0 .24824-.0496.44682-.19858.59576-.14894.14894-.34752.24823-.59576.29788.14894.0993.24824.14894.34753.24823.0993.0993.19858.24823.34752.49646l.39717.59576h-.74469l-.44682-.64541c-.14894-.24823-.29788-.39717-.34752-.44681-.0496-.0497-.0993-.0993-.19859-.14894-.0496 0-.14894-.0496-.29788-.0496h-.14893v1.29081h-.69505zm.6454-1.78727h.49646c.29788 0 .44682 0 .54611-.0496.0993 0 .14894-.0496.19859-.0993.0496-.0496.0496-.14894.0496-.24824s-.0496-.19858-.0496-.24823c-.0496-.0496-.0993-.0993-.19859-.0993h-.99292v.74469zm3.22701 1.78727v-2.53196h-.94328v-.49646h2.48231v.49646h-.94328v2.53196h-.59575zm1.98585 0v-3.07807h1.34045c.34752 0 .59575.0496.74469.0993.14894.0496.24823.14894.34753.29788s.14893.29788.14893.49646c0 .24824-.0496.44682-.19858.59576-.14894.14894-.34752.24823-.59576.29788.14894.0993.24824.14894.34753.24823.0993.0993.19858.24823.34752.49646l.39717.59576h-.74469l-.44682-.64541c-.14894-.24823-.29788-.39717-.34752-.44681-.0497-.0497-.0993-.0993-.19859-.14894-.0496 0-.14894-.0496-.29788-.0496h-.14893v1.29081h-.69505zm.6454-1.78727h.49646c.29788 0 .44682 0 .54611-.0496.0993 0 .14894-.0496.19859-.0993.0496-.0496.0496-.14894.0496-.24824s-.0496-.19858-.0496-.24823c-.0497-.0496-.0993-.0993-.19859-.0993h-.99292v.74469zm2.53196 1.78727v-3.07807h.6454v3.07807h-.6454zm1.19151-3.07807h1.14186c.29788 0 .49647.0496.64541.0993.14893.0496.29787.14894.39717.24824s.24823.29787.29787.49646c.0496.19858.0993.44681.0993.74469 0 .24823-.0497.49646-.0993.69505-.0993.19858-.14894.34752-.29787.44682-.0993.0993-.24824.19858-.39717.24823-.14894.0496-.34753.0993-.64541.0993h-1.14186v-3.07807zm.6454.54611v2.0355h.49646c.19859 0 .34753 0 .44682-.0497.0993-.0496.14894-.0993.24823-.14894.0496-.0496.0993-.14894.14894-.29788.0497-.14893.0497-.29787.0497-.5461 0-.24824 0-.39717-.0497-.54611-.0496-.14894-.0993-.24823-.19858-.29788-.0993-.0993-.19859-.14894-.29788-.14894-.0993 0-.24823-.0496-.49646-.0496h-.34753zm4.02135 1.3901v-.49647h1.39009v1.24116c-.14893.14894-.34752.24823-.59575.34752-.24823.0993-.49646.14894-.74469.14894-.29788 0-.59576-.0496-.84399-.19858-.24823-.0993-.44682-.29788-.54611-.54611-.14894-.24823-.19859-.54611-.19859-.84399 0-.34752.0497-.6454.19859-.84398.14894-.24824.34752-.39717.54611-.54611.24823-.0993.49646-.19859.79434-.19859.39717 0 .69505.0993.89363.24823.24823.14894.34753.39717.44682.69505l-.6454.0993c-.0497-.14894-.14894-.29787-.24823-.34752-.14894-.0993-.29788-.14894-.44682-.14894-.24823 0-.49646.0993-.6454.24823-.14894.14894-.24823.44682-.24823.7447 0 .34752.0993.6454.24823.84398.14894.14894.34752.24823.6454.24823.0993 0 .24823 0 .39717-.0496.14894-.0497.24823-.0993.34752-.19859v-.39717h-.74469zm1.9362 1.14186v-3.07807h2.33338v.49646h-1.68797v.69505h1.58868v.49646h-1.58868v.84399h1.73761v.49646h-2.38302zm4.17029 0v-3.07807h.6454v1.19151h1.24116v-1.19151h.6454v3.07807h-.6454v-1.34045h-1.24116v1.34045h-.6454zm3.17736 0v-3.07807h2.33338v.49646h-1.68798v.69505h1.58868v.49646h-1.58868v.84399h1.73762v.49646h-2.38302zm2.92913 0v-3.07807h1.34045c.34752 0 .59576.0496.7447.0993.14893.0496.24823.14894.34752.29788.0993.14894.14894.29788.14894.49646 0 .24824-.0496.44682-.19859.59576-.14894.14894-.34752.24823-.59575.29788.14894.0993.24823.14894.34752.24823.0993.0993.19859.24823.34753.49646l.39717.59576h-.7447l-.44682-.64541c-.14893-.24823-.29787-.39717-.34752-.44681-.0496-.0497-.0993-.0993-.19858-.14894-.0496 0-.14894-.0496-.29788-.0496h-.14894v1.29081h-.69505zm.6454-1.78727h.49647c.29787 0 .44681 0 .5461-.0496.0993 0 .14894-.0496.19859-.0993.0497-.0496.0497-.14894.0497-.24824s-.0497-.19858-.0497-.24823c-.0496-.0496-.0993-.0993-.19859-.0993h-.99292v.74469zm2.53196 1.78727v-3.07807h2.33338v.49646h-1.68798v.69505h1.58869v.49646h-1.58869v.84399h1.73762v.49646h-2.38302z" fill="#303433"/>
<path d="m15.341 188.06h3.9221v40.66h-3.9221zm6.603 0h3.9221v40.66h-3.9221zm6.5533 0h3.9221v40.66h-3.9221zm6.603 0h3.9221v40.66h-3.9221zm6.603 0h3.9221v40.66h-3.9221zm6.603 0h3.9221v40.66h-3.9221zm6.603 0h3.9221v40.66h-3.9221zm6.603 0h3.9221v40.66h-3.9221zm6.5533 0h3.9221v40.66h-3.9221zm6.603 0h3.9221v40.66h-3.9221zm6.603 0h3.9221v40.66h-3.9221zm6.603 0h3.9221v40.66h-3.9221zm6.603 0h3.9221v40.66h-3.9221zm6.603 0h3.922v40.66h-3.922zm6.603 0h3.9221v40.66h-3.9221zm6.5533 0h3.922v40.66h-3.922zm6.603 0h3.9221v40.66h-3.9221zm6.603 0h3.922v40.66h-3.922zm6.603 0h3.9221v40.66h-3.9221zm6.603 0h3.9221v40.66h-3.9221z" fill="#181818"/>
<path d="M196.25171 224.00397v-28.94378c0-.0496.0496-.0993.0993-.0993h19.01452c.0496 0 .0993.0496.0993.0993v28.94378c0 .0496-.0496.0993-.0993.0993h-19.01452c-.0496 0-.0993-.0496-.0993-.0993z" fill="#282627"/>
<path d="M214.12436 222.86211h-16.5322c-.0497 0-.0993-.0496-.0993-.0993v-26.46146c0-.0496.0496-.0993.0993-.0993h16.5322c.0497 0 .0993.0496.0993.0993v26.46146c0 .0497-.0496.0993-.0993.0993z" fill="#36393b"/>
<path d="m197.49 197.64h16.731v20.007h-16.731z" fill="#2a2c2c"/>
<path d="M213.23073 210.54983h-14.74494c-.24823 0-.49646-.19858-.49646-.49646v-3.9717c0-.24823.19858-.49647.49646-.49647h14.74494c.24823 0 .49646.19859.49646.49647v3.9717c0 .29788-.19858.49646-.49646.49646z" fill="#0f0f0f"/>
<path d="m205.88 201.56 3.5745 3.6242h-7.1987m3.6242 9.4328 3.5745-3.6242h-7.1987" fill="#22211e"/>
<path d="m353.68 154.4h-112.7v21.894h-34.752c-0.89364 0-1.6383-0.74469-1.6383-1.6383v-161.85c0-0.89364 0.74469-1.6383 1.6383-1.6383h91.349-0.49646 91.349c0.89363 0 1.6383 0.74469 1.6383 1.6383v161.85c0 0.89363-0.7447 1.6383-1.6383 1.6383h-34.752v-21.894z" fill="#0f0f0f"/>
<path d="m235.82 172.02v-21.944h123.37v21.944h27.802v-127.19h-178.97v127.19m14.1-156.53h4.8157v25.121h-4.8157zm6.9505 0h4.8157v25.121h-4.8157zm6.9505 0h4.8157v25.121h-4.8157zm6.9505 0h4.8157v25.121h-4.8157zm6.9505 0h4.8157v25.121h-4.8157zm6.9505 0h4.8157v25.121h-4.8157zm6.9505 0h4.8157v25.121h-4.8157zm6.9505 0h4.8157v25.121h-4.8157zm6.9505 0h4.8157v25.121h-4.8157zm6.9505 0h4.8157v25.121h-4.8157zm6.9505 0h4.8157v25.121h-4.8157zm6.9505 0h4.8157v25.121h-4.8157zm6.9505 0h4.8157v25.121h-4.8157zm6.9505 0h4.8157v25.121h-4.8157zm6.9505 0h4.8157v25.121h-4.8157zm6.9505 0h4.8157v25.121h-4.8157zm6.9505 0h4.8157v25.121h-4.8157zm6.9505 0h4.8157v25.121h-4.8157zm6.9505 0h4.8157v25.121h-4.8157zm6.9505 0h4.8157v25.121h-4.8157zm6.9505 0h4.8157v25.121h-4.8157zm6.9505 0h4.8157v25.121h-4.8157zm6.9505 0h4.8157v25.121h-4.8157zm-159.86 0h4.8157v25.121h-4.8157zm-2.1348 0h-4.2199c-0.44681 0-0.79434 0.29787-0.79434 0.6454v24.476h5.0143v-25.121zm168.95 0h4.2199c0.44681 0 0.79434 0.29787 0.79434 0.6454v24.476h-5.0143v-25.121z" fill="#181818"/>
<path d="m297.88 164.53h-0.34752 43.838c2.2341 0 1.8866-0.39717 1.8866 2.4823v8.7874l-4.071 11.27h-83.207l-4.071-11.27v-8.7874c0-2.8795-0.39717-2.4823 1.8866-2.4823h43.838-0.34752" fill="#e3e0dd"/>
<path d="m259.65 182.15c-3.0284 0-3.7235-2.0355-4.915-5.3618l-0.19858-0.69505v-5.9079c0-0.94328 0.24823-1.539 0.74469-1.9858 0.6454-0.59575 1.4894-0.6454 2.1844-0.6454h78.54c0.69505 0 1.539 0.0496 2.1844 0.6454 0.49647 0.44682 0.7447 1.0922 0.7447 1.9858v6.0568l-0.19859 0.54611c-1.1915 3.3263-1.9362 5.3618-4.915 5.3618h-74.172z" fill="#303433"/>
<path d="M259.64999 181.55641c-2.5816 0-3.17736-1.63833-4.31922-4.96463l-.19859-.59575v-5.80862c0-.79434.14894-1.24115.54611-1.58868.49646-.44681 1.14187-.44681 1.73762-.44681h78.5404c.6454 0 1.2908.0496 1.73762.44681.39717.34753.54611.84399.54611 1.58868v5.95756l-.14894.44681c-1.19151 3.3263-1.78726 4.96463-4.31922 4.96463h-74.12189z" fill="#e3e0dd"/>
<path d="m333.72 181.16h-74.072c-2.2341 0-2.7802-1.4894-3.922-4.6668l-0.14894-0.54611v-5.759c0-0.6454 0.14894-1.0426 0.39717-1.2908 0.39717-0.39717 1.0426-0.34752 1.9858-0.34752h77.448c0.94328 0 1.539-0.0496 1.9858 0.34752 0.29788 0.24823 0.39717 0.6454 0.39717 1.2908v5.8583l-0.14894 0.39717c-1.1419 3.2767-1.6383 4.7164-3.922 4.7164z" fill="#303433"/>
<path d="m296.49 180.76h37.284c1.9858 0 2.4327-1.3901 3.6738-4.8157v-5.759c0-1.4894-0.69505-1.2412-2.6809-1.2412h-38.228 0.34753-0.19859 0.34753-38.228c-1.9858 0-2.6809-0.24823-2.6809 1.2412v5.759c1.2412 3.4256 1.6383 4.8157 3.6738 4.8157h37.284" fill="#e3e0dd"/>
</svg>
