<?xml version="1.0" encoding="UTF-8"?>
<svg viewBox="-62 141.1 400 421.05" xmlns="http://www.w3.org/2000/svg">
<path d="m335.24 141.38-52.163 109.85-1.7305-2.4722 50.68-107.62c1.3185 0 2.3898 0.0824 3.2138 0.24722m-340.49 107.36-1.7305 2.4722-52.163-109.85c0.82406-0.16481 1.8129-0.24722 3.2138-0.24722l50.68 107.62z" fill="#a7a8a8"/>
<path d="m331.99 141.18-50.68 107.54c-31.644-45.076-84.054-74.495-143.3-74.495-59.25 0-111.58 29.419-143.3 74.495l-50.762-107.62h385.33c1.0713 0 1.8954 0 2.7194 0.0824" fill="#e4e5e4"/>
<path d="m338 149.79v313.72s-0.24722 81.5-5.5212 87.598c-2.5546 2.9666-48.208 7.0869-94.685 8.9823-49.444 2.1426-99.794 2.0602-99.794 2.0602s-50.35 0.0824-99.794-2.0602c-46.477-1.9778-92.13-6.0156-94.685-8.9823-5.274-6.1805-5.5212-87.598-5.5212-87.598v-313.72c0-5.8508 0-7.7462 2.7194-8.323l52.163 109.85 1.7305-2.4722c31.726-45.076 84.054-74.495 143.3-74.495 59.25 0 111.58 29.419 143.3 74.495l1.7305 2.4722 52.163-109.85c2.8842 0.57684 2.8842 2.3898 2.8842 8.323" fill="#dedfde"/>
<path d="m274.57 349.57c0 75.484-61.145 136.63-136.55 136.63-75.402 0-136.55-61.228-136.55-136.63 0-21.178 4.862-41.286 13.432-59.168 22.002-45.818 68.892-77.462 123.11-77.462 54.471 0 101.61 31.974 123.44 78.204 8.4054 17.717 13.103 37.495 13.103 58.426" fill="#e4e5e4"/>
<path d="m313.11 349.57c0 96.827-78.368 175.28-175.11 175.28-96.745 0-175.11-78.451-175.11-175.28 0-36.424 11.125-70.293 30.078-98.311l1.7305-2.4722 1.4833 3.049c-19.118 27.771-30.326 61.393-30.326 97.734 0 95.179 77.132 172.39 172.23 172.39 95.097 0 172.15-77.132 172.15-172.39 0-36.259-11.207-69.963-30.326-97.734l1.4833-3.049 1.7305 2.4722c18.953 28.018 29.996 61.887 29.996 98.311" fill="#a7a8a8"/>
<path d="m281.29 248.74-1.4833 3.049c-31.067-45.076-82.983-74.66-141.82-74.66-58.838 0-110.75 29.501-141.82 74.578l-1.4833-3.049c31.726-45.076 84.054-74.495 143.3-74.495 59.25 0 111.66 29.501 143.3 74.578" fill="#a7a8a8"/>
<path d="m123.92 524.33 14.091 30.408 14.091-30.408" fill="#d65725"/>
<path d="m-35.724 518.62c-7.8286-20.684-6.4277-28.842 3.049-34.693 14.009-8.6527 36.588 14.916 39.225 27.441 2.8018 13.679-4.3675 26.04-15.41 27.936-11.042 1.9778-22.332-8.7351-26.864-20.684" fill="#a7a8a8"/>
<path d="m-33.014 520c-2.3074-12.608 4.7796-24.31 15.822-26.205 11.042-1.8954 21.838 6.7573 24.145 19.365 2.3074 12.608-4.862 24.31-15.904 26.205-10.96 1.8953-21.755-6.7573-24.063-19.365" fill="#bbb"/>
<path d="m-27.189 518.99c-1.6481-8.8999 3.3787-17.223 11.207-18.541 7.8286-1.3185 15.41 4.7796 17.058 13.679 1.6481 8.8999-3.4611 17.223-11.29 18.541-7.6638 1.4009-15.328-4.7796-16.976-13.679" fill="#c1c3c2"/>
<path d="m261.45 291.16c-21.838-46.312-68.974-78.286-123.44-78.286-54.223 0-101.11 31.644-123.11 77.462l-18.706-38.566c31.067-45.076 82.983-74.578 141.82-74.578 58.838 0 110.75 29.584 141.82 74.66l-18.377 39.308z" fill="#e4e5e4"/>
<path d="m311.77 518.62c7.8286-20.684 6.4277-28.842-3.1314-34.693-13.927-8.6527-36.506 14.916-39.143 27.441-2.8018 13.679 4.3675 26.04 15.41 27.936 11.042 1.9778 22.332-8.7351 26.864-20.684" fill="#a7a8a8"/>
<path d="m308.98 520c2.3074-12.608-4.7796-24.31-15.822-26.205-11.042-1.8954-21.838 6.7573-24.145 19.365-2.3074 12.608 4.862 24.31 15.904 26.205s21.838-6.7573 24.063-19.365" fill="#bbb"/>
<path d="m286.12 532.68c-7.8286-1.3185-12.855-9.6415-11.29-18.541 1.6481-8.8999 9.3119-14.998 17.058-13.679 7.8286 1.4009 12.855 9.6415 11.207 18.541-1.5657 8.8999-9.2295 14.998-16.976 13.679m-325.98-101.73c0-2.3074 1.8953-4.1203 4.1203-4.1203 2.3074 0 4.1203 1.8953 4.1203 4.1203 0 2.3074-1.8953 4.1203-4.1203 4.1203-2.3074 0.0824-4.1203-1.8129-4.1203-4.1203m-16.628-78.651c0-2.3074 1.8953-4.1203 4.1203-4.1203 2.3074 0 4.1203 1.8129 4.1203 4.1203s-1.8953 4.1203-4.1203 4.1203c-2.225 0.0824-4.1203-1.8129-4.1203-4.1203m4.1349 40.084c0-2.3074 1.8953-4.1203 4.1203-4.1203 2.3074 0 4.1203 1.8129 4.1203 4.1203s-1.8953 4.1203-4.1203 4.1203-4.1203-1.8953-4.1203-4.1203m12.493-118.7c0 2.3074 1.8953 4.1203 4.1203 4.1203 2.3074 0 4.1203-1.8953 4.1203-4.1203 0-2.3074-1.8953-4.1203-4.1203-4.1203-2.3074-0.0824-4.1203 1.8129-4.1203 4.1203m-12.493 38.624c0 2.3074 1.8953 4.1203 4.1203 4.1203 2.3074 0 4.1203-1.8953 4.1203-4.1203 0-2.3074-1.8953-4.1203-4.1203-4.1203s-4.1203 1.8129-4.1203 4.1203m368.26 118.65c0-2.3074-1.8953-4.1203-4.1203-4.1203-2.3074 0-4.1203 1.8953-4.1203 4.1203 0 2.3074 1.8954 4.1203 4.1203 4.1203 2.3074 0.0824 4.1203-1.8129 4.1203-4.1203m16.544-78.651c0-2.3074-1.8954-4.1203-4.1203-4.1203-2.3074 0-4.1203 1.8129-4.1203 4.1203s1.8954 4.1203 4.1203 4.1203c2.3074 0.0824 4.1203-1.8129 4.1203-4.1203m-4.1378 40.084c0-2.3074-1.8953-4.1203-4.1203-4.1203-2.3074 0-4.1203 1.8129-4.1203 4.1203s1.8953 4.1203 4.1203 4.1203c2.3074 0 4.1203-1.8953 4.1203-4.1203m-12.406-118.7c0 2.3074-1.8953 4.1203-4.1203 4.1203-2.3074 0-4.1203-1.8953-4.1203-4.1203 0-2.3074 1.8954-4.1203 4.1203-4.1203 2.3074-0.0824 4.1203 1.8129 4.1203 4.1203m12.406 38.624c0 2.3074-1.8953 4.1203-4.1203 4.1203-2.3074 0-4.1203-1.8953-4.1203-4.1203 0-2.3074 1.8953-4.1203 4.1203-4.1203 2.3074 0 4.1203 1.8129 4.1203 4.1203" fill="#c1c3c2"/>
<path d="m183.64 313.72v11.784c0 2.637-2.1426 4.7796-4.7796 4.7796h-77.215c-2.637 0-4.7796-2.1426-4.7796-4.7796v-11.784c0-2.637 2.1426-4.7796 4.7796-4.7796h9.3943c2.3898 0 4.2851-1.8954 4.2851-4.2851v-11.125c0-13.927 10.713-25.958 24.639-26.535 14.833-0.65925 27.112 11.125 27.112 25.876v11.866c0 2.3898 1.8953 4.2851 4.2851 4.2851h7.499c2.637-0.0824 4.7796 2.0602 4.7796 4.6972" fill="#dedfde"/>
<path d="M133.88727 323.45197c-.0824 0-.24722.24722-.32963.24722-.24722.0824-.49443.16481-.65925.24722-.24722 0-.49443.0824-.65925.0824-.32962 0-.65925-.0824-.82406-.24721-.24722-.16482-.24722-.0824-.41203-.32963-.16481-.24722-.41203-.57684-.41203-.82406v-.57685c0-.16481.0824-.24721.24722-.41203.16481-.16481.24722-.32962.49443-.49443.24722-.0824.41204-.16482.74166-.24722.16481-.0824.41203-.0824.82406-.16482.24722 0 .65925 0 .74166-.0824.16481 0 .24722 0 .41203-.0824.0824-.0824.24722-.0824.32963-.16481.0824-.0824.16481-.0824.32962-.24722v1.64813s0 .74165-.24722 1.07128c-.32962.41203-.57684.57684-.57684.57684m-3.79069-5.60362c.41203-.16482.65925-.24722.90647-.41204.24722-.0824.49444-.16481.90647-.24721.32962-.0824.57684-.0824.98887-.0824.32963 0 .74166.16481 1.07128.24722.24722.0824.49444.32962.57685.57684.16481.16481.24722.24722.24722.57685v.24721c0 .0824-.0824.16482-.16482.24722-.0824.0824-.16481.24722-.24721.24722l-.24722.24722c-.16482.0824-.24722.0824-.41203.16481-.16482.0824-.32963 0-.57685.0824-.74165.0824-1.23609.16481-1.56572.24722-.32962.0824-.49443.16481-.74165.24722-.24722.0824-.32963.24722-.57685.41203s-.24722.32962-.41203.49444c-.0824.16481-.24722.32962-.24722.57684s-.0824.49444-.0824.74166c0 .41203.0824.74165.24722 1.15368.16481.32963.49443.65925.90646.82407.41204.16481.90647.41203 1.56572.41203h.65925c.24722 0 .41203-.0824.82407-.16481.16481-.16482.41203-.24722.65925-.49444l.41203-.41203v.90647h1.56572c-.16482-.65926-.24722-.74166-.16482-1.15369 0-.74166-.0824-2.47219 0-3.37866v-1.07128c0-.32963-.16481-.82406-.24722-1.15369-.0824-.24722-.24721-.49444-.49443-.74165-.24722-.24722-.74166-.57685-1.07128-.74166-.41204-.0824-.74166-.16481-1.15369-.16481-.41203 0-1.07128 0-1.48331.0824-.41204.0824-.74166.16482-1.40091.32963-.24722.57684-.24722.90647-.24722 1.15369m32.49122 5.52402c-.0824 0-.24721.24722-.41203.24722-.24722.0824-.41203.16481-.57684.24721-.24722 0-.49444.0824-.65925.0824-.32963 0-.65925-.0824-.90647-.24722-.24722-.16481-.24722-.0824-.41203-.32962-.16481-.24722-.41203-.57685-.41203-.82407v-.57684c.0824-.16481.0824-.24722.24722-.41203.16481-.16481.24721-.32963.49443-.49444.16482-.0824.41203-.16481.74166-.24722.16481-.0824.41203-.0824.82406-.16481.16481 0 .65925 0 .74166-.0824.0824 0 .24722-.0824.32962-.0824.16482-.0824.24722-.0824.32963-.16482.0824-.0824.16481-.0824.32962-.24721v1.64812s0 .65925-.24721 1.07128c-.16482.41203-.41204.57685-.41204.57685m-3.79068-5.60363c.32962-.16481.65925-.24722.90646-.41203.24722-.0824.57685-.16481.90647-.24722.32963-.0824.65925-.0824.98888-.0824.32962 0 .82406.16482 1.07128.24722s.49444.32963.65925.57685c.16481.16481.16481.32962.24722.65925v.24722c0 .0824-.0824.0824-.16481.16481-.0824.0824-.16482.24722-.24722.24722-.0824.0824-.16481.16481-.32963.24722-.0824.0824-.24722.0824-.41203.16481-.16481.0824-.32962 0-.57684.0824-.74166.0824-1.3185.16482-1.56572.24722-.32963.0824-.49444.16482-.74166.24722s-.32962.24722-.57684.41203c-.24722.16482-.24722.24722-.41203.49444-.0824.16481-.16482.41203-.24722.57685-.0824.24721-.16481.49443-.16481.74165 0 .41203.0824.74166.24721 1.15369.24722.32962.49444.65925.90647.82406s.90647.41203 1.64813.41203h.65925c.24722 0 .49444-.0824.82406-.16481.16481-.16481.49444-.24722.74166-.49444l.41203-.41203v.90647h1.56572c-.16481-.65925-.24722-.74166-.24722-1.15369v-4.44994c0-.32962-.16481-.82406-.24722-1.15368-.0824-.24722-.24722-.49444-.49444-.74166-.16481-.24722-.65925-.57684-1.07128-.74166-.41203-.0824-.65925-.16481-1.15369-.16481-.41203 0-1.07128.0824-1.48331.0824-.49444.0824-.74166.16481-1.40091.32962-.24721.49444-.24721.90647-.24721 1.15369m-21.36136 6.92567l.16482-.57684v-1.64813l-.0824-4.69716c0-.41203-.24722-.90646-.24722-1.15368.24722 0 .74166-.0824.98888-.16482.16481-.0824.41203-.0824.57684-.0824v1.07128c.16481-.32963.49444-.32963.57684-.49444.0824-.16481.24722-.16481.49444-.32962.24722-.16482.32963-.16482.65925-.24722.32963 0 .57685-.0824.90647-.0824.24722 0 .41203 0 .65925.0824.24722 0 .41203.16481.57685.24722.16481.0824.32962.24722.49443.32962.16482.16481.24722.24722.41203.49444 0 .0824.32963-.41203.82407-.65925.49443-.24722.98887-.49444 1.56572-.49444.32962 0 1.15368 0 1.48331.16481.32962.16482.82406.32963 1.07128.57685s.24722.32962.49444.57684.32962.90647.32962 1.15369v5.10919c0 .41203.0824.41203.16481.82406h-1.64812c.24722-.65925.16481-.49444.16481-.82406v-4.69716c0-.32962-.0824-.74166-.16481-.90647-.0824-.16481-.41203-.49444-.49444-.65925-.16481-.16481-.32962-.16481-.57684-.24722-.16481-.0824-.49444-.0824-.74166-.0824-.16481 0-.49444 0-.65925.0824s-.32962.0824-.49444.24722c-.16481.0824-.24721.16481-.41203.32963-.0824.16481-.24722.32962-.32962.49443-.0824.16482-.0824.49444-.0824.82407v4.77956l.24722.74166h-1.73053c0-.74166.0824-.0824.0824-.82407v-4.86197c0-.24721-.0824-.41203-.0824-.57684-.0824-.16481-.16481-.49444-.32963-.57684-.16481-.16482-.49443-.49444-.65925-.49444-.16481-.0824-.49443-.16481-.74165-.16481-.24722 0-.41203 0-.65925.16481-.24722.0824-.41203.16481-.57685.32962-.16481.16482-.32962.24722-.49443.49444-.0824.24722-.24722.24722-.24722.65925-.0824.41203-.0824 2.14256-.0824 3.21385v1.81293c0 .32963.16481.49444.16481.82407h-.82406c0-.0824-.41203-.0824-.74166-.0824m19.89807-1.51117c0 .0824 0 .24722-.0824.49444 0 .24722-.0824.49444-.16481.74166-.32963.0824-.74166.24722-1.07128.24722-.32963 0-1.2361.0824-1.48332.0824-.49443 0-1.15368-.0824-1.64812-.24722-.49444-.16481-1.07128-.49443-1.40091-.90646-.32962-.32963-.74165-.74166-.98887-1.3185-.16481-.57685-.32963-1.07129-.32963-1.64813 0-.82406.0824-1.15369.32963-1.89534.24722-.74166.82406-1.3185 1.4009-1.73054.57685-.41203 1.81294-.74165 2.80182-.74165.74165 0 1.56572.0824 2.22497.32962 0 .49444.0824.74166.0824 1.07128-.49443-.16481-.98887-.41203-1.23609-.49443-.32963 0-.74166-.0824-.90647-.0824-.49444 0-1.40091.24722-1.73053.41203-.32963.16481-.65925.41203-.90647.74166-.24722.32962-.41203.74165-.49444 1.23609-.0824.49444-.16481.49444-.0824.98888 0 .65925.16481 1.15369.32962 1.64812.24722.49444.49444.90647.98888 1.15369.41203.24722.90646.49444 1.48331.49444.57684.16481 1.73053.0824 2.88422-.57685m8.54973 1.18847l-.16481-.57685c0-.0824-.16482-.41203-.24722-.82406.90647.49444 1.89534.90647 2.637.90647.32962 0 .74166-.16481.98887-.24722.24722-.0824.49444-.24722.65925-.49444.0824-.16481.24722-.41203.24722-.57684 0-.0824.0824-.24722 0-.41203 0-.0824-.0824-.41203-.16481-.49444l-.49444-.49444c-.16481-.0824-.49443-.32962-1.07128-.49443-.49444-.24722-1.15369-.41204-1.4009-.65925-.24722-.16482-.65925-.41204-.82407-.65925-.16481-.24722-.24722-.41204-.41203-.65925-.0824-.24722 0-.49444 0-.74166 0-.32963.24722-.74166.41203-.98888.24722-.32962.57685-.49443.98888-.74165.41203-.16482.90647-.24722 1.48331-.24722.65925 0 1.23609.16481 1.97775.24722 0 .41203-.0824.74165 0 1.07128-.49444-.32963-1.15369-.57685-1.73053-.57685-.32963 0-.65925.0824-.90647.16482-.24722.0824-.57684.32962-.74166.49444-.0824.16481-.16481.32962-.16481.49443 0 .16482 0 .32963.0824.49444 0 .0824.32962.49444.49444.49444.24721.0824.16481.0824.32962.16481.24722 0 .82406.32963 1.40091.57684.57684.24722 1.15368.65925 1.3185.82407.16481.16481.41203.41203.49443.82406.0824.24722.16482.49444.16482.65925 0 .32962-.0824.32962-.0824.57684 0 .41203-.0824.49444-.24722.82407-.24722.32962-.57684.65925-1.07128.82406s-.90647.32962-1.48331.32962h-1.07128c-.32963 0-.57685-.16481-.82407-.16481-.0824.24722-.24721.24722-.57684.0824m10.25645-.67384c-.0824.24722-.16481.41203-.16481.90647-.32963.0824-.49444.16481-.74166.16481h-.57684c-.49444 0-.82407 0-1.07129-.16481-.24721-.16481-.49443-.32962-.65925-.57684-.16481-.24722-.24721-.98888-.24721-1.48332v-5.19159h-.98888v-.74166h.98888v-1.4009c0-.24722-.16482-.49444-.24722-.65925.49443-.0824 1.15368-.32963 1.48331-.41204 0 .82407.0824 1.97776.0824 2.47219h2.14256v.82407l-.57685-.0824h-1.56571v5.02678c0 .41203.0824.90647.16481 1.15369.0824.24722.24722.24722.41203.41203.16481.0824.32962.0824.49444.0824h.41203c.16481-.16482.24722-.24722.65925-.32963m-47.81475-.46345c0 .32962-.16482.65925-.16482 1.15369-.49443.16481-1.23609.41203-1.64812.49443h-1.07128c-.65925 0-1.2361-.16481-1.81294-.32962-.49444-.16481-.98887-.49444-1.40091-.90647-.41203-.41203-.74165-.90647-.90646-1.40091-.16482-.57684-.24722-1.07128-.24722-1.64812 0-.82406.0824-1.15369.32962-1.89535.24722-.74165.82406-1.23609 1.40091-1.64812.57684-.41203 1.23609-.57684 2.14256-.57684.49444 0 .98888 0 1.40091.16481.41203.16481.74165.32962 1.07128.57684.24722.32963.49444.65925.74165 1.07128.16482.49444.24722.49444.24722.98888.0824.24722.0824.65925.0824.82406h-6.01566v.57684c0 .57685.0824 1.15369.32963 1.64813.24722.49444.57684.82406.98887 1.07128.49444.24722.98888.49444 1.56572.49444.82406.0824 1.97775-.16481 2.96663-.65925m-5.52122-3.9555h4.36753v-.49444c0-.16481-.0824-.32962-.24722-.57684-.0824-.24722-.24722-.32963-.49444-.49444-.16481-.16481-.32962-.24722-.57684-.41203-.24722-.0824-.57684-.0824-.82406-.0824s-.49444.0824-.74166.16481c-.24722.0824-.49444.24722-.65925.41204-.24722.16481-.32962.32962-.49444.49443-.16481.24722-.24722.41203-.24722.65925v.0824c-.0824 0-.0824 0-.0824.24722m-6.77437 5.65859c0-.16481.16481-.41203.16481-.49444 0-2.637 0-4.69716-.0824-6.34528v-.74166l-.24722-.57684c.24722 0 .57685-.0824.74166-.0824s.65925-.0824.82406-.0824v1.48331c.16482-.32963.24722-.32963.32963-.49444.0824-.16481.32962-.41203.49444-.49444.16481-.0824.32962-.24721.57684-.32962.24722-.0824.41203-.16481.65925-.16481h.90647c.49444.0824.74165.16481.90647.24722 0 .24721-.32963 1.15368-.32963 1.15368s-.41203 0-.74165-.16481c-.32963-.0824-.49444-.0824-.74166-.0824s-.65925.0824-.90647.16482c-.24722.0824-.49444.24722-.65925.49443-.16481.24722-.24722.49444-.41203.74166-.0824.24722-.0824 0-.0824.41203v5.02678l.16482.49444h-.82407c-.0824-.24722-.49443-.16481-.74165-.16481m-12.37792.0569l.24722-.82406v-9.97116c0-.32963-.16481-.57685-.32963-1.15369h5.27401c.90646.0824 1.15368.0824 1.73053.24722.49443.0824 1.3185.57684 1.73053.90647.41203.24722.82406.57684 1.15369 1.07128.32962.49444.49443.57684.65925 1.15369.24722.74165.49443 1.48331.49443 2.22497.0824.98887 0 1.73053-.32962 2.637-.32963.90647-.90647 1.56572-1.56572 2.14256-.57684.65925-1.23609.98888-2.06016 1.15369-.74165.16481-1.64812.32962-2.637.32962h-2.30737l-2.06016.0824zm2.06016-.98888h1.81294c.49443 0 .98887 0 1.48331-.0824.49444-.0824.90647-.24722 1.23609-.41203.41203-.16482.74166-.32963 1.15369-.74166.41203-.32963.65925-.74166.90647-1.15369.24722-.49444.41203-.90647.49444-1.48331.0824-.57684.16481-1.15369.16481-1.64813 0-.65925-.24722-1.15368-.41203-1.64812-.16482-.57684-.49444-1.23609-.90647-1.64813-.49444-.41203-.82406-.65925-1.40091-.82406-.49444-.16481-1.23609-.32962-2.06015-.32962-.49444 0-1.2361 0-1.48332.0824-.32962 0-.65925.0824-1.07128.0824l.0824 9.80634z"/>
<path d="m141.58 296.01c0-1.4009-0.65925-1.2361-1.1537-1.3185s-1.6481 0.16481-2.7194-0.0824c-1.2361-0.24722-1.8954-1.9778-1.7305-2.8018 0.65925-2.3898 2.225-2.7194 3.2962-2.637 0.82407 0 2.3898 0.0824 4.3675 1.8129 0.90647 0.74166 1.4009 2.8018 1.4009 3.9555 0 1.4009 0 3.049-0.90647 3.9555-1.4009 1.4833-4.9444 2.7194-7.0045 2.637-7.9934-0.82407-7.6638-8.323-7.6638-8.323s-0.65925-3.2138 2.0602-6.6749c0.24721-0.24722 0.57684-0.90647 0.82406-1.2361 0.24722-0.32962 0.49444-0.41203 0.82406-0.65925 0.32963-0.24722 0.65925-0.41203 0.98888-0.65925 0.90646-0.49444 1.8129-0.98887 2.7194-1.3185 1.4009-0.41203 2.7194-0.49444 3.7907-0.49444 3.2962 0.0824 6.8397 1.8954 8.6527 4.6972 0.24722 0.41203 0.49444 0.65925 0.74165 0.98888 0.49444 0.32962 0.74166 0.98887 1.0713 1.8129 0.41203 1.1537 0.24721 0.74166 0.74165 2.5546 0.32963 1.3185 0.49444 2.1426 0.49444 2.9666 0 0.41204 0.0824 0.82407 0.0824 1.2361 0 1.4009 0.24722 1.8129-0.0824 2.8842-0.49444 1.8953-1.6481 3.7907-2.637 4.6972-1.7305 1.7305-3.3787 2.225-4.2851 2.7194-0.90646 0.49444-1.3185 0.57684-2.5546 0.98888-1.2361 0.49443-1.8953 0.49443-4.0379 0.49443s-3.8731-0.16481-4.4499-0.24722c-3.7907-1.0713-5.1916-1.7305-6.8397-3.1314-4.2851-3.3787-5.1916-9.9712-5.1916-9.9712s-0.49444-3.3787 0.24722-6.8397c0.41203-1.8953 2.3074-5.274 3.3787-6.5925 0.90646-1.1537 3.049-2.8018 4.2851-3.6259 1.2361-0.82406 3.049-1.8953 5.1092-2.4722 0.98888-0.32962 1.8129-0.49443 4.1203-0.57684 2.637-0.0824 6.5925 0.57684 8.8999 1.3185 2.3898 0.74166 4.6148 2.3074 5.7684 3.5435s3.7083 5.0268 4.1203 5.7684c0.49444 0.74166 1.6481 4.862 1.8129 5.4388 0.0824 0.49444 0.32962 2.3898 2.1426 2.3074 1.6481-0.16481 1.1537-2.0602 1.1537-2.3898-0.0824-0.32963-0.65925-3.5435-0.90647-4.4499s-1.5657-3.2138-1.8953-3.6259c-0.16482-0.24722-1.3185-2.225-2.4722-3.7083-0.90647-1.1537-1.7305-2.225-2.637-2.8018-1.8129-1.1537-4.0379-2.1426-4.0379-2.1426s-3.8731-1.3185-5.9332-1.5657c-1.7305-0.24722-3.6259-0.57685-6.7573-0.41204-3.1314 0.24722-4.862 1.0713-6.0157 1.4833-1.1537 0.49443-3.7083 1.6481-5.686 3.2138-1.8954 1.5657-1.3185 0.82406-2.3898 1.9778-0.98888 1.1537-1.3185 1.4833-2.0602 2.4722-0.74166 0.98887-2.225 3.9555-2.8018 5.9332-0.24722 0.82406-0.57685 2.0602-0.74166 3.2138-0.16481 0.98888-0.16481 1.9778-0.0824 2.8018 0.16482 1.7305 0.0824 1.7305 0.0824 1.7305s0.82406 3.2962 1.2361 4.6972c0.49444 1.3185 1.0713 3.2138 3.7907 6.2629 2.7194 2.9666 5.1916 3.7907 6.1805 4.2027 0.90647 0.32963 4.1203 1.4833 8.323 1.5657 4.862 0.0824 6.1805-0.98887 7.0045-1.3185 0.90647-0.41203 3.8731-1.6481 6.2629-3.8731s3.1314-4.6972 3.2138-4.862c0.65925-1.8954 0.90647-4.9444 0.24722-7.8286-0.41204-1.9778-0.74166-3.7083-1.1537-4.9444-0.74166-2.1426-1.5657-3.2962-2.1426-4.2027-0.57685-0.90647-2.3074-2.225-3.3787-2.8842-0.49444-0.32963-0.98888-0.65925-1.7305-0.98888-0.74166-0.32962-1.6481-0.49444-2.7194-0.74165-0.98888-0.24722-2.3898-0.49444-3.4611-0.57685-0.98888-0.0824-1.8129 0-2.1426 0-0.49443 0-2.1426 0.24722-4.4499 1.4833-1.2361 0.65925-2.637 1.4833-4.1203 2.9666-0.49443 0.49444-0.90647 1.0713-1.2361 1.5657-3.2962 4.5323-2.1426 9.6415-2.1426 9.6415s0.57684 6.8397 6.5925 8.8175c2.1426 0.65925 4.0379 0.74166 5.6036 0.49444 2.637-0.32963 4.5324-1.4009 5.8508-2.1426 1.3185-0.65925 2.3074-1.8129 2.8018-3.049 0.49444-1.1537 0.65925-2.3074 0.57684-3.2962 0-0.57684 0-1.3185-0.16481-2.1426-0.16481-2.1426-0.82406-4.0379-2.5546-5.5212l-0.49444-0.32962c-0.32962-0.24722-0.57684-0.32963-0.82406-0.49444-1.4833-0.74166-2.8842-1.0713-4.9444-1.1537-0.74165 0-1.8129 0.16481-2.3898 0.49444-2.3898 1.1537-3.7083 3.2962-3.5435 6.0157 0.0824 2.5546 2.5546 3.9555 2.9666 4.3675-0.0824 0 5.274 1.3185 5.4388-1.0713" fill="#cf3311"/>
<path d="m121.4 518.83h33.21l17.305-37.412c-10.878 2.8018-22.167 4.2027-33.869 4.2027s-23.074-1.4833-33.869-4.2027l17.223 37.412" fill="#c1c3c2"/>
<path d="m-25.364 516.4c0.16481 0.0824 0.32962 0.0824 0.57684 0.0824 0.90647 0 1.4833-0.41203 1.4833-1.2361 0-0.74165-0.57684-1.1537-1.4009-1.1537-0.32962 0-0.57684 0-0.74166 0.0824v2.225zm-0.74166-2.8018c0.32962-0.0824 0.82406-0.0824 1.4009-0.0824 0.74166 0 1.2361 0.16481 1.6481 0.49444 0.32962 0.24722 0.49444 0.65925 0.49444 1.2361 0 0.49444-0.16481 0.90647-0.41203 1.2361-0.41203 0.41203-1.0713 0.65925-1.7305 0.65925-0.24722 0-0.41203 0-0.57684-0.0824v2.3074h-0.82406v-5.7684zm4.9814 2.8289c0 1.2361 0.65925 2.3074 1.8129 2.3074s1.8129-1.0713 1.8129-2.3898c0-1.1537-0.57684-2.3898-1.8129-2.3898-1.1537 0.0824-1.8129 1.2361-1.8129 2.4722m4.5323-0.0824c0 1.9778-1.2361 3.049-2.7194 3.049-1.5657 0-2.637-1.1537-2.637-2.9666s1.1537-3.049 2.7194-3.049c1.5657 0.0824 2.637 1.2361 2.637 2.9666m1.9034 2.9913-1.4833-5.7684h0.82406l0.65925 2.8842c0.16481 0.74166 0.32962 1.4009 0.41203 1.9778 0.08241-0.57684 0.24722-1.2361 0.49444-1.9778l0.74166-2.8842h0.74166l0.74166 2.9666c0.16481 0.65925 0.32962 1.4009 0.41203 1.9778 0.08241-0.65925 0.24722-1.2361 0.49444-1.9778l0.74166-2.8842h0.74166l-1.6481 5.7684h-0.74166l-0.74166-3.049c-0.16481-0.74166-0.32962-1.3185-0.41203-1.8954-0.08241 0.57685-0.24722 1.1537-0.41203 1.8954l-0.82406 3.049h-0.74166zm9.2556-2.7772h-2.225v2.0602h2.4722v0.65925h-3.2138v-5.7684h3.1314v0.65925h-2.3898v1.8129h2.225v0.57685zm1.9905-0.28884h0.74166c0.82406 0 1.3185-0.41203 1.3185-1.0713 0-0.74165-0.57684-1.0713-1.3185-1.0713-0.32962 0-0.57684 0-0.74166 0.0824v2.0602zm-0.74166-2.637c0.41203-0.0824 0.90647-0.0824 1.4009-0.0824 0.82406 0 1.3185 0.16481 1.6481 0.49443 0.32963 0.24722 0.49444 0.65925 0.49444 1.0713 0 0.74165-0.49444 1.2361-1.0713 1.4833 0.41203 0.16481 0.74166 0.57684 0.82406 1.1537 0.16481 0.82406 0.32963 1.4009 0.41203 1.5657h-0.74166c-0.082406-0.16482-0.24722-0.65925-0.41203-1.4009-0.16481-0.82406-0.49444-1.0713-1.1537-1.1537h-0.74166v2.4722h-0.74166l0.082406-5.6036zm283.79 2.7914c0 1.3185 0.74166 2.5546 2.0602 2.5546s2.0602-1.2361 2.0602-2.637c0-1.2361-0.65925-2.5546-2.0602-2.5546-1.4009 0-2.0602 1.2361-2.0602 2.637m4.9444-0.0824c0 2.225-1.3185 3.3786-2.9666 3.3786s-2.8842-1.3185-2.8842-3.2138c0-1.9778 1.2361-3.2962 2.9666-3.2962 1.7305-0.0824 2.8842 1.2361 2.8842 3.1314m1.8242 0.0607c0.16482 0.0824 0.41204 0.0824 0.65925 0.0824 0.98888 0 1.5657-0.49444 1.5657-1.3185 0-0.82407-0.57684-1.2361-1.4833-1.2361-0.32962 0-0.65925 0-0.74166 0.0824v2.3898zm-0.74165-3.049c0.41203-0.0824 0.90647-0.16481 1.5657-0.16481 0.82406 0 1.4009 0.16481 1.8129 0.49443 0.32963 0.32963 0.57685 0.74166 0.57685 1.3185 0 0.57685-0.16481 0.98888-0.49444 1.3185-0.41203 0.49444-1.1537 0.65925-1.9778 0.65925-0.24722 0-0.49444 0-0.65925-0.0824v2.5546h-0.82406v-6.0981zm8.2892 3.2733h-2.4722v2.3074h2.7194v0.65925h-3.5435v-6.3453h3.4611v0.65925h-2.637v1.9778h2.4722v0.74166zm1.3273 2.9754v-6.3453h0.90647l2.0602 3.2138c0.49443 0.74166 0.82406 1.4009 1.1537 2.0602-0.0824-0.82406-0.0824-1.6481-0.0824-2.637v-2.637h0.74165v6.3453h-0.82406l-1.9778-3.2138c-0.41203-0.74166-0.90647-1.4009-1.1537-2.1426 0.0824 0.82406 0.0824 1.5657 0.0824 2.637v2.7194h-0.90647z" fill="#8c8c8c"/>
</svg>
