<?xml version="1.0" encoding="UTF-8"?>
<svg viewBox="0 0 400 429.08" xmlns="http://www.w3.org/2000/svg">
<path d="m395.89 424.78h-391.87c-2.2004 0-4.0182-1.8178-4.0182-4.0182v-416.74c0-2.2004 1.8177-4.0182 4.0182-4.0182h391.96c2.2004 0 4.0182 1.8177 4.0182 4.0182v416.84c-0.0957 2.1048-1.9134 3.9225-4.1138 3.9225z" fill="#524c82"/>
<circle cx="42.095" cy="104.86" r="24.396"/>
<circle cx="42.095" cy="104.86" r="23.918" fill="#cbc9e0"/>
<circle cx="42.095" cy="369.86" r="24.396"/>
<circle cx="42.095" cy="369.86" r="23.918" fill="#463371"/>
<circle cx="357.81" cy="369.96" r="24.396"/>
<circle cx="357.81" cy="369.96" r="23.918" fill="#453371"/>
<circle cx="357.81" cy="369.96" r="12.437" fill="#524c82"/>
<path d="m203.97 386.51h-4.0182c-33.485 0.19134-74.719-1.2437-126.38-12.916l-0.95671-0.0957 0.09567-0.95671c0.09567-0.86104 0.09567-1.7221 0.09567-2.5831 0-16.838-13.777-30.615-30.615-30.615h-0.95671v-203.49h0.95671c16.838 0 30.615-13.777 30.615-30.615s-13.777-30.615-30.71-30.615h-0.95671v-74.623h1.9134v72.71c17.508 0.47835 31.571 14.925 31.571 32.528s-14.064 32.05-31.571 32.528v199.67c17.508 0.47835 31.571 14.925 31.571 32.528 0 0.66969 0 1.2437-0.09567 1.9134 51.184 11.48 92.035 12.916 125.33 12.724 33.293 0.0957 74.145-1.2437 125.42-12.724 0-0.6697-0.0957-1.2437-0.0957-1.9134 0-17.603 14.064-32.05 31.571-32.528v-337.43h1.9134v339.25h-0.9567c-16.838 0-30.615 13.777-30.615 30.615 0 0.86104 0 1.7221 0.0957 2.5831l0.0957 0.95671-0.95671 0.0957c-49.653 11.194-89.548 13.011-122.36 13.011z" fill="#20203a"/>
<g fill="#483573">
<path d="m277.73 33.389c-5.7403 0-9.5671-4.2095-9.5671-9.2801s3.8268-9.3757 9.5671-9.2801h54.245c5.7403 0 9.5671 4.2095 9.5671 9.2801s-3.8268 9.2801-9.5671 9.2801h-54.245zm0-16.264c-4.5922 0-7.3667 3.1571-7.3667 6.984 0 3.9225 2.7745 7.0796 7.3667 6.984h54.15c4.5922 0 7.3667-3.1571 7.3667-6.984 0-3.9225-2.7745-6.984-7.3667-6.984h-54.15z"/>
<path d="m275.44 19.708h2.6788l3.6355 6.1229v-6.1229h2.5831v8.8017h-2.5831l-3.7312-6.1229v6.1229h-2.6788l0.095671-8.8017zm23.248 0.95671h2.5831v1.1481h1.3394v0.86104h-1.3394v5.8359h-2.5831v-5.8359h-1.4351v-0.86104h1.4351v-1.1481zm-12.82 2.0091h2.5831v5.8359h-2.5831v-5.8359zm0-2.9658h2.5831v1.8177h-2.5831v-1.8177zm44.774 2.5831c-2.1048 0-3.7312 1.4351-3.7312 3.2528s1.7221 3.2528 3.7312 3.2528c2.1048 0 3.7312-1.4351 3.7312-3.2528 0.095671-1.8177-1.6264-3.2528-3.7312-3.2528m1.0524 3.2528v1.2437c0 0.95671-0.57403 1.3394-1.0524 1.3394s-1.0524-0.38268-1.0524-1.3394v-2.4874c0-0.95671 0.57403-1.3394 1.0524-1.3394s1.0524 0.38268 1.0524 1.3394v1.2437zm-8.132 0v-1.0524c0-0.86104-0.57403-1.1481-0.95671-1.1481s-0.95671 0.19134-0.95671 1.1481v2.1048c0 0.86104 0.57403 1.1481 0.95671 1.1481s0.95671-0.19134 0.95671-1.1481v-1.0524zm0-5.8359h2.4874v8.8017h-2.4874v-0.38268c-0.95671 0.6697-2.1048 0.6697-2.9658 0.19134-0.19134-0.095671-1.7221-0.86104-1.7221-2.8701 0-1.5307 1.4351-3.2528 3.2528-3.0615 0.57403 0.095671 1.0524 0.28701 1.4351 0.47835v-3.1571zm-29.18 2.6788c0.95671 0 2.8701 0.57403 2.8701 2.9658v3.1571h-2.5831v-3.8268c0-0.47835-0.47835-1.0524-1.1481-1.0524-0.6697 0-1.2437 0.57403-1.2437 1.0524v3.8268h-2.5831v-5.8359h2.5831v0.57403c0.57403-0.47835 1.2437-0.86104 2.1048-0.86104m20.761 0c0.95671 0 2.8701 0.57403 2.8701 2.9658v3.1571h-2.5831v-3.8268c0-0.47835-0.47835-1.0524-1.1481-1.0524s-1.2437 0.57403-1.2437 1.0524v3.8268h-2.5831v-5.8359h2.5831v0.57403c0.57403-0.47835 1.3394-0.86104 2.1048-0.86104m-8.0364 4.1138v0.38268c0 1.0524-0.6697 1.3394-1.0524 1.3394-0.38268 0-1.0524-0.19134-1.0524-1.3394v-1.2437h4.7835c0-1.8177-1.7221-3.3485-3.7312-3.3485-2.1048 0-3.7312 1.4351-3.7312 3.2528s1.7221 3.2528 3.7312 3.2528c1.7221 0 3.1571-1.0524 3.6355-2.3918l-2.5831 0.095671zm-2.1048-1.8177c0-0.47835 0-0.86104 0.19134-1.1481 0.19134-0.38268 0.57403-0.57403 0.86104-0.57403s0.6697 0.19134 0.86104 0.57403c0.19134 0.28701 0.19134 0.6697 0.19134 1.1481h-2.1048zm29.945-4.0182c0.28701 0 0.47835 0 0.47835-0.28701s-0.19134-0.28701-0.38268-0.28701h-0.38268v0.57403h0.28701zm-0.38268 1.1481h-0.28701v-2.0091h0.76537c0.47835 0 0.6697 0.19134 0.6697 0.57403s-0.19134 0.47835-0.47835 0.57403l0.57403 0.86104h-0.28701l-0.47835-0.86104h-0.38268v0.86104h-0.095671z"/>
<path d="m334.94 22.291c0.76537 0 1.3394-0.57403 1.3394-1.4351 0-0.86104-0.57403-1.4351-1.3394-1.4351s-1.3394 0.57403-1.3394 1.4351c0 0.76537 0.57403 1.4351 1.3394 1.4351m-1.7221-1.4351c0-0.95671 0.76537-1.7221 1.7221-1.7221 0.95671 0 1.7221 0.76537 1.7221 1.7221s-0.76537 1.7221-1.7221 1.7221c-0.95671 0-1.7221-0.76537-1.7221-1.7221"/>
</g>
<path d="m252.76 383.74c-19.23 1.5307-36.738 1.8177-52.81 1.7221-16.168 0.0957-33.58-0.28701-52.81-1.7221 7.7493 8.5147 28.414 14.638 52.81 14.638 24.3 0.0957 45.061-6.0273 52.81-14.638" fill="#f2a136"/>
<path d="m236.88 385.94c-13.49 1.0524-25.735 1.2437-37.025 1.2437-11.289 0-23.535-0.19134-37.025-1.2437 5.4532 6.0273 19.9 10.237 36.929 10.237 17.125 0.0957 31.667-4.2095 37.12-10.237" fill="#e58b48"/>
<circle cx="199.95" cy="218.13" r="111.46"/>
<path d="m236.69 273.62 21.239 27.84-0.0957-0.0957c-16.455 11.481-36.451 18.177-57.977 18.177-21.43 0-41.33-6.697-57.785-18.082l21.239-27.84c10.428 6.984 22.961 11.002 36.451 11.002 13.681 0 26.31-4.1138 36.833-11.289l0.0957 0.28701z" fill="#393939"/>
<path d="m166.85 283.47-17.316 22.674c14.829 8.5147 32.05 13.394 50.419 13.394 21.526 0 41.521-6.697 57.977-18.177l-17.508-22.961c-11.098 8.8017-26.118 13.872-40.469 13.872-12.055 0-23.344-3.1571-33.102-8.8017" fill="#cbc9e0"/>
<path d="M208.27553 199.18683v-1.24373h-3.53982c-.47836 0-.86104.0957-1.24372.28702-.38269.19134-.6697.38268-.86104.76536-.19134.28702-.28701.6697-.38268.95671v3.82684c0 .38268.0957.6697.28701.95671.19134.28701.57402.57402.86104.76537.38268.19134.76536.28701 1.24372.28701h3.53982v-1.24372h-3.44415c-.28701 0-.57403-.0957-.76537-.19135-.19134-.19134-.28701-.28701-.28701-.57402v-1.43506h4.49653v-1.24373H203.779v-1.05238c0-.28701.0957-.47835.28701-.57402.19134-.19134.47836-.19134.76537-.19134h3.44415v-.0957zm9.08874 6.60129v-6.12294l3.15714 6.12294h1.53073v-7.84502h-1.53073v4.97489l-2.58312-4.97489h-2.10476v7.84502h1.53074m12.24587-7.84502v7.84502h3.73117c.47835 0 .86103-.0957 1.24372-.28701.38268-.19135.66969-.38269.95671-.76537.19134-.28701.28701-.6697.38268-1.05238v-3.73117c0-.38268-.0957-.66969-.38268-.95671-.19135-.28701-.57403-.57402-.95671-.76536-.38269-.19134-.76537-.28702-1.24372-.28702h-3.73117zm4.49653 1.43507c.19134.19134.28702.38268.38269.57402v3.73117c0 .28701-.0957.47835-.38269.57402-.19134.19135-.47835.28702-.76536.28702h-2.20043v-5.35757h2.20043c.28701 0 .47835.0957.76536.19134zm14.06362-1.24372c-.38268-.19135-.76536-.28702-1.24372-.28702h-1.33939c-.47835 0-.86104.0957-1.24372.28702-.38269.19134-.6697.38268-.95671.76536-.19134.28702-.38268.6697-.38268 1.05238v3.92251c0 .38268.0957.6697.38268.95671.19134.28701.57402.57402.95671.76537.38268.19134.76537.28701 1.24372.28701h1.33939c.47836 0 .86104-.0957 1.24372-.28701.38269-.19135.6697-.38269.95671-.76537.19134-.28701.38269-.6697.38269-.95671v-3.92251c0-.38268-.0957-.76536-.38269-1.05238-.28701-.28701-.57402-.57402-.95671-.76536zm-.57402 1.24372c.19134.19134.38268.38268.38268.57402v3.82684c0 .19134-.0957.38268-.38268.57402-.19134.19135-.47836.28702-.76537.28702h-1.24372c-.28701 0-.57403-.0957-.76537-.28702-.19134-.19134-.28701-.38268-.28701-.57402v-3.82684c0-.19134.0957-.38268.28701-.57402.19134-.19134.47836-.19134.76537-.28701h1.24372c.28701 0 .57403.0957.76537.28701zm3.73116 11.28916v-2.10476h-10.81081v10.14112h10.90648v-2.2961h-8.03635v-1.91342h4.5922v-2.10476h-4.5922v-1.72208h7.94068m-11.95886 0c0-.66969-.19134-1.24372-.57402-1.6264-.38269-.38269-1.05238-.57403-1.91342-.57403h-8.89739v10.14112h8.22769c2.20043 0 3.25281-.76537 3.25281-2.20043v-1.24372c0-.86104-.38268-1.43507-1.14805-1.81775.6697-.28701 1.05238-.86104 1.05238-1.62641v-1.05238zm-2.77445.0957c.0957.0957.19134.19135.0957.38269v.95671c0 .0957 0 .28701-.0957.28701l-.6697.0957h-5.07056v-1.81775h5.07056c.38268-.0957.6697 0 .6697.0957zm-5.74026 5.74026v-2.00909h5.07056c.38268 0 .57403.0957.76537.0957.0957.0957.19134.28701.19134.47835v.76537c0 .19134-.0957.38269-.19134.47836-.0957.0957-.38269.19134-.76537.19134h-5.07056zm-4.11385-7.94069h-2.87012v7.84502h-6.12294v-7.84502h-2.87013v7.65368c0 .66969.0957 1.14805.28702 1.53073.19134.38268.47835.6697.86103.76537.38269.19134.95671.28701 1.62641.19134h6.31428c.66969 0 1.24372-.0957 1.6264-.19134.38269-.19135.6697-.38269.86104-.76537.19134-.38268.28701-.86104.28701-1.53073v-7.65368zm-13.20258 1.05238c-.19134-.38268-.47835-.66969-.86104-.76536-.38268-.19135-.95671-.19135-1.6264-.19135h-6.21861c-.6697 0-1.24372.0957-1.62641.19135-.38268.19134-.66969.38268-.86103.76536-.19134.38269-.28702.86104-.28702 1.53074v5.07056c0 .66969.0957 1.14805.28702 1.53073.19134.38268.47835.6697.86103.76537.38269.19134.95671.28701 1.62641.19134h6.21861c.66969 0 1.24372-.0957 1.6264-.19134.38269-.19135.6697-.38269.86104-.76537.19134-.38268.28701-.86104.28701-1.53073v-1.91342h-2.87012v2.10476h-6.02727v-5.64459h6.02727v1.81775h2.87012v-1.53073c0-.57403-.0957-1.14805-.28701-1.43507zm-13.48959 1.05238v-2.10476h-10.81082v10.14112h10.90649v-2.2961h-8.03636v-1.91342h4.5922v-2.10476h-4.5922v-1.72208h7.94069m-43.14758-12.72423h-1.53073v4.97489l-2.58312-4.97489h-2.10475v7.84502h1.53073v-6.12294l3.15714 6.12294h1.53073v-7.84502m10.33246 7.84502v-7.84502h-1.72208v7.84502h1.72208m10.23678 0v-6.12294l3.15714 6.12294h1.53074v-7.84502h-1.62641v4.97489l-2.58311-4.97489h-2.10476v7.84502h1.6264m11.57618-7.84502v1.24373h2.58312v6.60129h1.6264v-6.60129h2.67879v-1.24373h-6.88831m-3.63549 10.61947l-4.30519 7.17532-4.30519-7.17532h-2.58312v8.32337l-5.07055-8.32337h-2.48745l-6.12293 10.14112h7.65367v-2.2961h-3.44415l3.15714-5.07056 4.20951 7.36666h4.68788v-5.45324l3.25281 5.45324h2.10476l3.25281-5.45324v5.45324h2.58311V208.5626h-2.58311m-24.58742 2.20043v-2.20043h-9.56709c-.6697 0-1.24372.0957-1.6264.19135-.38269.19134-.6697.38268-.86104.76536-.19134.38269-.28702.86104-.28702 1.53074v5.07055c0 .6697.0957 1.14805.28702 1.53074.19134.38268.47835.66969.86104.76537.38268.19134.9567.28701 1.6264.19134h6.98398c.9567 0 1.72207-.19134 2.10476-.57403.38268-.38268.57402-1.05238.57402-2.00909v-3.63549h-6.60129v2.10476h3.82683v1.72208h-6.79263v-5.64459h9.47142v.19134z" fill="#b7b7b7" fill-rule="evenodd"/>
<path d="M58.93327 75.771376c.861038-2.391772 1.243721-3.635494 2.104759-6.027266.669696.191342.956709.382684 1.626405.669696l1.148051.574026c.287013.191342.382684.574025.478355.861038 0 .382683-.09567.765367-.287013 1.243721-.191342.382684-.478355.765368-.765367.956709-.287013.191342-.574026.287013-.861038.382684-.287013 0-.669697-.09567-1.243722-.287013-.191342-.09567-.382683-.09567-.574025-.191342-.382684.861038-.478355 1.339393-.861038 2.296102-.191342-.287013-.382684-.287013-.765367-.478355zm2.774455-4.592202c-.287012.669696-.382683 1.052379-.669696 1.722076.191342.09567.287013.09567.478355.191341.382683.09567.574025.191342.765367.191342s.287012 0 .382683-.09567c.09567-.09567.287013-.287012.382684-.478354.09567-.191342.09567-.382684.09567-.574026 0-.191341-.09567-.287012-.191342-.382683-.09567-.09567-.382684-.287013-.765367-.382684-.191342-.09567-.287013-.09567-.478355-.191341zm3.826836 4.209519c.382684-.669696.765367-1.148051 1.243722-1.435064.478354-.287012.861038-.478354 1.339392-.478354.478355 0 .861038.191342 1.339393.478354.574025.478355.956709 1.05238.956709 1.817747 0 .765367-.382684 1.530735-1.05238 2.296102-.669696.861038-1.435064 1.339392-2.10476 1.530734-.574025.191342-1.148051.09567-1.626405-.287013-.478354-.382683-.765367-.861038-.765367-1.530734-.09567-.669696.09567-1.435063.669696-2.391772zm.861038.478354c-.382683.669696-.574025 1.148051-.574025 1.626405 0 .478355.09567.765368.382683.956709.287013.191342.669697.191342 1.05238.09567.382684-.191342.861038-.478354 1.339393-1.14805.478354-.574026.669696-1.05238.765367-1.530735 0-.478354-.191342-.765367-.478355-1.05238-.382683-.287012-.765367-.287012-1.14805-.191341-.478355.287012-.956709.669696-1.339393 1.243721zm2.965798 6.696964c1.626405-2.00909 2.296101-3.157141 3.731165-5.2619l.765367.765367c-1.05238 1.435063-1.626405 2.104759-2.678785 3.539823 1.530734-.95671 2.296101-1.339393 3.922506-2.200431.287013.382684.478355.574026.765367.956709-1.14805 1.435062-1.817746 2.104762-3.061468 3.444152 1.626405-.86104 2.391772-1.24372 4.113848-2.00909.287013.38269.382684.57403.574026.86104-2.391773.95671-3.635494 1.53073-5.931596 2.67878-.191341-.28701-.287012-.47835-.574025-.76536 1.339392-1.43507 1.913418-2.20043 3.157139-3.73117-1.722076.95671-2.583114 1.43507-4.209519 2.39177-.191342-.28701-.287013-.38268-.574025-.66969zm3.922506 5.35757c2.200431-1.24372 3.348482-1.81775 5.644583-3.06147.765367 1.33939 1.05238 2.10476 1.722076 3.53982-.382684.19134-.574025.28702-1.05238.38269-.382683-1.05238-.669696-1.53074-1.14805-2.48745-.478355.28702-.765368.38269-1.243722.6697.478354.86104.669696 1.33939 1.05238 2.20043-.382684.19134-.574026.28701-.956709.38268-.382684-.86103-.574026-1.33939-.956709-2.20043l-1.530734.76537c.478354.86104.669696 1.33939 1.052379 2.2961-.382683.19134-.574025.28701-1.052379.38269-.669697-1.14806-.956709-1.72208-1.530735-2.87013zm2.10476 5.16623c2.487443-.76537 3.731165-1.05238 6.122937-1.81775.287013.86104.382684 1.33939.574025 2.20043.09567.57403.191342.95671.09567 1.24372-.09567.28701-.191341.47836-.478354.6697-.287013.19134-.574025.28701-.956709.38268-.478355.0957-.956709 0-1.243722-.19134-.382683-.19134-.574025-.47835-.765367-.86104-.09567.19134-.287012.47836-.478354.57403-.191342.19134-.478355.38268-.956709.66969-.478355.28702-.669696.47836-1.148051.76537-.09567-.38268-.09567-.6697-.191342-1.05238.478355-.38268.765367-.57402 1.243722-.86104.478354-.38268.765367-.57402.861038-.66969.09567-.0957.191342-.19135.191342-.38269v-.47835c0-.0957 0-.0957-.09567-.19134-1.05238.28701-1.530734.38268-2.583114.66969 0-.19134-.09567-.28701-.191342-.66969zm3.826836-.0957c.09567.28701.09567.47835.191341.76536.09567.47836.191342.76537.287013.86104l.287013.28701c.09567.0957.287012.0957.478354 0 .191342 0 .382684-.0957.478355-.19134.09567-.0957.191342-.19134.191342-.38268 0-.0957 0-.38269-.09567-.86104-.09567-.28701-.09567-.47835-.191342-.76537-.669696.0957-.956709.19135-1.626405.28702zM55.489117 338.77066c.478355-2.2961.669697-3.44415 1.148051-5.83593 1.243722.28702 1.817747.38269 3.061469.76537.765367.19134 1.243721.47836 1.530734.6697.287013.19134.478354.47835.574025.76536.09567.28702.09567.6697-.09567.95671-.191341.38269-.478354.6697-.861038.86104-.382683.19134-.861038.19134-1.435063.0957.191342.19134.382684.47836.478354.6697.09567.19134.191342.57402.287013 1.14805.09567.57402.191342.76537.191342 1.33939-.478355-.19134-.765367-.28701-1.339393-.57402-.191341-.57403-.191341-.86104-.382683-1.53074-.191342-.57402-.287013-.86104-.382684-1.05238-.09567-.19134-.191341-.28701-.287012-.38268-.09567-.0957-.287013-.19134-.669697-.19134-.09567 0-.191341 0-.287012-.0957-.191342.9567-.382684 1.43506-.574026 2.39177-.191341.19134-.478354.0957-.956709 0zm2.009089-3.06147c.382684.0957.574026.19134.956709.28701.574025.19134.956709.28701 1.148051.28701.191342 0 .287012 0 .478354-.0957.09567-.0957.287013-.19134.287013-.38268.09567-.19134.09567-.38268 0-.47835-.09567-.19135-.191342-.28702-.382684-.38269-.09567-.0957-.478354-.19134-1.14805-.38268-.478355-.0957-.669697-.19134-1.05238-.28701-.09567.57402-.09567.86103-.287013 1.43506zm3.635494 4.87921c1.05238-2.10475 1.530734-3.25281 2.487443-5.35757 1.913418.95671 2.870127 1.43507 4.592203 2.67879-.191342.28701-.382683.47835-.574025.86104-1.243722-.86104-1.913418-1.24372-3.252811-2.00909-.287012.47835-.382683.6697-.574025 1.14805 1.148051.6697 1.722076.95671 2.870127 1.72208-.191342.28701-.382684.47835-.574026.86103-1.052379-.76536-1.626405-1.05238-2.774455-1.72207-.287013.57402-.478355.86104-.765368 1.43506 1.243722.6697 1.817747.95671 2.870127 1.81775-.191342.28701-.382683.47835-.574025.86104-1.339393-1.05238-2.10476-1.53074-3.731165-2.29611zm5.548912 1.14806c.382683.28701.669696.38268 1.05238.66969-.382684.6697-.287013 1.24372.287012 1.72208.287013.28701.574026.38268.765367.47835.287013 0 .478355 0 .669697-.19134.09567-.0957.191341-.19134.191341-.28701 0-.0957 0-.28701-.09567-.38269-.09567-.19134-.287013-.47835-.669697-1.05238-.287012-.47835-.574025-.86103-.669696-1.14805-.09567-.28701-.191342-.57402-.09567-.86103 0-.28702.09567-.57403.287013-.76537.191342-.28701.478354-.38269.765367-.47836.287013-.0957.669696 0 1.05238.0957.382683.19135.765367.38269 1.148051.76537.669696.57403.956708 1.14805 1.052379 1.72208.09567.57402-.09567 1.05238-.478354 1.43506l-.956709-.95671c.191342-.28701.287013-.47835.191342-.76536-.09567-.19135-.191342-.47836-.478355-.76537-.287012-.28701-.574025-.38269-.765367-.47836-.191342-.0957-.382683 0-.478354.0957-.09567.0957-.09567.28702-.09567.47836.09567.19134.287012.57402.669696 1.05238.382684.57402.574025 1.05238.669696 1.33939.09567.28701.09567.6697 0 .86104-.09567.28701-.287012.57402-.478354.76537-.382684.38268-.861038.47835-1.339393.47835-.478354 0-1.052379-.38268-1.626405-.86104-1.05238-.76536-1.243721-1.81774-.574025-2.96579zm2.965797 5.45324c1.817747-1.53074 2.774456-2.20043 4.592203-3.73117 1.339393 1.62641 2.009089 2.58312 2.965798 4.49653-.382684.19135-.478355.28702-.861038.47836-.765367-1.33939-1.148051-2.00909-2.009089-3.15714-.382683.28701-.669696.47835-1.05238.76537.765368 1.05238 1.148051 1.6264 1.817747 2.87012-.382683.19134-.478354.28702-.861038.47836-.669696-1.14805-.956709-1.72208-1.722076-2.67879-.478354.38269-.765367.57403-1.339392.95671.765367 1.05238 1.14805 1.62641 1.817747 2.87013-.382684.19134-.574026.28701-.861038.47835-.861038-1.6264-1.435064-2.39177-2.487444-3.82683zm3.444153 5.83592c1.817747-.76537 2.678785-1.14805 4.496532-1.91342-.287013-.76536-.478355-1.14805-.861039-1.91341.382684-.19135.574026-.28702.861039-.47836 1.052379 2.10476 1.530734 3.15714 2.20043 5.45324-.382684.0957-.574025.19134-.956709.28701-.191342-.86103-.382683-1.24372-.669696-2.00908-1.817747.66969-2.774456 1.05238-4.592203 1.72207-.191342-.47835-.287013-.76537-.478354-1.14805zm252.379818 2.58311c-.57403-.0957-1.05238-.28701-1.3394-.57402-.28701-.38268-.57402-.76537-.66969-1.24372-.0957-.47836-.0957-1.14805.0957-1.81775.28701-.95671.76536-1.72208 1.33939-2.10476.57403-.38268 1.33939-.47835 2.00909-.19134.76537.28701 1.14805.86104 1.43506 1.53073.19134.57403.19134 1.24373 0 2.00909-.19134.76537-.47835 1.43507-.95671 1.81775-.57402.47835-1.14805.6697-1.91341.57402zm.0957-1.24372c.57402.0957.9567 0 1.33939-.28701.28701-.28701.57402-.57402.66969-1.05238.0957-.47835.0957-.86104-.0957-1.24372-.19134-.38268-.47835-.6697-1.05238-.86104-.47835-.19134-.9567-.19134-1.33939.0957-.38268.28701-.57402.6697-.76537 1.14805-.19134.57403-.0957 1.05238.0957 1.43507.28701.38268.66969.57402 1.14805.76536zm4.01817-4.5922c-1.72207-.86104-2.58311-1.24372-4.30519-2.00909.38269-.86104.57403-1.24372 1.05238-2.00909.47836-.76536.76537-1.14805.95671-1.33939.28701-.28701.6697-.47835.95671-.57402.38268-.0957.6697 0 .95671.28701.28701.19134.47835.47835.47835.76536.0957.28702 0 .57403-.0957.95671-.0957.28702-.38268.76537-.76536 1.43507-.19135.28701-.28702.38268-.38269.66969.6697.38269.95671.47836 1.62641.86104l-.47836.95671zm-2.96579-2.87013c.47835.28702.66969.38269 1.14805.6697.0957-.28701.19134-.38268.38268-.57403.28701-.38268.38268-.66969.47835-.86103.0957-.19135.0957-.28702.0957-.47836s-.0957-.28701-.19135-.38268c-.0957-.0957-.28701-.0957-.47835-.0957s-.28701.0957-.38268.28701c-.0957.0957-.38269.38268-.6697.95671-.19134.0957-.28701.19134-.38268.47835zm5.74025-1.43506c-1.43506-1.24372-2.20043-1.91342-3.63549-3.15714 1.33939-1.53073 2.10475-2.2961 3.73116-3.53982.19134.28701.28701.38268.47835.66969-1.14805.86104-1.72207 1.3394-2.77445 2.39178l.76537.76536c.86103-.95671 1.33939-1.33939 2.39177-2.10476.19134.28702.28701.38269.47835.6697-.95671.76537-1.43506 1.14805-2.2961 2.10476.38268.38268.57403.57403.95671.86104.86104-.95671 1.43506-1.33939 2.48744-2.10476.19135.28701.28702.38268.47836.66969-1.33939.86104-1.91342 1.43507-3.06147 2.77446zm3.92251-3.44415c-1.05238-1.62641-1.62641-2.39177-2.67879-3.92251.47836-.28701.6697-.47835 1.14805-.76537 1.62641.47836 2.39177.86104 3.82684 1.62641-.47836-1.14805-.76537-1.72208-1.24372-2.9658.47835-.19134.76536-.28701 1.24372-.47835.66969 1.81774.95671 2.67878 1.6264 4.49653-.47835.19134-.66969.28701-1.05238.47835-1.33939-.76536-2.10476-1.05238-3.63549-1.6264.66969 1.05238.95671 1.6264 1.6264 2.67878-.28701.0957-.47835.19135-.86103.47836z" fill="#b7b7b7"/>
<path d="m353.5 429.08h-307.1c-2.3918 0-4.3052-1.9134-4.3052-4.3052h315.71c0 2.3918-1.9134 4.3052-4.3052 4.3052z" fill="#d8d8d8"/>
</svg>
