<?xml version="1.0" encoding="UTF-8"?>
<svg enable-background="new 0 0 535.779 376.05" viewBox="0 0 535.78 376.05" xmlns="http://www.w3.org/2000/svg" xmlns:xlink="http://www.w3.org/1999/xlink">
<linearGradient id="a">
<stop stop-color="#dfdede" offset="0"/>
<stop stop-color="#292b29" offset="1"/>
</linearGradient>
<linearGradient id="b" x1="436.12" x2="502.67" y1="45.924" y2="86.43" gradientUnits="userSpaceOnUse" xlink:href="#a"/>
<linearGradient id="c">
<stop stop-color="#524f4f" offset="0"/>
<stop stop-color="#2e2d2d" offset="1"/>
</linearGradient>
<linearGradient id="d" x1="456.52" x2="486.99" y1="20.528" y2="41.121" gradientUnits="userSpaceOnUse" xlink:href="#c"/>
<linearGradient id="e">
<stop stop-color="#fff" offset="0"/>
<stop stop-color="#333" offset="1"/>
</linearGradient>
<linearGradient id="f" x1="463.96" x2="465.03" y1="-2.7833" y2="338.47" gradientUnits="userSpaceOnUse" xlink:href="#e"/>
<linearGradient id="g" x1="463.31" x2="526.75" y1="5.9323" y2="4.8608" gradientUnits="userSpaceOnUse" xlink:href="#e"/>
<linearGradient id="h" x1="459.06" x2="527.82" y1="-2.2514" y2="6.284" gradientUnits="userSpaceOnUse">
<stop stop-color="#878787" offset="0"/>
<stop stop-color="#070308" offset="1"/>
</linearGradient>
<linearGradient id="i">
<stop stop-color="#383838" offset="0"/>
<stop stop-color="#595959" offset="1"/>
</linearGradient>
<linearGradient id="j" x1="495.67" x2="495.67" y1="349.55" y2="344.12" gradientUnits="userSpaceOnUse" xlink:href="#i"/>
<linearGradient id="k" x1="-23.011" x2="43.538" y1="46.64" y2="87.145" gradientUnits="userSpaceOnUse" xlink:href="#a"/>
<linearGradient id="l" x1="-2.6201" x2="27.858" y1="21.244" y2="41.837" gradientUnits="userSpaceOnUse" xlink:href="#c"/>
<linearGradient id="m" x1="4.8223" x2="5.8938" y1="-2.0673" y2="339.19" gradientUnits="userSpaceOnUse" xlink:href="#e"/>
<linearGradient id="n" x1="4.1785" x2="67.617" y1="6.6482" y2="5.5767" gradientUnits="userSpaceOnUse" xlink:href="#e"/>
<linearGradient id="o" x1="-.0757" x2="68.688" y1="-1.5343" y2="7.0006" gradientUnits="userSpaceOnUse">
<stop stop-color="#8f8f8f" offset="0"/>
<stop stop-color="#070308" offset="1"/>
</linearGradient>
<linearGradient id="p" x1="36.531" x2="36.531" y1="350.27" y2="344.84" gradientUnits="userSpaceOnUse" xlink:href="#i"/>
<linearGradient id="q" x1="267.17" x2="267.17" y1="327.36" y2="303.73" gradientUnits="userSpaceOnUse">
<stop stop-color="#474747" offset="0"/>
<stop stop-color="#969696" offset="1"/>
</linearGradient>
<linearGradient id="r" x1="267.17" x2="267.17" y1="328.06" y2="337.37" gradientUnits="userSpaceOnUse">
<stop stop-color="#383838" offset="0"/>
<stop stop-color="#818080" offset="1"/>
</linearGradient>
<linearGradient id="s" x1="55.154" x2="479.19" y1="345.97" y2="345.97" gradientUnits="userSpaceOnUse">
<stop stop-color="#b6b5b5" offset="0"/>
<stop stop-color="#626161" offset=".48"/>
<stop stop-color="#a3a3a4" offset="1"/>
</linearGradient>
<linearGradient id="t" x1="267.17" x2="267.17" y1="354.56" y2="365.07" gradientUnits="userSpaceOnUse">
<stop stop-color="#5e5c5b" offset="0"/>
<stop stop-color="#100f10" offset="1"/>
</linearGradient>
<linearGradient id="u">
<stop stop-color="#fff" offset="0"/>
<stop stop-color="#afb0b0" offset="1"/>
</linearGradient>
<linearGradient id="v" x1="62.674" x2="62.674" y1="327.34" y2="337.37" gradientUnits="userSpaceOnUse" xlink:href="#u"/>
<linearGradient id="w" x1="471.67" x2="471.67" y1="327.34" y2="337.37" gradientUnits="userSpaceOnUse" xlink:href="#u"/>
<linearGradient id="x" x1="57.742" x2="351.42" y1="43.034" y2="230.7" gradientUnits="userSpaceOnUse">
<stop stop-color="#383838" offset="0"/>
<stop stop-color="#292b29" offset="1"/>
</linearGradient>
<linearGradient id="y" x1="76.493" x2="191.1" y1="30.175" y2="159.82" gradientUnits="userSpaceOnUse" xlink:href="#a"/>
<linearGradient id="z" x1="69.149" x2="469.44" y1="65.687" y2="291.86" gradientUnits="userSpaceOnUse">
<stop stop-color="#070308" offset="0"/>
<stop stop-color="#384245" offset="1"/>
</linearGradient>
<linearGradient id="ah" x1="70.528" x2="469.43" y1="67.03" y2="290.45" gradientUnits="userSpaceOnUse">
<stop stop-color="#747575" offset="0"/>
<stop stop-color="#171b1e" offset="1"/>
</linearGradient>
<linearGradient id="ag" x1="267.17" x2="267.17" y1="302.27" y2="305.86" gradientUnits="userSpaceOnUse">
<stop stop-color="#404040" offset="0"/>
<stop stop-color="#8c8c8c" offset="1"/>
</linearGradient>
<linearGradient id="af" x1="50.488" x2="51.205" y1="45.104" y2="287.92" gradientUnits="userSpaceOnUse" xlink:href="#e"/>
<linearGradient id="D">
<stop stop-color="#fff" offset="0"/>
<stop stop-color="#292b29" offset="1"/>
</linearGradient>
<linearGradient id="ae" x1="44.432" x2="464.17" y1="50.509" y2="49.792" gradientUnits="userSpaceOnUse" xlink:href="#D"/>
<linearGradient id="ad" x1="267.89" x2="267.89" y1="318.04" y2="327.35" gradientUnits="userSpaceOnUse">
<stop stop-color="#7e7d7d" offset="0"/>
<stop stop-color="#3d3d3d" offset="1"/>
</linearGradient>
<linearGradient id="ac" x1="57.65" x2="58.366" y1="52.261" y2="295.08" gradientUnits="userSpaceOnUse" xlink:href="#e"/>
<linearGradient id="ab" x1="52.31" x2="472.05" y1="58.388" y2="57.671" gradientUnits="userSpaceOnUse" xlink:href="#D"/>
<linearGradient id="aa" x1="46.012" x2="186.36" y1="107.89" y2="192.36" gradientUnits="userSpaceOnUse">
<stop stop-color="#adadad" offset="0"/>
<stop stop-color="#575959" offset="1"/>
</linearGradient>
<g clip-rule="evenodd" fill-rule="evenodd">
<path d="m453.4 352.06c0 3.755 3.415 6.803 7.624 6.803h67.132c4.205 0 7.62-3.048 7.62-6.803s-3.415-6.803-7.62-6.803h-67.132c-4.209 0-7.624 3.048-7.624 6.803z" fill="#f0f0f0"/>
<path d="m455.41 351.13c0 2.912 3.105 5.279 6.926 5.279h64.918c3.821 0 6.926-2.367 6.926-5.279s-3.105-5.275-6.926-5.275h-64.918c-3.822 0-6.926 2.362-6.926 5.275z" fill="#cac9c9"/>
<path d="m456.93 350.42v4e-3c0 2.271 2.869 4.114 6.397 4.114h63.232c3.528 0 6.397-1.843 6.397-4.114v-4e-3c0-2.271-2.869-4.113-6.397-4.113h-63.232c-3.528 0-6.397 1.842-6.397 4.113z" fill="#a2a1a1"/>
<path d="m458.13 349.87v4e-3c0 1.764 2.681 3.196 5.982 3.196h61.9c3.301 0 5.982-1.432 5.982-3.196v-4e-3c0-1.764-2.681-3.196-5.982-3.196h-61.9c-3.301-1e-3 -5.982 1.432-5.982 3.196z" fill="#797878"/>
<path d="m459.1 349.42c0 1.358 2.528 2.463 5.642 2.463h60.835c3.113 0 5.642-1.105 5.642-2.463s-2.528-2.463-5.642-2.463h-60.835c-3.114 1e-3 -5.642 1.105-5.642 2.463z" fill="#4f4f4f"/>
<path d="m459.897 349.051v.004c0 1.022 2.406 1.852 5.371 1.852h59.949c2.961 0 5.367-.83 5.367-1.852v-.004c0-1.022-2.406-1.852-5.367-1.852h-59.949c-2.965.001-5.371.831-5.371 1.852z" fill="#262525"/>
<path d="m460.569 348.741v.004c0 .738 2.301 1.341 5.135 1.341h59.211c2.834 0 5.135-.603 5.135-1.341v-.004c0-.738-2.301-1.341-5.135-1.341h-59.211c-2.833 0-5.135.603-5.135 1.341z"/>
<path d="m461.28 0h70.913v344.54h-70.913z"/>
<path d="m460.56 9e-3v164.74l70.909-164.74z" fill="url(#b)"/>
<path d="m463.43 4.301h64.464v342.38h-64.464z" fill="#2e2e2e"/>
<path d="m463.76 4.484v73.595l46.949-73.595z" fill="url(#d)"/>
<path d="m496.38 28.658c10.676 0 19.344 8.663 19.344 19.34s-8.668 19.34-19.344 19.34c-10.672 0-19.339-8.663-19.339-19.34s8.668-19.34 19.339-19.34z" fill="#333"/>
<path d="m496.38 38.683c5.144 0 9.314 4.175 9.314 9.314 0 5.14-4.17 9.31-9.314 9.31-5.139 0-9.309-4.17-9.309-9.31 0-5.139 4.17-9.314 9.309-9.314z" fill="#2e2e2e"/>
<path d="m496.38 85.961c10.676 0 19.344 8.663 19.344 19.34 0 10.676-8.668 19.34-19.344 19.34-10.672 0-19.339-8.664-19.339-19.34 0-10.677 8.668-19.34 19.339-19.34z" fill="#333"/>
<path d="m496.38 95.986c5.144 0 9.314 4.174 9.314 9.314 0 5.139-4.17 9.309-9.314 9.309-5.139 0-9.309-4.17-9.309-9.309s4.17-9.314 9.309-9.314z" fill="#2e2e2e"/>
<path d="m496.38 145.41c10.676 0 19.344 8.663 19.344 19.34 0 10.676-8.668 19.34-19.344 19.34-10.672 0-19.339-8.663-19.339-19.34 0-10.676 8.668-19.34 19.339-19.34z" fill="#333"/>
<path d="m496.38 155.44c5.144 0 9.314 4.175 9.314 9.314 0 5.14-4.17 9.31-9.314 9.31-5.139 0-9.309-4.17-9.309-9.31 0-5.139 4.17-9.314 9.309-9.314z" fill="#2e2e2e"/>
<path d="m496.38 202.71c10.676 0 19.344 8.663 19.344 19.34 0 10.676-8.668 19.34-19.344 19.34-10.672 0-19.339-8.663-19.339-19.34s8.668-19.34 19.339-19.34z" fill="#333"/>
<path d="m496.38 212.74c5.144 0 9.314 4.174 9.314 9.314 0 5.139-4.17 9.309-9.314 9.309-5.139 0-9.309-4.17-9.309-9.309 0-5.14 4.17-9.314 9.309-9.314z" fill="#2e2e2e"/>
<path d="m497.1 263.6c10.672 0 19.34 8.663 19.34 19.34s-8.668 19.34-19.34 19.34c-10.676 0-19.344-8.663-19.344-19.34s8.668-19.34 19.344-19.34z" fill="#333"/>
<path d="m497.1 273.63c5.139 0 9.31 4.17 9.31 9.31s-4.17 9.314-9.31 9.314c-5.144 0-9.314-4.174-9.314-9.314 0-5.139 4.17-9.31 9.314-9.31z" fill="#2e2e2e"/>
<path d="m463.43 4.306h2.148v335.22h-2.148z" fill="url(#f)"/>
<path d="m464.87 4.306h62.315v2.148h-62.315z" fill="url(#g)"/>
<path d="m460.56 9e-3 2.869 5.013h64.464l3.58-5.013z" fill="url(#h)"/>
<path d="m459.13 344.54 4.302 5.017h64.464l4.3-5.017z" fill="url(#j)"/>
<path d="m0.712 352.77v5e-3c0 3.755 3.415 6.803 7.624 6.803h67.132c4.205 0 7.62-3.048 7.62-6.803v-5e-3c0-3.755-3.415-6.803-7.62-6.803h-67.132c-4.209 0-7.624 3.048-7.624 6.803z" fill="#f0f0f0"/>
<path d="m2.716 351.85c0 2.913 3.105 5.28 6.925 5.28h64.918c3.821 0 6.925-2.367 6.925-5.28 0-2.912-3.105-5.274-6.925-5.274h-64.918c-3.82-1e-3 -6.925 2.361-6.925 5.274z" fill="#cac9c9"/>
<path d="m4.24 351.14c0 2.271 2.869 4.113 6.397 4.113h63.232c3.528 0 6.397-1.843 6.397-4.113 0-2.271-2.869-4.118-6.397-4.118h-63.232c-3.528 0-6.397 1.847-6.397 4.118z" fill="#a2a1a1"/>
<path d="m5.441 350.59c0 1.764 2.681 3.201 5.982 3.201h61.9c3.301 0 5.982-1.437 5.982-3.201 0-1.768-2.681-3.201-5.982-3.201h-61.9c-3.301 0-5.982 1.433-5.982 3.201z" fill="#797878"/>
<path d="m6.41 350.14c0 1.358 2.528 2.463 5.642 2.463h60.835c3.113 0 5.642-1.105 5.642-2.463s-2.528-2.463-5.642-2.463h-60.835c-3.114 0-5.642 1.104-5.642 2.463z" fill="#4f4f4f"/>
<path d="m7.209 349.767v.004c0 1.022 2.402 1.852 5.367 1.852h59.949c2.965 0 5.367-.829 5.367-1.852v-.004c0-1.022-2.402-1.852-5.367-1.852h-59.949c-2.965.001-5.367.83-5.367 1.852z" fill="#262525"/>
<path d="m7.877 349.461c0 .742 2.301 1.341 5.135 1.341h59.211c2.834 0 5.135-.598 5.135-1.341 0-.742-2.301-1.345-5.135-1.345h-59.211c-2.833.001-5.135.603-5.135 1.345z"/>
<path d="m52.285 369.24v4e-3c0 3.755 3.415 6.803 7.62 6.803h415.24c4.205 0 7.62-3.048 7.62-6.803v-4e-3c0-3.756-3.415-6.803-7.62-6.803h-415.24c-4.205 0-7.62 3.048-7.62 6.803z" fill="#fff"/>
<path d="m54.818 368.25c0 3.205 3.332 5.807 7.441 5.807l410.66 5e-3c4.109 0 7.445-2.607 7.445-5.812s-3.336-5.812-7.445-5.812h-410.66c-4.109 0-7.441 2.607-7.441 5.812z" fill="#eeedec"/>
<path d="m56.639 367.54c0 2.812 3.279 5.096 7.314 5.096h407.36c4.039 0 7.314-2.284 7.314-5.096s-3.279-5.092-7.314-5.092l-407.36-4e-3c-4.035 0-7.314 2.284-7.314 5.096z" fill="#dfdede"/>
<path d="m58.014 366.99v4e-3c0 2.511 3.236 4.55 7.218 4.55l404.87 5e-3c3.982 0 7.218-2.044 7.218-4.555 0-2.515-3.236-4.554-7.218-4.554l-404.87-4e-3c-3.982 0-7.218 2.044-7.218 4.554z" fill="#cfcfce"/>
<path d="m59.088 366.57c0 2.279 3.201 4.131 7.144 4.131h402.93c3.939 0 7.14-1.852 7.14-4.131s-3.201-4.131-7.144-4.131l-402.93-4e-3c-3.943 0-7.144 1.856-7.144 4.135z" fill="#bdbdbc"/>
<path d="m59.984 366.22c0 2.087 3.175 3.781 7.082 3.781h401.31c3.908 0 7.078-1.694 7.078-3.777v-4e-3c0-2.083-3.17-3.777-7.078-3.777h-401.31c-3.904-1e-3 -7.078 1.689-7.078 3.777z" fill="#adadad"/>
<path d="m60.8 365.9c0 1.908 3.148 3.458 7.021 3.458l399.84 4e-3c3.873 0 7.022-1.55 7.022-3.463 0-1.908-3.148-3.458-7.022-3.458h-399.83c-3.878 0-7.022 1.55-7.022 3.459z" fill="#9f9f9f"/>
<path d="m61.547 365.61c0 1.747 3.122 3.166 6.969 3.166l398.48 4e-3c3.842 0 6.969-1.419 6.969-3.17 0-1.747-3.127-3.166-6.973-3.166h-398.48c-3.847 0-6.969 1.42-6.969 3.166z" fill="#8f8f8f"/>
<path d="m62.232 365.34c0 1.602 3.1 2.899 6.921 2.899h397.24c3.816 0 6.921-1.297 6.921-2.895 0-1.602-3.105-2.899-6.926-2.899h-397.24c-3.821 0-6.922 1.297-6.922 2.895z" fill="#818080"/>
<path d="m62.861 365.09c0 1.463 3.083 2.65 6.877 2.65h396.1c3.799 0 6.877-1.188 6.877-2.65 0-1.463-3.083-2.651-6.877-2.651h-396.1c-3.795 0-6.878 1.188-6.878 2.651z" fill="#6e6e6e"/>
<path d="m63.446 364.86c0 1.336 3.061 2.423 6.834 2.423h395.05c3.773 0 6.833-1.083 6.833-2.419s-3.061-2.423-6.838-2.423h-395.04c-3.773-1e-3 -6.834 1.082-6.834 2.419z" fill="#5f5e5e"/>
<path d="m63.988 364.648v.004c0 1.218 3.048 2.205 6.799 2.205l394.066.004c3.751 0 6.798-.991 6.798-2.21 0-1.218-3.048-2.209-6.803-2.209h-394.066c-3.751.001-6.794.988-6.794 2.206z" fill="#4f4f4f"/>
<path d="m64.49 364.45c0 1.109 3.03 2.013 6.764 2.013h393.16c3.729 0 6.76-0.899 6.76-2.008s-3.031-2.013-6.764-2.013h-393.16c-3.729-1e-3 -6.759 0.899-6.759 2.008z" fill="#404040"/>
<path d="m64.957 364.269c0 1.009 3.017 1.826 6.733 1.826l392.307.004c3.716 0 6.728-.821 6.728-1.825 0-1.009-3.017-1.83-6.728-1.83h-392.311c-3.712-.001-6.729.816-6.729 1.825z" fill="#2e2d2d"/>
<path d="m65.398 364.1c0 0.913 3 1.655 6.698 1.655h391.52c3.694 0 6.698-0.742 6.698-1.655s-3.005-1.655-6.703-1.655h-391.51c-3.699 0-6.699 0.743-6.699 1.655z" fill="#1f1e1e"/>
<path d="m65.809 363.937c0 .825 2.987 1.493 6.668 1.493h390.773c3.681 0 6.668-.668 6.668-1.493 0-.821-2.987-1.493-6.668-1.493h-390.774c-3.681-.001-6.667.668-6.667 1.493z" fill="#100f10"/>
<path d="m66.193 363.784c0 .742 2.978 1.345 6.642 1.345h390.08c3.663 0 6.642-.603 6.642-1.341 0-.742-2.978-1.345-6.646-1.345h-390.077c-3.667 0-6.641.603-6.641 1.341z"/>
<path d="m1.432.716h71.629v344.54h-71.629z"/>
<path d="m1.432 0.725v164.74l70.909-164.74z" fill="url(#k)"/>
<path d="m4.297 5.017h64.464v342.38h-64.464z" fill="#2e2e2e"/>
<path d="m4.62 5.201v73.594l46.954-73.594z" fill="url(#l)"/>
<path d="m37.247 29.374c10.672 0 19.34 8.664 19.34 19.34s-8.667 19.34-19.34 19.34c-10.676 0-19.344-8.663-19.344-19.34s8.668-19.34 19.344-19.34z" fill="#333"/>
<path d="m37.247 39.4c5.139 0 9.31 4.174 9.31 9.314s-4.17 9.31-9.31 9.31c-5.144 0-9.314-4.17-9.314-9.31s4.17-9.314 9.314-9.314z" fill="#2e2e2e"/>
<path d="m37.247 86.677c10.672 0 19.34 8.663 19.34 19.34s-8.667 19.34-19.34 19.34c-10.676 0-19.344-8.663-19.344-19.34s8.668-19.34 19.344-19.34z" fill="#333"/>
<path d="m37.247 96.702c5.139 0 9.31 4.174 9.31 9.314 0 5.139-4.17 9.31-9.31 9.31-5.144 0-9.314-4.17-9.314-9.31s4.17-9.314 9.314-9.314z" fill="#2e2e2e"/>
<path d="m37.247 146.13c10.672 0 19.34 8.663 19.34 19.34 0 10.676-8.667 19.34-19.34 19.34-10.676 0-19.344-8.664-19.344-19.34 0-10.677 8.668-19.34 19.344-19.34z" fill="#333"/>
<path d="m37.247 156.15c5.139 0 9.31 4.174 9.31 9.314 0 5.139-4.17 9.309-9.31 9.309-5.144 0-9.314-4.17-9.314-9.309s4.17-9.314 9.314-9.314z" fill="#2e2e2e"/>
<path d="m37.247 203.43c10.672 0 19.34 8.663 19.34 19.34 0 10.676-8.667 19.34-19.34 19.34-10.676 0-19.344-8.663-19.344-19.34s8.668-19.34 19.344-19.34z" fill="#333"/>
<path d="m37.247 213.46c5.139 0 9.31 4.17 9.31 9.31s-4.17 9.31-9.31 9.31c-5.144 0-9.314-4.17-9.314-9.31s4.17-9.31 9.314-9.31z" fill="#2e2e2e"/>
<path d="m37.963 264.31c10.676 0 19.34 8.664 19.34 19.34s-8.663 19.34-19.34 19.34c-10.676 0-19.344-8.663-19.344-19.34 0-10.676 8.668-19.34 19.344-19.34z" fill="#333"/>
<path d="m37.963 274.34c5.14 0 9.31 4.17 9.31 9.309 0 5.14-4.17 9.314-9.31 9.314-5.139 0-9.314-4.174-9.314-9.314s4.175-9.309 9.314-9.309z" fill="#2e2e2e"/>
<path d="m4.297 5.022h2.148v335.22h-2.148z" fill="url(#m)"/>
<path d="m5.729 5.022h62.32v2.148h-62.32z" fill="url(#n)"/>
<path d="m1.432.725 2.865 5.013h64.464l3.58-5.013z" fill="url(#o)"/>
<path d="m0 345.25 4.297 5.018h64.464l4.3-5.018z" fill="url(#p)"/>
<path d="m68.044 302.99h398.25v24.353h-398.25z" fill="url(#q)"/>
<path d="m55.15 337.37h424.04l-12.894-10.026h-398.25z" fill="url(#r)"/>
<path d="m55.154 337.37h424.03v17.191h-424.03z" fill="url(#s)"/>
<path d="m55.15 354.56 9.266 8.597h406.52l8.253-8.597z" fill="url(#t)"/>
<path d="m55.87 337.37 12.174-10.026 1.433 10.026z" fill="url(#v)"/>
<path d="m478.48 337.37-12.178-10.026-1.432 10.026z" fill="url(#w)"/>
<path d="m48.233 47.277h433.82v256.25h-433.82z" fill="#808080"/>
<path d="m50.141 49.43h429.77v252.13h-429.77z" fill="url(#x)"/>
<path d="m50.137 49.43v162.42l230.32-162.42z" fill="url(#y)"/>
<path d="m58.735 58.735h413.3v235.66h-413.3z" fill="url(#z)"/>
<path d="m60.167 60.171h411.86v232.79h-411.86z" fill="url(#ah)"/>
<path d="m55.154 337.37h422.6v1.437h-422.6z" fill="#5e5e5e"/>
<path d="m56.586 336.66h421.89v0.712h-421.89z" fill="#949191"/>
<path d="m55.154 338.8h422.6v1.432h-422.6z" fill="#b0b0b0"/>
<path d="m55.15 337.38h1.437v17.191h-1.437z" fill="#404040"/>
<path d="m477.76 337.38h1.432v17.191h-1.432z" fill="#4f4f4f"/>
<path d="m68.044 303.7h1.437v23.641h-1.437z" fill="#404040"/>
<path d="m464.87 303.71h1.432v23.636h-1.432z" fill="#404040"/>
<path d="m472.03 58.735h1.437v234.94h-1.437z" fill="#616161"/>
<path d="m58.735 291.53h414.72v1.432h-414.72z" fill="#696969"/>
<path d="m69.477 326.63h395.39v0.716h-395.39z" fill="#575757"/>
<path d="m69.477 303.7h395.39v2.153h-395.39z" fill="url(#ag)"/>
<path d="m56.586 338.81h1.432v15.755h-1.432z" fill="#bfbfbf"/>
<path d="m68.044 327.34h398.25v1.432h-398.25z" fill="#333"/>
<path d="m50.137 50.146h1.437v238.52h-1.437z" fill="url(#af)"/>
<path d="m50.853 49.425h414.73v1.437h-414.73z" fill="url(#ae)"/>
<path d="m56.582 353.84h421.17v1.432h-421.17z" fill="#8c8c8c"/>
<path d="m68.761 327.34h398.25l-12.894-7.161h-372.46z" fill="url(#ad)"/>
<path d="m57.298 57.303h1.436v238.52h-1.436z" fill="url(#ac)"/>
<path d="m58.735 57.307h414.72v1.432h-414.72z" fill="url(#ab)"/>
<path d="m60.167 60.171v232.79h51.277l148.63-232.79z" fill="url(#aa)"/>
</g>
</svg>
