<?xml version="1.0" encoding="UTF-8"?>
<svg viewBox="0 0 794.82 490.75" xmlns="http://www.w3.org/2000/svg">
<path d="M784.531 20.332v-6.985H5.592l-2.923.001-.013-.001.013.001C1.23 13.348 0 14.415 0 15.705v131.497c0 1.29 1.193 2.358 2.631 2.358h6.18v5.043l775.72-.001v-8.08h6.861c1.438 0 2.631-1.068 2.631-2.358V22.963c0-1.438-1.068-2.631-2.358-2.631h-7.134z" fill="#858786"/>
<path d="m5.124 154.6c-1.438 0-2.669 1.187-2.669 2.626v330.9c0 1.438 1.228 2.628 2.669 2.628h783.13a2.647 2.647 0 0 0 2.628-2.628v-330.89a2.647 2.647 0 0 0-2.628-2.626h-783.13v-1e-3z" fill="#272727"/>
<path d="m561.89 316.92h25.423a2.423 2.423 0 0 1 2.457 2.388v25.448c0 1.386-1.073 2.501-2.457 2.501h-25.423c-1.384 0-2.457-1.117-2.457-2.501v-25.378a2.422 2.422 0 0 1 2.385-2.458h0.072zm-398.82 75.803h25.381c1.384 0 2.5 1.074 2.5 2.456v25.422c0 1.386-1.117 2.458-2.5 2.458h-25.381c-1.384 0-2.499-1.075-2.499-2.458v-25.422c0-1.382 1.116-2.456 2.499-2.456z" fill="#12724d"/>
<path d="m79.607 241.07h25.379a2.495 2.495 0 0 1 2.499 2.489v25.391a2.493 2.493 0 0 1-2.487 2.499h-25.391a2.495 2.495 0 0 1-2.499-2.491v-25.387a2.492 2.492 0 0 1 2.483-2.501h0.016zm37.878 0h25.379c1.386 0 2.5 1.117 2.5 2.501v25.379a2.495 2.495 0 0 1-2.491 2.499h-25.388a2.496 2.496 0 0 1-2.5-2.492v-25.386a2.495 2.495 0 0 1 2.489-2.501h0.011zm37.882 0h25.38c1.387 0 2.5 1.117 2.5 2.501v25.379a2.495 2.495 0 0 1-2.489 2.499h-25.391c-1.384 0-2.457-1.117-2.457-2.499v-25.379c1e-3 -1.387 1.07-2.501 2.457-2.501zm37.868 0h25.422c1.387 0 2.457 1.117 2.457 2.501v25.379c0 1.384-1.073 2.499-2.457 2.499h-25.422c-1.386 0-2.457-1.117-2.457-2.499v-25.379c0-1.387 1.071-2.501 2.457-2.501zm37.88 0h25.421c1.388 0 2.458 1.117 2.458 2.501v25.379c0 1.384-1.072 2.499-2.458 2.499h-25.421c-1.384 0-2.457-1.117-2.457-2.499v-25.379c1e-3 -1.387 1.072-2.501 2.457-2.501zm37.924 0h25.379c1.384 0 2.456 1.117 2.456 2.501v25.379c0 1.384-1.075 2.499-2.456 2.499h-25.379a2.497 2.497 0 0 1-2.499-2.495v-25.383a2.493 2.493 0 0 1 2.485-2.501h0.014zm37.88 0h25.38a2.5 2.5 0 0 1 2.501 2.497v25.383a2.497 2.497 0 0 1-2.495 2.499h-25.386a2.497 2.497 0 0 1-2.5-2.496v-25.382a2.495 2.495 0 0 1 2.489-2.501h0.011zm37.868 0h25.379a2.495 2.495 0 0 1 2.499 2.489v25.391a2.493 2.493 0 0 1-2.487 2.499h-25.391c-1.386 0-2.456-1.117-2.456-2.499v-25.379c-2e-3 -1.387 1.07-2.501 2.456-2.501zm37.881 0h25.379a2.496 2.496 0 0 1 2.499 2.493v25.387a2.495 2.495 0 0 1-2.491 2.499h-25.387c-1.386 0-2.458-1.117-2.458-2.499v-25.379c0-1.387 1.072-2.501 2.458-2.501zm37.879 0h25.424c1.384 0 2.456 1.117 2.456 2.501v25.379c0 1.382-1.079 2.499-2.456 2.499h-25.424c-1.384 0-2.458-1.117-2.458-2.499v-25.379c0-1.384 1.075-2.501 2.458-2.501zm37.881 0h25.422c1.385 0 2.458 1.117 2.458 2.501v25.379c0 1.384-1.076 2.499-2.458 2.499h-25.422c-1.386 0-2.457-1.117-2.457-2.499v-25.379c0-1.387 1.072-2.501 2.457-2.501zm37.922 0h25.377c1.389 0 2.458 1.117 2.458 2.501v25.379c0 1.384-1.071 2.499-2.458 2.499h-25.377a2.497 2.497 0 0 1-2.501-2.495v-25.383a2.497 2.497 0 0 1 2.491-2.501h0.01zm37.866 0h25.379a2.495 2.495 0 0 1 2.499 2.489v25.391a2.495 2.495 0 0 1-2.489 2.499h-25.389a2.497 2.497 0 0 1-2.5-2.494v-25.384a2.495 2.495 0 0 1 2.487-2.501h0.013zm-426.94 75.845h25.379c1.387 0 2.501 1.073 2.501 2.458v25.378a2.495 2.495 0 0 1-2.487 2.501h-25.393c-1.385 0-2.458-1.117-2.458-2.501v-25.378a2.422 2.422 0 0 1 2.385-2.458h0.073zm37.884 0h25.422c1.385 0 2.456 1.073 2.456 2.458v25.378c0 1.386-1.072 2.501-2.456 2.501h-25.422c-1.386 0-2.458-1.117-2.458-2.501v-25.378c-1e-3 -1.388 1.074-2.458 2.458-2.458zm37.867 0h25.422a2.422 2.422 0 0 1 2.458 2.385v25.451c0 1.386-1.071 2.501-2.458 2.501h-25.422c-1.385 0-2.458-1.117-2.458-2.501v-25.378c0-1.388 1.071-2.458 2.458-2.458zm37.922 0h25.379a2.423 2.423 0 0 1 2.457 2.389v25.447c0 1.386-1.073 2.501-2.457 2.501h-25.379a2.495 2.495 0 0 1-2.5-2.49v-25.389c-1e-3 -1.388 1.115-2.458 2.5-2.458zm37.881 0h25.379c1.387 0 2.501 1.073 2.501 2.458v25.378a2.495 2.495 0 0 1-2.487 2.501h-25.393a2.495 2.495 0 0 1-2.499-2.491v-25.388c0-1.388 1.113-2.458 2.499-2.458zm37.88 0h25.38c1.387 0 2.499 1.073 2.499 2.458v25.378a2.495 2.495 0 0 1-2.487 2.501h-25.392a2.497 2.497 0 0 1-2.499-2.495v-25.384c0-1.388 1.117-2.458 2.499-2.458zm37.868 0h25.379c1.382 0 2.501 1.073 2.501 2.458v25.378a2.497 2.497 0 0 1-2.495 2.501h-25.385c-1.382 0-2.458-1.117-2.458-2.501v-25.378a2.422 2.422 0 0 1 2.385-2.458h0.073zm37.882 0h25.421a2.422 2.422 0 0 1 2.458 2.385v25.451c0 1.386-1.073 2.501-2.458 2.501h-25.421c-1.385 0-2.458-1.117-2.458-2.501v-25.378a2.422 2.422 0 0 1 2.458-2.458zm37.88 0h25.422c1.387 0 2.456 1.073 2.456 2.458v25.378c0 1.386-1.072 2.501-2.456 2.501h-25.422c-1.383 0-2.458-1.117-2.458-2.501v-25.378a2.424 2.424 0 0 1 2.389-2.458h0.069zm37.92 0h25.381a2.423 2.423 0 0 1 2.456 2.39v25.446c0 1.384-1.076 2.501-2.456 2.501h-25.381a2.495 2.495 0 0 1-2.498-2.49v-25.389c0-1.388 1.113-2.458 2.498-2.458zm37.881 0h25.379c1.385 0 2.499 1.073 2.499 2.458v25.378a2.495 2.495 0 0 1-2.487 2.501h-25.391a2.495 2.495 0 0 1-2.498-2.492v-25.387c0-1.388 1.114-2.458 2.498-2.458zm37.869 0h25.379c1.384 0 2.499 1.073 2.499 2.458v25.378a2.495 2.495 0 0 1-2.489 2.501h-25.389c-1.386 0-2.458-1.117-2.458-2.501v-25.378c0-1.388 1.072-2.458 2.458-2.458zm-398.86 37.879h25.422c1.384 0 2.457 1.117 2.457 2.501v25.378c0 1.387-1.071 2.502-2.457 2.502h-25.422c-1.385 0-2.457-1.117-2.457-2.502v-25.378c0-1.384 1.075-2.501 2.457-2.501zm37.875 0h25.42c1.385 0 2.457 1.117 2.457 2.501v25.378c0 1.387-1.071 2.502-2.457 2.502h-25.42c-1.385 0-2.458-1.117-2.458-2.502v-25.378c0-1.384 1.075-2.501 2.458-2.501zm37.922 0h25.379c1.385 0 2.458 1.117 2.458 2.501v25.378c0 1.387-1.071 2.502-2.458 2.502h-25.379a2.495 2.495 0 0 1-2.5-2.49v-25.39a2.495 2.495 0 0 1 2.489-2.501h0.011zm37.881 0h25.379a2.495 2.495 0 0 1 2.499 2.491v25.388a2.493 2.493 0 0 1-2.484 2.502h-25.394a2.497 2.497 0 0 1-2.5-2.494v-25.386a2.495 2.495 0 0 1 2.487-2.501h0.013zm37.88 0h25.379a2.495 2.495 0 0 1 2.499 2.491v25.388a2.495 2.495 0 0 1-2.486 2.502h-25.392a2.495 2.495 0 0 1-2.5-2.492v-25.388a2.495 2.495 0 0 1 2.489-2.501h0.011zm37.867 0h25.38a2.497 2.497 0 0 1 2.501 2.495v25.384a2.496 2.496 0 0 1-2.49 2.502h-25.391c-1.386 0-2.457-1.117-2.457-2.502v-25.378c0-1.384 1.074-2.501 2.457-2.501zm37.882 0h25.422c1.385 0 2.458 1.117 2.458 2.501v25.378c0 1.387-1.074 2.502-2.458 2.502h-25.422c-1.383 0-2.457-1.117-2.457-2.502v-25.378c-1e-3 -1.384 1.073-2.501 2.457-2.501zm37.921 0h25.379c1.384 0 2.456 1.117 2.456 2.501v25.378c0 1.387-1.072 2.502-2.456 2.502h-25.379a2.495 2.495 0 0 1-2.5-2.492v-25.388a2.497 2.497 0 0 1 2.493-2.501h7e-3zm37.88 0h25.379c1.386 0 2.46 1.117 2.46 2.501v25.378c0 1.387-1.074 2.502-2.46 2.502h-25.379a2.495 2.495 0 0 1-2.498-2.492v-25.388a2.497 2.497 0 0 1 2.491-2.501h7e-3zm37.868 0h25.379a2.497 2.497 0 0 1 2.501 2.495v25.384a2.496 2.496 0 0 1-2.49 2.502h-25.39a2.495 2.495 0 0 1-2.5-2.492v-25.388a2.497 2.497 0 0 1 2.495-2.501h5e-3zm37.882 0h25.377c1.386 0 2.5 1.117 2.5 2.501v25.378a2.495 2.495 0 0 1-2.486 2.502h-25.391c-1.387 0-2.46-1.117-2.46-2.502v-25.378c0-1.384 1.076-2.501 2.46-2.501zm-303.06 37.924h295.6c1.385 0 2.499 1.074 2.499 2.456v25.422c0 1.386-1.114 2.458-2.499 2.458h-295.6a2.425 2.425 0 0 1-2.458-2.391v-25.489a2.424 2.424 0 0 1 2.392-2.456h0.066zm-103.46-113.73h25.379c1.385 0 2.499 1.074 2.499 2.458v25.422c0 1.386-1.114 2.458-2.499 2.458h-25.379c-1.385 0-2.499-1.074-2.499-2.458v-25.422c0-1.386 1.115-2.458 2.499-2.458zm37.882 0h25.379c1.385 0 2.5 1.074 2.5 2.458v25.422c0 1.386-1.114 2.458-2.5 2.458h-25.379a2.423 2.423 0 0 1-2.457-2.389v-25.491c1e-3 -1.386 1.073-2.458 2.457-2.458zm37.868 0h25.422a2.423 2.423 0 0 1 2.457 2.389v25.491a2.422 2.422 0 0 1-2.385 2.458h-25.494a2.422 2.422 0 0 1-2.457-2.386v-25.494a2.422 2.422 0 0 1 2.385-2.458h0.072zm37.88 0h25.422c1.389 0 2.458 1.072 2.458 2.458v25.422a2.422 2.422 0 0 1-2.385 2.458h-25.495a2.423 2.423 0 0 1-2.457-2.389v-25.491c1e-3 -1.386 1.073-2.458 2.457-2.458zm37.922 0h25.379a2.423 2.423 0 0 1 2.456 2.39v25.49c0 1.386-1.071 2.458-2.456 2.458h-25.379c-1.387 0-2.5-1.072-2.5-2.458v-25.422c1e-3 -1.387 1.113-2.458 2.5-2.458zm37.882 0h25.379c1.385 0 2.501 1.072 2.501 2.458v25.422c0 1.386-1.117 2.458-2.501 2.458h-25.379c-1.386 0-2.5-1.074-2.5-2.458v-25.422c0-1.386 1.117-2.458 2.5-2.458zm37.88 0h25.379c1.386 0 2.5 1.074 2.5 2.458v25.422c0 1.386-1.114 2.458-2.5 2.458h-25.379a2.424 2.424 0 0 1-2.456-2.392v-25.488a2.421 2.421 0 0 1 2.383-2.458h0.073zm37.868 0h25.379c1.385 0 2.499 1.072 2.499 2.458v25.422c0 1.386-1.115 2.458-2.499 2.458h-25.379a2.424 2.424 0 0 1-2.458-2.39v-25.49a2.424 2.424 0 0 1 2.389-2.458h0.069zm37.882 0h25.422c1.386 0 2.456 1.072 2.456 2.458v25.422a2.423 2.423 0 0 1-2.388 2.458h-25.49a2.425 2.425 0 0 1-2.458-2.392v-25.488a2.423 2.423 0 0 1 2.387-2.458h0.071zm37.881 0h25.42a2.424 2.424 0 0 1 2.46 2.388v25.492a2.424 2.424 0 0 1-2.389 2.458h-25.491a2.424 2.424 0 0 1-2.46-2.388v-25.492c0-1.386 1.072-2.458 2.46-2.458zm37.921 0h25.38a2.422 2.422 0 0 1 2.456 2.388v25.492a2.423 2.423 0 0 1-2.388 2.458h-25.448c-1.387 0-2.5-1.076-2.5-2.458v-25.422c0-1.386 1.115-2.458 2.5-2.458zm37.868 0h25.379c1.386 0 2.499 1.074 2.499 2.458v25.422c0 1.386-1.117 2.458-2.499 2.458h-25.379c-1.387 0-2.503-1.074-2.503-2.458v-25.422c-1e-3 -1.386 1.117-2.458 2.503-2.458z" fill="#a7a193"/>
<path d="m41.729 241.07h25.379c1.387 0 2.458 1.117 2.458 2.501v25.379c0 1.384-1.074 2.499-2.458 2.499h-25.379a2.496 2.496 0 0 1-2.5-2.492v-25.386a2.495 2.495 0 0 1 2.487-2.501h0.013zm602.06-54.488h25.379c1.382 0 2.499 1.074 2.499 2.458v25.418c0 1.388-1.117 2.458-2.499 2.458h-25.379c-1.389 0-2.5-1.07-2.5-2.458v-25.418c0-1.388 1.114-2.458 2.5-2.458zm37.867 0h25.378c1.387 0 2.501 1.072 2.501 2.458v25.418c0 1.388-1.114 2.458-2.501 2.458h-25.378a2.422 2.422 0 0 1-2.458-2.385v-25.491a2.425 2.425 0 0 1 2.392-2.458h0.066zm37.881 0h25.422a2.426 2.426 0 0 1 2.458 2.394v25.482a2.424 2.424 0 0 1-2.389 2.458h-25.491a2.422 2.422 0 0 1-2.458-2.385v-25.491a2.425 2.425 0 0 1 2.392-2.458h0.066zm-147.44 54.488h25.38a2.497 2.497 0 0 1 2.499 2.495v25.385a2.5 2.5 0 0 1-2.499 2.499h-25.38c-1.385 0-2.458-1.117-2.458-2.499v-25.379c0-1.384 1.073-2.501 2.458-2.501zm-511.01 75.845h33.685c1.385 0 2.499 1.076 2.499 2.458v25.378a2.493 2.493 0 0 1-2.485 2.501h-33.699a2.492 2.492 0 0 1-2.499-2.485v-25.394c-2e-3 -1.385 1.117-2.458 2.499-2.458zm8.306 37.879h43.259a2.496 2.496 0 0 1 2.499 2.493v25.386a2.495 2.495 0 0 1-2.488 2.502h-43.27a2.497 2.497 0 0 1-2.501-2.493v-25.387a2.497 2.497 0 0 1 2.495-2.501h6e-3zm472.49 0h45.845a2.495 2.495 0 0 1 2.498 2.492v25.387a2.495 2.495 0 0 1-2.486 2.502h-45.857c-1.386 0-2.458-1.117-2.458-2.502v-25.378c0-1.384 1.076-2.501 2.458-2.501zm-416.69 37.924h25.379c1.384 0 2.499 1.074 2.499 2.456v25.422c0 1.386-1.115 2.458-2.499 2.458h-25.379c-1.384 0-2.5-1.075-2.5-2.458v-25.422c0-1.382 1.116-2.456 2.5-2.456zm-75.161-113.73h34.954c1.385 0 2.5 1.074 2.5 2.458v25.419c0 1.386-1.114 2.458-2.5 2.458h-34.954c-1.382 0-2.5-1.075-2.5-2.458v-25.422c0-1.383 1.117-2.455 2.5-2.455zm502.07 0h45.207a2.423 2.423 0 0 1 2.458 2.388v25.492a2.424 2.424 0 0 1-2.389 2.458h-45.275a2.424 2.424 0 0 1-2.457-2.391v-25.49a2.423 2.423 0 0 1 2.387-2.458l0.069 1e-3zm-476.39-93.629h40.759a2.422 2.422 0 0 1 2.457 2.387v25.491a2.423 2.423 0 0 1-2.388 2.458h-40.828a2.422 2.422 0 0 1-2.457-2.386v-25.494a2.421 2.421 0 0 1 2.385-2.456h0.072zm55.799 0h40.716c1.382 0 2.499 1.07 2.499 2.456v25.422c0 1.386-1.117 2.458-2.499 2.458h-40.716c-1.385 0-2.501-1.072-2.501-2.458v-25.422c0-1.386 1.118-2.456 2.501-2.456zm55.762 0h40.757a2.421 2.421 0 0 1 2.457 2.385v25.493a2.423 2.423 0 0 1-2.388 2.458h-40.826a2.422 2.422 0 0 1-2.458-2.385v-25.495c1e-3 -1.388 1.074-2.456 2.458-2.456zm55.791 0h40.715c1.384 0 2.501 1.07 2.501 2.456v25.422c0 1.386-1.115 2.458-2.501 2.458h-40.715c-1.387 0-2.501-1.072-2.501-2.458v-25.422c0-1.388 1.116-2.456 2.501-2.456zm55.764 0h40.759c1.385 0 2.456 1.069 2.456 2.456v25.422a2.422 2.422 0 0 1-2.385 2.458h-40.83a2.423 2.423 0 0 1-2.457-2.388v-25.492c-2e-3 -1.386 1.073-2.456 2.457-2.456zm197.65 0h40.715c1.387 0 2.457 1.069 2.457 2.456v25.422c0 1.386-1.07 2.458-2.457 2.458h-40.715c-1.382 0-2.499-1.072-2.499-2.458v-25.422c0-1.386 1.117-2.456 2.499-2.456z" fill="#40413b"/>
<path d="m552.22 185.37h40.758c1.385 0 2.458 1.069 2.458 2.456v25.422a2.423 2.423 0 0 1-2.387 2.458h-40.829a2.422 2.422 0 0 1-2.456-2.388v-25.492a2.422 2.422 0 0 1 2.388-2.456h0.068z" fill="#ab1a1f"/>
<path d="m44.822 194.3h14.32v10.933h-14.32v-10.933z" fill="#89283b"/>
<path d="M30.248 326.583c-1.438 0-2.626 1.231-2.626 2.671v4.237a2.645 2.645 0 0 0 2.626 2.626H42.62a2.642 2.642 0 0 0 2.626-2.626v-4.237c0-1.439-1.187-2.671-2.626-2.671H30.248z" fill="#3c5e43"/>
<path d="m607.35 326.58c-1.438 0-2.628 1.231-2.628 2.671v4.237a2.644 2.644 0 0 0 2.628 2.626h12.328a2.643 2.643 0 0 0 2.628-2.626v-4.237c0-1.438-1.187-2.671-2.628-2.671h-12.328z" fill="#232323"/>
<path d="m40.924 18.218h2.712v128.3h-2.712zm11.651 2.045h2.712v126.26h-2.712zm11.651 0h2.712v126.26h-2.712zm11.652 0h2.712v126.26h-2.712zm11.694 0h2.712v126.26h-2.712zm11.651 0h2.712v126.26h-2.712zm11.653 0h2.712v126.26h-2.712zm11.652 0h2.712v126.26h-2.712zm11.648 0h2.712v126.26h-2.712zm11.66 0h2.712v126.26h-2.712zm11.645 0h2.712v126.26h-2.712zm11.65 0h2.712v126.26h-2.712zm11.653 0h2.712v126.26h-2.712zm11.653 0h2.712v126.26h-2.712zm11.648 0h2.712v126.26h-2.712zm11.66 0h2.712v126.26h-2.712zm11.47 0h2.712v126.26h-2.712zm11.651 0h2.712v126.26h-2.712zm11.653 0h2.712v126.26h-2.712zm11.652 0h2.712v126.26h-2.712zm11.648 0h2.712v126.26h-2.712zm11.66 0h2.712v126.26h-2.712zm11.661 0h2.712v126.26h-2.712zm11.651 0h2.712v126.26h-2.712zm11.652 0h2.712v126.26h-2.712zm11.652 0h2.712v126.26h-2.712zm11.649 0h2.712v126.26h-2.712z" fill="#424242"/>
<path d="M352.189 20.332v.793h439.476c.396 0 .771.18 1.072.512.297.331.493.804.493 1.325v121.201c-.001.396-.181.772-.513 1.072a1.993 1.993 0 0 1-1.325.493h-438.41V20.332h-.793v.793-.793h-.793v126.983h439.996c.916 0 1.759-.338 2.384-.898.624-.556 1.041-1.359 1.04-2.254v-121.2a3.57 3.57 0 0 0-.897-2.384c-.557-.624-1.359-1.041-2.254-1.041H351.396v.793h.793v.001z" fill="#545353"/>
<path d="m464.45 39.053a2.644 2.644 0 0 0-2.628 2.626v52.197a2.646 2.646 0 0 0 2.628 2.627h312.43a2.643 2.643 0 0 0 2.626-2.627v-52.197a2.643 2.643 0 0 0-2.626-2.626h-312.43z" fill="#424242"/>
<path d="M477.233 51.085v-.793a2.8 2.8 0 0 0-2.786 2.785V82.48a2.8 2.8 0 0 0 2.786 2.785h228.491a2.8 2.8 0 0 0 2.786-2.785V53.077a2.8 2.8 0 0 0-2.786-2.785H477.233v1.586h228.491c.322 0 .62.133.844.356.223.223.356.521.355.842v29.403c.001.32-.133.618-.355.841a1.195 1.195 0 0 1-.844.356H477.233c-.321 0-.619-.133-.843-.355a1.193 1.193 0 0 1-.356-.843V53.075c0-.323.134-.62.356-.843.224-.222.521-.355.843-.355v-.792z" fill="#545353"/>
<path d="M748.094 51.891c8.791 0 15.89 7.095 15.89 15.889 0 8.793-7.099 15.888-15.89 15.888-8.762.013-15.875-7.08-15.888-15.842v-.046c.002-8.794 7.095-15.889 15.888-15.889z" fill="#262424"/>
<path d="M508.462 56.552v.793h.635v-.793h-.793v22.371h.793v-.793h-.635v.793h.793V56.552h-.793v.793-.793h-.793v23.165h2.221V55.758h-2.221v.794zM674.885 56.552v.793h.635v-.793h-.794v22.371h.794v-.793h-.635v.793h.793V56.552h-.793v.793-.793h-.794v23.165h2.222V55.758h-2.222v.794z" fill="#545353"/>
<path d="m735.47 119.08h44.034v17.833h-44.034v-17.833z" fill="#231f20"/>
<path d="M776.02 121.595l-4.187 6.114 4.553 6.68h-4.204l-2.502-3.576-2.522 3.585h-4.177c.113-.236 4.572-6.689 4.572-6.689l-1.9-2.644-8.063.009c-.376.03-.837-.084-1.026.339-.065.141-.094.348-.019.49.065.16.217.31.386.356l.254.02h3.227c1.496.038 2.88.968 3.528 2.313.574 1.129.489 2.672-.15 3.745a4.203 4.203 0 0 1-3.811 2.07h-8.975l-1.384-4.967-1.383 4.967h-3.273l-1.317-4.987-1.439 4.977h-3.622s3.33-11.985 3.547-12.776h3.059l1.438 5.344 1.468-5.344 3.001-.001 2.568 9.306h5.983c.413-.02.987.093 1.157-.415a.622.622 0 0 0-.15-.621c-.151-.132-.339-.169-.536-.169h-3.217c-1.524-.047-3.039-1.044-3.604-2.511-.611-1.468-.254-3.228.865-4.364.79-.792 1.73-1.187 2.832-1.234l10.556-.009 2.127 3.066 2.2-3.076 4.14.002z" fill="#858786"/>
<path d="M788.531 13.347H2.455V2.358c0-1.29 1.23-2.357 2.669-2.357L5.111 0h783.147c1.438 0 2.631 1.068 2.631 2.358v8.358c0 1.438-1.068 2.631-2.358 2.631z" fill="#272727"/>
<path d="m694.42 270.94c4.227 0 8.461 1.598 11.693 4.83l18.386 18.385-30.083 30.084-30.079-30.085 18.386-18.384c3.234-3.232 7.466-4.83 11.693-4.83h4e-3zm56.731 56.426c0 4.228-1.598 8.462-4.831 11.694l-18.384 18.386-30.084-30.083 30.084-30.079 18.385 18.386c3.232 3.233 4.83 7.466 4.83 11.693v3e-3zm-56.738 56.729c-4.228 0-8.461-1.598-11.693-4.83l-18.386-18.384 30.082-30.084 30.08 30.084-18.386 18.384c-3.234 3.232-7.467 4.831-11.694 4.831l-3e-3 -1e-3zm-56.435-56.732c0-4.228 1.598-8.461 4.83-11.693l18.384-18.386 30.084 30.082-30.084 30.08-18.384-18.386c-3.232-3.234-4.83-7.467-4.83-11.694v-3e-3z" fill="#2761a2"/>
<path d="m681.84 301.79 12.528-11.918 12.526 11.918 2.187-2.299-14.713-14-14.715 14zm38.456 13.003 11.918 12.526-11.918 12.528 2.299 2.187 14-14.715-14-14.714zm-13.314 38.452-12.527 11.919-12.528-11.919-2.187 2.299 14.715 14.001 14.714-14.001zm-38.159-13.308-11.918-12.527 11.918-12.527-2.299-2.188-14 14.715 14 14.715z" fill="#fff"/>
<path d="m747.17 389.12h-105.71c-4.962 0-9.021-4.059-9.021-9.021v-105.71c0-4.961 4.059-9.021 9.021-9.021h105.71c4.962 0 9.021 4.059 9.021 9.021v105.71c0 4.962-4.06 9.021-9.021 9.021z" fill="none" stroke="#1e1e1e" stroke-miterlimit="10" stroke-width="1.48"/>
</svg>
