<?xml version="1.0" encoding="UTF-8"?>
<svg viewBox="-7679.6 -7915.2 400 411.89" xmlns="http://www.w3.org/2000/svg">
<path d="m-7295.9-7727c6.428 2.1659 12.331 8.2077 12.331 17.63v4.5538c-0.0098199 1.4244 0.23795 2.7185 0.76613 4.0321 0.28684 0.69111 0.71049 1.3007 0.81485 2.0797 0.094591 0.7334 1.1865 7.2495 1.1865 16.725v151.76c0 13.104-10.32 23.884-23.411 24.444-29.506 1.2941-59.016 2.5654-88.546 1.9459-0.66824-0.0096652-1.5516-0.04562-2.474-0.20202-2.4351-0.39452-4.87-0.81173-7.2985-1.2712-0.92573-0.17941-2.8099-0.26725-2.8099-0.26725h-148.61s-1.8727 0.087838-2.8001 0.26725c-2.4332 0.4595-4.8666 0.87673-7.3065 1.2712-0.91101 0.1564-1.7896 0.19235-2.4724 0.20202-29.524 0.61943-59.045-0.6518-88.555-1.9459-13.094-0.56069-23.422-11.34-23.412-24.444l0.014614-151.76c0-9.4759 1.0806-15.992 1.1669-16.725 0.10771-0.77897 0.52816-1.3886 0.81175-2.0797 0.54427-1.3136 0.78719-2.6077 0.77407-4.0321v-4.5521c0-9.4172 5.8953-15.462 12.338-17.632v-171.81c0-8.8646 7.1926-16.054 16.044-16.054h335.39c8.8663 0 16.057 7.1892 16.057 16.054v171.81" fill="#f1f1f2"/>
<path d="m-7663.6-7727c-6.4363 2.1629-12.331 8.2047-12.331 17.636v4.544c0.0048713 0.93214-0.11248 1.8058-0.33568 2.6728h-1.8467c-1.0806 0-1.3984-0.69098-1.3918-1.9558l0.38465-11.034c0-10.014 6.7247-16.21 15.521-16.403v4.5391m367.48-0.0098457v-4.513c8.8044 0.17931 15.532 6.376 15.532 16.386l0.37826 11.034c0.006392 1.2648-0.31632 1.9558-1.3886 1.9558h-1.8517c-0.21506-0.86701-0.33243-1.7407-0.32259-2.6728v-4.544c0.0032217-9.4352-5.8968-15.477-12.348-17.646" fill="#58595b"/>
<path transform="matrix(.025774 0 0 .025774 -7481.7 -7711.2)" d="m-7048.7-242.86c0 222.66 175.73 405.47 397.94 415.2 1136.4 48.314 2273.1 72.092 3410.5 72.092v-1102.3h6641.2v1102.3c1137.6 0 2274.5-24.283 3410.9-72.466 221.58-9.489 397.38-192.3 397.38-414.83v-7036.2c0-343.94-278.75-622.87-623-622.87h-13013c-343.43 0-622.49 278.93-622.49 622.87v7036.2h0.131z" fill="none" stroke="#231f20" stroke-width="17.483"/>
<path d="m-7319.4-7604.8c0 5.3816-4.3681 9.7528-9.7498 9.7528-5.3849 0-9.7496-4.3712-9.7496-9.7528 0-5.3785 4.3647-9.753 9.7496-9.753 5.3817 0 9.7498 4.3679 9.7498 9.753" fill="#77787b"/>
<path transform="matrix(.025774 0 0 .025774 -7481.7 -7711.2)" d="m5918.6 3750.6c208.93 0 378.28 169.35 378.28 378.28s-169.35 378.4-378.28 378.4-378.27-169.47-378.27-378.4c0-208.94 169.35-378.28 378.27-378.28z" fill="none" stroke="#231f20" stroke-width="17.483"/>
<path d="m-7319.4-7647c0 5.3785-4.3681 9.7464-9.7498 9.7464-5.3849 0-9.7594-4.368-9.7594-9.7464 0-5.3817 4.3745-9.7528 9.7594-9.7528 5.3817-2.577e-5 9.7498 4.368 9.7498 9.7528" fill="#58595b"/>
<path transform="matrix(.025774 0 0 .025774 -7481.7 -7711.2)" d="m5918.5 2111.1c208.93 0 378.4 169.35 378.4 378.4 0 208.94-169.48 378.41-378.4 378.41s-378.4-169.47-378.4-378.41c0-209.05 169.47-378.4 378.4-378.4z" fill="none" stroke="#231f20" stroke-width="17.483"/>
<path d="m-7298.1-7625.9c0 5.3849-4.368 9.7464-9.7595 9.7464-5.3817 0-9.7496-4.3615-9.7496-9.7464 0-5.3851 4.3679-9.753 9.7496-9.753 5.3915 0 9.7595 4.3679 9.7595 9.753" fill="#77787b"/>
<path transform="matrix(.025774 0 0 .025774 -7481.7 -7711.2)" d="m6744.8 2930.6c208.94 0 378.4 169.47 378.4 378.53 0 208.93-169.47 378.4-378.4 378.4s-378.4-169.47-378.4-378.4c0-209.06 169.47-378.53 378.4-378.53z" fill="none" stroke="#231f20" stroke-width="17.483"/>
<path d="m-7340.4-7625.9c0 5.3849-4.3679 9.7464-9.7496 9.7464-5.3819 0-9.7466-4.3615-9.7466-9.7464 0-5.3851 4.3647-9.753 9.7466-9.753 5.3816 0 9.7496 4.3679 9.7496 9.753" fill="#58595b"/>
<path transform="matrix(.025774 0 0 .025774 -7481.7 -7711.2)" d="m5455.6 4128.9v-311.12c0-29.6-12.142-41.607-41.478-41.607h-311.25c-257.87 0-466.93-209.19-466.93-467.06 0-257.75 209.05-466.68 466.93-466.68h311.25c29.467 0 41.478-12.141 41.478-41.484v-311.12c0-257.88 208.81-467.18 466.93-467.18 257.75 0 466.8 209.31 466.8 467.18v311.12c0 29.594 12.273 41.484 41.61 41.484h311.12c257.74 0 467.05 208.93 467.05 466.68 0 257.88-209.31 467.06-467.05 467.06h-311.12c-29.593 0-41.61 12.141-41.61 41.607v311.12c0 257.87-208.8 467.06-466.8 467.06-258.13 0-466.93-209.18-466.93-467.06zm26.815-819.79c0 208.93-169.47 378.15-378.27 378.15-208.81 0-378.16-169.22-378.16-378.15s169.35-378.4 378.16-378.4c208.8 0 378.27 169.47 378.27 378.4z" fill="none" stroke="#231f20" stroke-width="17.483"/>
<path d="m-7325.8-7677.9h19.643c2.7611 0.0064435 5.0004-2.2362 5.0004-4.9938 0-2.7643-2.2393-4.994-5.0004-4.9841h-19.643c-0.38128 0-0.54105 0.15312-0.54105 0.53138v8.9053c0 0.3847 0.1598 0.54125 0.54105 0.54125" fill="#58595b"/>
<path transform="matrix(.025774 0 0 .025774 -7481.7 -7711.2)" d="m6047.5 1292.4h762.11c107.13 0.25 194.01-86.76 194.01-193.75 0-107.25-86.884-193.76-194.01-193.38h-762.11c-14.793 0-20.992 5.941-20.992 20.617v345.51c0 14.926 6.2 21 20.992 21z" fill="none" stroke="#231f20" stroke-width="17.483"/>
<path d="m-7332.2-7677.9h-19.662c-2.7446 0.0064435-4.9938-2.2362-4.9938-4.9938 0-2.7643 2.2492-4.994 4.9938-4.9841h19.662c0.36839 0 0.53777 0.15312 0.53777 0.53138v8.9053c0 0.3847-0.16939 0.54125-0.53778 0.54125" fill="#58595b"/>
<path transform="matrix(.025774 0 0 .025774 -7481.7 -7711.2)" d="m6809.6 870.72h-1774.6c-125.58 0-228.4 101.94-228.4 228.03 0 126.34 102.82 228.78 228.4 228.78h1774.6c125.97 0 228.41-102.44 228.41-228.78 0-126.09-102.44-228.03-228.41-228.03zm-1007.7 421.66h-762.87c-106.49 0.25-193.75-86.76-193.75-193.75 0-107.25 87.266-193.76 193.75-193.38h762.87c14.293 0 20.865 5.941 20.865 20.617v345.51c0 14.926-6.572 21-20.865 21z" fill="none" stroke="#231f20" stroke-width="17.483"/>
<path d="m-7559.9-7521.8c0 0.43674-0.35362 0.79863-0.80023 0.79863h-1.6297c-0.43695 0-0.79701-0.36189-0.79701-0.79863v-6.3269c0-0.4369 0.36009-0.79224 0.79701-0.79224h1.6297c0.44661 0 0.80023 0.35535 0.80023 0.79224v6.3269m154.03 0c0 0.43674-0.35857 0.79863-0.80193 0.79863h-1.6167c-0.44334 0-0.80191-0.36189-0.80191-0.79863v-6.3269c0-0.4369 0.35857-0.79224 0.80191-0.79224h1.6167c0.44336 0 0.80193 0.35535 0.80193 0.79224v6.3269m9.6616 0c0 0.43674-0.36499 0.79863-0.80173 0.79863h-1.6233c-0.44981 0-0.81175-0.36189-0.81175-0.79863v-6.3269c0-0.4369 0.36194-0.79224 0.81175-0.79224h1.6167c0.44339 0 0.80513 0.35535 0.80513 0.79224v6.3269" fill="#4c4c4e"/>
<path transform="matrix(.025774 0 0 .025774 -7481.7 -7711.2)" d="m-6933.6 3688.9c-98.144-243.71-98.144-515.88 0-759.71 13.213-32.885 31.87-45.781 67.471-45.781h637.6c29.086 0 41.419-12.143 41.295-41.236v-637.03c0-35.793 12.583-54.508 45.721-67.787 243.83-97.762 515.94-97.762 759.84 0 33.008 13.535 45.53 31.994 45.53 67.787v637.03c0 29.219 11.952 41.236 41.478 41.236h637.42c35.476 0 54 12.896 67.222 45.781 98.583 243.83 98.583 516 0 759.71-13.346 33.135-31.746 45.656-67.222 45.656h-637.42c-29.526 0-41.478 12.143-41.478 41.479v637.42c0 35.162-12.522 53.877-45.53 66.773-243.9 98.9-516 98.9-759.84 0-33.139-12.896-45.721-31.611-45.721-66.773v-637.42c0.125-29.592-12.208-41.479-41.295-41.479h-637.6c-35.601 0-54.258-12.521-67.471-45.656zm738.84-47.682c59.188 0 100.8 41.482 100.8 100.93m9007-4178.9v-421.14m-528.9 421.14v-421.14m-2303.8 421.14v-421.14m-2832.8 421.14v-421.14m5091.6 168.65v933.67h-2213.8v-933.67h2213.8zm1017.3 950.37v-1023.5h-396.61v1023.5h396.61zm-6560.5 0v-1023.5h405.09v1023.5h-405.09zm10413-874.1c249.4 84.035 478.44 318.45 478.44 684.02v176.68c-0.381 55.266 9.232 105.48 29.725 156.44 11.129 26.814 27.566 50.467 31.615 80.689 3.67 28.455 46.035 281.27 46.035 648.92v5888c0 508.42-400.41 926.65-908.31 948.41-1144.8 50.211-2289.8 99.533-3435.5 75.5-25.927-0.375-60.199-1.77-95.99-7.838-94.479-15.307-188.95-31.494-283.17-49.322-35.917-6.961-109.02-10.369-109.02-10.369h-5765.7s-72.657 3.408-108.64 10.369c-94.405 17.828-188.82 34.016-283.48 49.322-35.346 6.068-69.433 7.463-95.926 7.838-1145.5 24.033-2290.9-25.289-3435.8-75.5-508.03-21.754-908.76-439.99-908.37-948.41l0.567-5888c0-367.65 41.924-620.47 45.274-648.92 4.179-30.223 20.492-53.875 31.495-80.689 21.117-50.967 30.542-101.18 30.033-156.44v-176.62c0-365.38 228.73-599.92 478.69-684.08m9433 857.16v-680.92h528.9v680.92h-528.9zm-5136.6 0v-680.92h2832.8v680.42l-2832.8 0.505zm9961.7-774.51c171.62 91.819 292.9 269.76 292.9 515.18v7013.2c0 288.74-261.66 657.78-651.32 657.78-1063.4-3.664-2127-2.525-3190.6 3.291-86.252 0.25-172.76 0.756-259.01 0.756h-6641.4c-86.501 0-172.89-0.506-259.26-0.756-1063.2-5.816-2127-7.08-3190.4-3.291-389.97 0-651.96-369.04-651.96-657.78v-7013.2c0-244.91 121.48-423.24 293.22-514.93" fill="none" stroke="#231f20" stroke-width="17.483"/>
<path d="m-7641.4-7617.4h-15.632c-0.99083 0-1.4847-0.35857-1.7878-1.3104-1.5826-5.0328-1.5826-9.4725 0-14.505 0.3031-0.94539 0.8165-1.255 1.7878-1.255l15.632 0.016315c1.4749 0.013042 2.6746-1.1866 2.668-2.6664l-0.021186-15.627c-0.0032218-0.96812 0.30478-1.4831 1.2517-1.7829 5.028-1.5875 9.4726-1.5875 14.507 0 0.94374 0.29988 1.2583 0.81479 1.2583 1.7829l-0.022887 15.627c0 1.5711 1.1343 2.6011 2.673 2.6011h15.632c0.99745 0 1.4847 0.35212 1.7814 1.304 1.5891 5.0329 1.5891 9.4726 0 14.505-0.29339 0.94539-0.78392 1.3104-1.7814 1.3104h-15.632c-1.5387 0-2.5996 1.0692-2.5996 2.6013v15.62c0 1.0039-0.36197 1.4929-1.3057 1.7896-5.0296 1.5875-9.4791 1.5875-14.507 0-0.94694-0.29666-1.3038-0.78564-1.3038-1.7896v-15.62" fill="#58595b"/>
<path transform="matrix(.025774 0 0 .025774 -7481.7 -7711.2)" d="m-4999.2 1306c0 29.092-23.527 52.236-52.046 52.236h-1421.5c-28.771 0-52.04-23.145-52.04-52.236v-414.95c0-28.205 23.46-51.473 52.04-51.473h1421.5c28.52 0 52.046 23.395 52.046 51.473v414.95zm8607.5 5199.2h-7056.2c-64.062 0-103.45-37.18-103.45-104.72v-5841.2c0-62.227 50.9-103.96 103.45-103.96h7056.2c75.507 0 103.58 51.98 103.58 103.96v5841.2c0 71.833-50.973 104.72-103.58 104.72zm-9037.5-3196.2c0 184.4-149.62 334.64-333.89 334.39-184.64 0-334.26-149.74-334.26-334.39 0-184.27 149.62-334.89 334.26-334.39 184.27 0 333.89 149.62 333.89 334.39zm-765.65 332.11h-606.49c-38.443 0-57.606-13.912-69.366-50.842-61.403-195.27-61.403-367.52 0-562.79 11.76-36.68 31.679-48.691 69.366-48.691l606.49 0.633c57.226 0.506 103.77-46.037 103.51-103.45l-0.822-606.3c-0.125-37.562 11.825-57.541 48.565-69.176 195.08-61.594 367.53-61.594 562.86 0 36.616 11.635 48.822 31.613 48.822 69.176l-0.888 606.3c0 60.955 44.01 100.92 103.71 100.92h606.49c38.7 0 57.606 13.662 69.115 50.592 61.654 195.27 61.654 367.52 0 562.79-11.383 36.68-30.415 50.842-69.115 50.842h-606.49c-59.7 0-100.86 41.482-100.86 100.93v606.05c0 38.951-14.044 57.924-50.658 69.434-195.14 61.594-367.78 61.594-562.86 0-36.74-11.51-50.585-30.482-50.585-69.434v-606.05" fill="none" stroke="#231f20" stroke-width="17.483"/>
<path d="m-7617-7678.5c0 0.44978-0.36514 0.8083-0.81173 0.8083h-24.834c-0.44811 0-0.80515-0.35852-0.80515-0.8083v-8.8207c0-0.44334 0.35705-0.80513 0.80515-0.80513h24.834c0.44661 0 0.81173 0.36179 0.81173 0.80513v8.8207" fill="#58595b"/>
<path transform="matrix(.025774 0 0 .025774 -7481.7 -7711.2)" d="m-5249.1 1269.9c0 17.451-14.167 31.361-31.494 31.361h-963.52c-17.386 0-31.239-13.91-31.239-31.361v-342.23c0-17.201 13.853-31.238 31.239-31.238h963.52c17.328 0 31.494 14.037 31.494 31.238v342.23z" fill="none" stroke="#231f20" stroke-width="17.483"/>
<path d="m-7569-7891.6c-2.2149 0-4.0111 1.7994-4.0111 4.0159v147.09c0 2.2231 1.7961 4.0158 4.0111 4.0158h178.66c2.2035 0 4.003-1.796 4.003-4.0158v-147.09c0-2.2164-1.7994-4.0159-4.003-4.0159h-178.66" fill="#58595b"/>
<path transform="matrix(.025774 0 0 .025774 -7481.7 -7711.2)" d="m4417.6-767.46v-238.97c0-42.998 34.91-77.716 77.908-77.716h238.9c42.747 0 77.783 34.843 77.783 77.716v238.84c0 42.998-35.036 77.527-77.783 77.527h-238.9c-42.997-1e-3 -77.908-34.53-77.908-77.402zm0-6236.7v-238.9c0-42.879 34.91-77.718 77.908-77.718h238.9c42.747 0 77.783 34.969 77.783 77.718v238.9c0 43-35.036 77.967-77.783 77.967h-238.9c-42.997 0-77.908-34.967-77.908-77.967zm-9069 6236.7v-238.97c0-42.998 34.845-77.716 77.593-77.716h238.84c42.939 0 77.533 34.843 77.533 77.716v238.84c0 42.998-34.594 77.527-77.533 77.527h-238.84c-42.747-1e-3 -77.593-34.53-77.593-77.402zm0-6236.7v-238.9c0-42.879 34.845-77.718 77.593-77.718h238.84c42.939 0 77.533 34.969 77.533 77.718v238.9c0 43-34.594 77.967-77.533 77.967h-238.84c-42.747 0-77.593-34.967-77.593-77.967zm12125 13539s-467.06 5.436-700.27 5.436h-2434.2c-120.02 0-254.46-46.414-254.46-176.68v-5767.3c0-76.895 60.838-176.18 254.46-176.18h2434.2s467.06 1.645 700.27 4.936c0 50.336-112.43 60.074-162.52 60.074h-2908.2c-54.764 0-86.758 66.648-86.758 96.117v5797.4c0 51.605 36.291 96.123 86.758 96.123h2908.2c113.44 0 162.52 30.225 162.52 60.075zm-14787 0s466.87 5.436 700.34 5.436h2434.1c120.21 0 254.4-46.414 254.4-176.68v-5767.3c0-76.895-60.647-176.18-254.4-176.18h-2434.1s-467.25 1.645-700.34 4.936c0 50.336 111.99 60.074 162.27 60.074h2908.7c54.258 0 86.501 66.648 86.501 96.117v5797.4c0 51.605-36.107 96.123-86.501 96.123h-2908.7c-113.32 0-162.27 30.225-162.27 60.075zm3927.6-13534c-85.937 0-155.62 69.815-155.62 155.81v5707.1c0 86.252 69.688 155.81 155.62 155.81h6931.9c85.495 0 155.31-69.682 155.31-155.81v-5707.1c0-85.995-69.814-155.81-155.31-155.81h-6931.9z" fill="none" stroke="#231f20" stroke-width="17.483"/>
<path d="m-7639.3-7787.8c0-0.73353-0.59803-1.3316-1.3413-1.3316-0.73832 0-1.3365 0.59804-1.3365 1.3316 0 0.74799 0.59819 1.3398 1.3365 1.3398 0.73982 0 1.3413-0.59497 1.3413-1.3398m8.8223 0c0-0.73353-0.59499-1.3316-1.3429-1.3316-0.73678 0-1.3348 0.59804-1.3348 1.3316 0 0.74799 0.59803 1.3398 1.3348 1.3398 0.74794 0 1.3429-0.59497 1.3429-1.3398m8.8256 0c0-0.73353-0.59824-1.3316-1.3397-1.3316-0.73683 0-1.3414 0.59804-1.3414 1.3316 0 0.74799 0.60788 1.3398 1.3414 1.3398 0.73827 0 1.3397-0.59497 1.3397-1.3398m8.832 0c0-0.73353-0.60803-1.3316-1.3429-1.3316-0.73997 0-1.3382 0.59804-1.3382 1.3316 0 0.74799 0.59824 1.3398 1.3382 1.3398 0.73489 0 1.3429-0.59497 1.3429-1.3398m8.8256 0c0-0.73353-0.60806-1.3316-1.3397-1.3316-0.74982 0-1.3479 0.59804-1.3479 1.3316 0 0.74799 0.59803 1.3398 1.3479 1.3398 0.73167 0 1.3397-0.59497 1.3397-1.3398m8.8109 0c0-0.73353-0.59657-1.3316-1.3316-1.3316-0.74154 0-1.3316 0.59804-1.3316 1.3316 0 0.74799 0.59481 1.3398 1.3316 1.3398 0.73505 0 1.3316-0.59497 1.3316-1.3398m8.8352 0c0-0.73353-0.60618-1.3316-1.3479-1.3316-0.73508 0-1.3282 0.59804-1.3282 1.3316 0 0.74799 0.59311 1.3398 1.3282 1.3398 0.74172 0 1.3479-0.59497 1.3479-1.3398m-52.952 12.297c0-0.73982-0.59803-1.338-1.3413-1.338-0.73832 0-1.3365 0.59819-1.3365 1.338 0 0.7417 0.59819 1.3382 1.3365 1.3382 0.73982 0.0032218 1.3413-0.59332 1.3413-1.3382m8.8223 0c0-0.73982-0.59499-1.338-1.3429-1.338-0.73678 0-1.3348 0.59819-1.3348 1.338 0 0.7417 0.59803 1.3382 1.3348 1.3382 0.74794 0.0032218 1.3429-0.59332 1.3429-1.3382m8.8256 0c0-0.73982-0.59824-1.338-1.3397-1.338-0.73683 0-1.3414 0.59819-1.3414 1.338 0 0.7417 0.60788 1.3382 1.3414 1.3382 0.73827 0.0032218 1.3397-0.59332 1.3397-1.3382m8.832 0c0-0.73982-0.60803-1.338-1.3429-1.338-0.73997 0-1.3382 0.59819-1.3382 1.338 0 0.7417 0.59824 1.3382 1.3382 1.3382 0.73489 0.0032218 1.3429-0.59332 1.3429-1.3382m8.8256 0c0-0.73982-0.60806-1.338-1.3397-1.338-0.74982 0-1.3479 0.59819-1.3479 1.338 0 0.7417 0.59803 1.3382 1.3479 1.3382 0.73167 0.0032218 1.3397-0.59332 1.3397-1.3382m8.8109 0c0-0.73982-0.59657-1.338-1.3316-1.338-0.74154 0-1.3316 0.59819-1.3316 1.338 0 0.7417 0.59481 1.3382 1.3316 1.3382 0.73505 0.0032218 1.3316-0.59332 1.3316-1.3382m8.8352 0c0-0.73982-0.60618-1.338-1.3479-1.338-0.73508 0-1.3282 0.59819-1.3282 1.338 0 0.7417 0.59311 1.3382 1.3282 1.3382 0.74172 0.0032218 1.3479-0.59332 1.3479-1.3382m-52.952 12.294c0-0.74154-0.59803-1.3316-1.3413-1.3316-0.73832 0-1.3365 0.59327-1.3365 1.3316 0 0.74149 0.59819 1.338 1.3365 1.338 0.73982 0.003196 1.3413-0.59329 1.3413-1.338m8.8223 0c0-0.74154-0.59499-1.3316-1.3429-1.3316-0.73678 0-1.3348 0.59327-1.3348 1.3316 0 0.74149 0.59803 1.338 1.3348 1.338 0.74794 0.003196 1.3429-0.59329 1.3429-1.338m8.8256 0c0-0.74154-0.59824-1.3316-1.3397-1.3316-0.73683 0-1.3414 0.59327-1.3414 1.3316 0 0.74149 0.60788 1.338 1.3414 1.338 0.73827 0.003196 1.3397-0.59329 1.3397-1.338m8.832 0c0-0.74154-0.60803-1.3316-1.3429-1.3316-0.73997 0-1.3382 0.59327-1.3382 1.3316 0 0.74149 0.59824 1.338 1.3382 1.338 0.73489 0.003196 1.3429-0.59329 1.3429-1.338m8.8256 0c0-0.74154-0.60806-1.3316-1.3397-1.3316-0.74982 0-1.3479 0.59327-1.3479 1.3316 0 0.74149 0.59803 1.338 1.3479 1.338 0.73167 0.003196 1.3397-0.59329 1.3397-1.338m8.8109 0c0-0.74154-0.59657-1.3316-1.3316-1.3316-0.74154 0-1.3316 0.59327-1.3316 1.3316 0 0.74149 0.59481 1.338 1.3316 1.338 0.73505 0.003196 1.3316-0.59329 1.3316-1.338m8.8352 0c0-0.74154-0.60618-1.3316-1.3479-1.3316-0.73508 0-1.3282 0.59327-1.3282 1.3316 0 0.74149 0.59311 1.338 1.3282 1.338 0.74172 0.003196 1.3479-0.59329 1.3479-1.338m-52.952 12.307c0-0.74154-0.59803-1.3479-1.3413-1.3479-0.73832 0-1.3365 0.60631-1.3365 1.3479 0 0.73832 0.59819 1.3348 1.3365 1.3348 0.73982-0.0032217 1.3413-0.59976 1.3413-1.3348m8.8223 0c0-0.74154-0.59499-1.3479-1.3429-1.3479-0.73678 0-1.3348 0.60631-1.3348 1.3479 0 0.73832 0.59803 1.3348 1.3348 1.3348 0.74794-0.0032217 1.3429-0.59976 1.3429-1.3348m8.8256 0c0-0.74154-0.59824-1.3479-1.3397-1.3479-0.73683 0-1.3414 0.60631-1.3414 1.3479 0 0.73832 0.60788 1.3348 1.3414 1.3348 0.73827-0.0032217 1.3397-0.59976 1.3397-1.3348m8.832 0c0-0.74154-0.60803-1.3479-1.3429-1.3479-0.73997 0-1.3382 0.60631-1.3382 1.3479 0 0.73832 0.59824 1.3348 1.3382 1.3348 0.73489-0.0032217 1.3429-0.59976 1.3429-1.3348m8.8256 0c0-0.74154-0.60806-1.3479-1.3397-1.3479-0.74982 0-1.3479 0.60631-1.3479 1.3479 0 0.73832 0.59803 1.3348 1.3479 1.3348 0.73167-0.0032217 1.3397-0.59976 1.3397-1.3348m8.8109 0c0-0.74154-0.59657-1.3479-1.3316-1.3479-0.74154 0-1.3316 0.60631-1.3316 1.3479 0 0.73832 0.59481 1.3348 1.3316 1.3348 0.73505-0.0032217 1.3316-0.59976 1.3316-1.3348m8.8352 0c0-0.74154-0.60618-1.3479-1.3479-1.3479-0.73508 0-1.3282 0.60631-1.3282 1.3479 0 0.73832 0.59311 1.3348 1.3282 1.3348 0.74172-0.0032217 1.3479-0.59976 1.3479-1.3348m216.1-36.898c0-0.73353-0.58022-1.3316-1.3365-1.3316-0.7366 0-1.3299 0.59804-1.3299 1.3316 0 0.74799 0.59329 1.3398 1.3299 1.3398 0.75631 0 1.3365-0.59497 1.3365-1.3398m8.8305 0c0-0.73353-0.59667-1.3316-1.3333-1.3316-0.74649 0-1.3397 0.59804-1.3397 1.3316 0 0.74799 0.59654 1.3398 1.3397 1.3398 0.73657 0 1.3333-0.59497 1.3333-1.3398m8.8369 0c0-0.73353-0.61296-1.3316-1.3496-1.3316-0.73662 0-1.3234 0.59804-1.3234 1.3316 0 0.74799 0.58682 1.3398 1.3234 1.3398 0.7366 0 1.3496-0.59497 1.3496-1.3398m8.8173 0c0-0.73353-0.59651-1.3316-1.3331-1.3316-0.74002 0-1.3496 0.59804-1.3496 1.3316 0 0.74799 0.60956 1.3398 1.3496 1.3398 0.73662 0 1.3331-0.59497 1.3331-1.3398m8.8239 0c0-0.73353-0.59976-1.3316-1.3299-1.3316-0.74325 0-1.3462 0.59804-1.3462 1.3316 0 0.74799 0.60956 1.3398 1.3462 1.3398 0.73018 0 1.3299-0.59497 1.3299-1.3398m8.8174 0c0-0.73353-0.60958-1.3316-1.3299-1.3316-0.74002 0-1.3397 0.59804-1.3397 1.3316 0 0.74799 0.60298 1.3398 1.3397 1.3398 0.72031 0 1.3299-0.59497 1.3299-1.3398m8.8271 0c0-0.73353-0.59654-1.3316-1.3462-1.3316-0.73018 0-1.3267 0.59804-1.3267 1.3316 0 0.74799 0.59651 1.3398 1.3267 1.3398 0.74964 0 1.3462-0.59497 1.3462-1.3398m-52.953 12.297c0-0.73982-0.58022-1.338-1.3365-1.338-0.7366 0-1.3299 0.59819-1.3299 1.338 0 0.7417 0.59329 1.3382 1.3299 1.3382 0.75631 0.0032218 1.3365-0.59332 1.3365-1.3382m8.8305 0c0-0.73982-0.59667-1.338-1.3333-1.338-0.74649 0-1.3397 0.59819-1.3397 1.338 0 0.7417 0.59654 1.3382 1.3397 1.3382 0.73657 0.0032218 1.3333-0.59332 1.3333-1.3382m8.8369 0c0-0.73982-0.61296-1.338-1.3496-1.338-0.73662 0-1.3234 0.59819-1.3234 1.338 0 0.7417 0.58682 1.3382 1.3234 1.3382 0.7366 0 1.3496-0.59332 1.3496-1.3382m8.8173 0c0-0.73982-0.59651-1.338-1.3331-1.338-0.74002 0-1.3496 0.59819-1.3496 1.338 0 0.7417 0.60956 1.3382 1.3496 1.3382 0.73662 0 1.3331-0.59332 1.3331-1.3382m8.8239 0c0-0.73982-0.59976-1.338-1.3299-1.338-0.74325 0-1.3462 0.59819-1.3462 1.338 0 0.7417 0.60956 1.3382 1.3462 1.3382 0.73018 0.0032218 1.3299-0.59332 1.3299-1.3382m8.8174 0c0-0.73982-0.60958-1.338-1.3299-1.338-0.74002 0-1.3397 0.59819-1.3397 1.338 0 0.7417 0.60298 1.3382 1.3397 1.3382 0.72031 0.0032218 1.3299-0.59332 1.3299-1.3382m8.8271 0c0-0.73982-0.59654-1.338-1.3462-1.338-0.73018 0-1.3267 0.59819-1.3267 1.338 0 0.7417 0.59651 1.3382 1.3267 1.3382 0.74964 0.0032218 1.3462-0.59332 1.3462-1.3382m-52.953 12.294c0-0.74154-0.58022-1.3316-1.3365-1.3316-0.7366 0-1.3299 0.59327-1.3299 1.3316 0 0.74149 0.59329 1.338 1.3299 1.338 0.75631 0.003196 1.3365-0.59329 1.3365-1.338m8.8305 0c0-0.74154-0.59667-1.3316-1.3333-1.3316-0.74649 0-1.3397 0.59327-1.3397 1.3316 0 0.74149 0.59654 1.338 1.3397 1.338 0.73657 0.003196 1.3333-0.59329 1.3333-1.338m8.8369 0c0-0.74154-0.61296-1.3316-1.3496-1.3316-0.73662 0-1.3234 0.59327-1.3234 1.3316 0 0.74149 0.58682 1.338 1.3234 1.338 0.7366-2.57e-5 1.3496-0.59329 1.3496-1.338m8.8173 0c0-0.74154-0.59651-1.3316-1.3331-1.3316-0.74002 0-1.3496 0.59327-1.3496 1.3316 0 0.74149 0.60956 1.338 1.3496 1.338 0.73662-2.57e-5 1.3331-0.59329 1.3331-1.338m8.8239 0c0-0.74154-0.59976-1.3316-1.3299-1.3316-0.74325 0-1.3462 0.59327-1.3462 1.3316 0 0.74149 0.60956 1.338 1.3462 1.338 0.73018 0.003196 1.3299-0.59329 1.3299-1.338m8.8174 0c0-0.74154-0.60958-1.3316-1.3299-1.3316-0.74002 0-1.3397 0.59327-1.3397 1.3316 0 0.74149 0.60298 1.338 1.3397 1.338 0.72031 0.003196 1.3299-0.59329 1.3299-1.338m8.8271 0c0-0.74154-0.59654-1.3316-1.3462-1.3316-0.73018 0-1.3267 0.59327-1.3267 1.3316 0 0.74149 0.59651 1.338 1.3267 1.338 0.74964 0.003196 1.3462-0.59329 1.3462-1.338m-52.953 12.307c0-0.74154-0.58022-1.3479-1.3365-1.3479-0.7366 0-1.3299 0.60631-1.3299 1.3479 0 0.73832 0.59329 1.3348 1.3299 1.3348 0.75631-0.0032217 1.3365-0.59976 1.3365-1.3348m8.8305 0c0-0.74154-0.59667-1.3479-1.3333-1.3479-0.74649 0-1.3397 0.60631-1.3397 1.3479 0 0.73832 0.59654 1.3348 1.3397 1.3348 0.73657-0.0032217 1.3333-0.59976 1.3333-1.3348m8.8369 0c0-0.74154-0.61296-1.3479-1.3496-1.3479-0.73662 0-1.3234 0.60631-1.3234 1.3479 0 0.73832 0.58682 1.3348 1.3234 1.3348 0.7366 0 1.3496-0.59976 1.3496-1.3348m8.8173 0c0-0.74154-0.59651-1.3479-1.3331-1.3479-0.74002 0-1.3496 0.60631-1.3496 1.3479 0 0.73832 0.60956 1.3348 1.3496 1.3348 0.73662 0 1.3331-0.59976 1.3331-1.3348m8.8239 0c0-0.74154-0.59976-1.3479-1.3299-1.3479-0.74325 0-1.3462 0.60631-1.3462 1.3479 0 0.73832 0.60956 1.3348 1.3462 1.3348 0.73018-0.0032217 1.3299-0.59976 1.3299-1.3348m8.8174 0c0-0.74154-0.60958-1.3479-1.3299-1.3479-0.74002 0-1.3397 0.60631-1.3397 1.3479 0 0.73832 0.60298 1.3348 1.3397 1.3348 0.72031-0.0032217 1.3299-0.59976 1.3299-1.3348m8.8271 0c0-0.74154-0.59654-1.3479-1.3462-1.3479-0.73018 0-1.3267 0.60631-1.3267 1.3479 0 0.73832 0.59651 1.3348 1.3267 1.3348 0.74964-0.0032218 1.3462-0.59976 1.3462-1.3348" fill="#231f20"/>
<path transform="matrix(.025774 0 0 .025774 -7481.7 -7711.2)" d="m3294.7 5482.7 338.69 966.88m-2.402-5935.8-285.7 101.68m-6494 4867.2-339.01 966.88m2.152-5935.8 285.7 101.68" fill="none" stroke="#231f20" stroke-width="17.483"/>
<path d="m-7457-7559.8v3.0543h-0.76273v-4.1169h0.64858l3.0999 2.9989v-2.9989h0.74966v4.1169h-0.59976l-3.1357-3.0543m7.6634 0v3.0543h-0.77258v-4.1169h0.65845l3.0967 2.9989v-2.9989h0.75626v4.1169h-0.59971l-3.1391-3.0543m15.878 0v3.0543h-0.75953v-4.1169h0.6486l3.0837 2.9989v-2.9989h0.76933v4.1169h-0.60311l-3.1389-3.0543m-17.984-1.0626h0.14333v4.1169h-0.75953v-4.1169h0.61621m11.047-8h0.14348v0.70399h-1.8386v3.4129h-0.79528v-3.4129h-1.8515v-0.70399h4.3418m4.9026 0h0.13689v0.70399h-3.276v0.92575h2.5394v0.70404h-2.5394v1.0823h3.276v0.70082h-4.0289v-4.1169h3.892m10.02 3.4161h-2.3406v-2.7121h2.3406c0.73982 0 1.0007 0.73018 1.0007 1.343 0 0.63894-0.26083 1.3691-1.0007 1.3691m1.2646-2.8196c-0.3063-0.39125-0.74966-0.60311-1.2843-0.60311h-3.064v4.1203h3.064c0.5346 0 0.97797-0.20862 1.2843-0.59654 0.2707-0.37161 0.41079-0.87686 0.41079-1.4734 0-0.58345-0.14008-1.079-0.41079-1.4473zm5.5644 2.6468c0 0.087993-0.0816 0.17281-0.17931 0.17281h-3.276c-0.088044 0-0.16622-0.084822-0.16622-0.17281v-2.3762c0-0.091214 0.071755-0.16959 0.16622-0.16959h3.276c0.094488 0 0.17931 0.075157 0.17931 0.16959v2.3762m-0.14671-3.2433h-3.3281c-0.48576 0-0.88348 0.38787-0.88348 0.87351v2.3731c0 0.48558 0.39774 0.87351 0.88348 0.87351h3.3281c0.47914 0 0.87686-0.38793 0.87686-0.87351v-2.3731c0-0.48563-0.39772-0.87351-0.87686-0.87351zm0.14671 7.8688c0 0.091266-0.0816 0.15962-0.17931 0.15962h-3.276c-0.088044 0-0.16622-0.068353-0.16622-0.15962v-2.3731c0-0.097709 0.071755-0.16284 0.16622-0.16284h3.276c0.094488 0 0.17931 0.065131 0.17931 0.16284v2.3731m-0.14671-3.2466h-3.3281c-0.48576 0-0.88348 0.38465-0.88348 0.87351v2.3731c0 0.48241 0.39774 0.87351 0.88348 0.87351h3.3281c0.47914 0 0.87686-0.3911 0.87686-0.87351v-2.3731c0-0.48236-0.39772-0.87351-0.87686-0.87351zm13.88 2.373c0.78559 0.32272 2.4612 0.577 3.7682 0.577 1.4278 0 2.0243-0.49223 2.0243-1.1084 0-0.55087-0.56074-0.8833-2.1318-1.4569-2.1155-0.77575-3.654-1.3952-3.654-2.7773 0-1.4374 1.8547-2.2818 4.6939-2.2818 1.519 0 2.047 0.094642 3.0183 0.2739l0.0066239 1.3593c-0.94542-0.18591-1.7961-0.49545-3.1031-0.49545-1.4083 0-2.008 0.44641-2.008 0.91266 0 0.66167 0.9257 0.97782 2.5424 1.5548 2.246 0.80835 3.4945 1.4245 3.4945 2.7838 0 1.3952-1.5582 2.4023-5.1047 2.4023-1.4473 0-2.4381-0.088044-3.5465-0.26403v-1.4798m-7.5298-5.8381h-1.6754v6.3596h1.6754c2.5882 0 4.2116-1.1018 4.2116-3.1749 0-2.0667-1.6233-3.1847-4.2116-3.1847m4.5211 6.9562c-0.83106 0.36839-2.4088 0.61938-3.7843 0.61938h-5.2579v-8.762h5.2579c1.3755 0 2.9532 0.2346 3.7843 0.616 2.0309 0.90944 2.6795 2.3861 2.6795 3.7616 0 1.3822-0.64858 2.8457-2.6795 3.765z" fill="#c6c8ca"/>
<path d="m-7554.2-7527.6 0.50357 3.0837h0.021186l0.41079-3.0837h1.3772l0.54427 5.2024h-1.0577l-0.23965-3.7551h-0.017836l-0.16297 1.2941-0.44336 2.4611h-0.79869l-0.49713-2.497-0.1808-1.1474v-0.11073h-0.013042l-0.14995 3.7551h-1.105l0.45793-5.2024h1.3511m3.8693 5.16e-6h1.0251v5.2024h-1.0251zm4.87 0.99085c-0.13042-0.042398-0.26086-0.061858-0.3913-0.061858-0.90127 0-1.2907 0.82461-1.2907 1.6201 0 0.76915 0.38945 1.721 1.2843 1.721 0.13044 0 0.26733-0.02598 0.39437-0.065131v0.95828c-0.16132 0.065286-0.30803 0.091266-0.48066 0.091266-1.4751 0-2.303-1.3363-2.303-2.699 0-1.2907 0.86041-2.6174 2.2588-2.6174 0.18096 0 0.3472 0.029357 0.52154 0.081446v0.97132m2.026 3.6377c0 0.36194-0.28037 0.65523-0.65195 0.65523-0.37009 0-0.65368-0.29328-0.65368-0.65523 0-0.35852 0.28359-0.64213 0.65368-0.64213 0.37158 0 0.65195 0.28362 0.65195 0.64213" fill="#b2b4b6"/>
<path d="m-7330.2-7651.6 0.5346 1.2712c0.16297 0.44012 0.34225 0.91604 0.44318 1.3821h0.013042c0.11093-0.4661 0.24779-0.93235 0.41723-1.3821l0.56077-1.2712h1.9851l-1.9851 4.3973 2.1254 4.6939h-2.1254l-0.59332-1.4473c-0.16944-0.45643-0.27377-0.90627-0.39774-1.3626h-0.039022c-0.13047 0.45965-0.23472 0.90622-0.39774 1.3626l-0.54105 1.4473h-2.0568l1.9656-4.6939-1.9656-4.3973h2.0569m-20.086 24.676 0.20861-0.66827 0.85719-2.6143h2.1254l-2.2393 5.1047v3.9899h-1.8906v-3.9899l-2.2884-5.1047h2.0699l0.98763 2.8457 0.16962 0.4369" fill="#939598"/>
<path d="m-7309-7630.9-2.1939 9.0879h1.8516l0.34225-1.5224h1.8906l0.34547 1.5224h1.9982l-2.2785-9.0879h-1.9557m1.6103 6.1412h-1.3235l0.40419-2.4252 0.1988-1.3822h0.029357l0.21524 1.3822 0.47592 2.4252zm-20.761 17.971c0 0.69425-0.44012 1.1442-1.1703 1.1442v-2.2102c0.74325-0.048842 1.1703 0.41076 1.1703 1.066m-1.2258 6.5128c1.7766 0 3.2076-0.75948 3.2076-2.5522 0-0.79546-0.39774-1.7537-1.2029-2.1189 0.72355-0.4595 1.0431-1.0757 1.0431-1.8776 0-0.75611-0.35212-1.5711-0.99745-2.0568-0.61943-0.46288-1.2713-0.49223-2.0211-0.49223h-1.8971v9.0978h1.8677zm1.2941-2.7577c0 0.76598-0.45963 1.2811-1.2322 1.2517v-2.461c0.76291-0.019691 1.2322 0.48236 1.2322 1.2093z" fill="#bbbdc0"/>
<path d="m-7350.2-7684.2c-0.20539-0.15977-0.43674-0.30648-0.71064-0.30648-0.28681 0-0.48558 0.18586-0.48558 0.47929 0 0.80513 1.47 0.85724 1.47 2.1839 0 0.8833-0.49218 1.5419-1.4081 1.5419-0.26088 0-0.60636-0.091421-0.82144-0.25104v-0.92248c0.21508 0.15635 0.43674 0.26065 0.71711 0.26065 0.32596 0 0.56056-0.20862 0.56056-0.54105 0-0.38143-0.28022-0.51167-0.56718-0.71064-0.54749-0.38128-0.90281-0.75611-0.90281-1.4569 0-0.77915 0.44656-1.4637 1.281-1.4637 0.32599 0 0.59332 0.087992 0.86706 0.24454v0.94202m3.1261-1.105v0.91588h-0.99751v1.0692h0.87348v0.91609h-0.87348v1.105h0.99751v0.9191h-1.9656v-4.9252h1.9656m2.1611 0v4.0061h0.94524v0.9191h-1.9232v-4.9252h0.97794m3.7682 0v0.91588h-0.98441v1.0692h0.87351v0.91609h-0.87351v1.105h0.9973v0.9191h-1.9688v-4.9252h1.9559m3.3248 0.93557c-0.124-0.039176-0.23472-0.065286-0.34888-0.065286-0.8182 0-1.1701 0.77258-1.1701 1.5385 0 0.73018 0.34872 1.6267 1.1604 1.6267 0.12382 0 0.23457-0.032733 0.35854-0.068507v0.91266c-0.14346 0.065286-0.28694 0.084771-0.4369 0.084771-1.3363 0-2.0862-1.2647-2.0862-2.549 0-1.2256 0.78559-2.4904 2.0472-2.4904 0.16299 0 0.31295 0.04562 0.47592 0.097709v0.91281m3.39-0.93557v0.91588h-0.75631v4.0094h-0.97779v-4.0094h-0.76933v-0.91588h2.5034m13.691 1.105c-0.18913-0.15977-0.43674-0.31292-0.69103-0.31292-0.3163 0-0.50205 0.1923-0.50205 0.48574 0 0.80513 1.4799 0.85724 1.4799 2.1839 0 0.8833-0.50187 1.5419-1.418 1.5419-0.26405 0-0.60633-0.09142-0.83446-0.25104v-0.92913c0.22813 0.163 0.44659 0.25426 0.74002 0.25426 0.31614 0 0.56053-0.1988 0.56053-0.52801 0-0.38143-0.29326-0.51167-0.56718-0.71064-0.56053-0.38128-0.90944-0.75611-0.90944-1.4635 0-0.77258 0.45641-1.4571 1.2909-1.4571 0.30313 0 0.58992 0.087993 0.85722 0.24454v0.94202m3.4585-1.105v0.91588h-0.75933v4.0094h-0.99104v-4.0094h-0.74322v-0.91588h2.4936m1.48 0-1.1378 4.9253h0.96493l0.17281-0.82784h0.98761l0.18248 0.82784h1.0367l-1.1866-4.9253h-1.0202m0.83768 3.3281h-0.67471l0.1988-1.3168 0.11737-0.75631h0.0064435l0.10431 0.75631 0.24779 1.3168zm3.1488 1.5972v-2.2818h0.019691l0.85719 2.2818h1.0236l-0.86384-2.2425c0.48901-0.2673 0.72036-0.73018 0.72036-1.2712 0-1.3496-1.1181-1.4115-1.7439-1.4115h-0.97781v4.9253h0.96472m0-4.1233h0.13044c0.48901-0.029357 0.66505 0.25748 0.66505 0.61922 0 0.39774-0.17926 0.70082-0.62584 0.70082l-0.16962-0.0096653v-1.3104zm4.9809-0.80191v0.91588h-0.7824v4.0094h-0.96807v-4.0094h-0.76941v-0.91588h2.5199m-331.31 5.0623v-2.0341l0.20707 0.0098715c0.85572 0 1.4163-0.52499 1.4163-1.444 0-1.594-1.3821-1.4604-1.576-1.4604h-0.9583v4.9286h0.91098m0-4.1235h0.18096c0.40419 0 0.52478 0.2804 0.52478 0.63554 0 0.50527-0.25426 0.67809-0.70252 0.6586v-1.2941h-0.0032217zm3.9523-0.8833c-0.81814 0-1.6379 0.69098-1.6379 2.5457 0 1.8516 0.81972 2.5426 1.6379 2.5426 0.82464 0 1.6332-0.69103 1.6332-2.5426 0-1.8547-0.80853-2.5457-1.6332-2.5457m-0.64384 2.5424c0-0.44334 0.044151-1.6396 0.64384-1.6396 0.60788 0 0.66164 1.1963 0.66164 1.6396 0 0.39115-0.053765 1.6428-0.66164 1.6428-0.59968 0-0.64384-1.2517-0.64384-1.6428zm3.7455-2.4643 0.39434 2.3503c0.05227 0.3487 0.061961 0.69742 0.092993 1.0528h0.013042c0.043919-0.35535 0.063404-0.70404 0.13366-1.0528l0.47097-2.3503h0.72698l0.59476 3.403h0.013119c0.029331-0.35192 0.032527-0.69103 0.086317-1.0399l0.36024-2.3599h0.97457l-0.97457 4.9254h-0.79376l-0.47422-2.6013c-0.022913-0.29988-0.089719-0.59976-0.13047-0.89962h-0.013042c-0.043945 0.29988-0.070028 0.59976-0.14008 0.89962l-0.53783 2.6013h-0.79704l-0.94212-4.9254h0.94212m6.516-0.0032218v0.90622h-0.93232v1.0821h0.8182v0.91266h-0.8182v1.1084h0.94859v0.91926h-1.8662v-4.9286h1.8499m1.9183 4.9286v-2.2753h0.0097941l0.81157 2.2753h0.96812l-0.81157-2.2427c0.46117-0.2607 0.66164-0.73662 0.66164-1.2712 0-1.3496-1.0446-1.4147-1.6396-1.4147h-0.91436v4.9286h0.91438m0-4.1235h0.12382c0.46775-0.022913 0.61767 0.25748 0.61767 0.60956 0 0.40741-0.16127 0.70727-0.5785 0.70727l-0.15977-0.0096652v-1.3072h-0.0032218z" fill="#808285"/>
<path transform="matrix(.025774 0 0 .025774 -7481.7 -7711.2)" d="m7826.2 276.06-14.676-428.48c0-388.39-261.66-628.38-602.12-635.14v-6491.5c0-343.94-278.87-622.48-622.87-622.48h-13013c-343.43 0-622.49 278.55-622.49 622.48v6490.5c-341.03 6.83-602.38 247.76-602.38 636.15l-14.735 428.48c-0.374 48.816 11.891 75.631 54.008 75.631h70.321c-4.685 17.195-8.418 35.027-15.939 52.355-11.002 26.814-27.315 50.84-31.495 80.691-3.224 28.578-45.274 281.52-45.274 649.04l-0.567 5888c-0.382 508.16 400.21 926.53 908.37 948.28 1144.9 50.08 2290.3 99.658 3435.8 75.5 26.494-0.375 60.581-1.389 95.926-7.338 94.668-15.805 189.08-31.994 283.48-49.447 35.983-7.08 108.64-10.619 108.64-10.619h5766s72.972 3.539 109.01 10.619c94.221 17.453 188.7 33.643 283.17 49.447 35.792 5.949 70.063 6.963 96.116 7.338 1145.7 24.158 2290.6-25.42 3435.3-75.5 507.91-21.754 908.31-440.12 908.31-948.28v-5888c0-367.52-42.365-620.47-46.033-649.04-4.045-29.852-20.49-53.877-31.617-80.691-6.707-17.453-11.129-35.16-15.432-52.355h70.318c41.862 0 54.384-26.815 53.628-75.631z" fill="none" stroke="#231f20" stroke-width="27.326"/>
<path d="m-7649.8-7625.9c0-3.038 0.71879-5.9131 1.9607-8.4882l-9.1825-0.019485c-0.97627 0-1.4961 0.30632-1.796 1.2549-1.5826 5.0297-1.5826 9.4823 0 14.502 0.29648 0.95848 0.79701 1.3136 1.796 1.3136h9.2152c-1.2616-2.5947-1.9934-5.4924-1.9934-8.5631" fill="#4c4c4e"/>
<path transform="matrix(.025774 0 0 .025774 -7481.7 -7711.2)" d="m-6520.8 3309.1c0-117.87 27.888-229.42 76.071-329.33l-356.27-0.756c-37.878 0-58.046 11.885-69.682 48.689-61.403 195.15-61.403 367.9 0 562.67 11.503 37.188 30.923 50.967 69.682 50.967h357.54c-48.947-100.67-77.342-213.1-77.342-332.24z" fill="none" stroke="#231f20" stroke-width="17.483"/>
<path d="m-7601.6-7633.2c-0.29985-0.94861-0.78392-1.3038-1.7814-1.3038h-9.2934c1.268 2.5784 1.9998 5.486 1.9998 8.55 0 3.0706-0.73185 5.9718-1.9998 8.5632h9.2934c0.99745 0 1.4815-0.35535 1.7814-1.3136 1.589-5.0135 1.589-9.4661 0-14.496" fill="#4c4c4e"/>
<path transform="matrix(.025774 0 0 .025774 -7481.7 -7711.2)" d="m-4653.5 3027.7c-11.634-36.805-30.415-50.586-69.115-50.586h-360.57c49.196 100.04 77.591 212.85 77.591 331.73 0 119.14-28.395 231.7-77.591 332.24h360.57c38.7 0 57.481-13.787 69.115-50.967 61.653-194.52 61.653-367.27 0-562.42z" fill="none" stroke="#231f20" stroke-width="17.483"/>
<path d="m-7630.2-7645.4c3.0641 0 5.9424 0.72358 8.5354 1.9787l0.0098457-9.2413c0-0.96812-0.31462-1.4798-1.2583-1.7829-5.0296-1.5907-9.4791-1.5907-14.507 0-0.94351 0.30315-1.2517 0.81479-1.2517 1.7829l0.0098457 9.2086c2.567-1.2419 5.4273-1.9459 8.4621-1.9459" fill="#4c4c4e"/>
<path transform="matrix(.025774 0 0 .025774 -7481.7 -7711.2)" d="m-5763.3 2551.6c118.88 0 230.56 28.074 331.16 76.77l0.382-358.55c0-37.562-12.207-57.414-48.82-69.176-195.14-61.719-367.78-61.719-562.86 0-36.607 11.762-48.565 31.613-48.565 69.176l0.382 357.28c99.596-48.183 210.57-75.5 328.32-75.5z" fill="none" stroke="#231f20" stroke-width="17.483"/>
<path d="m-7630.2-7606.4c-3.0607 0-5.9474-0.72358-8.5208-1.9883v9.2443c0 1.0039 0.35362 1.4734 1.3006 1.7896 5.0281 1.5777 9.4726 1.5777 14.507 0 0.94369-0.3162 1.3057-0.78564 1.3057-1.7896v-9.264c-2.5981 1.2714-5.5089 2.008-8.5925 2.008" fill="#4c4c4e"/>
<path transform="matrix(.025774 0 0 .025774 -7481.7 -7711.2)" d="m3324.7 5378.1v-4677.7c0-74.998-57.29-108.76-108.26-108.76h-6272.1c-51.158 0-107.88 27.316-107.88 108.76v4677.7c0 82.455 54.124 108.26 107.88 108.26h6272.1c52.871 0 108.26-41.992 108.26-108.26zm-9088-1311.5c-118.75 0-230.75-28.074-330.6-77.145v358.67c0 38.951 13.72 57.166 50.46 69.434 195.08 61.213 367.53 61.213 562.86 0 36.614-12.268 50.658-30.482 50.658-69.434v-359.43c-100.8 49.329-213.74 77.909-333.38 77.909z" fill="none" stroke="#231f20" stroke-width="17.483"/>
<path d="m-7396-7571.3c0 0.80191-0.60311 1.4571-1.3592 1.4571h-164.46c-0.74812 0-1.356-0.65195-1.356-1.4571v-123.31c0-0.80513 0.60788-1.4571 1.356-1.4571h164.46c0.75933 0 1.3592 0.64873 1.3592 1.4571v123.31zm0-181.12c0 0.80188-0.60311 1.4556-1.3592 1.4556h-164.46c-0.74812 0-1.356-0.6503-1.356-1.4556v-123.31c0-0.80516 0.60788-1.4554 1.356-1.4554h164.46c0.75933 0 1.3592 0.65025 1.3592 1.4554v123.31z"/>
</svg>
