<?xml version="1.0" encoding="UTF-8"?>
<svg enable-background="new 0 0 432.949 350.562" version="1.1" viewBox="0 0 432.95 350.56" xml:space="preserve" xmlns="http://www.w3.org/2000/svg">

	<rect x="60.843" y="338.35" width="28.618" height="12.209" fill="#A5A5A7"/>
	<rect x="95.757" y="338.35" width="28.618" height="12.209" fill="#A5A5A7"/>
	<rect width="432.95" height="343.42" fill="#E0E0E1"/>
	<polygon points="45.337 343.42 45.337 302.29 326.61 302.29 326.61 343.42 327.75 343.42 327.75 301.14 44.194 301.14 44.194 343.42" fill="#A3A3A4"/>
	<rect x="327.78" width="67.301" height="343.42" fill="#A3A3A4"/>
	<rect x="327.78" width="67.301" height="41.699" fill="#09070A"/>
	<rect x="327.78" y="301.72" width="67.301" height="41.7" fill="#09070A"/>
	<path d="m330.07 343.27c-1.184 0-2.146-0.963-2.146-2.146v-16.271c0-1.184 0.963-2.146 2.146-2.146h62.722c1.184 0 2.146 0.963 2.146 2.146v16.271c0 1.184-0.962 2.146-2.146 2.146h-62.722z" fill="#202020"/>
	<path d="m392.79 322.85c1.104 0 2.003 0.898 2.003 2.003v16.271c0 1.104-0.898 2.004-2.003 2.004h-62.722c-1.105 0-2.004-0.899-2.004-2.004v-16.271c0-1.104 0.898-2.003 2.004-2.003h62.722m0-0.287h-62.722c-1.266 0-2.29 1.025-2.29 2.29v16.271c0 1.265 1.024 2.29 2.29 2.29h62.722c1.265 0 2.289-1.025 2.289-2.29v-16.271c0-1.265-1.025-2.29-2.289-2.29z" fill="#070308"/>
	<path d="m330.07 322.42c-1.184 0-2.146-0.962-2.146-2.146v-16.271c0-1.184 0.963-2.146 2.146-2.146h62.722c1.184 0 2.146 0.962 2.146 2.146v16.271c0 1.184-0.962 2.146-2.146 2.146h-62.722z" fill="#202020"/>
	<path d="m392.79 302c1.104 0 2.003 0.898 2.003 2.003v16.271c0 1.104-0.898 2.003-2.003 2.003h-62.722c-1.105 0-2.004-0.898-2.004-2.003v-16.271c0-1.104 0.898-2.003 2.004-2.003h62.722m0-0.286h-62.722c-1.266 0-2.29 1.024-2.29 2.289v16.271c0 1.264 1.024 2.289 2.29 2.289h62.722c1.265 0 2.289-1.025 2.289-2.289v-16.271c0-1.264-1.025-2.289-2.289-2.289z" fill="#070308"/>
	<path d="m330.07 41.556c-1.184 0-2.146-0.963-2.146-2.146v-16.271c0-1.183 0.963-2.146 2.146-2.146h62.722c1.184 0 2.146 0.963 2.146 2.146v16.271c0 1.183-0.962 2.146-2.146 2.146h-62.722z" fill="#202020"/>
	<path d="m392.79 21.136c1.104 0 2.003 0.899 2.003 2.003v16.271c0 1.104-0.898 2.003-2.003 2.003h-62.722c-1.105 0-2.004-0.898-2.004-2.003v-16.271c0-1.104 0.898-2.003 2.004-2.003h62.722m0-0.286h-62.722c-1.266 0-2.29 1.025-2.29 2.289v16.271c0 1.264 1.024 2.289 2.29 2.289h62.722c1.265 0 2.289-1.025 2.289-2.289v-16.271c0-1.264-1.025-2.289-2.289-2.289z" fill="#070308"/>
	<path d="m330.07 20.707c-1.184 0-2.146-0.963-2.146-2.147v-16.271c0-1.183 0.963-2.146 2.146-2.146h62.722c1.184 0 2.146 0.963 2.146 2.146v16.271c0 1.184-0.962 2.147-2.146 2.147h-62.722z" fill="#202020"/>
	<path d="m392.79 0.286c1.104 0 2.003 0.898 2.003 2.003v16.271c0 1.105-0.898 2.004-2.003 2.004h-62.722c-1.105 0-2.004-0.899-2.004-2.004v-16.271c0-1.104 0.898-2.003 2.004-2.003h62.722m0-0.286h-62.722c-1.266 0-2.29 1.024-2.29 2.289v16.271c0 1.265 1.024 2.291 2.29 2.291h62.722c1.265 0 2.289-1.025 2.289-2.291v-16.271c0-1.265-1.025-2.289-2.289-2.289z" fill="#070308"/>
	<rect x="327.78" y="296.79" width="67.301" height="4.922" fill="#E0E0E1"/>
	<rect x="327.78" y="287.68" width="67.301" height="4.92" fill="#E0E0E1"/>
	<rect x="327.78" y="278.57" width="67.301" height="4.921" fill="#E0E0E1"/>
	<rect x="327.78" y="269.46" width="67.301" height="4.921" fill="#E0E0E1"/>
	<rect x="327.78" y="260.35" width="67.301" height="4.921" fill="#E0E0E1"/>
	<rect x="327.78" y="251.24" width="67.301" height="4.92" fill="#E0E0E1"/>
	<rect x="327.78" y="242.13" width="67.301" height="4.921" fill="#E0E0E1"/>
	<rect x="327.78" y="233.02" width="67.301" height="4.921" fill="#E0E0E1"/>
	<rect x="327.78" y="223.91" width="67.301" height="4.92" fill="#E0E0E1"/>
	<rect x="327.78" y="214.8" width="67.301" height="4.921" fill="#E0E0E1"/>
	<rect x="327.78" y="205.69" width="67.301" height="4.92" fill="#E0E0E1"/>
	<rect x="327.78" y="196.58" width="67.301" height="4.921" fill="#E0E0E1"/>
	<rect x="327.78" y="187.47" width="67.301" height="4.924" fill="#E0E0E1"/>
	<rect x="327.78" y="178.36" width="67.301" height="4.921" fill="#E0E0E1"/>
	<rect x="327.78" y="169.25" width="67.301" height="4.921" fill="#E0E0E1"/>
	<rect x="327.78" y="160.14" width="67.301" height="4.92" fill="#E0E0E1"/>
	<rect x="327.78" y="151.03" width="67.301" height="4.922" fill="#E0E0E1"/>
	<rect x="327.78" y="141.92" width="67.301" height="4.921" fill="#E0E0E1"/>
	<rect x="327.78" y="132.81" width="67.301" height="4.921" fill="#E0E0E1"/>
	<rect x="327.78" y="123.69" width="67.301" height="4.921" fill="#E0E0E1"/>
	<rect x="327.78" y="114.58" width="67.301" height="4.92" fill="#E0E0E1"/>
	<rect x="327.78" y="105.47" width="67.301" height="4.921" fill="#E0E0E1"/>
	<rect x="327.78" y="96.363" width="67.301" height="4.921" fill="#E0E0E1"/>
	<rect x="327.78" y="87.252" width="67.301" height="4.92" fill="#E0E0E1"/>
	<rect x="327.78" y="78.142" width="67.301" height="4.921" fill="#E0E0E1"/>
	<rect x="327.78" y="69.031" width="67.301" height="4.922" fill="#E0E0E1"/>
	<rect x="327.78" y="59.921" width="67.301" height="4.921" fill="#E0E0E1"/>
	<rect x="327.78" y="50.81" width="67.301" height="4.92" fill="#E0E0E1"/>
	<rect x="327.78" y="41.699" width="67.301" height="4.921" fill="#E0E0E1"/>

</svg>
