<?xml version="1.0" encoding="UTF-8"?>
<svg viewBox="0 0 88.59 237.77" xmlns="http://www.w3.org/2000/svg">
<circle transform="rotate(-45.001 44.787 193.97)" cx="44.789" cy="193.97" r="43.801" fill="#211c1d"/>
<g fill="#808094" opacity=".1">
<path d="m44.789 234.55 8.892-8.59h-4.343v-9.829h-9.098v9.829h-4.343zm28.696-11.886 0.213-12.362-3.071 3.071-6.95-6.95-6.433 6.433 6.95 6.95-3.072 3.071zm11.886-28.695-8.591-8.893v4.343h-9.828v9.098h9.828v4.344zm-11.886-28.696-12.362-0.213 3.071 3.071-6.95 6.949 6.433 6.434 6.95-6.95 3.071 3.071zm-28.696-11.887-8.892 8.591h4.343v9.829h9.098v-9.829h4.343zm-28.696 11.886-0.213 12.363 3.071-3.071 6.95 6.95 6.433-6.434-6.949-6.949 3.071-3.072zm-11.886 28.696 8.591 8.892v-4.343h9.828v-9.098h-9.828v-4.343zm11.886 28.696 12.362 0.213-3.071-3.071 6.95-6.95-6.433-6.433-6.95 6.95-3.071-3.071z"/>
</g>
<path d="M44.295 237.761C20.332 237.496.988 217.992.988 193.966c0-24.025 19.344-43.529 43.307-43.795-.165-.002-.329-.006-.494-.006C19.61 150.165 0 169.776 0 193.966c0 24.191 19.61 43.801 43.801 43.801.165 0 .329-.004.494-.006z" fill="#6d6e6f"/>
<linearGradient id="a" x1="313.1" x2="292.14" y1="1146.8" y2="1125.9" gradientTransform="rotate(90 644.88 536.23)" gradientUnits="userSpaceOnUse">
<stop stop-color="#a4a5a9" offset="0"/>
<stop stop-color="#e6e6e7" offset="1"/>
</linearGradient>
<circle cx="44.755" cy="193.97" r="14.82" fill="url(#a)"/>
<circle cx="44.755" cy="193.97" r="11.808" fill="#211c1d" opacity=".3"/>
<linearGradient id="b" x1="292.22" x2="313.09" y1="1146.8" y2="1125.9" gradientTransform="rotate(90 644.88 536.23)" gradientUnits="userSpaceOnUse">
<stop stop-color="#211c1d" stop-opacity="0" offset="0"/>
<stop stop-color="#211c1d" stop-opacity=".09" offset=".045"/>
<stop stop-color="#211c1d" offset=".5"/>
<stop stop-color="#211c1d" stop-opacity=".09" offset=".955"/>
<stop stop-color="#211c1d" stop-opacity="0" offset="1"/>
</linearGradient>
<path d="m59.482 194c0-8.153-6.609-14.761-14.762-14.761-8.152 0-14.761 6.609-14.761 14.761s6.609 14.761 14.761 14.761c8.153 1e-3 14.762-6.608 14.762-14.761zm-28.728-0.182c0-7.814 6.335-14.149 14.149-14.149s14.149 6.335 14.149 14.149-6.335 14.149-14.149 14.149-14.149-6.335-14.149-14.149z" fill="url(#b)" opacity=".15"/>
<linearGradient id="c" x1="-3911.8" x2="-3890.9" y1="-2407.5" y2="-2428.3" gradientTransform="rotate(-90 -622.35 -3085)" gradientUnits="userSpaceOnUse">
<stop stop-color="#fff" stop-opacity="0" offset="0"/>
<stop stop-color="#fff" offset=".5"/>
<stop stop-color="#fff" stop-opacity="0" offset="1"/>
</linearGradient>
<path d="m29.96 194c0 8.152 6.609 14.762 14.761 14.762 8.153 0 14.761-6.609 14.761-14.762s-6.609-14.761-14.761-14.761c-8.153 0-14.761 6.609-14.761 14.761zm28.728 0.182c0 7.814-6.335 14.149-14.149 14.149s-14.149-6.335-14.149-14.149 6.335-14.149 14.149-14.149c7.814 1e-3 14.149 6.335 14.149 14.149z" fill="url(#c)" opacity=".4"/>
<radialGradient id="e" cx="55.743" cy="193.8" r="20.511" gradientTransform="matrix(.866 -.5 .35 .6062 -60.36 104.18)" gradientUnits="userSpaceOnUse">
<stop stop-color="#ac6566" offset="0"/>
<stop stop-color="#ac6463" offset=".033"/>
<stop stop-color="#ac564c" offset=".314"/>
<stop stop-color="#ac4a3c" offset=".577"/>
<stop stop-color="#ab4032" offset=".813"/>
<stop stop-color="#ab3d2f" offset="1"/>
</radialGradient>
<circle cx="55.743" cy="193.8" r="20.511" fill="url(#e)"/>
<circle cx="61.4" cy="96.678" r="17.455" fill="#a33e2f"/>
<circle cx="61.4" cy="96.678" r="13.877" fill="#9d2d20"/>
<circle cx="27.23" cy="41.464" r="17.455" fill="#a33e2f"/>
<circle cx="27.23" cy="41.464" r="13.877" fill="#9d2d20"/>
<circle cx="61.224" cy="59.698" r="17.455" fill="#a33e2f"/>
<circle cx="61.224" cy="59.698" r="13.877" fill="#9d2d20"/>
<circle cx="27.19" cy="115.78" r="17.455" fill="#a33e2f"/>
<circle cx="27.19" cy="115.78" r="13.877" fill="#9d2d20"/>
<circle cx="27.486" cy="78.443" r="17.455" fill="#a33e2f"/>
<circle cx="27.486" cy="78.443" r="13.877" fill="#9d2d20"/>
<circle cx="60.969" cy="17.455" r="17.455" fill="#a33e2f"/>
<circle cx="60.969" cy="17.455" r="13.877" fill="#9d2d20"/>
</svg>
