<?xml version="1.0" encoding="UTF-8"?>
<svg enable-background="new -180 262.786 250.161 268.214" viewBox="-180 262.79 250.16 268.21" xmlns="http://www.w3.org/2000/svg">
<path transform="translate(154.58 74.815)" d="m-141.36 362.66h-137.25c-1.949 0-3.544-1.595-3.544-3.544v-11.254c0-1.949 1.595-3.544 3.544-3.544h137.25c1.949 0 3.544 1.595 3.544 3.544v11.254c0 1.949-1.595 3.544-3.544 3.544" fill="#cac2b5"/>
<path transform="translate(181.27 83.152)" d="m-134.68 343.91h-202.64c-1.949 0-3.542-1.595-3.542-3.544v-157.19c0-1.949 1.594-3.542 3.542-3.542h202.64c1.949 0 3.544 1.594 3.544 3.542v157.19c-1e-3 1.948-1.596 3.543-3.544 3.543" fill="#efede1"/>
<path transform="translate(173.16 95.273)" d="m-136.711 316.635h-182.262c-.974 0-1.771-.798-1.771-1.771v-130.429c0-.974.797-1.771 1.771-1.771h182.262c.975 0 1.771.798 1.771 1.771v130.429c.001.974-.796 1.771-1.771 1.771" fill="#d8d5cb"/>
<path d="m-180 262.79h250.16v268.21h-250.16z" fill="none"/>
<path transform="translate(153.07 103.89)" d="m-141.73 297.26h-132.03c-9.744 0-17.716-7.973-17.716-17.716v-77.008c0-9.744 7.972-17.716 17.716-17.716h132.03c9.744 0 17.716 7.972 17.716 17.716v77.007c1e-3 9.745-7.972 17.717-17.716 17.717z" fill="#4f4c4d"/>
<path transform="translate(141.41 65.884)" d="m-144.65 382.76h-104.33l5.658-11.164h93.073z" fill="#e4dccb"/>
<path d="m19.386 459.17h-146.96v-10.526h146.96z" fill="#efede0"/>
<path transform="translate(191.62)" d="m-132.09 531h-228.9c-5.846 0-10.63-4.784-10.63-10.63v-50.569c0-5.846 4.784-10.63 10.63-10.63h228.9c5.846 0 10.63 4.784 10.63 10.63v50.569c0 5.846-4.784 10.63-10.63 10.63" fill="#e4dccb"/>
<g fill="#c0ba9f">
<path transform="translate(14.104 15.356)" d="m-176.47 496.45c-1.523 0-2.769-1.246-2.769-2.769v-27.9c0-1.522 1.246-2.769 2.769-2.769 1.522 0 2.769 1.246 2.769 2.769v27.9c0 1.523-1.247 2.769-2.769 2.769"/>
<path transform="translate(22.229 15.356)" d="m-174.44 496.45c-1.522 0-2.769-1.246-2.769-2.769v-27.9c0-1.522 1.246-2.769 2.769-2.769s2.769 1.246 2.769 2.769v27.9c0 1.523-1.246 2.769-2.769 2.769"/>
<path transform="translate(30.205 15.356)" d="m-172.45 496.45c-1.523 0-2.769-1.246-2.769-2.769v-27.9c0-1.522 1.246-2.769 2.769-2.769 1.522 0 2.769 1.246 2.769 2.769v27.9c0 1.523-1.246 2.769-2.769 2.769"/>
<path transform="translate(38.33 15.356)" d="m-170.42 496.45c-1.523 0-2.769-1.246-2.769-2.769v-27.9c0-1.522 1.246-2.769 2.769-2.769 1.522 0 2.769 1.246 2.769 2.769v27.9c0 1.523-1.246 2.769-2.769 2.769"/>
<path transform="translate(45.927 15.356)" d="m-168.52 496.45c-1.522 0-2.769-1.246-2.769-2.769v-27.9c0-1.522 1.246-2.769 2.769-2.769s2.769 1.246 2.769 2.769v27.9c0 1.523-1.247 2.769-2.769 2.769"/>
<path transform="translate(54.053 15.356)" d="m-166.49 496.45c-1.522 0-2.769-1.246-2.769-2.769v-27.9c0-1.522 1.246-2.769 2.769-2.769s2.769 1.246 2.769 2.769v27.9c0 1.523-1.246 2.769-2.769 2.769"/>
</g>
<path transform="translate(188.55 8.1831)" d="m-132.86 512.59h-148.23c-1.949 0-3.544-1.595-3.544-3.544v-44.284c0-1.949 1.595-3.544 3.544-3.544h148.23c1.949 0 3.544 1.595 3.544 3.544v44.284c0 1.949-1.595 3.544-3.544 3.544" fill="#666870"/>
<path transform="translate(188.55 8.1831)" d="m-132.86 512.59h-148.23c-1.949 0-3.544-1.595-3.544-3.544v-44.284c0-1.949 1.595-3.544 3.544-3.544h148.23c1.949 0 3.544 1.595 3.544 3.544v44.284c0 1.949-1.595 3.544-3.544 3.544z" fill="none" stroke="#4f4c4d" stroke-miterlimit="10" stroke-width=".5"/>
<path transform="translate(122.37 25.83)" d="m-149.407 472.882h-60.519c-.975 0-1.771-.798-1.771-1.771v-3.71c0-.974.796-1.771 1.771-1.771h60.519c.975 0 1.771.797 1.771 1.771v3.71c.001.973-.796 1.771-1.771 1.771" fill="#201d1d"/>
<path d="m-53.434 503.24h-16.318v-16.318h16.318z" fill="#201d1d"/>
<path d="m-74.298 503.24h-5.795v-16.318h5.795z" fill="#525458"/>
<path transform="translate(179.08 25.83)" d="m-135.229 472.882h-60.519c-.975 0-1.771-.798-1.771-1.771v-3.71c0-.974.796-1.771 1.771-1.771h60.519c.975 0 1.771.797 1.771 1.771v3.71c0 .973-.796 1.771-1.771 1.771" fill="#201d1d"/>
<path transform="translate(186.92 25.682)" d="m-133.269 473.215h-3.894c-.975 0-1.773-.798-1.773-1.771v-3.895c0-.974.798-1.771 1.773-1.771h3.894c.975 0 1.771.797 1.771 1.771v3.895c0 .973-.796 1.771-1.771 1.771" fill="#525458"/>
<path transform="translate(185.37 31.706)" d="m-133.659 459.661h1.948c.974 0 1.771.797 1.771 1.771v3.895c0 .974-.798 1.771-1.771 1.771l-1.948.092" fill="#201d1d"/>
<path d="m55.425 517.7h-7.437v-7.438h7.437z" fill="#cac2b5"/>
<path d="m54.7 516.85h-2.269v-2.269h2.269z" fill="#1f70c1"/>
</svg>
