<?xml version="1.0" encoding="UTF-8"?>
<svg baseProfile="tiny" viewBox="0 0 283.5 309.4" xmlns="http://www.w3.org/2000/svg">
<path d="M274.5 190.4h-264L26 139.6c.5-1.7 2.1-2.9 4-2.9h223.6c1.8 0 3.4 1.1 3.9 2.8l17 50.9z" fill="#BCB5AC"/>
<path d="M277.2 201H8.9l1.6-10.6h264z" fill="#AAA297"/>
<path d="M276.2 254H9.9c-.6 0-1-.4-1-1v-52h268.4v52c-.1.6-.5 1-1.1 1z" fill="#898075"/>
<path d="M276.2 227.5H9.9c-.6 0-1-.4-1-1V201h268.4v25.5c-.1.6-.5 1-1.1 1z" fill="#958B7C"/>
<path d="m232.6 206.7h39.3v4h-39.3z" fill="#090909"/>
<path d="M232.6 206.7v3.9L222 222.5v-3.9zM13.9 218.6H222v4H13.9z" fill="#090909"/>
<path d="M271.9 210.6h-39.3L222 222.5h49.9z" fill="#1C1714"/>
<g fill="#FFF">
<path d="M237.6 215.2h.4c.2 0 .4.1.5.1.1.1.1.2.1.4s0 .3-.1.4c-.1.1-.3.2-.5.2h-.2v.7h-.2v-1.8zm.2.8h.2c.3 0 .4-.1.4-.4 0-.2-.2-.3-.4-.3h-.2v.7zM240.4 216c0 .6-.4.9-.8.9s-.8-.3-.8-.9c0-.5.3-.9.8-.9.5.1.8.4.8.9zm-1.3 0c0 .4.2.7.5.7s.5-.3.5-.7c0-.3-.2-.7-.5-.7-.4 0-.5.4-.5.7zM240.9 216.9l-.4-1.7h.2l.2.9c0 .2.1.4.1.6 0-.2.1-.4.1-.6l.2-.9h.2l.2.9c0 .2.1.4.1.6 0-.2.1-.4.1-.6l.2-.9h.2l-.5 1.7h-.2l-.2-.9c-.1-.2-.1-.4-.1-.6 0 .2-.1.3-.1.6l-.2.9h-.1zM243.6 216.1h-.6v.6h.7v.2h-.9v-1.7h.9v.2h-.7v.5h.7v.2zM244 215.2h.4c.2 0 .4 0 .5.1.1.1.1.2.1.3 0 .2-.1.4-.3.4.1 0 .2.2.2.3.1.2.1.4.1.5h-.2s-.1-.2-.1-.4-.1-.3-.3-.3h-.2v.7h-.2v-1.6zm.2.8h.2c.2 0 .4-.1.4-.3 0-.2-.2-.3-.4-.3h-.2v.6z"/>
</g>
<circle cx="248.6" cy="216" r="1.5" fill="#C2CD82"/>
<path d="M255.9 217.1l-.2-2.2h8l.2 2.2z" fill="#030000"/>
<path d="M263.6 216.8h-7.4l-.1-1.6h7.3z" fill="#110E0C"/>
<g fill="#201914">
<path d="m33.3 182.1h-16.4l-0.4 1.4h16.3zm0.8-2.7h-16.3l-0.4 1.4h16.3zm0.8-2.8h-16.3l-0.4 1.4h16.3zm0.9-2.8h-16.3l-0.4 1.4h16.3zm0.8-2.8h-16.3l-0.4 1.4h16.3zm0.9-2.8h-16.3l-0.5 1.4h16.4zm0.8-2.7h-16.3l-0.4 1.4h16.3zm0.9-2.8h-16.4l-0.4 1.4h16.3zm0.8-2.8h-16.3l-0.4 1.4h16.3zm0.9-2.8h-16.4l-0.4 1.4h16.4zm0.8-2.8h-16.3l-0.4 1.4h16.3zm0.8-2.7h-16.3l-0.4 1.4h16.3zm0.9-2.8h-16.3l-0.4 1.4h16.3zm0.8-2.8h-16.3l-0.4 1.4h16.3zm0.9-2.8h-16.4l-0.4 1.4h16.3zm0.5-1.8h-16.3l-0.1 0.4h16.3z"/>
<path d="M54.7 182.3H38.4l-.4 1.4h16.3zM55.6 179.6H39.3l-.5 1.4h16.4zM56.4 176.8H40.1l-.5 1.4H56zM57.3 174H41l-.5 1.4h16.4zM58.1 171.2H41.8l-.4 1.4h16.3zM59 168.4H42.6l-.4 1.4h16.4zM59.8 165.7H43.5l-.4 1.4h16.3zM60.6 162.9H44.3l-.4 1.4h16.3zM61.5 160.1H45.2l-.4 1.4h16.3zM62.4 157.3H46l-.4 1.4h16.3zM63.2 154.6H46.9l-.4 1.3h16.3zM64 151.8H47.7l-.5 1.4h16.4zM64.9 149H48.6l-.5 1.4h16.4zM65.7 146.2H49.4l-.4 1.4h16.3zM66.5 143.4H50.2l-.4 1.4h16.3zM67.1 141.6H50.8l-.1.4H67z"/>
<path d="m252.8 183.1h16.3l0.4 1.4h-16.3zm-0.9-2.6h16.3l0.4 1.3h-16.3zm-0.8-2.9h16.3l0.5 1.4h-16.4zm-0.9-2.8h16.3l0.5 1.4h-16.4zm-0.8-2.8h16.3l0.4 1.4h-16.3zm-0.9-2.7h16.3l0.5 1.3h-16.4zm-0.8-2.8h16.3l0.4 1.4h-16.3zm-0.9-2.8h16.4l0.4 1.4h-16.3zm-0.8-2.8h16.3l0.4 1.4h-16.3zm-0.9-2.8h16.4l0.4 1.4h-16.3zm-0.8-2.7h16.3l0.4 1.3h-16.3zm-0.8-2.8h16.3l0.5 1.4h-16.4zm-0.9-2.8h16.3l0.5 1.4h-16.4zm-0.8-2.8h16.3l0.4 1.4h-16.3zm-0.9-2.8h16.4l0.4 1.4h-16.3zm-0.5-1.7h16.3l0.1 0.4h-16.3z"/>
<path d="m231.3 183.3h16.3l0.4 1.4h-16.3zm-0.9-2.6h16.3l0.5 1.3h-16.4zm-0.8-2.9h16.4l0.4 1.4h-16.4zm-0.9-2.8h16.4l0.4 1.4h-16.4zm-0.8-2.8h16.3l0.4 1.4h-16.3zm-0.9-2.7h16.4l0.4 1.3h-16.3zm-0.8-2.8h16.3l0.4 1.4h-16.3zm-0.8-2.8h16.3l0.4 1.4h-16.3zm-0.9-2.8h16.3l0.5 1.4h-16.4zm-0.8-2.8h16.3l0.4 1.4h-16.3zm-0.9-2.7h16.3l0.5 1.3h-16.4zm-0.8-2.8h16.4l0.4 1.4h-16.4zm-0.9-2.8h16.4l0.4 1.4h-16.4zm-0.8-2.8h16.3l0.4 1.4h-16.3zm-0.8-2.8h16.3l0.4 1.4h-16.3zm-0.6-1.7h16.3l0.2 0.4h-16.4z"/>
</g>
<path d="M230.8 162.3H53.4l3.4 20.2c.1.5.5.8 1 .8h168.7c.5 0 .9-.3 1-.8l3.3-20.2z" fill="#A59481"/>
<path d="M236.9 0H48.2c-6.6 0-11.9 5.3-11.9 11.9v2.5h212.5v-2.5c0-6.5-5.3-11.9-11.9-11.9z" fill="#E2E6E2"/>
<path d="M45.4 162.3c-5 0-9.1-4.1-9.1-9.1V14.4c0-5 4.1-9.1 9.1-9.1h194.4c5 0 9.1 4.1 9.1 9.1v138.8c0 5-4.1 9.1-9.1 9.1H45.4z" fill="#B19C7F"/>
<path d="M46 157.4c-3 0-5.4-2.4-5.4-5.4V13.6c0-3 2.4-5.4 5.4-5.4h193.2c3 0 5.4 2.4 5.4 5.4V152c0 3-2.4 5.4-5.4 5.4H46z" fill="#0E1213"/>
<path d="M239.2 154.6H46c-1.4 0-2.6-1.2-2.6-2.6V13.6c0-1.4 1.2-2.6 2.6-2.6h193.2c1.4 0 2.6 1.2 2.6 2.6V152c0 1.4-1.2 2.6-2.6 2.6z" fill="#131313"/>
<path d="M69.1 143.8c-6.7 0-12.8-4.5-15-12-.1-.3-.1-.5-.1-.8V19.5c0-1 .8-1.8 1.8-1.8H212c1 0 1.8.8 1.8 1.8v109.1c0 8.4-6.8 15.2-15.1 15.2l-64.7 1-64.9-1z" fill="#131315"/>
<path d="M69.2 139.5c-6 0-10.9-4.9-10.9-11V32.9c0-6 4.9-11 11-11h129.3c6 0 11 4.9 11 11v95.7c0 6-4.9 11-11 11l-64.6 1.8c-.1 0-64.8-1.9-64.8-1.9z" fill="#161618"/>
<path d="M198.5 136.7l-64.6 1.8-64.6-1.8c-4.5 0-8.1-3.7-8.1-8.1V32.9c0-4.5 3.7-8.1 8.1-8.1h129.3c4.5 0 8.1 3.7 8.1 8.1v95.7c-.1 4.4-3.7 8.1-8.2 8.1z" fill="#3B3431"/>
<path d="M237.5 150.4h-15.7c-1.3 0-2.3-1-2.3-2.3V20c0-1.3 1-2.3 2.3-2.3h15.7c1.3 0 2.3 1 2.3 2.3v128.1c0 1.2-1 2.3-2.3 2.3z" fill="#0A0A0C"/>
<circle cx="229.7" cy="45.9" r="2.4" fill="#C11100"/>
<circle cx="229.7" cy="62.8" r="5.2" fill="#060608"/>
<circle cx="229.7" cy="62.8" r="4.3" fill="#161618"/>
<circle cx="229.7" cy="62.8" r="1.2" fill="#110D09"/>
<circle cx="229.7" cy="80.2" r="5.2" fill="#060608"/>
<circle cx="229.7" cy="80.2" r="4.3" fill="#161618"/>
<circle cx="229.7" cy="80.2" r="1.2" fill="#110D09"/>
<g fill="#4F4948">
<path d="M224 27.4l.5-2.9-.4-.4.9-1 2 2.3.5-2.3.9.5-.8.4-.6 3.3-2.2-2.4-.3 1.5.5.5zM230.1 23.6h.4c.3 0 .5 0 .6.1.2.1.2.1.3.3.1.1.2.3.2.6l.3-1.2h-3.3v.1h.1c.1 0 .1 0 .2.1 0 0 .1.1.1.2 0 0 0 .1-.1.3l-.2 1.1c0 .1-.1.1-.2.1-.1.1-.2.1-.2.1s.1 0 .2.1l.1.1-.2 1c0 .2-.1.3-.1.4 0 .1-.1.1-.1.1-.1 0-.2.1-.2.1v.1h3.2l.2-1.2c-.2.3-.2.5-.5.7-.3.2-.5.3-.9.3h-.4l-.1-.1s0-.2.1-.4l.2-1c.2 0 .3 0 .4.1.1 0 .1.1.2.2s.2.2.2.4l.3-1.6c-.1.3-.3.3-.5.4-.2.1-.3.1-.6.1h-.1l.4-1.6zM234.5 27.3l.7-1.4s-.7.5-1.3.4c-.6 0-1.1-.6-1-1.1.1-1.2 1.4-1.5 1.4-1.5l.5.7.6-.2-.4-1.1s-.8 0-1.5.5c-.8.4-1.6 1.2-1.5 2.1.2 2 1.8 1.8 2 1.7.1 0 .5-.1.5-.1z"/>
<path d="M223.5 29.5c-.1 0-.2.1-.4.1-.4 0-.7-.2-.7-.7 0-.4.3-.7.7-.7.2 0 .3 0 .3.1v.1c-.1 0-.2-.1-.3-.1-.3 0-.5.2-.5.6 0 .3.2.5.5.5.1 0 .2 0 .3-.1l.1.2zM223.7 28.1h.2v.6c0-.1.1-.1.1-.1h.2c.1 0 .3.1.3.4v.6h-.2V29c0-.2-.1-.3-.2-.3s-.2.1-.2.2v.7h-.2v-1.5zM225.3 29.5v-.1c-.1.1-.2.1-.3.1-.2 0-.3-.1-.3-.3 0-.2.2-.4.6-.4 0-.1 0-.2-.2-.2-.1 0-.2 0-.3.1v-.1c.1-.1.2-.1.3-.1.3 0 .4.2.4.4V29.5h-.2zm0-.5c-.2 0-.4 0-.4.2 0 .1.1.2.2.2s.2-.1.2-.2V29zM225.8 28.8v-.3h.2v.2c0-.1.2-.2.3-.2v.2h-.1c-.1 0-.2.1-.2.2v.6h-.2v-.7zM226.9 29.5v-.1c-.1.1-.2.1-.3.1-.2 0-.3-.1-.3-.3 0-.2.2-.4.6-.4 0-.1 0-.2-.2-.2-.1 0-.2 0-.3.1v-.1c.1-.1.2-.1.3-.1.3 0 .4.2.4.4V29.5h-.2zm0-.5c-.2 0-.4 0-.4.2 0 .1.1.2.2.2s.2-.1.2-.2V29zM228.1 29.5s-.1.1-.3.1c-.3 0-.5-.2-.5-.5s.2-.5.5-.5h.2v.1h-.2c-.2 0-.3.2-.3.4s.1.4.3.4H228.1zM228.5 28.3v.3h.3v.1h-.3v.5c0 .1 0 .2.1.2h.1v.1h-.2c-.1 0-.1 0-.2-.1 0-.1-.1-.1-.1-.3v-.5h-.1v-.1h.1v-.2h.3zM229 29c0 .2.2.3.3.3.1 0 .2 0 .3-.1v.1c-.1 0-.2.1-.3.1-.3 0-.5-.2-.5-.5s.2-.5.5-.5.4.3.4.5v.1h-.7zm.6-.1c0-.1 0-.3-.2-.3s-.3.2-.3.3h.5zM229.9 28.8v-.3h.2v.2c0-.1.1-.2.3-.2v.2h-.1c-.1 0-.2.1-.2.2v.6h-.2v-.7zM231 28.2h.4c.3 0 .4.1.5.2.1.1.2.3.2.5s-.1.4-.2.5c-.1.1-.3.2-.6.2h-.3v-1.4zm.2 1.2h.2c.4 0 .6-.2.6-.6 0-.3-.2-.5-.5-.5h-.2v1.1zM232.5 28.3c0 .1 0 .1-.1.1s-.1 0-.1-.1 0-.1.1-.1.1 0 .1.1zm-.1 1.2v-1h.2v1h-.2zM232.8 29.3c.1 0 .1.1.2.1s.2-.1.2-.1c0-.1 0-.1-.2-.2s-.3-.2-.3-.3c0-.2.1-.3.3-.3.1 0 .2 0 .2.1v.1s-.1-.1-.2-.1-.2.1-.2.1c0 .1.1.1.2.2.2.1.3.1.3.3 0 .2-.1.3-.4.3-.1 0-.2 0-.3-.1l.2-.1zM233.6 28.8v-.3h.2v.2c.1-.1.2-.2.3-.2.2 0 .4.2.4.5s-.2.5-.4.5c-.1 0-.2-.1-.3-.2v.5h-.2v-1zm.2.3s0 .1 0 0c0 .2.1.3.3.3.2 0 .3-.2.3-.4s-.1-.4-.3-.4c-.1 0-.2.1-.3.2V29.1zM234.7 28.1h.2v1.4h-.2v-1.4zM235.8 29.5v-.1c-.1.1-.2.1-.3.1-.2 0-.3-.1-.3-.3 0-.2.2-.4.6-.4 0-.1 0-.2-.2-.2-.1 0-.2 0-.3.1v-.1c.1-.1.2-.1.3-.1.3 0 .4.2.4.4V29.5h-.2zm-.1-.5c-.2 0-.4 0-.4.2 0 .1.1.2.2.2s.2-.1.2-.2V29zM236.2 28.5l.2.6c0 .1 0 .1.1.2 0-.1 0-.1.1-.2l.2-.6h.2l-.3.7c-.1.3-.2.5-.3.6-.1.1-.2.1-.2.1v-.1s.1 0 .2-.1c0 0 .1-.1.1-.2l-.4-.9h.1z"/>
</g>
<path d="m222.6 30.7h4.6v2h-4.6z" fill="#951610"/>
<path d="m227.4 30.7h4.6v2h-4.6z" fill="#16643C"/>
<path d="m232.1 30.7h4.6v2h-4.6z" fill="#00499A"/>
<g fill="#464145">
<path d="M224.2 55.3h.3c.2 0 .3 0 .4.1.1.1.1.2.1.3 0 .1 0 .2-.1.3-.1.1-.2.1-.4.1h-.1v.5h-.2v-1.3zm.1.6h.1c.2 0 .3-.1.3-.3 0-.2-.1-.3-.3-.3h-.2v.6zM225.4 55.3v.8c0 .3.1.4.3.4.2 0 .3-.1.3-.4v-.8h.2v.8c0 .4-.2.6-.5.6s-.5-.2-.5-.6v-.8h.2zM226.5 55.3h.2v1.2h.6v.1h-.7v-1.3zM227.5 55.3h.2v1.2h.6v.1h-.7v-1.3zM228.7 56v.1h-.5V56h.5zM230.1 55.9c0 .5-.3.7-.6.7-.4 0-.6-.3-.6-.7 0-.4.3-.7.6-.7.4.1.6.3.6.7zm-1 .1c0 .3.2.5.4.5.3 0 .4-.3.4-.6s-.1-.5-.4-.5c-.3 0-.4.3-.4.6zM230.3 56.6v-1.3h.2l.5.7c.1.2.2.3.2.4v-1.2h.2v1.3h-.2l-.4-.7c-.1-.1-.2-.3-.3-.4v1.2h-.2zM232.3 56.6l-.4-1.3h.2l.2.7c.1.2.1.3.1.5 0-.2.1-.3.2-.5l.2-.7h.2l-.5 1.3h-.2zM234.3 55.9c0 .5-.3.7-.6.7-.4 0-.6-.3-.6-.7 0-.4.3-.7.6-.7.3.1.6.3.6.7zm-1.1.1c0 .3.2.5.4.5.3 0 .4-.3.4-.6s-.1-.5-.4-.5c-.2 0-.4.3-.4.6zM234.5 55.3h.2v1.2h.6v.1h-.7v-1.3z"/>
<path d="M226.7 72.8h.3c.2 0 .3 0 .4.1.1.1.1.1.1.2s-.1.2-.2.3c.1 0 .3.1.3.3 0 .1 0 .2-.1.3-.1.1-.2.1-.5.1h-.3v-1.3zm.1.5h.2c.2 0 .3-.1.3-.2 0-.2-.1-.2-.3-.2h-.2v.4zm0 .7h.1c.2 0 .3-.1.3-.3 0-.2-.2-.3-.3-.3h-.1v.6z"/>
<path d="M227.7 72.8h.3c.2 0 .3 0 .4.1.1.1.1.2.1.3 0 .2-.1.3-.3.3.1 0 .2.1.2.3 0 .2.1.3.1.4h-.2s-.1-.2-.1-.3c0-.2-.1-.3-.3-.3h-.2v.6h-.2v-1.4zm.2.6h.2c.2 0 .3-.1.3-.3 0-.2-.1-.2-.3-.3h-.2v.6zM229 72.7V74h-.2v-1.3h.2zM230.3 74c-.1 0-.2.1-.4.1s-.4-.1-.5-.2c-.1-.1-.2-.3-.2-.5 0-.4.3-.7.7-.7.2 0 .3 0 .3.1v.1c-.1 0-.2-.1-.3-.1-.3 0-.5.2-.5.5s.2.5.5.5h.2v-.4h-.3v-.1h.4v.7zM230.8 72.7v.6h.7v-.6h.2V74h-.2v-.6h-.7v.6h-.2v-1.3h.2zM232.2 72.9h-.4v-.1h1v.1h-.4v1.2h-.2v-1.2z"/>
</g>
<g fill="#1B1610">
<path d="M14.8 212.4l.4-2.7-.4-.4.9-1 1.8 2.2.5-2.2.8.5-.7.4-.6 3.1-2-2.3-.3 1.4.5.5zM20.4 208.8h1c.2.1.2.1.3.3.1.1.2.3.2.6l.3-1.1H19v.1h.1c.1 0 .1 0 .2.1l.1.1s0 .1-.1.3l-.2 1c0 .1-.1.1-.1.1-.1.1-.2.1-.2.1s.1 0 .1.1l.1.1-.2 1c0 .2-.1.3-.1.3 0 .1-.1.1-.1.1-.1 0-.2.1-.2.1v.1h3l.2-1.1c-.2.3-.2.5-.4.6-.2.2-.5.2-.8.2H19.8l-.1-.1s0-.2.1-.4l.2-.9c.2 0 .3 0 .4.1.1 0 .1.1.2.2s.2.2.2.4l.3-1.5c-.1.3-.3.3-.4.4-.2.1-.3.1-.5.1H20l.4-1.4zM24.5 212.2l.6-1.3s-.7.4-1.2.4-1-.5-.9-1.1c.1-1.1 1.3-1.4 1.3-1.4l.5.7.5-.2-.4-1s-.7 0-1.4.4-1.5 1.2-1.4 2c.2 1.9 1.7 1.6 1.9 1.6.1.1.5-.1.5-.1z"/>
</g>
<path d="M26.2 208.3h.6v7.6h-.6z" fill="#1B1610"/>
<path d="M27.7 208.7c.3 0 .7-.1 1.2-.1.6 0 1 .1 1.3.4.3.2.4.6.4 1s-.1.8-.4 1c-.3.3-.8.5-1.4.5h-.5v1.9h-.6v-4.7zm.6 2.2h.5c.7 0 1.2-.4 1.2-1s-.4-.9-1.1-.9h-.6v1.9zM34.7 213.2c-.2.1-.7.2-1.2.2-1.3 0-2.3-.8-2.3-2.4 0-1.5 1-2.5 2.5-2.5.6 0 1 .1 1.1.2l-.1.5c-.2-.1-.6-.2-1-.2-1.1 0-1.8.7-1.8 1.9s.7 1.9 1.8 1.9c.4 0 .7-.1 1-.2v.6zM36.9 211.2v.5h-1.7v-.5h1.7zM37.8 212.9h.5c.4 0 .7-.2 1-.4.3-.3.5-.7.6-1.2-.3.3-.6.5-1.1.5-.8 0-1.3-.6-1.3-1.4 0-.9.6-1.6 1.6-1.6.9 0 1.5.8 1.5 1.9 0 1-.3 1.7-.8 2.1-.4.3-.8.6-1.3.6h-.6v-.5zm.2-2.6c0 .6.3 1 .9 1 .4 0 .7-.2.9-.5 0-.1.1-.1.1-.2 0-.8-.3-1.4-.9-1.4-.7 0-1 .4-1 1.1zM40.9 212.2c0-.6.3-1 .9-1.2-.5-.2-.7-.6-.7-1 0-.7.6-1.2 1.4-1.2.9 0 1.3.6 1.3 1.1 0 .4-.2.8-.7 1.1.6.2.9.6.9 1.2 0 .8-.7 1.3-1.5 1.3-1-.1-1.6-.7-1.6-1.3zm2.5-.1c0-.6-.4-.8-1-1-.5.2-.8.5-.8.9 0 .5.3.9.9.9.5 0 .9-.3.9-.8zm-1.7-2.2c0 .5.3.7.9.8.4-.1.7-.4.7-.8s-.2-.7-.8-.7c-.5-.1-.8.3-.8.7zM47.6 211c0 1.5-.6 2.4-1.6 2.4-.9 0-1.5-.8-1.5-2.3 0-1.5.7-2.4 1.6-2.4 1 0 1.5.8 1.5 2.3zm-2.5.1c0 1.2.4 1.9.9 1.9.6 0 .9-.7.9-1.9 0-1.1-.3-1.9-.9-1.9-.5 0-.9.6-.9 1.9zM49.5 209.3l-.8.4-.1-.5 1-.5h.5v4.6h-.6v-4zM27.7 214.1h.4c.2 0 .4 0 .5.1.1.1.1.2.1.4s0 .3-.1.4c-.1.1-.3.2-.5.2h-.2v.7h-.2v-1.8zm.2.8h.2c.3 0 .4-.1.4-.4 0-.2-.2-.3-.4-.3h-.2v.7zM29.8 215h-.6v.6h.7v.2H29v-1.7h.9v.2h-.7v.5h.6v.2zM30.1 214.1h.4c.2 0 .4 0 .5.1.1.1.1.2.1.3 0 .2-.1.4-.3.4.1 0 .2.2.2.3.1.2.1.4.1.5H31s-.1-.2-.1-.4-.1-.3-.3-.3h-.2v.7h-.2v-1.6zm.2.8h.2c.2 0 .4-.1.4-.3 0-.2-.2-.3-.4-.3h-.2v.6zM31.4 215.5c.1.1.2.1.4.1s.3-.1.3-.3c0-.2-.1-.2-.3-.3-.3-.1-.4-.2-.4-.5s.2-.5.5-.5c.2 0 .3 0 .4.1l-.1.2c-.1 0-.2-.1-.3-.1-.2 0-.3.1-.3.3 0 .2.1.2.3.3.3.1.4.2.4.5s-.2.5-.6.5c-.2 0-.3 0-.4-.1l.1-.2zM34 214.9c0 .6-.3.9-.8.9-.4 0-.7-.3-.7-.9 0-.5.3-.9.8-.9.4.1.7.4.7.9zm-1.3.1c0 .4.2.7.5.7s.5-.3.5-.7c0-.3-.2-.7-.5-.7s-.5.3-.5.7zM34.3 215.8v-1.7h.2l.5.9c.1.2.2.4.3.5v-1.4h.2v1.7h-.2l-.5-.9-.3-.6v1.4h-.2zM36.1 215.3l-.2.5h-.2l.5-1.7h.3l.6 1.7h-.2l-.2-.5h-.6zm.5-.2l-.2-.5c0-.1-.1-.2-.1-.3 0 .1-.1.2-.1.3l-.2.5h.6zM37.3 214.1h.2v1.5h.7v.2h-.9v-1.7zM40.1 215.7c-.1 0-.2.1-.4.1-.5 0-.8-.3-.8-.9 0-.5.3-.9.8-.9.2 0 .3 0 .4.1l-.1.2c-.1 0-.2-.1-.3-.1-.4 0-.6.3-.6.7 0 .4.2.7.6.7.1 0 .3 0 .3-.1l.1.2zM41.7 214.9c0 .6-.3.9-.8.9-.4 0-.7-.3-.7-.9 0-.5.3-.9.8-.9.4.1.7.4.7.9zm-1.3.1c0 .4.2.7.5.7s.5-.3.5-.7c0-.3-.2-.7-.5-.7s-.5.3-.5.7zM43.3 215.1v-.7c-.1.2-.1.4-.2.6l-.3.8h-.2l-.3-.8c-.1-.2-.1-.5-.2-.7v1.4h-.2l.1-1.7h.3l.3.8c.1.2.1.4.2.6 0-.2.1-.4.2-.6l.3-.8h.3l.1 1.7h-.2l-.2-.6zM43.9 214.1h.4c.2 0 .4 0 .5.1.1.1.1.2.1.4s0 .3-.1.4c-.1.1-.3.2-.5.2h-.2v.7h-.2v-1.8zm.2.8h.2c.3 0 .4-.1.4-.4 0-.2-.2-.3-.4-.3h-.2v.7zM45.3 214.1v1c0 .4.2.5.4.5s.4-.2.4-.5v-1h.2v1c0 .5-.3.7-.6.7s-.6-.2-.6-.7v-1h.2zM47 214.3h-.5v-.2h1.2v.2h-.5v1.5H47v-1.5zM48.7 215h-.6v.6h.7v.2h-.9v-1.7h.9v.2h-.7v.5h.6v.2zM49 214.1h.4c.2 0 .4 0 .5.1.1.1.1.2.1.3 0 .2-.1.4-.3.4.1 0 .2.2.2.3.1.2.1.4.1.5h-.2s-.1-.2-.1-.4-.1-.3-.3-.3h-.2v.7H49v-1.6zm.3.8h.2c.2 0 .4-.1.4-.3 0-.2-.2-.3-.4-.3h-.2v.6z"/>
<g fill="#AF9C8B">
<path d="M225.5 140h.2v.9c0 .4-.2.5-.4.5h-.2v-.1h.1c.2 0 .2-.1.2-.3v-1zM226.9 141.3c-.1 0-.2.1-.4.1-.4 0-.7-.2-.7-.7 0-.4.3-.7.7-.7.2 0 .3 0 .3.1v.1c-.1 0-.2-.1-.3-.1-.3 0-.5.2-.5.6 0 .3.2.5.5.5.1 0 .2 0 .3-.1l.1.2zM227.5 140.8v.1h-.5v-.1h.5zM228.1 140.2l-.2.1v-.1l.3-.2h.2v1.3h-.2v-1.1zM228.7 141.4v-.1l.1-.1c.3-.3.5-.5.5-.7 0-.1-.1-.3-.3-.3-.1 0-.2.1-.3.1l-.1-.1c.1-.1.2-.1.4-.1.3 0 .4.2.4.4s-.2.4-.4.7l-.1.1h.6v.1h-.8zM230.6 140.7c0 .4-.2.7-.5.7s-.4-.2-.4-.7c0-.4.2-.7.5-.7.2 0 .4.3.4.7zm-.7 0c0 .3.1.5.3.5.2 0 .3-.2.3-.5s-.1-.5-.3-.5c-.2 0-.3.2-.3.5zM230.8 141.4v-.1l.1-.1c.3-.3.5-.5.5-.7 0-.1-.1-.3-.3-.3-.1 0-.2.1-.3.1l-.1-.1c.1-.1.2-.1.4-.1.3 0 .4.2.4.4s-.2.4-.4.7l-.1.1h.6v.1h-.8zM231.8 140h.4c.3 0 .4.1.5.2.1.1.2.3.2.5s-.1.4-.2.5c-.1.1-.3.2-.6.2h-.3V140zm.2 1.2h.2c.4 0 .6-.2.6-.6 0-.3-.2-.5-.5-.5h-.2v1.1zM233.3 140v.6h.7v-.6h.2v1.3h-.2v-.6h-.7v.6h-.2V140h.2z"/>
</g>
<path d="M234.7 142.9h-10c-.2 0-.3-.1-.3-.3V140c0-.2.1-.3.3-.3h10c.2 0 .3.1.3.3v2.6c0 .2-.1.3-.3.3zm-10-3.2c-.1 0-.2.1-.2.2v2.6c0 .1.1.2.2.2h10c.1 0 .2-.1.2-.2V140c0-.1-.1-.2-.2-.2h-10z" fill="#AF9C8B"/>
<path d="M283.5 300.7H0l10.5-62.3c0-2.2 1.8-4 4-4h254.3c2.2 0 4 1.8 4 4l10.7 62.3z" fill="#CFC9BF"/>
<path d="M276.3 291.2H8.4c-.9 0-1.6-.9-1.4-1.8l6.9-41.9c0-1.6 1.8-2.8 4-2.8h248.6c2.2 0 4 1.3 4 2.8l7.3 41.9c.1.9-.6 1.8-1.5 1.8z" fill="#352B1B"/>
<path d="M282.9 305.5H.6c-.3 0-.6-.3-.6-.6v-4.2h283.5v4.2c0 .4-.2.6-.6.6z" fill="#958B7C"/>
<path d="M281.2 309.5H2.3c-.4 0-.8-.4-.8-.8l-.9-3.2h282.3l-.9 3.2c.1.5-.3.8-.8.8z" fill="#908A7B"/>
<path d="M188.3 254.8l-166.1.1c-.2 0-.3.1-.3.2L17.4 279c0 .1.1.2.3.2l173.2.1c.2 0 .3-.1.3-.2l-2.5-24c-.1-.2-.2-.3-.4-.3z" fill="#0E0000"/>
<path d="M168.4 285.7H39.6c-.2 0-.3-.1-.3-.3l.6-6.2 128.5.1.2 6.1c.1.2 0 .3-.2.3zM43.3 246H22.5c-.2 0-.3.1-.3.3l-1.2 6.3c0 .2.1.3.3.3h22.5c.2 0 .3-.1.3-.3l-.5-6.3c0-.1-.1-.3-.3-.3zM115.4 246H49.5c-.5 0-.8.1-.8.3l-1 6.3c0 .2.4.3.8.3h67.3c.5 0 .8-.1.8-.3l-.4-6.3c.1-.1-.3-.3-.8-.3zM187.6 246h-65c-.5 0-.8.1-.8.3l-1 6.3c0 .2.4.3.8.3H188c.5 0 .8-.1.8-.3l-.3-6.3c0-.1-.4-.3-.9-.3zM194.9 285.4l-.6-18.1c0-.2.1-.3.3-.3h21.5c.8 0 .9.1.9.3l1.8 18.1c0 .2-.1.3-.3.3h-23.3c-.1 0-.3-.1-.3-.3zM215.5 255.3h-21.3c-.2 0-.3.1-.3.3l.3 5.5c0 .2.1.3.3.3h21.4c.2 0 .3-.1.3-.3l-.4-5.5c0-.2-.2-.3-.3-.3zM214.5 246.8h-21.3c-.2 0-.3.1-.3.3l.3 5.5c0 .2.1.3.3.3h21.4c.2 0 .3-.1.3-.3l-.4-5.5c0-.2-.1-.3-.3-.3zM268.4 285.7h-43.8c-.1 0-.3-.1-.3-.2l-2.7-29.9c0-.2.1-.3.3-.3h43c.1 0 .3.1.3.2l3.6 29.9c-.1.1-.2.3-.4.3z" fill="#0E0000"/>
<path d="m31.4 246.9h-8.1l-1.1 5.7h10.3z" fill="#241F16"/>
<path d="M31.1 244.8h-7.6c-.1 0-.3.1-.3.3v1.9h8.1v-2c.1-.1 0-.2-.2-.2z" fill="#282219"/>
<path d="m31.4 245 1.1 3.4v4.2l-1.1-5.7zm-8.1 0-1.1 3.4v4.2l1.1-5.7z" fill="#38312A"/>
<path d="m42.3 246.9h-8.1l-1.1 5.7h10.4z" fill="#241F16"/>
<path d="M42.1 244.8h-7.6c-.1 0-.3.1-.3.3v1.9h8.1v-2c0-.1-.1-.2-.2-.2z" fill="#282219"/>
<path d="m42.3 245 1.2 3.4v4.2l-1.2-5.7zm-8.1 0-1.1 3.4v4.2l1.1-5.7z" fill="#38312A"/>
<path d="m60.5 247h-10l-1.5 5.7h12.9z" fill="#241F16"/>
<path d="M60.2 244.9h-9.4c-.2 0-.3.1-.3.3v1.8h10v-1.8c0-.2-.2-.3-.3-.3z" fill="#282219"/>
<path d="m60.5 245.1 1.4 3.4v4.2l-1.4-5.7zm-10 0-1.5 3.4v4.2l1.5-5.7z" fill="#38312A"/>
<path d="m73.8 247.1h-10l-1.4 5.6h12.8z" fill="#241F16"/>
<path d="M73.5 244.9h-9.4c-.2 0-.3.1-.3.3v1.8h10v-1.8c0-.1-.1-.3-.3-.3z" fill="#282219"/>
<path d="m73.8 245.2 1.4 3.4v4.1l-1.4-5.6zm-10 0-1.4 3.4v4.1l1.4-5.6z" fill="#38312A"/>
<path d="M87.5 247.1h-10l-1.4 5.6H89z" fill="#241F16"/>
<path d="M87.2 244.9h-9.4c-.2 0-.3.1-.3.3v1.8h10v-1.8c0-.1-.1-.3-.3-.3z" fill="#282219"/>
<path d="m87.5 245.2 1.5 3.4v4.1l-1.5-5.6zm-10 0-1.4 3.4v4.1l1.4-5.6z" fill="#38312A"/>
<path d="m99.1 247.1h-9.4l-1.4 5.7h12.1z" fill="#241F16"/>
<path d="M98.8 245H90c-.2 0-.3.1-.3.3v1.8h9.4v-1.8c0-.2-.1-.3-.3-.3z" fill="#282219"/>
<path d="m99.1 245.2 1.3 3.4v4.2l-1.3-5.7zm-9.4 0-1.4 3.4v4.2l1.4-5.7z" fill="#38312A"/>
<path d="m100.9 247.1h-10l-1.4 5.7h12.8z" fill="#241F16"/>
<path d="M100.6 245h-9.4c-.2 0-.3.1-.3.3v1.8h10v-1.8c0-.2-.1-.3-.3-.3z" fill="#282219"/>
<path d="m100.9 245.3 1.4 3.4v4.1l-1.4-5.7zm-10 0-1.4 3.4v4.1l1.4-5.7z" fill="#38312A"/>
<path d="m114.5 247.1h-10.1l-1.4 5.6h12.9z" fill="#241F16"/>
<path d="M114.2 244.9h-9.4c-.2 0-.3.1-.3.3v1.8h10v-1.8c0-.1-.2-.3-.3-.3z" fill="#282219"/>
<path d="m114.5 245.2 1.4 3.4v4.1l-1.4-5.6zm-10.1 0-1.4 3.4v4.1l1.4-5.6z" fill="#38312A"/>
<path d="m133.4 247h-9.8l-1.4 5.6h12.6z" fill="#241F16"/>
<path d="M133.1 244.9h-9.3c-.2 0-.3.1-.3.3v1.8h9.9v-1.8c0-.2-.1-.3-.3-.3z" fill="#282219"/>
<path d="m133.4 245.1 1.4 3.4v4.1l-1.4-5.6zm-9.8 0-1.4 3.4v4.1l1.4-5.6z" fill="#38312A"/>
<path d="M146.6 247h-9.9l-1.4 5.7H148z" fill="#241F16"/>
<path d="M146.3 244.9H137c-.2 0-.3.1-.3.3v1.8h9.9v-1.8c0-.2-.1-.3-.3-.3z" fill="#282219"/>
<path d="m146.6 245.2 1.4 3.4v4.1l-1.4-5.7zm-9.9 0-1.4 3.4v4.1l1.4-5.7z" fill="#38312A"/>
<path d="m160.2 247h-9.9l-1.4 5.7h12.7z" fill="#241F16"/>
<path d="M159.9 244.9h-9.3c-.2 0-.3.1-.3.3v1.8h9.9v-1.8c0-.2-.2-.3-.3-.3z" fill="#282219"/>
<path d="m160.2 245.2 1.4 3.4v4.1l-1.4-5.7zm-9.9 0-1.4 3.4v4.1l1.4-5.7z" fill="#38312A"/>
<path d="m173.4 247.1h-9.9l-1.4 5.6h12.7z" fill="#241F16"/>
<path d="M173.1 245h-9.3c-.2 0-.3.1-.3.3v1.8h9.9v-1.8c0-.2-.2-.3-.3-.3z" fill="#282219"/>
<path d="m173.4 245.2 1.4 3.4v4.1l-1.4-5.6zm-9.9 0-1.4 3.4v4.1l1.4-5.6z" fill="#38312A"/>
<path d="m186.7 247h-9.9l-1.4 5.7h12.7z" fill="#241F16"/>
<path d="M186.4 244.9h-9.3c-.2 0-.3.1-.3.3v1.8h9.9v-1.8c0-.2-.1-.3-.3-.3z" fill="#282219"/>
<path d="m186.7 245.2 1.4 3.4v4.1l-1.4-5.7zm-9.9 0-1.4 3.4v4.1l1.4-5.7z" fill="#38312A"/>
<path d="m202.7 247h-7.6l-1.1 5.7h9.8z" fill="#241F16"/>
<path d="M202.5 244.9h-7.1c-.1 0-.3.1-.3.3v1.9h7.6v-1.9c0-.2-.1-.3-.2-.3z" fill="#282219"/>
<path d="m202.7 245.2 1.1 3.4v4.1l-1.1-5.7zm-7.6 0-1.1 3.4v4.1l1.1-5.7z" fill="#38312A"/>
<path d="m213.1 247h-7.7l-1.1 5.7h9.8z" fill="#241F16"/>
<path d="M212.8 244.9h-7.1c-.1 0-.3.1-.3.3v1.9h7.6v-1.9c.1-.2-.1-.3-.2-.3z" fill="#282219"/>
<path d="m213.1 245.2 1 3.4v4.1l-1-5.7zm-7.7 0-1.1 3.4v4.1l1.1-5.7z" fill="#38312A"/>
<path d="m231.7 256.6h-7.9l-1.1 6.6h10.1z" fill="#241F16"/>
<path d="M231.4 254.1h-7.3c-.2 0-.3.1-.3.3v2.2h7.9v-2.2c0-.1-.1-.3-.3-.3z" fill="#282219"/>
<path d="m231.7 254.5 1.1 3.9v4.8l-1.1-6.6zm-7.9 0-1.1 3.9v4.8l1.1-6.6z" fill="#38312A"/>
<path d="m242.4 256.6h-7.9l-1.1 6.6h10.1z" fill="#241F16"/>
<path d="M242.1 254.1h-7.3c-.2 0-.3.1-.3.3v2.2h7.9v-2.2c0-.1-.1-.3-.3-.3z" fill="#282219"/>
<path d="m242.4 254.5 1.1 3.9v4.8l-1.1-6.6zm-7.9 0-1.1 3.9v4.8l1.1-6.6z" fill="#38312A"/>
<path d="m253.3 256.4h-7.9l-1.1 6.5h10.1z" fill="#241F16"/>
<path d="M253 253.9h-7.3c-.2 0-.3.1-.3.3v2.2h7.9v-2.2c0-.2-.2-.3-.3-.3z" fill="#282219"/>
<path d="m253.3 254.2 1.1 3.9v4.8l-1.1-6.5zm-7.9 0-1.1 3.9v4.8l1.1-6.5z" fill="#38312A"/>
<path d="m264 256.4h-7.9l-1.2 6.5h10.2z" fill="#241F16"/>
<path d="M263.7 253.9h-7.3c-.2 0-.3.1-.3.3v2.2h7.9v-2.2c0-.2-.2-.3-.3-.3z" fill="#282219"/>
<path d="m264 254.2 1.1 3.9v4.8l-1.1-6.5zm-7.9 0-1.2 3.9v4.8l1.2-6.5z" fill="#38312A"/>
<path d="m232.3 262.2h-7.9l-1.1 6.5h10.1z" fill="#706F6D"/>
<path d="M232 259.7h-7.3c-.2 0-.3.1-.3.3v2.2h7.9V260c0-.2-.1-.3-.3-.3z" fill="#9E9C9A"/>
<path d="m232.3 260 1.1 3.9v4.8l-1.1-6.5zm-7.9 0-1.1 3.9v4.8l1.1-6.5z" fill="#7A7874"/>
<path d="m243 262.2h-7.9l-1.1 6.5h10.1z" fill="#706F6D"/>
<path d="M242.7 259.7h-7.3c-.2 0-.3.1-.3.3v2.2h7.9V260c0-.2-.1-.3-.3-.3z" fill="#9E9C9A"/>
<path d="m243 260 1.1 3.9v4.8l-1.1-6.5zm-7.9 0-1.1 3.9v4.8l1.1-6.5z" fill="#7A7874"/>
<path d="M253.9 261.9H246l-1.2 6.6H255z" fill="#706F6D"/>
<path d="M253.6 259.4h-7.3c-.2 0-.3.1-.3.3v2.2h7.9v-2.2c0-.1-.2-.3-.3-.3z" fill="#9E9C9A"/>
<path d="m253.9 259.7 1.1 4v4.8l-1.1-6.6zm-7.9 0-1.2 4v4.8l1.2-6.6z" fill="#7A7874"/>
<path d="m264.6 261.9h-7.9l-1.2 6.6h10.2z" fill="#241F16"/>
<path d="M264.3 259.4H257c-.2 0-.3.1-.3.3v2.2h7.9v-2.2c0-.1-.2-.3-.3-.3z" fill="#282219"/>
<path d="m264.6 259.7 1.1 4v4.8l-1.1-6.6zm-7.9 0-1.2 4v4.8l1.2-6.6z" fill="#38312A"/>
<path d="M232.9 267.7H225l-1.1 6.5H234z" fill="#706F6D"/>
<path d="M232.6 265.2h-7.3c-.2 0-.3.1-.3.3v2.2h7.9v-2.2c0-.2-.1-.3-.3-.3z" fill="#9E9C9A"/>
<path d="m232.9 265.5 1.1 4v4.7l-1.1-6.5zm-7.9 0-1.1 4v4.7l1.1-6.5z" fill="#7A7874"/>
<path d="m243.6 267.7h-7.9l-1.1 6.5h10.1z" fill="#706F6D"/>
<path d="M243.3 265.2H236c-.2 0-.3.1-.3.3v2.2h7.9v-2.2c0-.2-.1-.3-.3-.3z" fill="#9E9C9A"/>
<path d="m243.6 265.5 1.1 4v4.7l-1.1-6.5zm-7.9 0-1.1 4v4.7l1.1-6.5z" fill="#7A7874"/>
<path d="m254.5 267.4h-7.9l-1.2 6.6h10.2z" fill="#706F6D"/>
<path d="M254.2 265h-7.3c-.2 0-.3.1-.3.3v2.2h7.9v-2.2c0-.2-.2-.3-.3-.3z" fill="#9E9C9A"/>
<path d="m254.5 265.3 1.1 3.9v4.8l-1.1-6.6zm-7.9 0-1.2 3.9v4.8l1.2-6.6z" fill="#7A7874"/>
<path d="m265.2 267.4h-7.9l-1.2 6.6h10.2z" fill="#241F16"/>
<path d="M264.9 265h-7.3c-.2 0-.3.1-.3.3v2.2h7.9v-2.2c0-.2-.2-.3-.3-.3z" fill="#282219"/>
<path d="m265.2 265.3 1.1 3.9v4.8l-1.1-6.6zm-7.9 0-1.2 3.9v4.8l1.2-6.6z" fill="#38312A"/>
<path d="m233.5 273.2h-7.9l-1.1 6.5h10.1z" fill="#706F6D"/>
<path d="M233.2 270.7h-7.3c-.2 0-.3.1-.3.3v2.2h7.9V271c0-.2-.1-.3-.3-.3z" fill="#9E9C9A"/>
<path d="m233.5 271 1.1 4v4.7l-1.1-6.5zm-7.9 0-1.1 4v4.7l1.1-6.5z" fill="#7A7874"/>
<path d="m244.2 273.2h-7.9l-1.1 6.5h10.1z" fill="#706F6D"/>
<path d="M243.9 270.7h-7.3c-.2 0-.3.1-.3.3v2.2h7.9V271c0-.2-.1-.3-.3-.3z" fill="#9E9C9A"/>
<path d="m244.2 271 1.1 4v4.7l-1.1-6.5zm-7.9 0-1.1 4v4.7l1.1-6.5z" fill="#7A7874"/>
<path d="m255.1 272.9h-7.9l-1.2 6.6h10.2z" fill="#706F6D"/>
<path d="M254.8 270.5h-7.3c-.2 0-.3.1-.3.3v2.2h7.9v-2.2c0-.2-.2-.3-.3-.3z" fill="#9E9C9A"/>
<path d="m255.1 270.8 1.1 3.9v4.8l-1.1-6.6zm-7.9 0-1.2 3.9v4.8l1.2-6.6z" fill="#7A7874"/>
<path d="m265.8 272.9h-8l-1.1 6.6h10.2z" fill="#241F16"/>
<path d="M265.5 270.5h-7.3c-.2 0-.3.1-.3.3v2.2h7.9v-2.2c0-.2-.2-.3-.3-.3z" fill="#282219"/>
<path d="m265.8 270.8 1.1 3.9v4.8l-1.1-6.6zm-7.9 0-1.2 3.9v4.8l1.2-6.6z" fill="#38312A"/>
<path d="m234.1 278.7h-7.9l-1.2 6.6h10.2z" fill="#706F6D"/>
<path d="M233.8 276.3h-7.3c-.2 0-.3.1-.3.3v2.2h7.9v-2.2c0-.2-.2-.3-.3-.3z" fill="#9E9C9A"/>
<path d="m234.1 276.6 1.1 3.9v4.8l-1.1-6.6zm-7.9 0-1.2 3.9v4.8l1.2-6.6z" fill="#7A7874"/>
<path d="m244.8 278.7h-8l-1.1 6.6h10.2z" fill="#706F6D"/>
<path d="M244.5 276.3h-7.3c-.2 0-.3.1-.3.3v2.2h7.9v-2.2c0-.2-.2-.3-.3-.3z" fill="#9E9C9A"/>
<path d="m244.8 276.6 1.1 3.9v4.8l-1.1-6.6zm-7.9 0-1.2 3.9v4.8l1.2-6.6z" fill="#7A7874"/>
<path d="m255.6 278.5h-7.9l-1.1 6.5h10.2z" fill="#706F6D"/>
<path d="M255.4 276H248c-.2 0-.3.1-.3.3v2.2h7.9v-2.2c0-.2-.1-.3-.2-.3z" fill="#9E9C9A"/>
<path d="m255.6 276.3 1.2 3.9v4.8l-1.2-6.5zm-7.9 0-1.1 3.9v4.8l1.1-6.5z" fill="#7A7874"/>
<path d="m266.3 278.5h-7.9l-1.1 6.5h10.2z" fill="#241F16"/>
<path d="M266.1 276h-7.3c-.2 0-.3.1-.3.3v2.2h7.9v-2.2c-.1-.2-.2-.3-.3-.3z" fill="#282219"/>
<path d="m266.3 276.3 1.2 3.9v4.8l-1.2-6.5zm-7.9 0-1.1 3.9v4.8l1.1-6.5z" fill="#38312A"/>
<path d="m32.4 255.8h-9l-1.3 5.7h11.6z" fill="#241F16"/>
<path d="M32.1 253.7h-8.4c-.2 0-.3.1-.3.3v1.9h9V254c0-.2-.1-.3-.3-.3z" fill="#282219"/>
<path d="m32.4 254 1.3 3.4v4.1l-1.3-5.7zm-9 0-1.3 3.4v4.1l1.3-5.7z" fill="#38312A"/>
<path d="m43.5 255.8h-7.8l-1.1 5.7h10z" fill="#706F6D"/>
<path d="M43.2 253.7H36c-.1 0-.3.1-.3.3v1.9h7.8V254c0-.2-.1-.3-.3-.3z" fill="#9E9C9A"/>
<path d="m43.5 254 1.1 3.4v4.1l-1.1-5.7zm-7.8 0-1.1 3.4v4.1l1.1-5.7z" fill="#7A7874"/>
<path d="m54.3 255.8h-7.8l-1.1 5.7h10z" fill="#706F6D"/>
<path d="M54.1 253.7h-7.3c-.1 0-.3.1-.3.3v1.9h7.8V254c0-.2-.1-.3-.2-.3z" fill="#9E9C9A"/>
<path d="m54.3 254 1.1 3.4v4.1l-1.1-5.7zm-7.8 0-1.1 3.4v4.1l1.1-5.7z" fill="#7A7874"/>
<path d="m65.1 255.8h-7.8l-1 5.7h9.9z" fill="#706F6D"/>
<path d="M64.9 253.7h-7.3c-.1 0-.3.1-.3.3v1.9h7.8V254c0-.2-.1-.3-.2-.3z" fill="#9E9C9A"/>
<path d="m65.1 254 1.1 3.4v4.1l-1.1-5.7zm-7.7 0-1.1 3.4v4.1l1.1-5.7z" fill="#7A7874"/>
<path d="M75.9 255.8h-7.7l-1.1 5.7H77z" fill="#706F6D"/>
<path d="M75.7 253.7h-7.3c-.1 0-.3.1-.3.3v1.9h7.8V254c0-.2-.1-.3-.2-.3z" fill="#9E9C9A"/>
<path d="m75.9 254 1.1 3.4v4.1l-1.1-5.7zm-7.7 0-1.1 3.4v4.1l1.1-5.7z" fill="#7A7874"/>
<path d="M86.7 256H79l-1.1 5.6h9.9z" fill="#706F6D"/>
<path d="M86.5 253.8h-7.3c-.1 0-.3.1-.3.3v1.9h7.8v-1.9c0-.1-.1-.3-.2-.3z" fill="#9E9C9A"/>
<path d="m86.7 254.1 1.1 3.4v4.1l-1.1-5.6zm-7.7 0-1.1 3.4v4.1l1.1-5.6z" fill="#7A7874"/>
<path d="m97.5 256h-7.7l-1.1 5.6h9.9z" fill="#706F6D"/>
<path d="M97.3 253.8H90c-.1 0-.3.1-.3.3v1.9h7.8v-1.9c0-.1-.1-.3-.2-.3z" fill="#9E9C9A"/>
<path d="m97.5 254.1 1.1 3.4v4.1l-1.1-5.6zm-7.7 0-1.1 3.4v4.1l1.1-5.6z" fill="#7A7874"/>
<path d="m108.4 256h-7.8l-1.1 5.6h10z" fill="#706F6D"/>
<path d="M108.1 253.8h-7.3c-.1 0-.3.1-.3.3v1.9h7.8v-1.9c.1-.1-.1-.3-.2-.3z" fill="#9E9C9A"/>
<path d="m108.4 254.1 1.1 3.4v4.1l-1.1-5.6zm-7.8 0-1.1 3.4v4.1l1.1-5.6z" fill="#7A7874"/>
<path d="m119.2 256h-7.8l-1.1 5.6h10z" fill="#706F6D"/>
<path d="M118.9 253.8h-7.3c-.1 0-.3.1-.3.3v1.9h7.8v-1.9c.1-.1 0-.3-.2-.3z" fill="#9E9C9A"/>
<path d="m119.2 254.1 1.1 3.4v4.1l-1.1-5.6zm-7.8 0-1.1 3.4v4.1l1.1-5.6z" fill="#7A7874"/>
<path d="m130 256h-7.8l-1.1 5.6h10z" fill="#706F6D"/>
<path d="M129.7 253.8h-7.3c-.1 0-.3.1-.3.3v1.9h7.8v-1.9c.1-.1 0-.3-.2-.3z" fill="#9E9C9A"/>
<path d="m130 254.1 1.1 3.4v4.1l-1.1-5.6zm-7.8 0-1.1 3.4v4.1l1.1-5.6z" fill="#7A7874"/>
<path d="M140.8 256H133l-1.1 5.6h10z" fill="#706F6D"/>
<path d="M140.5 253.8h-7.3c-.1 0-.3.1-.3.3v1.9h7.8v-1.9c.1-.1 0-.3-.2-.3z" fill="#9E9C9A"/>
<path d="m140.8 254.1 1.1 3.4v4.1l-1.1-5.6zm-7.8 0-1.1 3.4v4.1l1.1-5.6z" fill="#7A7874"/>
<path d="m151.6 256h-7.8l-1.1 5.6h10z" fill="#706F6D"/>
<path d="M151.3 253.8H144c-.1 0-.3.1-.3.3v1.9h7.8v-1.9c.1-.1 0-.3-.2-.3z" fill="#9E9C9A"/>
<path d="m151.6 254.1 1.1 3.4v4.1l-1.1-5.6zm-7.8 0-1.1 3.4v4.1l1.1-5.6z" fill="#7A7874"/>
<path d="m162.4 256h-7.8l-1.1 5.6h10z" fill="#706F6D"/>
<path d="M162.1 253.8h-7.3c-.1 0-.3.1-.3.3v1.9h7.8v-1.9c.1-.1 0-.3-.2-.3z" fill="#9E9C9A"/>
<path d="m162.4 254.1 1.1 3.4v4.1l-1.1-5.6zm-7.8 0-1.1 3.4v4.1l1.1-5.6z" fill="#7A7874"/>
<path d="m173.2 256h-7.8l-1.1 5.6h10z" fill="#706F6D"/>
<path d="M172.9 253.8h-7.3c-.1 0-.3.1-.3.3v1.9h7.8v-1.9c.1-.1 0-.3-.2-.3z" fill="#9E9C9A"/>
<path d="m173.2 254.1 1.1 3.4v4.1l-1.1-5.6zm-7.8 0-1.1 3.4v4.1l1.1-5.6z" fill="#7A7874"/>
<path d="m186.7 256h-10.1l-1.4 5.6h12.9z" fill="#241F16"/>
<path d="M186.4 253.8h-9.5c-.2 0-.3.1-.3.3v1.8h10.1v-1.8c0-.1-.1-.3-.3-.3z" fill="#282219"/>
<path d="m186.7 254.1 1.4 3.4v4.1l-1.4-5.6zm-10.1 0-1.4 3.4v4.1l1.4-5.6z" fill="#38312A"/>
<path d="M48.8 260.9H41l-1.1 5.7h10z" fill="#706F6D"/>
<path d="M48.5 258.8h-7.3c-.1 0-.3.1-.3.3v1.9h7.8v-1.9c.1-.2 0-.3-.2-.3z" fill="#9E9C9A"/>
<path d="m48.8 259.1 1.1 3.4v4.1l-1.1-5.7zm-7.8 0-1.1 3.4v4.1l1.1-5.7z" fill="#7A7874"/>
<path d="m59.6 260.9h-7.8l-1.1 5.7h10z" fill="#706F6D"/>
<path d="M59.3 258.8H52c-.1 0-.3.1-.3.3v1.9h7.8v-1.9c.1-.2 0-.3-.2-.3z" fill="#9E9C9A"/>
<path d="m59.6 259.1 1.1 3.4v4.1l-1.1-5.7zm-7.8 0-1.1 3.4v4.1l1.1-5.7z" fill="#7A7874"/>
<path d="m70.4 260.9h-7.8l-1.1 5.7h10z" fill="#706F6D"/>
<path d="M70.1 258.8h-7.3c-.1 0-.3.1-.3.3v1.9h7.8v-1.9c.1-.2 0-.3-.2-.3z" fill="#9E9C9A"/>
<path d="m70.4 259.1 1.1 3.4v4.1l-1.1-5.7zm-7.8 0-1.1 3.4v4.1l1.1-5.7z" fill="#7A7874"/>
<path d="m81.2 260.9h-7.8l-1.1 5.7h10z" fill="#706F6D"/>
<path d="M80.9 258.8h-7.3c-.1 0-.3.1-.3.3v1.9h7.8v-1.9c.1-.2 0-.3-.2-.3z" fill="#9E9C9A"/>
<path d="m81.2 259.1 1.1 3.4v4.1l-1.1-5.7zm-7.8 0-1.1 3.4v4.1l1.1-5.7z" fill="#7A7874"/>
<path d="m92 261.1h-7.8l-1.1 5.6h10z" fill="#706F6D"/>
<path d="M91.7 258.9h-7.3c-.1 0-.3.1-.3.3v1.9H92v-1.9c0-.1-.1-.3-.3-.3z" fill="#9E9C9A"/>
<path d="m92 259.2 1.1 3.4v4.1l-1.1-5.6zm-7.8 0-1.1 3.4v4.1l1.1-5.6z" fill="#7A7874"/>
<path d="M102.8 261.1H95l-1.1 5.6h10z" fill="#706F6D"/>
<path d="M102.5 258.9h-7.3c-.1 0-.3.1-.3.3v1.9h7.8v-1.9c.1-.1 0-.3-.2-.3z" fill="#9E9C9A"/>
<path d="m102.8 259.2 1.1 3.4v4.1l-1.1-5.6zm-7.8 0-1.1 3.4v4.1l1.1-5.6z" fill="#7A7874"/>
<path d="m113.6 261.1h-7.7l-1.1 5.6h9.9z" fill="#706F6D"/>
<path d="M113.4 258.9h-7.3c-.1 0-.3.1-.3.3v1.9h7.8v-1.9c0-.1-.1-.3-.2-.3z" fill="#9E9C9A"/>
<path d="m113.6 259.2 1.1 3.4v4.1l-1.1-5.6zm-7.7 0-1.1 3.4v4.1l1.1-5.6z" fill="#7A7874"/>
<path d="m124.4 261.1h-7.7l-1.1 5.6h9.9z" fill="#706F6D"/>
<path d="M124.2 258.9h-7.3c-.1 0-.3.1-.3.3v1.9h7.8v-1.9c0-.1-.1-.3-.2-.3z" fill="#9E9C9A"/>
<path d="m124.4 259.2 1.1 3.4v4.1l-1.1-5.6zm-7.7 0-1.1 3.4v4.1l1.1-5.6z" fill="#7A7874"/>
<path d="m135.2 261.1h-7.7l-1.1 5.6h9.9z" fill="#706F6D"/>
<path d="M135 258.9h-7.3c-.1 0-.3.1-.3.3v1.9h7.8v-1.9c0-.1-.1-.3-.2-.3z" fill="#9E9C9A"/>
<path d="m135.2 259.2 1.1 3.4v4.1l-1.1-5.6zm-7.7 0-1.1 3.4v4.1l1.1-5.6z" fill="#7A7874"/>
<path d="m146.1 261.1h-7.8l-1.1 5.6h9.9z" fill="#706F6D"/>
<path d="M145.8 258.9h-7.3c-.1 0-.3.1-.3.3v1.9h7.8v-1.9c.1-.1-.1-.3-.2-.3z" fill="#9E9C9A"/>
<path d="m146.1 259.2 1 3.4v4.1l-1-5.6zm-7.8 0-1.1 3.4v4.1l1.1-5.6z" fill="#7A7874"/>
<path d="m156.9 261.1h-7.8l-1.1 5.6h10z" fill="#706F6D"/>
<path d="M156.6 258.9h-7.3c-.1 0-.3.1-.3.3v1.9h7.8v-1.9c.1-.1-.1-.3-.2-.3z" fill="#9E9C9A"/>
<path d="m156.9 259.2 1.1 3.4v4.1l-1.1-5.6zm-7.8 0-1.1 3.4v4.1l1.1-5.6z" fill="#7A7874"/>
<path d="m167.7 261.1h-7.8l-1.1 5.6h10z" fill="#706F6D"/>
<path d="M167.4 258.9h-7.3c-.1 0-.3.1-.3.3v1.9h7.8v-1.9c.1-.1-.1-.3-.2-.3z" fill="#9E9C9A"/>
<path d="m167.7 259.2 1.1 3.4v4.1l-1.1-5.6zm-7.8 0-1.1 3.4v4.1l1.1-5.6z" fill="#7A7874"/>
<path d="m51.5 267.5h-7.9l-1.1 5.7h10.1z" fill="#706F6D"/>
<path d="M51.3 265.4h-7.4c-.1 0-.3.1-.3.3v1.9h7.9v-1.9c0-.2-.1-.3-.2-.3z" fill="#9E9C9A"/>
<path d="m51.5 265.6 1.1 3.4v4.2l-1.1-5.7zm-7.9 0-1.1 3.4v4.2l1.1-5.7z" fill="#7A7874"/>
<path d="m62.6 267.5h-8l-1.1 5.7h10.2z" fill="#706F6D"/>
<path d="M62.3 265.4h-7.4c-.1 0-.3.1-.3.3v1.9h7.9v-1.9c.1-.2-.1-.3-.2-.3z" fill="#9E9C9A"/>
<path d="m62.6 265.6 1.1 3.4v4.2l-1.1-5.7zm-8 0-1.1 3.4v4.2l1.1-5.7z" fill="#7A7874"/>
<path d="m73.6 267.5h-7.9l-1.2 5.7h10.2z" fill="#706F6D"/>
<path d="M73.3 265.4h-7.4c-.1 0-.3.1-.3.3v1.9h7.9v-1.9c.1-.2 0-.3-.2-.3z" fill="#9E9C9A"/>
<path d="m73.6 265.6 1.1 3.4v4.2l-1.1-5.7zm-7.9 0-1.2 3.4v4.2l1.2-5.7z" fill="#7A7874"/>
<path d="m84.6 267.5h-7.9l-1.1 5.7h10.2z" fill="#706F6D"/>
<path d="M84.4 265.4H77c-.1 0-.3.1-.3.3v1.9h7.9v-1.9c0-.2-.1-.3-.2-.3z" fill="#9E9C9A"/>
<path d="m84.6 265.6 1.2 3.4v4.2l-1.2-5.7zm-7.9 0-1.1 3.4v4.2l1.1-5.7z" fill="#7A7874"/>
<path d="m95.7 267.6h-8l-1.1 5.7h10.2z" fill="#706F6D"/>
<path d="M95.4 265.5H88c-.1 0-.3.1-.3.3v1.9h7.9v-1.9c.1-.2 0-.3-.2-.3z" fill="#9E9C9A"/>
<path d="m95.7 265.8 1.1 3.4v4.1l-1.1-5.7zm-8 0-1.1 3.4v4.1l1.1-5.7z" fill="#7A7874"/>
<path d="m106.7 267.6h-7.9l-1.1 5.7h10.1z" fill="#706F6D"/>
<path d="M106.4 265.5H99c-.1 0-.3.1-.3.3v1.9h7.9v-1.9c.1-.2 0-.3-.2-.3z" fill="#9E9C9A"/>
<path d="m106.7 265.8 1.1 3.4v4.1l-1.1-5.7zm-7.9 0-1.1 3.4v4.1l1.1-5.7z" fill="#7A7874"/>
<path d="m117.8 267.6h-8l-1.1 5.7h10.2z" fill="#706F6D"/>
<path d="M117.5 265.5h-7.4c-.1 0-.3.1-.3.3v1.9h7.9v-1.9c.1-.2-.1-.3-.2-.3z" fill="#9E9C9A"/>
<path d="m117.8 265.8 1.1 3.4v4.1l-1.1-5.7zm-8 0-1.1 3.4v4.1l1.1-5.7z" fill="#7A7874"/>
<path d="m128.8 267.6h-7.9l-1.2 5.7h10.2z" fill="#706F6D"/>
<path d="M128.5 265.5h-7.4c-.1 0-.3.1-.3.3v1.9h7.9v-1.9c.1-.2 0-.3-.2-.3z" fill="#9E9C9A"/>
<path d="m128.8 265.8 1.1 3.4v4.1l-1.1-5.7zm-7.9 0-1.2 3.4v4.1l1.2-5.7z" fill="#7A7874"/>
<path d="m139.8 267.6h-7.9l-1.1 5.7h10.1z" fill="#706F6D"/>
<path d="M139.6 265.5h-7.4c-.1 0-.3.1-.3.3v1.9h7.9v-1.9c0-.2-.1-.3-.2-.3z" fill="#9E9C9A"/>
<path d="m139.8 265.8 1.1 3.4v4.1l-1.1-5.7zm-7.9 0-1.1 3.4v4.1l1.1-5.7z" fill="#7A7874"/>
<path d="M150.9 267.6h-8l-1.1 5.7H152z" fill="#706F6D"/>
<path d="M150.6 265.5h-7.4c-.1 0-.3.1-.3.3v1.9h7.9v-1.9c.1-.2-.1-.3-.2-.3z" fill="#9E9C9A"/>
<path d="m150.9 265.8 1.1 3.4v4.1l-1.1-5.7zm-8 0-1.1 3.4v4.1l1.1-5.7z" fill="#7A7874"/>
<path d="M161.9 267.6H154l-1.2 5.7H163z" fill="#706F6D"/>
<path d="M161.6 265.5h-7.4c-.1 0-.3.1-.3.3v1.9h7.9v-1.9c.1-.2 0-.3-.2-.3z" fill="#9E9C9A"/>
<path d="m161.9 265.8 1.1 3.4v4.1l-1.1-5.7zm-7.9 0-1.2 3.4v4.1l1.2-5.7z" fill="#7A7874"/>
<path d="M53.8 273h-8.1l-1.1 5.7H55z" fill="#706F6D"/>
<path d="M53.6 270.9H46c-.1 0-.3.1-.3.3v1.9h8.1v-1.9c0-.2-.1-.3-.2-.3z" fill="#9E9C9A"/>
<path d="m53.8 271.2 1.2 3.3v4.2l-1.2-5.7zm-8 0-1.2 3.3v4.2l1.2-5.7z" fill="#7A7874"/>
<path d="M65.1 273H57l-1.1 5.7h10.3z" fill="#706F6D"/>
<path d="M64.8 270.9h-7.6c-.1 0-.3.1-.3.3v1.9H65v-1.9c.1-.2 0-.3-.2-.3z" fill="#9E9C9A"/>
<path d="m65.1 271.2 1.1 3.3v4.2l-1.1-5.7zm-8.1 0-1.1 3.3v4.2l1.1-5.7z" fill="#7A7874"/>
<path d="m76.3 273h-8.1l-1.1 5.7h10.4z" fill="#706F6D"/>
<path d="M76.1 270.9h-7.6c-.1 0-.3.1-.3.3v1.9h8.1v-1.9c0-.2-.1-.3-.2-.3z" fill="#9E9C9A"/>
<path d="m76.3 271.2 1.2 3.3v4.2l-1.2-5.7zm-8 0-1.2 3.3v4.2l1.2-5.7z" fill="#7A7874"/>
<path d="m87.6 273h-8.1l-1.1 5.7h10.3z" fill="#706F6D"/>
<path d="M87.3 270.9h-7.6c-.1 0-.3.1-.3.3v1.9h8.1v-1.9c.1-.2 0-.3-.2-.3z" fill="#9E9C9A"/>
<path d="m87.6 271.2 1.1 3.3v4.2l-1.1-5.7zm-8.1 0-1.1 3.3v4.2l1.1-5.7z" fill="#7A7874"/>
<path d="M98.8 273.2h-8.1l-1.1 5.6H100z" fill="#706F6D"/>
<path d="M98.6 271H91c-.1 0-.3.1-.3.3v1.9h8.1v-1.9c0-.2-.1-.3-.2-.3z" fill="#9E9C9A"/>
<path d="m98.8 271.3 1.2 3.4v4.1l-1.2-5.6zm-8 0-1.2 3.4v4.1l1.2-5.6z" fill="#7A7874"/>
<path d="M110.1 273.2H102l-1.1 5.6h10.3z" fill="#706F6D"/>
<path d="M109.8 271h-7.6c-.1 0-.3.1-.3.3v1.9h8.1v-1.9c.1-.2 0-.3-.2-.3z" fill="#9E9C9A"/>
<path d="m110.1 271.3 1.1 3.4v4.1l-1.1-5.6zm-8.1 0-1.1 3.4v4.1l1.1-5.6z" fill="#7A7874"/>
<path d="m121.4 273.2h-8.1l-1.2 5.6h10.4z" fill="#706F6D"/>
<path d="M121.1 271h-7.6c-.1 0-.3.1-.3.3v1.9h8.1v-1.9c.1-.2-.1-.3-.2-.3z" fill="#9E9C9A"/>
<path d="m121.4 271.3 1.1 3.4v4.1l-1.1-5.6zm-8.1 0-1.2 3.4v4.1l1.2-5.6z" fill="#7A7874"/>
<path d="m132.6 273.2h-8.1l-1.1 5.6h10.4z" fill="#706F6D"/>
<path d="M132.3 271h-7.6c-.1 0-.3.1-.3.3v1.9h8.1v-1.9c.1-.2 0-.3-.2-.3z" fill="#9E9C9A"/>
<path d="m132.6 271.3 1.2 3.4v4.1l-1.2-5.6zm-8.1 0-1.1 3.4v4.1l1.1-5.6z" fill="#7A7874"/>
<path d="M143.9 273.2h-8.1l-1.2 5.6H145z" fill="#706F6D"/>
<path d="M143.6 271H136c-.1 0-.3.1-.3.3v1.9h8.1v-1.9c.1-.2-.1-.3-.2-.3z" fill="#9E9C9A"/>
<path d="m143.9 271.3 1.1 3.4v4.1l-1.1-5.6zm-8.1 0-1.2 3.4v4.1l1.2-5.6z" fill="#7A7874"/>
<path d="M155.1 273.2H147l-1.1 5.6h10.4z" fill="#706F6D"/>
<path d="M154.8 271h-7.6c-.1 0-.3.1-.3.3v1.9h8.1v-1.9c.1-.2 0-.3-.2-.3z" fill="#9E9C9A"/>
<path d="m155.1 271.3 1.2 3.4v4.1l-1.2-5.6zm-8.1 0-1.1 3.4v4.1l1.1-5.6z" fill="#7A7874"/>
<path d="M187.9 267.6h-11.3l.1-4h-5.3v-3.7c0-.2.1-.3.3-.3h15.9c.2 0 .3.1.3.3v7.7z" fill="#282219"/>
<path d="m187.9 267.6h-11.3l-1.5 5.6h14.3z" fill="#241F16"/>
<path d="m171.4 259.9-1.5 3.4v3.4l1.5-3.1z" fill="#38312A"/>
<path d="m169.9 266.7h5.2l1.6-3.1h-5.3z" fill="#241F16"/>
<path d="m176.7 263.6-1.6 3.1v6.5l1.5-5.6zm11.2-3.7 1 3.1 0.5 10.2-1.5-5.6z" fill="#38312A"/>
<path d="M172.9 267.6H165l-1.1 5.7h10.2z" fill="#706F6D"/>
<path d="M172.7 265.5h-7.4c-.1 0-.3.1-.3.3v1.9h7.9v-1.9c0-.2-.1-.3-.2-.3z" fill="#9E9C9A"/>
<path d="m172.9 265.8 1.2 3.4v4.1l-1.2-5.7zm-7.9 0-1.1 3.4v4.1l1.1-5.7z" fill="#7A7874"/>
<path d="m166.4 273.2h-8.1l-1.2 5.6h10.4z" fill="#706F6D"/>
<path d="M166.1 271h-7.6c-.1 0-.3.1-.3.3v1.9h8.1v-1.9c.1-.2-.1-.3-.2-.3z" fill="#9E9C9A"/>
<path d="m166.4 271.3 1.1 3.4v4.1l-1.1-5.6zm-8.1 0-1.2 3.4v4.1l1.2-5.6z" fill="#7A7874"/>
<path d="M188.6 273.3h-18.3l-1.5 5.6H190z" fill="#241F16"/>
<path d="M188.2 271.2h-17.5c-.2 0-.4.2-.4.4v1.7h18.3v-1.7c0-.3-.2-.4-.4-.4z" fill="#282219"/>
<path d="m188.6 271.4 1.4 3.4v4.1l-1.4-5.6zm-18.3 0-1.5 3.4v4.1l1.5-5.6z" fill="#38312A"/>
<path d="m203.5 255.4h-7.6l-1.1 5.7h9.8z" fill="#241F16"/>
<path d="M203.3 253.3h-7.1c-.1 0-.3.1-.3.3v1.9h7.6v-1.9c0-.2-.1-.3-.2-.3z" fill="#282219"/>
<path d="m203.5 253.6 1.1 3.3v4.2l-1.1-5.7zm-7.6 0-1.1 3.3v4.2l1.1-5.7z" fill="#38312A"/>
<path d="m213.9 255.4h-7.7l-1 5.7h9.7z" fill="#241F16"/>
<path d="M213.6 253.3h-7.1c-.1 0-.3.1-.3.3v1.9h7.6v-1.9c.1-.2-.1-.3-.2-.3z" fill="#282219"/>
<path d="m213.9 253.6 1 3.3v4.2l-1-5.7zm-7.7 0-1 3.3v4.2l1-5.7z" fill="#38312A"/>
<path d="m204.3 267.4h-8.1l-1.1 5.6h10.3z" fill="#241F16"/>
<path d="M204 265.3h-7.5c-.1 0-.3.1-.3.3v1.9h8.1v-1.9c0-.2-.1-.3-.3-.3z" fill="#282219"/>
<path d="m204.3 265.5 1.1 3.4v4.1l-1.1-5.6zm-8.1 0-1.1 3.4v4.1l1.1-5.6z" fill="#38312A"/>
<path d="M215.2 267.4h-8.1L206 273h10.3z" fill="#241F16"/>
<path d="M214.9 265.3h-7.5c-.1 0-.3.1-.3.3v1.9h8.1v-1.9c0-.2-.1-.3-.3-.3z" fill="#282219"/>
<path d="m215.2 265.5 1.1 3.4v4.1l-1.1-5.6zm-8.1 0-1.1 3.4v4.1l1.1-5.6z" fill="#38312A"/>
<path d="M204.9 273.4h-8.1l-1.1 5.7H206z" fill="#241F16"/>
<path d="M204.6 271.3h-7.5c-.1 0-.3.1-.3.3v1.9h8.1v-1.9c0-.2-.2-.3-.3-.3z" fill="#282219"/>
<path d="m204.9 271.5 1.1 3.4v4.2l-1.1-5.7zm-8.1 0-1.1 3.4v4.2l1.1-5.7z" fill="#38312A"/>
<path d="m215.8 273.4h-8.1l-1.1 5.7h10.3z" fill="#241F16"/>
<path d="M215.5 271.3H208c-.1 0-.3.1-.3.3v1.9h8.1v-1.9c0-.2-.2-.3-.3-.3z" fill="#282219"/>
<path d="m215.8 271.5 1.1 3.4v4.2l-1.1-5.7zm-8.1 0-1.1 3.4v4.2l1.1-5.7z" fill="#38312A"/>
<path d="m216.1 279.6h-18.7l-1.5 5.7h21.7z" fill="#241F16"/>
<path d="M215.7 277.5h-17.9c-.2 0-.4.2-.4.4v1.7h18.8v-1.7c-.1-.2-.2-.4-.5-.4z" fill="#282219"/>
<path d="m216.1 277.8 1.5 3.4v4.1l-1.5-5.7zm-18.7 0-1.5 3.4v4.1l1.5-5.7z" fill="#38312A"/>
<path d="M37.8 261.1H22.6l-1.3 5.6H39z" fill="#241F16"/>
<path d="M37.4 258.9H22.9c-.2 0-.4.2-.4.4v1.8h15.2v-1.8c.1-.2-.1-.4-.3-.4z" fill="#282219"/>
<path d="m37.8 259.2 1.2 3.4v4.1l-1.2-5.6zm-15.2 0-1.3 3.4v4.1l1.3-5.6z" fill="#38312A"/>
<path d="M29.3 267.6H21l-1.1 5.7h10.6z" fill="#241F16"/>
<path d="M29 265.5h-7.7c-.1 0-.3.1-.3.3v1.9h8.3v-1.9c0-.2-.1-.3-.3-.3z" fill="#282219"/>
<path d="m29.3 265.8 1.2 3.4v4.1l-1.2-5.7zm-8.3 0-1.1 3.4v4.1l1.1-5.7z" fill="#38312A"/>
<path d="m40.5 267.6h-8.3l-1.1 5.7h10.6z" fill="#241F16"/>
<path d="M40.2 265.5h-7.7c-.1 0-.3.1-.3.3v1.9h8.3v-1.9c0-.2-.1-.3-.3-.3z" fill="#282219"/>
<path d="m40.5 265.8 1.2 3.4v4.1l-1.2-5.7zm-8.3 0-1.1 3.4v4.1l1.1-5.7z" fill="#38312A"/>
<path d="M41.8 273.2H20.4l-1.7 5.6h24.8z" fill="#241F16"/>
<path d="M41.4 271H20.8c-.2 0-.4.2-.4.4v1.7h21.4v-1.7c0-.2-.2-.4-.4-.4z" fill="#282219"/>
<path d="m41.8 271.3 1.7 3.4v4.1l-1.7-5.6zm-21.4 0-1.7 3.4v4.1l1.7-5.6z" fill="#38312A"/>
<path d="M49.8 279.9h-8.1l-1.1 5.6H51z" fill="#241F16"/>
<path d="M49.6 277.7H42c-.1 0-.3.1-.3.3v1.9h8.1V278c0-.1-.1-.3-.2-.3z" fill="#282219"/>
<path d="m49.8 278 1.2 3.4v4.1l-1.2-5.6zm-8.1 0-1.1 3.4v4.1l1.1-5.6z" fill="#38312A"/>
<path d="m60.8 279.9h-8.1l-1.2 5.6h10.4z" fill="#241F16"/>
<path d="M60.5 277.7h-7.6c-.1 0-.3.1-.3.3v1.9h8.1V278c.1-.1 0-.3-.2-.3z" fill="#282219"/>
<path d="m60.8 278 1.1 3.4v4.1l-1.1-5.6zm-8.1 0-1.2 3.4v4.1l1.2-5.6z" fill="#38312A"/>
<path d="m166.9 279.8h-14.3l-1.2 5.6h16.7z" fill="#241F16"/>
<path d="M166.6 277.6h-13.7c-.2 0-.4.2-.4.4v1.8h14.4V278c0-.2-.1-.4-.3-.4z" fill="#282219"/>
<path d="m166.9 277.9 1.2 3.4v4.1l-1.2-5.6zm-14.3 0-1.2 3.4v4.1l1.2-5.6z" fill="#38312A"/>
<path d="M149.8 279.9H63.6l-1.1 5.6h88.4z" fill="#706F6D"/>
<path d="M149.5 277.8H63.9c-.1 0-.3.1-.3.3v1.9h86.1v-2c.1-.1-.1-.2-.2-.2z" fill="#9E9C9A"/>
<path d="m149.8 278 1.1 3.4v4.1l-1.1-5.6zm-86.2 0-1.1 3.4v4.1l1.1-5.6z" fill="#7A7874"/>
<g fill="#1B1610">
<path d="M231.8 240.6l.5-.7-.4-.1.8-.2 1.8.5.5-.5.8.1-.7.1-.6.8-2-.6-.2.3.4.2zM237.4 239.7h1c.2 0 .2 0 .3.1.1 0 .2.1.2.1l.3-.3H236h.4l-.1.1-.2.3H235.8h.2l-.2.2-.1.1H235.4h3l.2-.3-.4.2c-.2 0-.5.1-.8.1h-.4-.1l.1-.1.2-.2H237.8c.1 0 .2.1.2.1l.3-.4c-.1.1-.3.1-.4.1h-.7l.2-.1zM241.5 240.5l.6-.3s-.7.1-1.2.1-1-.1-.9-.3c.1-.3 1.3-.4 1.3-.4l.5.2h.5l-.4-.3s-.7 0-1.4.1-1.5.3-1.4.5c.2.5 1.7.4 1.9.4.1.1.5 0 .5 0z"/>
</g>
<path d="M243.3 239.6h.6v1.9h-.6z" fill="#1B1610"/>
<path d="M244.7 239.6h1.2c.6 0 1 0 1.3.1.3.1.4.1.4.2s-.1.2-.4.3c-.3.1-.8.1-1.4.1h-.5v.5h-.6v-1.2zm.6.6h.5c.7 0 1.2-.1 1.2-.3 0-.2-.4-.2-1.1-.2h-.6v.5zM251.8 240.8c-.2 0-.7.1-1.2.1-1.3 0-2.3-.2-2.3-.6 0-.4 1-.6 2.5-.6.6 0 1 0 1.1.1l-.1.1h-1c-1.1 0-1.8.2-1.8.5s.7.5 1.8.5h1v-.1zM253.9 240.3v.1h-1.7v-.1h1.7zM254.8 240.7h.5c.4 0 .7 0 1-.1.3-.1.5-.2.6-.3-.3.1-.6.1-1.1.1-.8 0-1.3-.2-1.3-.4s.6-.4 1.6-.4c.9 0 1.5.2 1.5.5s-.3.4-.8.5c-.4.1-.8.1-1.3.2h-.6v-.1zm.2-.6c0 .1.3.2.9.2.4 0 .7-.1.9-.1 0 0 .1 0 .1-.1 0-.2-.3-.3-.9-.3-.6 0-1 .1-1 .3zM258 240.5c0-.1.3-.2.9-.3-.5-.1-.7-.2-.7-.3 0-.2.6-.3 1.4-.3.9 0 1.3.1 1.3.3 0 .1-.2.2-.8.3.6.1.9.2.9.3 0 .2-.7.3-1.6.3-.8 0-1.4-.1-1.4-.3zm2.5 0c0-.1-.4-.2-1-.3-.5 0-.8.1-.8.2s.3.2.9.2c.5.1.9 0 .9-.1zm-1.7-.6c0 .1.3.2.9.2.4 0 .7-.1.7-.2s-.2-.2-.8-.2c-.6.1-.8.1-.8.2zM264.7 240.2c0 .4-.6.6-1.6.6-.9 0-1.5-.2-1.5-.6 0-.4.7-.6 1.6-.6.9.1 1.5.3 1.5.6zm-2.5.1c0 .3.4.5.9.5.6 0 .9-.2.9-.5s-.3-.5-.9-.5c-.5 0-.9.1-.9.5zM266.6 239.8l-.8.1-.1-.1 1-.1h.5v1.2h-.6v-1.1z"/>
<path d="M244.7 241h.9c.1 0 .1.1.1.1s0 .1-.1.1h-.7v.2h-.2v-.4zm.2.2h.2c.3 0 .4 0 .4-.1s-.2-.1-.4-.1h-.2v.2zM246.8 241.3h-.6v.2h.7-.9v-.5h.9-.7v.1l.6.2zM247.2 241h.9c.1 0 .1 0 .1.1s-.1.1-.3.1c.1 0 .2 0 .2.1l.1.1h-.2s-.1 0-.1-.1-.1-.1-.3-.1h-.2v.2h-.2v-.4zm.2.2h.2c.2 0 .4 0 .4-.1s-.2-.1-.4-.1h-.2v.2zM248.5 241.4h.4c.2 0 .3 0 .3-.1 0 0-.1-.1-.3-.1-.3 0-.4-.1-.4-.1 0-.1.2-.1.5-.1h.4-.4c-.2 0-.3 0-.3.1 0 0 .1.1.3.1.3 0 .4.1.4.1 0 .1-.2.1-.6.1-.1.1-.3 0-.3 0zM251 241.2c0 .1-.3.2-.8.2-.4 0-.7-.1-.7-.2s.3-.2.8-.2.7.1.7.2zm-1.2 0c0 .1.2.2.5.2s.5-.1.5-.2-.2-.2-.5-.2c-.3.1-.5.1-.5.2zM251.3 241.5v-.5h.2l.5.2c.1 0 .2.1.3.1V241h.2v.4h-.2l-.5-.2c-.1 0-.2-.1-.3-.1v.4h-.2zM253.2 241.3l-.2.1h-.2l.6-.4h.3l.6.4h-.2l-.2-.1h-.7zm.5 0l-.2-.1-.1-.1-.1.1-.2.1h.6zM254.4 241h.2v.4h.7-.9v-.4zM257.1 241.4h-.4c-.5 0-.8-.1-.8-.2s.3-.2.8-.2h.4-.4c-.4 0-.6.1-.6.2s.2.2.6.2h.4zM258.7 241.2c0 .1-.3.2-.8.2-.4 0-.7-.1-.7-.2s.3-.2.8-.2.7.1.7.2zm-1.2 0c0 .1.2.2.5.2s.5-.1.5-.2-.2-.2-.5-.2c-.3.1-.5.1-.5.2zM260.4 241.3v-.2c-.1 0-.1.1-.2.2l-.3.2h-.2l-.3-.2-.2-.2v.4h-.2l.1-.4h.3l.3.2c.1.1.1.1.2.1 0 0 .1-.1.2-.1l.3-.2h.3l.1.4h-.2l-.2-.2zM260.9 241h.9c.1 0 .1.1.1.1s0 .1-.1.1h-.7v.2h-.2v-.4zm.2.2h.2c.3 0 .4 0 .4-.1s-.2-.1-.4-.1h-.2v.2zM262.4 241v.3c0 .1.2.1.4.1s.4 0 .4-.1v-.3h.2v.2c0 .1-.3.2-.6.2s-.6 0-.6-.2v-.2h.2zM264.1 241.1h-.5 1.2-.5v.4h-.2v-.4zM265.8 241.3h-.6v.2h.7-.9v-.5h.9-.7v.1l.6.2zM266.1 241h.9c.1 0 .1 0 .1.1s-.1.1-.3.1c.1 0 .2 0 .2.1l.1.1h-.1s-.1 0-.1-.1-.1-.1-.3-.1h-.2v.2h-.2v-.4zm.3.2h.2c.2 0 .4 0 .4-.1s-.2-.1-.4-.1h-.2v.2z"/>
<path d="M32.784 242.723l.485-7.284.599.04-.486 7.284z" fill="#958B7C"/>
<path d="M213.16 235.528l.598-.04.485 7.284-.599.04z" fill="#958B7C"/>
</svg>
