<?xml version="1.0" encoding="UTF-8"?>
<svg viewBox="0 0 149.62 131.17" xmlns="http://www.w3.org/2000/svg">
<path d="M1 1h36.906v32.293H1z" fill="#010202"/>
<path d="M37.906 1h36.906v32.293H37.906z" fill="#1e2c52"/>
<path d="M74.812 1h36.906v32.293H74.812z" fill="#7f2553"/>
<path d="m111.72 1h36.906v32.293h-36.906z" fill="#008752"/>
<path d="M1 33.293h36.906v32.293H1z" fill="#ac5236"/>
<path d="M37.906 33.293h36.906v32.293H37.906z" fill="#5f584f"/>
<path d="M74.812 33.293h36.906v32.293H74.812z" fill="#c3c3c8"/>
<path d="m111.72 33.293h36.906v32.293h-36.906z" fill="#fef1e8"/>
<path d="M1 65.586h36.906v32.293H1z" fill="#e62052"/>
<path d="M37.906 65.586h36.906v32.293H37.906z" fill="#f6a117"/>
<path d="M74.812 65.586h36.906v32.293H74.812z" fill="#feec2d"/>
<path d="m111.72 65.586h36.906v32.293h-36.906z" fill="#5cb130"/>
<path d="M1 97.879h36.906v32.293H1z" fill="#4fa5dc"/>
<path d="M37.906 97.879h36.906v32.293H37.906z" fill="#83779c"/>
<path d="M74.812 97.879h36.906v32.293H74.812z" fill="#ee77a6"/>
<path d="m111.72 97.879h36.906v32.293h-36.906z" fill="#fbccab"/>
<path d="M149.625 131.172H0V0h149.625v131.172zM2 129.172h145.625V2H2v127.172z" fill="#010202"/>
</svg>
