<?xml version="1.0" encoding="UTF-8"?>
<svg baseProfile="tiny" viewBox="0 0 2084.2 555.1" xmlns="http://www.w3.org/2000/svg">
<path d="m2075.9 541.5c0 3.8-3.1 6.9-6.9 6.9s-6.9-3.1-6.9-6.9 3.1-6.9 6.9-6.9 6.9 3.1 6.9 6.9m-776.9 6.9c-3.8 0-6.9-3.1-6.9-6.9s3.1-6.9 6.9-6.9 6.9 3.1 6.9 6.9-3.1 6.9-6.9 6.9m774.2-91.3h11.1v-58.3h-800v64.4h5.3c2.4 0 4.3 1.9 4.3 4.3v3.5c0 2.4-1.9 4.3-4.3 4.3h-5.3v33.7h5.3c2.4 0 4.3 1.9 4.3 4.3v3.5c0 2.4-1.9 4.3-4.3 4.3h-5.3v34.2h286.8v-15.4c0-5.9 4.8-10.6 10.6-10.6 5.9 0 10.6 4.8 10.6 10.6v15.4h491.9v-34.2h-11.1c-2.4 0-4.3-1.9-4.3-4.3v-3.5c0-2.4 1.9-4.3 4.3-4.3h11.1v-39.7h-11.1c-2.4 0-4.3-1.9-4.3-4.3v-3.5c0.1-2.4 2.1-4.4 4.4-4.4" fill="#3DA978"/>
<path d="m1302.2 492.3c0 3.8-3 6.8-6.8 6.8s-6.8-3-6.8-6.8 3-6.8 6.8-6.8c3.7 0 6.8 3.1 6.8 6.8" fill="#F3B25F"/>
<path d="m1295.4 487.7c-2.5 0-4.6 2.1-4.6 4.6s2.1 4.6 4.6 4.6 4.6-2.1 4.6-4.6-2.1-4.6-4.6-4.6m0 13.6c-5 0-9-4-9-9s4-9 9-9 9 4 9 9-4.1 9-9 9" fill="#9C9C9C"/>
<path d="m1302.2 409.2c0 3.8-3.1 6.8-6.8 6.8-3.8 0-6.8-3-6.8-6.8s3.1-6.8 6.8-6.8 6.8 3.1 6.8 6.8" fill="#F3B25F"/>
<path d="m1295.4 404.6c-2.5 0-4.6 2.1-4.6 4.6s2.1 4.6 4.6 4.6 4.6-2.1 4.6-4.6-2.1-4.6-4.6-4.6m0 13.6c-5 0-9-4-9-9s4-9 9-9 9 4 9 9-4.1 9-9 9" fill="#9C9C9C"/>
<path d="m2077.9 411.7c0 3.8-3.1 6.8-6.8 6.8-3.8 0-6.8-3-6.8-6.8s3.1-6.8 6.8-6.8 6.8 3 6.8 6.8" fill="#F3B25F"/>
<path d="m2071 407.1c-2.5 0-4.6 2.1-4.6 4.6s2.1 4.6 4.6 4.6 4.6-2.1 4.6-4.6c0.1-2.5-2-4.6-4.6-4.6m0 13.6c-5 0-9-4-9-9s4-9 9-9 9 4 9 9c0.1 5-4 9-9 9" fill="#9C9C9C"/>
<path d="m1380.6 513.4h-50.5c-2.1 0-3.9-1.7-3.9-3.9v-81.9c0-2.1 1.7-3.9 3.9-3.9h50.5c2.1 0 3.9 1.7 3.9 3.9v81.9c-0.1 2.1-1.8 3.9-3.9 3.9m92 0h-50.5c-2.1 0-3.9-1.7-3.9-3.9v-81.9c0-2.1 1.7-3.9 3.9-3.9h50.5c2.1 0 3.9 1.7 3.9 3.9v81.9c0 2.1-1.7 3.9-3.9 3.9m92.1 0h-50.5c-2.1 0-3.9-1.7-3.9-3.9v-81.9c0-2.1 1.7-3.9 3.9-3.9h50.5c2.1 0 3.9 1.7 3.9 3.9v81.9c-0.1 2.1-1.8 3.9-3.9 3.9m92 0h-50.5c-2.1 0-3.9-1.7-3.9-3.9v-81.9c0-2.1 1.7-3.9 3.9-3.9h50.5c2.1 0 3.9 1.7 3.9 3.9v81.9c0 2.1-1.8 3.9-3.9 3.9m92 0h-50.5c-2.1 0-3.9-1.7-3.9-3.9v-81.9c0-2.1 1.7-3.9 3.9-3.9h50.5c2.1 0 3.9 1.7 3.9 3.9v81.9c0 2.1-1.7 3.9-3.9 3.9m92.1 0h-50.5c-2.1 0-3.9-1.7-3.9-3.9v-81.9c0-2.1 1.7-3.9 3.9-3.9h50.5c2.1 0 3.9 1.7 3.9 3.9v81.9c-0.1 2.1-1.8 3.9-3.9 3.9m92 0h-50.5c-2.1 0-3.9-1.7-3.9-3.9v-81.9c0-2.1 1.7-3.9 3.9-3.9h50.5c2.1 0 3.9 1.7 3.9 3.9v81.9c0 2.1-1.8 3.9-3.9 3.9m92.1 0h-50.5c-2.1 0-3.9-1.7-3.9-3.9v-81.9c0-2.1 1.7-3.9 3.9-3.9h50.5c2.1 0 3.9 1.7 3.9 3.9v81.9c-0.1 2.1-1.8 3.9-3.9 3.9m-341.3 16.9h-9.4c-0.4 0-0.7-0.3-0.7-0.7v-15.3c0-0.4 0.3-0.7 0.7-0.7h9.4c0.4 0 0.7 0.3 0.7 0.7v15.3c0 0.4-0.3 0.7-0.7 0.7" fill="#5D5D5D"/>
<path d="M1757.8 524.5v-6c0-.3.2-.5.5-.5h9.7c.3 0 .5.2.5.5v6c0 .3-.2.5-.5.5h-9.7c-.3 0-.5-.2-.5-.5M1953 523.8v-6c0-.3.2-.5.5-.5h9.7c.3 0 .5.2.5.5v6c0 .3-.2.5-.5.5h-9.7c-.3-.1-.5-.3-.5-.5M1440.7 530.6v-6c0-.3.2-.5.5-.5h9.7c.3 0 .5.2.5.5v6c0 .3-.2.5-.5.5h-9.7c-.3 0-.5-.3-.5-.5" fill="#696969"/>
<path d="M1869.8 530v-4.7c0-.2.2-.4.4-.4h7.6c.2 0 .4.2.4.4v4.7c0 .2-.2.4-.4.4h-7.6c-.3-.1-.4-.2-.4-.4M1935.2 532.7V528c0-.2.2-.4.4-.4h7.6c.2 0 .4.2.4.4v4.7c0 .2-.2.4-.4.4h-7.6c-.2-.1-.4-.2-.4-.4M2039.8 521.6v-4.7c0-.2.2-.4.4-.4h7.6c.2 0 .4.2.4.4v4.7c0 .2-.2.4-.4.4h-7.6c-.2 0-.4-.2-.4-.4M2051.2 498.2v-4.7c0-.2.2-.4.4-.4h7.6c.2 0 .4.2.4.4v4.7c0 .2-.2.4-.4.4h-7.6c-.2 0-.4-.2-.4-.4M2039.8 473.1v-4.7c0-.2.2-.4.4-.4h7.6c.2 0 .4.2.4.4v4.7c0 .2-.2.4-.4.4h-7.6c-.2 0-.4-.2-.4-.4M2047 447.9v-4.7c0-.2.2-.4.4-.4h7.6c.2 0 .4.2.4.4v4.7c0 .2-.2.4-.4.4h-7.6c-.2-.1-.4-.2-.4-.4M1855.9 524.3v-4.7c0-.2.2-.4.4-.4h7.6c.2 0 .4.2.4.4v4.7c0 .2-.2.4-.4.4h-7.6c-.2 0-.4-.2-.4-.4M1774.5 536.9v-4.7c0-.2.2-.4.4-.4h7.6c.2 0 .4.2.4.4v4.7c0 .2-.2.4-.4.4h-7.6c-.2 0-.4-.2-.4-.4M1719 530v-4.7c0-.2.2-.4.4-.4h7.7c.2 0 .4.2.4.4v4.7c0 .2-.2.4-.4.4h-7.7c-.2-.1-.4-.2-.4-.4M1643 528.6v-4.7c0-.2.2-.4.4-.4h7.7c.2 0 .4.2.4.4v4.7c0 .2-.2.4-.4.4h-7.7c-.2-.1-.4-.2-.4-.4M1581.4 523.1v-4.7c0-.2.2-.4.4-.4h7.6c.2 0 .4.2.4.4v4.7c0 .2-.2.4-.4.4h-7.6c-.2 0-.4-.2-.4-.4M1490.7 527.2v-4.7c0-.2.2-.4.4-.4h7.6c.2 0 .4.2.4.4v4.7c0 .2-.2.4-.4.4h-7.6c-.2 0-.4-.2-.4-.4M1401.9 531.3v-4.7c0-.2.2-.4.4-.4h7.6c.2 0 .4.2.4.4v4.7c0 .2-.2.4-.4.4h-7.6c-.2 0-.4-.2-.4-.4M1352.1 520.4v-4.7c0-.2.2-.4.4-.4h7.6c.2 0 .4.2.4.4v4.7c0 .2-.2.4-.4.4h-7.6c-.3 0-.4-.2-.4-.4M1309.5 525.9v-4.7c0-.2.2-.4.4-.4h7.6c.2 0 .4.2.4.4v4.7c0 .2-.2.4-.4.4h-7.6c-.3-.1-.4-.2-.4-.4M1294.8 446.2v-4.7c0-.2.2-.4.4-.4h7.6c.2 0 .4.2.4.4v4.7c0 .2-.2.4-.4.4h-7.6c-.3 0-.4-.2-.4-.4M1347.9 417.5v-4.7c0-.2.2-.4.4-.4h7.6c.2 0 .4.2.4.4v4.7c0 .2-.2.4-.4.4h-7.6c-.3 0-.4-.2-.4-.4M1404.2 456.7V452c0-.2.2-.4.4-.4h7.6c.2 0 .4.2.4.4v4.7c0 .2-.2.4-.4.4h-7.6c-.2 0-.4-.2-.4-.4M1395.3 428.8v-4.7c0-.2.2-.4.4-.4h7.6c.2 0 .4.2.4.4v4.7c0 .2-.2.4-.4.4h-7.6c-.2 0-.4-.2-.4-.4M1446.3 413.3v-4.7c0-.2.2-.4.4-.4h7.6c.2 0 .4.2.4.4v4.7c0 .2-.2.4-.4.4h-7.6c-.3-.1-.4-.2-.4-.4M1488.4 443.5v-4.7c0-.2.2-.4.4-.4h7.6c.2 0 .4.2.4.4v4.7c0 .2-.2.4-.4.4h-7.6c-.2-.1-.4-.2-.4-.4M1515 416v-4.7c0-.2.2-.4.4-.4h7.6c.2 0 .4.2.4.4v4.7c0 .2-.2.4-.4.4h-7.6c-.2-.1-.4-.2-.4-.4M1580 409.2v-4.7c0-.2.2-.4.4-.4h7.6c.2 0 .4.2.4.4v4.7c0 .2-.2.4-.4.4h-7.6c-.3-.1-.4-.2-.4-.4M1572.6 467.7V463c0-.2.2-.4.4-.4h7.6c.2 0 .4.2.4.4v4.7c0 .2-.2.4-.4.4h-7.6c-.3-.1-.4-.2-.4-.4M1581.4 454v-4.7c0-.2.2-.4.4-.4h7.6c.2 0 .4.2.4.4v4.7c0 .2-.2.4-.4.4h-7.6c-.2 0-.4-.2-.4-.4M1672.4 485.5v-4.7c0-.2.2-.4.4-.4h7.6c.2 0 .4.2.4.4v4.7c0 .2-.2.4-.4.4h-7.6c-.2-.1-.4-.2-.4-.4M1680.8 443.5v-4.7c0-.2.2-.4.4-.4h7.6c.2 0 .4.2.4.4v4.7c0 .2-.2.4-.4.4h-7.6c-.2-.1-.4-.2-.4-.4M1668.1 418.7V414c0-.2.2-.4.4-.4h7.6c.2 0 .4.2.4.4v4.7c0 .2-.2.4-.4.4h-7.6c-.3 0-.4-.2-.4-.4M1765.6 411.9v-4.7c0-.2.2-.4.4-.4h7.7c.2 0 .4.2.4.4v4.7c0 .2-.2.4-.4.4h-7.7c-.3-.1-.4-.2-.4-.4M1775 473.1v-4.7c0-.2.2-.4.4-.4h7.6c.2 0 .4.2.4.4v4.7c0 .2-.2.4-.4.4h-7.6c-.2 0-.4-.2-.4-.4M1855.9 426.1v-4.7c0-.2.2-.4.4-.4h7.6c.2 0 .4.2.4.4v4.7c0 .2-.2.4-.4.4h-7.6c-.2 0-.4-.2-.4-.4M1865.6 447.9v-4.7c0-.2.2-.4.4-.4h7.6c.2 0 .4.2.4.4v4.7c0 .2-.2.4-.4.4h-7.6c-.3-.1-.4-.2-.4-.4M1939.4 411.9v-4.7c0-.2.2-.4.4-.4h7.6c.2 0 .4.2.4.4v4.7c0 .2-.2.4-.4.4h-7.6c-.2-.1-.4-.2-.4-.4M2002.8 418.7V414c0-.2.2-.4.4-.4h7.6c.2 0 .4.2.4.4v4.7c0 .2-.2.4-.4.4h-7.6c-.2 0-.4-.2-.4-.4M1941.9 463.1v-4.7c0-.2.2-.4.4-.4h7.6c.2 0 .4.2.4.4v4.7c0 .2-.2.4-.4.4h-7.6c-.3 0-.4-.2-.4-.4M1393 493.3v-4.7c0-.2.2-.4.4-.4h7.7c.2 0 .4.2.4.4v4.7c0 .2-.2.4-.4.4h-7.7c-.2-.1-.4-.2-.4-.4" fill="#9C9C9C"/>
<path d="m1556.4 554.8h5.5v-15.2h-5.5z" fill="#F6D76E"/>
<path d="m1556.9 554.2h4.5v-14.1h-4.5v14.1zm-1.1 1.1h6.7v-16.2h-6.7v16.2z" fill="#B5B5B5"/>
<path d="m1549.7 554.8h5.6v-15.2h-5.6z" fill="#F6D76E"/>
<path d="m1550.2 554.2h4.5v-14.1h-4.5v14.1zm-1 1.1h6.7v-16.2h-6.7v16.2z" fill="#B5B5B5"/>
<path d="m1543 554.8h5.6v-15.2h-5.6z" fill="#F6D76E"/>
<path d="m1543.6 554.2h4.5v-14.1h-4.5v14.1zm-1.1 1.1h6.7v-16.2h-6.7v16.2z" fill="#B5B5B5"/>
<path d="m1536.4 554.8h5.6v-15.2h-5.6z" fill="#F6D76E"/>
<path d="m1536.9 554.2h4.5v-14.1h-4.5v14.1zm-1 1.1h6.7v-16.2h-6.7v16.2z" fill="#B5B5B5"/>
<path d="m1529.7 554.8h5.6v-15.2h-5.6z" fill="#F6D76E"/>
<path d="m1530.3 554.2h4.5v-14.1h-4.5v14.1zm-1.1 1.1h6.7v-16.2h-6.7v16.2z" fill="#B5B5B5"/>
<path d="m1523.1 554.8h5.6v-15.2h-5.6z" fill="#F6D76E"/>
<path d="m1523.6 554.2h4.5v-14.1h-4.5v14.1zm-1 1.1h6.7v-16.2h-6.7v16.2z" fill="#B5B5B5"/>
<path d="m1516.4 554.8h5.6v-15.2h-5.6z" fill="#F6D76E"/>
<path d="m1517 554.2h4.5v-14.1h-4.5v14.1zm-1.1 1.1h6.7v-16.2h-6.7v16.2z" fill="#B5B5B5"/>
<path d="m1509.8 554.8h5.6v-15.2h-5.6z" fill="#F6D76E"/>
<path d="m1510.3 554.2h4.5v-14.1h-4.5v14.1zm-1.1 1.1h6.7v-16.2h-6.7v16.2z" fill="#B5B5B5"/>
<path d="m1503.1 554.8h5.6v-15.2h-5.6z" fill="#F6D76E"/>
<path d="m1503.7 554.2h4.5v-14.1h-4.5v14.1zm-1.1 1.1h6.7v-16.2h-6.7v16.2z" fill="#B5B5B5"/>
<path d="m1496.5 554.8h5.6v-15.2h-5.6z" fill="#F6D76E"/>
<path d="m1497 554.2h4.5v-14.1h-4.5v14.1zm-1.1 1.1h6.7v-16.2h-6.7v16.2z" fill="#B5B5B5"/>
<path d="m1489.8 554.8h5.6v-15.2h-5.6z" fill="#F6D76E"/>
<path d="m1490.4 554.2h4.5v-14.1h-4.5v14.1zm-1.1 1.1h6.7v-16.2h-6.7v16.2z" fill="#B5B5B5"/>
<path d="m1483.2 554.8h5.6v-15.2h-5.6z" fill="#F6D76E"/>
<path d="m1483.7 554.2h4.5v-14.1h-4.5v14.1zm-1.1 1.1h6.7v-16.2h-6.7v16.2z" fill="#B5B5B5"/>
<path d="m1476.5 554.8h5.6v-15.2h-5.6z" fill="#F6D76E"/>
<path d="m1477.1 554.2h4.5v-14.1h-4.5v14.1zm-1.1 1.1h6.7v-16.2h-6.7v16.2z" fill="#B5B5B5"/>
<path d="m1469.9 554.8h5.6v-15.2h-5.6z" fill="#F6D76E"/>
<path d="m1470.4 554.2h4.5v-14.1h-4.5v14.1zm-1.1 1.1h6.7v-16.2h-6.7v16.2z" fill="#B5B5B5"/>
<path d="m1463.2 554.8h5.6v-15.2h-5.6z" fill="#F6D76E"/>
<path d="m1463.7 554.2h4.5v-14.1h-4.5v14.1zm-1 1.1h6.7v-16.2h-6.7v16.2z" fill="#B5B5B5"/>
<path d="m1456.6 554.8h5.5v-15.2h-5.5z" fill="#F6D76E"/>
<path d="m1457.1 554.2h4.5v-14.1h-4.5v14.1zm-1.1 1.1h6.7v-16.2h-6.7v16.2z" fill="#B5B5B5"/>
<path d="m1449.9 554.8h5.6v-15.2h-5.6z" fill="#F6D76E"/>
<path d="m1450.4 554.2h4.5v-14.1h-4.5v14.1zm-1 1.1h6.7v-16.2h-6.7v16.2z" fill="#B5B5B5"/>
<path d="m1443.3 554.8h5.5v-15.2h-5.5z" fill="#F6D76E"/>
<path d="m1443.8 554.2h4.5v-14.1h-4.5v14.1zm-1.1 1.1h6.7v-16.2h-6.7v16.2z" fill="#B5B5B5"/>
<path d="m1436.6 554.8h5.6v-15.2h-5.6z" fill="#F6D76E"/>
<path d="m1437.1 554.2h4.5v-14.1h-4.5v14.1zm-1 1.1h6.7v-16.2h-6.7v16.2z" fill="#B5B5B5"/>
<path d="m1429.9 554.8h5.6v-15.2h-5.6z" fill="#F6D76E"/>
<path d="m1430.5 554.2h4.5v-14.1h-4.5v14.1zm-1.1 1.1h6.7v-16.2h-6.7v16.2z" fill="#B5B5B5"/>
<path d="m1423.3 554.8h5.6v-15.2h-5.6z" fill="#F6D76E"/>
<path d="m1423.8 554.2h4.5v-14.1h-4.5v14.1zm-1 1.1h6.7v-16.2h-6.7v16.2z" fill="#B5B5B5"/>
<path d="m1416.6 554.8h5.6v-15.2h-5.6z" fill="#F6D76E"/>
<path d="m1417.2 554.2h4.5v-14.1h-4.5v14.1zm-1.1 1.1h6.7v-16.2h-6.7v16.2z" fill="#B5B5B5"/>
<path d="m1410 554.8h5.6v-15.2h-5.6z" fill="#F6D76E"/>
<path d="m1410.5 554.2h4.5v-14.1h-4.5v14.1zm-1 1.1h6.7v-16.2h-6.7v16.2z" fill="#B5B5B5"/>
<path d="m1403.3 554.8h5.6v-15.2h-5.6z" fill="#F6D76E"/>
<path d="m1403.9 554.2h4.5v-14.1h-4.5v14.1zm-1.1 1.1h6.7v-16.2h-6.7v16.2z" fill="#B5B5B5"/>
<path d="m1396.7 554.8h5.6v-15.2h-5.6z" fill="#F6D76E"/>
<path d="m1397.2 554.2h4.5v-14.1h-4.5v14.1zm-1 1.1h6.7v-16.2h-6.7v16.2z" fill="#B5B5B5"/>
<path d="m1390 554.8h5.6v-15.2h-5.6z" fill="#F6D76E"/>
<path d="m1390.6 554.2h4.5v-14.1h-4.5v14.1zm-1.1 1.1h6.7v-16.2h-6.7v16.2z" fill="#B5B5B5"/>
<path d="m1383.4 554.8h5.6v-15.2h-5.6z" fill="#F6D76E"/>
<path d="m1383.9 554.2h4.5v-14.1h-4.5v14.1zm-1.1 1.1h6.7v-16.2h-6.7v16.2z" fill="#B5B5B5"/>
<path d="m1376.7 554.8h5.6v-15.2h-5.6z" fill="#F6D76E"/>
<path d="m1377.3 554.2h4.5v-14.1h-4.5v14.1zm-1.1 1.1h6.7v-16.2h-6.7v16.2z" fill="#B5B5B5"/>
<path d="m1370.1 554.8h5.6v-15.2h-5.6z" fill="#F6D76E"/>
<path d="m1370.6 554.2h4.5v-14.1h-4.5v14.1zm-1.1 1.1h6.7v-16.2h-6.7v16.2z" fill="#B5B5B5"/>
<path d="m1363.4 554.8h5.6v-15.2h-5.6z" fill="#F6D76E"/>
<path d="m1364 554.2h4.5v-14.1h-4.5v14.1zm-1.1 1.1h6.7v-16.2h-6.7v16.2z" fill="#B5B5B5"/>
<path d="m1356.8 554.8h5.6v-15.2h-5.6z" fill="#F6D76E"/>
<path d="m1357.3 554.2h4.5v-14.1h-4.5v14.1zm-1.1 1.1h6.7v-16.2h-6.7v16.2z" fill="#B5B5B5"/>
<path d="m1350.1 554.8h5.6v-15.2h-5.6z" fill="#F6D76E"/>
<path d="m1350.6 554.2h4.5v-14.1h-4.5v14.1zm-1 1.1h6.7v-16.2h-6.7v16.2z" fill="#B5B5B5"/>
<path d="m1343.5 554.8h5.6v-15.2h-5.6z" fill="#F6D76E"/>
<path d="m1344 554.2h4.5v-14.1h-4.5v14.1zm-1.1 1.1h6.7v-16.2h-6.7v16.2z" fill="#B5B5B5"/>
<path d="m1336.8 554.8h5.6v-15.2h-5.6z" fill="#F6D76E"/>
<path d="m1337.3 554.2h4.5v-14.1h-4.5v14.1zm-1 1.1h6.7v-16.2h-6.7v16.2z" fill="#B5B5B5"/>
<path d="m1330.2 554.8h5.5v-15.2h-5.5z" fill="#F6D76E"/>
<path d="m1330.7 554.2h4.5v-14.1h-4.5v14.1zm-1.1 1.1h6.7v-16.2h-6.7v16.2z" fill="#B5B5B5"/>
<path d="m2033.1 554.8h5.6v-15.2h-5.6z" fill="#F6D76E"/>
<path d="m2033.6 554.2h4.5v-14.1h-4.5v14.1zm-1.1 1.1h6.7v-16.2h-6.7v16.2z" fill="#B5B5B5"/>
<path d="m2026.4 554.8h5.6v-15.2h-5.6z" fill="#F6D76E"/>
<path d="m2027 554.2h4.5v-14.1h-4.5v14.1zm-1.1 1.1h6.7v-16.2h-6.7v16.2z" fill="#B5B5B5"/>
<path d="m2019.8 554.8h5.6v-15.2h-5.6z" fill="#F6D76E"/>
<path d="m2020.3 554.2h4.5v-14.1h-4.5v14.1zm-1.1 1.1h6.7v-16.2h-6.7v16.2z" fill="#B5B5B5"/>
<path d="m2013.1 554.8h5.6v-15.2h-5.6z" fill="#F6D76E"/>
<path d="m2013.7 554.2h4.5v-14.1h-4.5v14.1zm-1.1 1.1h6.7v-16.2h-6.7v16.2z" fill="#B5B5B5"/>
<path d="m2006.5 554.8h5.6v-15.2h-5.6z" fill="#F6D76E"/>
<path d="m2007 554.2h4.5v-14.1h-4.5v14.1zm-1.1 1.1h6.7v-16.2h-6.7v16.2z" fill="#B5B5B5"/>
<path d="m1999.8 554.8h5.6v-15.2h-5.6z" fill="#F6D76E"/>
<path d="m2000.3 554.2h4.5v-14.1h-4.5v14.1zm-1 1.1h6.7v-16.2h-6.7v16.2z" fill="#B5B5B5"/>
<path d="m1993.2 554.8h5.6v-15.2h-5.6z" fill="#F6D76E"/>
<path d="m1993.7 554.2h4.5v-14.1h-4.5v14.1zm-1.1 1.1h6.7v-16.2h-6.7v16.2z" fill="#B5B5B5"/>
<path d="m1986.5 554.8h5.6v-15.2h-5.6z" fill="#F6D76E"/>
<path d="m1987 554.2h4.5v-14.1h-4.5v14.1zm-1 1.1h6.7v-16.2h-6.7v16.2z" fill="#B5B5B5"/>
<path d="m1979.9 554.8h5.5v-15.2h-5.5z" fill="#F6D76E"/>
<path d="m1980.4 554.2h4.5v-14.1h-4.5v14.1zm-1.1 1.1h6.7v-16.2h-6.7v16.2z" fill="#B5B5B5"/>
<path d="m1973.2 554.8h5.6v-15.2h-5.6z" fill="#F6D76E"/>
<path d="m1973.7 554.2h4.5v-14.1h-4.5v14.1zm-1 1.1h6.7v-16.2h-6.7v16.2z" fill="#B5B5B5"/>
<path d="m1966.6 554.8h5.5v-15.2h-5.5z" fill="#F6D76E"/>
<path d="m1967.1 554.2h4.5v-14.1h-4.5v14.1zm-1.1 1.1h6.7v-16.2h-6.7v16.2z" fill="#B5B5B5"/>
<path d="m1959.9 554.8h5.6v-15.2h-5.6z" fill="#F6D76E"/>
<path d="m1960.4 554.2h4.5v-14.1h-4.5v14.1zm-1 1.1h6.7v-16.2h-6.7v16.2z" fill="#B5B5B5"/>
<path d="m1953.2 554.8h5.6v-15.2h-5.6z" fill="#F6D76E"/>
<path d="m1953.8 554.2h4.5v-14.1h-4.5v14.1zm-1.1 1.1h6.7v-16.2h-6.7v16.2z" fill="#B5B5B5"/>
<path d="m1946.6 554.8h5.6v-15.2h-5.6z" fill="#F6D76E"/>
<path d="m1947.1 554.2h4.5v-14.1h-4.5v14.1zm-1 1.1h6.7v-16.2h-6.7v16.2z" fill="#B5B5B5"/>
<path d="m1939.9 554.8h5.6v-15.2h-5.6z" fill="#F6D76E"/>
<path d="m1940.5 554.2h4.5v-14.1h-4.5v14.1zm-1.1 1.1h6.7v-16.2h-6.7v16.2z" fill="#B5B5B5"/>
<path d="m1933.3 554.8h5.6v-15.2h-5.6z" fill="#F6D76E"/>
<path d="m1933.8 554.2h4.5v-14.1h-4.5v14.1zm-1 1.1h6.7v-16.2h-6.7v16.2z" fill="#B5B5B5"/>
<path d="m1926.6 554.8h5.6v-15.2h-5.6z" fill="#F6D76E"/>
<path d="m1927.2 554.2h4.5v-14.1h-4.5v14.1zm-1.1 1.1h6.7v-16.2h-6.7v16.2z" fill="#B5B5B5"/>
<path d="m1920 554.8h5.6v-15.2h-5.6z" fill="#F6D76E"/>
<path d="m1920.5 554.2h4.5v-14.1h-4.5v14.1zm-1 1.1h6.7v-16.2h-6.7v16.2z" fill="#B5B5B5"/>
<path d="m1913.3 554.8h5.6v-15.2h-5.6z" fill="#F6D76E"/>
<path d="m1913.9 554.2h4.5v-14.1h-4.5v14.1zm-1.1 1.1h6.7v-16.2h-6.7v16.2z" fill="#B5B5B5"/>
<path d="m1906.7 554.8h5.6v-15.2h-5.6z" fill="#F6D76E"/>
<path d="m1907.2 554.2h4.5v-14.1h-4.5v14.1zm-1.1 1.1h6.7v-16.2h-6.7v16.2z" fill="#B5B5B5"/>
<path d="m1900 554.8h5.6v-15.2h-5.6z" fill="#F6D76E"/>
<path d="m1900.6 554.2h4.5v-14.1h-4.5v14.1zm-1.1 1.1h6.7v-16.2h-6.7v16.2z" fill="#B5B5B5"/>
<path d="m1893.4 554.8h5.6v-15.2h-5.6z" fill="#F6D76E"/>
<path d="m1893.9 554.2h4.5v-14.1h-4.5v14.1zm-1.1 1.1h6.7v-16.2h-6.7v16.2z" fill="#B5B5B5"/>
<path d="m1886.7 554.8h5.6v-15.2h-5.6z" fill="#F6D76E"/>
<path d="m1887.3 554.2h4.5v-14.1h-4.5v14.1zm-1.1 1.1h6.7v-16.2h-6.7v16.2z" fill="#B5B5B5"/>
<path d="m1880.1 554.8h5.6v-15.2h-5.6z" fill="#F6D76E"/>
<path d="m1880.6 554.2h4.5v-14.1h-4.5v14.1zm-1.1 1.1h6.7v-16.2h-6.7v16.2z" fill="#B5B5B5"/>
<path d="m1873.4 554.8h5.6v-15.2h-5.6z" fill="#F6D76E"/>
<path d="m1873.9 554.2h4.5v-14.1h-4.5v14.1zm-1 1.1h6.7v-16.2h-6.7v16.2z" fill="#B5B5B5"/>
<path d="m1866.8 554.8h5.6v-15.2h-5.6z" fill="#F6D76E"/>
<path d="m1867.3 554.2h4.5v-14.1h-4.5v14.1zm-1.1 1.1h6.7v-16.2h-6.7v16.2z" fill="#B5B5B5"/>
<path d="m1860.1 554.8h5.6v-15.2h-5.6z" fill="#F6D76E"/>
<path d="m1860.6 554.2h4.5v-14.1h-4.5v14.1zm-1 1.1h6.7v-16.2h-6.7v16.2z" fill="#B5B5B5"/>
<path d="m1853.5 554.8h5.5v-15.2h-5.5z" fill="#F6D76E"/>
<path d="m1854 554.2h4.5v-14.1h-4.5v14.1zm-1.1 1.1h6.7v-16.2h-6.7v16.2z" fill="#B5B5B5"/>
<path d="m1846.8 554.8h5.6v-15.2h-5.6z" fill="#F6D76E"/>
<path d="m1847.3 554.2h4.5v-14.1h-4.5v14.1zm-1 1.1h6.7v-16.2h-6.7v16.2z" fill="#B5B5B5"/>
<path d="m1840.2 554.8h5.5v-15.2h-5.5z" fill="#F6D76E"/>
<path d="m1840.7 554.2h4.5v-14.1h-4.5v14.1zm-1.1 1.1h6.7v-16.2h-6.7v16.2z" fill="#B5B5B5"/>
<path d="m1833.5 554.8h5.6v-15.2h-5.6z" fill="#F6D76E"/>
<path d="m1834 554.2h4.5v-14.1h-4.5v14.1zm-1 1.1h6.7v-16.2h-6.7v16.2z" fill="#B5B5B5"/>
<path d="m1826.8 554.8h5.6v-15.2h-5.6z" fill="#F6D76E"/>
<path d="m1827.4 554.2h4.5v-14.1h-4.5v14.1zm-1.1 1.1h6.7v-16.2h-6.7v16.2z" fill="#B5B5B5"/>
<path d="m1820.2 554.8h5.6v-15.2h-5.6z" fill="#F6D76E"/>
<path d="m1820.7 554.2h4.5v-14.1h-4.5v14.1zm-1 1.1h6.7v-16.2h-6.7v16.2z" fill="#B5B5B5"/>
<path d="m1813.5 554.8h5.6v-15.2h-5.6z" fill="#F6D76E"/>
<path d="m1814.1 554.2h4.5v-14.1h-4.5v14.1zm-1.1 1.1h6.7v-16.2h-6.7v16.2z" fill="#B5B5B5"/>
<path d="m1806.9 554.8h5.6v-15.2h-5.6z" fill="#F6D76E"/>
<path d="m1807.4 554.2h4.5v-14.1h-4.5v14.1zm-1 1.1h6.7v-16.2h-6.7v16.2z" fill="#B5B5B5"/>
<path d="m1800.2 554.8h5.6v-15.2h-5.6z" fill="#F6D76E"/>
<path d="m1800.8 554.2h4.5v-14.1h-4.5v14.1zm-1.1 1.1h6.7v-16.2h-6.7v16.2z" fill="#B5B5B5"/>
<path d="m1793.6 554.8h5.6v-15.2h-5.6z" fill="#F6D76E"/>
<path d="m1794.1 554.2h4.5v-14.1h-4.5v14.1zm-1 1.1h6.7v-16.2h-6.7v16.2z" fill="#B5B5B5"/>
<path d="m1786.9 554.8h5.6v-15.2h-5.6z" fill="#F6D76E"/>
<path d="m1787.5 554.2h4.5v-14.1h-4.5v14.1zm-1.1 1.1h6.7v-16.2h-6.7v16.2z" fill="#B5B5B5"/>
<path d="m1780.3 554.8h5.6v-15.2h-5.6z" fill="#F6D76E"/>
<path d="m1780.8 554.2h4.5v-14.1h-4.5v14.1zm-1.1 1.1h6.7v-16.2h-6.7v16.2z" fill="#B5B5B5"/>
<path d="m1773.6 554.8h5.6v-15.2h-5.6z" fill="#F6D76E"/>
<path d="m1774.2 554.2h4.5v-14.1h-4.5v14.1zm-1.1 1.1h6.7v-16.2h-6.7v16.2z" fill="#B5B5B5"/>
<path d="m1767 554.8h5.6v-15.2h-5.6z" fill="#F6D76E"/>
<path d="m1767.5 554.2h4.5v-14.1h-4.5v14.1zm-1.1 1.1h6.7v-16.2h-6.7v16.2z" fill="#B5B5B5"/>
<path d="m1760.3 554.8h5.6v-15.2h-5.6z" fill="#F6D76E"/>
<path d="m1760.9 554.2h4.5v-14.1h-4.5v14.1zm-1.1 1.1h6.7v-16.2h-6.7v16.2z" fill="#B5B5B5"/>
<path d="m1753.7 554.8h5.6v-15.2h-5.6z" fill="#F6D76E"/>
<path d="m1754.2 554.2h4.5v-14.1h-4.5v14.1zm-1.1 1.1h6.7v-16.2h-6.7v16.2z" fill="#B5B5B5"/>
<path d="m1747 554.8h5.6v-15.2h-5.6z" fill="#F6D76E"/>
<path d="m1747.5 554.2h4.5v-14.1h-4.5v14.1zm-1 1.1h6.7v-16.2h-6.7v16.2z" fill="#B5B5B5"/>
<path d="m1740.4 554.8h5.5v-15.2h-5.5z" fill="#F6D76E"/>
<path d="m1740.9 554.2h4.5v-14.1h-4.5v14.1zm-1.1 1.1h6.7v-16.2h-6.7v16.2z" fill="#B5B5B5"/>
<path d="m1733.7 554.8h5.6v-15.2h-5.6z" fill="#F6D76E"/>
<path d="m1734.2 554.2h4.5v-14.1h-4.5v14.1zm-1 1.1h6.7v-16.2h-6.7v16.2z" fill="#B5B5B5"/>
<path d="m1727.1 554.8h5.5v-15.2h-5.5z" fill="#F6D76E"/>
<path d="m1727.6 554.2h4.5v-14.1h-4.5v14.1zm-1.1 1.1h6.7v-16.2h-6.7v16.2z" fill="#B5B5B5"/>
<path d="m1720.4 554.8h5.6v-15.2h-5.6z" fill="#F6D76E"/>
<path d="m1720.9 554.2h4.5v-14.1h-4.5v14.1zm-1 1.1h6.7v-16.2h-6.7v16.2z" fill="#B5B5B5"/>
<path d="m1713.8 554.8h5.5v-15.2h-5.5z" fill="#F6D76E"/>
<path d="m1714.3 554.2h4.5v-14.1h-4.5v14.1zm-1.1 1.1h6.7v-16.2h-6.7v16.2z" fill="#B5B5B5"/>
<path d="m1707.1 554.8h5.6v-15.2h-5.6z" fill="#F6D76E"/>
<path d="m1707.6 554.2h4.5v-14.1h-4.5v14.1zm-1 1.1h6.7v-16.2h-6.7v16.2z" fill="#B5B5B5"/>
<path d="m1700.4 554.8h5.6v-15.2h-5.6z" fill="#F6D76E"/>
<path d="m1701 554.2h4.5v-14.1h-4.5v14.1zm-1.1 1.1h6.7v-16.2h-6.7v16.2z" fill="#B5B5B5"/>
<path d="m1693.8 554.8h5.6v-15.2h-5.6z" fill="#F6D76E"/>
<path d="m1694.3 554.2h4.5v-14.1h-4.5v14.1zm-1 1.1h6.7v-16.2h-6.7v16.2z" fill="#B5B5B5"/>
<path d="m1687.1 554.8h5.6v-15.2h-5.6z" fill="#F6D76E"/>
<path d="m1687.7 554.2h4.5v-14.1h-4.5v14.1zm-1.1 1.1h6.7v-16.2h-6.7v16.2z" fill="#B5B5B5"/>
<path d="m1680.5 554.8h5.6v-15.2h-5.6z" fill="#F6D76E"/>
<path d="m1681 554.2h4.5v-14.1h-4.5v14.1zm-1 1.1h6.7v-16.2h-6.7v16.2z" fill="#B5B5B5"/>
<path d="m1673.8 554.8h5.6v-15.2h-5.6z" fill="#F6D76E"/>
<path d="m1674.4 554.2h4.5v-14.1h-4.5v14.1zm-1.1 1.1h6.7v-16.2h-6.7v16.2z" fill="#B5B5B5"/>
<path d="m1667.2 554.8h5.6v-15.2h-5.6z" fill="#F6D76E"/>
<path d="m1667.7 554.2h4.5v-14.1h-4.5v14.1zm-1.1 1.1h6.7v-16.2h-6.7v16.2z" fill="#B5B5B5"/>
<path d="m1660.5 554.8h5.6v-15.2h-5.6z" fill="#F6D76E"/>
<path d="m1661.1 554.2h4.5v-14.1h-4.5v14.1zm-1.1 1.1h6.7v-16.2h-6.7v16.2z" fill="#B5B5B5"/>
<path d="m1653.9 554.8h5.6v-15.2h-5.6z" fill="#F6D76E"/>
<path d="m1654.4 554.2h4.5v-14.1h-4.5v14.1zm-1.1 1.1h6.7v-16.2h-6.7v16.2z" fill="#B5B5B5"/>
<path d="m1647.2 554.8h5.6v-15.2h-5.6z" fill="#F6D76E"/>
<path d="m1647.8 554.2h4.5v-14.1h-4.5v14.1zm-1.1 1.1h6.7v-16.2h-6.7v16.2z" fill="#B5B5B5"/>
<path d="m1640.6 554.8h5.6v-15.2h-5.6z" fill="#F6D76E"/>
<path d="m1641.1 554.2h4.5v-14.1h-4.5v14.1zm-1.1 1.1h6.7v-16.2h-6.7v16.2z" fill="#B5B5B5"/>
<path d="m1633.9 554.8h5.6v-15.2h-5.6z" fill="#F6D76E"/>
<path d="m1634.5 554.2h4.5v-14.1h-4.5v14.1zm-1.1 1.1h6.7v-16.2h-6.7v16.2z" fill="#B5B5B5"/>
<path d="m1627.3 554.8h5.6v-15.2h-5.6z" fill="#F6D76E"/>
<path d="m1627.8 554.2h4.5v-14.1h-4.5v14.1zm-1.1 1.1h6.7v-16.2h-6.7v16.2z" fill="#B5B5B5"/>
<path d="m1620.6 554.8h5.6v-15.2h-5.6z" fill="#F6D76E"/>
<path d="m1621.1 554.2h4.5v-14.1h-4.5v14.1zm-1 1.1h6.7v-16.2h-6.7v16.2z" fill="#B5B5B5"/>
<path d="m1614 554.8h5.5v-15.2h-5.5z" fill="#F6D76E"/>
<path d="m1614.5 554.2h4.5v-14.1h-4.5v14.1zm-1.1 1.1h6.7v-16.2h-6.7v16.2z" fill="#B5B5B5"/>
<path d="m1607.3 554.8h5.6v-15.2h-5.6z" fill="#F6D76E"/>
<path d="m1607.8 554.2h4.5v-14.1h-4.5v14.1zm-1 1.1h6.7v-16.2h-6.7v16.2z" fill="#B5B5B5"/>
<path d="M1557.3 488.6H1337c-2.3 0-4.1-1.8-4.1-4.1v-37.6c0-2.3 1.8-4.1 4.1-4.1h220.3c2.3 0 4.1 1.8 4.1 4.1v37.6c0 2.3-1.8 4.1-4.1 4.1" fill="#FFF"/>
<path d="M1363.5 464.4c.3-.3.6-.5.8-.8.2-.2.3-.4.4-.6.1-.2.2-.4.2-.5v-.6c0-.6-.2-1-.5-1.3-.3-.3-.7-.5-1.3-.5-.3 0-.5 0-.7.1l-.6.3c-.2.1-.3.3-.4.5-.1.2-.1.4-.1.6 0 .3.1.5.2.8.1.3.3.5.6.8l1.4 1.2zm-.8 1.2c-.4.4-.8.8-1 1.2-.2.4-.3.9-.3 1.4 0 .3 0 .6.1.9.1.3.2.5.4.7.2.2.4.3.6.5.2.1.5.2.8.2.3 0 .5 0 .8-.1l.6-.3c.2-.1.3-.3.4-.5.1-.2.1-.4.1-.6 0-.2 0-.5-.1-.7-.1-.2-.2-.5-.5-.7l-.8-.8c-.3-.5-.7-.9-1.1-1.2zm-.4-.3c-.4-.4-.8-.7-1-.9-.3-.3-.5-.5-.6-.7l-.3-.6c0-.2-.1-.4-.1-.7 0-.3.1-.7.2-1 .1-.3.3-.6.6-.8l.9-.6c.4-.1.8-.2 1.2-.2.4 0 .8.1 1.2.2.4.1.7.3.9.5.3.2.4.5.6.7.1.3.2.6.2.8 0 .2 0 .4-.1.6l-.3.6-.7.7c-.3.2-.6.5-1.1.8.5.4.8.7 1.1 1l.7.7c.4.5.6 1.1.6 1.7 0 .4-.1.7-.2 1-.1.3-.4.6-.6.9-.3.2-.6.4-1 .6-.4.1-.8.2-1.3.2-.4 0-.9-.1-1.2-.2-.4-.1-.7-.3-1-.6-.3-.2-.5-.5-.6-.8-.1-.3-.2-.6-.2-1 0-.5.2-.9.5-1.4.3-.5.8-1 1.6-1.5zM1369.1 461l2.6-1.3h.3v9.7c0 .2 0 .3.1.4 0 .1.1.2.1.2s.1.1.2.1c.2.1.5.1 1 .1v.3h-4v-.3h.6c.2 0 .3-.1.4-.1.1 0 .2-.1.2-.1 0-.1.1-.1.1-.2.1-.1.1-.5.1-1.1V463v-1.1c0-.3-.1-.5-.1-.6s-.1-.2-.2-.2-.2-.1-.3-.1c-.2 0-.5.1-.8.2l-.3-.2zM1381 465.4c.1-.7.1-1.2.1-1.6 0-.5-.1-1-.2-1.4-.1-.4-.3-.8-.5-1.1-.2-.3-.4-.5-.7-.7-.3-.2-.5-.3-.8-.3-.2 0-.4.1-.7.2-.2.1-.4.3-.6.5-.2.2-.3.5-.4.8-.1.3-.1.7-.1 1.1 0 .5 0 .9.1 1.3s.2.7.4 1c.2.3.4.5.6.7.2.2.5.3.8.3h.4c.1 0 .3-.1.5-.1.2-.1.3-.1.5-.2.3-.3.4-.4.6-.5zm-4.9 5.4v-.3c.4 0 .7 0 1-.1.3-.1.6-.2.9-.4l.9-.6c.3-.3.6-.6.8-1 .3-.4.5-.8.7-1.2.2-.4.3-.9.4-1.3-.8.5-1.6.8-2.2.8-.4 0-.7-.1-1.1-.2l-.9-.6c-.2-.3-.4-.6-.6-1-.1-.4-.2-.8-.2-1.3s.1-1 .3-1.5c.2-.5.4-.9.7-1.2.3-.3.7-.6 1.1-.8.4-.2.8-.3 1.3-.3s1 .1 1.4.4c.4.2.8.6 1.1 1 .3.4.5.9.7 1.4.2.5.2 1.1.2 1.6 0 1.2-.3 2.3-.9 3.3-.3.5-.6 1-1 1.4-.4.4-.9.8-1.4 1.1-.8.6-1.8.8-2.7.8h-.5zM1390.6 468.6l-.7 2h-6.3v-.3c1.8-1.7 3.1-3.1 3.9-4.1.8-1.1 1.1-2 1.1-2.9 0-.3-.1-.6-.2-.9-.1-.3-.3-.5-.5-.7-.2-.2-.4-.4-.7-.5-.3-.1-.5-.2-.8-.2-.5 0-1 .2-1.4.5-.4.3-.7.8-.9 1.3h-.3c.1-1 .5-1.7 1-2.2.5-.5 1.2-.8 2-.8.4 0 .8.1 1.2.2.4.2.7.4 1 .6.3.3.5.6.6.9.2.3.2.7.2 1.1 0 .5-.1 1-.3 1.5-.2.5-.4.8-.6 1.1-.2.3-.5.7-.9 1.1-.7.8-1.3 1.4-1.7 1.9-.4.5-.8.9-1.3 1.3H1388.7c.2 0 .4-.1.6-.1.2-.1.3-.1.4-.3.1-.1.2-.3.4-.5h.5zM1397.9 470.6l-4.1-8.9v7.1c0 .4 0 .7.1.9.1.2.1.4.2.5.1.1.2.2.4.2h.9v.3h-3.7v-.3h.9c.1 0 .3-.1.4-.2.1-.1.2-.3.2-.5s.1-.5.1-.8V462v-.7c0-.2-.1-.4-.2-.5-.1-.1-.2-.2-.4-.3-.2-.1-.5-.1-.8-.1v-.4h3l3.9 8.3 3.8-8.3h3v.3h-.9c-.1 0-.3.1-.4.2-.1.1-.2.3-.2.5s-.1.5-.1.8v6.9c0 .4 0 .7.1.9.1.2.1.4.2.5.1.1.2.2.4.2h.9v.3h-4.5v-.3h.9c.1 0 .3-.1.4-.2.1-.1.2-.3.2-.5s.1-.5.1-.8v-7.1l-4.1 8.9h-.7zM1408.9 469.8c.6.1 1.2.2 1.8.2.5 0 .9-.1 1.3-.2s.7-.3.9-.5c.2-.2.4-.4.5-.7s.2-.6.2-.9c0-.3-.1-.7-.2-.9-.1-.3-.3-.6-.6-.8-.3-.2-.6-.4-1-.5-.4-.1-.9-.2-1.5-.2h-.8c-.2 0-.4 0-.5.1v4.4zm0-5c.2 0 .4.1.7.1h.8c1 0 1.8-.2 2.2-.6.5-.4.7-.9.7-1.6 0-.3-.1-.6-.2-.9-.1-.3-.3-.5-.6-.7-.2-.2-.6-.4-.9-.5-.4-.1-.8-.2-1.3-.2s-1 .1-1.4.2v4.2zm4.1.4c.4.1.8.2 1.1.4.3.2.6.4.7.6.2.2.3.5.4.7.1.3.1.5.1.8 0 .3 0 .5-.1.8-.1.3-.2.5-.4.7l-.6.6c-.2.2-.5.3-.8.5-.6.2-1.4.3-2.7.3h-5v-.3h.9c.1 0 .3-.1.4-.2.1-.1.2-.3.2-.5s.1-.5.1-.9v-6.9c0-.4 0-.7-.1-.9-.1-.2-.1-.4-.2-.5-.1-.1-.2-.2-.4-.2h-.9v-.2h4.6c1.5 0 2.6.3 3.4.7.8.5 1.1 1.2 1.1 2.1 0 .5-.2 1-.5 1.4-.2.5-.7.8-1.3 1zM1423.6 469.8c.6.1 1.2.2 1.7.2.6 0 1.2-.1 1.7-.3.5-.2 1-.5 1.3-.9.4-.4.7-.9.9-1.5.2-.6.3-1.2.3-2 0-.7-.1-1.4-.3-2-.2-.6-.5-1.1-.9-1.5-.4-.4-.8-.7-1.4-.9-.5-.2-1.1-.3-1.7-.3-.5 0-1 .1-1.6.2v9zm-3.1.8v-.3h.9c.1 0 .3-.1.4-.2.1-.1.2-.3.2-.5s.1-.5.1-.9v-6.9c0-.7-.1-1.1-.2-1.2-.2-.2-.5-.4-.9-.4h-.4v-.2h4.3c1.6 0 2.8.2 3.6.5.8.4 1.5 1 2 1.8s.8 1.8.8 2.9c0 .8-.1 1.5-.4 2.2-.3.7-.6 1.2-1.1 1.7-.5.5-1.1.8-1.9 1.1-.7.3-1.6.4-2.6.4h-4.8zM1435.2 469.8c.6.1 1.2.2 1.7.2.6 0 1.2-.1 1.7-.3.5-.2 1-.5 1.3-.9.4-.4.7-.9.9-1.5.2-.6.3-1.2.3-2 0-.7-.1-1.4-.3-2-.2-.6-.5-1.1-.9-1.5-.4-.4-.8-.7-1.4-.9-.5-.2-1.1-.3-1.7-.3-.5 0-1 .1-1.6.2v9zm-3.1.8v-.3h.9c.1 0 .3-.1.4-.2.1-.1.2-.3.2-.5.1-.2.1-.5.1-.9v-6.9c0-.7-.1-1.1-.2-1.2-.2-.2-.5-.4-.9-.4h-.4v-.2h4.3c1.6 0 2.8.2 3.6.5.8.4 1.5 1 2 1.8s.8 1.8.8 2.9c0 .8-.1 1.5-.4 2.2-.3.7-.6 1.2-1.1 1.7-.5.5-1.1.8-1.9 1.1-.7.3-1.6.4-2.6.4h-4.8zM1446.8 465.2h.5c.5 0 1-.1 1.3-.2.4-.1.7-.3 1-.5.3-.2.5-.5.6-.7.1-.3.2-.6.2-.9 0-.3-.1-.6-.2-.9-.1-.3-.3-.5-.5-.7-.2-.2-.4-.4-.7-.5-.3-.1-.6-.2-.9-.2-.3 0-.7.1-1.2.2v4.4zm7.5 5.4h-2.8l-3.6-5H1446.8v3.1c0 .4 0 .7.1.9.1.2.1.4.2.5.1.1.2.2.4.2h.9v.3h-4.6v-.3h.4c.4 0 .8-.1 1-.4.1-.2.2-.6.2-1.2v-6.9c0-.7-.1-1.1-.2-1.2-.2-.2-.5-.4-.9-.4h-.4v-.2h3.9c.6 0 1.1 0 1.5.1.4 0 .8.1 1 .2.3.1.5.2.7.4.2.2.4.3.6.5.2.2.3.5.4.7.1.3.2.6.2.9 0 .7-.2 1.2-.6 1.7-.4.5-1.1.8-2 1l2.2 3c.3.4.5.6.7.9.2.2.4.4.6.5l.6.3c.2.1.5.1.8.1v.3zM1455 462c.3-.7.7-1.3 1.1-1.7.5-.4 1-.6 1.7-.6.4 0 .7.1 1 .2s.6.3.8.5c.2.2.4.4.5.7.1.3.2.5.2.8 0 .8-.5 1.6-1.5 2.4.7.3 1.2.6 1.5 1.1.3.5.5 1 .5 1.7 0 .5-.1 1-.3 1.5-.2.5-.5.8-.8 1.2-.4.3-.8.6-1.3.8-.5.2-1.1.3-1.7.3-.4 0-.7 0-.9-.1-.2-.1-.4-.1-.6-.2l-.3-.3c-.1-.1-.1-.2-.1-.3 0-.2.1-.3.2-.4.1-.1.3-.1.5-.1h.2c.1 0 .1.1.2.1s.2.1.4.2.3.2.5.2c.1 0 .2.1.3.1h.5c.3 0 .5-.1.8-.2.2-.1.4-.3.6-.5.2-.2.3-.4.4-.7.1-.3.2-.5.2-.8 0-.2 0-.3-.1-.5 0-.2-.1-.4-.2-.5-.1-.2-.1-.3-.2-.5-.1-.1-.2-.3-.3-.3-.1-.1-.2-.2-.4-.3-.2-.1-.3-.2-.5-.3-.2-.1-.4-.1-.6-.2-.2 0-.4-.1-.6-.1h-.3v-.2c.4-.1.7-.2 1.1-.3.3-.2.6-.4.8-.6.2-.2.4-.5.5-.7.1-.3.2-.5.2-.8 0-.3 0-.5-.1-.7-.1-.2-.2-.4-.4-.6-.2-.2-.3-.3-.6-.4-.2-.1-.4-.1-.7-.1-.8 0-1.5.4-2 1.3l-.2-.1zM1462.8 467.6h4.1v-1.2h-4.1zM1469.4 461l2.6-1.3h.3v9.7c0 .2 0 .3.1.4 0 .1.1.2.1.2s.1.1.2.1c.2.1.5.1 1 .1v.3h-4v-.3h.6c.2 0 .3-.1.4-.1.1 0 .2-.1.2-.1 0-.1.1-.1.1-.2.1-.1.1-.5.1-1.1V463v-1.1c0-.3-.1-.5-.1-.6 0-.1-.1-.2-.2-.2s-.2-.1-.3-.1c-.2 0-.5.1-.8.2l-.3-.2zM1479.8 464.4c.3-.3.6-.5.8-.8.2-.2.3-.4.4-.6.1-.2.2-.4.2-.5v-.6c0-.6-.2-1-.5-1.3-.3-.3-.7-.5-1.3-.5-.3 0-.5 0-.7.1l-.6.3c-.2.1-.3.3-.4.5-.1.2-.1.4-.1.6 0 .3.1.5.2.8.1.3.3.5.6.8l1.4 1.2zm-.8 1.2c-.4.4-.8.8-1 1.2-.2.4-.3.9-.3 1.4 0 .3 0 .6.1.9.1.3.2.5.4.7.2.2.4.3.6.5.2.1.5.2.8.2.3 0 .5 0 .8-.1l.6-.3c.2-.1.3-.3.4-.5.1-.2.1-.4.1-.6 0-.2 0-.5-.1-.7-.1-.2-.2-.5-.4-.7l-.8-.8c-.4-.5-.8-.9-1.2-1.2zm-.4-.3c-.4-.4-.8-.7-1-.9-.3-.3-.5-.5-.6-.7l-.3-.6c0-.2-.1-.4-.1-.7 0-.3.1-.7.2-1 .1-.3.3-.6.6-.8l.9-.6c.4-.1.8-.2 1.2-.2.4 0 .8.1 1.2.2.4.1.7.3.9.5.3.2.4.5.6.7.1.3.2.6.2.8 0 .2 0 .4-.1.6l-.3.6-.7.7c-.3.2-.6.5-1.1.8.5.4.8.7 1.1 1l.7.7c.4.5.6 1.1.6 1.7 0 .4-.1.7-.2 1-.1.3-.4.6-.6.9-.3.2-.6.4-1 .6-.4.1-.8.2-1.3.2-.4 0-.9-.1-1.2-.2-.4-.1-.7-.3-1-.6-.3-.2-.5-.5-.6-.8-.1-.3-.2-.6-.2-1 0-.5.2-.9.5-1.4.3-.5.9-1 1.6-1.5zM1485.7 465.6c0 .6 0 1.3.1 1.8.1.6.2 1.1.3 1.5.2.4.3.8.6 1 .2.2.5.4.8.4.3 0 .6-.1.8-.3.2-.2.4-.5.6-1 .2-.4.3-1 .4-1.7.1-.7.1-1.5.1-2.5 0-.7 0-1.3-.1-1.9s-.2-1-.4-1.4c-.2-.4-.4-.7-.6-.9-.2-.2-.5-.3-.8-.3-.4 0-.6.1-.9.4-.2.3-.4.7-.6 1.1-.2.5-.3 1-.3 1.7v2.1m-1.6-.2c0-1.2.2-2.3.5-3.1.3-.8.8-1.4 1.3-1.8.5-.4 1.1-.7 1.7-.7.5 0 .9.1 1.3.4.4.3.8.7 1.1 1.1.3.5.6 1.1.7 1.7.2.7.3 1.4.3 2.2 0 1.2-.2 2.3-.5 3.1-.2.4-.4.8-.6 1.1-.2.3-.5.6-.7.8-.3.2-.5.3-.8.4-.3.1-.5.1-.8.1-.5 0-.9-.1-1.3-.4-.4-.3-.8-.7-1.1-1.1-.3-.5-.6-1.1-.7-1.7-.3-.6-.4-1.4-.4-2.1M1493.7 465.6c0 .6 0 1.3.1 1.8.1.6.2 1.1.3 1.5.2.4.3.8.6 1 .2.2.5.4.8.4.3 0 .6-.1.8-.3.2-.2.4-.5.6-1 .2-.4.3-1 .4-1.7.1-.7.1-1.5.1-2.5 0-.7 0-1.3-.1-1.9s-.2-1-.4-1.4c-.2-.4-.4-.7-.6-.9-.2-.2-.5-.3-.8-.3-.4 0-.6.1-.9.4-.2.3-.4.7-.6 1.1-.2.5-.3 1-.3 1.7v2.1m-1.5-.2c0-1.2.2-2.3.5-3.1.3-.8.8-1.4 1.3-1.8.5-.4 1.1-.7 1.7-.7.5 0 .9.1 1.3.4.4.3.8.7 1.1 1.1.3.5.6 1.1.7 1.7.2.7.3 1.4.3 2.2 0 1.2-.2 2.3-.5 3.1-.2.4-.4.8-.6 1.1-.2.3-.5.6-.7.8-.3.2-.5.3-.8.4-.3.1-.5.1-.8.1-.5 0-.9-.1-1.3-.4-.4-.3-.8-.7-1.1-1.1-.3-.5-.6-1.1-.7-1.7-.3-.6-.4-1.4-.4-2.1M1506.2 470.6l-4.1-8.9v7.1c0 .4 0 .7.1.9.1.2.1.4.2.5.1.1.2.2.4.2h.9v.3h-3.7v-.3h.9c.1 0 .3-.1.4-.2.1-.1.2-.3.2-.5s.1-.5.1-.8V462v-.7c0-.2-.1-.4-.2-.5-.1-.1-.2-.2-.4-.3-.2-.1-.5-.1-.8-.1v-.4h3l3.9 8.3 3.8-8.3h3v.3h-.9c-.1 0-.3.1-.4.2-.1.1-.2.3-.2.5s-.1.5-.1.8v6.9c0 .4 0 .7.1.9.1.2.1.4.2.5.1.1.2.2.4.2h.9v.3h-4.5v-.3h.9c.1 0 .3-.1.4-.2.1-.1.2-.3.2-.5s.1-.5.1-.8v-7.1l-4.1 8.9h-.7zM1517.2 464.9h4.9v-3-.6c0-.2 0-.3-.1-.4 0-.1-.1-.2-.1-.2l-.2-.2c-.2-.1-.5-.2-.7-.2h-.4v-.3h4.5v.3h-.7c-.1 0-.2.1-.3.1-.1 0-.2.1-.3.2-.1.1-.1.2-.2.2-.1.2-.1.5-.1 1v7.5c0 .2 0 .3.1.4 0 .1.1.2.1.2l.2.2c.2.1.5.2.7.2h.4v.3h-4.5v-.3h.9c.1 0 .3-.1.4-.2.1-.1.2-.3.2-.5.1-.2.1-.5.1-.9v-3.2h-4.9V469.3c0 .2 0 .3.1.4 0 .1.1.2.1.2l.2.2c.2.1.5.2.7.2h.4v.3h-4.6v-.3h.4c.4 0 .7-.1.9-.4.1-.2.2-.6.2-1.2v-6.9-.6c0-.2 0-.3-.1-.4 0-.1-.1-.2-.1-.2l-.2-.2c-.2-.1-.5-.2-.7-.2h-.4v-.2h4.6v.3h-.7c-.1 0-.2.1-.3.1-.1 0-.2.1-.3.2-.1.1-.1.2-.2.2-.1.2-.1.5-.1 1v3.1zM1532.2 468.4v2.2h-6.4v-.3l4.8-6.3h-2.9c-.2 0-.3 0-.4.1-.1 0-.2.1-.2.1l-.2.2c-.1.3-.2.6-.2 1h-.3v-2h6.1v.3l-4.8 6.4h3.3c.2 0 .3-.1.4-.1.1-.1.2-.1.3-.2s.1-.2.2-.3c0-.1.1-.2.1-.4s.1-.4.1-.7h.1z" fill="#5D5D5D"/>
<path d="M718.3 485.1H859v-19.4H718.3z" fill="#F2F1EF"/>
<path d="m851.6 475.4h-17.6m0.1 1.5h17.5v-3h-17.5zm-8.2-1.5h-99.7m-0.1 1.5h99.8v-3h-99.8z" fill="#757D75"/>
<path d="M720.5 467.9h136.3M720.5 468.2h136.4v-.7H720.5z" fill="#BDC3C7"/>
<path d="m720.5 482.8h136.3" fill="#F2F1EF"/>
<path d="M720.5 483.2h136.4v-.8H720.5z" fill="#BDC3C7"/>
<path d="M718.3 519.1H859v-19.4H718.3z" fill="#F2F1EF"/>
<path d="m851.6 509.4h-17.6m0.1 1.5h17.5v-3h-17.5zm-8.2-1.5h-99.7m-0.1 1.5h99.8v-3h-99.8z" fill="#757D75"/>
<path d="M720.5 501.8h136.3M720.5 502.2h136.4v-.7H720.5z" fill="#BDC3C7"/>
<path d="m720.5 516.8h136.3" fill="#F2F1EF"/>
<path d="M720.5 517.2h136.4v-.8H720.5z" fill="#BDC3C7"/>
<path d="M718.3 449.4H859V430H718.3z" fill="#F2F1EF"/>
<path d="m851.6 439.7h-17.6m0.1 1.5h17.5v-3h-17.5zm-8.2-1.5h-99.7m-0.1 1.5h99.8v-3h-99.8z" fill="#757D75"/>
<path d="M720.5 432.1h136.3M720.5 432.5h136.4v-.8H720.5z" fill="#BDC3C7"/>
<path d="m720.5 447h136.3" fill="#F2F1EF"/>
<path d="M720.5 447.4h136.4v-.7H720.5z" fill="#BDC3C7"/>
<path d="M654.1 524.7c4 0 7.2 3.2 7.2 7.2s-3.2 7.2-7.2 7.2-7.2-3.2-7.2-7.2c-.1-4 3.2-7.2 7.2-7.2" fill="#F2F1EF"/>
<path d="M654.1 526.9c2.8 0 5 2.3 5 5 0 2.8-2.3 5-5 5-2.8 0-5-2.3-5-5-.1-2.8 2.2-5 5-5" fill="#757D75"/>
<path d="m734.8 403.5h41.3v-13.2h-41.3z" fill="#F6D76E"/>
<path d="m761.6 396.9h-22.7m0 1.5h22.7v-3h-22.7zm32.8-1.5h-5.2m-0.1 1.5h5.3v-3h-5.3z" fill="#757D75"/>
<path d="m734.8 378.1h41.3v-13.2h-41.3z" fill="#F6D76E"/>
<path d="m761.6 371.5h-22.7m0 1.5h22.7v-3h-22.7zm32.8-1.5h-5.2m-0.1 1.5h5.3v-3h-5.3z" fill="#757D75"/>
<path d="m884.1 458h44.3v-3.8h7.4v3.8h44.3v-18h-96z" fill="#F2F1EF"/>
<path d="M979.7 457.6v-17.2h-95.2v17.2H928v-3.7h8.2v3.7h43.5zm.8-17.9v18.7h-45v-3.7h-6.7v3.7h-45v-18.7h96.7z" fill="#19B5FE"/>
<path d="m928 452.2h3.1v-3.2h-3.1zm0-5.8h3.1v-3.2h-3.1zm5.1 5.8h3.1v-3.2h-3.1zm0-5.8h3.1v-3.2h-3.1zm4.9 5.8h3.2v-3.2h-3.2zm0-5.8h3.2v-3.2h-3.2zm5.1 5.8h3.2v-3.2h-3.2zm0-5.8h3.2v-3.2h-3.2zm5.4 5.8h3.1v-3.2h-3.1zm0-5.8h3.1v-3.2h-3.1zm5.1 5.8h3.2v-3.2h-3.2zm0-5.8h3.2v-3.2h-3.2zm5 5.8h3.1v-3.2h-3.1zm0-5.8h3.1v-3.2h-3.1zm5.1 5.8h3.1v-3.2h-3.1zm0-5.8h3.1v-3.2h-3.1zm-55.9 5.8h3.1v-3.2h-3.1zm0-5.8h3.1v-3.2h-3.1zm5.1 5.8h3.2v-3.2h-3.2zm0-5.8h3.2v-3.2h-3.2zm5 5.8h3.1v-3.2h-3.1zm0-5.8h3.1v-3.2h-3.1zm5.1 5.8h3.1v-3.2h-3.1zm0-5.8h3.1v-3.2h-3.1zm-35.9 5.8h3.2v-3.2h-3.2zm0-5.8h3.2v-3.2h-3.2zm5.1 5.8h3.2v-3.2h-3.2zm0-5.8h3.2v-3.2h-3.2zm5 5.8h3.2v-3.2h-3.2zm0-5.8h3.2v-3.2h-3.2zm5.1 5.8h3.2v-3.2h-3.2zm0-5.8h3.2v-3.2h-3.2zm66.6 5.8h3.2v-3.2h-3.2zm0-5.8h3.2v-3.2h-3.2zm5.1 5.8h3.2v-3.2h-3.2zm0-5.8h3.2v-3.2h-3.2z" fill="#6C7A89"/>
<path d="M988.9 399.2h25.9V392h-25.9z" fill="#F47983"/>
<path d="m991.6 393.8v3.7h1.5v-2.9h19.8v-1.5h-21.3z" fill="#264348"/>
<path d="m988.9 385.4h25.9v-7.2h-25.9z" fill="#F47983"/>
<path d="m991.6 380v3.6h1.5v-2.9h19.8v-1.5h-21.3z" fill="#264348"/>
<path d="m988.9 413h25.9v-7.2h-25.9z" fill="#F47983"/>
<path d="m991.6 407.6v3.6h1.5v-2.9h19.8v-1.5h-21.3z" fill="#264348"/>
<path d="m988.9 426.8h25.9v-7.2h-25.9z" fill="#F47983"/>
<path d="m991.6 421.4v3.6h1.5v-2.9h19.8v-1.5h-21.3z" fill="#264348"/>
<path d="m1020.3 431.7h7.2v-25.9h-7.2z" fill="#F47983"/>
<path d="m1021.8 429h3.6v-1.5h-2.8v-19.8h-1.5v21.3z" fill="#264348"/>
<path d="m1020.3 399.2h7.2v-25.9h-7.2z" fill="#F47983"/>
<path d="M1021.7 396.5h3.7V395h-2.9v-19.8h-1.5v21.3z" fill="#264348"/>
<path d="M981.5 493.4v29.1c0 .7-.6 1.3-1.3 1.3h-57.1c-.7 0-1.3-.6-1.3-1.3v-29.1c0-.7.6-1.3 1.3-1.3h57.1c.7-.1 1.3.5 1.3 1.3" fill="#757D75"/>
<path d="M976.5 496.3v23.1c0 .9-.7 1.6-1.6 1.6h-46.4c-.9 0-1.6-.7-1.6-1.6v-23.1c0-.9.7-1.6 1.6-1.6h46.4c.9 0 1.6.7 1.6 1.6" fill="#264348"/>
<path d="m999.2 541.5h2.7v-3.2h-2.7zm5 0h2.7v-3.2h-2.7zm4.7 0h2.7v-3.2h-2.7zm-14.8 0h2.7v-3.2h-2.7zm0-5.2h2.7v-3.2h-2.7zm5.1 0h2.7v-3.2h-2.7zm5 0h2.7v-3.2h-2.7zm4.7 0h2.7v-3.2h-2.7zm16.5-29.5h3.2v-2.8h-3.2zm0 4.9h3.2v-2.7h-3.2zm0 4.7h3.2v-2.7h-3.2zm0-14.7h3.2v-2.8h-3.2zm5.2 0h3.2v-2.8h-3.2zm0 5.1h3.2v-2.8h-3.2zm0 4.9h3.2v-2.7h-3.2zm0 4.7h3.2v-2.7h-3.2z" fill="#19B5FE"/>
<path d="m1030.6 527.5c4 0 7.2 3.2 7.2 7.2s-3.2 7.2-7.2 7.2-7.2-3.2-7.2-7.2 3.2-7.2 7.2-7.2" fill="#F2F1EF"/>
<path d="m1030.6 529.6c2.8 0 5 2.3 5 5 0 2.8-2.3 5-5 5-2.8 0-5-2.3-5-5s2.2-5 5-5" fill="#757D75"/>
<path d="m944.9 75.5h2.5v2.9h7.1v-2.9h2.6v-9.8h-12.2zm-19.6 0h2.6v2.9h7.1v-2.9h2.5v-9.8h-12.2zm-27.8 0h2.5v2.9h7.1v-2.9h2.6v-9.8h-12.2zm-19.6 0h2.6v2.9h7.1v-2.9h2.5v-9.8h-12.2zm-223.8-10.7c4 0 7.2 3.2 7.2 7.2s-3.2 7.2-7.2 7.2-7.2-3.2-7.2-7.2c-0.1-3.9 3.2-7.2 7.2-7.2" fill="#F2F1EF"/>
<path d="m654.1 67c2.8 0 5 2.3 5 5s-2.3 5-5 5c-2.8 0-5-2.3-5-5s2.2-5 5-5" fill="#757D75"/>
<path d="m1032.2 64.8c4 0 7.2 3.2 7.2 7.2s-3.2 7.2-7.2 7.2-7.2-3.2-7.2-7.2c0-3.9 3.2-7.2 7.2-7.2" fill="#F2F1EF"/>
<path d="m1032.2 67c2.8 0 5 2.3 5 5s-2.3 5-5 5c-2.8 0-5-2.3-5-5s2.2-5 5-5" fill="#757D75"/>
<path d="m719.6 66.9c2.9 0 5.2 2.3 5.2 5.2s-2.3 5.2-5.2 5.2-5.2-2.3-5.2-5.2c0.1-2.9 2.4-5.2 5.2-5.2m104.6 0c2.9 0 5.2 2.3 5.2 5.2s-2.3 5.2-5.2 5.2-5.2-2.3-5.2-5.2 2.3-5.2 5.2-5.2" fill="#F2F1EF"/>
<path d="m645.7 460.9h3.2v-2.7h-3.2zm0 5h3.2v-2.8h-3.2zm0 4.6h3.2v-2.7h-3.2zm0-14.7h3.2v-2.7h-3.2zm5.2 0h3.2v-2.7h-3.2zm0 5.1h3.2v-2.7h-3.2zm0 5h3.2v-2.8h-3.2zm0 4.6h3.2v-2.7h-3.2zm-5.2-41.4h3.2v-2.8h-3.2zm0 4.9h3.2v-2.7h-3.2zm0 4.7h3.2v-2.7h-3.2zm0-14.8h3.2v-2.7h-3.2zm5.2 0h3.2v-2.7h-3.2zm0 5.2h3.2v-2.8h-3.2zm0 4.9h3.2v-2.7h-3.2zm0 4.7h3.2v-2.7h-3.2z" fill="#19B5FE"/>
<path d="m663.2 510.9h14.7v-8.7h-14.7z" fill="#264348"/>
<path d="m663.7 510.3h13.6v-7.6h-13.6v7.6zm-1.1 1.2h15.8v-9.8h-15.8v9.8z" fill="#6C7A89"/>
<path d="m685.7 510.9h14.7v-8.7h-14.7z" fill="#264348"/>
<path d="m686.2 510.3h13.6v-7.6h-13.6v7.6zm-1.1 1.2h15.8v-9.8h-15.8v9.8z" fill="#6C7A89"/>
<path d="M928 486.5h8.2V482H928z" fill="#264348"/>
<path d="M928.2 486.2h7.7v-3.9h-7.7v3.9zm-.5.6h8.8v-5h-8.8v5z" fill="#6C7A89"/>
<path d="M939.6 486.5h8.3V482h-8.3z" fill="#264348"/>
<path d="M939.9 486.2h7.7v-3.9h-7.7v3.9zm-.6.6h8.8v-5h-8.8v5z" fill="#6C7A89"/>
<path d="M951 486.5h8.3V482H951z" fill="#264348"/>
<path d="M951.3 486.2h7.7v-3.9h-7.7v3.9zm-.5.6h8.8v-5h-8.8v5z" fill="#6C7A89"/>
<path d="M962.7 486.5h8.3V482h-8.3z" fill="#264348"/>
<path d="M963 486.2h7.7v-3.9H963v3.9zm-.6.6h8.8v-5h-8.8v5z" fill="#6C7A89"/>
<path d="M704.6 425.4h-23.1c-.9 0-1.6-.7-1.6-1.6v-40.5c0-.9.7-1.6 1.6-1.6h23.1c.9 0 1.6.7 1.6 1.6v40.5c0 .8-.7 1.6-1.6 1.6" fill="#264348"/>
<path d="M681.2 423.7c0 .1.1.2.2.2h23.1c.1 0 .2-.1.2-.2v-40.5c0-.1-.1-.2-.2-.2h-23.1c-.1 0-.2.1-.2.2v40.5zm26.4-40.5v40.5c0 1.7-1.4 3-3 3h-23.1c-1.7 0-3-1.4-3-3v-40.5c0-1.7 1.4-3 3-3h23.1c1.7 0 3 1.3 3 3z" fill="#6C7A89"/>
<path d="m989.5 506.4h14.7v-8.7h-14.7z" fill="#264348"/>
<path d="M990 505.8h13.6v-7.6H990v7.6zm-1.1 1.1h15.8v-9.8h-15.8v9.8z" fill="#6C7A89"/>
<path d="m1002.8 477.3h8.7v-14.7h-8.7z" fill="#264348"/>
<path d="m1003.4 476.8h7.6v-13.6h-7.6v13.6zm-1.2 1.1h9.8v-15.8h-9.8v15.8z" fill="#6C7A89"/>
<path d="M1043.3 54.7v493c0 1.9-1.6 3.5-3.5 3.5H644.3c-1.9 0-3.5-1.6-3.5-3.5v-493c0-1.9 1.6-3.5 3.5-3.5h395.4c2 0 3.6 1.6 3.6 3.5z" fill="#26A65B"/>
<path d="M734.8 351.2h41.3V338h-41.3z" fill="#F6D76E"/>
<path d="m761.6 344.6h-22.7m0 1.5h22.7v-3h-22.7zm32.8-1.5h-5.2m-0.1 1.5h5.3v-3h-5.3z" fill="#757D75"/>
<path d="M715.5 321.8h171.2v-17.4H715.5z" fill="#F6D76E"/>
<path d="m724.5 313.1h21.4m-21.4 1.3h21.3v-2.6h-21.3zm31.3-1.3h121.3m-121.3 1.3h121.3v-2.6h-121.3z" fill="#757D75"/>
<path d="m883.9 319.9h-165.8m0 0.3h165.8v-0.6h-165.8z" fill="#BDC3C7"/>
<path d="M883.9 306.5H718.1" fill="#F2F1EF"/>
<path d="M718.1 306.8h165.8v-.7H718.1z" fill="#BDC3C7"/>
<path d="M654.1 330.8c4 0 7.2 3.2 7.2 7.2s-3.2 7.2-7.2 7.2-7.2-3.2-7.2-7.2c-.1-4 3.2-7.2 7.2-7.2" fill="#F2F1EF"/>
<path d="M654.1 332.9c2.8 0 5 2.3 5 5 0 2.8-2.3 5-5 5-2.8 0-5-2.3-5-5-.1-2.7 2.2-5 5-5" fill="#757D75"/>
<path d="m979.9 325.5v56.8c0 1.8-1.5 3.3-3.3 3.3h-53.1c-1.8 0-3.3-1.5-3.3-3.3v-56.8c0-1.8 1.5-3.3 3.3-3.3h53.1c1.9 0 3.3 1.5 3.3 3.3" fill="#264348"/>
<path d="M974.9 330.9V377c0 1.8-1.5 3.3-3.3 3.3h-43c-1.8 0-3.3-1.5-3.3-3.3v-46.1c0-1.8 1.5-3.3 3.3-3.3h43c1.8-.1 3.3 1.4 3.3 3.3" fill="#757D75"/>
<path d="m997.8 283.5v-44.2h-3.7v-7.5h3.7v-44.2h-17.9v95.9z" fill="#F2F1EF"/>
<path d="M997.5 187.9h-17.2v95.2h17.2v-43.5h-3.7v-8.2h3.7v-43.5zm-18-.7h18.7v45h-3.7v6.7h3.7v45h-18.7v-96.7z" fill="#19B5FE"/>
<path d="m988.9 239.7h3.1v-3.2h-3.1zm-5.8 0h3.1v-3.2h-3.1zm5.8-5.1h3.1v-3.2h-3.1zm-5.8 0h3.1v-3.2h-3.1zm5.8-5h3.1v-3.2h-3.1zm-5.8 0h3.1v-3.2h-3.1zm5.8-5.1h3.1v-3.2h-3.1zm-5.8 0h3.1v-3.2h-3.1zm5.8-5.4h3.1v-3.1h-3.1zm-5.8 0h3.1v-3.1h-3.1zm5.8-5.1h3.1v-3.1h-3.1zm-5.8 0h3.1v-3.1h-3.1zm5.8-4.9h3.1v-3.2h-3.1zm-5.8 0h3.1v-3.2h-3.1zm5.8-5.1h3.1v-3.2h-3.1zm-5.8 0h3.1v-3.2h-3.1zm5.8 55.8h3.1v-3.1h-3.1zm-5.8 0h3.1v-3.1h-3.1zm5.8-5.1h3.1v-3.1h-3.1zm-5.8 0h3.1v-3.1h-3.1zm5.8-4.9h3.1v-3.2h-3.1zm-5.8 0h3.1v-3.2h-3.1zm5.8-5.1h3.1v-3.2h-3.1zm-5.8 0h3.1v-3.2h-3.1zm5.8 35.8h3.1v-3.1h-3.1zm-5.8 0h3.1v-3.1h-3.1zm5.8-5.1h3.1v-3.1h-3.1zm-5.8 0h3.1v-3.1h-3.1zm5.8-5h3.1v-3.1h-3.1zm-5.8 0h3.1v-3.1h-3.1zm5.8-5.1h3.1v-3.1h-3.1zm-5.8 0h3.1v-3.1h-3.1zm5.8-66.6h3.1v-3.1h-3.1zm-5.8 0h3.1v-3.1h-3.1zm5.8-5.1h3.1v-3.1h-3.1zm-5.8 0h3.1v-3.1h-3.1z" fill="#6C7A89"/>
<path d="M1022 266.9v-35.8h-3V225h3v-35.8h-14.5v77.7z" fill="#F2F1EF"/>
<path d="M1021.7 189.5h-13.9v77.1h13.9v-35.2h-3v-6.7h3v-35.2zm-14.5-.6h15.1v36.5h-3v5.4h3v36.5h-15.1v-78.4z" fill="#19B5FE"/>
<path d="m1014.8 231.4h2.5v-2.5h-2.5zm-4.7 0h2.5v-2.5h-2.5zm4.7-4.1h2.5v-2.6h-2.5zm-4.7 0h2.5v-2.6h-2.5zm4.7-4.1h2.5v-2.5h-2.5zm-4.7 0h2.5v-2.5h-2.5zm4.7-4.1h2.5v-2.6h-2.5zm-4.7 0h2.5v-2.6h-2.5zm4.7-4.3h2.5v-2.6h-2.5zm-4.7 0h2.5v-2.6h-2.5zm4.7-4.2h2.5v-2.5h-2.5zm-4.7 0h2.5v-2.5h-2.5zm4.7-4h2.5v-2.6h-2.5zm-4.7 0h2.5v-2.6h-2.5zm4.7-4.1h2.5v-2.6h-2.5zm-4.7 0h2.5v-2.6h-2.5zm4.7 45.2h2.5v-2.5h-2.5zm-4.7 0h2.5v-2.5h-2.5zm4.7-4.1h2.5v-2.6h-2.5zm-4.7 0h2.5v-2.6h-2.5zm4.7-4h2.5v-2.6h-2.5zm-4.7 0h2.5v-2.6h-2.5zm4.7-4.2h2.5v-2.5h-2.5zm-4.7 0h2.5v-2.5h-2.5zm4.7 29.1h2.5v-2.6h-2.5zm-4.7 0h2.5v-2.6h-2.5zm4.7-4.2h2.5v-2.5h-2.5zm-4.7 0h2.5v-2.5h-2.5zm4.7-4h2.5v-2.5h-2.5zm-4.7 0h2.5v-2.5h-2.5zm4.7-4.1h2.5v-2.6h-2.5zm-4.7 0h2.5v-2.6h-2.5zm4.7-54h2.5v-2.5h-2.5zm-4.7 0h2.5v-2.5h-2.5zm4.7-4.1h2.5v-2.6h-2.5zm-4.7 0h2.5v-2.6h-2.5z" fill="#6C7A89"/>
<path d="m933.9 334.5v37.7h2.8v-21.5h-1.3v-16.2zm31.3 37.7h4.2v-37.7h-4.2z" fill="#95A5A6"/>
<path d="m909.4 312.3c4 0 7.2 3.2 7.2 7.2s-3.2 7.2-7.2 7.2-7.2-3.2-7.2-7.2c0-3.9 3.2-7.2 7.2-7.2" fill="#F2F1EF"/>
<path d="M909.4 314.5c2.8 0 5 2.3 5 5 0 2.8-2.3 5-5 5-2.8 0-5-2.3-5-5-.1-2.7 2.2-5 5-5" fill="#757D75"/>
<path d="M876.9 294.2h14.2V69.3h-14.2z" fill="#D9B611"/>
<path d="M896.5 294.2h14.2V69.3h-14.2z" fill="#59ABE3"/>
<path d="M924.3 294.2h14.2V69.3h-14.2z" fill="#D9B611"/>
<path d="M943.9 294.2h14.2V69.3h-14.2z" fill="#59ABE3"/>
<path d="m890.1 288.2h-2.6v-2.9h-7.1v2.9h-2.6v9.8h12.3zm19.6-0.3h-2.6v-3h-7.1v3h-2.5v9.7h12.2zm27.8 0.3h-2.5v-2.9h-7.1v2.9h-2.6v9.8h12.2zm19.6-0.3h-2.6v-3h-7.1v3h-2.5v9.7h12.2z" fill="#F2F1EF"/>
<path d="M883.9 280.5V171.4" fill="#264348"/>
<path d="M882.4 280.5h3V171.4h-3z" fill="#6C7A89"/>
<path d="M883.9 166.2V83.6" fill="#264348"/>
<path d="M882.4 166.2h3V83.6h-3z" fill="#6C7A89"/>
<path d="M903.6 280.2V171.1" fill="#264348"/>
<path d="M902.1 280.2h3V171.1h-3z" fill="#6C7A89"/>
<path d="M903.6 165.9V83.3" fill="#264348"/>
<path d="M902.1 165.9h3V83.3h-3z" fill="#6C7A89"/>
<path d="M931.4 280.2V171.1" fill="#264348"/>
<path d="M929.9 280.2h3V171.1h-3z" fill="#6C7A89"/>
<path d="M931.4 165.9V83.3" fill="#264348"/>
<path d="M929.9 165.9h3V83.3h-3z" fill="#6C7A89"/>
<path d="M950.1 280.2V171.1" fill="#264348"/>
<path d="M948.6 280.2h3V171.1h-3z" fill="#6C7A89"/>
<path d="M950.1 165.9V83.3" fill="#264348"/>
<path d="M948.6 165.9h3V83.3h-3z" fill="#6C7A89"/>
<path d="M809.6 87v71.4c0 2.2-1.8 4.1-4.1 4.1h-69.8c-2.2 0-4.1-1.8-4.1-4.1V87c0-2.2 1.8-4.1 4.1-4.1h69.8c2.3 0 4.1 1.8 4.1 4.1" fill="#264348"/>
<path d="M756.4 83.6V86h23.2v-2.4h24.6c2.6 0 4.7 2.1 4.7 4.7v8.8H807V144h1.8v13c0 2.6-2.1 4.7-4.7 4.7h-24.6v-1.5h-23.2v1.5H737c-2.6 0-4.7-2.1-4.7-4.7v-13h1.8V97.1h-1.8v-8.8c0-2.6 2.1-4.7 4.7-4.7h19.4zm54.5 60.4v15.5c0 2.6-2.1 4.7-4.7 4.7h-26.8v-1h24.8c3.4 0 6.2-2.8 6.2-6.2v-13h.5zm-80-55.6V157c0 3.4 2.8 6.2 6.2 6.2h19.3v1H743.6c-1.5 0-2.7 1.2-2.7 2.7 0 1.5 1.2 2.7 2.7 2.7h8.1v-1.5h-8.1c-.7 0-1.2-.5-1.2-1.2s.5-1.2 1.2-1.2H806.3c3.4 0 6.2-2.8 6.2-6.2V90.8v-.2H811v6.7h-.6v-8.9c0-3.4-2.8-6.2-6.2-6.2h-67c-3.5 0-6.3 2.7-6.3 6.2z" fill="#D2D7D3"/>
<path d="M879.2 309.6h-2.9v7h2.9v1H863v1.6h26V307h-9.8z" fill="#FFF"/>
<path d="M671.5 277.6v37.1c0 .7-.6 1.3-1.3 1.3H638c-.7 0-1.3-.6-1.3-1.3v-37.1c0-.7.6-1.3 1.3-1.3h32.2c.7 0 1.3.6 1.3 1.3" fill="#D2D7D3"/>
<path d="M636.9 314.7c0 .6.5 1.1 1.1 1.1h32.2c.6 0 1.1-.5 1.1-1.1v-37.1c0-.6-.5-1.1-1.1-1.1H638c-.6 0-1.1.5-1.1 1.1v37.1zm34.8-37.1v37.1c0 .9-.7 1.6-1.6 1.6H638c-.9 0-1.6-.7-1.6-1.6v-37.1c0-.9.7-1.6 1.6-1.6h32.2c.8 0 1.5.7 1.5 1.6z" fill="#6C7A89"/>
<path d="m630.5 309.4h6.1v-10.7h-6.1z" fill="#F3C13A"/>
<path d="M631 293.7h6.1v-10.6H631z" fill="#4B77BE"/>
<path d="m634.4 269.6h50.5v-31.7h-50.5z" fill="#D2D7D3"/>
<path d="m631.1 269.6h3.3v-31.7h-3.3z" fill="#95A5A6"/>
<path d="m634.4 231.6h43.9v-31.7h-43.9z" fill="#D2D7D3"/>
<path d="m631.1 231.6h3.3v-31.7h-3.3z" fill="#95A5A6"/>
<path d="M634.4 191.2H662V88.1h-27.6z" fill="#D2D7D3"/>
<path d="M631.1 100h-6.9v2.8h6.9v9.4h-6.9v54.9h6.9v8.9h-6.9v2.8h6.9v12.4h3.3V88.1h-3.3z" fill="#95A5A6"/>
<path d="M666.7 95.8v87.6c0 .7-.6 1.4-1.4 1.4h-34.2c-.7 0-1.4-.6-1.4-1.4V95.8c0-.7.6-1.4 1.4-1.4h34.2c.8.1 1.4.7 1.4 1.4" fill="#F08F90"/>
<path d="m638 179.6h28.7v-0.5h-28.7zm0-1.7h28.7v-0.6h-28.7zm0-2.1h28.7v-0.6h-28.7zm0-1.8h28.7v-0.5h-28.7zm0-2.1h28.7v-0.6h-28.7zm0-1.8h28.7v-0.5h-28.7zm0-2.1h28.7v-0.5h-28.7zm0-1.7h28.7v-0.6h-28.7zm0-2h28.7v-0.6h-28.7zm0-1.8h28.7v-0.5h-28.7zm0-2h28.7v-0.6h-28.7zm0-1.8h28.7v-0.6h-28.7zm0-2.1h28.7v-0.6h-28.7zm0-1.8h28.7v-0.5h-28.7zm0-2.1h28.7v-0.5h-28.7zm0-1.7h28.7v-0.6h-28.7zm0-2h28.7v-0.5h-28.7zm0-1.7h28.7v-0.6h-28.7zm0-2.1h28.7v-0.6h-28.7zm0-1.8h28.7v-0.5h-28.7zm0-2.1h28.7v-0.6h-28.7zm0-1.8h28.7v-0.5h-28.7zm0-2.1h28.7v-0.5h-28.7zm0-1.7h28.7v-0.6h-28.7zm0-1.8h28.7v-0.6h-28.7zm0-1.8h28.7v-0.5h-28.7zm0-2.1h28.7v-0.5h-28.7zm0-1.7h28.7v-0.6h-28.7zm0-2.1h28.7v-0.6h-28.7zm0-1.8h28.7v-0.6h-28.7zm0-2.1h28.7v-0.5h-28.7zm0-1.8h28.7v-0.5h-28.7zm0-1.6h28.7v-0.6h-28.7zm0-1.8h28.7v-0.5h-28.7zm0-2.1h28.7v-0.5h-28.7zm0-1.7h28.7v-0.6h-28.7zm0-2.1h28.7v-0.6h-28.7zm0-1.8h28.7v-0.6h-28.7zm0-2.1h28.7v-0.5h-28.7zm0-1.8h28.7v-0.5h-28.7zm0-1.8h28.7v-0.6h-28.7zm0-1.8h28.7v-0.5h-28.7z" fill="#6C7A89"/>
<path d="m674.3 226.5h4v-22.1h-4z" fill="#ABB7B7"/>
<path d="M636.8 288.3V304h1.1v-7.6h33.6v-.5h-33.6v-7.6z" fill="#6C7A89"/>
<path d="M856.5 209.1v77.2c0 1.2-.9 2.1-2.1 2.1h-83.9c-1.2 0-2.1-.9-2.1-2.1v-77.2c0-1.2.9-2.1 2.1-2.1h83.9c1.1 0 2.1 1 2.1 2.1" fill="#ABB7B7"/>
<path d="M855.1 209.1v77.2c0 .4-.3.7-.7.7h-3.3v-78.6h3.3c.4 0 .7.3.7.7zM836.9 287h6.1v-78.6h-6.1V287zm7.8 0h4.7v-78.6h-4.7V287zm-15.8 0h6.4v-78.6h-6.4V287zm-7.7 0h6v-78.6h-6V287zm-8.7 0h7.1v-78.6h-7.1V287zm-9.8 0h8.1v-78.6h-8.1V287zm-10.4 0h8.7v-78.6h-8.7V287zm-10.2 0h8.6v-78.6h-8.6V287zm-11.6 0c-.4 0-.7-.3-.7-.7v-77.2c0-.4.3-.7.7-.7h9.9V287h-9.9zm-3.5-77.9v77.2c0 1.9 1.6 3.5 3.5 3.5h83.9c1.9 0 3.5-1.6 3.5-3.5v-77.2c0-1.9-1.6-3.5-3.5-3.5h-83.9c-1.9 0-3.5 1.6-3.5 3.5z" fill="#264348"/>
<path d="M1014.7 313.1c9.5 0 17.3 7.7 17.3 17.3 0 9.5-7.7 17.3-17.3 17.3-9.5 0-17.3-7.7-17.3-17.3.1-9.6 7.8-17.3 17.3-17.3" fill="#ABB7B7"/>
<path d="M998 330.4c0 9.2 7.5 16.7 16.7 16.7s16.7-7.5 16.7-16.7-7.5-16.7-16.7-16.7-16.7 7.5-16.7 16.7m34.6 0c0 9.8-8 17.8-17.8 17.8s-17.8-8-17.8-17.8 8-17.8 17.8-17.8c9.8-.1 17.8 8 17.8 17.8" fill="#6C7A89"/>
<path d="m1000.4 330.4c0 7.9 6.4 14.4 14.4 14.4 7.9 0 14.4-6.4 14.4-14.4 0-7.9-6.4-14.4-14.4-14.4s-14.4 6.5-14.4 14.4m29.8 0c0 8.5-6.9 15.5-15.5 15.5-8.5 0-15.5-6.9-15.5-15.5 0-8.5 6.9-15.5 15.5-15.5s15.5 7 15.5 15.5" fill="#6C7A89"/>
<path d="m1010.9 337.6h1.1v-5.8h-1.1zm0-8.6h1.1v-5.8h-1.1zm3.3 5.3h1.1v-8.1h-1.1z" fill="#6C7A89"/>
<path d="M848.5 386.8h-23.1c-.9 0-1.6-.7-1.6-1.6v-40.5c0-.9.7-1.6 1.6-1.6h23.1c.9 0 1.6.7 1.6 1.6v40.5c0 .8-.7 1.6-1.6 1.6" fill="#264348"/>
<path d="M825.1 385.1c0 .1.1.2.2.2h23.1c.1 0 .2-.1.2-.2v-40.5c0-.1-.1-.2-.2-.2h-23.1c-.1 0-.2.1-.2.2v40.5zm26.4-40.5v40.5c0 1.7-1.4 3-3 3h-23.1c-1.7 0-3-1.4-3-3v-40.5c0-1.7 1.4-3 3-3h23.1c1.7 0 3 1.3 3 3z" fill="#6C7A89"/>
<path d="m719.6 174c2.9 0 5.2 2.3 5.2 5.2s-2.3 5.2-5.2 5.2-5.2-2.3-5.2-5.2c0.1-2.9 2.4-5.2 5.2-5.2m104.6 0c2.9 0 5.2 2.3 5.2 5.2s-2.3 5.2-5.2 5.2-5.2-2.3-5.2-5.2 2.3-5.2 5.2-5.2m213.2-82v79.1c0 0.8-0.6 1.4-1.4 1.4h-14.7c-0.8 0-1.4-0.6-1.4-1.4v-79.1c0-0.8 0.6-1.4 1.4-1.4h14.7c0.7 0 1.4 0.6 1.4 1.4" fill="#F2F1EF"/>
<path d="M1020.4 171.1c0 .5.4.8.8.8h14.7c.5 0 .8-.4.8-.8V92c0-.5-.4-.8-.8-.8h-14.7c-.5 0-.8.4-.8.8v79.1zm17.5-79.1v79.1c0 1.1-.9 2-2 2h-14.7c-1.1 0-2-.9-2-2V92c0-1.1.9-2 2-2h14.7c1.1 0 2 .9 2 2z" fill="#6C7A89"/>
<path d="m1028.1 90.6v7h-8.2v1.1h8.2v6h-8.2v1.1h8.2v5.7h-8.2v1.1h8.2v5.5h-8.2v1.2h8.2v5.6h-8.2v1.2h8.2v5.7h-8.2v1.1h8.2v5.4h-8.2v1.1h8.2v5.7h-8.2v1.1h8.2v5.6h-8.2v1.1h8.2v5.7h-8.2v1.1h8.2v5.7h-8.2v1.1h8.2v6h1.1v-6h8.1v-1.1h-8.1v-5.7h8.1v-1.1h-8.1v-5.7h8.1v-1.1h-8.1v-5.6h8.1v-1.1h-8.1v-5.7h8.1v-1.1h-8.1v-5.4h8.1v-1.1h-8.1v-5.7h8.1v-1.2h-8.1v-5.6h8.1v-1.2h-8.1v-5.5h8.1v-1.1h-8.1v-5.7h8.1v-1.1h-8.1v-6h8.1v-1.1h-8.1v-7z" fill="#6C7A89"/>
<path d="M973 83.6h19V72.1h-19z" fill="#264348"/>
<path d="M973.5 83.1h17.9V72.6h-17.9v10.5zm-1.1 1.1h20.1V71.5h-20.1v12.7z" fill="#6C7A89"/>
<path d="M883.9 344.1c.5 0 .8.4.8.8V349.8h-7.6V344h6.8zm-6.8 12.4h7.6V351h-7.6v5.5zm0 6.9h7.6v-5.7h-7.6v5.7zm0 6.8h7.6v-5.7h-7.6v5.7zm6.8 6.6h-6.8v-5.5h7.6v4.7c0 .4-.3.8-.8.8zm-14.7 0c-.5 0-.8-.4-.8-.8v-4.7h7.6v5.5h-6.8zm-.8-6.6h7.6v-5.7h-7.6v5.7zm0-6.8h7.6v-5.7h-7.6v5.7zm0-6.9h7.6V351h-7.6v5.5zm0-11.4v-.1c0-.5.4-.8.8-.8h6.8v5.8h-7.6v-4.9zm-1.2-.2v30.9c0 1.1.9 2 2 2h14.7c1.1 0 2-.9 2-2v-30.9c0-1.1-.9-2-2-2h-14.7c-1.1.1-2 1-2 2zM742.5 246.4c.5 0 .8.4.8.8V252.1h-7.6V246.4h6.8zm-6.8 12.4h7.6v-5.6h-7.6v5.6zm0 6.9h7.6V260h-7.6v5.7zm0 6.8h7.6v-5.7h-7.6v5.7zm6.8 6.6h-6.8v-5.5h7.6v4.7c0 .4-.3.8-.8.8zm-14.7 0c-.5 0-.8-.4-.8-.8v-4.7h7.6v5.5h-6.8zm-.8-6.6h7.6v-5.7H727v5.7zm0-6.8h7.6V260H727v5.7zm0-6.9h7.6v-5.6H727v5.6zm0-11.4v-.1c0-.5.4-.8.8-.8h6.8v5.8H727V247.4zm-1.2-.2v30.9c0 1.1.9 2 2 2h14.7c1.1 0 2-.9 2-2V247.3c0-1.1-.9-2-2-2h-14.7c-1.1 0-2 .9-2 1.9z" fill="#757D75"/>
<path d="M678.4 103.7h18.1V79.3h-18.1z" fill="#264348"/>
<path d="M679 103.1h16.9V79.8H679v23.3zm-1.1 1.1h19.2V78.7h-19.2v25.5z" fill="#6C7A89"/>
<path d="m461.6 536.6v-95.5h-62.5v95.5zm83.3 0v-108.1h-75.4v108.1z" fill="#BDC3C7"/>
<path d="M501.7 449.9c0 6.9-5.6 12.5-12.5 12.5s-12.5-5.6-12.5-12.5 5.6-12.5 12.5-12.5c6.9-.1 12.5 5.5 12.5 12.5" fill="#F4D03F"/>
<path d="M501.7 486.4c0 6.9-5.6 12.5-12.5 12.5s-12.5-5.6-12.5-12.5 5.6-12.5 12.5-12.5c6.9-.1 12.5 5.6 12.5 12.5" fill="#6C7A89"/>
<path d="m501.7 521c0 6.9-5.6 12.5-12.5 12.5s-12.5-5.6-12.5-12.5 5.6-12.5 12.5-12.5 12.5 5.6 12.5 12.5" fill="#F2F1EF"/>
<path d="M537.3 449.9c0 6.9-5.6 12.5-12.5 12.5s-12.5-5.6-12.5-12.5 5.6-12.5 12.5-12.5c6.9-.1 12.5 5.5 12.5 12.5" fill="#89C4F4"/>
<path d="M537.3 486.4c0 6.9-5.6 12.5-12.5 12.5s-12.5-5.6-12.5-12.5 5.6-12.5 12.5-12.5c6.9-.1 12.5 5.6 12.5 12.5" fill="#87D37C"/>
<path d="m537.3 522c0 6.9-5.6 12.5-12.5 12.5s-12.5-5.6-12.5-12.5 5.6-12.5 12.5-12.5 12.5 5.6 12.5 12.5" fill="#F08F90"/>
<path d="m495.4 449.9c0 3.5-2.8 6.3-6.3 6.3s-6.3-2.8-6.3-6.3 2.8-6.3 6.3-6.3 6.3 2.8 6.3 6.3m35.6 0c0 3.5-2.8 6.3-6.3 6.3s-6.3-2.8-6.3-6.3 2.8-6.3 6.3-6.3 6.3 2.8 6.3 6.3m-35.6 36.5c0 3.5-2.8 6.3-6.3 6.3s-6.3-2.8-6.3-6.3 2.8-6.3 6.3-6.3 6.3 2.8 6.3 6.3m35.6 0c0 3.5-2.8 6.3-6.3 6.3s-6.3-2.8-6.3-6.3 2.8-6.3 6.3-6.3 6.3 2.8 6.3 6.3m-35.6 34.6c0 3.5-2.8 6.3-6.3 6.3s-6.3-2.8-6.3-6.3 2.8-6.3 6.3-6.3 6.3 2.9 6.3 6.3m35.6 1c0 3.5-2.8 6.3-6.3 6.3s-6.3-2.8-6.3-6.3 2.8-6.3 6.3-6.3c3.5 0.1 6.3 2.9 6.3 6.3" fill="#5D5D5D"/>
<path d="m378.4 518.6h-37.6c-0.9 0-1.6 0.7-1.6 1.6s0.7 1.6 1.6 1.6h37.6c0.9 0 1.6-0.7 1.6-1.6s-0.7-1.6-1.6-1.6" fill="#A17917"/>
<path d="m378.4 487.9h-37.6c-0.9 0-1.6 0.7-1.6 1.6s0.7 1.6 1.6 1.6h37.6c0.9 0 1.6-0.7 1.6-1.6s-0.7-1.6-1.6-1.6" fill="#4B77BE"/>
<path d="m352.9 495.2v-1.7h-3.7v1.7zm5.8 0v-1.7h-3.7v1.7zm6.1 0v-1.7h-3.7v1.7zm5.8 0v-1.7h-3.7v1.7z" fill="#A17917"/>
<path d="M445.7 455.5V448h-5v-3.5h-21.4v3.5h-4.9v7.5h-10.6v31.8h52.4v-31.8z" fill="#5D5D5D"/>
<path d="m421.5 482.7v-16.2h-0.9v16.2zm1.6 0v-16.2h-0.9v16.2zm1.6 0v-16.2h-0.9v16.2zm1.5 0v-16.2h-0.8v16.2zm1.6 0v-16.2h-0.8v16.2zm1.6 0v-16.2h-0.8v16.2zm1.8 0v-16.2h-0.9v16.2zm1.6 0v-16.2h-0.9v16.2zm1.5 0v-16.2h-0.8v16.2zm1.6 0v-16.2h-0.8v16.2zm1.6 0v-16.2h-0.8v16.2zm1.6 0v-16.2h-0.8v16.2zm1.8 0v-16.2h-0.9v16.2zm1.5 0v-16.2h-0.8v16.2zm1.6 0v-16.2h-0.8v16.2zm1.6 0v-16.2h-0.8v16.2zm1.6 0v-16.2h-0.8v16.2zm1.6 0v-16.2h-0.9v16.2zm-36.7 0v-16.2h-0.8v16.2zm1.6 0v-16.2h-0.8v16.2zm1.6 0v-16.2h-0.8v16.2zm1.6 0v-16.2h-0.9v16.2zm1.6 0v-16.2h-0.9v16.2zm1.6 0v-16.2h-0.9v16.2z" fill="#A17917"/>
<path d="m456.2 530.9v-19.8h-52.4v19.8z" fill="#5D5D5D"/>
<path d="M448.8 517h-37.6c-.9 0-1.6.7-1.6 1.6 0 .9.7 1.6 1.6 1.6h37.6c.9 0 1.6-.7 1.6-1.6 0-.8-.7-1.6-1.6-1.6" fill="#264348"/>
<path d="m423.3 524.4v-1.8h-3.7v1.8zm5.9 0v-1.8h-3.7v1.8zm6 0v-1.8h-3.7v1.8zm5.9 0v-1.8h-3.7v1.8z" fill="#A17917"/>
<path d="M456.2 508.8V489h-52.4v19.8z" fill="#5D5D5D"/>
<path d="M448.8 494.9h-37.6c-.9 0-1.6.7-1.6 1.6 0 .9.7 1.6 1.6 1.6h37.6c.9 0 1.6-.7 1.6-1.6 0-.8-.7-1.6-1.6-1.6" fill="#264348"/>
<path d="m423.3 502.3v-1.8h-3.7v1.8zm5.9 0v-1.8h-3.7v1.8zm6 0v-1.8h-3.7v1.8zm5.9 0v-1.8h-3.7v1.8z" fill="#A17917"/>
<path d="m3.3 538.3h542.4" fill="#5D5D5D"/>
<path d="M545.8 540H3.3c-1 0-1.7-.8-1.7-1.7 0-1 .8-1.7 1.7-1.7h542.4c1 0 1.7.8 1.7 1.7.1.9-.7 1.7-1.6 1.7" fill="#1D1D1B"/>
<path d="M66 536.5V435H10.4v101.5z" fill="#BDC3C7"/>
<path d="m53.7 460.3c0 8.6-7 15.6-15.6 15.6s-15.6-7-15.6-15.6 7-15.6 15.6-15.6 15.6 7 15.6 15.6" fill="#36D7B7"/>
<path d="m38 445.1c-8.4 0-15.2 6.8-15.2 15.2s6.8 15.2 15.2 15.2 15.2-6.8 15.2-15.2-6.8-15.2-15.2-15.2m0 31.3c-8.9 0-16.1-7.2-16.1-16.1s7.2-16.1 16.1-16.1 16.1 7.2 16.1 16.1-7.2 16.1-16.1 16.1" fill="#5D5D5D"/>
<path d="m38 474.6c-7.9 0-14.3-6.4-14.3-14.3s6.4-14.3 14.3-14.3 14.3 6.4 14.3 14.3c0.1 7.9-6.4 14.3-14.3 14.3m0-31.2c-9.3 0-16.9 7.6-16.9 16.9s7.6 16.9 16.9 16.9 16.9-7.6 16.9-16.9c0.1-9.3-7.5-16.9-16.9-16.9" fill="#5D5D5D"/>
<path d="m35.8 472.2v-4.1h-1.8v4.1zm5.8 0v-4.1h-1.8v4.1zm-10.9-8.1c0 0.9-0.8 1.7-1.7 1.7s-1.7-0.8-1.7-1.7 0.8-1.7 1.7-1.7c1 0 1.7 0.8 1.7 1.7m17.6 0c0 0.9-0.8 1.7-1.7 1.7s-1.7-0.8-1.7-1.7 0.8-1.7 1.7-1.7 1.7 0.8 1.7 1.7m-15.9-8.5c0 0.9-0.8 1.7-1.7 1.7s-1.7-0.8-1.7-1.7 0.8-1.7 1.7-1.7c1 0 1.7 0.8 1.7 1.7m14.2 0c0 0.9-0.8 1.7-1.7 1.7s-1.7-0.8-1.7-1.7 0.8-1.7 1.7-1.7 1.7 0.8 1.7 1.7m-6.5-5v-1.7h-4.1v1.7zm-0.6 10.2v-5.9h-2.9v5.9z" fill="#5D5D5D"/>
<path d="m53.7 505.7c0 8.6-7 15.6-15.6 15.6s-15.6-7-15.6-15.6 7-15.6 15.6-15.6 15.6 7 15.6 15.6" fill="#BE90D4"/>
<path d="m38 490.5c-8.4 0-15.2 6.8-15.2 15.2s6.8 15.2 15.2 15.2 15.2-6.8 15.2-15.2-6.8-15.2-15.2-15.2m0 31.2c-8.9 0-16.1-7.2-16.1-16.1s7.2-16.1 16.1-16.1 16.1 7.2 16.1 16.1-7.2 16.1-16.1 16.1" fill="#5D5D5D"/>
<path d="m38 520c-7.9 0-14.3-6.4-14.3-14.3s6.4-14.3 14.3-14.3 14.3 6.4 14.3 14.3c0.1 7.9-6.4 14.3-14.3 14.3m0-31.2c-9.3 0-16.9 7.6-16.9 16.9s7.6 16.9 16.9 16.9 16.9-7.6 16.9-16.9c0.1-9.4-7.5-16.9-16.9-16.9" fill="#5D5D5D"/>
<path d="m35.8 517.5v-4h-1.8v4zm5.8 0v-4h-1.8v4zm-10.9-8c0 0.9-0.8 1.7-1.7 1.7s-1.7-0.8-1.7-1.7 0.8-1.7 1.7-1.7c1 0 1.7 0.7 1.7 1.7m17.6 0c0 0.9-0.8 1.7-1.7 1.7s-1.7-0.8-1.7-1.7 0.8-1.7 1.7-1.7 1.7 0.7 1.7 1.7m-15.9-8.5c0 0.9-0.8 1.7-1.7 1.7s-1.7-0.8-1.7-1.7 0.8-1.7 1.7-1.7c1 0 1.7 0.8 1.7 1.7m14.2 0c0 0.9-0.8 1.7-1.7 1.7s-1.7-0.8-1.7-1.7 0.8-1.7 1.7-1.7 1.7 0.8 1.7 1.7m-6.5-5v-1.7h-4.1v1.7zm-0.6 10.2v-5.9h-2.9v5.9z" fill="#5D5D5D"/>
<path d="M180.4 536.6v-40.8H74.5v40.8z" fill="#BDC3C7"/>
<path d="M103.2 500.7h48.4c4.5 0 7.9 4.2 6.9 8.6l-3.8 16.8c-.7 3.2-3.6 5.5-6.9 5.5h-41.4c-3.4 0-6.3-2.4-6.9-5.7l-3.3-16.8c-.7-4.4 2.6-8.4 7-8.4" fill="#5D5D5D"/>
<path d="M107 504.8h41.7c3.9 0 6.8 3.4 5.9 7.1l-3.3 13.8c-.6 2.6-3.1 4.5-5.9 4.5h-35.6c-2.9 0-5.4-2-6-4.7l-2.8-13.8c-.6-3.6 2.2-6.9 6-6.9" fill="#4B77BE"/>
<path d="m112.4 512.1c0 1.4-1.1 2.5-2.5 2.5s-2.5-1.1-2.5-2.5 1.1-2.5 2.5-2.5 2.5 1.1 2.5 2.5m8.9 0c0 1.4-1.1 2.5-2.5 2.5s-2.5-1.1-2.5-2.5 1.1-2.5 2.5-2.5 2.5 1.1 2.5 2.5m9.2 0c0 1.4-1.1 2.5-2.5 2.5s-2.5-1.1-2.5-2.5 1.1-2.5 2.5-2.5 2.5 1.1 2.5 2.5m8.7 0c0 1.4-1.1 2.5-2.5 2.5s-2.5-1.1-2.5-2.5 1.1-2.5 2.5-2.5 2.5 1.1 2.5 2.5m9.1 0c0 1.4-1.1 2.5-2.5 2.5s-2.5-1.1-2.5-2.5 1.1-2.5 2.5-2.5 2.5 1.1 2.5 2.5m-31.1 10c0 1.4-1.1 2.5-2.5 2.5s-2.5-1.1-2.5-2.5 1.1-2.5 2.5-2.5c1.4 0.1 2.5 1.2 2.5 2.5m8.6 0c0 1.4-1.1 2.5-2.5 2.5s-2.5-1.1-2.5-2.5 1.1-2.5 2.5-2.5c1.4 0.1 2.5 1.2 2.5 2.5m8.6 0c0 1.4-1.1 2.5-2.5 2.5s-2.5-1.1-2.5-2.5 1.1-2.5 2.5-2.5c1.4 0.1 2.5 1.2 2.5 2.5m9.1 0c0 1.4-1.1 2.5-2.5 2.5s-2.5-1.1-2.5-2.5 1.1-2.5 2.5-2.5c1.4 0.1 2.5 1.2 2.5 2.5" fill="#5D5D5D"/>
<path d="m83 523.2-3.3-5.7 3.3-5.8h6.6l3.3 5.8-3.3 5.7z" fill="#95A5A6"/>
<path d="m89.8 517.5c0 1.9-1.6 3.5-3.5 3.5s-3.5-1.6-3.5-3.5 1.6-3.5 3.5-3.5 3.5 1.5 3.5 3.5" fill="#5D5D5D"/>
<path d="m164.8 523.2-3.3-5.7 3.3-5.8h6.6l3.3 5.8-3.3 5.7z" fill="#95A5A6"/>
<path d="M171.6 517.5c0 1.9-1.6 3.5-3.5 3.5s-3.5-1.6-3.5-3.5 1.6-3.5 3.5-3.5c1.9.1 3.5 1.6 3.5 3.5" fill="#5D5D5D"/>
<path d="M320.1 536.6v-31.2H192.5v31.2z" fill="#BDC3C7"/>
<path d="M295.4 533.2h-78.1c-2.1 0-3.8-1.7-3.8-3.8v-16.8c0-2.1 1.7-3.8 3.8-3.8h78.1c2.1 0 3.8 1.7 3.8 3.8v16.8c-.1 2.1-1.7 3.8-3.8 3.8" fill="#5D5D5D"/>
<path d="M222.9 516.2h-3c-.6 0-1.1-.5-1.1-1.1v-3c0-.6.5-1.1 1.1-1.1h3c.6 0 1.1.5 1.1 1.1v3c0 .6-.5 1.1-1.1 1.1M222.9 523h-3c-.6 0-1.1-.5-1.1-1.1v-3c0-.6.5-1.1 1.1-1.1h3c.6 0 1.1.5 1.1 1.1v3c0 .6-.5 1.1-1.1 1.1M222.9 529.9h-3c-.6 0-1.1-.5-1.1-1.1v-3c0-.6.5-1.1 1.1-1.1h3c.6 0 1.1.5 1.1 1.1v3c0 .6-.5 1.1-1.1 1.1M229.4 529.9h-3c-.6 0-1.1-.5-1.1-1.1v-3c0-.6.5-1.1 1.1-1.1h3c.6 0 1.1.5 1.1 1.1v3c0 .6-.5 1.1-1.1 1.1M229.4 523h-3c-.6 0-1.1-.5-1.1-1.1v-3c0-.6.5-1.1 1.1-1.1h3c.6 0 1.1.5 1.1 1.1v3c0 .6-.5 1.1-1.1 1.1M229.4 516.2h-3c-.6 0-1.1-.5-1.1-1.1v-3c0-.6.5-1.1 1.1-1.1h3c.6 0 1.1.5 1.1 1.1v3c0 .6-.5 1.1-1.1 1.1M236.3 516.2h-3c-.6 0-1.1-.5-1.1-1.1v-3c0-.6.5-1.1 1.1-1.1h3c.6 0 1.1.5 1.1 1.1v3c0 .6-.5 1.1-1.1 1.1M236.3 523h-3c-.6 0-1.1-.5-1.1-1.1v-3c0-.6.5-1.1 1.1-1.1h3c.6 0 1.1.5 1.1 1.1v3c0 .6-.5 1.1-1.1 1.1M236.3 529.9h-3c-.6 0-1.1-.5-1.1-1.1v-3c0-.6.5-1.1 1.1-1.1h3c.6 0 1.1.5 1.1 1.1v3c0 .6-.5 1.1-1.1 1.1M243.1 516.2h-3c-.6 0-1.1-.5-1.1-1.1v-3c0-.6.5-1.1 1.1-1.1h3c.6 0 1.1.5 1.1 1.1v3c0 .6-.5 1.1-1.1 1.1M243.1 523h-3c-.6 0-1.1-.5-1.1-1.1v-3c0-.6.5-1.1 1.1-1.1h3c.6 0 1.1.5 1.1 1.1v3c0 .6-.5 1.1-1.1 1.1M243.1 529.9h-3c-.6 0-1.1-.5-1.1-1.1v-3c0-.6.5-1.1 1.1-1.1h3c.6 0 1.1.5 1.1 1.1v3c0 .6-.5 1.1-1.1 1.1M250 516.2h-3c-.6 0-1.1-.5-1.1-1.1v-3c0-.6.5-1.1 1.1-1.1h3c.6 0 1.1.5 1.1 1.1v3c0 .6-.5 1.1-1.1 1.1M250 523h-3c-.6 0-1.1-.5-1.1-1.1v-3c0-.6.5-1.1 1.1-1.1h3c.6 0 1.1.5 1.1 1.1v3c0 .6-.5 1.1-1.1 1.1M250 529.9h-3c-.6 0-1.1-.5-1.1-1.1v-3c0-.6.5-1.1 1.1-1.1h3c.6 0 1.1.5 1.1 1.1v3c0 .6-.5 1.1-1.1 1.1M256.9 516.2h-3c-.6 0-1.1-.5-1.1-1.1v-3c0-.6.5-1.1 1.1-1.1h3c.6 0 1.1.5 1.1 1.1v3c0 .6-.5 1.1-1.1 1.1M257 522.9h-3c-.6 0-1.1-.5-1.1-1.1v-3c0-.6.5-1.1 1.1-1.1h3c.6 0 1.1.5 1.1 1.1v3c0 .6-.5 1.1-1.1 1.1M257 529.9h-3c-.6 0-1.1-.5-1.1-1.1v-3c0-.6.5-1.1 1.1-1.1h3c.6 0 1.1.5 1.1 1.1v3c0 .6-.5 1.1-1.1 1.1M264.4 516.2h-3c-.6 0-1.1-.5-1.1-1.1v-3c0-.6.5-1.1 1.1-1.1h3c.6 0 1.1.5 1.1 1.1v3c0 .6-.5 1.1-1.1 1.1M264.4 522.9h-3c-.6 0-1.1-.5-1.1-1.1v-3c0-.6.5-1.1 1.1-1.1h3c.6 0 1.1.5 1.1 1.1v3c0 .6-.5 1.1-1.1 1.1M264.4 529.9h-3c-.6 0-1.1-.5-1.1-1.1v-3c0-.6.5-1.1 1.1-1.1h3c.6 0 1.1.5 1.1 1.1v3c0 .6-.5 1.1-1.1 1.1M271.7 516.2h-3c-.6 0-1.1-.5-1.1-1.1v-3c0-.6.5-1.1 1.1-1.1h3c.6 0 1.1.5 1.1 1.1v3c0 .6-.5 1.1-1.1 1.1M271.7 523h-3c-.6 0-1.1-.5-1.1-1.1v-3c0-.6.5-1.1 1.1-1.1h3c.6 0 1.1.5 1.1 1.1v3c0 .6-.5 1.1-1.1 1.1M271.7 529.9h-3c-.6 0-1.1-.5-1.1-1.1v-3c0-.6.5-1.1 1.1-1.1h3c.6 0 1.1.5 1.1 1.1v3c0 .6-.5 1.1-1.1 1.1M281.3 520.3h11.3M292.6 522v-3.4h-11.3v3.4z" fill="#F2F1EF"/>
<path d="m200.8 526.7-3.3-5.7 3.3-5.7h6.6l3.3 5.7-3.3 5.7z" fill="#95A5A6"/>
<path d="m207.6 521c0 1.9-1.6 3.5-3.5 3.5s-3.5-1.6-3.5-3.5 1.6-3.5 3.5-3.5 3.5 1.6 3.5 3.5" fill="#5D5D5D"/>
<path d="m306.4 526.7-3.3-5.7 3.3-5.7h6.6l3.3 5.7-3.3 5.7z" fill="#95A5A6"/>
<path d="m313.1 521c0 1.9-1.6 3.5-3.5 3.5s-3.5-1.6-3.5-3.5 1.6-3.5 3.5-3.5 3.5 1.6 3.5 3.5" fill="#5D5D5D"/>
<path d="M269.6 489.2H79.9c-2.3 0-4.2-1.9-4.2-4.2v-33.8c0-2.3 1.9-4.2 4.2-4.2h189.8c2.3 0 4.2 1.9 4.2 4.2V485c-.1 2.4-1.9 4.2-4.3 4.2" fill="#BDC3C7"/>
<path d="M111.3 454.4h126.8c4.4 0 7.5 4.5 5.9 8.6l-5.7 14.8c-.9 2.5-3.3 4.1-5.9 4.1H115.6c-2.8 0-5.3-1.9-6.1-4.6l-4.3-14.8c-1.1-4.1 1.9-8.1 6.1-8.1" fill="#5D5D5D"/>
<path d="M116.8 457.6h115.9c4.1 0 6.9 3.6 5.4 6.9l-5.2 11.9c-.9 2-3 3.3-5.4 3.3H120.7c-2.6 0-4.9-1.5-5.6-3.7l-3.9-11.9c-1-3.3 1.7-6.5 5.6-6.5" fill="#FF69B4"/>
<path d="M121 465.3h-1.7c-.7 0-1.3-.6-1.3-1.3v-2.4c0-.7.6-1.3 1.3-1.3h1.7c.7 0 1.3.6 1.3 1.3v2.4c0 .8-.6 1.3-1.3 1.3M129.5 465.3h-1.7c-.7 0-1.3-.6-1.3-1.3v-2.4c0-.7.6-1.3 1.3-1.3h1.7c.7 0 1.3.6 1.3 1.3v2.4c0 .8-.6 1.3-1.3 1.3M137.8 465.3h-1.7c-.7 0-1.3-.6-1.3-1.3v-2.4c0-.7.6-1.3 1.3-1.3h1.7c.7 0 1.3.6 1.3 1.3v2.4c-.1.8-.7 1.3-1.3 1.3M205.4 465.3h-1.7c-.7 0-1.3-.6-1.3-1.3v-2.4c0-.7.6-1.3 1.3-1.3h1.7c.7 0 1.3.6 1.3 1.3v2.4c-.1.8-.6 1.3-1.3 1.3M197.3 465.3h-1.7c-.7 0-1.3-.6-1.3-1.3v-2.4c0-.7.6-1.3 1.3-1.3h1.7c.7 0 1.3.6 1.3 1.3v2.4c0 .8-.6 1.3-1.3 1.3M189 465.3h-1.7c-.7 0-1.3-.6-1.3-1.3v-2.4c0-.7.6-1.3 1.3-1.3h1.7c.7 0 1.3.6 1.3 1.3v2.4c-.1.8-.6 1.3-1.3 1.3M180.4 465.3h-1.7c-.7 0-1.3-.6-1.3-1.3v-2.4c0-.7.6-1.3 1.3-1.3h1.7c.7 0 1.3.6 1.3 1.3v2.4c0 .8-.6 1.3-1.3 1.3M171.6 465.3h-1.7c-.7 0-1.3-.6-1.3-1.3v-2.4c0-.7.6-1.3 1.3-1.3h1.7c.7 0 1.3.6 1.3 1.3v2.4c-.1.8-.6 1.3-1.3 1.3M163.7 465.3H162c-.7 0-1.3-.6-1.3-1.3v-2.4c0-.7.6-1.3 1.3-1.3h1.7c.7 0 1.3.6 1.3 1.3v2.4c0 .8-.6 1.3-1.3 1.3M155.1 465.3h-1.7c-.7 0-1.3-.6-1.3-1.3v-2.4c0-.7.6-1.3 1.3-1.3h1.7c.7 0 1.3.6 1.3 1.3v2.4c0 .8-.6 1.3-1.3 1.3M146.1 465.3h-1.7c-.7 0-1.3-.6-1.3-1.3v-2.4c0-.7.6-1.3 1.3-1.3h1.7c.7 0 1.3.6 1.3 1.3v2.4c0 .8-.6 1.3-1.3 1.3M230.1 465.3h-1.7c-.7 0-1.3-.6-1.3-1.3v-2.4c0-.7.6-1.3 1.3-1.3h1.7c.7 0 1.3.6 1.3 1.3v2.4c0 .8-.6 1.3-1.3 1.3M222.3 465.3h-1.7c-.7 0-1.3-.6-1.3-1.3v-2.4c0-.7.6-1.3 1.3-1.3h1.7c.7 0 1.3.6 1.3 1.3v2.4c0 .8-.6 1.3-1.3 1.3M213.1 465.3h-1.7c-.7 0-1.3-.6-1.3-1.3v-2.4c0-.7.6-1.3 1.3-1.3h1.7c.7 0 1.3.6 1.3 1.3v2.4c0 .8-.6 1.3-1.3 1.3M124.1 475.5h-1.7c-.7 0-1.3-.6-1.3-1.3v-2.4c0-.7.6-1.3 1.3-1.3h1.7c.7 0 1.3.6 1.3 1.3v2.4c0 .8-.6 1.3-1.3 1.3M208.5 475.5h-1.7c-.7 0-1.3-.6-1.3-1.3v-2.4c0-.7.6-1.3 1.3-1.3h1.7c.7 0 1.3.6 1.3 1.3v2.4c-.1.8-.6 1.3-1.3 1.3M200.4 475.5h-1.7c-.7 0-1.3-.6-1.3-1.3v-2.4c0-.7.6-1.3 1.3-1.3h1.7c.7 0 1.3.6 1.3 1.3v2.4c0 .8-.6 1.3-1.3 1.3M192.1 475.5h-1.7c-.7 0-1.3-.6-1.3-1.3v-2.4c0-.7.6-1.3 1.3-1.3h1.7c.7 0 1.3.6 1.3 1.3v2.4c-.1.8-.6 1.3-1.3 1.3M183.7 475.5H182c-.7 0-1.3-.6-1.3-1.3v-2.4c0-.7.6-1.3 1.3-1.3h1.7c.7 0 1.3.6 1.3 1.3v2.4c-.1.8-.6 1.3-1.3 1.3M175.8 475.5h-1.7c-.7 0-1.3-.6-1.3-1.3v-2.4c0-.7.6-1.3 1.3-1.3h1.7c.7 0 1.3.6 1.3 1.3v2.4c-.1.8-.6 1.3-1.3 1.3M166.8 475.5h-1.7c-.7 0-1.3-.6-1.3-1.3v-2.4c0-.7.6-1.3 1.3-1.3h1.7c.7 0 1.3.6 1.3 1.3v2.4c0 .8-.6 1.3-1.3 1.3M158.4 475.5h-1.7c-.7 0-1.3-.6-1.3-1.3v-2.4c0-.7.6-1.3 1.3-1.3h1.7c.7 0 1.3.6 1.3 1.3v2.4c0 .8-.6 1.3-1.3 1.3M149.2 475.5h-1.7c-.7 0-1.3-.6-1.3-1.3v-2.4c0-.7.6-1.3 1.3-1.3h1.7c.7 0 1.3.6 1.3 1.3v2.4c0 .8-.6 1.3-1.3 1.3M140.9 475.5h-1.7c-.7 0-1.3-.6-1.3-1.3v-2.4c0-.7.6-1.3 1.3-1.3h1.7c.7 0 1.3.6 1.3 1.3v2.4c-.1.8-.6 1.3-1.3 1.3M132.6 475.5h-1.7c-.7 0-1.3-.6-1.3-1.3v-2.4c0-.7.6-1.3 1.3-1.3h1.7c.7 0 1.3.6 1.3 1.3v2.4c0 .8-.6 1.3-1.3 1.3M217 475.5h-1.7c-.7 0-1.3-.6-1.3-1.3v-2.4c0-.7.6-1.3 1.3-1.3h1.7c.7 0 1.3.6 1.3 1.3v2.4c0 .8-.6 1.3-1.3 1.3M225.4 475.5h-1.7c-.7 0-1.3-.6-1.3-1.3v-2.4c0-.7.6-1.3 1.3-1.3h1.7c.7 0 1.3.6 1.3 1.3v2.4c0 .8-.6 1.3-1.3 1.3" fill="#5D5D5D"/>
<path d="m86.5 474.4-3.3-5.8 3.3-5.7h6.6l3.3 5.7-3.3 5.8z" fill="#95A5A6"/>
<path d="M93.3 468.6c0 1.9-1.6 3.5-3.5 3.5s-3.5-1.6-3.5-3.5 1.6-3.5 3.5-3.5c1.9.1 3.5 1.6 3.5 3.5" fill="#5D5D5D"/>
<path d="m254.8 473.8-3.3-5.7 3.3-5.7h6.6l3.3 5.7-3.3 5.7z" fill="#95A5A6"/>
<path d="m261.6 468.1c0 1.9-1.6 3.5-3.5 3.5s-3.5-1.6-3.5-3.5 1.6-3.5 3.5-3.5 3.5 1.6 3.5 3.5" fill="#5D5D5D"/>
<path d="m390.4 536.6v-59.9h-61.6v59.9z" fill="#BDC3C7"/>
<path d="m333.4 511.7v14.7l7.7 6h37l7.7-6v-14.7zm52.4-9.9v-19.8h-52.4v19.8z" fill="#5D5D5D"/>
<path d="m532.3 341.4c0 2.9-2.3 5.2-5.2 5.2s-5.2-2.3-5.2-5.2 2.3-5.2 5.2-5.2c2.8-0.1 5.2 2.3 5.2 5.2" fill="#696969"/>
<path d="m527 336.9c-2.5 0-4.5 2-4.5 4.5s2 4.5 4.5 4.5 4.5-2 4.5-4.5-2-4.5-4.5-4.5m0 10.5c-3.3 0-6-2.7-6-6s2.7-6 6-6 6 2.7 6 6-2.7 6-6 6" fill="#9C9C9C"/>
<path d="m25.5 341.4c0 2.9-2.3 5.2-5.2 5.2s-5.2-2.3-5.2-5.2 2.3-5.2 5.2-5.2c2.8-0.1 5.2 2.3 5.2 5.2" fill="#696969"/>
<path d="m20.2 336.9c-2.5 0-4.5 2-4.5 4.5s2 4.5 4.5 4.5 4.5-2 4.5-4.5-2-4.5-4.5-4.5m0 10.5c-3.3 0-6-2.7-6-6s2.7-6 6-6 6 2.7 6 6-2.7 6-6 6" fill="#9C9C9C"/>
<path d="m259.8 327.3c0 4.3-3.5 7.8-7.8 7.8s-7.8-3.5-7.8-7.8 3.5-7.8 7.8-7.8 7.8 3.5 7.8 7.8" fill="#E7E9DD"/>
<path d="M252 321c-3.5 0-6.3 2.8-6.3 6.3s2.8 6.3 6.3 6.3 6.3-2.8 6.3-6.3-2.8-6.3-6.3-6.3m0 15.6c-5.2 0-9.4-4.2-9.4-9.4s4.2-9.4 9.4-9.4 9.4 4.2 9.4 9.4c-.1 5.2-4.3 9.4-9.4 9.4" fill="#B8B4AE"/>
<path d="M527.4 356.1H21.7C9.8 356.1.1 346.4.1 334.5V72.8c0-11.9 9.7-21.6 21.6-21.6h505.7c11.9 0 21.6 9.7 21.6 21.6v261.7c0 11.9-9.7 21.6-21.6 21.6" fill="#DAD6D0"/>
<path d="m221.1 115.9-47.3-36.2h-93.3l-47.3 36.2c-9.3 7.2-9.3 25 0 32.2l47.3 36.2h93.3l47.3-36.2c9.3-7.1 9.3-25 0-32.2" fill="#3F3C3B"/>
<path d="M155.5 87.2H98.8l-32.2 30.7v44.7c0 5.7 4.9 10.4 10.9 10.4h99.2c6 0 10.9-4.7 10.9-10.4v-44.7l-32.1-30.7z" fill="#252725"/>
<path d="m148.3 96.6h-42.4l-24 24v34.9c0 4.5 3.6 8.1 8.1 8.1h74.1c4.5 0 8.1-3.6 8.1-8.1v-34.9l-23.9-24z" fill="#424140"/>
<path d="m95.9 152.6h9.6v-21.8h-9.6zm53.1 0h9.6v-21.8h-9.6zm-26.7-21.8h9.6v-21.7h-9.6z" fill="#1F1F1F"/>
<path d="m52.1 129c1.7 4.5-0.7 9.5-5.2 11.2s-9.5-0.7-11.2-5.2 0.7-9.5 5.2-11.2c4.5-1.6 9.5 0.7 11.2 5.2" fill="#3F3C3B"/>
<path d="m41.3 124.9c-3.9 1.4-5.9 5.8-4.5 9.7s5.8 5.9 9.7 4.5 5.9-5.8 4.5-9.7-5.8-5.9-9.7-4.5m6 16.4c-5.1 1.9-10.8-0.7-12.7-5.9-1.9-5.1 0.7-10.8 5.9-12.7 5.1-1.9 10.8 0.7 12.7 5.9 1.8 5.1-0.8 10.8-5.9 12.7" fill="#252725"/>
<path d="M48.1 129.7l-3.8 1.4-1.3-3.8-1.5.6 1.4 3.7-3.7 1.4.5 1.4 3.7-1.4 1.4 3.8 1.4-.6-1.3-3.7 3.7-1.4z" fill="#252725"/>
<path d="m214.5 124.3c4.3 2.3 5.9 7.5 3.6 11.8s-7.5 5.9-11.8 3.6-5.9-7.5-3.6-11.8c2.2-4.2 7.5-5.8 11.8-3.6" fill="#3F3C3B"/>
<path d="m203.7 128.5c-2 3.7-0.6 8.3 3.1 10.3s8.3 0.6 10.3-3.1 0.6-8.3-3.1-10.3-8.3-0.6-10.3 3.1m15.4 8.2c-2.5 4.8-8.5 6.6-13.3 4.1s-6.6-8.5-4.1-13.3 8.5-6.6 13.3-4.1 6.6 8.5 4.1 13.3" fill="#252725"/>
<path d="M211.9 127.5l-1.8 3.5-3.5-1.8-.8 1.3 3.6 1.9-1.9 3.5 1.3.7 1.9-3.5 3.5 1.8.7-1.3-3.5-1.9 1.9-3.5z" fill="#252725"/>
<path d="m221.1 255.1-47.3-36.2h-93.3l-47.3 36.2c-9.3 7.2-9.3 25 0 32.2l47.3 36.2h93.3l47.3-36.2c9.3-7.2 9.3-25.1 0-32.2" fill="#3F3C3B"/>
<path d="M155.5 226.3H98.8L66.6 257v44.7c0 5.7 4.9 10.4 10.9 10.4h99.2c6 0 10.9-4.7 10.9-10.4V257l-32.1-30.7z" fill="#252725"/>
<path d="m50.4 263.2c1.7 4.5-0.7 9.5-5.2 11.2s-9.5-0.7-11.2-5.2 0.7-9.5 5.2-11.2c4.5-1.6 9.6 0.7 11.2 5.2" fill="#3F3C3B"/>
<path d="m39.6 259.1c-3.9 1.4-5.9 5.8-4.5 9.7s5.8 5.9 9.7 4.5 5.9-5.8 4.5-9.7-5.8-5.9-9.7-4.5m6 16.4c-5.1 1.9-10.8-0.7-12.7-5.9-1.9-5.1 0.7-10.8 5.9-12.7 5.1-1.9 10.8 0.7 12.7 5.9 1.9 5.1-0.8 10.8-5.9 12.7" fill="#252725"/>
<path d="M46.4 263.9l-3.7 1.3-1.4-3.7-1.4.5 1.4 3.8-3.8 1.3.5 1.5 3.8-1.4 1.4 3.7 1.4-.5-1.4-3.7 3.7-1.4z" fill="#252725"/>
<path d="m212.8 258.5c4.3 2.3 5.9 7.5 3.6 11.8s-7.5 5.9-11.8 3.6-5.9-7.5-3.6-11.8c2.3-4.2 7.6-5.8 11.8-3.6" fill="#3F3C3B"/>
<path d="m202 262.7c-2 3.7-0.6 8.3 3.1 10.3s8.3 0.6 10.3-3.1 0.6-8.3-3.1-10.3-8.3-0.6-10.3 3.1m15.4 8.1c-2.5 4.8-8.5 6.6-13.3 4.1s-6.6-8.5-4.1-13.3 8.5-6.6 13.3-4.1c4.9 2.6 6.7 8.5 4.1 13.3" fill="#252725"/>
<path d="M210.3 261.7l-1.9 3.5-3.5-1.9-.7 1.4 3.5 1.8-1.9 3.6 1.4.7 1.8-3.6 3.6 1.9.7-1.3-3.5-1.9 1.8-3.5z" fill="#252725"/>
<path d="m92.3 284.4h4.5v-9.8h-4.5zm65.1 0h4.6v-9.8h-4.6zm-32.5-20.8h4.5v-9.9h-4.5z" fill="#D2C4A6"/>
<path d="m532.3 94.3c0 2.9-2.3 5.2-5.2 5.2s-5.2-2.3-5.2-5.2 2.3-5.2 5.2-5.2c2.8 0 5.2 2.3 5.2 5.2" fill="#696969"/>
<path d="m527 89.8c-2.5 0-4.5 2-4.5 4.5s2 4.5 4.5 4.5 4.5-2 4.5-4.5-2-4.5-4.5-4.5m0 10.5c-3.3 0-6-2.7-6-6s2.7-6 6-6 6 2.7 6 6-2.7 6-6 6" fill="#9C9C9C"/>
<path d="m134.6 62.6c0 2.9-2.3 5.2-5.2 5.2s-5.2-2.3-5.2-5.2 2.3-5.2 5.2-5.2c2.9-0.1 5.2 2.3 5.2 5.2" fill="#696969"/>
<path d="m129.4 58.1c-2.5 0-4.5 2-4.5 4.5s2 4.5 4.5 4.5 4.5-2 4.5-4.5-2-4.5-4.5-4.5m0 10.4c-3.3 0-6-2.7-6-6s2.7-6 6-6 6 2.7 6 6c0 3.4-2.7 6-6 6" fill="#9C9C9C"/>
<path d="m509.5 77.4c0 4.3-3.5 7.8-7.8 7.8s-7.8-3.5-7.8-7.8 3.5-7.8 7.8-7.8 7.8 3.5 7.8 7.8" fill="#E7E9DD"/>
<path d="M501.7 71.1c-3.5 0-6.3 2.8-6.3 6.3s2.8 6.3 6.3 6.3 6.3-2.8 6.3-6.3-2.8-6.3-6.3-6.3m0 15.7c-5.2 0-9.4-4.2-9.4-9.4s4.2-9.4 9.4-9.4 9.4 4.2 9.4 9.4c-.1 5.2-4.3 9.4-9.4 9.4" fill="#B8B4AE"/>
<path d="m508 104.7-37.5-37.5h-191.9l-37.5 37.5v191.8l37.5 37.5h191.9l37.5-37.5z" fill="#696969"/>
<path d="M374.6 83.2c-64.7 0-117.4 52.7-117.4 117.4S309.9 318 374.6 318 492 265.4 492 200.6c0-64.7-52.7-117.4-117.4-117.4m0 238.8c-66.9 0-121.4-54.5-121.4-121.4S307.7 79.2 374.6 79.2 496 133.7 496 200.6c0 67-54.5 121.4-121.4 121.4" fill="#E2DCD6"/>
<path d="M374.6 103.1c-53.8 0-97.5 43.7-97.5 97.5s43.7 97.5 97.5 97.5 97.5-43.7 97.5-97.5-43.8-97.5-97.5-97.5m0 199c-56 0-101.5-45.5-101.5-101.5S318.6 99.1 374.6 99.1s101.5 45.5 101.5 101.5-45.6 101.5-101.5 101.5" fill="#E2DCD6"/>
<path d="m374.6 123c-42.8 0-77.6 34.8-77.6 77.6s34.8 77.6 77.6 77.6 77.6-34.8 77.6-77.6-34.9-77.6-77.6-77.6m0 159.2c-45 0-81.6-36.6-81.6-81.6s36.6-81.6 81.6-81.6 81.6 36.6 81.6 81.6c-0.1 45-36.7 81.6-81.6 81.6" fill="#E2DCD6"/>
<path d="M422.9 200.6c0 26.7-21.6 48.4-48.4 48.4-26.7 0-48.4-21.7-48.4-48.4s21.7-48.4 48.4-48.4c26.8.1 48.4 21.7 48.4 48.4" fill="#E2DCD6"/>
<path d="m491.9 312.6-112-112 112-112-5.3-5.4-112 112-112-112-5.4 5.4 112 112-112 112 5.3 5.4 112.1-112 112 112z" fill="#E2DCD6"/>
<path d="m2080.5 69.9v-34h-293.9v32.3c5.8 0 10.5 4.7 10.5 10.5s-4.7 10.5-10.5 10.5v240.6h293.9v-239c-5.8 0-10.5-4.7-10.5-10.5s4.7-10.4 10.5-10.4" fill="#004F5A"/>
<path d="M2077.4 93.5v25.4h-7.4v64.8h7.4v143h-287.8V91.9c6-1.4 10.5-6.8 10.5-13.2s-4.5-11.8-10.5-13.2V39h287.8v28.2c-6 1.4-10.5 6.8-10.5 13.2s4.5 11.8 10.5 13.1m3.1-20.6h3v-40h-300v38.4h3c4.1 0 7.5 3.3 7.5 7.5 0 4.1-3.3 7.5-7.5 7.5h-3V333h300V87.8h-3c-4.1 0-7.5-3.3-7.5-7.5 0-4.1 3.4-7.4 7.5-7.4" fill="#06978D"/>
<path d="M2055.5 127.6h-2.7V88.5c0-13.7-11.1-24.8-24.8-24.8h-188.9c-13.7 0-24.8 11.1-24.8 24.8v39.2h-2.7c-6.1 0-11 4.9-11 11v88.5c0 6.1 4.9 11 11 11h2.7v39.2c0 13.7 11.1 24.8 24.8 24.8H2028c13.7 0 24.8-11.1 24.8-24.8v-39.2h2.7c6.1 0 11-4.9 11-11v-88.5c0-6.1-4.9-11.1-11-11.1" fill="#C9C0B9"/>
<path d="M2023.1 296.1h-179.2c-13 0-23.6-10.6-23.6-23.6V93.3c0-13 10.6-23.6 23.6-23.6h179.2c13 0 23.6 10.6 23.6 23.6v179.2c0 13-10.6 23.6-23.6 23.6" fill="#DCD7D4"/>
<path d="m1799.5 44.2c0 2.6-2.1 4.7-4.7 4.7s-4.7-2.1-4.7-4.7 2.1-4.7 4.7-4.7c2.6 0.1 4.7 2.2 4.7 4.7m77.9-4.7c0 1.2-1 2.2-2.2 2.2s-2.2-1-2.2-2.2 1-2.2 2.2-2.2 2.2 1 2.2 2.2m5.5 0c0 1.2-1 2.2-2.2 2.2s-2.2-1-2.2-2.2 1-2.2 2.2-2.2c1.3 0 2.2 1 2.2 2.2m5.6 0c0 1.2-1 2.2-2.2 2.2s-2.2-1-2.2-2.2 1-2.2 2.2-2.2 2.2 1 2.2 2.2m5.6 0c0 1.2-1 2.2-2.2 2.2s-2.2-1-2.2-2.2 1-2.2 2.2-2.2 2.2 1 2.2 2.2m5.5 0c0 1.2-1 2.2-2.2 2.2s-2.2-1-2.2-2.2 1-2.2 2.2-2.2c1.3 0 2.2 1 2.2 2.2m5.6 0c0 1.2-1 2.2-2.2 2.2s-2.2-1-2.2-2.2 1-2.2 2.2-2.2c1.3 0 2.2 1 2.2 2.2m5.6 0c0 1.2-1 2.2-2.2 2.2s-2.2-1-2.2-2.2 1-2.2 2.2-2.2 2.2 1 2.2 2.2m5.6 0c0 1.2-1 2.2-2.2 2.2s-2.2-1-2.2-2.2 1-2.2 2.2-2.2 2.2 1 2.2 2.2m5.5 0c0 1.2-1 2.2-2.2 2.2s-2.2-1-2.2-2.2 1-2.2 2.2-2.2c1.3 0 2.2 1 2.2 2.2m5.6 0c0 1.2-1 2.2-2.2 2.2s-2.2-1-2.2-2.2 1-2.2 2.2-2.2 2.2 1 2.2 2.2m5.6 0c0 1.2-1 2.2-2.2 2.2s-2.2-1-2.2-2.2 1-2.2 2.2-2.2 2.2 1 2.2 2.2m5.6 0c0 1.2-1 2.2-2.2 2.2s-2.2-1-2.2-2.2 1-2.2 2.2-2.2 2.2 1 2.2 2.2m-83.6 0c0 1.2-1 2.2-2.2 2.2s-2.2-1-2.2-2.2 1-2.2 2.2-2.2 2.2 1 2.2 2.2m5.5 0c0 1.2-1 2.2-2.2 2.2s-2.2-1-2.2-2.2 1-2.2 2.2-2.2c1.3 0 2.2 1 2.2 2.2m5.6 0c0 1.2-1 2.2-2.2 2.2s-2.2-1-2.2-2.2 1-2.2 2.2-2.2 2.2 1 2.2 2.2m5.6 0c0 1.2-1 2.2-2.2 2.2s-2.2-1-2.2-2.2 1-2.2 2.2-2.2 2.2 1 2.2 2.2m-39 0c0 1.2-1 2.2-2.2 2.2s-2.2-1-2.2-2.2 1-2.2 2.2-2.2 2.2 1 2.2 2.2m5.5 0c0 1.2-1 2.2-2.2 2.2s-2.2-1-2.2-2.2 1-2.2 2.2-2.2c1.3 0 2.2 1 2.2 2.2m5.6 0c0 1.2-1 2.2-2.2 2.2s-2.2-1-2.2-2.2 1-2.2 2.2-2.2c1.3 0 2.2 1 2.2 2.2m5.6 0c0 1.2-1 2.2-2.2 2.2s-2.2-1-2.2-2.2 1-2.2 2.2-2.2 2.2 1 2.2 2.2m30.6 5.2c0 1.2-1 2.2-2.2 2.2s-2.2-1-2.2-2.2 1-2.2 2.2-2.2c1.3 0 2.2 1 2.2 2.2m5.6 0c0 1.2-1 2.2-2.2 2.2s-2.2-1-2.2-2.2 1-2.2 2.2-2.2 2.2 1 2.2 2.2m5.6 0c0 1.2-1 2.2-2.2 2.2s-2.2-1-2.2-2.2 1-2.2 2.2-2.2 2.2 1 2.2 2.2m5.6 0c0 1.2-1 2.2-2.2 2.2s-2.2-1-2.2-2.2 1-2.2 2.2-2.2 2.2 1 2.2 2.2m5.5 0c0 1.2-1 2.2-2.2 2.2s-2.2-1-2.2-2.2 1-2.2 2.2-2.2c1.3 0 2.2 1 2.2 2.2m5.6 0c0 1.2-1 2.2-2.2 2.2s-2.2-1-2.2-2.2 1-2.2 2.2-2.2 2.2 1 2.2 2.2m5.6 0c0 1.2-1 2.2-2.2 2.2s-2.2-1-2.2-2.2 1-2.2 2.2-2.2 2.2 1 2.2 2.2m5.6 0c0 1.2-1 2.2-2.2 2.2s-2.2-1-2.2-2.2 1-2.2 2.2-2.2 2.2 1 2.2 2.2m5.5 0c0 1.2-1 2.2-2.2 2.2s-2.2-1-2.2-2.2 1-2.2 2.2-2.2c1.3 0 2.2 1 2.2 2.2m5.6 0c0 1.2-1 2.2-2.2 2.2s-2.2-1-2.2-2.2 1-2.2 2.2-2.2 2.2 1 2.2 2.2m5.6 0c0 1.2-1 2.2-2.2 2.2s-2.2-1-2.2-2.2 1-2.2 2.2-2.2 2.2 1 2.2 2.2m5.5 0c0 1.2-1 2.2-2.2 2.2s-2.2-1-2.2-2.2 1-2.2 2.2-2.2c1.3 0 2.2 1 2.2 2.2m-83.5 0c0 1.2-1 2.2-2.2 2.2s-2.2-1-2.2-2.2 1-2.2 2.2-2.2 2.2 1 2.2 2.2m5.5 0c0 1.2-1 2.2-2.2 2.2s-2.2-1-2.2-2.2 1-2.2 2.2-2.2c1.3 0 2.2 1 2.2 2.2m5.6 0c0 1.2-1 2.2-2.2 2.2s-2.2-1-2.2-2.2 1-2.2 2.2-2.2 2.2 1 2.2 2.2m5.6 0c0 1.2-1 2.2-2.2 2.2s-2.2-1-2.2-2.2 1-2.2 2.2-2.2 2.2 1 2.2 2.2m-39 0c0 1.2-1 2.2-2.2 2.2s-2.2-1-2.2-2.2 1-2.2 2.2-2.2 2.2 1 2.2 2.2m5.5 0c0 1.2-1 2.2-2.2 2.2s-2.2-1-2.2-2.2 1-2.2 2.2-2.2c1.3 0 2.2 1 2.2 2.2m5.6 0c0 1.2-1 2.2-2.2 2.2s-2.2-1-2.2-2.2 1-2.2 2.2-2.2 2.2 1 2.2 2.2m5.6 0c0 1.2-1 2.2-2.2 2.2s-2.2-1-2.2-2.2 1-2.2 2.2-2.2 2.2 1 2.2 2.2m223.3-1.2c0 1.8-1.5 3.3-3.3 3.3s-3.3-1.5-3.3-3.3 1.5-3.3 3.3-3.3c1.9 0 3.3 1.5 3.3 3.3m0.6 278.8c0 1.8-1.5 3.3-3.3 3.3s-3.3-1.5-3.3-3.3 1.5-3.3 3.3-3.3 3.3 1.4 3.3 3.3m-286 3.9h15.9l-15.9-15.9z" fill="#E1B77B"/>
<path d="M1889.5 119.9c2.1 0 4.1.3 5.9.8 1.8.5 3.6 1.2 5.3 2.1.5.2 1 .4 1.4.7.4.2.8.3 1.2.3.8 0 1.3-.4 1.5-1.3 0-.2.2-.3.5-.4.3-.1.5-.1.8-.1.3 0 .5.1.7.2.2.1.3.2.2.4-.2.7-.3 1.5-.4 2.3-.1.8-.1 1.6-.1 2.5 0 1.3.1 2.6.3 4 .2 1.3.4 2.7.6 4.1 0 .2-.1.3-.3.5-.2.1-.5.2-.8.2-.3 0-.6 0-.9-.1-.3-.1-.5-.3-.5-.5-1.2-4.2-3.1-7.4-5.7-9.4s-6-3-10-3c-3.1 0-5.7.7-7.7 2s-3.7 3-4.9 5.1c-1.2 2.1-2 4.3-2.5 6.9-.5 2.5-.7 5-.7 7.4 0 2.6.3 5.3.8 7.9.6 2.6 1.5 5 2.8 7.1 1.3 2.1 2.9 3.9 5 5.2s4.5 2 7.5 2c2.3 0 4.3-.2 6.1-.6 1.8-.4 3.3-1.1 4.5-2.2 1.5-1.4 2.7-3 3.6-4.9.9-1.9 1.5-4.1 1.9-6.5 0-.3.2-.6.4-.7.3-.1.5-.1.8 0 .3.1.6.2.8.4.2.2.3.4.3.6-.1.9-.2 1.9-.3 2.8 0 .9-.1 1.9-.1 2.8 0 1.6.1 3.2.2 4.9s.2 3.4.3 5.3c0 .3-.1.5-.3.6-.2.1-.4.2-.7.2-.3 0-.5 0-.7-.1-.2-.1-.4-.3-.4-.5-.1-.4-.3-.9-.5-1.2-.2-.4-.5-.7-.9-1-.4-.3-.8-.4-1.3-.4s-1.1.2-1.7.5c-1 .6-2 1.1-3 1.5-1 .4-1.9.7-2.9.9-1 .2-2 .4-3.1.5-1.1.1-2.3.1-3.5.1-8.4 0-14.6-2.1-18.6-6.3-4-4.2-6-10.1-6-17.9 0-4.1.6-7.8 1.9-11 1.3-3.2 3-5.9 5.3-8 2.2-2.1 4.9-3.8 8-4.8 2.9-1.3 6.3-1.9 9.9-1.9M1927.5 143.7c0 .4.1.6.3.7.2.1.6.2 1.2.2 2.3 0 4.2-.2 5.8-.5 1.6-.4 2.8-.9 3.7-1.8s1.6-1.9 2-3.2c.4-1.3.6-3 .6-5 0-3.7-.7-6.3-2.1-7.9-1.4-1.5-3.7-2.3-7.1-2.3-1.8 0-3.1.2-3.6.7-.6.5-.9 1.4-.9 2.9v16.2zm0 15.4c0 1.6.2 2.9.5 3.9s.8 1.7 1.5 2.3c.7.5 1.5.9 2.6 1.2 1 .2 2.2.4 3.6.5.3 0 .6.1.7.4.1.3.2.5.2.8 0 .3-.1.6-.2.8-.2.2-.4.3-.8.3-2.5 0-4.7-.1-6.5-.3-1.8-.2-3.6-.3-5.3-.3-1.8 0-3.6.1-5.3.3-1.7.2-3.4.3-5.1.3-.3 0-.5-.1-.6-.3-.1-.2-.2-.5-.2-.8 0-.3 0-.6.2-.8.1-.2.4-.4.7-.4 1.3-.1 2.4-.3 3.3-.6.8-.2 1.5-.6 2-1.1.5-.5.8-1.2 1-2.1.2-.9.3-2 .3-3.4v-26.4c0-1 0-2.1-.1-3.1s-.2-2-.5-2.9c-.3-.9-.6-1.6-1.1-2.2-.5-.6-1.2-1-2-1.2-.5-.1-1-.2-1.6-.3-.6-.1-1.1-.2-1.6-.2-.3 0-.5-.1-.6-.3-.2-.2-.2-.5-.2-.8 0-.3.1-.5.2-.8.1-.2.4-.3.6-.3 1.6 0 3 .1 4.3.2s2.8.2 4.5.2c2.8 0 5.2-.1 7-.2 1.9-.1 3.6-.2 5.3-.2 1.9 0 3.7.2 5.6.6 1.8.4 3.4 1.1 4.8 2 1.4 1 2.5 2.2 3.4 3.8.8 1.6 1.3 3.5 1.3 5.7 0 2.6-.5 4.8-1.6 6.6-1 1.7-2.5 3.1-4.3 4.2-1.8 1.1-3.9 1.9-6.4 2.4-2.5.5-5.1.8-7.9.9-.5 0-.8.1-1 .2s-.3.5-.3 1.2v10.2zM1997.7 150.2c0 3.1-.3 5.8-1 8.2-.7 2.4-1.8 4.5-3.2 6.2-1.5 1.7-3.4 3-5.8 3.9-2.4.9-5.3 1.3-8.8 1.3-3.3 0-6.2-.3-8.6-1-2.4-.7-4.4-1.7-6-3.2-1.6-1.4-2.7-3.3-3.5-5.6-.8-2.3-1.1-5.1-1.1-8.3V132c0-1.5-.1-2.7-.2-3.8-.2-1-.5-1.9-.9-2.5-.5-.7-1.1-1.2-2-1.5-.9-.4-2-.6-3.5-.7-.3 0-.5-.1-.6-.4-.2-.3-.2-.5-.2-.8 0-.3.1-.6.2-.8.1-.2.4-.4.6-.4 1.5 0 3.2.1 5.1.2 1.9.2 3.7.2 5.4.2 1 0 1.9 0 2.8-.1.9 0 1.7-.1 2.5-.2s1.7-.1 2.5-.2c.9 0 1.8-.1 2.8-.1.3 0 .5.1.6.4.1.2.2.5.1.8 0 .3-.1.6-.3.8-.1.3-.3.4-.6.4-1.4.1-2.6.3-3.5.6-.9.3-1.6.8-2.1 1.4-.5.6-.8 1.5-.9 2.5s-.2 2.4-.2 4v19.3c0 2 .3 3.9.8 5.7s1.3 3.4 2.4 4.7c1.1 1.3 2.4 2.4 4 3.2 1.6.8 3.5 1.2 5.7 1.2 4.6 0 8.1-1.3 10.5-3.8 2.4-2.5 3.6-6.5 3.6-12v-14.7c0-1.1 0-2.2-.1-3.3 0-1.1-.1-2.2-.2-3.2s-.2-1.8-.4-2.4c-.2-.8-.5-1.4-.7-1.8-.3-.4-.6-.7-.9-.9-.4-.2-.9-.3-1.4-.3s-1.3-.1-2.1-.2c-.2 0-.4-.1-.5-.4-.1-.3-.2-.5-.2-.8 0-.3.1-.6.2-.8.1-.2.3-.4.6-.4 1.1 0 2.3.1 3.6.2 1.3.2 2.6.2 3.9.2 1.2 0 2.4-.1 3.7-.2 1.2-.2 2.6-.2 4.1-.2.3 0 .5.1.6.4.1.2.2.5.2.8 0 .3-.1.6-.2.8-.2.3-.4.4-.6.4-.9.1-1.5.2-2 .2s-.9.1-1.2.3c-.3.2-.6.5-.9.9-.3.4-.6 1-.9 1.8-.2.6-.4 1.4-.5 2.3-.1 1-.2 2-.3 3.1 0 1.1-.1 2.2 0 3.3v15zM1891.6 271c.4 0 .9-.1 1.3-.2-.5-.9-.9-1.6-1.2-2.1-.4-.5-.8-.7-1.3-.7-.3 0-.5.1-.7.2-.2.2-.4.3-.6.5-.2.2-.3.4-.3.6-.1.2-.1.3-.1.4 0 .1.1.2.3.3.2.1.4.3.7.4.3.2.6.3 1 .4.2.1.6.2.9.2m-.7-4c.6 0 1.2.2 1.9.6.7.4 1.3 1 1.8 2 .6-.7 1.1-1.5 1.4-2.6.3-1 .5-2.1.5-3.3 0-.6 0-1.2-.1-1.8-.1-.6-.2-1.2-.3-1.7l-.6-1.5c-.3-.5-.6-.9-.9-1.2-.4-.3-.8-.6-1.3-.8s-1-.3-1.6-.3c-.9 0-1.6.2-2.2.6-.6.4-1.1 1-1.5 1.7-.4.7-.7 1.5-.9 2.3-.2.9-.3 1.8-.3 2.7 0 .5 0 1 .1 1.5 0 .5.1 1 .2 1.4.1.5.2.9.4 1.3s.3.8.6 1.1c.1-.3.2-.5.4-.7.2-.2.4-.5.6-.7.2-.2.5-.3.9-.5.1 0 .4-.1.9-.1m.6 5c-1.2 0-2.3-.2-3.3-.6-1-.4-1.8-.9-2.5-1.6s-1.2-1.6-1.6-2.7c-.4-1.1-.5-2.3-.5-3.7 0-1.2.2-2.3.6-3.3.4-1 .9-1.8 1.6-2.5.7-.7 1.5-1.2 2.5-1.6 1-.4 2-.6 3.2-.6 1.2 0 2.2.2 3.2.6 1 .4 1.8.9 2.5 1.6.7.7 1.2 1.5 1.6 2.5.4 1 .6 2.1.6 3.2 0 1.9-.4 3.5-1.1 4.8-.7 1.3-1.7 2.2-2.9 2.9.6 1.2 1.1 2 1.6 2.5s1 .8 1.5.8c.6 0 1-.1 1.3-.3.3-.2.5-.5.6-1 0-.1.1-.1.1-.1h.4c.1 0 .1.1.2.1l.1.1v.2c-.1.3-.2.7-.4 1.1-.2.4-.4.7-.7 1.1-.3.3-.7.6-1.1.8-.4.2-1 .3-1.6.3-.3 0-.7-.1-1-.2l-.9-.6c-.3-.3-.5-.6-.8-.9-.2-.3-.4-.7-.6-1.1-.2-.4-.4-.7-.5-1.1-.2-.4-.3-.7-.4-1-.5.2-1.1.3-1.7.3M1912 267.6v1.6c0 .4.1.7.2 1 .1.2.3.4.5.5.2.1.6.1 1 .1.1 0 .1 0 .2.1 0 .1.1.2.1.2 0 .1 0 .2-.1.2 0 .1-.1.1-.2.1s-.3.1-.5.1-.4.1-.6.1c-.2 0-.5.1-.7.1-.2 0-.5.1-.7.1-.2 0-.4.1-.6.1h-.4c-.3 0-.4-.4-.4-1.3v-.1h-.1c-.6.5-1.2.8-1.8 1-.6.2-1.2.3-1.7.3-.7 0-1.3-.1-1.8-.3s-.8-.4-1.1-.8c-.3-.3-.5-.8-.6-1.3-.1-.5-.2-1.1-.2-1.7V265v-1.6c0-.4-.1-.7-.2-.9-.1-.2-.3-.3-.5-.4-.2-.1-.5-.1-.9-.2-.1 0-.1 0-.2-.1 0-.1-.1-.2-.1-.3 0-.1 0-.2.1-.2 0-.1.1-.1.2-.1.8-.1 1.5-.1 2.1-.3.3-.1.6-.1.8-.1.2 0 .4-.1.5-.1.2 0 .3 0 .3.1.1.1.1.2.1.3v5.7c0 .6 0 1.2.1 1.6.1.4.2.8.3 1.1.1.3.3.5.6.6.2.1.6.2.9.2.5 0 1.1-.1 1.7-.3.6-.2 1-.4 1.3-.7 0 0 .1-.1.1-.3v-4-1.6c0-.4-.1-.7-.2-.9-.1-.2-.2-.3-.4-.4-.2-.1-.5-.1-.9-.2-.1 0-.1-.1-.2-.2 0-.1-.1-.2-.1-.3 0-.1 0-.2.1-.2 0-.1.1-.1.2-.1.8-.1 1.5-.1 2.1-.3.6-.1 1-.2 1.2-.2.1 0 .2 0 .3.1.1.1.1.2.1.4v6.5zM1921.4 266.8v-.3l-.1-.1c-1.3.1-2.2.4-2.9.8-.6.4-.9 1-.9 1.7 0 .2 0 .5.1.7.1.2.1.4.3.5.1.2.3.3.5.4.2.1.4.1.7.1.4 0 .7-.1 1.1-.2.4-.1.7-.3 1.1-.6.1-.1.2-.2.2-.4v-2.6zm2.2 2.4c0 .6.1.9.2 1.2.1.2.3.3.6.3.2 0 .3 0 .4-.1.1 0 .3-.1.5-.3.1-.1.2 0 .3.1.1.2.1.3 0 .4-.3.3-.6.6-1 .8-.4.2-.7.3-1.1.3-.5 0-.9-.1-1.2-.3-.3-.2-.6-.5-.8-.9 0-.1-.1-.1-.2 0-.4.4-.9.7-1.4.9-.5.2-1.2.3-2 .3-.9 0-1.6-.2-2.1-.7-.5-.5-.7-1.2-.7-2 0-1.2.5-2 1.6-2.7s2.6-.9 4.6-.9h.1v-.1-.4-.7c0-.4 0-.8-.1-1.1l-.3-.9c-.2-.3-.4-.5-.7-.6-.3-.1-.7-.2-1.1-.2-.5 0-.9.1-1.2.3-.3.2-.5.5-.5.9 0 .2.1.3.2.5s.2.3.2.5-.1.4-.3.6c-.2.2-.5.3-.8.3-.4 0-.7-.1-.9-.3-.2-.2-.3-.5-.3-.8 0-.4.1-.8.3-1.1.2-.3.5-.6.9-.9.4-.3.8-.5 1.3-.6.5-.1 1-.2 1.6-.2 1.3 0 2.2.3 3 .9.7.6 1.1 1.5 1.1 2.9v4.6zM1934.1 262.8c-.3-.4-.6-.7-1-.8-.3-.2-.8-.3-1.2-.3-.5 0-.9.1-1.3.2s-.7.4-1 .7c-.3.3-.5.8-.6 1.4-.1.6-.2 1.3-.2 2.3 0 .5.1 1.1.2 1.6s.3 1 .5 1.4c.2.4.5.7.8 1 .3.2.7.4 1.1.4.7 0 1.2-.1 1.6-.3.4-.2.8-.5 1.1-.9v-6.7zm2.3 4.8v1.6c0 .4.1.7.2.9.1.2.3.4.5.5.2.1.6.1 1 .1.1 0 .2.1.2.4s-.1.4-.2.4c-.4 0-1.1.1-2 .3-.9.2-1.4.3-1.5.3-.1 0-.2-.1-.3-.3-.1-.2-.1-.5-.1-.9 0-.1 0-.1-.1-.1 0 0-.1 0-.1.1-.5.4-1 .8-1.4 1-.5.2-1 .3-1.7.3s-1.3-.1-1.9-.4c-.6-.2-1-.6-1.4-1-.4-.4-.7-1-.9-1.6s-.3-1.4-.3-2.2c0-1.1.2-2 .5-2.7.3-.8.8-1.4 1.3-1.9s1.1-.9 1.8-1.1c.7-.2 1.3-.4 2-.4.3 0 .7 0 1 .1.4.1.7.2 1.1.4V260v-1.6c0-.4-.1-.7-.2-.9-.1-.2-.3-.4-.6-.4-.3-.1-.6-.1-1.1-.2-.1 0-.2-.1-.2-.4 0-.2.1-.4.2-.4.4 0 .7-.1 1.1-.1.4-.1.8-.1 1.1-.2.4-.1.7-.1 1-.1.3 0 .5-.1.6-.1.1 0 .2 0 .3.1.1.1.1.1.1.2v11.7zM1954.2 255.4c.7 0 1.4.1 2 .3.6.2 1.2.4 1.8.7.2.1.3.2.5.2.1.1.3.1.4.1.3 0 .4-.1.5-.4 0-.1.1-.1.2-.1h.3c.1 0 .2 0 .2.1.1 0 .1.1.1.2-.1.2-.1.5-.1.8v.8c0 .4 0 .9.1 1.3s.1.9.2 1.4c0 .1 0 .1-.1.2-.1 0-.2.1-.3.1h-.3c-.1 0-.2-.1-.2-.2-.4-1.4-1-2.5-1.9-3.1-.9-.7-2-1-3.3-1-1 0-1.9.2-2.6.7-.7.4-1.2 1-1.6 1.7-.4.7-.7 1.4-.8 2.3-.2.8-.2 1.7-.2 2.5 0 .9.1 1.8.3 2.6.2.9.5 1.7.9 2.4s1 1.3 1.7 1.7c.7.4 1.5.7 2.5.7.8 0 1.4-.1 2-.2.6-.1 1.1-.4 1.5-.7.5-.5.9-1 1.2-1.6.3-.6.5-1.4.6-2.2 0-.1.1-.2.1-.2h.3c.1 0 .2.1.3.1.1.1.1.1.1.2 0 .3-.1.6-.1.9v.9c0 .5 0 1.1.1 1.6 0 .6.1 1.1.1 1.8 0 .1 0 .2-.1.2s-.1.1-.2.1h-.2c-.1 0-.1-.1-.1-.2s-.1-.3-.2-.4l-.3-.3c-.1-.1-.3-.1-.4-.1s-.4.1-.6.2c-.3.2-.7.4-1 .5-.3.1-.6.2-1 .3-.3.1-.7.1-1 .2h-1.2c-2.8 0-4.9-.7-6.2-2.1-1.3-1.4-2-3.4-2-6 0-1.4.2-2.6.6-3.7.4-1.1 1-2 1.8-2.7.7-.7 1.6-1.3 2.7-1.6.5-.8 1.6-1 2.9-1M1970.3 266.3c0-.6 0-1.2-.1-1.7-.1-.6-.2-1.1-.4-1.5-.2-.4-.5-.8-.8-1.1-.4-.3-.8-.4-1.4-.4-.6 0-1.1.1-1.5.4-.4.3-.7.6-.9 1.1-.2.4-.4 1-.5 1.5-.1.6-.1 1.2-.1 1.8 0 .5 0 1.1.1 1.7.1.6.2 1.1.4 1.5s.5.8.9 1.1c.4.3.9.4 1.5.4s1.1-.1 1.5-.4c.4-.3.7-.7.9-1.1.2-.5.4-1 .4-1.5-.1-.6 0-1.2 0-1.8m2.4-.3c0 1-.1 1.8-.4 2.6-.3.7-.6 1.4-1.1 1.9-.5.5-1.1.9-1.8 1.1-.7.3-1.5.4-2.3.4-.7 0-1.4-.1-2-.4-.6-.2-1.2-.6-1.6-1.1-.5-.5-.8-1.1-1.1-1.8-.3-.7-.4-1.6-.4-2.6 0-.8.1-1.5.4-2.2.3-.7.6-1.2 1.1-1.7.5-.5 1.1-.8 1.7-1.1.7-.3 1.4-.4 2.2-.4.8 0 1.5.1 2.1.4.7.2 1.2.6 1.7 1s.8 1 1.1 1.7c.3.6.4 1.4.4 2.2M1978.3 268.9v1c0 .3.1.5.2.6.1.2.4.3.7.4.3.1.7.2 1.3.3.1 0 .1.1.2.1 0 .1.1.1.1.2s0 .2-.1.2c0 .1-.1.1-.2.1-.7 0-1.3 0-1.8-.1s-1-.1-1.5-.1-1 0-1.5.1-1 .1-1.5.1c-.1 0-.1 0-.2-.1 0-.1-.1-.1-.1-.2s0-.2.1-.2c0-.1.1-.1.2-.1.4-.1.8-.1 1-.2.2-.1.4-.2.5-.4.1-.2.2-.4.2-.6v-4.3-1.8c0-.4-.1-.8-.2-1-.1-.2-.3-.4-.6-.5-.3-.1-.6-.1-1-.2-.1 0-.1 0-.2-.1 0-.1-.1-.2-.1-.2s0-.2.1-.2c0-.1.1-.1.2-.1.4 0 .8-.1 1.1-.1.4 0 .7-.1 1.1-.1.3 0 .6-.1.8-.1.2 0 .4-.1.4-.1.3 0 .4.1.4.4v1.6h.1c.3-.7.6-1.2 1.1-1.6.5-.4 1.1-.6 1.9-.6.7 0 1.1.2 1.5.5.3.3.5.7.5 1.2 0 .3-.1.5-.3.8-.2.2-.5.3-.9.3s-.6-.1-.8-.3c-.1-.2-.2-.4-.2-.6 0-.5-.2-.7-.7-.7-.3 0-.6.1-.8.3-.2.2-.5.4-.6.7-.2.3-.3.5-.4.8-.1.3-.1.5-.1.7v4.2zM1990.9 264.9c.1 0 .2 0 .3-.1.1 0 .1-.1.1-.2v-.3-.3c0-.3-.1-.6-.2-.9-.1-.3-.3-.6-.4-.8-.2-.2-.4-.4-.7-.6-.3-.1-.6-.2-.9-.2-.4 0-.8.1-1.1.2-.3.1-.6.3-.8.6-.2.3-.4.5-.5.9-.1.3-.2.7-.2 1v.5c0 .1 0 .2.1.2h4.3zm-4.3.8c-.1 0-.1 0-.1.1v.2c0 .8.1 1.5.3 2.1.2.6.5 1 .8 1.4.3.4.7.6 1.2.8.5.2.9.2 1.5.2.5 0 1 0 1.5-.1s1-.3 1.4-.6c.1-.1.3-.1.4.1.1.2.2.3.1.4-.5.6-1.1 1.1-1.7 1.4-.6.3-1.4.4-2.3.4-.9 0-1.8-.1-2.5-.4-.7-.3-1.3-.7-1.7-1.2-.5-.5-.8-1.1-1-1.8-.2-.7-.3-1.4-.3-2.2 0-.8.1-1.5.4-2.2.3-.7.6-1.3 1.1-1.8.5-.5 1-.9 1.7-1.2.7-.3 1.4-.4 2.2-.4.7 0 1.3.1 1.8.3.5.2 1 .5 1.4.9.4.4.7.9.9 1.4.2.6.3 1.2.3 1.8 0 .3-.1.5-.4.5h-7zM1899.1 245.4c.7-.2 1.4-.3 2.1-.3.4 0 .7 0 1.1.1.4 0 .7.1 1.1.2h.2V239c-.6 1.1-1.3 2.1-2.1 3.2s-1.6 2.1-2.4 3.2m-2 .7c.8-.9 1.5-1.8 2.2-2.8.7-1 1.4-1.9 2.1-2.8s1.3-1.9 1.9-2.8c.6-.9 1.1-1.7 1.6-2.5.1-.1.1-.2.2-.2s.2-.1.3-.1c.1 0 .3 0 .4.1.1.1.2.1.2.2v10.3c0 .1 0 .2.1.2h.9c.2 0 .3-.1.5-.1.2-.1.3-.1.5-.2s.3-.1.3-.2.1-.1.2-.1h.2c.1 0 .1.1.1.1v.2c-.3.6-.7 1.1-1.1 1.4-.5.3-.9.5-1.3.5-.1 0-.2 0-.2.1v3.5c-.2 0-.4.1-.6.1h-1.2c-.2 0-.4-.1-.6-.1v-3.5c0-.2 0-.2-.1-.3 0 0-.2-.1-.4-.1-.7-.1-1.4-.2-2.4-.2-.5 0-1 0-1.6.1-.5 0-1.1.1-1.6.3-.1 0-.2 0-.3-.1-.1-.1-.2-.2-.2-.3-.1-.1-.1-.3-.1-.4v-.3M1912.9 247.3c0 .9.1 1.5.3 2 .2.4.6.6 1.1.6.4 0 .7-.1 1-.2.3-.1.6-.2.7-.4h.2c.1 0 .1.1.2.1.1.1.1.1.1.2v.2c-.3.5-.7.8-1.2 1s-1 .3-1.7.3c-1.1 0-1.8-.2-2.3-.7-.4-.5-.7-1.2-.7-2.3V242v-.4c0-.1-.1-.2-.1-.2-.1-.1-.2-.1-.4-.1h-.8c-.1 0-.1-.1-.1-.2s-.1-.2-.1-.3v-.3c0-.1.1-.1.1-.1.4 0 .7-.1.9-.2.3-.1.5-.2.7-.4.2-.2.3-.4.5-.8.1-.3.2-.7.3-1.2 0-.1.1-.2.2-.2s.3-.1.4-.1c.1 0 .2 0 .4.1.1 0 .2.1.2.1v2.4s.1.1.3.1h2.5c.1 0 .2 0 .2.1v.4c0 .2 0 .3-.1.4 0 .1-.1.1-.2.1h-2.6c-.1 0-.2 0-.2.1v6zM1921.2 241.6c0 .1.1.1.1 0 .4-.5.9-1 1.5-1.2.6-.3 1.2-.4 1.8-.4 1.3 0 2.3.4 2.9 1.1.6.7.9 1.7.9 2.9v5.4c0 .3.1.4.2.6.1.1.2.3.4.3.2.1.4.1.8.2.1 0 .1.1.2.1 0 .1.1.1.1.2s0 .2-.1.2-.1.1-.2.1c-.2 0-.6 0-1-.1s-.9-.1-1.4-.1c-.5 0-1 0-1.5.1s-.9.1-1.2.1c0 0-.1 0-.1-.1s-.1-.1-.1-.2v-.2c0-.1.1-.1.2-.1.4 0 .6-.1.8-.2.2-.1.3-.2.4-.4.1-.2.1-.4.2-.6v-4.6c0-.4 0-.8-.1-1.2-.1-.4-.2-.7-.3-1.1-.1-.3-.4-.6-.6-.8s-.7-.3-1.1-.3c-.5 0-.9.1-1.3.3-.4.2-.6.4-.9.7-.2.3-.4.5-.5.8-.1.3-.2.6-.2.8v5.2c0 .3.1.5.1.7.1.2.2.3.4.4.2.1.4.1.7.2.1 0 .1.1.2.1 0 .1.1.1.1.2s0 .2-.1.2c0 .1-.1.1-.1.1-.2 0-.5 0-1-.1-.4-.1-.9-.1-1.4-.1-.5 0-1 0-1.4.1-.5.1-.9.1-1.2.1-.1 0-.1 0-.2-.1 0-.1-.1-.1-.1-.2v-.2c0-.1.1-.1.2-.1.3 0 .6-.1.8-.2.2-.1.4-.2.4-.4.1-.2.2-.4.2-.6v-10.3c0-.7 0-1.2-.1-1.6 0-.4-.1-.7-.2-.9-.1-.2-.3-.4-.6-.4-.3-.1-.6-.1-1-.2-.1 0-.1 0-.2-.1 0-.1-.1-.2-.1-.3 0-.1 0-.2.1-.3 0-.1.1-.1.2-.1.3 0 .7-.1 1.1-.1.4-.1.8-.1 1.1-.2.4-.1.7-.1.9-.1.3 0 .5-.1.6-.1.1 0 .2 0 .3.1 0 .1.1.1.1.2v6.8zM1952.3 249c0 .1 0 .2-.1.2-.4.3-.8.6-1.2.8-.4.2-.8.5-1.3.6-.5.2-1 .3-1.7.4-.6.1-1.4.1-2.3.1-1.3 0-2.4-.2-3.4-.6-1-.4-1.8-.9-2.5-1.6-.7-.7-1.2-1.6-1.5-2.6-.4-1-.5-2.2-.5-3.5 0-1.3.2-2.5.6-3.6.4-1 1-1.9 1.7-2.6.7-.7 1.6-1.2 2.6-1.6 1-.4 2.1-.5 3.3-.5.8 0 1.5.1 2.2.3.7.2 1.3.4 1.9.7.3.2.6.3.8.3.2 0 .4-.1.5-.4 0-.1.1-.1.1-.2h.3c.1 0 .2 0 .2.1.1 0 .1.1.1.2-.1.6-.2 1.3-.1 2 0 .7.1 1.5.2 2.3 0 .1 0 .2-.1.2-.1.1-.2.1-.3.1h-.3c-.1 0-.1-.1-.2-.2-.2-1.4-.8-2.4-1.8-3.2-1-.7-2.2-1.1-3.6-1.1-.9 0-1.7.2-2.3.6-.7.4-1.2.9-1.6 1.6-.4.7-.7 1.4-.9 2.2-.2.8-.3 1.6-.3 2.5 0 1.1.1 2.2.3 3.1.2.9.6 1.7 1 2.4s1 1.2 1.6 1.5c.6.4 1.4.5 2.2.5.6 0 1.2 0 1.7-.1s.9-.2 1.3-.5c.4-.2.6-.5.8-.9.2-.4.3-.9.3-1.5 0-.5 0-.8-.1-1.1-.1-.3-.2-.5-.4-.6s-.4-.2-.7-.3c-.3-.1-.7-.1-1.2-.1-.1 0-.2 0-.2-.1s-.1-.2-.1-.2c0-.1 0-.2.1-.2 0-.1.1-.1.2-.1.6 0 1.1 0 1.7.1.6 0 1.1.1 1.6.1h2.7c.1 0 .1 0 .2.1 0 .1.1.1.1.2s0 .2-.1.2c0 .1-.1.1-.2.1-.3 0-.6.1-.8.2-.2.1-.3.2-.4.3-.1.1-.1.3-.2.5V249zM1962.3 244.1c.1 0 .2 0 .3-.1.1 0 .1-.1.1-.2v-.3-.3c0-.3-.1-.6-.2-1-.1-.3-.3-.6-.4-.8-.2-.2-.4-.4-.7-.6-.3-.1-.6-.2-.9-.2-.4 0-.8.1-1.1.2-.3.1-.6.3-.8.6-.2.2-.4.5-.5.9-.1.3-.2.7-.2 1v.5c0 .1 0 .2.1.2h4.3zm-4.3.8c-.1 0-.1 0-.1.1v.2c0 .8.1 1.5.3 2.1.2.6.5 1 .8 1.4.3.4.7.6 1.2.8.5.2.9.2 1.5.2.5 0 1 0 1.5-.1s1-.3 1.4-.6c.1-.1.3-.1.4.1.1.2.2.3.1.4-.5.6-1.1 1.1-1.7 1.4-.6.3-1.4.4-2.3.4-.9 0-1.8-.1-2.5-.4-.7-.3-1.3-.7-1.7-1.2-.5-.5-.8-1.1-1-1.8-.2-.7-.3-1.4-.3-2.2 0-.8.1-1.5.4-2.2.3-.7.6-1.3 1.1-1.8.5-.5 1-.9 1.7-1.2.7-.3 1.4-.4 2.2-.4.7 0 1.3.1 1.8.3.5.2 1 .5 1.4.9.4.4.7.9.9 1.4.2.6.3 1.2.3 1.8 0 .3-.1.5-.4.5h-7zM1970.4 248.1c0 .8.1 1.3.4 1.7.3.3.7.5 1.3.6.1 0 .2.1.2.1 0 .1.1.1.1.2s0 .2-.1.2c0 .1-.1.1-.2.1h-.4c-.2 0-.4 0-.7-.1-.3 0-.5 0-.8-.1h-.8c-.5 0-1 0-1.4.1-.5.1-.9.1-1.3.1-.1 0-.1 0-.2-.1s-.1-.1-.1-.2 0-.2.1-.2c0-.1.1-.1.2-.1.4-.1.7-.1.9-.2.2-.1.4-.2.5-.3.1-.2.2-.3.2-.6v-4-1.9c0-.5-.1-.9-.2-1.2-.1-.3-.3-.5-.5-.6-.2-.1-.5-.2-1-.2-.1 0-.2 0-.2-.1s-.1-.2-.1-.2v-.2c0-.1.1-.1.1-.1.9-.1 1.7-.2 2.3-.3.6-.1 1-.2 1.2-.2.2 0 .3 0 .4.1.1.1.1.2.1.4v.2c0 .1-.1.3-.1.4 0 .2-.1.3-.1.5v.3h.1c.1-.2.3-.4.5-.7.2-.2.5-.5.8-.7.3-.2.7-.4 1.1-.6.4-.2.8-.2 1.3-.2 1.1 0 2 .3 2.6 1 .6.7.9 1.7.9 3.2v5c0 .3.1.5.2.6.1.2.2.3.4.4.2.1.5.2.8.2.1 0 .1.1.2.1 0 .1.1.1.1.2s0 .2-.1.2c0 .1-.1.1-.2.1-.2 0-.6 0-1.1-.1-.5-.1-1-.1-1.4-.1-.5 0-1 0-1.4.1-.4.1-.8.1-1.1.1-.1 0-.1 0-.2-.1 0-.1-.1-.1-.1-.2v-.2c0-.1.1-.1.2-.1.3-.1.6-.1.7-.2.2-.1.3-.2.4-.4.1-.2.1-.4.2-.6v-4.5-1.2c0-.4-.1-.7-.2-1.1-.1-.3-.3-.6-.6-.8-.3-.2-.6-.3-1.1-.3-.9 0-1.7.3-2.2.9-.5.6-.8 1.5-.8 2.6v3.3z" fill="#5D5D5D"/>
<path d="M1143 0h-39.7v18.3h36.7v326.5h18.3V0z" fill="#DCDCDC"/>
<path d="m1158.3 292.5h467v-240.2h-467zm86 20.2h216.2v-20.2h-216.2z" fill="#03A678"/>
<path d="m1244.3 332.8h216.2v-20.1h-216.2z" fill="#F6AB35"/>
<path d="m1271 324.6h6.8v-11.9h-6.8zm-12.4 0h6.7v-11.9h-6.7zm24.9 0h6.8v-11.9h-6.8zm12.5 0h6.7v-11.9h-6.7zm12.4 0h6.8v-11.9h-6.8zm12.5 0h6.8v-11.9h-6.8zm12.5 0h6.7v-11.9h-6.7zm12.4 0h6.8v-11.9h-6.8zm12.5 0h6.7v-11.9h-6.7zm12.5 0h6.7v-11.9h-6.7zm12.4 0h6.8v-11.9h-6.8zm12.5 0h6.7v-11.9h-6.7zm12.4 0h6.8v-11.9h-6.8zm12.5 0h6.8v-11.9h-6.8zm12.5 0h6.7v-11.9h-6.7zm12.4 0h6.8v-11.9h-6.8z" fill="#F99406"/>
<path d="m1525.9 312.7h99.4v-20.2h-99.4z" fill="#03A678"/>
<path d="m1525.9 332.8h99.4v-20.1h-99.4z" fill="#F6AB35"/>
<path d="m1541.5 324.6h6.7v-11.9h-6.7zm-12.5 0h6.8v-11.9h-6.8zm25 0h6.7v-11.9h-6.7zm12.4 0h6.8v-11.9h-6.8zm12.5 0h6.7v-11.9h-6.7zm12.4 0h6.8v-11.9h-6.8zm12.5 0h6.8v-11.9h-6.8zm12.5 0h6.7v-11.9h-6.7z" fill="#F99406"/>
<path d="m1128.7 83.6-11.3 11.3v55.4l11.3 11.4h11.3v-78.1z" fill="#59ABE3"/>
<path d="m1122.7 272.3h8.6v-57.6h-8.6z" fill="#DCDCDC"/>
<path d="m1131.3 272.3h8.7v-57.6h-8.7zm-13.9-192.5h22.6v-6h-22.6zm0 92.6h22.6v-6h-22.6zm479 81.9c0 14.7-11.9 26.6-26.6 26.6s-26.6-11.9-26.6-26.6 11.9-26.6 26.6-26.6 26.6 11.9 26.6 26.6" fill="#9C9C9C"/>
<path d="m1592.5 254.3c0 12.5-10.2 22.7-22.7 22.7s-22.7-10.2-22.7-22.7 10.2-22.7 22.7-22.7 22.7 10.2 22.7 22.7" fill="#CFCFCF"/>
<path d="m1557.8 247.1h8.3v-2.3h-8.3zm15.1 0h8.2v-2.3h-8.2zm-7.2 8.3h8.2v-2.2h-8.2zm10 7.5h8.2v-2.2h-8.2zm-20.3 0h8.3v-2.2h-8.3z" fill="#9C9C9C"/>
<path d="M1558.6 168.6c-.1 5.4-.7 10.7-1.8 15.9-4.7 21.4-18.3 39.9-37.4 50.8-3.9 2.2-8 4.1-12.3 5.7-8.4 3-17.3 4.6-26.3 4.6-16.1 0-31.5-4.9-44.6-14.1-5.2-3.6-9.9-7.9-14.1-12.7-12.3-14.1-19.1-32.3-19.1-51.1v-.8c.1-5.4.7-10.7 1.8-15.9 4.6-21 17.9-39.3 36.4-50.2 3.9-2.3 8-4.3 12.3-5.9 8.7-3.3 17.9-4.9 27.3-4.9 15.5 0 30.5 4.6 43.4 13.2 5.3 3.5 10.1 7.7 14.3 12.4 13 14.3 20.1 32.8 20.1 52.2v.8m-31.2-69.9c-13.8-9.3-29.9-14.2-46.6-14.2-10.1 0-20 1.8-29.3 5.3-4.5 1.7-9 3.8-13.2 6.3-19.9 11.8-34.2 31.4-39.1 53.9-1.2 5.6-1.9 11.3-1.9 17.1v.9c0 20.2 7.3 39.6 20.5 54.8 4.5 5.1 9.5 9.7 15.1 13.6 14.1 9.9 30.7 15.1 47.9 15.1 9.7 0 19.2-1.6 28.2-4.9 4.6-1.6 9-3.7 13.2-6.1 20.5-11.7 35.1-31.6 40.2-54.6 1.2-5.6 1.9-11.3 1.9-17.1v-.9c0-20.7-7.7-40.6-21.6-56-4.5-4.9-9.7-9.4-15.3-13.2" fill="#FFF"/>
<path d="M1564.3 168.9c-.1 5.8-.7 11.5-1.9 17.1-5 22.9-19.7 42.8-40.2 54.6-4.2 2.4-8.6 4.5-13.2 6.1-9 3.2-18.5 4.9-28.2 4.9-17.3 0-33.8-5.2-47.9-15.1-5.6-3.9-10.6-8.5-15.1-13.6-13.2-15.2-20.5-34.7-20.5-54.8v-.9c.1-5.8.7-11.5 1.9-17.1 4.9-22.5 19.2-42.2 39.1-53.9 4.2-2.5 8.6-4.6 13.2-6.3 9.4-3.5 19.2-5.3 29.3-5.3 16.7 0 32.8 4.9 46.6 14.2 5.7 3.8 10.8 8.3 15.4 13.3 13.9 15.4 21.6 35.3 21.6 56-.1.2-.1.5-.1.8m-19.6-58.6c-4.7-5.2-10.1-9.8-15.9-13.8-14.2-9.6-30.8-14.6-48-14.6-10.4 0-20.6 1.8-30.2 5.5-4.7 1.8-9.3 3.9-13.6 6.5-20.5 12.1-35.2 32.4-40.3 55.6-1.3 5.7-1.9 11.7-2 17.6v.9c0 20.8 7.5 40.9 21.1 56.5 4.6 5.3 9.8 10 15.5 14 14.5 10.2 31.6 15.6 49.4 15.6 10 0 19.8-1.7 29.1-5 4.7-1.7 9.3-3.8 13.6-6.3 21.1-12.1 36.2-32.6 41.4-56.2 1.3-5.8 1.9-11.7 2-17.6v-.9c.1-21.5-7.8-42-22.1-57.8" fill="#67809F"/>
<path d="M1515.6 154.1c-3.3 3.3-6.8 5.7-10.4 7.6.5 2 .8 4.1.8 6.3 0 3.3-.6 6.5-1.8 9.4 12.2 1.6 27.9-1.9 51.7-17.2-1.6-15.8-8.1-30.6-18.7-42.5-6.5 16.2-13.6 28.9-21.6 36.4M1462.1 151.3c4.1-4.6 10-7.7 16.5-8.3-1.2-2.8-2.8-5.5-5.1-8.3-6.8-9-20-18.2-37.5-27.5-14.5 10.7-24.8 26.3-28.8 43.9 27.9-6.8 44-5.2 54.9.2M1499.8 184.5c-4.1 4.7-9.8 7.8-16.3 8.5 1.2 2.7 2.9 5.4 5.2 8.2 6.9 8.9 20.2 17.9 37.5 26.9 14.1-10.7 24.2-26.1 28.1-43.5-27.6 6.8-43.6 5.2-54.5-.1M1484 133.1c1.5 3.7 2.3 7.2 2.6 10.5 6.6 1.6 12.3 5.8 15.7 11.5 2.9-2.9 5.5-6.4 7.5-10.7 4.9-9.7 7.2-23.9 6.9-42.8-11-6-23.3-9.1-36-9.1-8.9 0-17.6 1.5-25.9 4.6 15.6 13.8 25.3 25.8 29.2 36M1445.9 180.9c3.3-3.2 6.8-5.6 10.4-7.3-.4-1.8-.6-3.7-.6-5.6 0-3.3.6-6.5 1.8-9.4-12.2-1.6-27.9 1.9-51.7 17.2 1.6 15.1 7.8 29.5 17.7 41.1 6.8-16 14.1-28.5 22.4-36M1477 202.6c-1.4-3.6-2.2-7-2.4-10.2-6.3-1.6-11.7-5.7-15.1-11.1-2.9 2.9-5.4 6.5-7.4 10.9-4.6 9.7-6.7 23.8-6 42.7 10.7 5.5 22.5 8.4 34.7 8.4 8.6 0 16.9-1.4 24.9-4.2-15.4-14.2-24.8-26.3-28.7-36.5" fill="#F6D76E"/>
<path d="M1504.2 177.4c1.2-2.9 1.8-6.1 1.8-9.4 0-2.2-.3-4.3-.8-6.3 3.6-1.8 7.1-4.2 10.4-7.6 8-7.6 15.1-20.3 21.6-36.5a75.4 75.4 0 0 1 18.7 42.5c-23.8 15.4-39.5 18.9-51.7 17.3m22 50.7c-17.4-9-30.6-18-37.5-26.9-2.3-2.7-3.9-5.5-5.2-8.2 6.5-.7 12.2-3.9 16.3-8.5 10.9 5.3 26.9 6.8 54.6.1-4 17.4-14 32.8-28.2 43.5m-45.4 15.2c-12.2 0-24-2.9-34.7-8.4-.7-18.9 1.4-33 6-42.7 2-4.4 4.5-8 7.4-10.9 3.4 5.4 8.8 9.5 15.1 11.1.2 3.2 1 6.6 2.4 10.2 3.8 10.2 13.2 22.3 28.7 36.5-8 2.8-16.3 4.2-24.9 4.2m-75-67.5c23.8-15.3 39.5-18.8 51.7-17.2-1.2 2.9-1.8 6.1-1.8 9.4 0 1.9.2 3.8.6 5.6-3.6 1.8-7.1 4.1-10.4 7.3-8.2 7.4-15.6 20-22.4 36-10-11.6-16.1-25.9-17.7-41.1m30.2-68.7c17.5 9.3 30.7 18.5 37.5 27.5 2.2 2.8 3.9 5.6 5.1 8.3-6.5.6-12.3 3.7-16.5 8.3-10.9-5.3-26.9-7-54.8-.2 3.9-17.6 14.2-33.2 28.7-43.9m22.2 60.9c0-12.5 10.1-22.6 22.6-22.6 12.4 0 22.6 10.1 22.6 22.6 0 12.4-10.1 22.6-22.6 22.6-12.4 0-22.6-10.1-22.6-22.6m22.6-75.6c12.7 0 25 3.1 36 9.1.3 18.9-2.1 33.1-6.9 42.8-2.1 4.4-4.6 7.8-7.5 10.7-3.4-5.7-9.1-9.9-15.7-11.5-.3-3.3-1.1-6.8-2.6-10.5-4-10.2-13.6-22.2-29.1-36.1 8.2-3 16.9-4.5 25.8-4.5m43.4 10.8c-12.8-8.6-27.8-13.2-43.4-13.2-9.4 0-18.6 1.7-27.3 4.9-4.2 1.6-8.4 3.6-12.3 5.9-18.5 11-31.8 29.3-36.4 50.2-1.1 5.2-1.7 10.5-1.8 15.9v.8c0 18.8 6.8 36.9 19.1 51.1 4.1 4.8 8.9 9 14 12.7 13.1 9.2 28.6 14.1 44.6 14.1 9 0 17.9-1.5 26.3-4.6 4.2-1.5 8.4-3.4 12.3-5.7 19.1-10.9 32.7-29.4 37.4-50.8 1.1-5.2 1.7-10.6 1.8-15.9v-.8c0-19.3-7.1-37.9-20.1-52.2-4.1-4.6-9-8.8-14.2-12.4" fill="#363636"/>
<path d="m1480.8 171.5c-1.9 0-3.5-1.6-3.5-3.5s1.6-3.5 3.5-3.5 3.5 1.6 3.5 3.5c0 2-1.6 3.5-3.5 3.5m22.6-3.5c0-12.4-10.1-22.6-22.6-22.6s-22.6 10.1-22.6 22.6 10.1 22.6 22.6 22.6 22.6-10.1 22.6-22.6" fill="#89729E"/>
<path d="M1480.8 164.5c-1.9 0-3.5 1.6-3.5 3.5s1.6 3.5 3.5 3.5 3.5-1.6 3.5-3.5-1.6-3.5-3.5-3.5M1357.2 167c-.1 5.4-.7 10.7-1.8 15.9-4.7 21.4-18.3 39.9-37.4 50.8-3.9 2.2-8 4.1-12.3 5.7-8.4 3-17.3 4.6-26.3 4.6-16.1 0-31.5-4.9-44.6-14.1-5.2-3.6-9.9-7.9-14.1-12.7-12.3-14.1-19.1-32.3-19.1-51.1v-.8c.1-5.4.7-10.7 1.8-15.9 4.6-21 17.9-39.3 36.4-50.2 3.9-2.3 8-4.3 12.3-5.9 8.7-3.3 17.9-4.9 27.3-4.9 15.5 0 30.5 4.6 43.4 13.2 5.3 3.5 10.1 7.7 14.3 12.4 13 14.3 20.1 32.8 20.1 52.2v.8m-31.3-70c-13.8-9.3-29.9-14.2-46.6-14.2-10.1 0-20 1.8-29.3 5.3-4.5 1.7-9 3.8-13.2 6.3-19.9 11.8-34.2 31.4-39.1 53.9-1.2 5.6-1.9 11.3-1.9 17.1v.9c0 20.2 7.3 39.6 20.5 54.8 4.5 5.1 9.5 9.7 15.1 13.6 14.1 9.9 30.7 15.1 47.9 15.1 9.7 0 19.2-1.6 28.2-4.9 4.6-1.6 9-3.7 13.2-6.1 20.5-11.7 35.1-31.6 40.2-54.6 1.2-5.6 1.9-11.3 1.9-17.1v-.9c0-20.7-7.7-40.6-21.6-56-4.4-4.9-9.6-9.4-15.3-13.2" fill="#FFF"/>
<path d="M1362.9 167.3c-.1 5.8-.7 11.5-1.9 17.1-5 22.9-19.7 42.8-40.2 54.6-4.2 2.4-8.6 4.5-13.2 6.1-9 3.2-18.5 4.9-28.2 4.9-17.3 0-33.8-5.2-47.9-15.1-5.6-3.9-10.6-8.5-15.1-13.6-13.2-15.2-20.5-34.7-20.5-54.8v-.9c.1-5.8.7-11.5 1.9-17.1 4.9-22.5 19.2-42.2 39.1-53.9 4.2-2.5 8.6-4.6 13.2-6.3 9.4-3.5 19.2-5.3 29.3-5.3 16.7 0 32.8 4.9 46.6 14.2 5.7 3.8 10.8 8.3 15.4 13.3 13.9 15.4 21.6 35.3 21.6 56-.1.2-.1.5-.1.8m-19.6-58.7c-4.7-5.2-10.1-9.8-15.9-13.8-14.2-9.6-30.8-14.6-48-14.6-10.4 0-20.6 1.8-30.2 5.5-4.7 1.8-9.3 3.9-13.6 6.5-20.5 12.1-35.2 32.4-40.3 55.6-1.3 5.7-1.9 11.7-2 17.6v.9c0 20.8 7.5 40.9 21.1 56.5 4.6 5.3 9.8 10 15.5 14 14.5 10.2 31.6 15.6 49.4 15.6 10 0 19.8-1.7 29.1-5 4.7-1.7 9.3-3.8 13.6-6.3 21.1-12.1 36.2-32.6 41.4-56.2 1.3-5.8 1.9-11.7 2-17.6v-.9c.1-21.4-7.8-41.9-22.1-57.8" fill="#67809F"/>
<path d="M1314.2 152.5c-3.3 3.3-6.8 5.7-10.4 7.6.5 2 .8 4.1.8 6.3 0 3.3-.6 6.5-1.8 9.4 12.2 1.6 27.9-1.9 51.7-17.2-1.6-15.8-8.1-30.6-18.7-42.5-6.5 16.1-13.6 28.8-21.6 36.4M1260.6 149.6c4.1-4.6 10-7.7 16.5-8.3-1.2-2.8-2.8-5.5-5.1-8.3-6.8-9-20-18.2-37.5-27.5-14.5 10.7-24.8 26.3-28.8 43.9 28-6.8 44.1-5.1 54.9.2M1298.4 182.9c-4.1 4.7-9.8 7.8-16.3 8.5 1.2 2.7 2.9 5.4 5.2 8.2 6.9 8.9 20.2 17.9 37.5 26.9 14.1-10.7 24.2-26.1 28.1-43.5-27.6 6.7-43.7 5.1-54.5-.1M1282.6 131.4c1.5 3.7 2.3 7.2 2.6 10.5 6.6 1.6 12.3 5.8 15.7 11.5 2.9-2.9 5.5-6.4 7.5-10.7 4.9-9.7 7.2-23.9 6.9-42.8-11-6-23.3-9.1-36-9.1-8.9 0-17.6 1.5-25.9 4.6 15.6 13.8 25.2 25.9 29.2 36M1244.4 179.3c3.3-3.2 6.8-5.6 10.4-7.3-.4-1.8-.6-3.7-.6-5.6 0-3.3.6-6.5 1.8-9.4-12.2-1.6-27.9 1.9-51.7 17.2 1.6 15.1 7.8 29.5 17.7 41.1 6.9-16 14.2-28.6 22.4-36M1275.6 201c-1.4-3.6-2.2-7-2.4-10.2-6.3-1.6-11.7-5.7-15.1-11.1-2.9 2.9-5.4 6.5-7.4 10.9-4.6 9.7-6.7 23.8-6 42.7 10.7 5.5 22.5 8.4 34.7 8.4 8.6 0 16.9-1.4 24.9-4.2-15.4-14.2-24.9-26.3-28.7-36.5" fill="#F6D76E"/>
<path d="M1302.8 175.8c1.2-2.9 1.8-6.1 1.8-9.4 0-2.2-.3-4.3-.8-6.3 3.6-1.8 7.1-4.2 10.4-7.6 8-7.6 15.1-20.3 21.6-36.5a75.4 75.4 0 0 1 18.7 42.5c-23.8 15.4-39.5 18.9-51.7 17.3m22 50.7c-17.4-9-30.6-18-37.5-26.9-2.3-2.7-3.9-5.5-5.2-8.2 6.5-.7 12.2-3.9 16.3-8.5 10.9 5.3 26.9 6.8 54.6.1-4 17.4-14 32.8-28.2 43.5m-45.4 15.2c-12.2 0-24-2.9-34.7-8.4-.7-18.9 1.4-33 6-42.7 2-4.4 4.5-8 7.4-10.9 3.4 5.4 8.8 9.5 15.1 11.1.2 3.2 1 6.6 2.4 10.2 3.8 10.2 13.2 22.3 28.7 36.5-8 2.7-16.4 4.2-24.9 4.2m-75.1-67.5c23.8-15.3 39.5-18.8 51.7-17.2-1.2 2.9-1.8 6.1-1.8 9.4 0 1.9.2 3.8.6 5.6-3.6 1.8-7.1 4.1-10.4 7.3-8.2 7.4-15.6 20-22.4 36-9.9-11.6-16-26-17.7-41.1m30.3-68.7c17.5 9.3 30.7 18.5 37.5 27.5 2.2 2.8 3.9 5.6 5.1 8.3-6.5.6-12.3 3.7-16.5 8.3-10.9-5.4-26.9-7-54.8-.2 3.9-17.6 14.2-33.2 28.7-43.9m22.2 60.9c0-12.4 10.1-22.6 22.6-22.6 12.4 0 22.6 10.1 22.6 22.6s-10.1 22.6-22.6 22.6c-12.5 0-22.6-10.2-22.6-22.6m22.6-75.7c12.7 0 25 3.1 36 9.1.3 18.9-2.1 33.1-6.9 42.8-2.1 4.4-4.6 7.8-7.5 10.7-3.4-5.7-9.1-9.9-15.7-11.5-.3-3.3-1.1-6.8-2.6-10.5-4-10.2-13.6-22.2-29.1-36.1 8.2-2.9 16.9-4.5 25.8-4.5m43.3 10.9c-12.8-8.6-27.8-13.2-43.4-13.2-9.4 0-18.6 1.7-27.3 4.9-4.2 1.6-8.4 3.6-12.3 5.9-18.5 11-31.8 29.3-36.4 50.2-1.1 5.2-1.7 10.5-1.8 15.9v.8c0 18.8 6.8 36.9 19.1 51.1 4.1 4.8 8.9 9 14 12.7 13.1 9.2 28.6 14.1 44.6 14.1 9 0 17.9-1.5 26.3-4.6 4.2-1.5 8.4-3.4 12.3-5.7 19.1-10.9 32.7-29.4 37.4-50.8 1.1-5.2 1.7-10.6 1.8-15.9v-.8c0-19.3-7.1-37.9-20.1-52.2-4.1-4.7-8.9-8.9-14.2-12.4" fill="#363636"/>
<path d="m1279.4 169.9c-1.9 0-3.5-1.6-3.5-3.5s1.6-3.5 3.5-3.5 3.5 1.6 3.5 3.5-1.6 3.5-3.5 3.5m22.6-3.5c0-12.5-10.1-22.6-22.6-22.6s-22.6 10.1-22.6 22.6c0 12.4 10.1 22.6 22.6 22.6 12.4 0 22.6-10.2 22.6-22.6" fill="#89729E"/>
<path d="m1279.4 162.9c-1.9 0-3.5 1.6-3.5 3.5s1.6 3.5 3.5 3.5 3.5-1.6 3.5-3.5-1.6-3.5-3.5-3.5" fill="#FFF"/>
<path d="m1349.9 270.5h48.4v-20.6h-48.4z" fill="#828282"/>
<path d="m1353.7 266.7h40.9v-13.1h-40.9v13.1zm-7.5 7.6h55.9v-28.1h-55.9v28.1z" fill="#5D5D5D"/>
<path d="m1387.8 285.3h6.8v-11h-6.8zm0-39.2h6.8v-11h-6.8zm-12 0h6.8v-11h-6.8zm-12 0h6.8v-11h-6.8zm-11.2 0h6.8v-11h-6.8zm23.2 39.2h6.8v-11h-6.8zm-12 0h6.8v-11h-6.8zm-11.2 0h6.8v-11h-6.8zm-180.9-14.8h48.4v-20.6h-48.4z" fill="#828282"/>
<path d="m1175.4 266.8h40.9v-13.1h-40.9v13.1zm-7.5 7.5h55.9v-28.1h-55.9v28.1z" fill="#5D5D5D"/>
<path d="m1209.6 285.3h6.7v-11h-6.7zm0-39.1h6.7v-11.1h-6.7zm-12 0h6.7v-11.1h-6.7zm-12.1 0h6.8v-11.1h-6.8zm-11.2 0h6.8v-11.1h-6.8zm23.3 39.1h6.7v-11h-6.7zm-12.1 0h6.8v-11h-6.8zm-11.2 0h6.8v-11h-6.8zm402.7-195.6h28.6v-12.2h-28.6z" fill="#828282"/>
<path d="M1579.3 87.4h24.2v-7.7h-24.2v7.7zm-4.5 4.5h33V75.3h-33v16.6z" fill="#5D5D5D"/>
<path d="m1599.4 98.4h4v-6.5h-4zm0-23.1h4v-6.5h-4zm-7.1 0h4v-6.5h-4zm-7.1 0h4v-6.5h-4zm-6.6 0h4v-6.5h-4zm13.7 23.1h4v-6.5h-4zm-7.1 0h4v-6.5h-4zm-6.6 0h4v-6.5h-4zm-1.6 29.7h28.6v-12.1h-28.6z" fill="#828282"/>
<path d="m1579.3 125.9h24.2v-7.7h-24.2v7.7zm-4.5 4.5h33v-16.6h-33v16.6z" fill="#5D5D5D"/>
<path d="m1599.4 136.9h4v-6.5h-4zm0-23.1h4v-6.5h-4zm-7.1 0h4v-6.5h-4zm-7.1 0h4v-6.5h-4zm-6.6 0h4v-6.5h-4zm13.7 23.1h4v-6.5h-4zm-7.1 0h4v-6.5h-4zm-6.6 0h4v-6.5h-4z" fill="#828282"/>
</svg>
