<?xml version="1.0" encoding="UTF-8"?>
<svg viewBox="0 0 400 211.92" xmlns="http://www.w3.org/2000/svg">
<path d="m202.47 0h40.655v211.92h-40.655zm40.655 207.11h18.783v4.8193h-18.783z" fill="#282424"/>
<path d="m15.261 0h6.2403v1.1739h177.57v-1.1739h6.2403c13.84 0.55607 15.261 12.604 15.261 12.604v177.2s0.37071 3.5218-1.2975 5.2518c-3.2128 3.3364-14.334 14.396-16.806 16.867h-186.35s-13.16-12.728-14.52-13.346c-0.92678-1.2357-1.6064-3.3364-1.6064-8.4646v-177.57s1.4829-11.925 15.261-12.542z" fill="#312f2f"/>
<path d="m202.6 211.49c-0.0618 0.18536-0.0618 0.30893-0.12358 0.37071h-185.11s-5.0664-85.326 25.826-89.527c5.6843-0.67964 12.851 0.80322 28.977 4.6957 16.188 3.8307 59.252 3.8307 75.44 0s23.231-4.6957 28.977-4.6957c10.689 0 17.3 10.442 21.316 24.22 7.2289 24.776 5.9314 60.303 4.6957 64.937z" fill="#3f3f3f"/>
<path d="m110.35 132.9c-21.872 0-26.197-1.0504-29.966-1.5446-3.7071-0.49428-2.595 2.9039-2.595 2.9039s1.9154 12.604 2.1625 17.362c0.24714 4.7575 5.3753 4.1396 5.3753 4.1396h50.046s5.1282 0.67964 5.3754-4.1396c0.24714-4.8193 2.1625-17.362 2.1625-17.362s1.1121-3.3982-2.595-2.9039c-3.7689 0.49429-8.1557 1.5446-29.966 1.5446z" fill="#181515"/>
<ellipse cx="110.35" cy="65.493" rx="93.976" ry="54.001" fill="#30302f"/>
<ellipse cx="110.35" cy="65.369" rx="92.987" ry="52.95" fill="#181515"/>
<ellipse cx="110.35" cy="64.133" rx="76.429" ry="42.941" fill="#2c2929"/>
<path d="m110.23 81.742-4.6957 4.9428h9.5768" fill="#241c1e"/>
<g fill="#eff8fb">
<path d="m124.99 147.67h-4.6957v-1.1121h3.2129c-0.24714-0.67964-0.4325-1.2975-0.61786-1.8536-0.49428-1.4211-0.92678-2.9039-1.4211-4.325-0.12357-0.37071-0.4325-0.74143-0.74143-0.865-0.49428-0.12357-0.67964 0.4325-0.80321 0.865-0.74143 2.2243-1.4211 4.3868-2.1625 6.6111-0.18536 0.49428-0.37071 0.67964-0.92678 0.67964-1.4211-0.061786-2.9039 0-4.325 0-1.4829 0-2.4096-0.98857-2.4096-2.4714 0-1.3593-0.061786-2.7186 0-4.0778 0.061786-1.5446 0.92678-2.4714 2.4096-2.4714h3.9543v1.1739h-3.3364c-1.5446 0-1.9154 0.37071-1.9154 2.0389v3.0893c0 1.1121 0.49428 1.6064 1.5446 1.6682h2.5332v-3.5836h-2.1007v-1.1121h3.3364v4.6957h0.18536c0.67964-2.1625 1.4211-4.325 2.1007-6.4875 0.37071-1.2357 1.1121-1.73 2.3479-1.5446 0.67964 0.12357 1.1739 0.49428 1.3593 1.1121 0.865 2.595 1.6682 5.19 2.5332 7.785 0 0.061786-0.061786 0.12357-0.061786 0.18536zm-29.348 0v-1.1121h3.7071c1.0504 0 1.7918-0.74143 1.8536-1.73 0.061786-0.92678-0.74143-1.7918-1.73-1.8536-0.4325 0-0.80321 0-1.2357-0.061786-0.61786-0.061786-1.1121-0.67964-1.1121-1.3593 0-0.67964 0.4325-1.2975 1.1121-1.2975 1.3593-0.061786 2.6568 0 4.0778 0v1.1121h-3.9543v0.37071c0.37071 0 0.74143 0.061786 1.1121 0.061786 1.4211 0.061786 2.4096 0.865 2.7804 2.2861 0.4325 1.73-0.80321 3.5218-2.4714 3.5836-1.3593 0.061786-2.6568 0-4.1396 0z"/>
<path d="m95.644 146.12v-1.1739h3.9543v-0.30893c-0.4325 0-0.80321-0.061786-1.2357-0.061786-1.1121 0-1.9771-0.55607-2.4714-1.6064-0.49428-1.0504-0.4325-2.1007 0.24714-3.0893 0.4325-0.67964 1.1121-1.1121 1.8536-1.1739 1.3593-0.061786 2.7804 0 4.2014 0v1.1121h-3.7689c-1.2357 0-2.0389 1.1739-1.6682 2.3479 0.24714 0.67964 0.865 1.1739 1.6682 1.2357 0.37071 0 0.80321 0 1.1739 0.061786 0.61786 0.061786 1.1121 0.67964 1.1121 1.2975 0 0.67964-0.49428 1.2975-1.0504 1.3593h-4.0161zm13.902-7.4143v1.1121h-3.7071c-1.2975 0-1.73 0.4325-1.73 1.7918v3.2129c0 1.2357 0.49428 1.73 1.6682 1.73h3.7071v1.1739h-4.4486c-1.0504-0.061786-1.9771-1.0504-2.0389-2.1625-0.061786-1.5446-0.061786-3.1511 0-4.6957 0-0.98857 0.865-2.0389 1.8536-2.1007 1.5446-0.12357 3.0893-0.061786 4.6957-0.061786zm8.4028 8.8971c0.80321-2.4714 1.5446-4.8811 2.3479-7.2289 0.061786-0.18536 0.24714-0.37071 0.37071-0.4325 0.061786-0.061786 0.30893 0.18536 0.37071 0.30893 0.61786 1.9154 1.2975 3.8307 1.9154 5.8078h-2.6568c0-0.30893-0.061786-0.55607-0.061786-0.80321-0.061786 0-0.061786 0-0.12357-0.061786-0.12357 0.4325-0.30893 0.865-0.4325 1.3593-0.4325 1.2357-0.4325 1.2357-1.73 1.0504zm2.2861-2.7804h0.92678c-0.12357-0.4325-0.24714-0.865-0.37071-1.2357h-0.18536c-0.061786 0.37071-0.18536 0.74143-0.37071 1.2357zm-6.2403-0.12357c-0.37071-0.12357-0.55607-0.18536-0.80321-0.24714v-0.98857h1.73v2.6568c-0.865 0-1.7918 0.061786-2.6568-0.061786-0.24714 0-0.55607-0.4325-0.61786-0.74143-0.061786-1.4211-0.061786-2.8421 0-4.2632 0-0.49428 0.30893-0.80321 0.80321-0.80321h4.0161v1.1121h-2.9657c-0.61786 0-0.80321 0.18536-0.80321 0.80321 0.061786 0.67964 0 1.3593 0 1.9771 0.061786 0.865 0.4325 1.0504 1.2975 0.55607z"/>
<path d="m105.72 144.89c1.2357 0.24714 2.4714 0 3.7689 0.12357v1.0504c-1.4829 0-2.9039 0.061786-4.325-0.061786-0.24714 0-0.55607-0.49428-0.61786-0.80321-0.12357-0.55607 0-1.1739 0-1.8536h4.0778v1.0504h-2.8421c0 0.24714-0.061786 0.37071-0.061786 0.49428zm3.8307-4.6339v1.0504c-1.2357 0.18536-2.5332-0.12357-3.7689 0.18536v0.30893h2.8421v1.1121h-4.0161c0-0.67964-0.061786-1.3593 0-2.0389 0.061786-0.24714 0.4325-0.61786 0.61786-0.61786h4.325z"/>
</g>
<path d="M94.284832 89.52734l-.803213.0618c0-.55607-.185357-.86499-.556071-.86499-.432499 0-.617856.43249-.617856 1.29749 0 .49429.06179.865.185357.98857.123571.18536.247143.24715.494285.24715.308928 0 .494285-.24715.617856-.74143l.741427.0618c-.06179.49429-.185357.865-.432499 1.11214-.247142.24715-.55607.37072-.926784.37072-.432499 0-.803213-.18536-1.112141-.55607-.247142-.37072-.432499-.865-.432499-1.48286 0-.61785.123571-1.11214.432499-1.48285.247142-.37071.617856-.55607 1.112141-.55607.741427 0 1.173926.49428 1.297498 1.54464zm1.791782-1.48286l1.050355 3.95428h-.864998l-.185357-.80321h-1.112141l-.185357.80321h-.679641l1.050355-3.95428h.926784zm-.864998 2.40964h.741427l-.370714-1.42107-.370713 1.42107zm2.903923 0v1.54464h-.803213v-3.95428h1.482855c.247142 0 .494285.0618.679641.12358.185357.0618.308928.18535.4325.43249.123568.18536.185358.4325.185358.67965 0 .49428-.185358.80321-.556072 1.05035l.617852 1.73h-.864994l-.494285-1.54464h-.679642zm0-1.66821v.98857h.494285c.185357 0 .247142 0 .370714-.0618.06179 0 .123571-.0618.185356-.18536.06179-.0618.06179-.18536.06179-.30893 0-.12357 0-.18536-.06179-.30893-.06179-.12357-.123571-.12357-.185356-.18535h-.864999zm4.510351-.74143v.80322h-.80321v3.21285h-.80322V88.8477h-.865v-.80322h2.47143zm1.05035 2.40964v1.54464h-.80321v-3.95428h1.48286c.24714 0 .49428.0618.67964.12358.18535.0618.30892.18535.4325.43249.12357.18536.18535.4325.18535.67965 0 .49428-.18535.80321-.55607 1.05035l.61786 1.73h-.865l-.49428-1.54464h-.67965zm0-1.66821v.98857h.49429c.18536 0 .24714 0 .37071-.0618.0618 0 .12357-.0618.18536-.18536.0618-.0618.0618-.18536.0618-.30893 0-.12357 0-.18536-.0618-.30893l-.18536-.18535h-.865zm2.90393-.74143v3.95428h-.80322v-3.95428h.80322zm.24714 0h1.05035c.4325 0 .74143.0618.92679.18536.18536.12357.37071.37071.55607.67964.18536.30893.24714.67964.24714 1.11214 0 .55607-.12357 1.05036-.4325 1.42107-.30893.37072-.67964.55607-1.17392.55607h-1.17393v-3.95428zm.80321.74143v2.47143h.30893c.30893 0 .49428-.12358.61786-.37072.12357-.24714.18535-.55607.18535-.865 0-.24714-.0618-.4325-.12357-.67964-.0618-.18536-.18536-.37071-.30893-.4325-.12357-.0618-.24714-.12357-.4325-.12357h-.24714zm4.88106 1.11214s0 1.23571-.43249 1.73c-.4325.4325-.55607.49428-.92679.49428-.4325 0-.80321-.18535-1.05035-.55607-.24715-.37071-.37072-.86499-.37072-1.42107 0-.61785.12357-1.11214.37072-1.54464.24714-.37071.61785-.55607 1.05035-.55607.37072 0 .67964.12358.92679.37072.24714.24714.37071.55607.43249.98857l-.74142.12357c-.0618-.49429-.24714-.74143-.55607-.74143-.18536 0-.37072.12357-.49429.37071-.12357.24715-.18535.55608-.18535.98857 0 .4325.0618.74143.18535.92679.12357.18536.30893.30893.49429.30893.12357 0 .24714-.0618.37071-.18536.12357-.12357.18536-.30893.18536-.49428h-.61786v-.74143h1.35928zm2.595-1.11214h-1.60643v.80321h1.23572v.74143h-1.23572v.865h1.60643v.80321h-2.40964v-3.95428h2.40964v.74143zm3.08928-.74143v3.95428h-.80321v-3.95428h.80321zm2.78035 0v3.95428h-.67964l-1.2975-2.65678v2.65678h-.61785v-3.95428h.865l1.11214 2.34786v-2.34786h.61785zm.92679 2.53321v1.48286h-.80322v-3.95428h1.2975c.30893 0 .49429.0618.67964.12357.18536.0618.30893.18536.4325.37071.12357.18536.18536.4325.18536.67965 0 .18535-.0618.37071-.12357.55607-.0618.18535-.18536.30892-.24714.4325-.12358.12357-.24715.18535-.37072.18535-.12357.0618-.30893.0618-.55607.0618h-.49428zm0-.74142h.49428c.18536 0 .30893-.0618.4325-.18536.12357-.12357.12357-.24714.12357-.37071 0-.18536-.0618-.30893-.12357-.37072-.0618-.12357-.24714-.12357-.37071-.12357h-.49429v1.05036zm4.63392-1.79179v2.47143c0 .37071-.0618.67964-.12357.865-.0618.18535-.24715.37071-.4325.49428-.18536.12357-.49429.18536-.80322.18536-.30892 0-.55607-.0618-.74142-.18536-.18536-.12357-.30893-.24714-.4325-.49428-.12357-.24715-.12357-.49429-.12357-.92679V87.9827h.86499v2.47142c0 .18536 0 .37072.0618.49429 0 .12357.0618.18535.18536.24714.12357.0618.18535.0618.30892.0618.12358 0 .24715 0 .37072-.0618.12357-.0618.12357-.12357.18536-.24714 0-.12357.0618-.24714.0618-.49429V87.9827h.61786zm2.65678 0v.80322h-.80321v3.21285h-.80322V88.8477h-.865v-.80322h2.47143z" fill="#241c1e"/>
<path d="m168.24 75.564h-115.85c-6.3639 0-11.616-5.2518-11.616-11.616v-1.5446c0-6.3639 5.2518-11.616 11.616-11.616h115.79c6.3639 0 11.616 5.2518 11.616 11.616v1.5446c0.0618 6.3639-5.19 11.616-11.554 11.616z" fill="#181515"/>
<path d="m110.1 72.783h54.866c3.6454 0 6.6728-2.8421 6.6728-12.542h-6.6728v-5.0046h0.24714-109.73 0.24714v5.0046h-6.6728c0 9.6386 2.9657 12.542 6.6728 12.542h54.866"/>
<path d="m110.1 72.104h54.31c3.6454 0 6.6111-2.6568 6.6111-11.616h-6.6111v-4.6339h0.24714-108.68 0.24714v4.6957h-6.6111c0 8.9589 2.9657 11.616 6.6111 11.616h54.31" fill="#282424"/>
<path d="m49.985 64.813h120.73v0.61785h-120.73z" fill="#010102"/>
<path d="M64.071671 57.64597h-1.173926c0-.24715.247142-.49429.55607-.49429s.617856.24714.617856.49429z" fill="#363636"/>
<path d="M64.071671 62.89774h-1.173926c0 .24715.247142.49429.55607.49429s.617856-.18536.617856-.49429z" fill="#464646"/>
<path d="m62.898 57.646h1.1739v5.3136h-1.1739z" fill="#424141"/>
<path d="M64.071671 66.85202h-1.173926c0-.18535.247142-.37071.55607-.37071s.617856.12357.617856.37071z" fill="#363636"/>
<path d="M64.071671 71.11523h-1.173926c0 .18536.247142.37071.55607.37071s.617856-.18535.617856-.37071z" fill="#464646"/>
<path d="m62.898 66.852h1.1739v4.2632h-1.1739z" fill="#424141"/>
<path d="M156.56472 57.64597h1.17393c0-.24715-.24715-.49429-.55607-.49429-.30893 0-.61786.24714-.61786.49429z" fill="#363636"/>
<path d="M156.56472 62.89774h1.17393c0 .24715-.24715.49429-.55607.49429-.30893 0-.61786-.18536-.61786-.49429z" fill="#464646"/>
<path d="m156.56 57.646h1.1739v5.3136h-1.1739z" fill="#424141"/>
<path d="M156.56472 66.85202h1.17393c0-.18535-.24715-.37071-.55607-.37071-.30893 0-.61786.12357-.61786.37071z" fill="#363636"/>
<path d="M156.56472 71.11523h1.17393c0 .18536-.24715.37071-.55607.37071-.30893 0-.61786-.18535-.61786-.37071z" fill="#464646"/>
<path d="m156.56 66.852h1.1739v4.2632h-1.1739z" fill="#424141"/>
<path d="m26.877 136.11c3.8307-7.5378 9.8857-11.369 16.991-12.357 5.6843-0.67964 14.025 2.4096 30.213 6.2404 8.0939 1.9154 20.945 2.9039 35.836 2.8421 14.89 0 27.742-0.92679 35.836-2.8421 16.188-3.8307 24.467-6.92 30.213-6.2404 7.1053 0.98857 13.902 4.5721 17.671 12.11-4.0161-8.1557-9.5768-13.531-17.3-13.531-5.7461 0-12.851 0.80322-28.977 4.6957-8.0321 1.9154-22.737 2.9039-37.442 2.9039-14.89 0-29.842-0.92678-37.936-2.9039-16.188-3.8307-23.293-5.3754-28.977-4.6957-7.1053 0.98857-12.295 6.2404-16.126 13.778z" fill="#181515"/>
<path d="m176.89 171.27c0 8.1557-9.3914 9.5768-9.3914 9.5768h-114.3c-1.6682 0-9.3914-1.3593-9.3914-9.5768 0-8.1557 9.3914-9.5768 9.3914-9.5768h114.3s9.3914 1.4211 9.3914 9.5768z" fill="#3f4040"/>
<path d="m169.29 178.62h-117.76c-2.9657 0-5.4371-2.4096-5.4371-5.4371v-3.7689c0-2.9657 2.4096-5.4371 5.4371-5.4371h117.76c2.9657 0 5.4371 2.4096 5.4371 5.4371v3.7689c0 3.0275-2.4096 5.4371-5.4371 5.4371z" fill="#333"/>
<path d="M107.69231 175.47111h-1.60643c-.18535 0-.37071-.18535-.37071-.37071v-7.10534c0-.18536.18536-.37072.37071-.37072h1.60643c.18535 0 .37071.18536.37071.37072v7.10534c0 .18536-.18536.37071-.37071.37071zm3.39821 0h-1.60643c-.18536 0-.37071-.18535-.37071-.37071v-7.10534c0-.18536.18535-.37072.37071-.37072h1.60643c.18535 0 .37071.18536.37071.37072v7.10534c.0618.18536-.12357.37071-.37071.37071zm3.45999 0h-1.60643c-.18535 0-.37071-.18535-.37071-.37071v-7.10534c0-.18536.18536-.37072.37071-.37072h1.60643c.18536 0 .37071.18536.37071.37072v7.10534c0 .18536-.18535.37071-.37071.37071z" fill="#631418"/>
<path d="m167.93 176.34h-22.057c-2.1007 0-3.7689-1.6682-3.7689-3.7689v-2.6568c0-2.1007 1.6682-3.7689 3.7689-3.7689h22.057c2.1007 0 3.7689 1.6682 3.7689 3.7689v2.6568c0 2.1007-1.73 3.7689-3.7689 3.7689zm-92.74 0h-22.057c-2.1007 0-3.7689-1.6682-3.7689-3.7689v-2.6568c0-2.1007 1.6682-3.7689 3.7689-3.7689h22.057c2.1007 0 3.7689 1.6682 3.7689 3.7689v2.6568c0 2.1007-1.6682 3.7689-3.7689 3.7689z" fill="#212020"/>
<path d="m71.857 173.37h-15.014c-0.61786 0-1.1121-0.49428-1.1121-1.1121v-1.9771c0-0.61785 0.49428-1.1121 1.1121-1.1121h15.014c0.61786 0 1.1121 0.49429 1.1121 1.1121v1.9771c0 0.61786-0.49428 1.1121-1.1121 1.1121z" fill="#5c5c5c"/>
<path d="M58.016682 170.09577h1.173927c.06179 0 .185356 0 .247142.0618.06179 0 .123571.0618.185357.0618.06179.0618.123571.0618.123571.12357.06179.0618.06179.12357.123571.18536 0 .0618.06179.18535.06179.24714 0 .24714-.06179.4325-.247143.55607-.185356.12357-.370713.18536-.679641.18536h-.494285v.92678h-.432499v-2.34785zm.432499 1.11214h.679642l.123571-.0618c.06179 0 .06179-.0618.06179-.12357v-.12357c0-.0618 0-.12357-.06179-.18536 0-.0618-.06179-.0618-.123571-.12357-.06179 0-.123571-.0618-.123571-.0618h-.679642v.67964zm2.965709-1.17393c.185357 0 .308928 0 .494285.0618s.247143.12357.370714.24714c.123571.12357.185357.24714.247142.37071.06179.18536.06179.30893.06179.49429 0 .18535 0 .37071-.06179.49428-.06179.18536-.123571.30893-.247142.37072-.123571.12357-.247143.18535-.370714.24714-.123571.0618-.308928.0618-.494285.0618-.185356 0-.308928 0-.494285-.0618-.123571-.0618-.247142-.12357-.370713-.24714-.123571-.12358-.185357-.24715-.247143-.37072-.06179-.18535-.06179-.30893-.06179-.49428 0-.18536 0-.37072.06179-.49429.06179-.18535.123572-.30893.247143-.37071.123571-.12357.247142-.18536.370713-.24714.185357 0 .370714-.0618.494285-.0618zm0 2.1625c.123572 0 .185357 0 .308928-.0618.06179-.0618.185357-.12357.247143-.18536.06179-.0618.123571-.18535.123571-.24714.06179-.12357.06179-.24714.06179-.37071 0-.12357 0-.24714-.06179-.37072-.06179-.12357-.06179-.18535-.123571-.24714-.06179-.0618-.123571-.12357-.247143-.18535-.06179-.0618-.185356-.0618-.308928-.0618-.123571 0-.185356 0-.308928.0618-.06179.0618-.185357.12357-.247142.18535-.06179.0618-.123571.18536-.123571.24714-.06179.12358-.06179.24715-.06179.37072 0 .12357 0 .24714.06179.37071.06178.12357.06178.18536.123571.24714.06179.0618.123571.12358.247142.18536.123572 0 .247143.0618.308928.0618zm4.633921-2.10071l-.679642 2.47142h-.432499l-.494285-1.79178-.494285 1.79178h-.432499l-.679642-2.47142h.494285l.432499 1.66821.4325-1.66821h.494284l.4325 1.66821.432499-1.66821h.494285zm2.224281 2.47142h-1.853568v-2.47142h1.791783v.4325h-1.359284v.55607h1.297498v.4325h-1.297498v.61785h1.421069v.4325zm2.594996 0h-.494285l-.247143-.67964c0-.0618-.06179-.0618-.06179-.12357 0-.0618-.06179-.0618-.123571-.12357-.06179 0-.06179-.0618-.123572-.0618h-.617856v.98857h-.432499v-2.47142h1.482855c.06179 0 .123571 0 .185357.0618.06179 0 .123571.0618.123571.0618l.123571.12357c0 .0618.06179.0618.06179.12357 0 .0618.06179.12357.06179.12357v.12357c0 .12357-.06179.24714-.123571.37072-.06179.12357-.185357.18535-.308928.24714.123571.0618.185357.18536.247142.37071l.247143.865zm-1.668212-1.42107h.803213c.06179 0 .123571 0 .123571-.0618.06179 0 .06179-.0618.06179-.12358v-.12357c0-.12357-.06179-.18535-.123571-.24714-.06179-.0618-.185357-.0618-.308928-.0618h-.556071v.61785z" fill="#241c1e"/>
<path d="m164.41 173.37h-15.014c-0.61786 0-1.1121-0.49428-1.1121-1.1121v-1.9771c0-0.61785 0.49428-1.1121 1.1121-1.1121h15.014c0.61786 0 1.1121 0.49429 1.1121 1.1121v1.9771c0 0.61786-0.49428 1.1121-1.1121 1.1121z" fill="#5c5c5c"/>
<path d="M153.41365 172.56719h-.49428l-.24714-.67964c0-.0618-.0618-.0618-.0618-.12357 0-.0618-.0618-.0618-.12357-.12357-.0618 0-.0618-.0618-.12357-.0618h-.61786v.98857h-.4325v-2.47142h1.48286c.0618 0 .12357 0 .18536.0618.0618 0 .12357.0618.12357.0618l.12357.12357c0 .0618.0618.0618.0618.12357 0 .0618.0618.12357.0618.12357v.12357c0 .12357-.0618.24714-.12357.37072-.0618.12357-.18536.18535-.30893.24714.12357.0618.18536.18536.24714.37071l.24714.865zm-1.66821-1.42107h.80322c.0618 0 .12357 0 .12357-.0618.0618 0 .0618-.0618.0618-.12358v-.12357c0-.12357-.0618-.18535-.12357-.24714-.0618-.0618-.18536-.0618-.30893-.0618h-.67964v.61785zm3.95428 1.42107h-1.85357v-2.47142h1.79179v.4325h-1.35929v.55607h1.2975v.4325h-1.2975v.61785h1.42107v.4325zm1.42107 0c-.18536 0-.30893 0-.4325-.0618-.12357-.0618-.24714-.12357-.30893-.18535-.0618-.0618-.18535-.18536-.18535-.30893-.0618-.12357-.0618-.24714-.0618-.37071h.4325c0 .0618 0 .18535.0618.24714.0618.0618.0618.12357.12357.18536.0618.0618.12357.0618.18535.0618h.4325c.0618 0 .12357-.0618.18536-.0618.0618 0 .0618-.0618.12357-.12358 0-.0618.0618-.0618.0618-.12357 0-.0618 0-.12357-.0618-.12357 0-.0618-.0618-.0618-.12357-.12357-.0618 0-.12357-.0618-.18536-.0618-.0618 0-.18535-.0618-.30892-.0618-.12358-.0618-.24715-.0618-.37072-.12357-.12357-.0618-.18536-.0618-.24714-.12357-.0618-.0618-.12357-.12357-.12357-.18536-.0618-.0618-.0618-.18536-.0618-.24714 0-.12357 0-.18536.0618-.30893.0618-.0618.12357-.18536.18535-.24714.0618-.0618.18536-.12357.30893-.12357.12357-.0618.24715-.0618.37072-.0618.12357 0 .24714 0 .37071.0618.12357.0618.18536.0618.30893.18535.12357.12357.12357.18536.18535.24715.0618.12357.0618.24714.0618.37071h-.55607c-.0618-.24714-.18536-.4325-.49428-.4325-.12358 0-.24715 0-.30893.0618-.0618.0618-.12357.12357-.12357.18535v.0618l.0618.0618c.0618 0 .0618.0618.12357.0618.0618 0 .12357.0618.18536.0618.0618 0 .12357.0618.24714.0618.0618 0 .12357.0618.24714.0618.0618 0 .12358.0618.18536.12357.0618.0618.12357.0618.18536.12357.0618.0618.0618.12357.12357.18536 0 .0618.0618.18535.0618.24714 0 .12357 0 .18535-.0618.30893-.0618.12357-.12357.18535-.18536.24714-.0618.0618-.18535.12357-.30893.18535-.12357.0618-.24714.0618-.37071.0618zm3.27464 0h-1.85357v-2.47142h1.79178v.4325h-1.35928v.55607h1.2975v.4325h-1.2975v.61785h1.42107v.4325zm2.28607-2.03892h-.74143v2.03892h-.4325v-2.03892h-.74143v-.4325h1.97714v.4325z" fill="#241c1e"/>
<path d="M114.11801 174.72969h-.74143c-.18535 0-.37071-.18536-.37071-.37072v-5.62249c0-.18535.18536-.37071.37071-.37071h.74143c.18536 0 .37071.18536.37071.37071v5.62249c0 .18536-.18535.37072-.37071.37072zm-3.39821 0h-.74142c-.18536 0-.37072-.18536-.37072-.37072v-5.62249c0-.18535.18536-.37071.37072-.37071h.74142c.18536 0 .37072.18536.37072.37071v5.62249c0 .18536-.18536.37072-.37072.37072zm-3.45999 0h-.74143c-.18536 0-.37071-.18536-.37071-.37072v-5.62249c0-.18535.18535-.37071.37071-.37071h.74143c.18536 0 .37071.18536.37071.37071v5.62249c0 .18536-.18535.37072-.37071.37072z" fill="#f95d5d"/>
<g fill="#eff8fb">
<path d="m145.75 45.165h-70.868l-5.19-3.0275v-6.7964l4.8811-2.8421h71.486l4.9428 2.9039v6.7964l-5.2518 2.9657zm-70.683-0.61786h70.559l4.6957-2.7804v-6.055l-4.4486-2.595h-71.115l-4.4486 2.595v6.055l4.7575 2.7804z"/>
<path d="m122.4 37.936h7.2289v2.9039l-2.595 1.73h-7.9703l2.6568-1.7918h4.6957v-1.0504h-7.2289v-2.8421l2.6568-1.8536h7.9703l-2.6568 1.7918h-4.7575m8.2175-1.7918h3.2746v7.5378h-3.2746m7.7232-4.6339h7.2289v2.9039l-2.595 1.73h-7.9086l2.595-1.7918h4.6957v-1.0504h-7.2289v-2.8421l2.6568-1.8536h7.9703l-2.6568 1.7918h-4.7575"/>
<path d="m112.14 40.778v-1.0504h3.0893l2.6568-1.7918h-5.7461v-1.1121h4.6957l2.595-1.7918h-7.7232l-2.7804 1.7918v5.7461h7.8468l2.6568-1.7918m-29.966 0v-1.0504h3.0893l2.6568-1.7918h-5.7461v-1.1121h4.6957l2.595-1.7918h-7.6614l-2.8421 1.7918v5.7461h7.8468l2.6568-1.7918m8.0321-0.67964-4.0161-2.5332v5.0046h-3.2746v-7.5378h3.2746l4.0161 2.2243v-2.2243h3.2129v7.5378h-3.2129m-26.63-5.7461v3.9543h4.0161v-1.0504h-3.2746l2.595-1.7918h3.8925v2.9657l-2.4714 1.6682h-8.0321v-5.6843l2.7186-1.8536h8.7736l-2.595 1.7918"/>
</g>
<path d="m199.07 1.1739v7.4143s-0.0618 0.92678-1.2975 0.92678h-174.92c-1.2357 0-1.2975-0.92678-1.2975-0.92678v-7.4143l88.786 0.0618 88.724-0.0618z" fill="#444546"/>
<path d="m22.305 0h1.6064v8.4646h-1.6064zm2.4714 0h1.6064v8.4646h-1.6064zm2.4714 0h1.6064v8.4646h-1.6064zm2.4714 0h1.6064v8.4646h-1.6064zm2.4714 0h1.6064v8.4646h-1.6064zm2.4714 0h1.6064v8.4646h-1.6064zm2.5332 0h1.6064v8.4646h-1.6064zm2.4714 0h1.6064v8.4646h-1.6064zm2.5332 0h1.6064v8.4646h-1.6064zm2.4714 0h1.6064v8.4646h-1.6064zm2.5332 0h1.6064v8.4646h-1.6064zm2.4714 0h1.6064v8.4646h-1.6064zm2.4096 0h1.6064v8.4646h-1.6064zm2.4714 0h1.6064v8.4646h-1.6064zm2.5332 0h1.6064v8.4646h-1.6064zm2.4714 0h1.6064v8.4646h-1.6064zm2.5332 0h1.6064v8.4646h-1.6064zm2.4714 0h1.6064v8.4646h-1.6064zm2.4714 0h1.6064v8.4646h-1.6064zm2.4714 0h1.6064v8.4646h-1.6064zm2.4714 0h1.6064v8.4646h-1.6064zm2.4714 0h1.6064v8.4646h-1.6064zm2.5332 0h1.6064v8.4646h-1.6064zm2.4714 0h1.6064v8.4646h-1.6064zm2.4714 0h1.6064v8.4646h-1.6064zm2.4714 0h1.6064v8.4646h-1.6064zm2.5332 0h1.6064v8.4646h-1.6064zm2.4714 0h1.6064v8.4646h-1.6064zm2.4096 0h1.6064v8.4646h-1.6064zm2.5332 0h1.6064v8.4646h-1.6064zm2.4714 0h1.6064v8.4646h-1.6064zm2.4714 0h1.6064v8.4646h-1.6064zm2.6568 0h1.6064v8.4646h-1.6064zm2.5332 0h1.6064v8.4646h-1.6064zm2.4714 0h1.6064v8.4646h-1.6064zm2.4096 0h1.6064v8.4646h-1.6064zm2.4714 0h1.6064v8.4646h-1.6064zm2.5332 0h1.6064v8.4646h-1.6064zm2.4714 0h1.6064v8.4646h-1.6064zm2.5332 0h1.6064v8.4646h-1.6064zm2.4714 0h1.6064v8.4646h-1.6064zm2.5332 0h1.6064v8.4646h-1.6064zm2.4714 0h1.6064v8.4646h-1.6064zm2.4096 0h1.6064v8.4646h-1.6064zm2.4714 0h1.6064v8.4646h-1.6064zm2.5332 0h1.6064v8.4646h-1.6064zm2.4714 0h1.6064v8.4646h-1.6064zm2.7186 0h1.6064v8.4646h-1.6064zm2.5332 0h1.6064v8.4646h-1.6064zm2.4714 0h1.6064v8.4646h-1.6064zm2.4096 0h1.6064v8.4646h-1.6064zm2.4714 0h1.6064v8.4646h-1.6064zm2.5332 0h1.6064v8.4646h-1.6064zm2.4714 0h1.6064v8.4646h-1.6064zm2.5332 0h1.6064v8.4646h-1.6064zm2.4714 0h1.6064v8.4646h-1.6064zm2.5332 0h1.6064v8.4646h-1.6064zm2.4714 0h1.6064v8.4646h-1.6064zm2.4096 0h1.6064v8.4646h-1.6064zm2.4714 0h1.6064v8.4646h-1.6064zm2.5332 0h1.6064v8.4646h-1.6064zm2.4714 0h1.6064v8.4646h-1.6064zm2.595 0h1.6064v8.4646h-1.6064zm2.5332 0h1.6064v8.4646h-1.6064zm2.4714 0h1.6064v8.4646h-1.6064zm2.4096 0h1.6064v8.4646h-1.6064zm2.4714 0h1.6064v8.4646h-1.6064zm2.5332 0h1.6064v8.4646h-1.6064zm2.4714 0h1.6064v8.4646h-1.6064zm2.5332 0h1.6064v8.4646h-1.6064zm2.4714 0h1.6064v8.4646h-1.6064z" fill="#282424"/>
<path d="m225.21 190.98v-182.21c0-4.8193 3.3982-8.7736 7.476-8.7736h10.504v1.1739h138.28v-1.1739h11.06c4.0778 0 7.4761 3.9543 7.4761 8.7736v125.3c0 42.817-29.781 77.85-66.111 77.85h-73.031c-11.121 0-21.872-5.8696-28.854-13.655" fill="#3f3f3f"/>
<path d="m333.83 179.8h-73.34c-5.8696 0-11.739 0.92678-17.362 2.7186l-17.918 8.4646v-183.57c0-4.0778 3.3364-7.4143 7.476-7.4143h10.504v1.1739l138.28 0.24715v-1.4211h11.06c4.0778 0 7.4761 3.3364 7.4761 7.4143v106.33c-0.0618 36.33-29.781 66.049-66.172 66.049z" fill="#312f2f"/>
<path d="m325.24 171.39h-52.641c-19.524 0-35.465-15.879-35.465-35.403v-94.841c0-8.9589 7.2907-16.25 16.25-16.25h121.59c8.9589 0 16.25 7.2907 16.25 16.25v64.319c0 36.392-29.595 65.925-65.987 65.925zm-71.857-145.88c-8.65 0-15.632 6.9818-15.632 15.632v94.841c0 19.215 15.632 34.785 34.847 34.785h52.641c36.021 0 65.369-29.286 65.369-65.307v-64.319c0-8.5882-7.0436-15.632-15.632-15.632h-121.59z" fill="#181515"/>
<path d="m237.44 58.573h153.48v1.1121h-153.48z" fill="#181515"/>
<path d="M290.63948 43.68242l-.18536-.12357v-.18536c0-.18535-1.17392-1.05035-3.15106-1.05035-1.91536 0-2.71857.61785-2.71857 1.42107 0 2.10071 7.22892-.98857 7.22892 3.64535 0 1.66821-1.54464 2.96571-4.69571 2.96571-3.02749 0-3.89249-.98857-4.13963-.98857-.0618 0-.12358.0618-.18536.12357l-.18536-.0618 1.05036-2.16249.18535.12357v.18535c0 .74143 1.60643 1.2975 3.15107 1.2975 2.22428 0 3.02749-.67964 3.02749-1.35928 0-2.53321-7.16713.61785-7.16713-3.64535 0-2.1625 2.1625-3.0275 4.57214-3.0275 2.1625 0 3.64535.98857 3.76892.98857.18536 0 .18536-.0618.24714-.0618l.18536.0618-.98857 1.85357zm2.1625 6.36392c.24714 0 .30893-.12357.30893-.37072v-8.1557c0-.30892-.0618-.37071-.30893-.37071v-.18536h7.97034c.30893 0 .4325-.12357.4325-.30892h.18536v2.10071h-.18536c0-.24715-.12357-.30893-.4325-.30893h-5.93142v2.28607h3.8925c.30892 0 .43249-.12358.43249-.30893h.18536v2.16249h-.18536c0-.12357 0-.18535-.12357-.24714-.0618-.0618-.18535-.0618-.30892-.0618h-3.8925v2.53321h6.05499c.30893 0 .4325-.12358.4325-.30893h.18536v2.10071h-.18536c0-.18536-.12357-.30893-.4325-.30893h-8.09391v-.24714zm19.58603-4.69571v.18536c-.12357 0-.24714.12357-.24714.4325v2.53321c0 .18535.0618.30893.24714.30893v.18535c-.80321.4325-2.65678 1.42107-4.81927 1.42107-2.84214 0-5.31357-1.48285-5.31357-4.75749 0-3.33642 2.90393-4.75749 5.43714-4.75749.98857 0 1.97714.24714 2.65678.49428.67964.30893 1.11214.49429 1.23571.49429.12357 0 .24714-.0618.24714-.12357l.18536.0618-1.17393 2.10071-.18535-.12357v-.24714c0-.37071-1.35929-1.17393-2.96571-1.17393-2.03893 0-3.76892 1.05036-3.76892 3.21285 0 2.28607 1.66821 3.33643 3.58356 3.33643 1.54464 0 2.47143-.55607 2.84214-.80322v-1.17392h-2.03893c-.24714 0-.37071.12357-.37071.30893h-.24714v-2.22429h.18535c0 .18536.12358.30893.37072.30893h4.13963zm.61786 4.88106v-.18535c.24714 0 .30893-.0618.49428-.49429l3.33643-7.84677c.0618-.12357.12357-.24714.12357-.37071 0-.12357-.12357-.18536-.24714-.24714v-.18536h2.65678v.18536c-.18536 0-.24715.12357-.24715.18535 0 .12357.0618.18536.12358.30893l3.58356 7.97034c.18536.37072.24714.49429.49429.49429v.18535h-2.47143v-.18535c.18536 0 .24714-.0618.24714-.12357 0-.12357-.12357-.30893-.92678-2.1625h-4.20142c-.74143 1.66821-.92679 1.91535-.92679 2.10071 0 .12357.0618.18536.18536.18536v.18535h-2.22428zm6.4257-3.89249l-1.48285-3.33642-1.48286 3.33642h2.96571z" fill="#eff8fb"/>
<path d="m350.2 51.776h-69.262v-12.357h69.262v12.357zm-68.582-0.80321h68.026v-10.751h-68.026v10.751z" fill="#eff8fb"/>
<g fill="#eff8fb">
<path d="m350.45 39.666h0.4325v1.4211h0.18536v-1.4211h0.4325v-0.24714h-1.0504"/>
<path d="m352.55 39.419-0.37071 1.2975-0.37071-1.2975h-0.30893v1.6682h0.24714v-1.2357l0.37071 1.2357h0.12357l0.37071-1.2357v1.2357h0.18536v-1.6682"/>
</g>
<path d="m325.42 40.964v9.3296h23.664v-9.3296h-23.664zm0.98857 6.4875c-0.18536-1.6682 4.1396-3.8925 9.8239-5.0046-0.12357 0.0618-0.37072 0.12357-0.37072 0.12357l-0.74142 0.24714c-2.9039 0.865-4.9428 2.5332-4.7575 3.9543 0.18536 1.4829 2.595 2.2243 5.6843 1.9771 0.18536 0 0.80321-0.0618 0.92678-0.0618-5.6843 0.92679-10.38 0.4325-10.565-1.2357zm14.211 0.37072c-1.2357 0.37071-2.8421 0.67964-2.8421 0.67964v-4.1396l0.80321 3.3982s1.9154-0.37071 3.3982-1.1739c1.2975-0.67964 2.1007-1.5446 2.0389-2.4096-0.0618-1.4829-2.5332-2.2243-5.5607-1.9771-0.18536 0-0.865 0.0618-0.98857 0.0618 5.6843-0.98857 10.38-0.49428 10.565 1.1739 0.12357 1.3593-2.9657 3.1511-7.4143 4.3868z" fill="#eff8fb"/>
<g fill="#eff8fb">
<path d="m286.31 138.15v0.12357c0 0.12357 0 0.18536-0.4325 0.18536s-0.37071-0.061786-0.4325-0.18536v-0.865c0-0.12357 0-0.18536 0.4325-0.18536s0.37071 0.061786 0.4325 0.18536v0.12357h0.55607v-0.30893c-0.061786-0.30893 0.061786-0.55607-0.92678-0.55607-1.0504 0-0.92678 0.24714-0.92678 0.55607v1.1121c0.061786 0.30893-0.061786 0.55607 0.92678 0.55607 1.0504 0 0.92678-0.24714 0.92678-0.55607v-0.24714h-0.55607v0.061786zm-6.4875-1.3593-0.55607 1.6064-0.55607-1.6064h-0.80321v2.1007h0.55607v-1.5446l0.55607 1.5446h0.49428l0.55607-1.5446v1.5446h0.55607v-2.1007m6.3639 0h1.5446v0.55607h-0.49428v1.5446h-0.55607v-1.5446h-0.49428m-4.1396 1.5446 0.61786-2.1007h0.80321l0.61786 2.1007h-0.55607l-0.12357-0.4325h-0.67964l0.12357-0.30893h0.49428l-0.24714-0.865-0.49428 1.6064m-6.7964-1.6682c0.4325 0 0.37071 0.061786 0.4325 0.18536v0.865c0 0.12357 0 0.18536-0.4325 0.18536s-0.37071-0.061786-0.4325-0.18536v-0.865c0.061786-0.12357 0.061786-0.18536 0.4325-0.18536v-0.49428c-1.0504 0-0.92678 0.24714-0.92678 0.55607v1.1121c0.061786 0.30893-0.061786 0.55607 0.92678 0.55607s0.92678-0.24714 0.92678-0.55607v-1.1121c-0.061786-0.30893 0.061786-0.55607-0.92678-0.55607v0.49428zm-1.7918 0.92678v0.12357c0 0.12357 0 0.18536-0.4325 0.18536s-0.37071-0.061786-0.4325-0.18536v-0.865c0-0.12357 0-0.18536 0.4325-0.18536s0.37071 0.061786 0.4325 0.18536v0.12357h0.55607v-0.30893c-0.061786-0.30893 0.061786-0.55607-0.92678-0.55607-1.0504 0-0.92678 0.24714-0.92678 0.55607v1.1121c0.061786 0.30893-0.061786 0.55607 0.92678 0.55607 1.0504 0 0.92678-0.24714 0.92678-0.55607v-0.24714h-0.55607zm7.1053 0.30893h-0.30893v-0.49428h0.30893c0.4325 0 0.37071-0.061786 0.4325-0.18536v-0.24714c0-0.12357 0-0.18536-0.4325-0.18536h-0.30893v1.6064h-0.55607v-2.1007h0.865c1.0504 0 0.92678 0.24714 0.92678 0.55607v0.49428c0 0.24714 0.061786 0.55607-0.92678 0.55607zm-10.442 8.4028h-3.3364c-0.49428 0-0.865-0.37071-0.865-0.865v-5.1282c0-0.49428 0.37071-0.865 0.865-0.865h2.1007c0.24714 0 0.4325-0.18536 0.4325-0.4325v-2.0389c0-0.12357 0.061786-0.18536 0.18536-0.18536h1.2357c0.12357 0 0.18536 0.061786 0.18536 0.18536v9.2061c0 0.12357-0.061786 0.18536-0.18536 0.18536l-0.61786-0.061786v0.4325h0.865c0.24714 0 0.4325-0.18536 0.4325-0.4325v-9.5768c0-0.24714-0.18536-0.4325-0.4325-0.4325h-1.6064c-0.24714 0-0.4325 0.18536-0.4325 0.4325v2.0389c0 0.12357-0.061786 0.18536-0.18536 0.18536h-1.9154c-0.74143 0-1.3593 0.61786-1.3593 1.3593v5.1282c0 0.74143 0.61786 1.3593 1.3593 1.3593h3.3364l-0.061786-0.49428z"/>
<path d="m270.19 144.95v-3.3364c0-0.24714-0.24714-0.49428-0.49428-0.49428s-0.49428 0.24714-0.49428 0.49428v3.5836c0 0.24714 0.24714 0.49428 0.49428 0.49428s0.49428-0.24714 0.49428-0.49428v-0.24714h0.4325v0.24714c0 0.55607-0.4325 0.98857-0.98857 0.98857s-0.98857-0.4325-0.98857-0.98857v-3.5836c0-0.55607 0.4325-0.98857 0.98857-0.98857s0.98857 0.4325 0.98857 0.98857v3.3364h-0.4325zm4.4486 1.9154h-0.61786c-0.12357 0-0.18536-0.061786-0.18536-0.18536v-6.4875c0-0.12357 0.061786-0.18536 0.18536-0.18536h1.2357c0.12357 0 0.18536 0.061786 0.18536 0.18536v6.4875c0 0.12357-0.061786 0.18536-0.18536 0.18536h-0.61786v0.4325h0.80321c0.24714 0 0.4325-0.18536 0.4325-0.4325v-6.8582c0-0.24714-0.18536-0.4325-0.4325-0.4325h-1.6064c-0.24714 0-0.4325 0.18536-0.4325 0.4325v6.8582c0 0.24714 0.18536 0.4325 0.4325 0.4325h0.80321v-0.4325zm5.8696-5.6225h-1.3593c-0.4325 0-0.74143 0.30893-0.74143 0.74143s0.30893 0.74143 0.74143 0.74143h1.8536c0.49428 0 0.865 0.37071 0.865 0.865v2.2861c0 0.49428-0.37071 0.865-0.865 0.865h-3.7071c-0.12357 0-0.18536-0.061786-0.18536-0.18536v-0.865c0-0.12357 0.061786-0.18536 0.18536-0.18536h2.5332c0.4325 0 0.74143-0.30893 0.74143-0.74143s-0.30893-0.74143-0.74143-0.74143h-1.7918c-0.49428 0-0.865-0.37071-0.865-0.865v-2.2861c0-0.49428 0.37071-0.865 0.865-0.865h3.3982c0.12357 0 0.18536 0.061786 0.18536 0.18536v0.92678c0 0.12357-0.061786 0.18536-0.18536 0.18536l-0.92678-0.061786v0.4325h1.1121c0.24714 0 0.4325-0.18536 0.4325-0.4325v-1.2975c0-0.24714-0.18536-0.4325-0.4325-0.4325h-3.5836c-0.74143 0-1.3593 0.61786-1.3593 1.3593v2.2861c0 0.74143 0.61786 1.3593 1.3593 1.3593h1.7918c0.18536 0 0.30893 0.12357 0.30893 0.30893s-0.12357 0.30893-0.30893 0.30893h-2.7186c-0.24714 0-0.4325 0.18536-0.4325 0.4325v1.2975c0 0.24714 0.18536 0.4325 0.4325 0.4325h3.8925c0.74143 0 1.3593-0.61786 1.3593-1.3593v-2.2861c0-0.74143-0.61786-1.3593-1.3593-1.3593h-1.8536c-0.18536 0-0.30893-0.12357-0.30893-0.30893s0.12357-0.30893 0.30893-0.30893h1.3593v-0.4325zm6.7964 1.2975h0.55607c0.12357 0 0.18536-0.061786 0.18536-0.18536v-1.4829c0-0.49428-0.37071-0.865-0.865-0.865h-2.9039c-0.49428 0-0.865 0.37071-0.865 0.865v5.1282c0 0.49428 0.37071 0.865 0.865 0.865h2.9039c0.49428 0 0.865-0.37071 0.865-0.865v-1.4211c0-0.12357-0.061786-0.18536-0.18536-0.18536h-1.1121c-0.12357 0-0.18536 0.061786-0.18536 0.18536v0.67964c0 0.55607-0.30893 0.98857-0.865 0.98857s-0.865-0.4325-0.865-0.98857v-3.5836c0-0.55607 0.30893-0.98857 0.865-0.98857s0.865 0.4325 0.865 0.98857v0.67964c0 0.12357 0.061786 0.18536 0.18536 0.18536h0.55607v0.4325h-0.67964c-0.24714 0-0.4325-0.18536-0.4325-0.4325v-0.865c0-0.24714-0.12357-0.49428-0.4325-0.49428-0.24714 0-0.4325 0.24714-0.4325 0.49428v3.5836c0 0.24714 0.12357 0.49428 0.4325 0.49428 0.24714 0 0.4325-0.24714 0.4325-0.49428v-0.865c0-0.24714 0.18536-0.4325 0.4325-0.4325h1.4829c0.24714 0 0.4325 0.18536 0.4325 0.4325v1.6064c0 0.74143-0.61786 1.3593-1.3593 1.3593h-2.9039c-0.74143 0-1.3593-0.61786-1.3593-1.3593v-5.1282c0-0.74143 0.61786-1.3593 1.3593-1.3593h2.9039c0.74143 0 1.3593 0.61786 1.3593 1.3593v1.6682c0 0.24714-0.18536 0.4325-0.4325 0.4325h-0.80321v-0.4325z"/>
</g>
<path d="m335.56 114.92c-21.192 20.204-32.623 37.133-24.652 45.536 8.0321 8.4028 33.364 5.6843 54.557-14.52 21.192-20.204 26.135-45.474 18.103-53.815-8.0321-8.341-26.815 2.595-48.007 22.799z" fill="#181515"/>
<path d="m339.51 120.11c-12.542 11.986-18.474 26.197-13.099 31.82 5.3753 5.6225 19.833 0.37071 32.437-11.554 12.542-11.986 18.474-26.197 13.099-31.82-5.3754-5.6225-19.833-0.43249-32.437 11.554z" fill="#2c2929"/>
<circle cx="339.57" cy="139.2" r="1.7918" fill="#181515"/>
<circle cx="345.07" cy="133.58" r="1.7918" fill="#181515"/>
<circle cx="350.57" cy="127.96" r="1.7918" fill="#181515"/>
<circle cx="356.07" cy="122.58" r="1.7918" fill="#181515"/>
<path d="M275.74915 200.80321h-.61786l-.30892-1.17393h-1.11214l-.30893 1.17393h-.61786l1.17393-4.13963h.55607l1.23571 4.13963zm-1.17393-1.85357l-.37071-1.29749-.37071 1.29749h.74142zm3.46-.865c0-.12357 0-.24714-.0618-.30892-.0618-.12357-.0618-.18536-.12357-.24715l-.18536-.18535c-.0618-.0618-.18535-.0618-.24714-.0618-.12357 0-.24714.0618-.37071.12357-.12357.0618-.18536.18536-.24714.24715-.0618.12357-.12358.24714-.18536.43249-.0618.18536-.0618.37072-.0618.61786 0 .24714 0 .4325.0618.61786.0618.18535.12357.30892.18536.4325.0618.12357.18535.18535.24714.30892.12357.0618.24714.12358.37071.12358.12357 0 .18536 0 .24714-.0618.0618-.0618.12358-.0618.18536-.18536.0618-.0618.12357-.18535.12357-.24714.0618-.12357.0618-.24714.0618-.37071h.55607c0 .24714-.0618.49428-.12357.67964-.0618.18536-.18536.37071-.24715.49428-.12357.12357-.24714.24715-.37071.30893-.12357.0618-.30893.12357-.49428.12357-.24715 0-.4325-.0618-.61786-.12357-.18536-.12357-.30893-.24714-.4325-.4325-.12357-.18535-.24714-.4325-.30893-.67964-.0618-.24714-.12357-.55607-.12357-.865 0-.30893.0618-.61785.12357-.865.0618-.24714.18536-.49428.30893-.67964.12357-.18535.24714-.30893.4325-.4325.18536-.12357.37071-.12357.55607-.12357.18536 0 .30893.0618.4325.12357.12357.0618.24714.18536.37071.30893.12357.12357.18536.30893.24715.49429.0618.18535.12357.37071.12357.61785h-.4325zm3.15106 0c0-.12357 0-.24714-.0618-.30892-.0618-.12357-.0618-.18536-.12357-.24715l-.18536-.18535c-.0618-.0618-.18536-.0618-.24714-.0618-.12357 0-.24714.0618-.37072.12357-.12357.0618-.18535.18536-.24714.24715-.0618.12357-.12357.24714-.18536.43249-.0618.18536-.0618.37072-.0618.61786 0 .24714 0 .4325.0618.61786.0618.18535.12358.30892.18536.4325.0618.12357.18536.18535.24714.30892.12358.0618.24715.12358.37072.12358.12357 0 .18535 0 .24714-.0618.0618-.0618.12357-.0618.18536-.18536.0618-.0618.12357-.18535.12357-.24714.0618-.12357.0618-.24714.0618-.37071h.55607c0 .24714-.0618.49428-.12357.67964-.0618.18536-.18535.37071-.24714.49428-.12357.12357-.24714.24715-.37071.30893-.12357.0618-.30893.12357-.49429.12357-.24714 0-.4325-.0618-.61785-.12357-.18536-.12357-.30893-.24714-.4325-.4325-.12357-.18535-.24715-.4325-.30893-.67964-.0618-.24714-.12357-.55607-.12357-.865 0-.30893.0618-.61785.12357-.865.0618-.24714.18536-.49428.30893-.67964.12357-.18535.24714-.30893.4325-.4325.18535-.12357.37071-.12357.55607-.12357.18535 0 .30892.0618.4325.12357.12357.0618.24714.18536.37071.30893.12357.12357.18536.30893.24714.49429.0618.18535.12357.37071.12357.61785h-.4325zm3.46 2.71857h-2.28607v-4.13963h2.22428v.74142h-1.66821v.92679h1.54464v.67964h-1.54464v1.05035h1.73v.74143zm1.79178.0618c-.24714 0-.4325-.0618-.55607-.12357-.18536-.0618-.30893-.18536-.4325-.30893-.12357-.12357-.18536-.30893-.24714-.49429-.0618-.18535-.0618-.4325-.12357-.61785h.55607c0 .12357.0618.24714.0618.37071.0618.12357.12357.18536.18536.24714.0618.0618.12357.12357.24714.18536.0618.0618.18536.0618.24714.0618.0618 0 .18536 0 .24715-.0618.0618 0 .12357-.0618.18535-.12357.0618-.0618.12357-.12357.12357-.18536 0-.0618.0618-.12357.0618-.24714 0-.0618 0-.18536-.0618-.24714 0-.0618-.0618-.12357-.12357-.18536-.0618-.0618-.12357-.0618-.24714-.12357-.12357-.0618-.24714-.0618-.37071-.12357-.18536-.0618-.30893-.12357-.4325-.18536-.12357-.0618-.24714-.12357-.30893-.24714-.0618-.12357-.12357-.18536-.18536-.30893-.0618-.12357-.0618-.24714-.0618-.4325s0-.30893.0618-.49428c.0618-.12357.12357-.24715.24715-.37072.12357-.12357.18535-.18535.37071-.24714.12357-.0618.30893-.0618.4325-.0618.18536 0 .30893.0618.49428.12358.12357.0618.24715.18535.37072.24714.12357.12357.18535.24714.24714.4325.0618.18535.0618.37071.12357.61785h-.55607c-.0618-.49428-.24714-.67964-.61786-.67964-.18535 0-.30892.0618-.43249.12357-.12358.0618-.12358.18536-.12358.37072 0 .0618 0 .12357.0618.18535 0 .0618.0618.0618.12357.12357.0618.0618.12357.0618.18536.12358.0618 0 .18535.0618.24714.0618.0618 0 .18536.0618.30893.0618.12357 0 .18535.0618.30893.12357.0618.0618.18535.12357.24714.18536.0618.0618.12357.12357.18536.24714.0618.12357.12357.18535.12357.30893.0618.12357.0618.24714.0618.43249 0 .18536 0 .37072-.0618.49429-.0618.18536-.12357.30893-.24715.4325-.12357.12357-.24714.18536-.37071.24714-.24714 0-.4325.0618-.55607.0618zm2.90392 0c-.24714 0-.4325-.0618-.55607-.12357-.18535-.0618-.30893-.18536-.4325-.30893-.12357-.12357-.18535-.30893-.24714-.49429-.0618-.18535-.0618-.4325-.12357-.61785h.55607c0 .12357.0618.24714.0618.37071.0618.12357.12357.18536.18535.24714.0618.0618.12357.12357.24715.18536.0618.0618.18535.0618.24714.0618.0618 0 .18535 0 .24714-.0618.0618 0 .12357-.0618.18536-.12357.0618-.0618.12357-.12357.12357-.18536 0-.0618.0618-.12357.0618-.24714 0-.0618 0-.18536-.0618-.24714 0-.0618-.0618-.12357-.12357-.18536-.0618-.0618-.12357-.0618-.24715-.12357-.12357-.0618-.24714-.0618-.37071-.12357-.18536-.0618-.30893-.12357-.4325-.18536-.12357-.0618-.24714-.12357-.30893-.24714-.0618-.12357-.12357-.18536-.18535-.30893-.0618-.12357-.0618-.24714-.0618-.4325s0-.30893.0618-.49428c.0618-.12357.12357-.24715.24714-.37072.12357-.12357.18536-.18535.37071-.24714.12357-.0618.30893-.0618.4325-.0618.18536 0 .30893.0618.49429.12358.12357.0618.24714.18535.37071.24714.12357.12357.18536.24714.24714.4325.0618.18535.0618.37071.12357.61785h-.55607c-.0618-.49428-.24714-.67964-.61785-.67964-.18536 0-.30893.0618-.4325.12357-.12357.0618-.12357.18536-.12357.37072 0 .0618 0 .12357.0618.18535 0 .0618.0618.0618.12357.12357.0618.0618.12358.0618.18536.12358.0618 0 .18536.0618.24714.0618.0618 0 .18536.0618.30893.0618.12357 0 .18536.0618.30893.12357.0618.0618.18536.12357.24714.18536.0618.0618.12357.12357.18536.24714.0618.0618.12357.18535.12357.30893.0618.12357.0618.24714.0618.43249 0 .18536 0 .37072-.0618.49429-.0618.12357-.12357.30893-.24714.4325-.12357.12357-.24715.18536-.37072.24714-.24714 0-.37071.0618-.55607.0618z" fill="#241c1e"/>
<path d="M261.16775 199.5675v-1.97714c0-.18536.18535-.37071.37071-.37071h7.53785c.18535 0 .37071.18535.37071.37071v1.97714c0 .18536-.18536.37071-.37071.37071h-7.53785c-.18536 0-.37071-.12357-.37071-.37071z" fill="#631418"/>
<path d="M261.97096 199.07321v-.98857c0-.18535.18536-.37071.37071-.37071h5.99321c.18535 0 .37071.18536.37071.37071v.98857c0 .18536-.18536.37072-.37071.37072h-5.99321c-.18535 0-.37071-.12357-.37071-.37072z" fill="#f95d5d"/>
<path d="m383.13 167.19c-1.7918-1.7918-1.7918-4.7575 0-6.5493l5.6843-5.4989c1.7918-1.7918 3.2128-0.4325 5.0046 1.3593s1.2357 4.325 0 6.5493l-4.0161 7.4143c-1.8536 1.7918-4.8811-1.4828-6.6728-3.2746z" fill="#181515"/>
<path d="M379.61075 177.13932c.30893-.30892.4325-.67964.24714-.86499l-4.51035-4.44857.98857-.98857 4.94285 4.94285c.4325.4325.0618 1.48286-.74143 2.34785l1.42107 1.42107-3.64535-.0618-.0618-3.64535 1.35928 1.29749m1.91535-7.78498c.12358.12357.24715.30893.24715.4325.0618.18535.0618.37071 0 .55607-.0618.18536-.12357.37071-.24715.61785-.12357.18536-.30892.4325-.49428.61786-.18536.18536-.37071.37071-.61786.49429-.18535.12357-.4325.18535-.61785.24714-.18536.0618-.37072.0618-.55607 0-.18536-.0618-.30893-.12357-.49429-.24714-.12357-.12358-.24714-.30893-.24714-.49429 0-.18536-.0618-.37071 0-.55607.0618-.18536.12357-.37071.24714-.61786.12357-.18535.30893-.4325.49429-.61785.18535-.18536.4325-.37072.61785-.49429.18536-.12357.4325-.18535.61786-.24714.18536-.0618.37071 0 .55607 0 .18536.12357.37071.18536.49428.30893zm-2.28606 2.28607c.0618.0618.18535.12357.30893.18535.12357.0618.24714 0 .37071 0 .12357 0 .24714-.0618.37071-.18535.12357-.12357.30893-.18536.4325-.37072.12357-.12357.24714-.30893.37072-.4325l.18535-.37071v-.37071s-.0618-.18536-.18535-.30893c-.0618-.0618-.18536-.12357-.30893-.18536h-.37072s-.24714.0618-.37071.18536c-.12357.0618-.30893.18535-.4325.30893-.12357.12357-.24714.30892-.37071.4325-.12357.12357-.12357.24714-.18536.37071 0 .12357-.0618.24714 0 .37071.0618.18536.12357.24715.18536.37072zm3.52178-.92679l.74142.74143.18536.18536c.0618.0618.12357.12357.12357.24714 0 .0618.0618.18536.0618.24714v.24714c0 .12357-.0618.18536-.12357.30893-.0618.12357-.12358.18536-.24715.30893-.24714.24714-.55607.4325-.80321.4325-.24714 0-.49428-.12357-.74143-.30893l-.37071-.37071-.98857.98857-.37071-.37072 2.53321-2.65678zm-.80322 1.54464l.37072.37072c.0618.0618.12357.12357.18535.12357.0618 0 .12358.0618.18536.0618.0618 0 .12357 0 .18536-.0618.0618-.0618.12357-.0618.18535-.12357.0618-.0618.12358-.12358.12358-.18536 0-.0618.0618-.12357 0-.18536-.0618-.0618 0-.12357-.0618-.18535-.0618-.0618-.0618-.12358-.12357-.12358l-.37071-.37071-.67965.67964zm1.48286 4.32499l-1.42107-1.42106 2.59499-2.595 1.42107 1.42107-.4325.4325-1.05035-1.05036-.55607.55607.98857.98857-.4325.4325-.98857-.98857-.67964.67964 1.11214 1.11215-.55607.43249zm1.85357 1.85357l-.30893-.30893.865-2.59499-1.73 1.73-.37071-.37072 2.59499-2.59499.30893.30893-.92678 2.59499 1.72999-1.73.37072.37072-2.53321 2.59499z" fill="#241c1e"/>
<path d="M394.31572 156.99722l-.80321-.865c-.37071-.30893-.74143-.55607-1.23571-.55607-.61786 0-1.17393.24714-1.48285.67964l-7.35249 9.4532c-.49429.61785-.37072 1.48285.24714 1.97714l1.42107 1.35928c.61786.49429 1.54464.12357 2.03892-.4325l7.35249-9.4532c.49429-.61785.24714-1.54464-.18536-2.16249z" fill="#2c2929"/>
<path d="M381.40253 1.17392V8.5882s-.0618.92678-.98857.92678H244.11492c-.98857 0-.98857-.92678-.98857-.92678V1.17392l69.13809.0618 69.13809-.0618z" fill="#444546"/>
<path d="m243.87 0h1.6682v8.4646h-1.6682zm2.5332 0h1.6682v8.4646h-1.6682zm2.5332 0h1.6682v8.4646h-1.6682zm2.4714 0h1.6682v8.4646h-1.6682zm2.4096 0h1.6682v8.4646h-1.6682zm2.5332 0h1.6682v8.4646h-1.6682zm2.4714 0h1.6682v8.4646h-1.6682zm2.5332 0h1.6682v8.4646h-1.6682zm2.5332 0h1.6682v8.4646h-1.6682zm2.4714 0h1.6682v8.4646h-1.6682zm2.5332 0h1.6682v8.4646h-1.6682zm2.4714 0h1.6682v8.4646h-1.6682zm2.4714 0h1.6682v8.4646h-1.6682zm2.4714 0h1.6682v8.4646h-1.6682zm2.5332 0h1.6682v8.4646h-1.6682zm2.4714 0h1.6682v8.4646h-1.6682zm2.5332 0h1.6682v8.4646h-1.6682zm2.4714 0h1.6682v8.4646h-1.6682zm2.5332 0h1.6682v8.4646h-1.6682zm2.4714 0h1.6682v8.4646h-1.6682zm2.4714 0h1.6682v8.4646h-1.6682zm2.4714 0h1.6682v8.4646h-1.6682zm2.5332 0h1.6682v8.4646h-1.6682zm2.4714 0h1.6682v8.4646h-1.6682zm2.5332 0h1.6682v8.4646h-1.6682zm2.4714 0h1.6682v8.4646h-1.6682zm2.5332 0h1.6682v8.4646h-1.6682zm2.5332 0h1.6682v8.4646h-1.6682zm2.4096 0h1.6682v8.4646h-1.6682zm2.4714 0h1.6682v8.4646h-1.6682zm2.5332 0h1.6682v8.4646h-1.6682zm2.4714 0h1.6682v8.4646h-1.6682zm2.6568 0h1.6682v8.4646h-1.6682zm2.5332 0h1.6682v8.4646h-1.6682zm2.5332 0h1.6682v8.4646h-1.6682zm2.4096 0h1.6682v8.4646h-1.6682zm2.4714 0h1.6682v8.4646h-1.6682zm2.5332 0h1.6682v8.4646h-1.6682zm2.4714 0h1.6682v8.4646h-1.6682zm2.5332 0h1.6682v8.4646h-1.6682zm2.5332 0h1.6682v8.4646h-1.6682zm2.4714 0h1.6682v8.4646h-1.6682zm2.5332 0h1.6682v8.4646h-1.6682zm2.4096 0h1.6682v8.4646h-1.6682zm2.4714 0h1.6682v8.4646h-1.6682zm2.5332 0h1.6682v8.4646h-1.6682zm2.5332 0h1.6682v8.4646h-1.6682zm2.7186 0h1.6682v8.4646h-1.6682zm2.5332 0h1.6682v8.4646h-1.6682zm2.4714 0h1.6682v8.4646h-1.6682zm2.4714 0h1.6682v8.4646h-1.6682zm2.4714 0h1.6682v8.4646h-1.6682zm2.5332 0h1.6682v8.4646h-1.6682zm2.4714 0h1.6682v8.4646h-1.6682zm2.5332 0h1.6682v8.4646h-1.6682z" fill="#282424"/>
</svg>
