<?xml version="1.0" encoding="UTF-8"?>
<svg version="1" viewBox="0 0 400 557.42" xmlns="http://www.w3.org/2000/svg">
<path d="m392.83 45.998c0 2.5091-2.034 4.5432-4.5432 4.5432h-376.57c-2.5092 0-4.5432-2.034-4.5432-4.5432v-40.443c0-2.5091 2.0339-4.5433 4.5432-4.5433h376.57c2.5091 0 4.5432 2.0341 4.5432 4.5433v40.443z" stroke="#2e2e2f" stroke-miterlimit="10" stroke-width="1.3629"/>
<path d="m7.065 9.0351c0-1.3635 2.0409-2.4689 4.5588-2.4689h377.87c1.7183 0 3.2144 0.5153 3.9911 1.276v-5.3733c0-1.3635-2.0409-2.4689-4.5583-2.4689h-377.87c-2.518 0-4.5589 1.1054-4.5589 2.4689v21.976c0 0.4328 0.20627 0.8394 0.56752 1.1929v-16.603z" fill="#434345"/>
<path d="m392.83 545.02c0 6.4744-2.034 11.723-4.5432 11.723h-376.57c-2.5092 0-4.5432-5.2486-4.5432-11.723v-104.35c0-6.4744 2.0339-11.723 4.5432-11.723h376.57c2.5091 0 4.5432 5.2486 4.5432 11.723v104.35z" stroke="#2e2e2f" stroke-miterlimit="10" stroke-width="1.3629"/>
<path d="m366.79 546.95c0 5.4075-1.766 9.7914-3.9443 9.7914h-326.95c-2.1786 0-3.9445-4.3839-3.9445-9.7914v-87.161c0-5.4074 1.7659-9.7913 3.9445-9.7913h326.95c2.1784 0 3.9443 4.3839 3.9443 9.7913v87.161z" stroke="#1c1b1c" stroke-miterlimit="10" stroke-width="1.3629"/>
<path d="m32.452 458.71c0-1.3636 1.7659-2.4688 3.9443-2.4688h326.95c1.4864 0 2.7812 0.5152 3.4532 1.2759v-5.3731c0-1.3636-1.766-2.4689-3.944-2.4689h-326.95c-2.1787 0-3.9446 1.1053-3.9446 2.4689v21.976c0 0.4328 0.17854 0.8394 0.49107 1.1929v-16.603z" fill="#2e2e2f"/>
<path d="m395.47 36.595h-390.94c-2.1247 0-3.847 1.7223-3.847 3.8469v395.27c0 2.1246 1.7223 3.8469 3.847 3.8469h390.94c2.1246 0 3.8469-1.7223 3.8469-3.8469v-395.27c0-2.1246-1.7223-3.8469-3.8469-3.8469z" stroke="#2e2e2f" stroke-miterlimit="10" stroke-width="1.3629"/>
<path d="m19.756 418.72c0 3.0109 2.4408 5.4518 5.4518 5.4518h349.75c3.0109 0 5.4518-2.4408 5.4518-5.4518v-356.48c0-3.0109-2.4408-5.4518-5.4518-5.4518h-349.75c-3.0109 0-5.4518 2.4408-5.4518 5.4518v356.48z" fill="#1c1b1c" stroke="#282829" stroke-miterlimit="10" stroke-width="1.3629"/>
<path d="m380.4 418.72v-356.48c0-1.1117-0.33353-2.1449-0.9049-3.007-38.43 14.577-92.286 35.524-95.318 39.554-4.7407 6.301-17.082 173.2-12.194 204.5 4.8885 31.308 4.9522 51.034-67.523 61.045-72.475 10.011-112.97 27.852-112.97 27.852s-41.58 15.265-71.396 28.438c0.77347 2.07 2.7682 3.5441 5.1079 3.5441h349.75c3.0112 0 5.452-2.4409 5.452-5.4518z" fill="#282829" stroke="#282829" stroke-miterlimit="10" stroke-width="1.3629"/>
<path d="m70.567 395c0 6.0217 4.6896 10.903 10.474 10.903h237.28c5.7849 0 10.474-4.8817 10.474-10.903v-311.43c0-6.0218-4.6896-10.904-10.474-10.904h-237.28c-5.7849 0-10.474 4.8817-10.474 10.904v311.43z"/>
<path d="m310.34 82.983h-95.425c-0.26525 0.6006-0.55678 1.1852-0.87685 1.7491h96.269c2.9272 0 5.2967 2.331 5.2967 5.2056v297.13c0 2.8748-2.3695 6.6098-5.2967 6.6098h-222.27c-2.9264 0-5.2975-3.7351-5.2975-6.6098v-297.13c0-2.8746 2.3711-5.2056 5.2975-5.2056h95.969c-0.3199-0.564-0.61111-1.1487-0.87749-1.7491h-95.159c-3.7928 0-6.8675 3.1483-6.8675 7.0318v298.09c0 3.8835 3.0747 7.0319 6.8675 7.0319h222.37c3.7925 0 6.868-3.1484 6.868-7.0319v-298.09c0-3.8835-3.0755-7.0318-6.868-7.0318z" fill="#fff"/>
<path d="m310.31 84.732h-96.269c-3.099 5.4565-8.6651 9.0962-15.018 9.0962-6.3532 0-11.919-3.6397-15.018-9.0962h-95.969c-2.9264 0-5.2975 2.331-5.2975 5.2056v297.13c0 2.8748 2.3711 6.6098 5.2975 6.6098h222.27c2.9272 0 5.2967-3.7351 5.2967-6.6098v-297.13c0-2.8746-2.3695-5.2056-5.2967-5.2056z" fill="#00173d" stroke="#475caa" stroke-width=".15915"/>
<path d="m93.212 84.491v301.33m26.14-301.09v304.71m26.813-304.71v304.71m26.601-304.71v304.71m26.779-295.64v295.64m26.231-304.71v304.71m26.751-304.71v304.71m26.537-304.71v304.71m26.752-304.75v304.71" fill="#475caa" stroke="#475caa" stroke-width=".18406"/>
<path d="m83.223 322.23h232m-232-27.052h232.1m-232.1-27.768h232.1m-232.1-26.832h232.1m-232.1-27.478h232.1m-232.1-27.369h232.1m-232.1-26.964h232.1m-232.1-26.9h232.1m-232.1-27.591h232.1m-232.1 245.66h232" fill="none" stroke="#475caa" stroke-width=".18406"/>
<path d="m83.223 377.04h232" fill="#475caa" stroke="#475caa" stroke-width=".18406"/>
<path d="m145.3 381.56 9.9133-16.291-2.0831-1.9616-0.0832-1.1945h7.9138l2.6656 2.3886 1.7497-2.3886h9.8298l5.9148 6.0564h12.162l-2.2491-2.9857s-1.0826-1.1934-0.58291-2.2175c0.49957-1.024 1.666-1.024 1.666-1.024h12.663l5.9568 6.0995h17.868l7.9764 8.1671v6.2744l-91.28-0.086" fill="#e51e25"/>
<path d="m81.445 382.48v5.6111c0 4.3147 3.4321 7.8128 7.6657 7.8128h220.65c4.2323 0 7.6645-3.4981 7.6645-7.8128v-5.6111h-235.98z" fill="#375eab"/>
<path d="m81.408 381.74h236.17v1.2796h-236.17z" fill="#e51e25"/>
<path d="m126.01 381.11c0 6.3368-5.0385 11.474-11.254 11.474-6.2149 0-11.253-5.1369-11.253-11.474 0-6.3362 5.0386-11.474 11.253-11.474 6.2157 0 11.254 5.1372 11.254 11.474z" fill="#3c70b7" stroke="#fff" stroke-width=".40068"/>
<path d="m119.2 376.85v3.7903h-7.2209c-0.99674 0-1.8076 0.8263-1.8076 1.8417 0 1.0164 0.81082 1.8421 1.8076 1.8421h5.916v3.791h-5.916c-3.0461 0-5.5248-2.5272-5.5248-5.6331 0-3.1047 2.4784-5.6322 5.5248-5.6322h7.2209z" fill="#ed2024"/>
<path d="m117.47 373.12h-5.9155v3.7905h5.9155c0.99642 0 1.8071 0.8268 1.8071 1.842 0 1.0166-0.81065 1.8423-1.8071 1.8423h-3.9836v-1.6922l-5.8025 3.5866 5.8025 3.5869v-1.6915h3.9836c3.0468 0 5.5248-2.527 5.5248-5.6323s-2.478-5.6323-5.5248-5.6323z" fill="#fff"/>
<path d="m115.96 382.64 5.8019 3.5869-5.8019 3.587" fill="#ed2024"/>
<path d="m239.13 367.09-1.1123-3.9062 3.7427 1.7981 3.1482-3.8557 0.67042 4.2136 4.9764-2.0579-2.781 3.7122 3.9296 1.9714-5.6462 0.7839 0.76498 5.6839-3.8403-4.5114-3.8158 4.5114 0.43241-5.2786-3.6867 1.4567" fill="#c1be31"/>
<path d="m242.01 367.39-69.97-0.03c-1.7933 2.6411-4.695 8.9381-6.2227 11.188 0-2.4102-0.15258-8.539-0.15258-11.344l-7.2377 0.03v1.7361h4.3291l-6.2833 11.144h-2.5838v1.5171h6.8765v-1.5171h-2.0262c1.2187-2.0598 3.5588-6.2764 4.9181-8.5758 0 2.3848 0.45838 7.4275 0.45838 10.093h1.8923c1.9837-2.8353 4.4952-8.334 5.9012-10.404 0 2.2367 0.1529 6.494 0.1529 8.7997h-1.6204v1.6043h9.1799v-1.081c0-0.6095-0.91724-0.7073-0.91724-0.7073v-4.3974h-2.7447v1.2216h0.73742v3.3598h-2.4764l-0.30436-11.057h23.245c-0.24506 0.3742-0.46367 0.8339-0.54749 1.3743-0.78229 5.0593 8.6743 4.0107 8.7441 7.1838 0.0306 1.3781-1.4168 2.187-3.3462 2.187-1.5285 0-3.0928-1.9966-3.2788-2.6172-0.1864-0.6209-0.23239-1.0785-0.23239-1.0785h-1.6487l-6.4e-4 5.6015h1.7019v-1.4336c0.91836 0.9361 2.4942 1.5756 3.9156 1.5756 2.831 0 5.2968-1.1639 5.2016-4.2124-0.0944-3.0237-2.1709-3.6376-4.7167-4.5367 0 0-4.028-0.8839-4.028-2.2012 0-1.1627 1.4679-1.8309 1.6186-1.8428h40.289l1.1756-1.5798z" fill="#fff"/>
<path d="M187.19921 378.3203c0-2.142-.65712-3.2278-2.25343-3.2278-1.203 0-1.60048.1447-2.10293.4308 0 0-.73501-.1557-1.16438-.1563-.42857-.0005-1.53269.1563-1.53269.1563v1.2208h.94609v3.286h-.78309v1.579h3.45916v-1.579h-.82172v-1.9656c0-.4181.24233-1.3926 1.08472-1.3926.40149 0 1.3136 0 1.3136 1.6484v3.2775h2.52092v-1.58h-.66625v-1.6975zm3.6845 1.4369c1.0368-.644 4.1105-1.6979 4.1105-1.6979s-.0239-1.8292-1.90579-2.6825c-1.01613-.4608-4.90658-.6342-4.7875 3.3167.0386 1.2935.78566 2.9511 3.63321 2.9102h2.81839v-1.5793h-2.81839c-.39795 0-.75279-.1267-1.05042-.2672zm-.1771-2.5512c1.22208-.9016 1.8816.1707 1.8816.1707l-2.21497 1.0239s-.17726-.8183.33337-1.1946zm20.62513 2.1749l.002-2.6243h1.53332v-1.5795h-1.53332l.00032-1.4962h-2.00677v1.4962h-.7528v1.5795h.7528v2.5743c-.008.2465-.0163 1.3422.62586 1.998.67186.6852 2.63905.4435 2.89244.3946l-.005-1.5726c-.4611.027-1.13361.046-1.3152-.1394-.22005-.2241-.1936-.6096-.1936-.6294zm-32.53545-4.8435c0 .086-.0683.1561-.15242.1561h-1.88608c-.0845 0-.15274-.07-.15274-.1561v-1.6876c0-.086.0683-.1563.15274-.1563h1.88608c.0841 0 .15242.07.15242.1563v1.6876zm37.7318.4738c-1.92055 0-3.47727 1.5939-3.47727 3.5606 0 1.9666 1.55672 3.5606 3.47727 3.5606 1.9207 0 3.47742-1.594 3.47742-3.5606 0-1.9665-1.55672-3.5606-3.47742-3.5606zm0 4.9263c-.73598 0-1.33379-.6114-1.33379-1.3657 0-.7542.59781-1.3658 1.33379-1.3658.73677 0 1.3341.6116 1.3341 1.3658 0 .7541-.59733 1.3657-1.3341 1.3657zm9.45991-3.8911c-.19826-.8006-.89913-1.3093-1.56586-1.1365-.18159.047-.33898.1422-.47232.2675l-.003-.0005s-.75552.5082-1.04706.5427c-.33673.04-.15915-.3957-.30612-.4387h-1.95227v1.5337h.82524v3.1889h-.89769v1.6244h3.58722v-1.6244h-.83566v-2.5264s.19713-.2405.46238-.2476c.009 0 .0263.0005.0382.001.31333.4592.82332.7053 1.31583.5776.66818-.172 1.04835-.9611.85073-1.7617zm10.67718 4.1576v-1.6974c0-2.1421-.22726-3.1983-2.10101-3.2279-1.04305-.016-1.52034.3713-1.95628.6611-.30548-.4356-.81354-.6589-1.65754-.6723-1.2038-.019-1.29596.1447-1.79825.4306 0 0-.73517-.1556-1.1639-.1561-.42953-.0006-1.53397.1561-1.53397.1561v1.221h.94625v3.286h-.78277v1.579h3.459v-1.579h-.82188v-1.9654c0-.4183.24249-1.3927 1.08488-1.3927.40245 0 .8565 0 .8565 1.6484v3.2774l1.87102-.018-.016-3.2591c0-.3445-.008-.6583-.0248-.9469.15418-.3586.43738-.6902.9275-.6902.40212 0 .85649 0 .85649 1.6483v3.2774h3.13028v-1.58h-1.27545zm4.23744-12.8737l-.56736-1.9919 1.90868.9168 1.80082-1.9161-.0758 2.1604 2.71069-.8613-1.36889 1.6435 2.00373 1.0051-2.87897.3996.3901 2.8983-1.95853-2.3004-1.70193 2.2508-.0231-2.6421-2.44367 1.1246" fill="#fff"/>
<path d="m157.53 100.24c0 0.9884-0.78662 1.7901-1.7561 1.7901h-65.801c-0.96949 0-1.7561-0.8017-1.7561-1.7901v-7.7264c0-0.9886 0.78662-1.7906 1.7561-1.7906h65.802c0.96948 0 1.7561 0.8019 1.7561 1.7906v7.7264zm151.14 3e-4c0 0.9886-0.78758 1.7903-1.7564 1.7903h-65.801c-0.97077 0-1.7566-0.8017-1.7566-1.7903v-7.7265c0-0.9881 0.78581-1.79 1.7566-1.79h65.801c0.96885 0 1.7564 0.8019 1.7564 1.79v7.7265z" fill="#ec1d25" stroke="#010101" stroke-width=".080136"/>
<path d="M94.618372 126.3668v-5.6562c0-.1725.136872-.3125.305959-.3125h5.889689m100.18159 5.9687v-5.6562c0-.1725.13687-.3125.30484-.3125h5.88985m-9.04898 5.9688v-5.6563c0-.1725-.13687-.3125-.30484-.3125h-5.88968m112.39899 5.9688v-5.6563c0-.1725-.13687-.3125-.305-.3125h-5.88921M94.618372 206.273v-5.6561c0-.1726.136872-.3125.305479-.3125h5.889689m100.18207 5.9686v-5.6561c0-.1726.13687-.3125.30484-.3125h5.88985m-9.04898 5.9692v-5.6565c0-.1726-.13687-.3125-.30484-.3125h-5.88968m112.39899 5.969v-5.6565c0-.1726-.13687-.3125-.305-.3125h-5.88921m6.19421-7.9701v5.6562c0 .1728-.13687.3127-.30564.3127h-5.88921m-100.18223-5.9689v5.6562c0 .1723-.13655.3122-.30468.3122h-5.89017m9.04898-5.9688v5.6566c0 .1723.13687.3122.30468.3122h5.88968m-112.398828-5.9688v5.6566c0 .1723.136872.3122.304998.3122h5.88969m-6.194688 90.5061v-5.6558c0-.1728.136872-.3127.305479-.3127h5.889689m100.18207 5.9685v-5.6558c0-.1728.13687-.3127.30484-.3127h5.88985m-9.04898 5.969v-5.6563c0-.1728-.13687-.3127-.30484-.3127h-5.88968m112.39899 5.969v-5.6563c0-.1728-.13687-.3127-.305-.3127h-5.88921m6.19421-7.97v5.6563c0 .1728-.13687.3127-.30564.3127h-5.88921m-100.18223-5.969v5.6563c0 .1723-.13655.3122-.30468.3122h-5.89017m9.04898-5.9685v5.6563c0 .1723.13687.3122.30468.3122h5.88968m-112.398828-5.9685v5.6563c0 .1723.136872.3122.304998.3122h5.88969m203.53273 75.1267v5.6563c0 .1728-.13687.3129-.30564.3129h-5.88921m-100.18223-5.9692v5.6563c0 .1723-.13655.3123-.30468.3123h-5.89017m9.04898-5.9686v5.6563c0 .1723.13687.3123.30468.3123h5.88968m-112.398828-5.9686v5.6563c0 .1723.136872.3123.304998.3123h5.88969" fill="none" stroke="#1f2358" stroke-width=".096163"/>
<path d="M200.36478 389.7691h-1.31712v1.2059h1.46794v.3622h-1.90548v-3.3446h1.82967v.3624h-1.39229v1.0567h1.31712v.3574zm1.21086 1.0422c.19617.1191.48258.218.78469.218.44716 0 .70857-.233.70857-.5707 0-.3127-.18111-.4909-.63837-.6647-.55294-.1939-.8948-.4765-.8948-.948 0-.5212.4369-.9083 1.09578-.9083.34699 0 .59814.08.74944.1637l-.12117.3524c-.11027-.06-.33625-.1586-.64365-.1586-.46191 0-.63789.2729-.63789.5013 0 .3127.20611.4665.67315.6448.57297.2184.86515.4914.86515.9831 0 .5162-.38706.9624-1.18682.9624-.32648 0-.68372-.094-.86435-.2132l.11027-.3622zm5.45951.4167c-.16107.08-.48274.1589-.8948.1589-.95538 0-1.67468-.5954-1.67468-1.692 0-1.0476.7193-1.7573 1.76973-1.7573.42231 0 .68869.09.8044.1493l-.1053.3521c-.16572-.079-.4026-.139-.68388-.139-.79415 0-1.32209.5012-1.32209 1.3798 0 .8187.47746 1.3447 1.30238 1.3447.26605 0 .53771-.054.71401-.1388l.0902.3423zm1.66844-.9425l-.3518 1.0518h-.45277l1.15172-3.3445h.52778l1.1562 3.3445h-.46751l-.36222-1.0518h-1.2014zm1.11053-.3374l-.33177-.9632c-.0752-.218-.12549-.4167-.17533-.6105h-.0107c-.0499.1986-.10498.4021-.17085.6055l-.33161.968h1.0203zm1.97006-1.9161c.21092-.034.48739-.064.83983-.064.4321 0 .74863.1.94994.2782.18607.159.29666.4018.29666.6999 0 .3026-.0907.5404-.26124.7143-.23144.2435-.6084.3672-1.03568.3672-.13127 0-.25147 0-.3518-.03v1.3397h-.43755v-3.3052zm.43771 1.6129c.0954.025.21621.035.36173.035.52794 0 .84961-.2531.84961-.715 0-.4416-.3167-.6547-.79896-.6547-.19169 0-.33721.015-.41222.034v1.3002zm4.5442.1242h-1.31712v1.2059h1.46778v.3622h-1.90532v-3.3446h1.83015v.3624h-1.39261v1.0567h1.31712v.3574zM92.401324 94.3708c.371672-.047.85906-.087 1.478993-.087.761294 0 1.319683.1339 1.673885.3751.327116.2143.522648.5423.522648.944 0 .4085-.159631.73-.460463.9642-.408053.3281-1.07158.4954-1.82438.4954-.230311 0-.442672-.01-.620574-.04v1.8077h-.770109v-4.4594zm.770109 2.1762c.168286.033.381288.047.638365.047.929419 0 1.496142-.3416 1.496142-.9642 0-.5959-.558229-.8841-1.407993-.8841-.336411 0-.593488.02-.726674.047v1.7547zm4.824518-2.2297h.77075v4.0241h2.549929v.4887h-3.320679v-4.5128zm6.028319 3.0932l-.61929 1.4196h-.79719l2.02792-4.5128h.93006l2.03674 4.5128h-.8238l-.63772-1.4196h-2.11672zm1.95741-.4551l-.58419-1.2991c-.13351-.2944-.22166-.5622-.31013-.8233h-.0179c-.0883.2678-.18608.5421-.30067.8168l-.58451 1.3057h1.79745zm4.00953 1.8747v-1.9148l-1.88592-2.598h.87653l.84127 1.2454c.23015.3414.40741.6161.59365.9308h.0179c.16828-.2948.37151-.5894.60182-.9308l.85842-1.2454h.87717l-2.001 2.5913v1.9215h-.77989zm7.37494-2.1156h-2.32075v1.6269h2.58632v.4887h-3.35643v-4.5128h3.2234v.4888h-2.45329v1.4261h2.32075v.4823zm2.14941-2.337c.38994-.06.94801-.094 1.47947-.094.82332 0 1.3543.1138 1.72662.3683.30115.2007.46943.5087.46943.857 0 .5959-.49572.9911-1.12463 1.1516v.02c.46063.1205.73501.442.87637.9106.19521.6294.33657 1.0646.46062 1.2388h-.79703c-.0973-.1273-.23031-.5155-.3986-1.078-.1771-.6227-.49572-.8571-1.19547-.8773h-.72619v1.9551h-.77059v-4.4527zm.77059 2.0557h.78822c.82396 0 1.34644-.3416 1.34644-.857 0-.5824-.55838-.8371-1.37321-.844-.37183 0-.6374.027-.76145.054v1.6471zm12.74037.094c0 1.5534-1.24917 2.3772-2.77191 2.3772-1.57612 0-2.68344-.9241-2.68344-2.2901 0-1.4327 1.17768-2.3701 2.77191-2.3701 1.62916-.0002 2.68344.9438 2.68344 2.283zm-4.63203.074c0 .9642.69077 1.8279 1.90419 1.8279 1.22208 0 1.91285-.8506 1.91285-1.875 0-.8973-.61993-1.8345-1.90435-1.8345-1.27497 0-1.91269.8903-1.91269 1.8816zm6.51539 2.2294v-4.5128h.84111l1.91285 2.2834c.44283.5289.78854 1.0042 1.07158 1.466l.0178-.01c-.0704-.6025-.0882-1.1516-.0882-1.8547v-1.8882h.72603v4.5128h-.77908l-1.89538-2.2898c-.41639-.5023-.81499-1.0177-1.11566-1.5066l-.0263.01c.0441.5689.062 1.1115.062 1.8614v1.9282h-.72683zm9.80017-2.1156h-2.31978v1.6269h2.58567v.4887h-3.35642v-4.5128h3.2234v.4888h-2.45265v1.4261h2.31978v.4823zm100.16364-2.2438c.37247-.047.85906-.087 1.47915-.087.76194 0 1.31953.1338 1.67373.375.32776.2141.52249.5424.52249.944 0 .4086-.15947.7299-.46063.9642-.40741.3281-1.07158.4956-1.8239.4956-.23015 0-.44331-.01-.61993-.04v1.8077h-.77091v-4.4595zm.77091 2.1763c.16813.033.38081.047.63724.047.93022 0 1.49695-.3415 1.49695-.9642 0-.5961-.55775-.8841-1.40799-.8841-.33626 0-.59349.02-.72604.047v1.7547zm4.82388-2.2299h.77091v4.0241h2.55025v.4887h-3.32116v-4.5128zm6.0288 3.0936l-.61945 1.4192h-.79735l2.02808-4.5128h.9299l2.03658 4.5128h-.82332l-.63772-1.4192h-2.11672zm1.95741-.4555l-.58435-1.299c-.13351-.2944-.2215-.5622-.31045-.8233h-.0173c-.0889.2678-.18592.5423-.30115.8167l-.58452 1.3058h1.79778zm4.00905 1.8747v-1.9148l-1.8864-2.598h.8762l.84192 1.2455c.23015.3415.40693.6159.59316.9309h.0176c.16861-.2948.37151-.5892.60199-.9309l.85922-1.2455h.87685l-2.00132 2.5913v1.9215h-.77925zm7.37477-2.1157h-2.3201v1.627h2.58583v.4887h-3.35642v-4.5128h3.2234v.4887h-2.45281v1.4264h2.3201v.482zm2.1499-2.3368c.38978-.06.94785-.094 1.47915-.094.82332 0 1.35494.1139 1.72693.3681.30083.2009.46912.5092.46912.8572 0 .5959-.49556.9908-1.12463 1.1517v.02c.46046.1205.73517.442.87717.9106.19457.6294.33641 1.0646.4603 1.2388h-.79703c-.0976-.1273-.23015-.5155-.3986-1.078-.17694-.6227-.4962-.8572-1.19531-.877h-.72587v1.955h-.77123v-4.4527zm.77123 2.0556h.7879c.82315 0 1.3458-.3413 1.3458-.8569 0-.5825-.55791-.8371-1.37257-.8436-.37167 0-.63772.027-.76113.053v1.6471zm15.30633-1.6496h-1.82551v-.4954h4.44387v.4954h-1.83399v4.0173h-.78437v-4.0173zm14.14932 1.7141c0 1.5533-1.25541 2.377-2.78778 2.377-1.58445 0-2.69786-.924-2.69786-2.29 0-1.4328 1.18361-2.3701 2.78713-2.3701 1.63847-.0002 2.69851.9438 2.69851 2.2831zm-4.65752.073c0 .9642.6943 1.8279 1.91366 1.8279 1.22928 0 1.92455-.8505 1.92455-1.875 0-.8972-.62362-1.8343-1.91462-1.8343-1.28298.0002-1.92359.8905-1.92359 1.8814z" fill="#fff"/>
<path d="M292.8509 98.7911l-1.16278-4.5129h.62538l.54381 2.2835c.13655.5623.259 1.1248.3409 1.56h.0133c.075-.4488.21765-.9844.37456-1.5669l.61192-2.2766h.61865l.55758 2.2899c.12982.5357.25195 1.0713.31975 1.5468h.0138c.0952-.4955.22422-.9978.36734-1.5601l.60519-2.2766h.60535l-1.29885 4.5129h-.61929l-.57794-2.3501c-.1428-.5758-.238-1.0177-.29971-1.4732h-.0136c-.0809.4486-.18335.8907-.35324 1.4732l-.65295 2.3501h-.61913zm-59.274 289.5041h-.9868v-.3672h2.40184v.3672h-.99144v2.9776h-.42376v-2.9776zm2.72398-.3672v1.399h1.56923v-1.399h.42376v3.3448h-.42376v-1.5682h-1.56923v1.5682h-.41895v-3.3448h.41895zm3.24921.045c.21188-.045.51495-.07.80392-.07.44796 0 .73677.084.9384.2728.16395.1492.25547.3773.25547.6353 0 .442-.26958.7349-.61128.8538v.015c.25019.089.39972.3273.47633.6749.10594.4662.18303.7887.25019.9181h-.43306c-.0524-.094-.12501-.3823-.21669-.7988-.0962-.4621-.26942-.6354-.64958-.6504h-.39507v1.4492h-.41847v-3.3001zm.41847 1.5234h.42872c.44781 0 .73165-.2529.73165-.6351 0-.4318-.30356-.6208-.74607-.6256-.20258 0-.34635.02-.4143.04v1.2208zm3.11842-1.5681v1.98c0 .7495.32359 1.067.75664 1.067.48162 0 .78934-.3278.78934-1.067v-1.98h.42312v1.9504c0 1.0273-.52425 1.4487-1.22672 1.4487-.66465 0-1.16502-.3919-1.16502-1.4292v-1.9699h.42264zm3.1681 2.8189c.18768.1189.46206.218.75087.218.42841 0 .6786-.2332.6786-.5709 0-.3127-.17294-.4909-.61096-.6647-.53002-.1939-.8573-.4765-.8573-.948 0-.5212.41847-.9081 1.04947-.9081.3324 0 .57281.079.71721.1637l-.11539.3526c-.1061-.06-.32247-.1587-.61641-.1587-.44283 0-.61128.2728-.61128.5012 0 .3126.1973.4667.64494.6447.54909.2185.82813.4914.82813.9831 0 .5163-.37071.9626-1.13617.9626-.31302 0-.65472-.094-.82765-.2133l.10594-.3622zm3.57632-2.4517h-.98696v-.3672h2.40216v.3672h-.9916v2.9776h-.42376v-2.9776zm24.85375-.6428h1.74777v.3623h-1.3293v1.1118h1.22769v.357h-1.22769v1.5137h-.41847v-3.3448zm3.29231 0v3.3447h-.41847v-3.3447h.41847zm1.26119.045c.21188-.045.51527-.07.80392-.07.44828 0 .73693.084.9384.2728.16412.1492.25579.3773.25579.6353 0 .442-.26974.7348-.61144.8538v.015c.25035.089.3994.3273.47633.6749.10642.4662.18319.7887.25051.918h-.43354c-.0524-.094-.12485-.3822-.21637-.7988-.0965-.4619-.26942-.6353-.65006-.6503h-.39475v1.4491h-.41863v-3.3zm.41879 1.5234h.42841c.4478 0 .73164-.2529.73164-.6351 0-.4316-.30324-.6208-.74575-.6256-.20258 0-.34667.02-.4143.04v1.2208zm4.38024.2084h-1.26134v1.2057h1.40575v.3624h-1.82454v-3.3447h1.75257v.3623h-1.33362v1.0569h1.26134v.3574z" fill="#fff"/>
<ellipse cx="224.63" cy="389.89" rx="2.243" ry="2.2964" fill="#e51e25" stroke="#010101" stroke-width=".092028"/>
<ellipse cx="258.55" cy="389.71" rx="2.2429" ry="2.2965" fill="#e51e25" stroke="#010101" stroke-width=".092028"/>
<path d="m288.01 385.79 3.2304 3.3076-2.4227 2.5726 3.6787-0.9188 0.98712 3.124 0.8972-3.4912 3.7688 1.194-2.6022-2.6642 2.2432-2.8483-3.3199 1.2499-1.2565-2.8118-0.98696 2.8485" fill="#e51e25" stroke="#010101" stroke-width=".092028"/>
<path d="m313.23 77.18h-96.8v0.3545h0.0245c-0.25916 1.9251-0.78693 3.7546-1.5362 5.4483h95.425c3.7925 0 6.868 3.1483 6.868 7.0318v298.09c0 3.8835-3.0753 7.0319-6.868 7.0319h-222.37c-3.7928 0-6.8675-3.1484-6.8675-7.0319v-298.09c0-3.8835 3.0747-7.0318 6.8675-7.0318h95.159c-0.74863-1.6936-1.2767-3.5232-1.5362-5.4483v-0.3545h-95.451c-5.8996 0-10.682 4.8973-10.682 10.939v304.23c0 6.0412 7.8348 10.939 10.53 10.939h225.56c9.1048 0 12.362-4.8974 12.362-10.939v-304.23c-3.2e-4 -6.0411-4.7835-10.938-10.683-10.938z" fill="#f4eb32"/>
<path d="m371.65 64.456c0.12357 0.3478-1.5069 1.2435-3.6414 2.0008l-31.948 11.336c-2.1342 0.7575-3.9645 1.0894-4.0879 0.7418l-0.75905-2.1394c-0.12357-0.3476 1.5069-1.2434 3.6412-2.0008l31.948-11.336c2.1344-0.7573 3.9647-1.0894 4.0882-0.7416l0.75889 2.1392zm-40.436 338.93c-0.12357 0.3478 1.5069 1.2437 3.6414 2.0009l31.948 11.336c2.1342 0.7574 3.9645 1.0893 4.0879 0.7417l0.75905-2.1395c0.12357-0.3476-1.5069-1.2434-3.6412-2.0007l-31.948-11.336c-2.1343-0.7575-3.9646-1.0896-4.0882-0.7418l-0.75889 2.1393zm-303.43-339.13c-0.12357 0.3478 1.5069 1.2435 3.6414 2.0008l31.948 11.336c2.1342 0.7574 3.9645 1.0894 4.0879 0.7417l0.75905-2.1393c0.12357-0.3476-1.5069-1.2434-3.6412-2.0008l-31.948-11.336c-2.1343-0.7573-3.9647-1.0894-4.0882-0.7416l-0.75889 2.1392zm40.436 338.93c0.12357 0.3478-1.5069 1.2437-3.6414 2.0009l-31.948 11.336c-2.1342 0.7575-3.9645 1.0894-4.0879 0.7418l-0.75905-2.1395c-0.12357-0.3476 1.5069-1.2434 3.6412-2.0007l31.948-11.336c2.1343-0.7574 3.9647-1.0895 4.0882-0.7417l0.75889 2.1393z" fill="#2e2e2f"/>
<g transform="matrix(.16027 0 0 .16027 -8.0776e-6 0)" stroke="#95d0f1" stroke-miterlimit="10">
<path d="m1023.5 1096.7 51.334-26.666-42 42.666-15.334 66-14-68.666-46.666-40zm-128 170 64.667 30.667 63.333-34-53.333 55.333-4.667 59.371-15.333-60.037-54.667-48.667zm236 108.66 15.334-22.667 6.666 30-22 41.334 26-39.334 28.667-12-4.667 22.667m38 359.33-604.67 20m120.67-138 423.33 206.67m-217.33-160 221.33 336.67m-161.33 0-3.807-255.33m-143.53 178.67 304.67-359.33m253.33 80.666-414.47 104.14m114.47-370.14-114.47 370.14m-262.19 168.52 101.33 38 98-44.667-77.334 63.334-18.666 99.333-27.334-88.667zm532.67-2 40.667 28 10.666 54 8-50 62.667-52-72 34zm456-563.33 40 34 16 69.334v-65.334l48-48-52 26.336z" fill="none" stroke-width="8.5039"/>
<circle cx="706.9" cy="1207.6" r="8.25" fill="#fff"/>
<circle cx="1052.2" cy="1299.1" r="8.25" fill="#fff"/>
<circle cx="1006.5" cy="1378.1" r="8.25" fill="#fff"/>
<circle cx="917.21" cy="1407" r="8.25" fill="#fff"/>
<circle cx="903.79" cy="1459.6" r="8.25" fill="#fff"/>
<circle cx="778.15" cy="1515.8" r="8.25" fill="#fff"/>
<circle cx="659.65" cy="978.11" r="8.25" fill="#fff"/>
<circle cx="651.4" cy="933.86" r="8.25" fill="#fff"/>
<circle cx="651.4" cy="885.86" r="8.25" fill="#fff"/>
<circle cx="1716" cy="801.87" r="8.25" fill="#fff"/>
<circle cx="1616.6" cy="1792.6" r="8.25" fill="#fff"/>
<circle cx="1472.6" cy="1860" r="8.25" fill="#fff"/>
<circle cx="1276.5" cy="1548.8" r="8.25" fill="#fff"/>
<circle cx="1242.6" cy="1664.7" r="8.25" fill="#fff"/>
<circle cx="869.64" cy="1815.8" r="8.25" fill="#fff"/>
</g>
<g clip-rule="evenodd" fill-rule="evenodd">
<path d="m36.308 20.905h2.4528l1.6123 4.5851 1.4378-4.5851h2.4916v8.434h-1.7072v-5.2621l-1.721 5.2621h-1.0677l-1.6776-5.2621v5.2621h-1.821v-8.434" fill="#ed1c24"/>
<path d="m45.232 20.905h3.6167c1.144 0 2.3579 0.944 2.353 2.0709-0.0049684 1.1011-0.84528 1.5942-1.4094 1.8769 0.91275 0.22871 1.6452 1.3057 1.6056 2.2025-0.050326 1.1387-1.0581 2.2837-2.549 2.2837h-3.6167v-8.434h-1.6027e-4zm1.7648 1.1863h1.1328c1.7321 0 1.663 2.0398 0.087188 2.0398h-1.22v-2.0398zm0.021797 3.4657h1.133c1.7319 0 1.6628 2.5272 0.087028 2.5272h-1.22v-2.5272z" fill="#0095da"/>
</g>
<circle cx="57.304" cy="25.437" r="1.2822" clip-rule="evenodd" fill="#ed1c24" fill-rule="evenodd"/>
<circle cx="64.142" cy="25.437" r="1.2822" clip-rule="evenodd" fill="#ed1c24" fill-rule="evenodd"/>
<circle cx="70.98" cy="25.437" r="1.2822" clip-rule="evenodd" fill="#ed1c24" fill-rule="evenodd"/>
<circle cx="77.819" cy="25.437" r="1.2822" clip-rule="evenodd" fill="#ed1c24" fill-rule="evenodd"/>
<circle cx="84.657" cy="25.437" r="1.2822" clip-rule="evenodd" fill="#ed1c24" fill-rule="evenodd"/>
<circle cx="91.495" cy="25.437" r="1.2822" clip-rule="evenodd" fill="#ed1c24" fill-rule="evenodd"/>
<circle cx="98.345" cy="25.437" r="1.2822" clip-rule="evenodd" fill="#ed1c24" fill-rule="evenodd"/>
<circle cx="105.18" cy="25.437" r="1.2822" clip-rule="evenodd" fill="#ed1c24" fill-rule="evenodd"/>
<circle cx="112.02" cy="25.437" r="1.2822" clip-rule="evenodd" fill="#ed1c24" fill-rule="evenodd"/>
<circle cx="118.86" cy="25.437" r="1.2822" clip-rule="evenodd" fill="#ed1c24" fill-rule="evenodd"/>
<circle cx="125.47" cy="25.437" r="1.2822" clip-rule="evenodd" fill="#ed1c24" fill-rule="evenodd"/>
<circle cx="132.31" cy="25.437" r="1.2822" clip-rule="evenodd" fill="#ed1c24" fill-rule="evenodd"/>
<circle cx="139.15" cy="25.437" r="1.2822" clip-rule="evenodd" fill="#ed1c24" fill-rule="evenodd"/>
<circle cx="145.99" cy="25.437" r="1.2822" clip-rule="evenodd" fill="#ed1c24" fill-rule="evenodd"/>
<circle cx="152.83" cy="25.437" r="1.2822" clip-rule="evenodd" fill="#ed1c24" fill-rule="evenodd"/>
<circle cx="159.66" cy="25.437" r="1.2822" clip-rule="evenodd" fill="#ed1c24" fill-rule="evenodd"/>
<circle cx="166.51" cy="25.437" r="1.2822" clip-rule="evenodd" fill="#ed1c24" fill-rule="evenodd"/>
<circle cx="235.74" cy="25.437" r="1.2822" clip-rule="evenodd" fill="#ed1c24" fill-rule="evenodd"/>
<circle cx="242.58" cy="25.437" r="1.2822" clip-rule="evenodd" fill="#ed1c24" fill-rule="evenodd"/>
<circle cx="249.42" cy="25.437" r="1.2822" clip-rule="evenodd" fill="#ed1c24" fill-rule="evenodd"/>
<circle cx="256.26" cy="25.437" r="1.2822" clip-rule="evenodd" fill="#ed1c24" fill-rule="evenodd"/>
<circle cx="263.09" cy="25.437" r="1.2822" clip-rule="evenodd" fill="#ed1c24" fill-rule="evenodd"/>
<circle cx="269.93" cy="25.437" r="1.2822" clip-rule="evenodd" fill="#ed1c24" fill-rule="evenodd"/>
<circle cx="276.78" cy="25.437" r="1.2822" clip-rule="evenodd" fill="#ed1c24" fill-rule="evenodd"/>
<circle cx="283.62" cy="25.437" r="1.2822" clip-rule="evenodd" fill="#ed1c24" fill-rule="evenodd"/>
<circle cx="290.46" cy="25.437" r="1.2822" clip-rule="evenodd" fill="#ed1c24" fill-rule="evenodd"/>
<circle cx="297.3" cy="25.437" r="1.2822" clip-rule="evenodd" fill="#ed1c24" fill-rule="evenodd"/>
<circle cx="303.91" cy="25.437" r="1.2822" clip-rule="evenodd" fill="#ed1c24" fill-rule="evenodd"/>
<circle cx="310.75" cy="25.437" r="1.2822" clip-rule="evenodd" fill="#ed1c24" fill-rule="evenodd"/>
<circle cx="317.59" cy="25.437" r="1.2822" clip-rule="evenodd" fill="#ed1c24" fill-rule="evenodd"/>
<circle cx="324.42" cy="25.437" r="1.2822" clip-rule="evenodd" fill="#ed1c24" fill-rule="evenodd"/>
<circle cx="331.26" cy="25.437" r="1.2822" clip-rule="evenodd" fill="#ed1c24" fill-rule="evenodd"/>
<circle cx="338.1" cy="25.437" r="1.2822" clip-rule="evenodd" fill="#ed1c24" fill-rule="evenodd"/>
<circle cx="344.95" cy="25.437" r="1.2822" clip-rule="evenodd" fill="#ed1c24" fill-rule="evenodd"/>
<g fill="none" stroke="#0072bc" stroke-miterlimit="10" stroke-width=".22715">
<path d="m176.73 21.121-2.2424 3.5441-2.3696-3.5638-3.3726-0.030772 5.7419 8.7581 5.44-8.6789zm19.493 7.1243c-0.81306 0.97173-2.035 1.5897-3.4011 1.5897-2.4482 0-4.4327-1.9845-4.4327-4.4327s1.9845-4.4325 4.4327-4.4325c1.3894 0 2.6293 0.63885 3.442 1.6394l-1.8306 1.7862c-0.33577-0.53611-0.93182-0.89272-1.6114-0.89272-1.0491 0-1.8999 0.85073-1.8999 1.8997 0 1.0493 0.85073 1.8999 1.8999 1.8999 0.67939 0 1.2756-0.35645 1.6114-0.89272l1.7898 1.8356zm7.4788-7.1416h-6.4728l-0.56384 3.0221h2.2892v5.6296h3.0223v-5.6296h2.289zm1.6369 0.0096163v8.6249h3.0976v-6.2827h1.3599c0.41559 0.26445 0.37776 0.60439 0.37776 0.60439 0.22663 1.2844-1.0956 1.0578-1.0956 1.0578v2.531l1.3222 2.1002h3.6268l-2.0021-3.5734c0.60423-0.30227 1.0198-0.90666 1.0198-0.90666 0.41543-0.56672 0.22663-1.9266 0.22663-1.9266-0.18912-2.2667-2.4555-2.2289-2.4555-2.2289h-5.4775zm16.486 2.4552-0.79335-2.4834h-6.5507v8.6725h6.5507l0.79335-2.4834h-4.8885v-0.91243h2.4839v-1.9571h-2.4839v-0.83614zm-33.908 0-0.80216-2.4833h-6.625v8.6723h6.625l0.80216-2.4834h-4.9439v-0.91243h2.5121v-1.9568h-2.5121v-0.83646z"/>
<path d="m232.59 21.12-3.7109 0.020996-1.6736 2.0446-1.6745-2.0446-3.7108-0.020996 3.5372 4.3219-3.5367 4.3198 3.7145-0.021156 1.6704-2.0409 1.6697 2.0409 3.7145 0.021156-3.5371-4.3198z"/>
<path d="m176.73 21.121-2.2424 3.5441-2.3696-3.5638-3.3726-0.030772 5.7419 8.7581 5.44-8.6789zm19.493 7.1243c-0.81306 0.97173-2.035 1.5897-3.4011 1.5897-2.4482 0-4.4327-1.9845-4.4327-4.4327s1.9845-4.4325 4.4327-4.4325c1.3894 0 2.6293 0.63885 3.442 1.6394l-1.8306 1.7862c-0.33577-0.53611-0.93182-0.89272-1.6114-0.89272-1.0491 0-1.8999 0.85073-1.8999 1.8997 0 1.0493 0.85073 1.8999 1.8999 1.8999 0.67939 0 1.2756-0.35645 1.6114-0.89272l1.7898 1.8356zm7.4788-7.1416h-6.4728l-0.56384 3.0221h2.2892v5.6296h3.0223v-5.6296h2.289zm1.6369 0.0096163v8.6249h3.0976v-6.2827h1.3599c0.41559 0.26445 0.37776 0.60439 0.37776 0.60439 0.22663 1.2844-1.0956 1.0578-1.0956 1.0578v2.531l1.3222 2.1002h3.6268l-2.0021-3.5734c0.60423-0.30227 1.0198-0.90666 1.0198-0.90666 0.41543-0.56672 0.22663-1.9266 0.22663-1.9266-0.18912-2.2667-2.4555-2.2289-2.4555-2.2289h-5.4775zm16.486 2.4552-0.79335-2.4834h-6.5507v8.6725h6.5507l0.79335-2.4834h-4.8885v-0.91243h2.4839v-1.9571h-2.4839v-0.83614zm-33.908 0-0.80216-2.4833h-6.625v8.6723h6.625l0.80216-2.4834h-4.9439v-0.91243h2.5121v-1.9568h-2.5121v-0.83646z"/>
<path d="m232.59 21.12-3.7109 0.020996-1.6736 2.0446-1.6745-2.0446-3.7108-0.020996 3.5372 4.3219-3.5367 4.3198 3.7145-0.021156 1.6704-2.0409 1.6697 2.0409 3.7145 0.021156-3.5371-4.3198z"/>
</g>
<g clip-rule="evenodd" fill-rule="evenodd">
<path d="m46.426 514.17h2.4528l1.6123 4.5849 1.4378-4.5849h2.4916v8.434h-1.7072v-5.2622l-1.721 5.2622h-1.0677l-1.6776-5.2622v5.2622h-1.821v-8.434" fill="#ed1c24"/>
<path d="m55.35 514.17h3.6167c1.144 0 2.3579 0.944 2.353 2.0709-0.0049684 1.1009-0.84528 1.5942-1.4094 1.8769 0.91275 0.22871 1.6452 1.3057 1.6056 2.2025-0.050326 1.1387-1.0581 2.2837-2.549 2.2837h-3.6167v-8.434h-1.6028e-4zm1.7648 1.1862h1.1328c1.7321 0 1.663 2.0398 0.087188 2.0398h-1.22v-2.0398zm0.021797 3.4659h1.133c1.7319 0 1.6628 2.5272 0.087028 2.5272h-1.22v-2.5272z" fill="#0095da"/>
</g>
<circle cx="67.422" cy="518.71" r="1.2822" clip-rule="evenodd" fill="#ed1c24" fill-rule="evenodd"/>
<circle cx="74.26" cy="518.71" r="1.2822" clip-rule="evenodd" fill="#ed1c24" fill-rule="evenodd"/>
<circle cx="81.098" cy="518.71" r="1.2822" clip-rule="evenodd" fill="#ed1c24" fill-rule="evenodd"/>
<circle cx="87.936" cy="518.71" r="1.2822" clip-rule="evenodd" fill="#ed1c24" fill-rule="evenodd"/>
<circle cx="94.775" cy="518.71" r="1.2822" clip-rule="evenodd" fill="#ed1c24" fill-rule="evenodd"/>
<circle cx="101.61" cy="518.71" r="1.2822" clip-rule="evenodd" fill="#ed1c24" fill-rule="evenodd"/>
<circle cx="108.46" cy="518.71" r="1.2822" clip-rule="evenodd" fill="#ed1c24" fill-rule="evenodd"/>
<circle cx="115.3" cy="518.71" r="1.2822" clip-rule="evenodd" fill="#ed1c24" fill-rule="evenodd"/>
<circle cx="122.14" cy="518.71" r="1.2822" clip-rule="evenodd" fill="#ed1c24" fill-rule="evenodd"/>
<circle cx="128.98" cy="518.71" r="1.2822" clip-rule="evenodd" fill="#ed1c24" fill-rule="evenodd"/>
<circle cx="135.59" cy="518.71" r="1.2822" clip-rule="evenodd" fill="#ed1c24" fill-rule="evenodd"/>
<circle cx="142.43" cy="518.71" r="1.2822" clip-rule="evenodd" fill="#ed1c24" fill-rule="evenodd"/>
<circle cx="149.27" cy="518.71" r="1.2822" clip-rule="evenodd" fill="#ed1c24" fill-rule="evenodd"/>
<circle cx="156.11" cy="518.71" r="1.2822" clip-rule="evenodd" fill="#ed1c24" fill-rule="evenodd"/>
<circle cx="162.94" cy="518.71" r="1.2822" clip-rule="evenodd" fill="#ed1c24" fill-rule="evenodd"/>
<circle cx="169.78" cy="518.71" r="1.2822" clip-rule="evenodd" fill="#ed1c24" fill-rule="evenodd"/>
<circle cx="176.63" cy="518.71" r="1.2822" clip-rule="evenodd" fill="#ed1c24" fill-rule="evenodd"/>
<circle cx="245.86" cy="518.71" r="1.2822" clip-rule="evenodd" fill="#ed1c24" fill-rule="evenodd"/>
<circle cx="252.7" cy="518.71" r="1.2822" clip-rule="evenodd" fill="#ed1c24" fill-rule="evenodd"/>
<circle cx="259.53" cy="518.71" r="1.2822" clip-rule="evenodd" fill="#ed1c24" fill-rule="evenodd"/>
<circle cx="266.37" cy="518.71" r="1.2822" clip-rule="evenodd" fill="#ed1c24" fill-rule="evenodd"/>
<circle cx="273.21" cy="518.71" r="1.2822" clip-rule="evenodd" fill="#ed1c24" fill-rule="evenodd"/>
<circle cx="280.05" cy="518.71" r="1.2822" clip-rule="evenodd" fill="#ed1c24" fill-rule="evenodd"/>
<circle cx="286.9" cy="518.71" r="1.2822" clip-rule="evenodd" fill="#ed1c24" fill-rule="evenodd"/>
<circle cx="293.74" cy="518.71" r="1.2822" clip-rule="evenodd" fill="#ed1c24" fill-rule="evenodd"/>
<circle cx="300.58" cy="518.71" r="1.2822" clip-rule="evenodd" fill="#ed1c24" fill-rule="evenodd"/>
<circle cx="307.41" cy="518.71" r="1.2822" clip-rule="evenodd" fill="#ed1c24" fill-rule="evenodd"/>
<circle cx="314.03" cy="518.71" r="1.2822" clip-rule="evenodd" fill="#ed1c24" fill-rule="evenodd"/>
<circle cx="320.87" cy="518.71" r="1.2822" clip-rule="evenodd" fill="#ed1c24" fill-rule="evenodd"/>
<circle cx="327.7" cy="518.71" r="1.2822" clip-rule="evenodd" fill="#ed1c24" fill-rule="evenodd"/>
<circle cx="334.54" cy="518.71" r="1.2822" clip-rule="evenodd" fill="#ed1c24" fill-rule="evenodd"/>
<circle cx="341.38" cy="518.71" r="1.2822" clip-rule="evenodd" fill="#ed1c24" fill-rule="evenodd"/>
<circle cx="348.22" cy="518.71" r="1.2822" clip-rule="evenodd" fill="#ed1c24" fill-rule="evenodd"/>
<circle cx="355.07" cy="518.71" r="1.2822" clip-rule="evenodd" fill="#ed1c24" fill-rule="evenodd"/>
<g fill="none" stroke="#0072bc" stroke-miterlimit="10" stroke-width=".22715">
<path d="m186.85 514.39-2.2424 3.5443-2.3696-3.564-3.3726-0.030612 5.7419 8.7579 5.44-8.6789zm19.493 7.1243c-0.81306 0.97173-2.035 1.5897-3.4011 1.5897-2.4482 0-4.4327-1.9843-4.4327-4.4325s1.9845-4.4325 4.4327-4.4325c1.3894 0 2.6293 0.63885 3.442 1.6394l-1.8306 1.7862c-0.33577-0.53611-0.93182-0.89272-1.6114-0.89272-1.0491 0-1.8999 0.85089-1.8999 1.8999 0 1.0493 0.85073 1.8999 1.8999 1.8999 0.67939 0 1.2756-0.35661 1.6114-0.89272l1.7898 1.8353zm7.4786-7.1416h-6.4726l-0.56384 3.0221h2.2892v5.6296h3.0223v-5.6296h2.289zm1.637 0.0096164v8.6249h3.0976v-6.2828h1.3599c0.41559 0.26445 0.37776 0.60439 0.37776 0.60439 0.22663 1.2846-1.0956 1.0578-1.0956 1.0578v2.5312l1.3222 2.1002h3.6268l-2.0021-3.5734c0.60423-0.30227 1.0198-0.90666 1.0198-0.90666 0.41543-0.56656 0.22663-1.9266 0.22663-1.9266-0.18912-2.2667-2.4555-2.2289-2.4555-2.2289h-5.4775zm16.486 2.4554-0.79335-2.4836h-6.5507v8.6727h6.5507l0.79335-2.4834h-4.8885v-0.91259h2.4839v-1.9571h-2.4839v-0.83598zm-33.908 0-0.80216-2.4834h-6.625v8.6725h6.625l0.80216-2.4834h-4.9441v-0.91259h2.5123v-1.9568h-2.5123v-0.8363z"/>
<path d="m242.71 514.39-3.7109 0.020996-1.6736 2.0448-1.6745-2.0448-3.7108-0.020996 3.5372 4.3219-3.5367 4.3198 3.7145-0.021156 1.6704-2.0409 1.6697 2.0409 3.7145 0.021156-3.5371-4.3198z"/>
<path d="m186.85 514.39-2.2424 3.5443-2.3696-3.564-3.3726-0.030612 5.7419 8.7579 5.44-8.6789zm19.493 7.1243c-0.81306 0.97173-2.035 1.5897-3.4011 1.5897-2.4482 0-4.4327-1.9843-4.4327-4.4325s1.9845-4.4325 4.4327-4.4325c1.3894 0 2.6293 0.63885 3.442 1.6394l-1.8306 1.7862c-0.33577-0.53611-0.93182-0.89272-1.6114-0.89272-1.0491 0-1.8999 0.85089-1.8999 1.8999 0 1.0493 0.85073 1.8999 1.8999 1.8999 0.67939 0 1.2756-0.35661 1.6114-0.89272l1.7898 1.8353zm7.4786-7.1416h-6.4726l-0.56384 3.0221h2.2892v5.6296h3.0223v-5.6296h2.289zm1.637 0.0096164v8.6249h3.0976v-6.2828h1.3599c0.41559 0.26445 0.37776 0.60439 0.37776 0.60439 0.22663 1.2846-1.0956 1.0578-1.0956 1.0578v2.5312l1.3222 2.1002h3.6268l-2.0021-3.5734c0.60423-0.30227 1.0198-0.90666 1.0198-0.90666 0.41543-0.56656 0.22663-1.9266 0.22663-1.9266-0.18912-2.2667-2.4555-2.2289-2.4555-2.2289h-5.4775zm16.486 2.4554-0.79335-2.4836h-6.5507v8.6727h6.5507l0.79335-2.4834h-4.8885v-0.91259h2.4839v-1.9571h-2.4839v-0.83598zm-33.908 0-0.80216-2.4834h-6.625v8.6725h6.625l0.80216-2.4834h-4.9441v-0.91259h2.5123v-1.9568h-2.5123v-0.8363z"/>
<path d="m242.71 514.39-3.7109 0.020996-1.6736 2.0448-1.6745-2.0448-3.7108-0.020996 3.5372 4.3219-3.5367 4.3198 3.7145-0.021156 1.6704-2.0409 1.6697 2.0409 3.7145 0.021156-3.5371-4.3198z"/>
</g>
<circle cx="43.996" cy="467.61" r="6.8148" stroke="#1c1b1c" stroke-miterlimit="10" stroke-width="1.3629"/>
<circle cx="43.996" cy="545.35" r="6.8148" stroke="#1c1b1c" stroke-miterlimit="10" stroke-width="1.3629"/>
<circle cx="354.51" cy="467.61" r="6.8148" stroke="#1c1b1c" stroke-miterlimit="10" stroke-width="1.3629"/>
<circle cx="354.51" cy="545.35" r="6.8148" stroke="#1c1b1c" stroke-miterlimit="10" stroke-width="1.3629"/>
</svg>
