<?xml version="1.0" encoding="UTF-8"?>
<svg viewBox="0 0 400 130.32" xmlns="http://www.w3.org/2000/svg">
<path d="m200.4 130.32 187.73-1.8571c1.3726 0 3.0682-0.80742 4.0372-2.18l3.9564-7.6706h-391.44l3.9564 7.6706c1.0497 1.3726 2.6645 2.18 4.0371 2.18l187.73 1.8571" fill="#d5d4cf"/>
<path d="m200 29.956h197.74c1.2919 0 2.2608 1.0497 2.2608 2.2608l-2.3415 84.053c0 1.2919-1.0497 2.2608-2.2608 2.2608h-390.71c-1.2919 0-2.2608-1.0497-2.2608-2.2608l-2.4223-84.053c0-1.2919 1.0497-2.2608 2.2608-2.2608h197.74" fill="#e2e4e2"/>
<path d="M344.12596 109.16431h.16148v1.85708l-.0807.16149s-.0807.0807-.16148.0807h-3.31046c-.0807 0-.16149 0-.16149-.0807l-.0807-.16149v-1.85708h.32297v1.53411h1.1304v-1.29188h.32297v1.29188h1.29189v-1.53411h.5652zm-.72669-1.61486h.40372c.0807 0 .24223.0807.32297.16149.0807.0807.16148.16148.16148.24222.0808.0807.0808.24223.0808.40372v.32297l-.0808.0807-.0807.0808h-.40371v-.0808l.0807-.0807.0807-.0807v-.32297l-.0807-.0808c-.0807 0-.0807-.0807-.16149-.0807h-2.98748v-.32297l2.66451-.24223zm.72669-3.06823h.16148v1.85709l-.0807.16148s-.0807.0807-.16148.0807h-3.31046c-.0807 0-.16149 0-.16149-.0807l-.0807-.16148v-1.85709h.32297v1.53412h1.1304v-1.29189h.32297v1.29189h1.29189v-1.53412h.5652zm-.32297-3.22971h.32297l.0807.0807c0 .0807.0807.16149.0807.24223 0 .0807.0808.16149.0808.32297v.40372c0 .24223 0 .48445-.0808.64594-.0807.16148-.16148.32297-.32297.48446-.16148.16148-.32297.24222-.5652.32297-.24223.0807-.48445.0807-.80743.0807-.32297 0-.56519 0-.80742-.0807-.24223-.0807-.40372-.16149-.5652-.32297-.16149-.16149-.32297-.32298-.40372-.48446-.0807-.16149-.16148-.40371-.16148-.64594v-.32297c0-.0807.0807-.16149.0807-.24223 0-.0807.0807-.16149.0807-.24223l.0808-.16149.0807-.0807h.40371l-.0807.0807c0 .0807-.0807.0807-.16149.16149-.0807.0807-.0807.16148-.16148.24223 0 .0807-.0807.24223-.0807.40371 0 .16149 0 .32297.0807.40372.0807.16148.16148.24222.32297.32297.16149.0807.24223.16148.48446.24222.24223.0807.40371.0807.64594.0807.24223 0 .40371 0 .64594-.0807.24223-.0807.32297-.16148.48446-.24222.16148-.0807.24223-.24223.24223-.32297.0807-.16149.0807-.32298.0807-.48446 0-.16149 0-.24223-.0807-.40372 0-.0807-.0808-.16148-.0808-.24222-.0807-.0807-.0807-.16149-.0807-.16149l-.0807-.0807h.0807l.16149.0807zm-2.90674-2.906736h.16148v1.1304h3.31046v.40371l-.0808.0807h-3.22971v1.049656l-.0807.0807h-.16149l-.0807-.0807h-.0807v-2.664506h.24223M58.215583 109.08356c.161486 0 .322972 0 .484457.0808.161486.0807.242229.16148.403715.24223.08074.0807.161485.24222.242228.40371.08074.16149.08074.32297.08074.5652v.40371h1.291885v.32298h-3.391199c-.08074 0-.161485 0-.161485-.0807l-.08074-.16148v-1.04966c0-.0807 0-.16149.08074-.24223 0-.0807.08074-.16148.161485-.32297l.242229-.24223c.08074-.0807.161485-.16148.322971-.16148.08074.24222.161486.24222.322971.24222zm0 .48446c-.161485 0-.242228 0-.403714.0807l-.242228.24223c-.08074.0807-.08074.16149-.08074.24223v.72669h1.453371v-.40372c0-.16148 0-.24223-.08074-.40371 0-.0807-.08074-.16149-.161486-.24223-.08074-.0807-.161485-.0807-.242228-.16149 0-.0807-.08074-.0807-.242229-.0807zm.726686-4.36011c.322971 0 .5652 0 .807428.0807.242229.0807.403714.16149.645943.32297.161486.16149.322971.32297.403714.48446.08074.24223.161486.48446.161486.72669 0 .24222-.08074.48445-.161486.72668-.08074.16149-.161486.40371-.322971.48446-.161486.16148-.322972.24223-.5652.32297-.242229.0807-.484457.0807-.807428.0807-.322972 0-.5652 0-.807429-.0807-.242228-.0807-.403714-.16149-.5652-.32297-.161485-.16149-.322971-.32297-.403714-.48446-.08074-.24223-.161485-.48446-.161485-.72668 0-.24223.08074-.48446.161485-.72669.08074-.16149.161486-.40371.322972-.48446.161485-.16148.322971-.24223.565199-.32297.161486 0 .403715-.0807.726686-.0807zm0 .5652c-.242229 0-.403714 0-.5652.0807-.161486 0-.322971.0807-.484457.16149-.161486.0807-.242228.16148-.322971.32297-.08074.16148-.08074.32297-.08074.5652 0 .24223 0 .40371.08074.5652.08074.16148.161485.24223.322971.32297.161486.0807.322971.16148.484457.16148.161486 0 .322971.0807.5652.0807.242228 0 .403714 0 .5652-.0807.161485-.0807.322971-.0807.484457-.16148.161485-.0807.242228-.16149.322971-.32297.08074-.16149.08074-.32297.08074-.5652 0-.24223 0-.40372-.08074-.5652-.08074-.16149-.161486-.24223-.322971-.32297-.161486-.0807-.322972-.16149-.484457-.16149-.161486-.0807-.322972-.0807-.5652-.0807zm1.776342-4.84457v.0807l.08074.0807v.48446h-.08074v.0807l-2.825999.72669 2.825999.72668v.0807h.08074v.48445l-.08074.0807v.0807l-3.391199.96891h-.161485l-.08074-.0807v-.32297l.08074-.0807.08074-.0807 3.068228-.80742-3.068228-.80743h-.08074l-.08074-.0807v-.32298h.08074v-.0807h.08074l3.068228-.88817-3.068228-.80743h-.08074l-.08074-.0807v-.32297l.08074-.0807h.161485m3.310456-2.66451h.161486v1.85709l-.08074.16148s-.08074.0807-.161485.0807h-3.229714c-.08074 0-.161485 0-.161485-.0807l-.08074-.16148v-1.85709h.322971v1.53411h1.1304v-1.29188h.322971v1.29188h1.291885v-1.53411h.484457zm.08074-3.31046l.08074.16149v.40371h-.08074l-.888171.32298c-.08074 0-.161486.0807-.242228.16148-.08074.0807-.161486.0807-.242229.16149-.08074.0807-.08074.16148-.161486.24223 0 .0807-.08074.16148-.08074.32297v.32297h1.534113v.32297h-3.310456c-.08074 0-.161485 0-.161485-.0807l-.08074-.16149v-1.21114c0-.16149.08074-.24223.08074-.40372.08074-.0807.08074-.16148.161485-.24222.08074-.0807.161486-.16149.242229-.16149.08074 0 .242228-.0807.322971-.0807.161486 0 .242229 0 .322971.0807.08074 0 .161486.0807.242229.16149.08074.0807.161486.16148.161486.24222.08074.0807.08074.16149.161485.32298l.08074-.16149.161486-.16149c.08074-.0807.161485-.0807.161485-.0807.08074 0 .161486-.0807.242229-.0807l.807428-.32297.484457-.0807zm-2.58377.80743c-.161486 0-.242229 0-.403715.0808-.08074.0807-.161485.16148-.242228.32297v.80743h1.211142v-.48446c0-.16149 0-.24223-.08074-.32297 0-.0808-.08074-.16149-.161486-.24223-.08074-.0807-.161486-.0807-.161486-.16149h-.161485zM387.0004 86.233344c-.16148.5652-.72668 1.1304-1.29188 1.37263-.40372.16149-2.50303.72669-9.93137 2.826l-1.1304.32297v-2.826s2.01857-.5652 4.5216-1.1304l4.5216-1.1304-2.09932-.5652c-4.92531-1.29188-5.73274-1.53411-6.05571-1.6956-.48446-.24223-.80743-.5652-.88817-1.04965-.0807-.24223-.0807-.80743 0-1.04966.16149-.48446.48446-.88817 1.04966-1.1304.32297-.16149 1.37263-.40371 5.40977-1.45337 1.37263-.32297 2.50302-.64594 2.50302-.64594s-1.61485-.48446-4.44085-1.21115l-4.5216-1.1304v-2.826s1.1304.32298 2.42229.64595c6.21719 1.6956 8.31651 2.34154 8.72022 2.50303.64594.32297 1.04966.80742 1.21114 1.37262.0807.24223.0807.72669 0 .96892-.0807.32297-.16148.48445-.48445.80743-.24223.24222-.32297.32297-.5652.40371-.40372.16149-1.04966.40371-5.57126 1.61486-1.04966.32297-1.93783.5652-1.93783.5652s.96892.32297 2.2608.64594c2.826.80743 4.27937 1.21114 4.68309 1.29188.88817.24223 1.45337.80743 1.61485 1.45338v1.04965zm-4.36011-14.77594h-4.27937v-2.745252h8.55874v2.745252h-4.27937zm0-5.409766h-4.27937v-2.745256h8.55874v2.745256h-4.27937zm-5.81348 4.440856c-.16149.64594-.64595 1.1304-1.29189 1.21114-.72668.16149-1.45337-.40371-1.6956-1.1304-.0807-.40371-.0807-.88817.16149-1.21114.0807-.24223.40371-.5652.5652-.645942.64594-.403715 1.53411-.161486 1.93783.484452.32297.40372.40371.88818.32297 1.29189zm0-5.40977c-.16149.807428-.96892 1.372628-1.6956 1.211143-.5652-.08074-1.04966-.5652-1.21115-1.1304-.0807-.403714-.0807-.888171.16149-1.211143.0807-.242228.40371-.484457.5652-.645942.64594-.403714 1.53411-.161486 1.93783.484457.24223.403714.32297.888171.24223 1.291885z" fill="#bdbbb8"/>
<path d="m196.53 71.78-156.8-2.2608-0.5652-0.16149c-4.4409-1.4534-7.6706-5.975-7.6706-10.739 0-4.6023 2.9067-8.3973 7.5898-9.9314l0.5652-0.16149 157.85-3.7949h4.8446l157.93 3.7949 0.5652 0.16149c4.6831 1.5341 7.5898 5.329 7.5898 9.9314 0 4.7638-3.2297 9.2854-7.5898 10.658l-0.5652 0.16148-159.39 2.2608-4.3601 0.0808z" fill="#eeefec"/>
<path d="m197.58 48.769-157.21 3.7949c-7.4283 2.4223-5.329 11.143 0 12.919l156.16 2.2608h4.3601l158.74-2.2608c5.329-1.7763 7.4283-10.497 0-12.919l-157.37-3.7949h-4.6831z" fill="#91b9e3"/>
<path d="m42.632 53.29c-7.3476 1.7763-5.329 8.2358 0 9.5277l153.9 1.6149c1.0496 0.08074 2.3415 0 3.4719 0l157.37-1.6956c5.329-1.2919 7.3476-7.7513 0-9.5277l-157.37-2.826c-52.402 0.80743-104.88 1.9378-157.37 2.9067z"/>
<path d="M94.065402 111.66734H90.02826v-1.45338c0-.32297 0-.5652.08074-.64594.08074-.16148.161485-.24223.403714-.32297.161486-.0807.403714-.16149.645943-.16149.322971 0 .5652.0808.726685.24223.161486.16149.322972.40372.322972.72669.08074-.16149.161485-.24223.242228-.24223.161486-.16149.322971-.24223.484457-.32297l1.1304-.5652v.5652l-.807429.40371c-.322971.16149-.565199.32297-.645942.40372l-.242229.24223c0 .0807-.08074.16148-.08074.32297v.48445h1.776343v.32298zm-2.2608-.40372v-.96891c0-.24223 0-.32297-.08074-.48446-.08074-.16149-.161486-.16149-.242229-.24223-.08074-.0807-.242228-.0807-.403714-.0807-.242229 0-.403714.0807-.484457.16148-.08074.0807-.161486.32298-.161486.5652v1.04966h1.372628zm2.2608-2.90674H90.02826v-2.42229h.484457v1.93783h1.211143v-1.85708h.484457v1.85708h1.372628v-2.01857h.484457m-1.291886-.48446l-.08074-.40371c.242228 0 .403714-.0807.484457-.16149.161485-.0807.242228-.16148.322971-.32297.08074-.16148.08074-.32297.08074-.48445 0-.24223-.08074-.48446-.161486-.64595-.161486-.16148-.322971-.24223-.484457-.24223-.08074 0-.242228 0-.322971.0807l-.242229.24223c-.08074.0807-.161485.32297-.242228.64594-.08074.32297-.161486.5652-.242229.64594l-.322971.32297c-.161486.0807-.322971.0807-.484457.0807-.322972 0-.5652-.0807-.807429-.32298-.242228-.24222-.322971-.48445-.322971-.88817 0-.24223.08074-.48445.161486-.64594.08074-.16149.242228-.32297.403714-.40371.161486-.0807.403714-.16149.645943-.16149v.40371c-.242229 0-.484457.0807-.5652.24223-.161486.16149-.161486.32297-.161486.5652 0 .24223.08074.40372.161486.5652.08074.16149.242228.16149.403714.16149.161486 0 .322971-.0807.403714-.16149.08074-.0807.161486-.32297.242229-.64594.08074-.32297.161485-.5652.242228-.72669.08074-.24222.242229-.32297.403714-.48445.161486-.0807.403715-.16149.5652-.16149.242229 0 .403714.0807.645943.16149.161486.0807.322971.24223.403714.40371.08074.16149.161486.40372.161486.64594 0 .40372-.161486.72669-.403714.96892-.161486.64594-.484457.72668-.888172.72668zm1.291886-3.22971H90.02826v-2.422276h.484457v2.018566h1.211143v-1.857086h.484457v1.857086h1.372628v-2.099316h.484457m0-1.45337h-3.552685v1.1304h-.484457v-2.66451h.484457v1.1304h3.552685" fill="#bdbbb8"/>
<path d="m39.16 118.61-0.88817-22.043c0-1.6149 1.2111-2.9068 2.7453-2.9068h7.8321c1.5341 0 2.7453 1.2919 2.7453 2.826l0.88817 22.124h-13.323z" fill="#fff"/>
<path d="m44.166 125.23c-1.3726 0-1.9378-1.0497-2.2608-1.6956l-0.16149-0.24223-2.5838-4.6831h13.323l1.8571 3.2297c0.32297 0.64595 0.32297 1.4534 0 2.0186-0.40371 0.80743-1.3726 1.2919-2.3415 1.2919h-7.8321z" fill="#edefea"/>
<path d="m40.048 118.61-0.88817-21.962c0-0.72669 0.64594-1.3726 1.3726-1.3726h8.5587c0.72669 0 1.3726 0.64594 1.3726 1.3726l0.88817 21.962h-11.304z" fill="#ebece7"/>
<path d="m51.352 118.61h-11.304l2.503 4.3601c0.40371 0.72669 0.5652 1.2111 1.2111 1.2111h8.8817c0.64594 0 1.5341-0.64594 1.2111-1.2111l-2.503-4.3601z" fill="#e4e4e2"/>
<path d="m40.856 102.7h5.0061v0.72669h-5.0061z" fill="#b9bcbf"/>
<path d="m41.906 101.57h0.88817c0.5652-0.80743 1.4534-1.3726 2.503-1.3726 1.6149 0 2.9875 1.2919 2.9875 2.9875 0 1.6148-1.2919 2.9875-2.9875 2.9875-1.0497 0-1.9378-0.5652-2.503-1.3726v0.0808h-0.80743c0.64594 1.2111 1.8571 2.0186 3.3105 2.0186 2.0993 0 3.7142-1.6956 3.7142-3.7142 0-2.0993-1.6956-3.7142-3.7142-3.7142-1.5341 0-2.826 0.88817-3.3912 2.0993z" fill="#b9bcbf"/>
<path d="m45.458 115.14c-0.40372 0-0.80743-0.16149-1.1304-0.48446s-0.48446-0.72669-0.48446-1.1304c0-0.88817 0.72668-1.5341 1.5341-1.5341 0.40371 0 0.80743 0.16148 1.1304 0.48445 0.32297 0.32298 0.48446 0.72669 0.48446 1.1304 0 0.40372-0.16148 0.80743-0.48446 1.1304-0.24223 0.24223-0.64594 0.40372-1.0497 0.40372z" fill="#b2d42e"/>
<path d="M45.458216 112.63625c-.5652 0-.968914.40371-.968914.96891 0 .24223.08074.48446.322971.72669.161486.16148.403714.32297.726685.32297.242229 0 .484457-.0807.726686-.32297.161486-.16149.322971-.40372.322971-.72669 0-.24223-.08074-.48445-.322971-.72668-.322971-.16149-.5652-.24223-.807428-.24223z" fill="#d2eb76"/>
<path d="m74.606 118.61-0.72669-22.043c0-1.6149 1.0497-2.9068 2.4223-2.9068h6.7824c1.2919 0 2.4223 1.2919 2.4223 2.826l0.72669 22.124h-11.627z" fill="#fff"/>
<path d="m78.966 125.23c-1.2111 0-1.6956-1.0497-1.9378-1.6956l-0.08074-0.24223-2.2608-4.6831h11.627l1.6149 3.2297c0.32297 0.64595 0.32297 1.4534 0 2.0186-0.40371 0.80743-1.2111 1.2919-2.0186 1.2919h-6.9439z" fill="#edefea"/>
<path d="m75.333 118.61-0.72668-21.962c0-0.72669 0.5652-1.3726 1.2111-1.3726h7.4283c0.64594 0 1.2111 0.64594 1.2111 1.3726l0.72669 21.962h-9.8506z" fill="#ebece7"/>
<path d="m85.184 118.61h-9.8506l2.1801 4.3601c0.32297 0.72669 0.48446 1.2111 1.0497 1.2111h7.7513c0.5652 0 1.3726-0.64594 1.0497-1.2111l-2.1801-4.3601z" fill="#e4e4e2"/>
<path d="m360.6 118.61 0.88817-22.043c0-1.6149-1.2919-2.9068-2.826-2.9068h-8.0743c-1.5341 0-2.826 1.2919-2.826 2.826l-0.88817 22.124h13.726z" fill="#fff"/>
<path d="m355.43 125.23c1.4534 0 2.0186-1.0497 2.3415-1.6956l0.16148-0.24223 2.7453-4.6831h-13.807l-1.9378 3.2297c-0.40372 0.64595-0.32297 1.4534 0 2.0186 0.48445 0.80743 1.4534 1.2919 2.4223 1.2919h8.0743z" fill="#edefea"/>
<path d="m359.79 118.61 0.88817-21.962c0-0.72669-0.64594-1.3726-1.4534-1.3726h-8.8817c-0.80743 0-1.4534 0.64594-1.4534 1.3726l-0.88818 21.962h11.788z" fill="#ebece7"/>
<path d="m348 118.61h11.708l-2.5838 4.3601c-0.40372 0.72669-0.5652 1.2111-1.2919 1.2111h-9.2047c-0.72669 0-1.6149-0.64594-1.2919-1.2111l2.6645-4.3601z" fill="#e4e4e2"/>
<path d="m183.77 92.693v1.2919h32.459v-1.2919h-32.459" fill="gray"/>
<path d="m278.48 118.61h-0.88817c0 1.2919-0.80742 5.8942-2.0993 5.8942h-150.83c-1.2919 0-2.0993-4.6024-2.0993-5.8942h-0.88817c0 1.2919 1.0497 6.2979 2.3415 6.2979h152.12c1.2919 0 2.3415-5.0868 2.3415-6.2979" fill="#848381"/>
<path d="m273.56 92.047h-147.11c-2.9875 0-4.9253 2.9067-4.9253 6.0557v20.509h0.88817l-0.24223-20.266c0-2.826 1.6148-5.4098 4.1986-5.4098h57.327v-0.24223h32.459v0.24223h57.327c2.5838 0 4.1986 2.5838 4.1986 5.4098l-0.24223 20.266h0.88817v-20.509c0.16148-3.149-1.7763-6.0557-4.7638-6.0557" fill="#8a8b8a"/>
<path d="m216.23 92.693h-32.459v0.16148h32.459v-0.16148" fill="#595959"/>
<path d="m351.96 106.58 3.6334-2.9068v5.8135m1.0497-5.8135h0.96891v5.8135h-0.96891z" fill="#bdbbb8"/>
<path d="m200 0h146.79c0.80743 0 1.6956 0.24223 2.4223 0.64594l49.415 29.552h-397.25l49.415-29.552c0.72668-0.40371 1.5341-0.64594 2.4223-0.64594h146.79z" fill="#ebeae8"/>
<path d="m377.47 26.241h-354.95v-0.08074l0.08074-0.08074c0.32297-0.24223 1.5341-0.96891 5.8135-3.5527l32.055-19.136h279.13l31.893 19.136c4.2794 2.5838 5.4905 3.3105 5.8135 3.5527l0.16149 0.08074v0.08074zm-354.38-0.24223h353.82c-3.8757-2.3415-36.254-21.72-37.465-22.447h-278.89c-1.1304 0.72668-33.589 20.186-37.465 22.447z" fill="#bdbbb8"/>
<path d="m8.155 25.999h14.534v0.24223h-14.534zm369.24 0h14.534v0.24223h-14.534z" fill="#bdbbb8"/>
</svg>
