<?xml version="1.0" encoding="UTF-8"?>
<svg data-name="Calque 1" viewBox="0 0 1431.3 1470.8" xmlns="http://www.w3.org/2000/svg" xmlns:xlink="http://www.w3.org/1999/xlink">
<defs>
<radialGradient id="m" cx="888.56" cy="188.1" r="4.93" xlink:href="#b"/>
<radialGradient id="an" cx="554.2" cy="137.73" r="4.93" xlink:href="#c"/>
<radialGradient id="bi" cx="766.79" cy="885.52" r="3.75" xlink:href="#a"/>
<radialGradient id="ba" cx="779.61" cy="885.52" r="3.75" xlink:href="#a"/>
<radialGradient id="az" cx="792.43" cy="885.52" r="3.75" xlink:href="#a"/>
<radialGradient id="ay" cx="805.25" cy="885.52" r="3.75" xlink:href="#a"/>
<radialGradient id="ax" cx="830.88" cy="885.52" r="3.75" xlink:href="#a"/>
<radialGradient id="aw" cx="842.68" cy="885.52" r="3.75" xlink:href="#a"/>
<radialGradient id="av" cx="854.47" cy="885.52" r="3.75" xlink:href="#a"/>
<radialGradient id="au" cx="895.12" cy="885.52" r="3.75" xlink:href="#a"/>
<radialGradient id="bs" cx="933.7" cy="885.52" r="3.75" xlink:href="#a"/>
<radialGradient id="br" cx="752.61" cy="825.86" r="3.75" xlink:href="#a"/>
<radialGradient id="bq" cx="765.42" cy="825.86" r="3.75" xlink:href="#a"/>
<radialGradient id="bp" cx="778.24" cy="825.86" r="3.75" xlink:href="#a"/>
<radialGradient id="bo" cx="791.06" cy="825.86" r="3.75" xlink:href="#a"/>
<radialGradient id="bn" cx="803.88" cy="825.86" r="3.75" xlink:href="#a"/>
<radialGradient id="bm" cx="816.7" cy="825.86" r="3.75" xlink:href="#a"/>
<radialGradient id="bl" cx="829.52" cy="825.86" r="3.75" xlink:href="#a"/>
<radialGradient id="bk" cx="842.33" cy="825.86" r="3.75" xlink:href="#a"/>
<radialGradient id="bj" cx="855.15" cy="825.86" r="3.75" xlink:href="#a"/>
<radialGradient id="bh" cx="1036.4" cy="826.77" r="3.75" xlink:href="#a"/>
<radialGradient id="bg" cx="1231.8" cy="826.77" r="3.75" xlink:href="#a"/>
<radialGradient id="bf" cx="1356.3" cy="826.77" r="3.75" xlink:href="#a"/>
<radialGradient id="be" cx="1356.3" cy="856.37" r="3.75" xlink:href="#a"/>
<radialGradient id="bd" cx="1364" cy="894.17" r="3.75" gradientTransform="rotate(2.16 1580.5 688.43)" xlink:href="#a"/>
<radialGradient id="bc" cx="1365.2" cy="927.13" r="3.75" gradientTransform="rotate(2.16 1580.5 688.43)" xlink:href="#a"/>
<radialGradient id="bb" cx="1036.4" cy="856.37" r="3.75" xlink:href="#a"/>
<radialGradient id="ao" cx="599.41" cy="188.1" r="4.93" xlink:href="#c"/>
<radialGradient id="d" cx="794.67" cy="111.47" r="4.93" gradientUnits="userSpaceOnUse">
<stop stop-color="#f8b133" offset=".01"/>
<stop stop-color="#f8af33" offset=".43"/>
<stop stop-color="#f7a832" offset=".59"/>
<stop stop-color="#f59d32" offset=".7"/>
<stop stop-color="#f28c30" offset=".78"/>
<stop stop-color="#ef762f" offset=".86"/>
<stop stop-color="#eb5a2d" offset=".93"/>
<stop stop-color="#e63b2b" offset=".99"/>
<stop stop-color="#e5332a" offset="1"/>
</radialGradient>
<radialGradient id="h" cx="828.23" cy="111.47" r="4.93" xlink:href="#d"/>
<radialGradient id="b" cx="1015.5" cy="111.47" r="4.93" gradientUnits="userSpaceOnUse">
<stop stop-color="#fcea0d" offset=".01"/>
<stop stop-color="#e5332a" offset="1"/>
</radialGradient>
<radialGradient id="u" cx="1135.5" cy="161.99" r="4.93" xlink:href="#b"/>
<radialGradient id="q" cx="966.15" cy="161.99" r="4.93" xlink:href="#b"/>
<radialGradient id="p" cx="1091" cy="188.1" r="4.93" xlink:href="#b"/>
<radialGradient id="o" cx="1061.3" cy="188.1" r="4.93" xlink:href="#b"/>
<radialGradient id="n" cx="935.86" cy="188.1" r="4.93" xlink:href="#b"/>
<radialGradient id="a" cx="739.79" cy="825.86" r="3.75" gradientUnits="userSpaceOnUse">
<stop stop-color="#fff" offset=".39"/>
<stop stop-color="#fcea0d" offset=".77"/>
<stop stop-color="#e5332a" offset="1"/>
</radialGradient>
<radialGradient id="l" cx="980.11" cy="161.99" r="4.93" xlink:href="#b"/>
<radialGradient id="k" cx="1165.9" cy="169.82" r="4.93" gradientTransform="rotate(20.66 1185.9 158.15)" xlink:href="#b"/>
<radialGradient id="ae" cx="1328.4" cy="111.47" r="4.93" xlink:href="#b"/>
<radialGradient id="e" cx="1344.7" cy="135.59" r="4.93" gradientUnits="userSpaceOnUse">
<stop stop-color="#fcea0d" offset=".59"/>
<stop stop-color="#fbe50e" offset=".64"/>
<stop stop-color="#fad710" offset=".7"/>
<stop stop-color="#f7bf14" offset=".77"/>
<stop stop-color="#f29e19" offset=".84"/>
<stop stop-color="#ed7420" offset=".91"/>
<stop stop-color="#e74128" offset=".98"/>
<stop stop-color="#e5332a" offset="1"/>
</radialGradient>
<radialGradient id="ad" cx="1365.7" cy="161.07" r="4.93" xlink:href="#b"/>
<radialGradient id="c" cx="1068.6" cy="111.47" r="4.93" gradientUnits="userSpaceOnUse">
<stop stop-color="#fff" offset=".48"/>
<stop stop-color="#e5332a" offset="1"/>
</radialGradient>
<radialGradient id="am" cx="949.45" cy="161.99" r="4.93" xlink:href="#c"/>
<radialGradient id="al" cx="838.08" cy="188.1" r="4.93" xlink:href="#c"/>
<radialGradient id="ak" cx="935.86" cy="161.99" r="4.93" xlink:href="#c"/>
<radialGradient id="aj" cx="1251.2" cy="137.73" r="4.93" xlink:href="#c"/>
<radialGradient id="ai" cx="1298.5" cy="188.1" r="4.93" xlink:href="#c"/>
<radialGradient id="ah" cx="1310.9" cy="188.1" r="4.93" xlink:href="#c"/>
<radialGradient id="ag" cx="1265.7" cy="137.73" r="4.93" xlink:href="#c"/>
<radialGradient id="i" cx="83.15" cy="111.47" r="4.93" xlink:href="#d"/>
<radialGradient id="g" cx="116.7" cy="111.47" r="4.93" xlink:href="#d"/>
<radialGradient id="ac" cx="303.96" cy="111.47" r="4.93" xlink:href="#b"/>
<radialGradient id="ab" cx="423.96" cy="161.99" r="4.93" xlink:href="#b"/>
<radialGradient id="aa" cx="254.63" cy="161.99" r="4.93" xlink:href="#b"/>
<radialGradient id="z" cx="379.52" cy="188.1" r="4.93" xlink:href="#b"/>
<radialGradient id="y" cx="349.74" cy="188.1" r="4.93" xlink:href="#b"/>
<radialGradient id="x" cx="224.33" cy="188.1" r="4.93" xlink:href="#b"/>
<radialGradient id="w" cx="177.04" cy="188.1" r="4.93" xlink:href="#b"/>
<radialGradient id="v" cx="268.59" cy="161.99" r="4.93" xlink:href="#b"/>
<radialGradient id="t" cx="500.09" cy="420.85" r="4.93" gradientTransform="rotate(20.66 1185.9 158.15)" xlink:href="#b"/>
<radialGradient id="s" cx="616.87" cy="111.47" r="4.93" xlink:href="#b"/>
<radialGradient id="j" cx="633.17" cy="135.59" r="4.93" xlink:href="#e"/>
<radialGradient id="r" cx="654.2" cy="161.07" r="4.93" xlink:href="#b"/>
<radialGradient id="af" cx="357.04" cy="111.47" r="4.93" xlink:href="#c"/>
<radialGradient id="at" cx="237.93" cy="161.99" r="4.93" xlink:href="#c"/>
<radialGradient id="as" cx="126.56" cy="188.1" r="4.93" xlink:href="#c"/>
<radialGradient id="ar" cx="224.33" cy="161.99" r="4.93" xlink:href="#c"/>
<radialGradient id="aq" cx="539.68" cy="137.73" r="4.93" xlink:href="#c"/>
<radialGradient id="ap" cx="586.96" cy="188.1" r="4.93" xlink:href="#c"/>
<clipPath id="f" transform="translate(0 -8.34)">
<rect x="1009.9" y="676.54" width="77.93" height="30" rx="1.1" fill="none"/>
</clipPath>
<style>.cls-39,.cls-4,.cls-42,.cls-5,.cls-51,.cls-58,.cls-59,.cls-63{fill:none}.cls-2{fill:#3a3a3a}.cls-3,.cls-50{fill:#488eaa}.cls-3{stroke:#adb8bc;stroke-width:4px}.cls-130,.cls-3,.cls-37,.cls-39,.cls-4,.cls-42,.cls-5,.cls-51,.cls-58,.cls-59,.cls-63,.cls-65,.cls-66,.cls-67,.cls-70,.cls-74,.cls-75{stroke-miterlimit:10}.cls-4,.cls-5{stroke:#d0eaf9;stroke-width:5px}.cls-5{stroke:#def0fa}.cls-6{fill:#eeeeef}.cls-8{fill:#848484}.cls-9{fill:#fff}.cls-10{fill:#828282}.cls-37{fill:#2e2e2e;stroke:#444;stroke-width:3px}.cls-38{fill:#4c4c4c}.cls-39{stroke:#c7c8c9;stroke-width:10px}.cls-40{fill:#2d2d2d}.cls-42,.cls-51,.cls-59,.cls-65,.cls-66,.cls-67,.cls-70,.cls-74,.cls-75{stroke:#fff}.cls-43{fill:#353535}.cls-44{fill:#6c6c6c}.cls-45{fill:#959495}.cls-46{fill:#606060}.cls-47{fill:#bfbebf}.cls-130,.cls-48{fill:#303031}.cls-51,.cls-75{stroke-width:.75px}.cls-52{fill:#81f2cc}.cls-53{fill:#80cef4}.cls-54{fill:#ed998e}.cls-55{fill:#ffba1f}.cls-56{fill:#e2e2e2}.cls-57{fill:#e5e5e5}.cls-58{stroke:#3f3f3f}.cls-58,.cls-59{stroke-width:2px}.cls-63{stroke:#1d1d1b}.cls-130,.cls-63,.cls-65,.cls-66,.cls-67,.cls-70,.cls-74{stroke-width:.5px}.cls-64{fill:#009ee2;opacity:.22}.cls-65{fill:#b5e6ea}.cls-66{fill:#acb766}.cls-67{fill:#50859a}.cls-69,.cls-75{fill:#80cde9}.cls-70{fill:#b2b2b2}.cls-72{fill:#7f7944}.cls-73,.cls-74{fill:#437b88}.cls-78{fill:#d1d1d1}.cls-79{fill:#919191}.cls-102{fill:#eef5f8}.cls-126{fill:#1e1e1e}.cls-128{fill:#4a494a}.cls-130{stroke:#a3a3a3}</style>
</defs>
<path class="cls-2" d="m682.07 2.5h728.41v1468.3h-728.41z"/>
<path class="cls-3" d="M716.73 2.5h696.42v45.6H716.73z"/>
<path class="cls-4" d="m711.52 2.5h707.86"/>
<path class="cls-5" d="m711.52 48.1h707.86"/>
<path class="cls-6" d="m954.49 221.44h458.67v212.44h-458.67zm-237.76 0h231.09v413.28h-231.09z"/>
<rect x="722.06" y="230.99" width="222.19" height="395.59" rx="14.84" fill="#3d3d3d"/>
<path class="cls-8" transform="translate(0 -8.34)" d="m1408.1 252.65 1 174.13c0 8.46-9.74 12.44-18.21 12.44h-415.15a15.32 15.32 0 0 1-15.32-15.32l-1-174.13a15.33 15.33 0 0 1 15.32-15.33l418.06 2.88a15.33 15.33 0 0 1 15.3 15.33z"/>
<path class="cls-9" d="m716.73 640.53h696.42v147.89h-696.42zm714.59 392.42h-730.5l15.91-240.75h696.67l17.92 240.75z"/>
<path class="cls-10" transform="translate(0 -8.34)" d="m1417 1038.7h-701.65a7.49 7.49 0 0 1-7.5-7.65l12.67-219.52a7.48 7.48 0 0 1 7.5-7.27h673.31a7.48 7.48 0 0 1 7.5 7.27l15.67 219.52a7.47 7.47 0 0 1-7.5 7.65z"/>
<circle cx="739.79" cy="825.86" r="3.75" fill="url(#a)"/>
<circle cx="766.79" cy="885.52" r="3.75" fill="url(#bi)"/>
<circle cx="779.61" cy="885.52" r="3.75" fill="url(#ba)"/>
<circle cx="792.43" cy="885.52" r="3.75" fill="url(#az)"/>
<circle cx="805.25" cy="885.52" r="3.75" fill="url(#ay)"/>
<circle cx="830.88" cy="885.52" r="3.75" fill="url(#ax)"/>
<circle cx="842.68" cy="885.52" r="3.75" fill="url(#aw)"/>
<circle cx="854.47" cy="885.52" r="3.75" fill="url(#av)"/>
<circle cx="895.12" cy="885.52" r="3.75" fill="url(#au)"/>
<circle cx="933.7" cy="885.52" r="3.75" fill="url(#bs)"/>
<circle cx="752.61" cy="825.86" r="3.75" fill="url(#br)"/>
<circle cx="765.42" cy="825.86" r="3.75" fill="url(#bq)"/>
<circle cx="778.24" cy="825.86" r="3.75" fill="url(#bp)"/>
<circle cx="791.06" cy="825.86" r="3.75" fill="url(#bo)"/>
<circle cx="803.88" cy="825.86" r="3.75" fill="url(#bn)"/>
<circle cx="816.7" cy="825.86" r="3.75" fill="url(#bm)"/>
<circle cx="829.52" cy="825.86" r="3.75" fill="url(#bl)"/>
<circle cx="842.33" cy="825.86" r="3.75" fill="url(#bk)"/>
<circle cx="855.15" cy="825.86" r="3.75" fill="url(#bj)"/>
<circle cx="1036.4" cy="826.77" r="3.75" fill="url(#bh)"/>
<circle cx="1231.8" cy="826.77" r="3.75" fill="url(#bg)"/>
<circle cx="1356.3" cy="826.77" r="3.75" fill="url(#bf)"/>
<circle cx="1356.3" cy="856.37" r="3.75" fill="url(#be)"/>
<circle cx="1356.3" cy="885.97" r="3.75" fill="url(#bd)"/>
<circle cx="1356.3" cy="918.96" r="3.75" fill="url(#bc)"/>
<circle cx="1036.4" cy="856.37" r="3.75" fill="url(#bb)"/>
<rect class="cls-10" transform="rotate(-90 1179.1 333.3)" x="1085.6" y="114.64" width="195.48" height="445.66" rx="16.12"/>
<path class="cls-37" transform="translate(0 -8.34)" d="m1023 415.72-8.88-15.79a.41.41 0 0 0-.48-.18l-17.09 6a1.11 1.11 0 0 1-1.09-1.66l13.19-14.09a.4.4 0 0 0 0-.54l-11.89-13.55a1.11 1.11 0 0 1 1.24-1.55l15.08 8a.4.4 0 0 0 .44-.11l11.73-15.42a1.1 1.1 0 0 1 1.85.7l-2.21 18.05a.42.42 0 0 0 .26.41l17.49 5.15a1.1 1.1 0 0 1-.09 2l-18.6 3.21a.4.4 0 0 0-.33.42l1.29 18.44a1.11 1.11 0 0 1-1.91.51z"/>
<circle class="cls-38" cx="1017.5" cy="383.09" r="8.39"/>
<path class="cls-37" transform="translate(0 -8.34)" d="m1120.78 415.72-8.89-15.79a.4.4 0 0 0-.48-.18l-17.08 6a1.11 1.11 0 0 1-1.09-1.66l13.19-14.09a.41.41 0 0 0 0-.54l-11.9-13.55a1.11 1.11 0 0 1 1.24-1.55l15.09 8a.41.41 0 0 0 .44-.11l11.7-15.42a1.11 1.11 0 0 1 1.86.7l-2.21 18.05a.4.4 0 0 0 .26.41l17.49 5.15a1.11 1.11 0 0 1-.09 2l-18.6 3.21a.39.39 0 0 0-.33.42l1.28 18.44a1.1 1.1 0 0 1-1.88.51z"/>
<circle class="cls-38" cx="1115.3" cy="383.09" r="8.39"/>
<circle class="cls-39" cx="1115.4" cy="383.09" r="30"/>
<circle class="cls-39" cx="1017" cy="383.09" r="30" data-name="BOBINE 1"/>
<g data-name="bidule bobine">
<path class="cls-40" d="m1046.8 292.48h40.63v47.67h-40.63z"/>
<path class="cls-2" transform="translate(0 -8.34)" d="m1078.2 299.25 9.17 1.57v47.67h43.12c0-30.06-16.91-53.39-49.84-55.46zm-31.46 2.42 8.9-2.45-2.1-6.19c-32.73 2.25-49.92 25.53-49.92 55.46h43.12z"/>
<path class="cls-2" d="m1076.8 293.75-9.5-5.11-9.51 5.11v38.21h19.01v-38.21z"/>
</g>
<g data-name="BOBINES">
<g data-name="etoile">
<path class="cls-37" transform="translate(0 -8.34)" d="m1255.3 415.72-8.89-15.79a.4.4 0 0 0-.48-.18l-17.08 6a1.11 1.11 0 0 1-1.09-1.66L1241 390a.41.41 0 0 0 0-.54l-11.9-13.55a1.11 1.11 0 0 1 1.24-1.55l15.08 8a.42.42 0 0 0 .45-.11l11.72-15.42a1.11 1.11 0 0 1 1.86.7l-2.21 18.05a.4.4 0 0 0 .26.41l17.49 5.15a1.11 1.11 0 0 1-.09 2l-18.6 3.21a.39.39 0 0 0-.33.42l1.28 18.44a1.1 1.1 0 0 1-1.95.51z"/>
<circle class="cls-38" cx="1249.8" cy="383.09" r="8.39"/>
<path class="cls-37" transform="translate(0 -8.34)" d="m1353.07 415.72-8.88-15.79a.4.4 0 0 0-.48-.18l-17.08 6a1.11 1.11 0 0 1-1.09-1.66l13.19-14.09a.41.41 0 0 0 0-.54l-11.9-13.55a1.11 1.11 0 0 1 1.24-1.55l15.08 8a.42.42 0 0 0 .45-.11l11.72-15.42a1.11 1.11 0 0 1 1.86.7l-2.18 18.05a.39.39 0 0 0 .26.41l17.49 5.15a1.11 1.11 0 0 1-.09 2l-18.66 3.19a.4.4 0 0 0-.33.42l1.29 18.44a1.11 1.11 0 0 1-1.89.53z"/>
<circle class="cls-38" cx="1347.6" cy="383.09" r="8.39"/>
</g>
<circle class="cls-39" cx="1347.7" cy="383.09" r="30" data-name="BOBINE"/>
<circle class="cls-39" cx="1249.3" cy="383.09" r="30" data-name="BOBINE 1"/>
<g data-name="bidule bobine">
<path class="cls-40" d="m1278.1 292.48h40.63v47.67h-40.63z"/>
<path class="cls-2" transform="translate(0 -8.34)" d="m1309.5 299.25 9.17 1.57v47.67h43.12c0-30.06-16.91-53.39-49.85-55.46zm-31.46 2.42 8.89-2.45-2.1-6.19c-32.73 2.25-49.92 25.53-49.92 55.46h43.13z"/>
<path d="m1308.1 293.75-9.51-5.11-9.5 5.11v38.21h19.01v-38.21z" fill="#727272"/>
</g>
</g>
<rect class="cls-42" x="985.04" y="237.77" width="169.45" height="40.44" rx="3.08"/>
<g data-name="BTN 1">
<path class="cls-43" transform="translate(0 -8.34)" d="m1010.1 281.22h-6.21a1.29 1.29 0 0 1-1.28-1.15l-1.1-10.77v-16.74h11.11v16.74l-1.24 10.79a1.29 1.29 0 0 1-1.28 1.13z"/>
<path class="cls-44" d="m1002.2 260.62v-15.48h9.63v15.48"/>
<path class="cls-45" d="m1004.3 254.25-2.07-9.11h9.63l-2.07 9.11h-5.49z"/>
<path class="cls-46" transform="translate(0 -8.34)" d="m1002.2 269h9.63l-1.37-7.12a1.67 1.67 0 0 0-1.63-1.35h-3.44a1.66 1.66 0 0 0-1.62 1.31z"/>
<path class="cls-47" transform="translate(0 -8.34)" d="m1011.9 269.3-1 10a1.34 1.34 0 0 1-1.34 1.29h-5.05a1.34 1.34 0 0 1-1.34-1.29l-0.95-10z"/>
<path class="cls-43" transform="translate(0 -8.34)" d="m1105.2 252.56h6.21a1.28 1.28 0 0 1 1.28 1.15l1.1 10.77v16.74h-11.11v-16.74l1.24-10.79a1.28 1.28 0 0 1 1.28-1.13z"/>
<path class="cls-44" d="m1113.1 256.47v15.48h-9.63v-15.48"/>
<path class="cls-46" d="m1111 262.84 2.07 9.11h-9.63l2.07-9.11h5.49z"/>
<path class="cls-47" transform="translate(0 -8.34)" d="m1113.1 264.81h-9.63l1.37 7.13a1.65 1.65 0 0 0 1.63 1.34h3.44a1.65 1.65 0 0 0 1.62-1.3z"/>
<path class="cls-8" transform="translate(0 -8.34)" d="m1103.41 264.48.95-10a1.34 1.34 0 0 1 1.34-1.29h5a1.34 1.34 0 0 1 1.34 1.29l1 10z"/>
<path class="cls-43" transform="translate(0 -8.34)" d="m1133.8 252.56h6.22a1.28 1.28 0 0 1 1.27 1.15l1.11 10.77v16.74h-11.12v-16.74l1.24-10.79a1.29 1.29 0 0 1 1.28-1.13z"/>
<path class="cls-44" d="m1141.7 256.47v15.48h-9.63v-15.48"/>
<path class="cls-46" d="m1139.6 262.84 2.07 9.11h-9.63l2.08-9.11h5.48z"/>
<path class="cls-47" transform="translate(0 -8.34)" d="m1141.7 264.81h-9.67l1.37 7.13a1.66 1.66 0 0 0 1.63 1.34h3.44a1.67 1.67 0 0 0 1.63-1.3z"/>
<path class="cls-8" transform="translate(0 -8.34)" d="m1132 264.48 1-10a1.33 1.33 0 0 1 1.33-1.29h5.06a1.33 1.33 0 0 1 1.33 1.29l1 10z"/>
</g>
<rect class="cls-48" x="1047.7" y="246.33" width="22.81" height="18.81" rx="3.48"/>
<g data-name="BTNs">
<rect class="cls-42" x="1218.7" y="237.77" width="169.45" height="40.44" rx="3.08"/>
<g data-name="BTN 1">
<path class="cls-43" transform="translate(0 -8.34)" d="m1243.7 281.22h-6.21a1.29 1.29 0 0 1-1.28-1.15l-1.1-10.77v-16.74h11.11v16.74l-1.25 10.79a1.29 1.29 0 0 1-1.27 1.13z"/>
<path class="cls-44" d="m1235.8 260.62v-15.48h9.63v15.48"/>
<path class="cls-45" d="m1237.9 254.25-2.07-9.11h9.63l-2.08 9.11h-5.48z"/>
<path class="cls-46" transform="translate(0 -8.34)" d="m1235.8 269h9.63l-1.37-7.12a1.67 1.67 0 0 0-1.63-1.35h-3.47a1.66 1.66 0 0 0-1.62 1.31z"/>
<path class="cls-47" transform="translate(0 -8.34)" d="m1245.5 269.3-1 10a1.33 1.33 0 0 1-1.33 1.29h-5a1.34 1.34 0 0 1-1.34-1.29l-0.95-10z"/>
<path class="cls-43" transform="translate(0 -8.34)" d="m1338.8 252.56h6.21a1.28 1.28 0 0 1 1.28 1.15l1.1 13.77-2 13.74h-7.11l-2-13.74 1.24-13.79a1.28 1.28 0 0 1 1.28-1.13z"/>
<path class="cls-47" transform="translate(0 -8.34)" d="M1346.73 268.41h-9.63l1.37 9.9c.15 1.3.83 2.25 1.63 2.25h3.44c.78 0 1.46-.91 1.62-2.19z"/>
<path class="cls-8" transform="translate(0 -8.34)" d="m1337.1 267.48 1-13a1.34 1.34 0 0 1 1.34-1.29h5.05a1.34 1.34 0 0 1 1.34 1.29l1 13z"/>
<path class="cls-43" transform="translate(0 -8.34)" d="m1367.4 252.56h6.21a1.28 1.28 0 0 1 1.28 1.15l1.1 10.77v16.74h-11.11v-16.74l1.24-10.79a1.29 1.29 0 0 1 1.28-1.13z"/>
<path class="cls-44" d="m1375.3 256.47v15.48h-9.63v-15.48"/>
<path class="cls-46" d="m1373.2 262.84 2.07 9.11h-9.63l2.08-9.11h5.48z"/>
<path class="cls-47" transform="translate(0 -8.34)" d="m1375.3 264.81h-9.63l1.37 7.13a1.66 1.66 0 0 0 1.63 1.34h3.44a1.65 1.65 0 0 0 1.62-1.3z"/>
<path class="cls-8" transform="translate(0 -8.34)" d="m1365.6 264.48 1-10a1.33 1.33 0 0 1 1.33-1.29h5.02a1.33 1.33 0 0 1 1.33 1.29l1 10z"/>
</g>
<rect class="cls-48" x="1281.3" y="246.33" width="22.81" height="18.81" rx="3.48"/>
</g>
<rect x="721.79" y="645.78" width="685.09" height="138.86" rx="11.64" fill="#707070"/>
<rect class="cls-50" x="721.79" y="1075.4" width="685.09" height="388.7" rx="1.64"/>
<g data-name="&lt;Groupe&gt;bleus 0">
<path class="cls-52" d="m740.79 669.15h12.76v11.88h-12.76z" data-name="BTN BLEU"/>
<path class="cls-53" d="m756.19 669.15h12.76v11.88h-12.76z" data-name="BTN BLEU"/>
<path class="cls-52" d="M771.6 669.15h12.76v11.88H771.6z" data-name="BTN BLEU"/>
<path class="cls-52" d="M787 669.15h12.76v11.88H787z" data-name="BTN BLEU"/>
<path class="cls-53" d="m802.41 669.15h12.76v11.88h-12.76z" data-name="BTN BLEU"/>
<path class="cls-52" d="m817.81 669.15h12.76v11.88h-12.76z" data-name="BTN BLEU"/>
<path class="cls-52" d="m833.22 669.15h12.76v11.88h-12.76z" data-name="BTN BLEU"/>
<path class="cls-53" d="m848.62 669.15h12.76v11.88h-12.76z" data-name="BTN BLEU"/>
<path class="cls-53" d="m864.03 669.15h12.76v11.88h-12.76z" data-name="BTN BLEU"/>
<path class="cls-53" d="m756.19 708.01h12.76v11.88h-12.76z" data-name="BTN BLEU"/>
<path class="cls-53" d="m740.79 708.01h12.76v11.88h-12.76z" data-name="BTN BLEU"/>
<path class="cls-52" d="M771.6 708.01h12.76v11.88H771.6z" data-name="BTN BLEU"/>
<path class="cls-52" d="M787 708.01h12.76v11.88H787z" data-name="BTN BLEU"/>
<path class="cls-53" d="m802.41 708.01h12.76v11.88h-12.76z" data-name="BTN BLEU"/>
<path class="cls-53" d="m817.81 708.01h12.76v11.88h-12.76z" data-name="BTN BLEU"/>
<path class="cls-52" d="m833.22 708.01h12.76v11.88h-12.76z" data-name="BTN BLEU"/>
<path class="cls-53" d="m848.62 708.01h12.76v11.88h-12.76z" data-name="BTN BLEU"/>
<path class="cls-53" d="m864.03 708.01h12.76v11.88h-12.76z" data-name="BTN BLEU"/>
<path class="cls-54" d="m787.39 748.36h12.76v11.88h-12.76z" data-name="BTN BLEU"/>
<path class="cls-53" d="m771.99 748.36h12.76v11.88h-12.76z" data-name="BTN BLEU"/>
<path class="cls-52" d="M802.8 748.36h12.76v11.88H802.8z" data-name="BTN BLEU"/>
<path class="cls-55" d="m818.21 748.36h12.76v11.88h-12.76z" data-name="BTN BLEU"/>
<path class="cls-54" d="m1177.2 762.77h12.76v11.88h-12.76z" data-name="BTN BLEU"/>
<path class="cls-53" d="m1161.8 762.77h12.76v11.88h-12.76z" data-name="BTN BLEU"/>
<path class="cls-52" d="m1192.6 762.77h12.76v11.88h-12.76z" data-name="BTN BLEU"/>
<path class="cls-55" d="m1208 762.77h12.76v11.88h-12.76z" data-name="BTN BLEU"/>
<path class="cls-55" d="m833.61 748.36h12.76v11.88h-12.76z" data-name="BTN BLEU"/>
<path class="cls-53" d="m849.02 748.36h12.76v11.88h-12.76z" data-name="BTN BLEU"/>
<path class="cls-52" d="m864.42 748.36h12.76v11.88h-12.76z" data-name="BTN BLEU"/>
<path class="cls-52" d="m993.26 950.18h12.76v11.88h-12.76z" data-name="BTN BLEU"/>
<path class="cls-53" d="m1015.8 950.18h12.76v11.88h-12.76z" data-name="BTN BLEU"/>
<path class="cls-52" d="m1038.4 950.18h12.76v11.88h-12.76z" data-name="BTN BLEU"/>
<path class="cls-56" d="m1061 950.18h12.76v11.88h-12.76z" data-name="BTN BLEU"/>
<path class="cls-56" d="m1083.6 950.18h12.76v11.88h-12.76z" data-name="BTN BLEU"/>
<path class="cls-56" d="m1106.1 950.18h12.76v11.88h-12.76z" data-name="BTN BLEU"/>
<path class="cls-53" d="m1128.7 950.18h12.76v11.88h-12.76z" data-name="BTN BLEU"/>
<path class="cls-52" d="m1151.9 950.18h12.76v11.88h-12.76z" data-name="BTN BLEU"/>
<path class="cls-52" d="m1175.8 950.18h12.76v11.88h-12.76z" data-name="BTN BLEU"/>
<path class="cls-52" d="m1199.6 950.18h12.76v11.88h-12.76z" data-name="BTN BLEU"/>
<path class="cls-52" d="m1247.4 950.18h12.76v11.88h-12.76z" data-name="BTN BLEU"/>
<path class="cls-52" d="m1271.2 950.18h12.76v11.88h-12.76z" data-name="BTN BLEU"/>
<path class="cls-52" d="m1295.1 950.18h12.76v11.88h-12.76z" data-name="BTN BLEU"/>
<path class="cls-52" d="m1319 950.18h12.76v11.88h-12.76z" data-name="BTN BLEU"/>
<path class="cls-52" d="m1342.8 950.18h12.76v11.88h-12.76z" data-name="BTN BLEU"/>
<path class="cls-57" d="m1224.1 950.18h12.76v11.88h-12.76z" data-name="BTN BLEU"/>
<path class="cls-53" d="m732.33 978.65h12.76v11.88h-12.76z" data-name="BTN BLEU"/>
<path class="cls-56" d="M754.9 978.65h12.76v11.88H754.9z" data-name="BTN BLEU"/>
<path class="cls-56" d="m777.47 978.65h12.76v11.88h-12.76z" data-name="BTN BLEU"/>
<path class="cls-56" d="m800.05 978.65h12.76v11.88h-12.76z" data-name="BTN BLEU"/>
<path class="cls-52" d="m822.62 978.65h12.76v11.88h-12.76z" data-name="BTN BLEU"/>
<path class="cls-53" d="m845.19 978.65h12.76v11.88h-12.76z" data-name="BTN BLEU"/>
<path class="cls-53" d="m867.77 978.65h12.76v11.88h-12.76z" data-name="BTN BLEU"/>
<path class="cls-52" d="m890.99 978.65h12.76v11.88h-12.76z" data-name="BTN BLEU"/>
<path class="cls-52" d="m914.85 978.65h12.76v11.88h-12.76z" data-name="BTN BLEU"/>
<path class="cls-53" d="m938.71 978.65h12.76v11.88h-12.76z" data-name="BTN BLEU"/>
<path class="cls-56" d="m986.44 978.65h12.76v11.88h-12.76z" data-name="BTN BLEU"/>
<path class="cls-56" d="m1010.3 978.65h12.76v11.88h-12.76z" data-name="BTN BLEU"/>
<path class="cls-53" d="m1034.2 978.65h12.76v11.88h-12.76z" data-name="BTN BLEU"/>
<path class="cls-52" d="m1058 978.65h12.76v11.88h-12.76z" data-name="BTN BLEU"/>
<path class="cls-52" d="m1081.9 978.65h12.76v11.88h-12.76z" data-name="BTN BLEU"/>
<path class="cls-54" d="m963.18 978.65h12.76v11.88h-12.76z" data-name="BTN BLEU"/>
<path class="cls-53" d="m1106.2 978.65h12.76v11.88h-12.76z" data-name="BTN BLEU"/>
<path class="cls-53" d="m1128.8 978.65h12.76v11.88h-12.76z" data-name="BTN BLEU"/>
<path class="cls-52" d="m1151.4 978.65h12.76v11.88h-12.76z" data-name="BTN BLEU"/>
<path class="cls-53" d="m1173.9 978.65h12.76v11.88h-12.76z" data-name="BTN BLEU"/>
<path class="cls-56" d="m1196.5 978.65h12.76v11.88h-12.76z" data-name="BTN BLEU"/>
<path class="cls-56" d="m1219.1 978.65h12.76v11.88h-12.76z" data-name="BTN BLEU"/>
<path class="cls-53" d="m1241.6 978.65h12.76v11.88h-12.76z" data-name="BTN BLEU"/>
<path class="cls-56" d="m1264.9 978.65h12.76v11.88h-12.76z" data-name="BTN BLEU"/>
<path class="cls-56" d="m1288.7 978.65h12.76v11.88h-12.76z" data-name="BTN BLEU"/>
<path class="cls-52" d="m1312.6 978.65h12.76v11.88h-12.76z" data-name="BTN BLEU"/>
<path class="cls-57" d="m1337 978.65h12.76v11.88h-12.76z" data-name="BTN BLEU"/>
<path class="cls-56" d="m907.12 1013.2h12.76v11.88h-12.76z" data-name="BTN BLEU"/>
<path class="cls-56" d="m929.69 1013.2h12.76v11.88h-12.76z" data-name="BTN BLEU"/>
<path class="cls-52" d="m952.26 1013.2h12.76v11.88h-12.76z" data-name="BTN BLEU"/>
<path class="cls-56" d="m997.41 1013.2h12.76v11.88h-12.76z" data-name="BTN BLEU"/>
<path class="cls-53" d="m1020 1013.2h12.76v11.88h-12.76z" data-name="BTN BLEU"/>
<path class="cls-53" d="m1042.6 1013.2h12.76v11.88h-12.76z" data-name="BTN BLEU"/>
<path class="cls-52" d="m1089.6 1013.2h12.76v11.88h-12.76z" data-name="BTN BLEU"/>
<path class="cls-56" d="m1113.5 1013.2h12.76v11.88h-12.76z" data-name="BTN BLEU"/>
<path class="cls-52" d="m1161.2 1013.2h12.76v11.88h-12.76z" data-name="BTN BLEU"/>
<path class="cls-53" d="m1185.1 1013.2h12.76v11.88h-12.76z" data-name="BTN BLEU"/>
<path class="cls-53" d="m1209 1013.2h12.76v11.88h-12.76z" data-name="BTN BLEU"/>
<path class="cls-52" d="m1232.8 1013.2h12.76v11.88h-12.76z" data-name="BTN BLEU"/>
<path class="cls-53" d="m1256.7 1013.2h12.76v11.88h-12.76z" data-name="BTN BLEU"/>
<path class="cls-57" d="m1138 1013.2h12.76v11.88h-12.76z" data-name="BTN BLEU"/>
</g>
<path class="cls-42" d="m888.26 655.98h49.33v118.67h-49.33zm59.56 0h204.89v118.67h-204.89zm282.67 0h154.54v118.67h-154.54zm-69.34 0h60.44v77.33h-60.44z"/>
<circle class="cls-43" cx="984.04" cy="728.18" r="18.52"/>
<path class="cls-59" d="m971.6 714.47 6.59 7.06"/>
<path class="cls-42" d="m1114.1 707.83v-6.82m-18.2 18.49-5.34-2.55m42.06 2.55 5.35-2.55m-39.06-2.81-4.21-3.9m7.83 0.54-3.2-4.8m8.83 2.51-1.76-5.92m22.67 11.71 4.21-3.89m-7.83 0.53 3.2-4.8m-8.83 2.52 1.76-5.93"/>
<g data-name="potard">
<circle class="cls-43" cx="1114.1" cy="728.18" r="18.52"/>
<path class="cls-59" d="m1111.4 709.67 1.24 8.55"/>
</g>
<g data-name="garduation">
<path class="cls-42" d="m1257.1 714.14-4.21-3.9m13.46-1.75-1.76-5.92m22.67 11.71 4.21-3.89m-13.46-1.75 1.76-5.93"/>
</g>
<g data-name="potard">
<circle class="cls-43" cx="1272.3" cy="728.18" r="18.52"/>
<path class="cls-59" d="m1289.3 720.34-7.85 3.62"/>
</g>
<g data-name="garduation">
<path class="cls-42" d="m1323.7 714.14-4.21-3.9m13.45-1.75-1.76-5.92m22.67 11.71 4.21-3.89m-13.46-1.75 1.77-5.93"/>
</g>
<g data-name="potard">
<circle class="cls-43" cx="1338.9" cy="728.18" r="18.52"/>
<path class="cls-59" d="m1349.5 712.77-4.9 7.12"/>
</g>
<rect class="cls-9" x="1009.9" y="670.44" width="77.93" height="27.76" rx="1.06"/>
<path transform="translate(0 -8.34)" d="m1018.8 692.17s11.41-8.58 30.08-8.58 28.89 8.58 28.89 8.58" fill="none" stroke="#1d1d1b" stroke-miterlimit="10" stroke-width=".75px"/>
<g clip-path="url(#f)">
<path d="m1023.4 677.64 23.77 26.23" fill="none" stroke="#1d1d1b" stroke-miterlimit="10"/>
</g>
<path class="cls-63" d="m1048.9 672.53v5.11m3.95-0.58 0.22-3.33m-7.83 3.32-0.38-3.31m-3.28 3.62-0.38-3.31m-2.65 3.76-0.82-3.24m-2.18 4-0.98-3.19m-2.02 3.93-1.24-3.09m24.77 1.14 0.38-3.31m2.65 3.76 0.82-3.24m2.18 4 0.99-3.19m2.02 3.93 1.23-3.09"/>
<path class="cls-64" d="m1039.4 698.2h-11.56l22.44-27.78h11.12"/>
<g data-name="test btn">
<path class="cls-65" d="m754.02 654.09h14.33v5.61h-14.33zm31.47 5.61h45.78v5.61h-45.78zm30.52-5.61h29.58v5.61h-29.58z"/>
<path class="cls-51" transform="translate(0 -8.34)" d="M875.63 673.65v-8a3.21 3.21 0 0 0-3.21-3.2H743.84a3.21 3.21 0 0 0-3.21 3.2v8"/>
<path class="cls-51" d="m740.63 659.7h134.53"/>
<path class="cls-66" d="m907.22 996.49h10.53v6.7h-11.82v-5.41a1.29 1.29 0 0 1 1.29-1.29zm45.97 0h13.24v6.7h-13.24z"/>
<path class="cls-67" d="m917.75 996.49h11.81v6.7h-11.81z"/>
<path class="cls-66" d="M930.47 999.84h10.91v3.35h-11.83v-2.44a.91.91 0 0 1 .92-.91z"/>
<path class="cls-67" d="m941.37 999.84h11.81v3.35h-11.81z"/>
<path class="cls-66" d="m929.56 996.49h23.62v3h-23.62z"/>
<path class="cls-51" d="m966.43 1009.9v-13.4h-60.5v13.4m0-6.7h60.5"/>
</g>
<path transform="translate(0 -8.34)" d="m1076.5 678.76h10.27a1.06 1.06 0 0 1 1.06 1.06v25.66a1.05 1.05 0 0 1-1.06 1.06h-31.83" fill="#00e085" opacity=".22"/>
<path class="cls-64" transform="translate(0 -8.34)" d="m1020 706.54h-9a1.06 1.06 0 0 1-1.06-1.06v-25.66a1.07 1.07 0 0 1 1.06-1.06h32.65z"/>
<g data-name="test btn">
<path class="cls-66" d="m994.68 996.49h11.24v6.7h-12.57v-5.37a1.33 1.33 0 0 1 1.33-1.33zm48.93 0h12.57v6.7h-12.57z"/>
<path class="cls-67" d="m1005.9 996.49h12.56v6.7h-12.56z"/>
<path class="cls-66" d="M1019.42 999.84H1031v3.35h-12.57v-2.41a.94.94 0 0 1 .99-.94z"/>
<path class="cls-67" d="m1031 999.84h12.56v3.35h-12.56z"/>
<path class="cls-66" d="m1018.5 996.49h25.12v3h-25.12z"/>
<path class="cls-51" d="m1056.2 1009.9v-13.4h-62.83v13.4m0-6.7h62.83"/>
<path class="cls-66" d="m1091.2 996.49h16.66v6.7h-18.26v-5.1a1.6 1.6 0 0 1 1.6-1.6zm71.42 0h18.26v6.7h-18.26z"/>
<path class="cls-67" d="m1107.9 996.49h18.25v6.7h-18.25zm73.56 0h18.25v6.7h-18.25z"/>
<path class="cls-66" d="m1199.4 996.49h18.26v6.7h-18.26z"/>
<path class="cls-67" d="m1218.2 996.49h18.25v6.7h-18.25z"/>
<path class="cls-66" d="m1237.1 996.49h18.26v6.7h-18.26z"/>
<path class="cls-67" d="m1255.9 996.49h18.25v6.7h-18.25z"/>
<path class="cls-66" d="m1127.3 999.84h17.13v3.35h-18.26v-2.19a1.13 1.13 0 0 1 1.13-1.16z"/>
<path class="cls-67" d="m1144.4 999.84h18.25v3.35h-18.25z"/>
<path class="cls-66" d="m1126.2 996.49h36.5v3h-36.5z"/>
<path class="cls-51" d="m1274.1 1009.9v-13.4h-184.46v13.4m0-6.7h184.56"/>
<path class="cls-69" d="m1006.8 932.71h14.69v5.75h-14.69zm32.24 5.75h46.9v5.75h-46.9z"/>
<path class="cls-69" d="m1070.3 932.71h292.37a3 3 0 0 1 3 3v2.77h-295.37v-5.77z"/>
<path class="cls-51" transform="translate(0 -8.34)" d="m1365.7 952.55v-8.22a3.28 3.28 0 0 0-3.28-3.28h-366a3.28 3.28 0 0 0-3.28 3.28v8.22"/>
<path class="cls-51" d="m993.11 938.46h372.1"/>
<path class="cls-65" d="m754.02 695.31h14.33v5.61h-14.33zm31.47 5.61h45.78v5.61h-45.78zm30.52-5.61h29.58v5.61h-29.58z"/>
<path class="cls-51" transform="translate(0 -8.34)" d="M875.63 714.87v-8a3.21 3.21 0 0 0-3.21-3.21H743.84a3.21 3.21 0 0 0-3.21 3.21v8"/>
<path class="cls-51" d="m740.63 700.92h134.53"/>
<path class="cls-65" d="m783.61 735.26h14.33v5.61h-14.33zm31.47 5.61h45.78v5.61h-45.78z"/>
<path class="cls-70" d="M845.6 735.26h27.26a2.32 2.32 0 0 1 2.32 2.32v3.3H845.6v-5.62z"/>
<path class="cls-51" transform="translate(0 -8.34)" d="m875.63 754.82v-8a3.21 3.21 0 0 0-3.21-3.2h-99a3.2 3.2 0 0 0-3.2 3.2v8"/>
<path class="cls-51" d="m770.23 740.87h104.93"/>
<path class="cls-70" d="m1167.6 746.71h8.42v5.61h-8.42zm18.49 5.61h26.89v5.61h-26.89zm17.96-5.61h15.6a1.77 1.77 0 0 1 1.77 1.77v3.84h-17.37v-5.61z"/>
<path class="cls-51" transform="translate(0 -8.34)" d="m1221.6 766.27v-8c0-1.77-0.84-3.2-1.88-3.2h-58.16c-1 0-1.88 1.43-1.88 3.2v8"/>
<path class="cls-51" d="m1159.7 752.32h61.65"/>
</g>
<path d="m1167.6 682.04h47.37v12.61h-47.37z" fill="#151515"/>
<g data-name="trait btn console">
<path class="cls-9" d="M731.95 813.76h130.38v7.4H731.95z"/>
<path class="cls-72" d="m734.35 815.81h10.87v3.64h-10.87zm12.82 0h10.87v3.64h-10.87zm12.82 0h10.87v3.64h-10.87zm12.82 0h10.87v3.64h-10.87zm12.82 0h10.87v3.64h-10.87zm12.82 0h10.87v3.64h-10.87zm12.81 0h10.87v3.64h-10.87zm12.82 0h10.87v3.64h-10.87zm12.82 0h10.87v3.64h-10.87zm12.82 0h10.87v3.64h-10.87z"/>
<path class="cls-9" d="M731.95 873.56h130.38v6.67H731.95z"/>
<path class="cls-69" d="m734.35 874.89h10.87v3.64h-10.87zm12.82 0h11.84v3.64h-11.84zm13.8 0h10.87v3.64h-10.87z"/>
<path class="cls-73" d="m773.78 874.89h24.66v3.64h-24.66z"/>
<path class="cls-69" d="m799.42 874.89h10.87v3.64h-10.87z"/>
<path class="cls-73" d="m811.78 874.89h10.87v3.64h-10.87zm12.3 0h10.87v3.64h-10.87z"/>
<path class="cls-69" d="m836.9 874.89h10.87v3.64h-10.87zm12.82 0h10.87v3.64h-10.87z"/>
<path class="cls-9" d="m1259 873.56h105.07v6.67h-105.07z"/>
<path class="cls-69" d="m1261.4 874.89h10.87v3.64h-10.87zm12.82 0h11.84v3.64h-11.84zm13.79 0h10.87v3.64h-10.87z"/>
<path class="cls-73" d="m1300.8 874.89h24.66v3.64h-24.66z"/>
<path class="cls-69" d="m1326.4 874.89h10.87v3.64h-10.87z"/>
<path class="cls-73" d="m1338.8 874.89h10.87v3.64h-10.87zm12.3 0h10.87v3.64h-10.87z"/>
<path class="cls-9" d="M859.32 873.56H989.7v6.67H859.32z"/>
<path class="cls-69" d="m861.73 874.89h10.87v3.64h-10.87zm12.82 0h11.84v3.64h-11.84zm13.79 0h10.87v3.64h-10.87z"/>
<path class="cls-73" d="m901.16 874.89h24.66v3.64h-24.66z"/>
<path class="cls-69" d="M926.8 874.89h10.87v3.64H926.8z"/>
<path class="cls-73" d="m939.16 874.89h10.87v3.64h-10.87zm12.3 0h10.87v3.64h-10.87z"/>
<path class="cls-69" d="m964.28 874.89h10.87v3.64h-10.87zm12.82 0h10.87v3.64h-10.87z"/>
<path class="cls-9" d="M994.04 873.56h130.38v6.67H994.04z"/>
<path class="cls-69" d="m996.45 874.89h10.87v3.64h-10.87zm12.81 0h11.84v3.64h-11.84z"/>
<path class="cls-73" d="m1023.1 874.89h10.87v3.64h-10.87z"/>
<path class="cls-74" d="m1027.9 938.65h10.87v5.37h-10.87zm91.07 0h10.87v5.37h-10.87zm10.87 0h26.81v5.37h-26.81z"/>
<path class="cls-74" d="m1156.6 938.65h10.87v5.37h-10.87z"/>
<path class="cls-75" d="m1086.2 938.46h10.87v5.37h-10.87zm10.87 0h10.87v5.37h-10.87zm10.87 0h10.87v5.37h-10.87z"/>
<path class="cls-74" d="m1223.9 938.65h10.87v5.37h-10.87z"/>
<path class="cls-74" d="m1234.8 938.65h26.81v5.37h-26.81zm26.81 0h10.87v5.37h-10.87z"/>
<path class="cls-75" d="m1167.5 938.46h45.34v5.37h-45.34zm45.34 0h10.87v5.37h-10.87zm83.04 0h45.34v5.37h-45.34zm45.34 0h10.87v5.37h-10.87z"/>
<path class="cls-74" d="m1017 938.65h10.87v5.37h-10.87z"/>
<path class="cls-74" d="m1006.2 938.65h10.87v5.37h-10.87z"/>
<path d="m993.11 938.65h13.07v5.37h-13.07z" fill="#80cde9" stroke="#fff" stroke-miterlimit="10" stroke-width=".5px"/>
<path class="cls-69" d="m1035.9 874.89h24.66v3.64h-24.66zm25.63 0h10.87v3.64h-10.87z"/>
<path class="cls-73" d="m1073.9 874.89h10.87v3.64h-10.87zm12.3 0h10.87v3.64h-10.87z"/>
<path class="cls-69" d="m1099 874.89h10.87v3.64h-10.87zm12.82 0h10.87v3.64h-10.87z"/>
<path class="cls-9" d="m1121.4 873.56h130.38v6.67h-130.38z"/>
<path class="cls-73" d="m1123.8 874.89h10.87v3.64h-10.87z"/>
<path class="cls-69" d="m1136.6 874.89h11.84v3.64h-11.84zm13.8 0h10.87v3.64h-10.87z"/>
<path class="cls-73" d="m1163.2 874.89h24.66v3.64h-24.66z"/>
<path class="cls-69" d="m1188.9 874.89h10.87v3.64h-10.87z"/>
<path class="cls-73" d="m1201.2 874.89h10.87v3.64h-10.87zm12.3 0h10.87v3.64h-10.87z"/>
<path class="cls-69" d="m1226.4 874.89h10.87v3.64h-10.87zm12.82 0h10.87v3.64h-10.87z"/>
<path class="cls-9" d="m1096.6 843.85h130.38v6.67h-130.38z"/>
<path class="cls-73" d="m1099 845.17h10.87v3.64h-10.87z"/>
<path class="cls-69" d="m1111.8 845.17h11.84v3.64h-11.84zm13.79 0h10.87v3.64h-10.87z"/>
<path class="cls-73" d="m1138.4 845.17h24.66v3.64h-24.66z"/>
<path class="cls-69" d="m1164 845.17h10.87v3.64h-10.87z"/>
<path class="cls-73" d="m1176.4 845.17h10.87v3.64h-10.87zm12.3 0h10.87v3.64h-10.87z"/>
<path class="cls-69" d="m1201.5 845.17h10.87v3.64h-10.87zm12.82 0h10.87v3.64h-10.87z"/>
<path class="cls-9" d="M1233.2 843.85h130.38v6.67H1233.2z"/>
<path class="cls-73" d="m1235.6 845.17h10.87v3.64h-10.87z"/>
<path class="cls-69" d="m1248.4 845.17h11.84v3.64h-11.84zm13.79 0h10.87v3.64h-10.87z"/>
<path class="cls-73" d="m1275 845.17h24.66v3.64h-24.66z"/>
<path class="cls-69" d="m1300.7 845.17h10.87v3.64h-10.87z"/>
<path class="cls-73" d="m1313 845.17h10.87v3.64h-10.87zm12.3 0h10.87v3.64h-10.87z"/>
<path class="cls-69" d="m1338.2 845.17h10.87v3.64h-10.87zm12.82 0h10.87v3.64h-10.87z"/>
<path class="cls-9" d="M731.95 905.94h130.38v6.67H731.95z"/>
<path class="cls-69" d="m734.35 907.26h10.87v3.64h-10.87zm12.82 0h11.84v3.64h-11.84zm13.8 0h10.87v3.64h-10.87z"/>
<path class="cls-73" d="m773.78 907.26h24.66v3.64h-24.66z"/>
<path class="cls-69" d="m799.42 907.26h10.87v3.64h-10.87z"/>
<path class="cls-73" d="m811.78 907.26h10.87v3.64h-10.87zm12.3 0h10.87v3.64h-10.87z"/>
<path class="cls-69" d="m836.9 907.26h10.87v3.64h-10.87zm12.82 0h10.87v3.64h-10.87z"/>
<path class="cls-9" d="m1259 905.94h105.07v6.67h-105.07z"/>
<path class="cls-69" d="m1261.4 907.26h10.87v3.64h-10.87zm12.82 0h11.84v3.64h-11.84zm13.79 0h10.87v3.64h-10.87z"/>
<path class="cls-73" d="m1300.8 907.26h24.66v3.64h-24.66z"/>
<path class="cls-69" d="m1326.4 907.26h10.87v3.64h-10.87z"/>
<path class="cls-73" d="m1338.8 907.26h10.87v3.64h-10.87zm12.3 0h10.87v3.64h-10.87z"/>
<path class="cls-9" d="M859.32 905.94H989.7v6.67H859.32z"/>
<path class="cls-69" d="m861.73 907.26h10.87v3.64h-10.87zm12.82 0h11.84v3.64h-11.84zm13.79 0h10.87v3.64h-10.87z"/>
<path class="cls-73" d="m901.16 907.26h24.66v3.64h-24.66z"/>
<path class="cls-69" d="M926.8 907.26h10.87v3.64H926.8z"/>
<path class="cls-73" d="m939.16 907.26h10.87v3.64h-10.87zm12.3 0h10.87v3.64h-10.87z"/>
<path class="cls-69" d="m964.28 907.26h10.87v3.64h-10.87zm12.82 0h10.87v3.64h-10.87z"/>
</g>
<path class="cls-9" d="M994.04 905.94h130.38v6.67H994.04z"/>
<path class="cls-69" d="m996.45 907.26h10.87v3.64h-10.87zm12.81 0h11.84v3.64h-11.84z"/>
<path class="cls-73" d="m1023.1 907.26h10.87v3.64h-10.87z"/>
<path class="cls-69" d="m1035.9 907.26h24.66v3.64h-24.66zm25.63 0h10.87v3.64h-10.87z"/>
<path class="cls-73" d="m1073.9 907.26h10.87v3.64h-10.87zm12.3 0h10.87v3.64h-10.87z"/>
<path class="cls-69" d="m1099 907.26h10.87v3.64h-10.87zm12.82 0h10.87v3.64h-10.87z"/>
<g data-name="trait btn console">
<path class="cls-9" d="m1121.4 905.94h130.38v6.67h-130.38z"/>
<path class="cls-73" d="m1123.8 907.26h10.87v3.64h-10.87z"/>
<path class="cls-69" d="m1136.6 907.26h11.84v3.64h-11.84zm13.8 0h10.87v3.64h-10.87z"/>
<path class="cls-73" d="m1163.2 907.26h24.66v3.64h-24.66z"/>
<path class="cls-69" d="m1188.9 907.26h10.87v3.64h-10.87z"/>
<path class="cls-73" d="m1201.2 907.26h10.87v3.64h-10.87zm12.3 0h10.87v3.64h-10.87z"/>
<path class="cls-69" d="m1226.4 907.26h10.87v3.64h-10.87zm12.82 0h10.87v3.64h-10.87z"/>
<path class="cls-9" d="M731.95 966.01h130.38v6.67H731.95z"/>
<path class="cls-69" d="m734.35 967.33h10.87v3.64h-10.87zm12.82 0h11.84v3.64h-11.84zm13.8 0h10.87v3.64h-10.87z"/>
<path class="cls-73" d="m773.78 967.33h24.66v3.64h-24.66z"/>
<path class="cls-69" d="m799.42 967.33h10.87v3.64h-10.87z"/>
<path class="cls-73" d="m811.78 967.33h10.87v3.64h-10.87zm12.3 0h10.87v3.64h-10.87z"/>
<path class="cls-69" d="m836.9 967.33h10.87v3.64h-10.87zm12.82 0h10.87v3.64h-10.87z"/>
<path class="cls-9" d="m1259 966.01h105.07v6.67h-105.07z"/>
<path class="cls-69" d="m1261.4 967.33h10.87v3.64h-10.87zm12.82 0h11.84v3.64h-11.84zm13.79 0h10.87v3.64h-10.87z"/>
<path class="cls-73" d="m1300.8 967.33h24.66v3.64h-24.66z"/>
<path class="cls-69" d="m1326.4 967.33h10.87v3.64h-10.87z"/>
<path class="cls-73" d="m1338.8 967.33h10.87v3.64h-10.87zm12.3 0h10.87v3.64h-10.87z"/>
<path class="cls-9" d="M859.32 966.01H989.7v6.67H859.32z"/>
<path class="cls-69" d="m861.73 967.33h10.87v3.64h-10.87zm12.82 0h11.84v3.64h-11.84zm13.79 0h10.87v3.64h-10.87z"/>
<path class="cls-73" d="m901.16 967.33h24.66v3.64h-24.66z"/>
<path class="cls-69" d="M926.8 967.33h10.87v3.64H926.8z"/>
<path class="cls-73" d="m939.16 967.33h10.87v3.64h-10.87zm12.3 0h10.87v3.64h-10.87z"/>
<path class="cls-69" d="m964.28 967.33h10.87v3.64h-10.87zm12.82 0h10.87v3.64h-10.87z"/>
</g>
<path class="cls-9" d="M994.04 966.01h130.38v6.67H994.04z"/>
<path class="cls-69" d="m996.45 967.33h10.87v3.64h-10.87zm12.81 0h11.84v3.64h-11.84z"/>
<path class="cls-73" d="m1023.1 967.33h10.87v3.64h-10.87z"/>
<path class="cls-69" d="m1035.9 967.33h24.66v3.64h-24.66zm25.63 0h10.87v3.64h-10.87z"/>
<path class="cls-73" d="m1073.9 967.33h10.87v3.64h-10.87zm12.3 0h10.87v3.64h-10.87z"/>
<path class="cls-69" d="m1099 967.33h10.87v3.64h-10.87zm12.82 0h10.87v3.64h-10.87z"/>
<g data-name="trait btn console">
<path class="cls-9" d="m1121.4 966.01h130.38v6.67h-130.38z"/>
<path class="cls-73" d="m1123.8 967.33h10.87v3.64h-10.87z"/>
<path class="cls-69" d="m1136.6 967.33h11.84v3.64h-11.84zm13.8 0h10.87v3.64h-10.87z"/>
<path class="cls-73" d="m1163.2 967.33h24.66v3.64h-24.66z"/>
<path class="cls-69" d="m1188.9 967.33h10.87v3.64h-10.87z"/>
<path class="cls-73" d="m1201.2 967.33h10.87v3.64h-10.87zm12.3 0h10.87v3.64h-10.87z"/>
<path class="cls-69" d="m1226.4 967.33h10.87v3.64h-10.87zm12.82 0h10.87v3.64h-10.87z"/>
<path class="cls-9" d="M731.95 843.3h130.38v7.4H731.95z"/>
<path class="cls-72" d="m734.35 845.35h10.87v3.64h-10.87zm12.82 0h10.87v3.64h-10.87zm12.82 0h10.87v3.64h-10.87zm12.82 0h10.87v3.64h-10.87zm12.82 0h10.87v3.64h-10.87zm12.82 0h10.87v3.64h-10.87zm12.81 0h10.87v3.64h-10.87zm12.82 0h10.87v3.64h-10.87zm12.82 0h10.87v3.64h-10.87zm12.82 0h10.87v3.64h-10.87z"/>
<path class="cls-9" d="M878.22 813.76h130.38v7.4H878.22z"/>
<path class="cls-72" d="m880.62 815.81h10.87v3.64h-10.87zm12.82 0h10.87v3.64h-10.87zm12.82 0h10.87v3.64h-10.87zm12.82 0h10.87v3.64h-10.87zm12.82 0h10.87v3.64h-10.87zm12.82 0h10.87v3.64h-10.87zm12.81 0h10.87v3.64h-10.87zm12.82 0h10.87v3.64h-10.87zm12.82 0h10.87v3.64h-10.87zm12.82 0h10.87v3.64h-10.87z"/>
<path class="cls-9" d="m1022.2 813.76h28.22v7.4h-28.22z"/>
<path class="cls-72" d="m1024.6 815.81h23.59v3.64h-23.59z"/>
<path class="cls-9" d="M878.22 843.3h130.38v7.4H878.22z"/>
<path class="cls-72" d="m880.62 845.35h10.87v3.64h-10.87zm12.82 0h10.87v3.64h-10.87zm12.82 0h10.87v3.64h-10.87zm12.82 0h10.87v3.64h-10.87zm12.82 0h10.87v3.64h-10.87zm12.82 0h10.87v3.64h-10.87zm12.81 0h10.87v3.64h-10.87zm12.82 0h10.87v3.64h-10.87zm12.82 0h10.87v3.64h-10.87zm12.82 0h10.87v3.64h-10.87z"/>
<path class="cls-9" d="m1022.2 843.3h28.22v7.4h-28.22z"/>
<path class="cls-72" d="m1024.6 845.35h10.87v3.64h-10.87zm12.82 0h10.87v3.64h-10.87z"/>
<path class="cls-9" d="m1097.7 813.76h28.22v7.4h-28.22z"/>
<path class="cls-72" d="m1100.1 815.81h10.87v3.64h-10.87zm12.82 0h10.87v3.64h-10.87z"/>
<path class="cls-9" d="m1334.5 813.76h28.22v7.4h-28.22z"/>
<path class="cls-72" d="m1336.9 815.81h10.87v3.64h-10.87zm12.82 0h10.87v3.64h-10.87z"/>
<path class="cls-9" d="m1184 813.93h28.22v7.4h-28.22z"/>
<path class="cls-72" d="m1186.4 815.98h10.87v3.64h-10.87zm12.82 0h10.87v3.64h-10.87z"/>
<path class="cls-9" d="m1209.6 813.93h28.22v7.4h-28.22z"/>
<path class="cls-72" d="m1212 815.98h10.87v3.64h-10.87zm12.82 0h10.87v3.64h-10.87z"/>
</g>
<path transform="translate(0 -8.34)" d="m700.82 1041.3s21.06 16.39 25.61 34.61c15.94-0.46 669 0 681.31 0 3.64-10.48 12.72-23.75 23.58-34.61" fill="#565656"/>
<g data-name="console haut">
<path class="cls-9" d="m716.73 55.4h696.4v160.37h-696.4z"/>
<path class="cls-78" d="M743.62 62.41h642a22.31 22.31 0 0 1 22.31 22.31v131.05H721.31V84.72a22.31 22.31 0 0 1 22.31-22.31z"/>
<rect class="cls-79" x="737.6" y="80.99" width="656" height="118.22" rx="15.11"/>
<path class="cls-9" d="m758.04 84.55h40.52v5.33h-40.52zm45 0h40.52v5.33h-40.52zm45 0h40.52v5.33h-40.52zm45 0h40.52v5.33h-40.52zm45 0h40.52v5.33h-40.52zm45 0h40.52v5.33h-40.52zm45 0h40.52v5.33h-40.52zm45 0h40.52v5.33h-40.52zm45 0h40.52v5.33h-40.52zm45 0h40.52v5.33h-40.52zm45 0h40.52v5.33h-40.52zm45 0h40.52v5.33h-40.52zm-477.07 13.33h24.74v3.11h-24.74zm545.18 0h24.74v3.11h-24.74zm-497.44 0h199.85v3.11h-199.85zm-60.45 25.53h261.33v3.11h-261.33zm298 0h135.78v3.11h-135.78zm150.34 0h79.21v3.11h-79.21zm82.89 0h77.67v3.11h-77.67zm-531.23 25.53h294.56v3.11h-294.56zm333.89 0h73.22v3.11h-73.22zm99.11 0h175.89v3.11h-175.89zm-433 27.48h202.89v3.11h-202.89zm221.78 0h212v3.11h-212zm226.56 0h79.21v3.11h-79.21zm82.89 0h77.67v3.11h-77.67zm-218.7-78.54h215.02v3.11h-215.02z"/>
<circle cx="794.67" cy="111.47" r="4.93" fill="url(#d)"/>
<circle cx="828.23" cy="111.47" r="4.93" fill="url(#h)"/>
<circle cx="1015.5" cy="111.47" r="4.93" fill="url(#b)"/>
<circle cx="1135.5" cy="161.99" r="4.93" fill="url(#u)"/>
<circle cx="966.15" cy="161.99" r="4.93" fill="url(#q)"/>
<circle cx="1091" cy="188.1" r="4.93" fill="url(#p)"/>
<circle cx="1061.3" cy="188.1" r="4.93" fill="url(#o)"/>
<circle cx="935.86" cy="188.1" r="4.93" fill="url(#n)"/>
<circle cx="888.56" cy="188.1" r="4.93" fill="url(#m)"/>
<circle cx="980.11" cy="161.99" r="4.93" fill="url(#l)"/>
<circle cx="1163" cy="161.99" r="4.93" fill="url(#k)"/>
<circle cx="1328.4" cy="111.47" r="4.93" fill="url(#ae)"/>
<circle cx="1344.7" cy="135.59" r="4.93" fill="url(#e)"/>
<circle cx="1365.7" cy="161.07" r="4.93" fill="url(#ad)"/>
<circle cx="1068.6" cy="111.47" r="4.93" fill="url(#c)"/>
<circle cx="949.45" cy="161.99" r="4.93" fill="url(#am)"/>
<circle cx="838.08" cy="188.1" r="4.93" fill="url(#al)"/>
<circle cx="935.86" cy="161.99" r="4.93" fill="url(#ak)"/>
<circle cx="1251.2" cy="137.73" r="4.93" fill="url(#aj)"/>
<circle cx="1298.5" cy="188.1" r="4.93" fill="url(#ai)"/>
<circle cx="1310.9" cy="188.1" r="4.93" fill="url(#ah)"/>
<circle cx="1265.7" cy="137.73" r="4.93" fill="url(#ag)"/>
</g>
<path class="cls-9" transform="translate(0 -8.34)" d="M1158.79 15.4V43.13h-5.24c-.1-.59-.21-1.6-.24-2.05-.95 1.55-2.65 2.51-5.58 2.51-5 0-8.14-4-8.14-10.13S1143 23 1148.56 23c2.83 0 4.35 1 4.79 1.88V15.4zm-13.57 17.92c0 3.83 1.5 5.91 4.16 5.91 3.75 0 4.18-3.12 4.18-5.95 0-3.36-.48-5.91-4-5.91-2.9 0-4.34 2.23-4.34 5.95zM1168 34.47c0 2.45 1.23 4.86 3.94 4.86 2.27 0 2.92-.91 3.43-2.1h5.45c-.69 2.41-2.84 6.36-9 6.36-6.48 0-9.29-4.84-9.29-10 0-6.17 3.17-10.58 9.48-10.58 6.76 0 9.06 4.89 9.06 9.8a10.93 10.93 0 0 1-.08 1.66zm7.59-3.35c0-2.29-1-4.22-3.6-4.22s-3.66 1.8-3.88 4.22zM1202.08 36.78c-.68 3.28-3 6.81-8.84 6.81-6.12 0-9.27-4.24-9.27-10.15S1187.51 23 1193.5 23c6.63 0 8.47 4.76 8.58 7h-5.32a3.07 3.07 0 0 0-3.37-2.72c-2.48 0-3.89 2.18-3.89 6 0 4.18 1.49 6.09 3.87 6.09a3.34 3.34 0 0 0 3.36-2.58z"/>
<path class="cls-42" transform="translate(0 -8.34)" d="M1209.63 37.22c.41 1.57 1.69 2.45 3.72 2.45s2.74-.72 2.74-1.91-.84-1.76-3.66-2.45C1206 33.73 1205 31.74 1205 29s2-6 8-6 8 3.26 8.15 5.92h-5.17c-.18-.72-.66-2.1-3.22-2.1-1.8 0-2.39.8-2.39 1.69s.61 1.45 3.81 2.19c6.56 1.53 7.49 3.78 7.49 6.66 0 3.26-2.48 6.22-8.48 6.22s-8.43-2.88-8.86-6.37zM1228.66 23.47c2 6.78 3.8 12.84 4.11 14.66.42-2 1.58-6.39 3.92-14.66h5.42l-6.6 20.23c-1.88 5.66-3.45 7.35-8.18 7.35-.48 0-1.6 0-2.55-.15v-4.38a12.33 12.33 0 0 0 1.41.08c2 0 3-.69 3.75-2.86l-7.16-20.27zM1248.77 37.22c.41 1.57 1.69 2.45 3.72 2.45s2.74-.72 2.74-1.91-.84-1.76-3.66-2.45c-6.41-1.58-7.46-3.57-7.46-6.34s2.05-6 8-6 8 3.26 8.15 5.92h-5.17c-.18-.72-.66-2.1-3.22-2.1-1.8 0-2.39.8-2.39 1.69s.61 1.45 3.81 2.19c6.56 1.53 7.49 3.78 7.49 6.66 0 3.26-2.48 6.22-8.48 6.22s-8.43-2.88-8.86-6.37zM1262.22 23.47h3v-5.33h5.45v5.33h3.85v4.09h-3.85v9.71c0 1.49.45 2.07 2.08 2.07a11.18 11.18 0 0 0 1.23-.06V43a12.26 12.26 0 0 1-3.66.38c-3.83 0-5.1-2-5.1-5.49V27.56h-3zM1281.88 34.47c0 2.45 1.23 4.86 3.95 4.86 2.26 0 2.91-.91 3.43-2.1h5.45c-.7 2.41-2.85 6.36-9 6.36-6.48 0-9.29-4.84-9.29-10 0-6.17 3.17-10.58 9.49-10.58 6.75 0 9 4.89 9 9.8a12.47 12.47 0 0 1-.07 1.66zm7.59-3.35c0-2.29-1-4.22-3.6-4.22s-3.66 1.8-3.88 4.22zM1298.75 28.54v-5.07h5.21c.07.48.18 1.57.21 2.34a6.15 6.15 0 0 1 5.46-2.8 5.22 5.22 0 0 1 5.08 3 6.84 6.84 0 0 1 6.06-3c3.42 0 6.23 2.11 6.23 7.22v12.9h-5.31V30.89c0-1.77-.65-3.51-2.88-3.51s-3.21 1.49-3.21 4.51v11.24h-5.34v-12c0-2-.5-3.68-2.83-3.68s-3.26 1.36-3.26 4.73v11h-5.38z"/>
<path class="cls-9" transform="translate(0 -8.34)" d="M1335.56 43.13V24.44a16.41 16.41 0 0 1-4.52 1.09v-4.06a11.76 11.76 0 0 0 6.2-3.36h3.84v25zM1365.27 30.48c0 6.87-2.18 13.11-9.6 13.11s-9.6-6-9.6-13 2.51-12.95 9.71-12.95c6.97.04 9.49 5.74 9.49 12.84zm-13.6.09c0 4.6.53 8.69 4.06 8.69s3.91-3.83 3.91-8.75-.59-8.5-3.85-8.5-4.12 3.15-4.12 8.56z"/>
<path class="cls-102" d="m737.6 10.58h16.89v30.22h-16.89zm19.41 0h16.89v30.22h-16.89zm19.4 0h16.89v30.22h-16.89zm19.41 0h16.89v30.22h-16.89zm19.41 0h16.89v30.22h-16.89zm19.4 0h16.89v30.22h-16.89zm19.41 0h16.89v30.22h-16.89z"/>
<path class="cls-50" transform="translate(0 -8.34)" d="M752.76 22.48V42.22h-3.23c-.07-.4-.13-1.23-.15-1.62-.68 1.21-1.94 1.95-4.08 1.95-3.53 0-5.75-2.85-5.75-7.14S742 28 745.85 28c2.15 0 3.23.8 3.56 1.48v-7zM743 35.32c0 2.92 1.23 4.5 3.21 4.5 2.85 0 3.29-2.27 3.29-4.61 0-2.61-.44-4.46-3.16-4.46-2.12 0-3.34 1.7-3.34 4.57zM763.43 22.48h3.36v3.28h-3.36zm0 5.87h3.36v13.87h-3.36zM791.32 39.53c0 4.45-1.71 7.17-6.72 7.17-4.77 0-5.87-2.67-6.05-4.34H782a2.54 2.54 0 0 0 2.78 1.84c2.72 0 3.29-1.68 3.29-4.56v-.82a4.14 4.14 0 0 1-4 2.12c-3.58 0-5.74-2.93-5.74-6.77 0-4.4 2.61-7.3 6-7.3 2.47 0 3.5 1.16 3.75 1.9 0-.46.11-1.33.14-1.58h3.18v4zM781.7 34c0 2.57 1.31 4.17 3.2 4.17 2.54 0 3.24-1.73 3.24-4.31s-.55-4.28-3.16-4.28c-1.98.02-3.28 1.59-3.28 4.42zM802.54 22.48h3.36v3.28h-3.36zm0 5.87h3.36v13.87h-3.36zM819.42 28.35h2.23v-3.87H825v3.87h2.83v2.57H825v7.28c0 1.15.33 1.66 1.51 1.66a5.79 5.79 0 0 0 1-.07v2.36a8.11 8.11 0 0 1-2.41.26c-2.52 0-3.43-1.34-3.43-3.72v-7.77h-2.23zM848.77 38.83a27.66 27.66 0 0 0 .19 3.39h-3.21a6.29 6.29 0 0 1-.21-1.51c-.49.83-1.49 1.84-4 1.84-3.32 0-4.72-2.18-4.72-4.32 0-3.14 2.5-4.58 6.59-4.58h2.11v-1c0-1.07-.37-2.21-2.42-2.21-1.86 0-2.23.84-2.43 1.87h-3.2c.2-2.28 1.61-4.35 5.75-4.33 3.6 0 5.58 1.45 5.58 4.7zm-3.27-3.07h-1.8c-2.46 0-3.53.72-3.53 2.27a2 2 0 0 0 2.23 2.06c2.75 0 3.1-1.88 3.1-3.94zM861.21 42.55V22.8h3.36v19.75z"/>
<path class="cls-2" d="M8 2.5h693.63v1468.27H8z"/>
<path class="cls-3" d="M5.21 2.5h696.42v45.6H5.21z"/>
<path class="cls-4" d="m0 2.5h707.85"/>
<path class="cls-5" d="m0 48.1h707.85"/>
<g data-name="console haut">
<path class="cls-9" d="M5.21 55.4h696.4v160.37H5.21z"/>
<path class="cls-78" d="M32.1 62.41h642a22.31 22.31 0 0 1 22.31 22.31v131.05H9.79V84.72A22.31 22.31 0 0 1 32.1 62.41z"/>
<rect class="cls-79" x="26.07" y="80.99" width="656" height="118.22" rx="15.11"/>
<path class="cls-9" d="m46.52 84.55h40.52v5.33h-40.52zm45 0h40.52v5.33h-40.52zm45 0h40.52v5.33h-40.52zm45 0h40.52v5.33h-40.52zm45 0h40.52v5.33h-40.52zm45 0h40.52v5.33h-40.52zm45 0h40.52v5.33h-40.52zm45 0h40.52v5.33h-40.52zm45 0h40.52v5.33h-40.52zm45 0h40.52v5.33h-40.52zm45 0h40.52v5.33h-40.52zm45 0h40.52v5.33h-40.52zm-477.08 13.33h24.74v3.11h-24.74zm545.19 0h24.74v3.11h-24.74zm-497.44 0h199.85v3.11h-199.85zm-60.45 25.53h261.33v3.11h-261.33zm298 0h135.78v3.11h-135.78zm150.33 0h79.21v3.11h-79.21zm82.89 0h77.67v3.11h-77.67zm-531.22 25.53h294.56v3.11h-294.56zm333.89 0h73.22v3.11h-73.22zm99.11 0h175.89v3.11h-175.89zm-433 27.48h202.89v3.11h-202.89zm221.78 0h212v3.11h-212zm226.55 0h79.21v3.11h-79.21zm82.89 0h77.67v3.11h-77.67zm-218.69-78.54h215.02v3.11h-215.02z"/>
<circle cx="83.15" cy="111.47" r="4.93" fill="url(#i)"/>
<circle cx="116.7" cy="111.47" r="4.93" fill="url(#g)"/>
<circle cx="303.96" cy="111.47" r="4.93" fill="url(#ac)"/>
<circle cx="423.96" cy="161.99" r="4.93" fill="url(#ab)"/>
<circle cx="254.63" cy="161.99" r="4.93" fill="url(#aa)"/>
<circle cx="379.52" cy="188.1" r="4.93" fill="url(#z)"/>
<circle cx="349.74" cy="188.1" r="4.93" fill="url(#y)"/>
<circle cx="224.33" cy="188.1" r="4.93" fill="url(#x)"/>
<circle cx="177.04" cy="188.1" r="4.93" fill="url(#w)"/>
<circle cx="268.59" cy="161.99" r="4.93" fill="url(#v)"/>
<circle cx="451.52" cy="161.99" r="4.93" fill="url(#t)"/>
<circle cx="616.87" cy="111.47" r="4.93" fill="url(#s)"/>
<circle cx="633.17" cy="135.59" r="4.93" fill="url(#j)"/>
<circle cx="654.2" cy="161.07" r="4.93" fill="url(#r)"/>
<circle cx="357.04" cy="111.47" r="4.93" fill="url(#af)"/>
<circle cx="237.93" cy="161.99" r="4.93" fill="url(#at)"/>
<circle cx="126.56" cy="188.1" r="4.93" fill="url(#as)"/>
<circle cx="224.33" cy="161.99" r="4.93" fill="url(#ar)"/>
<circle cx="539.68" cy="137.73" r="4.93" fill="url(#aq)"/>
<circle cx="586.96" cy="188.1" r="4.93" fill="url(#ap)"/>
<circle cx="599.41" cy="188.1" r="4.93" fill="url(#ao)"/>
<circle cx="554.2" cy="137.73" r="4.93" fill="url(#an)"/>
</g>
<path class="cls-50" transform="translate(0 -8.34)" d="m51.91 22.48h3.35v3.28h-3.35zm0 5.87h3.35v13.87h-3.35z"/>
<path class="cls-50" d="M9.79 231.39h686.58V1464.1H9.79z"/>
<path class="cls-6" d="m957.39 442.72h455.4v192h-455.4z"/>
<rect transform="rotate(-90 1180.9 542.9)" x="1093.5" y="324.23" width="183.1" height="445.66" rx="15.32" fill="#2e2e2e"/>
<rect class="cls-126" x="965.39" y="449.76" width="439.56" height="177.29" rx="18.46"/>
<path d="m1326.7 500.01h34.22v120.9h-34.22z" fill="#191919"/>
<path class="cls-126" d="m1326.7 493.87h24.67v126.19h-24.67z"/>
<path class="cls-128" transform="translate(0 -8.34)" d="m1232.7 528.79h-99.84a7.3 7.3 0 0 1-7.29-6.94l-1.66-33.94h117.74l-1.65 33.94a7.3 7.3 0 0 1-7.3 6.94z"/>
<path class="cls-40" transform="translate(0 -8.34)" d="m1358 512.49h33.11a9.7 9.7 0 0 0 9.69-9.71v-30.35a9.7 9.7 0 0 0-9.69-9.71h-413a9.7 9.7 0 0 0-9.69 9.71v30.35a9.7 9.7 0 0 0 9.69 9.71h379.93z"/>
<path d="m1326.7 534.62h25.56v80.16h-25.56z"/>
<path class="cls-128" transform="translate(0 -8.34)" d="m1235.1 555.44h-99.84a7.3 7.3 0 0 0-7.29 6.94l-1.66 33.94h117.74l-1.66-33.94a7.3 7.3 0 0 0-7.29-6.94z"/>
<path transform="translate(0 -8.34)" d="M1392.13 632.25h-413.9a9.71 9.71 0 0 1-9.72-9.71v-30.35a9.71 9.71 0 0 1 9.72-9.71h358.45V628H1359v-45.52h33.17a9.71 9.71 0 0 1 9.72 9.71v30.35a9.71 9.71 0 0 1-9.76 9.71z" fill="#616160"/>
<path class="cls-128" transform="translate(0 -8.34)" d="m1358.9 511h33.18a9.71 9.71 0 0 0 9.71-9.71v-30.41a9.71 9.71 0 0 0-9.71-9.71h-413.91a9.71 9.71 0 0 0-9.71 9.71v30.36a9.71 9.71 0 0 0 9.71 9.71h380.73zm33.18 122.55h-413.91a9.71 9.71 0 0 1-9.71-9.71v-30.36a9.71 9.71 0 0 1 9.71-9.71h358.45v45.48h22.28v-45.48h33.18a9.71 9.71 0 0 1 9.71 9.71v30.36a9.71 9.71 0 0 1-9.71 9.71z"/>
<path class="cls-130" d="m1359.7 505.61h33.87v33.87h-33.87z"/>
<path class="cls-130" d="m1359.7 538.41h33.87v33.87h-33.87z"/>
<circle cx="1207.5" cy="512.15" r="5.5" fill="#7f8080"/>
<path d="m1354.1 615h-17.38" fill="none" stroke="#3f3f3f" stroke-miterlimit="10" stroke-width="3px"/>
<path class="cls-58" d="m1353 504.15v111.74"/>
<g data-name="BTN 1">
<path class="cls-43" transform="translate(0 -8.34)" d="m1362.3 541v-6.22a1.29 1.29 0 0 1 1.15-1.28l10.78-1.1h16.74v11.1h-16.74l-10.79-1.24a1.28 1.28 0 0 1-1.14-1.26z"/>
<path class="cls-44" d="m1374.6 524.75h15.48v9.63h-15.48"/>
<path class="cls-46" d="m1381 526.83 9.11-2.08v9.63l-9.11-2.07v-5.48z"/>
<path class="cls-47" transform="translate(0 -8.34)" d="m1374.6 533.09v9.63l7.12-1.37a1.66 1.66 0 0 0 1.35-1.63v-3.44a1.67 1.67 0 0 0-1.31-1.62z"/>
<path class="cls-8" transform="translate(0 -8.34)" d="m1374.3 542.76-10-1a1.34 1.34 0 0 1-1.29-1.34v-5.05a1.34 1.34 0 0 1 1.29-1.34l10-1z"/>
<path class="cls-43" transform="translate(0 -8.34)" d="M1362.33 575.21V569a1.29 1.29 0 0 1 1.15-1.28l10.78-1.1H1391v11.11h-16.74l-10.79-1.24a1.28 1.28 0 0 1-1.14-1.28z"/>
<path class="cls-44" d="m1374.6 558.97h15.48v9.63h-15.48"/>
<path class="cls-46" d="m1381 561.05 9.11-2.08v9.63l-9.11-2.07v-5.48z"/>
<path class="cls-47" transform="translate(0 -8.34)" d="m1374.6 567.31v9.63l7.12-1.37a1.66 1.66 0 0 0 1.35-1.63v-3.44a1.67 1.67 0 0 0-1.31-1.62z"/>
<path class="cls-8" transform="translate(0 -8.34)" d="m1374.3 577-10-1a1.34 1.34 0 0 1-1.29-1.34v-5.05a1.34 1.34 0 0 1 1.29-1.34l10-0.95z"/>
</g>
</svg>
