<?xml version="1.0" encoding="UTF-8" standalone="no"?>
<!-- Generator: Adobe Illustrator 23.0.3, SVG Export Plug-In . SVG Version: 6.00 Build 0)  -->

<svg
   version="1.1"
   id="Layer_1"
   x="0px"
   y="0px"
   viewBox="0 0 779.3 197.3"
   style="enable-background:new 0 0 779.3 197.3;"
   xml:space="preserve"
   sodipodi:docname="pc98.svg"
   inkscape:version="1.1 (c68e22c387, 2021-05-23)"
   xmlns:inkscape="http://www.inkscape.org/namespaces/inkscape"
   xmlns:sodipodi="http://sodipodi.sourceforge.net/DTD/sodipodi-0.dtd"
   xmlns="http://www.w3.org/2000/svg"
   xmlns:svg="http://www.w3.org/2000/svg"><defs
   id="defs73" /><sodipodi:namedview
   id="namedview71"
   pagecolor="#ffffff"
   bordercolor="#666666"
   borderopacity="1.0"
   inkscape:pageshadow="2"
   inkscape:pageopacity="0.0"
   inkscape:pagecheckerboard="0"
   showgrid="false"
   inkscape:zoom="1.4140896"
   inkscape:cx="389.29641"
   inkscape:cy="98.650044"
   inkscape:window-width="1920"
   inkscape:window-height="1129"
   inkscape:window-x="-8"
   inkscape:window-y="-8"
   inkscape:window-maximized="1"
   inkscape:current-layer="Layer_1" />
<g
   id="g60">
	<path
   d="M248.1,8.3c7.5,0.2,15.5-0.8,22.4,2.5c6.3,3.2,6.9,11.9,4.4,17.7c-2.8,5.9-9.8,7.1-15.6,7.3c0-3,0-6,0-8.9   c2-0.4,4.3-0.4,5.8-2c1.3-1.6,1.3-4.1,0-5.7c-2.2-1.8-5.2-1.6-7.8-2c-0.1,12.2,0.1,24.4-0.1,36.6c-3.1-0.1-6.3-0.1-9.4,0   C247.9,38.6,247.6,23.4,248.1,8.3z"
   id="path2" />
	<path
   d="M284.8,12.5c5.4-4.4,12.9-4.9,19.5-3.4c0,3,0,6,0,9c-3.9-0.8-8.3-1.1-11.8,1.1c-8,5-8.1,18.6,0,23.6   c3.4,2.2,7.8,1.9,11.6,1.1c0,3,0,6,0,8.9c-7.1,2-15.8,1.1-21.1-4.5C273.7,38.7,274.4,21,284.8,12.5z"
   id="path4" />
	<g
   id="g8">
		<path
   d="M363.7,16.5c4.2-10.3,21-10.4,25.9-0.7c2.7,4.8,1.3,10.8-2.3,14.8c4.7,3.7,6.2,10.4,3.2,15.7c-4.1,7.9-15.3,9.5-22.5,5    c-5.4-2.8-7.9-9.7-5.8-15.4c0.9-2,2.5-3.6,3.9-5.3C363.4,26.5,361.5,21.3,363.7,16.5z M375,17.7c-2.2,1-3,4.1-1.4,6    c1.7,2.6,6.4,1.8,7-1.3C381.6,19.3,377.9,16.3,375,17.7z M375.1,35.9c-2.8,1-4,4.9-2,7.3c2,2.8,7.1,2.3,8.2-1.1    C383.1,38.4,378.8,34.3,375.1,35.9z"
   id="path6" />
	</g>
	<g
   id="g12">
		<path
   d="M407.2,9c5.4-1,11.9,0.3,15.2,4.9c3.4,4.8,4.4,10.8,4.6,16.5c0.2,6.6-0.8,13.8-5.2,19c-4.6,4.8-12.4,5.7-18.2,3    c-5.9-3-8.3-10-9.1-16.1c-0.5-6.9-0.7-14.3,2.9-20.4C399.4,12.4,403.1,9.8,407.2,9z M408.2,18.8c-4,4.4-3.9,11.1-3.4,16.7    c0.6,3.7,1.6,8.8,6,9.5c2.8-0.4,4.4-3.1,5.1-5.6c1.7-5.4,1.6-11.4-0.3-16.7C414.8,19.7,411.2,16.3,408.2,18.8z"
   id="path10" />
	</g>
	<g
   id="g16">
		<path
   d="M441.2,8.9c5.7-1.4,12.8-0.3,16.4,4.9c3.6,5.5,4.5,12.3,4.5,18.7c-0.3,6.2-1.4,12.9-5.9,17.5c-4.9,4.1-12.2,4.9-17.9,2.1    c-4.7-2.5-7-7.8-8.2-12.8c-1.3-6.5-1.4-13.4,0.6-19.7C432.1,14.6,436.1,10.2,441.2,8.9z M444.1,17.9c-2.7,1.5-3.6,4.7-4.2,7.5    c-0.7,5.1-0.7,10.6,1.3,15.5c0.9,2.1,3,4.3,5.5,3.6c2.4-1,3.6-3.7,4.3-6.1c1.5-5.6,1.4-11.9-1-17.2    C449.1,19,446.6,16.8,444.1,17.9z"
   id="path14" />
	</g>
	<path
   d="M467.3,11.5c6.7,0,13.3,0,20,0c0,2.9,0,5.9-0.1,8.8c-6.6-0.2-13.3,0-19.9-0.1C467.3,17.3,467.3,14.4,467.3,11.5z"
   id="path18" />
	<path
   d="M509.6,11.5c3.1,0,6.2,0,9.2,0c0,6.8,0,13.5,0,20.2c-3.1,0-6.2,0-9.2,0C509.6,25,509.6,18.3,509.6,11.5z"
   id="path20" />
	<path
   d="M532.3,37.5c0.2-8.7-0.1-17.4,0.1-26c3.1,0,6.1,0.1,9.2,0.1c0,8.7,0,17.4,0,26.1c0.3,8.8-7.9,16.5-16.7,15.2   c-5.1,0-10.2,0-15.2,0c0-2.9,0-5.8,0-8.7c5.7-0.1,11.5,0.1,17.2-0.1C530.1,43.9,532.4,40.6,532.3,37.5z"
   id="path22" />
	<path
   d="M578.3,11.5c8.6,0.1,17.1-0.3,25.6,0.3c7,0.6,12.3,8.8,9.3,15.3c-1.9,2.7-4.4,4.9-6.6,7.3c3.9,6,8.4,12,10.6,18.9   c-3.2,0-6.4,0-9.6,0c-1.8-4.4-4.4-8.4-7.2-12.3c-3.4,3.3-6.5,6.9-9.9,10.2c-3.2,3.1-8.1,1.8-12.2,2c0-2.6,0-5.3,0-7.9   c2.8-0.3,6.1,0,8-2.5c5.9-6.3,12.1-12.5,17.9-19c1.8-1.8-0.5-4.2-2.5-3.9c-7.8,0-15.6,0-23.4,0C578.3,17.2,578.3,14.3,578.3,11.5z"
   id="path24" />
	<path
   d="M618.1,11.9c2.1-1.3,5.5,0,5.7,2.6c0.9,3.1-3.2,5.8-5.8,3.9C615.6,17.1,615.7,13.2,618.1,11.9z"
   id="path26" />
	<path
   d="M627.9,11.6c2.5-0.9,5.7,1.1,5.2,3.9c0.2,3.3-4.7,4.8-6.6,2.3C624.7,16,625.6,12.6,627.9,11.6z"
   id="path28" />
	<path
   d="M495.8,13.7c3.1,0,6.2,0,9.2,0c0,7.9,0.1,15.8-0.1,23.7c0,8.1-7.2,15.3-15.2,15.3c-7.5,0-15,0-22.5,0   c-0.1-3.1-0.1-6.2,0-9.3c7.5,0.1,15,0.1,22.6,0c3.2,0.1,6-2.6,5.8-5.9C495.9,29.6,495.8,21.7,495.8,13.7z"
   id="path30" />
	<path
   d="M467.4,24.7c6.6,0.1,13.2,0.1,19.9,0c0,2.8,0.1,5.7,0.1,8.5c-6.7,0.1-13.3,0-20,0C467.3,30.4,467.3,27.5,467.4,24.7z"
   id="path32" />
	<path
   d="M304.6,28c7.4-0.1,14.8,0,22.2-0.1c0.1,2.4,0.1,4.7,0,7.1c-7.4-0.1-14.8,0-22.2-0.1C304.6,32.7,304.6,30.3,304.6,28z"
   id="path34" />
	<path
   d="M544.8,28.3c11.9,0,23.8,0,35.7,0c0,2.8,0,5.6,0,8.5c-11.9,0-23.8,0-35.8,0C544.8,33.9,544.8,31.1,544.8,28.3z"
   id="path36" />
	<path
   d="M189.4,72.1c9.9-5.8,21.1-9.1,32.4-10.4c2.8,7.3,5.6,14.6,8.2,21.9c-3.9,1.1-7.8,2.1-11.6,3.4c-3.7-4.8-6.7-10.1-10.2-15   c-10.3,3.4-20,10.1-24.6,20.2c-2.3,5.4-4,11.6-2.2,17.3c2.4,8.8,11.3,15.3,20.5,15c9-0.1,17.2-4.2,25-8.3   c-4.4,9.4-8.9,18.8-13.3,28.3c-10.2,4.5-22.2,5.1-32.6,0.8c-8-3.3-13.7-10.7-16.3-18.9c-2.7-8.6-4.2-18.2-0.6-26.8   C168.8,87.7,178.6,78.6,189.4,72.1z"
   id="path38" />
	<path
   d="M8.1,81.9c6.1-6.7,12.3-13.4,18.4-20.1c12.7,15.3,25.3,30.7,38,46c3.2-15.3,6.6-30.6,9.8-46C80.7,65.2,86.8,68.6,93,72   c-4.6,2.6-9.3,5.1-14,7.8c-1.2,0.4-1.3,1.8-1.6,2.8c-4.2,21.3-8.6,42.6-12.8,63.8c-14.4-15.8-28.6-31.8-43-47.7   c-1.6,9.8-3.5,19.6-4.8,29.4c3.4,3.1,6.6,6.5,9.9,9.7c-6.7,3.4-13.4,6.8-20.2,10.1c3.2-19.3,6.7-38.5,9.9-57.7   C13.7,87.5,10.9,84.7,8.1,81.9z"
   id="path40" />
	<path
   d="M247.8,63.3c16.7,0.3,33.6-1.1,50,2.4c8.5,1.9,17.2,5.3,22.8,12.2c6.2,7.6,7.1,18.1,6.6,27.5c-0.5,9.4-4.2,18.9-11.7,24.9   c-10,8.1-23.5,10.1-36,10c0.6-8.3,0.2-16.6,0.3-24.9c5.6,0,11.8-0.7,16.1-4.7c3.4-3.4,3.5-8.6,2.5-13c-0.9-3.6-4.2-6-7.6-7.1   c-5.5-1.7-11.3-2-17-2c0,34.3,0,68.5,0,102.8c-8.7,0-17.5,0-26.2,0c0-25.3,0-50.5,0-75.8C248.1,98.1,247.7,80.7,247.8,63.3z"
   id="path42" />
	<path
   d="M373.1,67.8c13.3-5.5,28.3-5.2,42.2-2.1c0.1,8.4,0,16.7,0.1,25.1c-10-2.7-21.2-3.3-30.8,1.5c-8.2,3.8-14.2,11.3-17.3,19.6   c-4.3,11.6-3.6,25.1,2.2,36c4,7.7,11.1,13.8,19.4,16.4c8.3,2.6,17.2,1.8,25.4-0.4c0,8.3,0,16.7,0,25.1c-14.6,3.6-30.7,4-44.5-2.5   c-12.6-5.7-22.2-16.8-27.4-29.5c-7.9-19.4-7.4-42.2,1.6-61.1C349.9,83.4,360.2,72.9,373.1,67.8z"
   id="path44" />
	<g
   id="g48">
		<path
   d="M564,77.7c12-13.9,33.8-16.8,50.1-9.3c8.6,3.8,15.7,11,19,19.8c3,7.9,2.9,16.8,0.1,24.7c-2,4.9-5.5,8.9-8.5,13.2    c5.8,6.1,13,12.5,13.4,21.5c1.5,11.9-2.5,24.6-11.6,32.6c-16.6,15.3-44.4,14.3-61.4,0.1c-8.4-6.9-13.1-17.9-12.3-28.8    c-0.4-10.1,6.2-18.7,13.2-25.3c-3.3-5.8-6.9-11.5-9-17.9C554.7,97.8,556.9,86,564,77.7z M592.2,89c-9.4,1.9-11.1,16.5-2.7,20.9    c6.6,4.2,17.3,0.2,17.4-8.3C608,93.7,599.8,86.6,592.2,89z M591,140.8c-7.6,2-11.2,11.6-7.8,18.4c3.4,8.6,16.1,10.5,22.4,4    c4.9-4.9,5-13.7,0.3-18.8C602.3,140.3,596.1,139.3,591,140.8z"
   id="path46" />
	</g>
	<g
   id="g52">
		<path
   d="M684.3,65.1c12.4-1.9,26,1,35.6,9.4c8.8,8.2,12.7,20.2,15.2,31.7c3.5,17.8,3.4,36.5-1.9,54c-3.3,10.6-9.2,21.2-19.4,26.5    c-12.1,6.2-27,7.6-39.7,2.6c-10-3.9-17.2-12.8-21.5-22.3c-7.1-15.4-8.3-32.8-7.4-49.5c1-13.8,4.3-28.2,13.6-38.9    C665.2,71,674.6,66.4,684.3,65.1z M687.1,90.8c-5.6,2.2-8.2,8.2-10.1,13.6c-3.7,11.9-4.2,24.7-2.4,37c1.2,7.5,3.1,15.3,8.1,21.3    c3.2,3.9,9,5.8,13.6,3.3c5.7-3.2,8.6-9.6,10.4-15.6c3.4-12,3.7-24.8,1.5-37c-1.3-6.6-3.4-13.2-7.7-18.5    C697.3,91,691.9,89,687.1,90.8z"
   id="path50" />
	</g>
	<path
   d="M747.6,64.5c8.4,0.2,16.9-0.5,25.3,0.4V191c-8.4,0.6-16.8,0.1-25.2,0.3C747.6,149,747.6,106.8,747.6,64.5z"
   id="path54" />
	<path
   d="M95.6,67c22.2-0.1,44.4-0.1,66.7,0c-2,7.6-3.5,15.3-5.7,22.8c-0.5-6.1-3.1-12.3-7.9-16.3c-7.1-3.1-15.3-1.7-22.8-2.1   c-2.1,10.4-4.4,20.8-6.6,31.3c3.2,0,6.4,0.1,9.4-1.1c5.2-2.2,11.3-4.5,13.2-10.4c-1.7,10.5-4.4,20.9-5.7,31.5   c-1.5-8.2-9.6-14.3-17.9-13.9c-2.1,9.2-4.6,18.3-6,27.6c1,1.1,1.7,3,3.4,3.1c9.1,1.1,19,0.3,26.6-5.4c4.5-3.1,5.8-8.6,8.4-13.1   c-1.1,7.8-3,15.6-4.4,23.4c-21.3,0-42.6,0-64,0c0.6-3.9,6.5-2.8,7.6-6.8c2.8-8.8,3.9-18,6.1-27c-1.4-1.8-3-3.4-5.2-4.2   c2.5-1.3,5.4-2.4,7-4.8c2-8.7,3.8-17.5,5.6-26.2c0.7-1.9-0.2-3.9-1.7-5.1c-1.7-1.8-4.4-1-6.6-1.2C95.4,68.7,95.5,67.6,95.6,67z"
   id="path56" />
	<path
   d="M418.6,117.1c10.1-0.2,20.1,0,30.2-0.1c0.2,5.8,0.1,11.6,0.1,17.3c-10.1,0-20.1,0-30.2,0   C418.5,128.5,418.6,122.8,418.6,117.1z"
   id="path58" />
</g>
<g
   id="g64">
	<path
   d="M475.6,78.4c6.2-7.4,15.5-12.1,25.1-13.6c12.1-2,25.1,1.5,34.3,9.2c8.2,7.3,14.3,17.6,14.4,28.6c0.6,8.4-1.9,16.6-5.8,24.1   c-9.8,19.7-19.6,39.5-29.7,59.1c-0.7,1.2-1.4,3.1-3.3,2.7c-9-0.2-18.1,0-27.1-0.6c7.2-13.9,14.4-27.9,21.2-42.1   c-5.5-0.5-10.7-2.3-15.7-4.3c-12.9-6.2-21.9-19.1-23.4-32.9C464.8,97.9,468.3,86.7,475.6,78.4z M502.9,90.2   c-8.1,2.4-13.1,11.6-10.3,19.4c2,6.9,9.5,12.1,17.1,11c9.9-0.9,16.8-12.2,13.1-21C520.3,91.8,510.7,87.3,502.9,90.2z"
   id="path62" />
</g>
<g
   id="g68">
	<path
   d="M333.3,13.8c2.3-2.7,5.6-4.4,9.1-4.9c4.4-0.7,9.1,0.5,12.5,3.3c3,2.7,5.2,6.4,5.2,10.4c0.2,3.1-0.7,6-2.1,8.7   c-3.6,7.2-7.1,14.3-10.8,21.4c-0.3,0.4-0.5,1.1-1.2,1c-3.3-0.1-6.6,0-9.8-0.2c2.6-5.1,5.2-10.1,7.7-15.3c-2-0.2-3.9-0.8-5.7-1.6   c-4.7-2.3-7.9-6.9-8.5-11.9C329.4,20.8,330.6,16.8,333.3,13.8z M343.2,18c-2.9,0.9-4.7,4.2-3.7,7c0.7,2.5,3.5,4.4,6.2,4   c3.6-0.3,6.1-4.4,4.7-7.6C349.5,18.6,346,17,343.2,18z"
   id="path66" />
</g>
<path
   style="fill:#ff0000;stroke-width:0.707169"
   d="m 7.4252721,145.91016 c 0,-0.65508 2.1215223,-13.56223 4.7144939,-28.68254 L 16.85426,89.736143 12.893239,85.707068 8.9322184,81.677993 17.27117,72.518389 c 4.586422,-5.037782 8.628774,-9.256212 8.983003,-9.374288 0.35423,-0.118077 9.052678,9.981033 19.329887,22.442466 12.059006,14.621923 18.8594,22.335343 19.175246,21.749743 0.269177,-0.49908 2.487431,-10.454188 4.929453,-22.122473 2.442022,-11.668285 4.680431,-21.491217 4.974242,-21.828738 0.516426,-0.593254 16.928593,7.836639 16.9024,8.681695 -0.0071,0.229903 -3.189388,2.137691 -7.071688,4.239529 -3.8823,2.101839 -7.074205,4.011194 -7.093108,4.243013 -0.01888,0.231819 -2.9625,14.937508 -6.541313,32.679314 L 64.352358,145.48647 43.153652,121.94888 C 31.494364,109.00321 21.750078,98.537914 21.499684,98.692666 21.24929,98.847417 19.990929,105.5178 18.703326,113.51573 l -2.341097,14.54169 4.826772,4.86405 4.826772,4.86404 -9.29525,4.65786 c -7.342201,3.67918 -9.2952509,4.40759 -9.2952509,3.46679 z"
   id="path112" /><path
   style="fill:#ff0000;stroke-width:0.707169"
   d="m 83.092331,143.56963 c 0,-0.38104 1.35246,-1.37846 3.005467,-2.2165 1.653007,-0.83804 3.24422,-1.87874 3.53603,-2.31267 0.819885,-1.2192 1.902303,-5.4886 4.407992,-17.38653 2.461663,-11.68888 2.411591,-12.50139 -0.878962,-14.26244 l -1.664517,-0.89082 2.507215,-1.28628 c 1.378969,-0.70745 2.949532,-1.99651 3.490141,-2.86456 1.048252,-1.68318 6.281323,-25.550592 6.281323,-28.648372 0,-2.384935 -3.13017,-5.106087 -5.87358,-5.106087 -1.145139,0 -2.082071,-0.318226 -2.082071,-0.707169 0,-0.461324 11.451291,-0.707169 32.939531,-0.707169 h 32.93954 l -0.50168,2.298299 c -0.27593,1.264064 -1.36711,5.798784 -2.42487,10.077155 -1.69015,6.836321 -1.99117,7.521801 -2.48434,5.65735 -0.93242,-3.525039 -3.64173,-8.37472 -5.77345,-10.334518 -3.06334,-2.816276 -6.0024,-3.455273 -15.8925,-3.455273 -8.83129,0 -9.08391,0.04259 -9.43716,1.59113 -1.764,7.732953 -6.0285,28.494494 -6.0285,29.349534 0,2.7568 13.23063,-0.87888 18.88044,-5.188199 2.01475,-1.536726 2.33462,-1.611337 2.33462,-0.544563 0,1.012861 -2.55168,14.811672 -3.94828,21.351312 -0.33234,1.55618 -0.46733,1.48411 -2.28255,-1.2187 -2.48831,-3.705 -5.95116,-6.22898 -10.3302,-7.52942 -5.97675,-1.7749 -5.54863,-2.30577 -8.43006,10.45317 -3.68504,16.31732 -3.76,17.03809 -1.95924,18.83885 1.31703,1.31703 2.30188,1.49023 8.38715,1.47497 7.96535,-0.0199 11.78209,-0.76087 16.76537,-3.25445 4.54646,-2.275 6.39681,-4.00617 8.97464,-8.39655 l 2.07608,-3.53584 -0.46568,2.82867 c -0.25612,1.55577 -1.06512,5.8073 -1.79777,9.44783 -0.73266,3.64054 -1.33211,6.74324 -1.33211,6.8949 0,0.15166 -14.16105,0.27574 -31.46901,0.27574 -20.072666,0 -31.469009,-0.25089 -31.469009,-0.6928 z"
   id="path151" /><path
   style="fill:#ff0000;stroke-width:0.707169"
   d="m 186.33897,146.51527 c -14.08815,-3.68241 -22.36432,-15.30977 -23.80967,-33.4507 -1.5554,-19.522098 18.17769,-40.33637 45.7319,-48.237566 3.30602,-0.948002 7.64925,-1.945365 9.65164,-2.216362 l 3.6407,-0.492721 1.56172,4.122686 c 0.85895,2.267477 2.629,7.047349 3.93344,10.621935 l 2.37172,6.499251 -3.68472,1.05794 c -8.02936,2.305362 -6.8942,2.785577 -12.1084,-5.1223 -2.57282,-3.901945 -4.94388,-7.258858 -5.26902,-7.459808 -0.92394,-0.571027 -10.65058,4.336044 -14.81209,7.472672 -10.64449,8.023007 -15.79787,22.866433 -11.44877,32.976203 1.84239,4.28274 6.50808,8.86458 11.09129,10.89195 6.42002,2.83988 15.99427,1.73074 26.32189,-3.0493 3.2701,-1.51353 6.012,-2.66945 6.09311,-2.56871 0.0811,0.10074 -2.59904,6.02218 -5.95588,13.15876 -6.73633,14.32129 -6.61141,14.1819 -14.34263,16.00454 -5.82493,1.37323 -13.22622,1.29187 -18.96623,-0.20847 z"
   id="path190" /><path
   style="fill:#ff0000;stroke-width:0.707169"
   d="M 247.86265,127.29038 V 63.64519 h 15.4349 c 24.51743,0 36.29014,1.690701 46.44237,6.669679 11.90111,5.836682 16.88267,14.896112 16.94182,30.810261 0.0333,8.95165 -0.77154,12.80626 -4.05283,19.41073 -5.47017,11.01019 -18.35819,17.87265 -35.99736,19.16744 l -6.64056,0.48745 0.27855,-11.93074 c 0.1532,-6.56191 0.33225,-11.99295 0.39788,-12.06898 0.0656,-0.076 2.33774,-0.49157 5.04914,-0.92344 5.84898,-0.9316 10.47067,-3.43103 12.14471,-6.56789 1.51368,-2.83641 1.61701,-9.960933 0.18639,-12.851933 -1.21331,-2.451856 -4.76158,-5.012572 -8.37886,-6.046869 -1.40705,-0.40232 -5.66098,-0.931058 -9.45317,-1.174972 l -6.8949,-0.443481 v 51.376565 51.37656 h -12.72904 -12.72904 z"
   id="path229" /><path
   style="fill:#ff0000;stroke-width:0.707169"
   d="m 380.96091,189.86468 c -16.42183,-3.76263 -30.37805,-15.43797 -37.38022,-31.27113 -8.76335,-19.81548 -8.33582,-43.32211 1.14168,-62.772181 3.86879,-7.939664 9.40183,-15.05911 15.42325,-19.845304 5.43041,-4.316431 15.50746,-9.10763 22.43269,-10.665773 6.71848,-1.511625 19.39932,-1.659909 27.0492,-0.3163 l 5.12698,0.900491 v 12.038239 12.038239 l -2.2983,-0.424618 c -1.26407,-0.233539 -5.32145,-0.621732 -9.01641,-0.862651 -11.80383,-0.769638 -20.3609,2.253713 -27.96639,9.880978 -4.70731,4.72079 -8.06566,10.76583 -9.86921,17.76459 -1.45455,5.64445 -1.44099,16.70171 0.0275,22.39282 3.61093,13.99451 13.98167,24.26063 27.07227,26.79917 4.21392,0.81716 13.04364,0.58697 19.04511,-0.49652 l 2.2983,-0.41493 v 12.04486 12.04486 l -3.35906,0.80524 c -5.49537,1.31737 -24.54214,1.54797 -29.72735,0.35992 z"
   id="path268" /><path
   style="fill:#ff0000;stroke-width:0.707169"
   d="m 418.9975,125.52246 v -8.13244 h 14.85054 14.85055 v 8.13244 8.13244 H 433.84804 418.9975 Z"
   id="path307" /><path
   style="fill:#ff0000;stroke-width:0.707169"
   d="m 486.35532,187.60782 c -0.87512,-0.16856 -1.59113,-0.44556 -1.59113,-0.61558 0,-0.17001 4.61253,-9.52992 10.25006,-20.7998 l 10.25005,-20.49068 -1.94082,-0.39383 c -11.25049,-2.28295 -17.82538,-5.36447 -24.09052,-11.29074 -8.44776,-7.99084 -13.02378,-17.74383 -13.11009,-27.94187 -0.0625,-7.385543 1.04374,-12.199129 4.38804,-19.093561 5.38599,-11.103487 16.70115,-19.310451 29.811,-21.622122 24.13531,-4.255801 47.15951,13.194783 48.58835,36.826253 0.65282,10.79702 -0.0134,12.56895 -19.21066,51.09294 l -17.3555,34.82806 -12.19882,-0.0963 c -6.70936,-0.053 -12.91484,-0.23421 -13.78996,-0.40277 z m 28.59472,-68.1598 c 5.84612,-2.83006 10.18098,-10.83908 9.0705,-16.75849 -2.11989,-11.299991 -13.62538,-16.917075 -23.7826,-11.610883 -6.43806,3.363284 -9.55177,9.809033 -8.26917,17.118173 1.72582,9.83495 13.74817,15.72087 22.98127,11.2512 z"
   id="path346" /><path
   style="fill:#ff0000;stroke-width:0.707169"
   d="m 586.59508,189.93223 c -14.09262,-2.95529 -24.86252,-10.84305 -30.27163,-22.1706 -2.57876,-5.40035 -2.6103,-5.57334 -2.6103,-14.3176 0,-8.5298 0.0823,-9.0184 2.26537,-13.4561 1.24595,-2.53269 4.07864,-6.60862 6.29485,-9.05762 l 4.02947,-4.45271 -4.38819,-8.61001 c -5.1097,-10.02566 -6.13167,-14.55617 -5.03221,-22.308333 2.6385,-18.603871 17.58856,-30.49973 38.33038,-30.49973 18.58788,0 33.38172,9.961877 38.17724,25.707808 1.21151,3.977941 1.4158,6.09615 1.14011,11.821375 -0.28765,5.97352 -0.65036,7.61308 -2.52611,11.41855 -1.20464,2.44393 -3.47835,6.16792 -5.05271,8.27552 l -2.86246,3.83202 3.74373,3.94684 c 4.38979,4.62795 7.72998,9.39661 8.8155,12.58553 1.50626,4.42493 1.74739,11.60782 0.57653,17.17297 -3.83253,18.21598 -18.85985,30.10501 -38.95987,30.82352 -4.25696,0.15218 -8.90182,-0.13099 -11.6697,-0.71143 z m 15.85824,-23.87455 c 6.43291,-3.29787 9.0891,-12.24278 5.65344,-19.0384 -1.4309,-2.83025 -5.64385,-6.17069 -8.4453,-6.69625 -4.71215,-0.884 -9.91644,-0.008 -12.73734,2.14333 -6.51438,4.96877 -6.94563,15.86226 -0.85004,21.47231 3.61671,3.32862 11.92347,4.40327 16.37924,2.11901 z m -1.02037,-55.56366 c 3.77551,-1.89688 5.67144,-5.26525 5.67144,-10.07605 0,-6.937507 -4.18366,-11.389597 -11.1284,-11.842414 -5.31997,-0.346876 -8.43352,1.267887 -10.66326,5.530216 -4.28882,8.198428 1.08873,17.628528 10.05116,17.625798 2.02312,-6.2e-4 4.68912,-0.54425 6.06906,-1.23755 z"
   id="path385" /><path
   style="fill:#ff0000;stroke-width:0.707169"
   d="m 679.23561,190.51645 c -6.63985,-1.76384 -11.39735,-4.57366 -16.65869,-9.83876 -11.85957,-11.86804 -18.15476,-33.59788 -17.07988,-58.95663 1.04526,-24.659969 8.11992,-40.773811 21.92603,-49.940547 15.81725,-10.502062 40.82496,-8.368944 53.54636,4.56742 14.62828,14.875458 20.49288,53.586827 12.36649,81.629297 -6.56427,22.65191 -20.80235,33.76424 -43.07553,33.61897 -3.92444,-0.0256 -8.8856,-0.51148 -11.02478,-1.07975 z m 16.46438,-23.8701 c 3.09923,-1.29746 7.38486,-6.21043 9.40806,-10.78525 0.91999,-2.08026 2.34751,-7.05256 3.17226,-11.04954 2.00371,-9.71055 1.65049,-27.67765 -0.70353,-35.78638 -4.01053,-13.814771 -10.51024,-20.342483 -18.89965,-18.981069 -6.15632,0.999034 -11.18104,8.784804 -13.76934,21.335519 -1.23263,5.97704 -1.41024,8.87655 -1.14787,18.73942 0.3471,13.04822 1.55368,19.6404 4.89055,26.71963 4.15697,8.8191 10.58216,12.51516 17.04952,9.80767 z"
   id="path424" /><path
   style="fill:#ff0000;stroke-width:0.707169"
   d="M 747.83098,127.99755 V 65.059527 h 12.37545 12.37545 v 62.938023 62.93802 h -12.37545 -12.37545 z"
   id="path463" /><path
   style="fill:#ff0000;stroke-width:0.707169"
   d="m 627.04655,17.537786 c -1.09081,-1.090809 -1.09081,-3.576506 0,-4.667314 1.98361,-1.983607 5.51592,-0.489168 5.51592,2.333657 0,1.895536 -1.28673,3.182259 -3.18226,3.182259 -0.81678,0 -1.86693,-0.381871 -2.33366,-0.848602 z"
   id="path502" /><path
   style="fill:#ff0000;stroke-width:0.707169"
   d="m 617.40779,16.828056 c -0.92858,-1.325737 -0.94886,-1.77433 -0.13585,-3.005467 1.88053,-2.847681 6.09733,-1.930163 6.09733,1.326695 0,3.317136 -4.02084,4.449418 -5.96148,1.678772 z"
   id="path541" /><path
   style="fill:#ff0000;stroke-width:0.707169"
   d="m 578.81764,49.14823 c 0,-3.836369 0.0285,-3.889429 2.08823,-3.889429 3.43688,0 4.92818,-1.166974 14.53024,-11.370255 7.27738,-7.733052 9.19319,-10.182003 9.19319,-11.751527 V 20.15431 L 591.72347,19.961565 578.81764,19.76882 v -3.9155 -3.9155 l 13.74026,0.218817 c 12.64298,0.201342 13.89952,0.336956 15.73451,1.698177 3.28311,2.435463 5.1765,5.809749 5.1765,9.225263 0,2.698035 -0.4348,3.550316 -3.58697,7.031048 -2.10613,2.325666 -3.42682,4.378185 -3.19905,4.971738 0.21335,0.555986 1.62432,2.834352 3.13548,5.063035 2.95628,4.359953 6.47922,10.972278 6.47922,12.161082 0,0.422027 -1.8017,0.730678 -4.26521,0.730678 -3.42663,0 -4.34986,-0.243313 -4.69578,-1.237545 -0.86693,-2.491729 -6.23746,-10.784324 -6.98425,-10.784324 -0.42312,0 -3.12573,2.421531 -6.00582,5.381179 -5.82715,5.988129 -7.01019,6.64069 -12.03908,6.64069 h -3.48981 z"
   id="path580" /><path
   style="fill:#ff0000;stroke-width:0.707169"
   d="m 544.87354,32.529764 v -4.243013 h 17.67922 17.67922 v 4.243013 4.243012 h -17.67922 -17.67922 z"
   id="path619" /><path
   style="fill:#ff0000;stroke-width:0.707169"
   d="m 510.22227,48.441061 v -3.889428 h 8.8861 c 5.01303,0 9.50838,-0.333034 10.31381,-0.76409 2.8418,-1.520881 3.42949,-4.718609 3.42949,-18.660338 V 12.021869 h 4.24301 4.24302 l -0.0155,14.320168 c -0.0174,16.011558 -0.44442,17.900964 -5.02509,22.232443 -3.51726,3.325917 -5.37463,3.756009 -16.22048,3.756009 h -9.85433 z"
   id="path658" /><path
   style="fill:#ff0000;stroke-width:0.707169"
   d="m 510.22227,21.568648 v -9.546779 h 4.24301 4.24301 v 9.546779 9.546778 h -4.24301 -4.24301 z"
   id="path697" /><path
   style="fill:#ff0000;stroke-width:0.707169"
   d="m 467.79214,48.087477 v -4.243013 h 12.07627 12.07627 l 2.06711,-2.067109 2.0671,-2.067109 V 26.926811 14.143375 h 4.24302 4.24301 v 12.683002 c 0,7.174503 -0.3243,13.547626 -0.74669,14.673752 -1.49234,3.978725 -4.37588,7.253911 -7.95813,9.039025 -3.4305,1.709489 -4.15384,1.791335 -15.83135,1.791335 h -12.23661 z"
   id="path736" /><path
   style="fill:#ff0000;stroke-width:0.707169"
   d="m 469.73686,32.73042 c -1.84506,-0.279504 -1.94472,-0.490293 -1.94472,-4.113484 v -3.818884 h 9.54678 9.54678 v 3.773328 3.773328 l -2.65188,0.438329 c -2.82544,0.467017 -11.26905,0.43637 -14.49696,-0.05262 z"
   id="path775" /><path
   style="fill:#ff0000;stroke-width:0.707169"
   d="m 467.79214,15.911297 v -3.889428 h 9.54678 9.54678 v 3.889428 3.889429 h -9.54678 -9.54678 z"
   id="path814" /><path
   style="fill:#ff0000;stroke-width:0.707169"
   d="m 439.15338,51.961771 c -3.18703,-1.719175 -4.58779,-3.196737 -6.35457,-6.70297 -2.04538,-4.059124 -3.19378,-9.485228 -3.19378,-15.09036 0,-15.253211 8.93795,-24.1183502 20.83073,-20.6610272 7.68713,2.2347092 11.40423,10.3515892 10.85418,23.7018172 -0.38655,9.381731 -2.44847,14.46889 -7.11666,17.558154 -3.63437,2.405112 -11.60103,3.038622 -15.0199,1.194386 z m 9.08999,-8.163704 c 5.75364,-4.525816 4.9837,-22.732424 -1.1035,-26.094393 -1.75369,-0.968561 -2.0713,-0.937463 -3.8291,0.37492 -2.70008,2.015904 -3.91255,6.041077 -3.94545,13.098115 -0.0396,8.504884 2.35132,13.600909 6.58602,14.037268 0.23925,0.02465 1.27066,-0.612506 2.29203,-1.41591 z"
   id="path853" /><path
   style="fill:#ff0000;stroke-width:0.707169"
   d="m 406.03053,52.879862 c -3.34085,-0.885127 -7.26631,-4.698951 -9.09759,-8.838862 -0.75716,-1.711684 -1.63798,-5.704436 -1.95739,-8.872782 -1.63122,-16.181134 4.34978,-26.0085289 15.79908,-25.9594931 10.22438,0.04379 15.431,7.3695691 15.56966,21.9067011 0.11704,12.271165 -3.50361,19.3118 -11.08962,21.564603 -4.0354,1.198384 -5.34786,1.226817 -9.22414,0.199833 z m 8.27937,-9.763384 c 2.09638,-2.491411 2.90084,-5.721456 2.90084,-11.647468 0,-5.926011 -0.80446,-9.156056 -2.90084,-11.647467 -5.24901,-6.238099 -10.89129,1.534085 -9.96877,13.73189 0.77222,10.210483 5.55961,14.803032 9.96877,9.563045 z"
   id="path892" /><path
   style="fill:#ff0000;stroke-width:0.707169"
   d="m 373.53892,52.97108 c -5.46096,-1.282193 -8.78993,-3.945719 -10.72759,-8.583177 -0.60198,-1.440735 -1.0945,-3.437982 -1.0945,-4.438326 0,-2.061485 2.19245,-6.718618 3.78527,-8.040538 0.93162,-0.773175 0.85308,-1.324026 -0.64858,-4.549289 -3.41655,-7.338065 -1.43627,-13.265571 5.64464,-16.895874 4.01304,-2.0574416 10.4998,-1.5632911 14.5353,1.107275 5.53457,3.662603 7.06336,10.777854 3.55521,16.546543 l -1.37437,2.259963 2.19151,3.525404 c 1.92516,3.096929 2.15257,3.995048 1.87107,7.38956 -0.23369,2.817934 -0.85947,4.570853 -2.3113,6.474297 -3.17603,4.163993 -10.02141,6.473273 -15.42666,5.204162 z m 7.22014,-9.575569 c 1.84897,-2.350582 1.84897,-3.8232 0,-6.173782 -2.02694,-2.576838 -5.64927,-2.576838 -7.67621,0 -0.80611,1.024809 -1.46566,2.41391 -1.46566,3.086891 0,2.371865 2.76248,4.950181 5.30377,4.950181 1.72069,0 2.77507,-0.511872 3.8381,-1.86329 z m -1.31652,-18.669485 c 0.9456,-0.50607 1.36784,-1.48338 1.36784,-3.165957 0,-4.850247 -6.46746,-6.153929 -8.06029,-1.624756 -1.37419,3.907487 2.7827,6.883147 6.69245,4.790713 z"
   id="path931" /><path
   style="fill:#ff0000;stroke-width:0.707169"
   d=""
   id="path970" /><path
   style="fill:#ff0000;stroke-width:0.707169"
   d="m 340.49532,45.978819 c 1.94826,-3.882362 3.54229,-7.382848 3.54229,-7.778857 0,-0.396009 -0.64913,-0.720017 -1.44251,-0.720017 -5.50912,0 -12.69298,-8.004744 -12.69298,-14.143375 0,-2.609882 1.6679,-6.613084 3.73726,-8.969952 8.59233,-9.7861213 24.75405,-4.8065058 25.81217,7.953032 0.32063,3.86631 0.13709,4.373947 -6.27318,17.350424 l -6.60347,13.367584 h -4.81094 -4.81093 z m 9.02285,-18.862398 c 1.98699,-2.169419 2.03627,-5.144708 0.12546,-7.573912 -1.15894,-1.473354 -2.07435,-1.86329 -4.37423,-1.86329 -3.87406,0 -6.18197,2.112051 -6.18197,5.657351 0,5.645133 6.54875,8.018245 10.43074,3.779851 z"
   id="path1009" /><path
   style="fill:#ff0000;stroke-width:0.707169"
   d="m 305.14333,31.46901 v -3.182259 h 10.60753 10.60753 v 3.182259 3.18226 h -10.60753 -10.60753 z"
   id="path1048" /><path
   style="fill:#ff0000;stroke-width:0.707169"
   d="m 293.31042,52.988164 c -7.41619,-1.436431 -12.69692,-6.32236 -15.04311,-13.91844 -2.42443,-7.849404 -1.52888,-14.755481 2.79799,-21.576827 3.8098,-6.00619 12.17696,-9.7116958 19.46239,-8.6191776 l 3.2013,0.4800639 v 3.9859257 3.985926 l -4.41981,0.0041 c -5.91435,0.0055 -9.251,2.024596 -11.56761,6.999751 -2.60709,5.598984 -1.99479,11.708154 1.60187,15.982536 2.64498,3.143417 5.25837,4.239609 10.10742,4.239609 h 4.27813 v 3.911622 c 0,2.512556 -0.31617,4.009063 -0.88396,4.184054 -2.28252,0.703459 -6.82425,0.865821 -9.53461,0.340855 z"
   id="path1087" /><path
   style="fill:#ff0000;stroke-width:0.707169"
   d="m 247.86587,39.071075 c 0.002,-8.070564 0.21207,-18.298563 0.46732,-22.728888 l 0.46411,-8.0551354 7.84191,0.4031103 c 14.20909,0.7304128 19.03145,4.0832711 19.03145,13.2320701 0,6.348749 -2.84344,10.272757 -8.91595,12.304221 -1.86107,0.622592 -4.16821,1.131986 -5.12698,1.131986 -1.65914,0 -1.74321,-0.20462 -1.74321,-4.243013 0,-3.943892 0.11354,-4.243013 1.61058,-4.243013 2.69868,0 4.75523,-1.933746 4.74311,-4.459904 -0.006,-1.242009 -0.267,-2.661796 -0.58009,-3.155081 -0.63702,-1.003613 -4.56663,-2.285377 -7.00647,-2.285377 h -1.5958 v 18.386388 18.386388 h -4.5966 -4.5966 z"
   id="path1126" /></svg>
